<svg xmlns="http://www.w3.org/2000/svg" width="21.475" height="14.609" viewBox="0 0 21.475 14.609">
  <path id="Trazado_228561" data-name="Trazado 228561" d="M11.66,15.189a6.789,6.789,0,0,1-1.294,4.443A4.471,4.471,0,0,1,6.719,21.2a4.5,4.5,0,0,1-3.672-1.572,6.779,6.779,0,0,1-1.3-4.434v-2.6A6.789,6.789,0,0,1,3.042,8.148,4.483,4.483,0,0,1,6.7,6.586a4.484,4.484,0,0,1,3.662,1.572,6.8,6.8,0,0,1,1.3,4.443ZM8.369,12.172a5.071,5.071,0,0,0-.4-2.29A1.338,1.338,0,0,0,6.7,9.125a1.307,1.307,0,0,0-1.235.7,4.777,4.777,0,0,0-.415,2.129V15.59a5.109,5.109,0,0,0,.4,2.329,1.343,1.343,0,0,0,1.27.737,1.325,1.325,0,0,0,1.24-.718,4.878,4.878,0,0,0,.41-2.251Zm5.2,1.883.869-7.273h8.311V9.34H17.109l-.322,2.825a3.882,3.882,0,0,1,.923-.363,4.211,4.211,0,0,1,1.118-.157A4.171,4.171,0,0,1,22.085,12.9a5.055,5.055,0,0,1,1.138,3.521,5.046,5.046,0,0,1-.61,2.476A4.2,4.2,0,0,1,20.9,20.6a5.411,5.411,0,0,1-2.607.6,5.822,5.822,0,0,1-2.51-.551,4.5,4.5,0,0,1-1.836-1.512,3.675,3.675,0,0,1-.654-2.171h3.3a1.867,1.867,0,0,0,.5,1.238,1.581,1.581,0,0,0,1.182.458q1.66,0,1.66-2.456,0-2.271-2.031-2.271a2.027,2.027,0,0,0-1.719.741Z" transform="translate(-1.748 -6.586)" fill="#12263f" opacity="0.134"/>
</svg>
