<svg xmlns="http://www.w3.org/2000/svg" xmlns:xlink="http://www.w3.org/1999/xlink" width="108.419" height="108.419" viewBox="0 0 108.419 108.419">
  <defs>
    <linearGradient id="linear-gradient" x1="0.5" x2="0.5" y2="1" gradientUnits="objectBoundingBox">
      <stop offset="0" stop-color="#fdbe41"/>
      <stop offset="1" stop-color="#d09f40"/>
    </linearGradient>
    <clipPath id="clip-path">
      <rect id="Rectángulo_57662" data-name="Rectángulo 57662" width="63.072" height="71.674" fill="#12263f"/>
    </clipPath>
  </defs>
  <g id="Grupo_179509" data-name="Grupo 179509" transform="translate(-2447.664 10359.803)">
    <circle id="Elipse_6219" data-name="Elipse 6219" cx="54.209" cy="54.209" r="54.209" transform="translate(2447.664 -10359.803)" fill="url(#linear-gradient)"/>
    <g id="Grupo_179421" data-name="Grupo 179421" transform="translate(2469.876 -10343.058)">
      <g id="Grupo_179420" data-name="Grupo 179420" clip-path="url(#clip-path)">
        <path id="Trazado_228428" data-name="Trazado 228428" d="M125.8,144.972c0,.9-.022,1.7,0,2.5.152,4.712-2.563,7.483-6.552,8.727a10.172,10.172,0,0,1-1.738.384c-.434.055-.528.238-.525.638.016,2.209.01,4.418.007,6.626a1.386,1.386,0,0,1-1.561,1.554q-13,0-26-.006c-1.176,0-1.676-.518-1.675-1.712.005-6.991.019-13.983,0-20.974a2.2,2.2,0,0,0-.378-1.18,21.9,21.9,0,0,1,13.339-34.042c9.1-1.775,16.622,1.136,22.289,8.5a20.512,20.512,0,0,1,4.238,13.007,9.881,9.881,0,0,0,.951,3.53c1.049,2.893,2.092,5.79,3.244,8.642a2.842,2.842,0,0,1-2.779,3.822c-.92-.069-1.85-.012-2.868-.012m-11.631,17.609v-.73c0-2.105,0-4.211,0-6.316a1.428,1.428,0,0,1,1.51-1.563,16.715,16.715,0,0,0,2.684-.366c2.9-.725,4.725-2.744,4.607-5.916-.044-1.2-.008-2.394-.007-3.591,0-1.481.511-1.962,1.974-1.933,1.264.025,2.529.005,3.85.005-.111-.347-.186-.623-.287-.888-1.119-2.955-2.215-5.92-3.376-8.858a9.986,9.986,0,0,1-.726-3.584,21.163,21.163,0,0,0-.473-4.216,19.1,19.1,0,0,0-37.631,2.48,18.7,18.7,0,0,0,3.733,13.23,2.854,2.854,0,0,1,.592,1.821q-.026,9.845-.012,19.691v.736Z" transform="translate(-73.058 -93.726)" fill="#12263f"/>
        <path id="Trazado_228429" data-name="Trazado 228429" d="M251.578,5.2c0,1.131,0,2.263,0,3.394a1.483,1.483,0,1,1-2.949,0q-.009-3.494,0-6.989a1.485,1.485,0,1,1,2.963-.041c.018,1.213,0,2.426,0,3.64h-.018" transform="translate(-217.821 0)" fill="#12263f"/>
        <path id="Trazado_228430" data-name="Trazado 228430" d="M102.035,54.516a1.571,1.571,0,0,1-1.03,1.41,1.385,1.385,0,0,1-1.619-.426c-1.514-2-3.02-4-4.488-6.036a1.349,1.349,0,0,1,.4-1.994,1.455,1.455,0,0,1,2.016.388c1.437,1.908,2.877,3.814,4.3,5.735a4.85,4.85,0,0,1,.423.924" transform="translate(-82.895 -41.369)" fill="#12263f"/>
        <path id="Trazado_228431" data-name="Trazado 228431" d="M354.756,54.476a5.508,5.508,0,0,1,.462-.971q2.091-2.835,4.222-5.641a1.474,1.474,0,1,1,2.338,1.779q-2.144,2.865-4.3,5.718a1.418,1.418,0,0,1-1.688.525,1.591,1.591,0,0,1-1.03-1.411" transform="translate(-310.805 -41.327)" fill="#12263f"/>
        <path id="Trazado_228432" data-name="Trazado 228432" d="M446.875,155.647c-.15.2-.355.748-.743.957-1.971,1.065-3.98,2.061-6,3.04a1.421,1.421,0,0,1-1.892-.677,1.445,1.445,0,0,1,.659-1.992c1.928-.978,3.86-1.95,5.806-2.894,1.059-.514,2.142.144,2.167,1.565" transform="translate(-383.803 -134.84)" fill="#12263f"/>
        <path id="Trazado_228433" data-name="Trazado 228433" d="M8.949,157.884a1.583,1.583,0,0,1-2.218,1.44c-2.008-.951-3.991-1.96-5.965-2.982a1.409,1.409,0,0,1-.6-1.914,1.461,1.461,0,0,1,1.943-.693c2.012.986,4.019,1.984,5.991,3.047.374.2.573.727.853,1.1" transform="translate(0 -134.562)" fill="#12263f"/>
        <path id="Trazado_228434" data-name="Trazado 228434" d="M170.186,191.843a11.174,11.174,0,1,1,11.1,11.228,11.162,11.162,0,0,1-11.1-11.228m11.125,7.685a7.643,7.643,0,1,0-7.6-8.009,7.633,7.633,0,0,0,7.6,8.009" transform="translate(-149.102 -158.321)" fill="#12263f"/>
        <path id="Trazado_228435" data-name="Trazado 228435" d="M227.146,232.154a5.479,5.479,0,1,1-5.464-5.543,5.52,5.52,0,0,1,5.464,5.543m-5.469,1.89a1.941,1.941,0,1,0-1.965-1.92,1.925,1.925,0,0,0,1.965,1.92" transform="translate(-189.404 -198.536)" fill="#12263f"/>
      </g>
    </g>
  </g>
</svg>
