<svg xmlns="http://www.w3.org/2000/svg" xmlns:xlink="http://www.w3.org/1999/xlink" width="433.742" height="241.587" viewBox="0 0 433.742 241.587">
  <defs>
    <filter id="Rectángulo_46824" x="0" y="0" width="433.742" height="233.075" filterUnits="userSpaceOnUse">
      <feOffset dy="3" input="SourceAlpha"/>
      <feGaussianBlur stdDeviation="5" result="blur"/>
      <feFlood flood-opacity="0.161"/>
      <feComposite operator="in" in2="blur"/>
      <feComposite in="SourceGraphic"/>
    </filter>
    <clipPath id="clip-path">
      <rect id="Rectángulo_57619" data-name="Rectángulo 57619" width="93.437" height="84.051" fill="#12263f"/>
    </clipPath>
  </defs>
  <g id="Grupo_179511" data-name="Grupo 179511" transform="translate(-584.212 -2631.929)">
    <g transform="matrix(1, 0, 0, 1, 584.21, 2631.93)" filter="url(#Rectángulo_46824)">
      <path id="Rectángulo_46824-2" data-name="Rectángulo 46824" d="M0,0H341.742a62,62,0,0,1,62,62V203.075a0,0,0,0,1,0,0H62a62,62,0,0,1-62-62V0A0,0,0,0,1,0,0Z" transform="translate(15 12)" fill="#f6f6f6"/>
    </g>
    <text id="_02" data-name="02" transform="translate(800.878 2827.516)" fill="#e2e5e8" font-size="168" font-family="Roboto-Bold, Roboto" font-weight="700"><tspan x="0" y="0">02</tspan></text>
    <path id="Trazado_228555" data-name="Trazado 228555" d="M7.625,11.742H2.844l-.7,4.031H7.7L7.484,17H.461L2.438,5.625H9.383L9.164,6.852H3.688l-.633,3.664H7.836Zm5.18,1.016H9.094l.211-1.18h3.711Zm4.266,3.227a2.145,2.145,0,0,0,1.367-.441,2.1,2.1,0,0,0,.8-1.2l1.336-.008a3.014,3.014,0,0,1-.637,1.453,3.68,3.68,0,0,1-2.926,1.367,3.017,3.017,0,0,1-1.785-.551,3.084,3.084,0,0,1-1.074-1.492,4.972,4.972,0,0,1-.234-2.152l.039-.391a5.605,5.605,0,0,1,.711-2.18,4.11,4.11,0,0,1,1.469-1.5,3.648,3.648,0,0,1,2-.5,2.857,2.857,0,0,1,2.125.891,3.08,3.08,0,0,1,.8,2.18l-1.32-.008a2.029,2.029,0,0,0-.461-1.34,1.607,1.607,0,0,0-1.2-.543,2.254,2.254,0,0,0-1.832.82,4.3,4.3,0,0,0-.91,2.359l-.023.2a6.776,6.776,0,0,0-.016,1.031A2.355,2.355,0,0,0,15.8,15.43,1.656,1.656,0,0,0,17.07,15.984ZM26.4,8.391a3.047,3.047,0,0,1,1.82.578A3.285,3.285,0,0,1,29.34,10.52a4.8,4.8,0,0,1,.246,2.16l-.016.172a5.685,5.685,0,0,1-.734,2.23,4.309,4.309,0,0,1-1.516,1.551,3.7,3.7,0,0,1-2.039.523,3.052,3.052,0,0,1-1.816-.578,3.21,3.21,0,0,1-1.113-1.531,4.931,4.931,0,0,1-.25-2.133,5.76,5.76,0,0,1,.711-2.359A4.409,4.409,0,0,1,24.34,8.934,3.652,3.652,0,0,1,26.4,8.391Zm-2.875,4.531a4.8,4.8,0,0,0,0,1.023,2.507,2.507,0,0,0,.551,1.469,1.653,1.653,0,0,0,1.262.57,2.253,2.253,0,0,0,1.3-.348,2.919,2.919,0,0,0,1-1.121,4.721,4.721,0,0,0,.523-1.664,7.494,7.494,0,0,0,.023-1.211,2.6,2.6,0,0,0-.57-1.492,1.69,1.69,0,0,0-1.266-.578,2.3,2.3,0,0,0-1.859.859,4.245,4.245,0,0,0-.945,2.313Zm9.9-4.383-.18.945a3.305,3.305,0,0,1,2.57-1.094,2.608,2.608,0,0,1,1.363.367,1.8,1.8,0,0,1,.77.992,3.49,3.49,0,0,1,2.8-1.359,2.235,2.235,0,0,1,1.867.852,3.042,3.042,0,0,1,.445,2.2L42.133,17H40.727l.922-5.57a2.943,2.943,0,0,0,0-.742Q41.5,9.625,40.258,9.6a2.136,2.136,0,0,0-1.4.48,2.222,2.222,0,0,0-.809,1.3L37.086,17H35.664l.938-5.562A1.786,1.786,0,0,0,36.34,10.1a1.377,1.377,0,0,0-1.129-.484,2.315,2.315,0,0,0-2.1,1.2L32.039,17H30.625l1.469-8.453Zm13.68,0-.18.945a3.305,3.305,0,0,1,2.57-1.094,2.608,2.608,0,0,1,1.363.367,1.8,1.8,0,0,1,.77.992,3.49,3.49,0,0,1,2.8-1.359,2.235,2.235,0,0,1,1.867.852,3.042,3.042,0,0,1,.445,2.2L55.813,17H54.406l.922-5.57a2.943,2.943,0,0,0,0-.742Q55.18,9.625,53.938,9.6a2.136,2.136,0,0,0-1.4.48,2.222,2.222,0,0,0-.809,1.3L50.766,17H49.344l.938-5.562A1.786,1.786,0,0,0,50.02,10.1a1.377,1.377,0,0,0-1.129-.484,2.315,2.315,0,0,0-2.1,1.2L45.719,17H44.3l1.469-8.453Zm14.547,8.617a3.048,3.048,0,0,1-2.469-1.164,4.006,4.006,0,0,1-.75-2.9l.039-.336a5.624,5.624,0,0,1,.746-2.3,4.339,4.339,0,0,1,1.5-1.566,3.491,3.491,0,0,1,1.906-.5,2.688,2.688,0,0,1,2.047.867,3.566,3.566,0,0,1,.813,2.266,6.62,6.62,0,0,1-.031,1.016l-.086.648H59.836a2.856,2.856,0,0,0,.379,1.953,1.8,1.8,0,0,0,1.551.836,3.007,3.007,0,0,0,2.313-1.125l.813.688a3.718,3.718,0,0,1-1.371,1.2A3.886,3.886,0,0,1,61.648,17.156Zm.9-7.586a2.066,2.066,0,0,0-1.527.594A4.22,4.22,0,0,0,59.984,12l4.109.008.031-.125a2.313,2.313,0,0,0-.316-1.637A1.488,1.488,0,0,0,62.547,9.57Zm9,.266-.664-.07a2.42,2.42,0,0,0-2.141,1.227L67.7,17H66.289l1.469-8.453,1.367-.008-.211.984a2.527,2.527,0,0,1,2.117-1.148,2.594,2.594,0,0,1,.672.117Zm3.492,6.148a2.145,2.145,0,0,0,1.367-.441,2.1,2.1,0,0,0,.8-1.2l1.336-.008a3.014,3.014,0,0,1-.637,1.453,3.68,3.68,0,0,1-2.926,1.367,3.017,3.017,0,0,1-1.785-.551,3.084,3.084,0,0,1-1.074-1.492,4.972,4.972,0,0,1-.234-2.152l.039-.391a5.605,5.605,0,0,1,.711-2.18,4.11,4.11,0,0,1,1.469-1.5,3.648,3.648,0,0,1,2-.5,2.857,2.857,0,0,1,2.125.891,3.08,3.08,0,0,1,.8,2.18l-1.32-.008a2.029,2.029,0,0,0-.461-1.34,1.607,1.607,0,0,0-1.2-.543,2.254,2.254,0,0,0-1.832.82,4.3,4.3,0,0,0-.91,2.359l-.023.2a6.776,6.776,0,0,0-.016,1.031,2.355,2.355,0,0,0,.516,1.445A1.656,1.656,0,0,0,75.039,15.984Zm8.289,1.172a3.048,3.048,0,0,1-2.469-1.164,4.006,4.006,0,0,1-.75-2.9l.039-.336a5.624,5.624,0,0,1,.746-2.3,4.339,4.339,0,0,1,1.5-1.566,3.491,3.491,0,0,1,1.906-.5,2.688,2.688,0,0,1,2.047.867,3.566,3.566,0,0,1,.813,2.266,6.62,6.62,0,0,1-.031,1.016l-.086.648H81.516a2.856,2.856,0,0,0,.379,1.953,1.8,1.8,0,0,0,1.551.836,3.007,3.007,0,0,0,2.313-1.125l.813.688a3.718,3.718,0,0,1-1.371,1.2A3.886,3.886,0,0,1,83.328,17.156Zm.9-7.586a2.066,2.066,0,0,0-1.527.594A4.22,4.22,0,0,0,81.664,12l4.109.008.031-.125a2.313,2.313,0,0,0-.316-1.637A1.488,1.488,0,0,0,84.227,9.57Zm11.945,6.406a2.082,2.082,0,0,0,1.352-.469,1.649,1.649,0,0,0,.641-1.172h1.367a2.621,2.621,0,0,1-.5,1.383,3.293,3.293,0,0,1-1.23,1.047,3.55,3.55,0,0,1-1.629.391A3.482,3.482,0,0,1,93.426,16a4.59,4.59,0,0,1-1.02-3.152v-.242a5.089,5.089,0,0,1,.453-2.2,3.451,3.451,0,0,1,1.3-1.492,3.7,3.7,0,0,1,2-.531,3.39,3.39,0,0,1,2.363.852,3.043,3.043,0,0,1,1,2.211H98.164a1.992,1.992,0,0,0-.621-1.348,1.932,1.932,0,0,0-1.379-.527,2.023,2.023,0,0,0-1.707.793,3.724,3.724,0,0,0-.605,2.293v.273a3.65,3.65,0,0,0,.6,2.25A2.033,2.033,0,0,0,96.172,15.977Zm4.6-3.281a4.993,4.993,0,0,1,.488-2.234,3.643,3.643,0,0,1,1.359-1.531,3.7,3.7,0,0,1,1.988-.539,3.565,3.565,0,0,1,2.793,1.2,4.6,4.6,0,0,1,1.066,3.18v.1A5.036,5.036,0,0,1,108,15.082a3.589,3.589,0,0,1-1.352,1.527,3.743,3.743,0,0,1-2.02.547,3.556,3.556,0,0,1-2.785-1.2,4.575,4.575,0,0,1-1.066-3.164Zm1.453.172a3.616,3.616,0,0,0,.652,2.258,2.211,2.211,0,0,0,3.5-.012,3.955,3.955,0,0,0,.648-2.418,3.61,3.61,0,0,0-.66-2.254,2.1,2.1,0,0,0-1.754-.863,2.075,2.075,0,0,0-1.727.852A3.925,3.925,0,0,0,102.227,12.867Zm9.422-4.32.047,1.063a3.08,3.08,0,0,1,2.531-1.219q2.68,0,2.7,3.023V17h-1.445V11.406a1.946,1.946,0,0,0-.418-1.352,1.675,1.675,0,0,0-1.277-.437,2.086,2.086,0,0,0-1.234.375,2.546,2.546,0,0,0-.828.984V17h-1.445V8.547ZM128.289,17a3.036,3.036,0,0,1-.2-.891,3.225,3.225,0,0,1-2.406,1.047,2.984,2.984,0,0,1-2.051-.707,2.288,2.288,0,0,1-.8-1.793,2.39,2.39,0,0,1,1-2.051,4.733,4.733,0,0,1,2.824-.73h1.406v-.664A1.623,1.623,0,0,0,127.609,10a1.821,1.821,0,0,0-1.336-.449,2.108,2.108,0,0,0-1.3.391,1.151,1.151,0,0,0-.523.945H123a2,2,0,0,1,.449-1.223,3.066,3.066,0,0,1,1.219-.934,4.1,4.1,0,0,1,1.691-.344,3.342,3.342,0,0,1,2.289.73,2.635,2.635,0,0,1,.859,2.012v3.891a4.757,4.757,0,0,0,.3,1.852V17Zm-2.4-1.1a2.54,2.54,0,0,0,1.289-.352,2.127,2.127,0,0,0,.883-.914V12.9H126.93q-2.656,0-2.656,1.555a1.316,1.316,0,0,0,.453,1.063A1.742,1.742,0,0,0,125.891,15.9Zm7.453,1.1H131.9V5h1.445Zm1.93-4.3a4.993,4.993,0,0,1,.488-2.234,3.642,3.642,0,0,1,1.359-1.531,3.7,3.7,0,0,1,1.988-.539,3.565,3.565,0,0,1,2.793,1.2,4.6,4.6,0,0,1,1.066,3.18v.1a5.036,5.036,0,0,1-.473,2.215,3.589,3.589,0,0,1-1.352,1.527,3.743,3.743,0,0,1-2.02.547,3.556,3.556,0,0,1-2.785-1.2,4.575,4.575,0,0,1-1.066-3.164Zm1.453.172a3.616,3.616,0,0,0,.652,2.258,2.211,2.211,0,0,0,3.5-.012,3.954,3.954,0,0,0,.648-2.418,3.61,3.61,0,0,0-.66-2.254,2.1,2.1,0,0,0-1.754-.863,2.075,2.075,0,0,0-1.727.852A3.925,3.925,0,0,0,136.727,12.867Zm9.547-4.32v9.43q0,2.438-2.211,2.438a2.7,2.7,0,0,1-.883-.14V19.125a2.794,2.794,0,0,0,.656.063.982.982,0,0,0,.738-.262,1.3,1.3,0,0,0,.254-.911V8.547ZM144.68,6.3a.867.867,0,0,1,.215-.59.79.79,0,0,1,.629-.246.819.819,0,0,1,.641.242.854.854,0,0,1,.219.594.826.826,0,0,1-.219.586.834.834,0,0,1-.641.234.808.808,0,0,1-.633-.234A.843.843,0,0,1,144.68,6.3ZM153.82,17a3.036,3.036,0,0,1-.2-.891,3.225,3.225,0,0,1-2.406,1.047,2.984,2.984,0,0,1-2.051-.707,2.287,2.287,0,0,1-.8-1.793,2.39,2.39,0,0,1,1-2.051,4.733,4.733,0,0,1,2.824-.73h1.406v-.664A1.623,1.623,0,0,0,153.141,10a1.821,1.821,0,0,0-1.336-.449,2.107,2.107,0,0,0-1.3.391,1.151,1.151,0,0,0-.523.945h-1.453a2,2,0,0,1,.449-1.223,3.066,3.066,0,0,1,1.219-.934,4.1,4.1,0,0,1,1.691-.344,3.342,3.342,0,0,1,2.289.73,2.635,2.635,0,0,1,.859,2.012v3.891a4.757,4.757,0,0,0,.3,1.852V17Zm-2.4-1.1a2.54,2.54,0,0,0,1.289-.352,2.127,2.127,0,0,0,.883-.914V12.9h-1.133q-2.656,0-2.656,1.555a1.316,1.316,0,0,0,.453,1.063A1.742,1.742,0,0,0,151.422,15.9Zm7.242-7.352.039.938a3.122,3.122,0,0,1,2.508-1.094,2.417,2.417,0,0,1,2.414,1.359,3.2,3.2,0,0,1,1.1-.984,3.242,3.242,0,0,1,1.6-.375q2.781,0,2.828,2.945V17H167.7V11.422a1.941,1.941,0,0,0-.414-1.355,1.823,1.823,0,0,0-1.391-.449,1.917,1.917,0,0,0-1.336.48,1.949,1.949,0,0,0-.617,1.293V17h-1.453V11.461a1.613,1.613,0,0,0-1.8-1.844,1.934,1.934,0,0,0-1.945,1.211V17H157.3V8.547ZM172.9,17h-1.445V8.547H172.9ZM171.336,6.3a.863.863,0,0,1,.215-.594.807.807,0,0,1,.637-.242.819.819,0,0,1,.641.242.854.854,0,0,1,.219.594.826.826,0,0,1-.219.586.834.834,0,0,1-.641.234.821.821,0,0,1-.637-.234A.834.834,0,0,1,171.336,6.3Zm7.383,10.852a3.693,3.693,0,0,1-2.8-1.129,4.19,4.19,0,0,1-1.078-3.02v-.266a5.073,5.073,0,0,1,.48-2.246,3.748,3.748,0,0,1,1.344-1.547,3.378,3.378,0,0,1,1.871-.559A3.166,3.166,0,0,1,181.1,9.477a4.7,4.7,0,0,1,.914,3.109v.6h-5.727a3,3,0,0,0,.73,2.02,2.3,2.3,0,0,0,1.777.77,2.517,2.517,0,0,0,1.3-.312,3.258,3.258,0,0,0,.93-.828l.883.688A3.55,3.55,0,0,1,178.719,17.156Zm-.18-7.578a1.928,1.928,0,0,0-1.469.637A3.1,3.1,0,0,0,176.336,12h4.234v-.109a2.753,2.753,0,0,0-.594-1.707A1.815,1.815,0,0,0,178.539,9.578Zm6.516-1.031.047,1.063a3.08,3.08,0,0,1,2.531-1.219q2.68,0,2.7,3.023V17h-1.445V11.406a1.946,1.946,0,0,0-.418-1.352,1.675,1.675,0,0,0-1.277-.437,2.086,2.086,0,0,0-1.234.375,2.546,2.546,0,0,0-.828.984V17h-1.445V8.547ZM194.477,6.5V8.547h1.578V9.664h-1.578v5.249a1.173,1.173,0,0,0,.211.763.888.888,0,0,0,.719.254,3.5,3.5,0,0,0,.688-.094V17a4.215,4.215,0,0,1-1.109.155,1.8,1.8,0,0,1-1.461-.586,2.517,2.517,0,0,1-.492-1.664V9.664h-1.539V8.547h1.539V6.5Zm2.727,6.2a4.993,4.993,0,0,1,.488-2.234,3.642,3.642,0,0,1,1.359-1.531,3.7,3.7,0,0,1,1.988-.539,3.565,3.565,0,0,1,2.793,1.2,4.6,4.6,0,0,1,1.066,3.18v.1a5.036,5.036,0,0,1-.473,2.215,3.589,3.589,0,0,1-1.352,1.527,3.743,3.743,0,0,1-2.02.547,3.556,3.556,0,0,1-2.785-1.2A4.575,4.575,0,0,1,197.2,12.8Zm1.453.172a3.616,3.616,0,0,0,.652,2.258,2.211,2.211,0,0,0,3.5-.012,3.954,3.954,0,0,0,.648-2.418,3.61,3.61,0,0,0-.66-2.254,2.1,2.1,0,0,0-1.754-.863,2.075,2.075,0,0,0-1.727.852A3.925,3.925,0,0,0,198.656,12.867Zm15.523,4.289a3.693,3.693,0,0,1-2.8-1.129,4.19,4.19,0,0,1-1.078-3.02v-.266a5.073,5.073,0,0,1,.48-2.246,3.748,3.748,0,0,1,1.344-1.547A3.378,3.378,0,0,1,214,8.391a3.166,3.166,0,0,1,2.563,1.086,4.7,4.7,0,0,1,.914,3.109v.6H211.75a3,3,0,0,0,.73,2.02,2.3,2.3,0,0,0,1.777.77,2.517,2.517,0,0,0,1.3-.312,3.258,3.258,0,0,0,.93-.828l.883.688A3.55,3.55,0,0,1,214.18,17.156ZM214,9.578a1.928,1.928,0,0,0-1.469.637A3.1,3.1,0,0,0,211.8,12h4.234v-.109a2.753,2.753,0,0,0-.594-1.707A1.815,1.815,0,0,0,214,9.578Zm7.984,2.055,1.875-3.086h1.688l-2.766,4.18L225.633,17h-1.672l-1.953-3.164L220.055,17h-1.68l2.852-4.273-2.766-4.18h1.672ZM229.039,6.5V8.547h1.578V9.664h-1.578v5.249a1.173,1.173,0,0,0,.211.763.888.888,0,0,0,.719.254,3.5,3.5,0,0,0,.688-.094V17a4.215,4.215,0,0,1-1.109.155,1.8,1.8,0,0,1-1.461-.586,2.517,2.517,0,0,1-.492-1.664V9.664h-1.539V8.547h1.539V6.5Zm6.773,10.656a3.693,3.693,0,0,1-2.8-1.129,4.19,4.19,0,0,1-1.078-3.02v-.266a5.073,5.073,0,0,1,.48-2.246,3.748,3.748,0,0,1,1.344-1.547,3.378,3.378,0,0,1,1.871-.559A3.166,3.166,0,0,1,238.2,9.477a4.7,4.7,0,0,1,.914,3.109v.6h-5.727a3,3,0,0,0,.73,2.02,2.3,2.3,0,0,0,1.777.77,2.517,2.517,0,0,0,1.3-.312,3.258,3.258,0,0,0,.93-.828l.883.688A3.55,3.55,0,0,1,235.813,17.156Zm-.18-7.578a1.928,1.928,0,0,0-1.469.637A3.1,3.1,0,0,0,233.43,12h4.234v-.109a2.753,2.753,0,0,0-.594-1.707A1.815,1.815,0,0,0,235.633,9.578Zm9.234.266a4.331,4.331,0,0,0-.711-.055A1.9,1.9,0,0,0,242.227,11v6h-1.445V8.547h1.406l.023.977a2.251,2.251,0,0,1,2.016-1.133,1.477,1.477,0,0,1,.641.109Zm2.7-1.3.047,1.063a3.08,3.08,0,0,1,2.531-1.219q2.68,0,2.7,3.023V17H251.4V11.406a1.946,1.946,0,0,0-.418-1.352,1.675,1.675,0,0,0-1.277-.437,2.086,2.086,0,0,0-1.234.375,2.546,2.546,0,0,0-.828.984V17H246.2V8.547Zm7.078,4.148a4.993,4.993,0,0,1,.488-2.234,3.642,3.642,0,0,1,1.359-1.531,3.7,3.7,0,0,1,1.988-.539,3.565,3.565,0,0,1,2.793,1.2,4.6,4.6,0,0,1,1.066,3.18v.1a5.036,5.036,0,0,1-.473,2.215,3.589,3.589,0,0,1-1.352,1.527,3.743,3.743,0,0,1-2.02.547,3.556,3.556,0,0,1-2.785-1.2,4.575,4.575,0,0,1-1.066-3.164Zm1.453.172a3.616,3.616,0,0,0,.652,2.258,2.211,2.211,0,0,0,3.5-.012,3.955,3.955,0,0,0,.648-2.418,3.61,3.61,0,0,0-.66-2.254,2.1,2.1,0,0,0-1.754-.863,2.075,2.075,0,0,0-1.727.852A3.925,3.925,0,0,0,256.094,12.867Z" transform="translate(644.135 2775.814)" fill="#12263f"/>
    <g id="Grupo_179397" data-name="Grupo 179397" transform="translate(639 2666.24)">
      <g id="Grupo_179397-2" data-name="Grupo 179397" clip-path="url(#clip-path)">
        <path id="Trazado_228321" data-name="Trazado 228321" d="M93.437,3.709v60.94c-.961,3.121-3.1,3.883-5.708,3.866-10.7-.068-21.409-.028-32.114-.028h-1.04v6.22H55.61c3.223,0,6.447-.019,9.671.007a4.639,4.639,0,0,1,4.753,4.148,27.569,27.569,0,0,1,.019,3.736,1.418,1.418,0,0,1-1.39,1.426,7.288,7.288,0,0,1-.82.025H25.6c-.213,0-.426.006-.638-.007a1.521,1.521,0,0,1-1.6-1.616c-.027-.85-.008-1.7-.007-2.554,0-3.246,1.91-5.16,5.152-5.164q5.474-.007,10.948,0h.969v-6.22H5.332C1.829,68.486,0,66.657,0,63.152Q0,34.237,0,5.323c0-.3-.007-.609.009-.912A4.548,4.548,0,0,1,3.181.261,7.957,7.957,0,0,1,5.429.01Q46.711-.009,87.994,0c.365,0,.731-.006,1.094.023a4.522,4.522,0,0,1,3.995,2.871c.121.27.236.543.354.815m-3.154,8.953H3.183V56h87.1Zm.038-3.255c0-1.637.054-3.218-.035-4.79a1.831,1.831,0,0,0-.753-1.24,2.871,2.871,0,0,0-1.484-.252Q46.717,3.11,5.385,3.117c-.243,0-.487-.007-.73.01A1.481,1.481,0,0,0,3.128,4.618c-.042,1.576-.012,3.154-.012,4.789Zm0,49.828H3.11c0,1.318,0,2.562,0,3.806,0,1.925.418,2.337,2.365,2.337H87.962c.243,0,.487.01.73,0a1.552,1.552,0,0,0,1.625-1.6c.034-1.487.009-2.975.009-4.536M66.9,80.891c.246-2.61-.17-3.072-2.667-3.072H28.941c-.3,0-.61-.017-.912.012a1.572,1.572,0,0,0-1.552,1.591c-.027.474,0,.952,0,1.469ZM51.323,68.533H43.665v6.135h7.658Z" transform="translate(0 0)" fill="#12263f"/>
        <path id="Trazado_228322" data-name="Trazado 228322" d="M39.074,88.191c-1.12,0-2.18.011-3.238,0a1.564,1.564,0,1,1-.011-3.1q2.142-.021,4.285,0a1.59,1.59,0,0,1,1.749,1.391c.408,1.581.793,3.167,1.2,4.821h1.118q10.987,0,21.974,0c1.8,0,2.363.659,2.015,2.425q-1.454,7.368-2.936,14.73a1.6,1.6,0,0,1-1.819,1.52q-9.118.018-18.236,0c-1.137,0-1.576-.431-1.829-1.622L39.074,88.191m4.683,6.248c.805,4.05,1.582,8.005,2.4,11.951.041.2.465.451.711.452,4.951.027,9.9.013,14.854.03.556,0,.714-.232.8-.732.242-1.374.545-2.736.818-4.1.5-2.516,1-5.033,1.505-7.6Z" transform="translate(-27.83 -69.521)" fill="#12263f"/>
        <path id="Trazado_228323" data-name="Trazado 228323" d="M271.229,110.655q6.523,0,13.046,0c.3,0,.61-.009.911.021a1.535,1.535,0,0,1,.07,3.065,5.655,5.655,0,0,1-.819.032q-13.32,0-26.639,0c-.152,0-.3,0-.456,0-1.134-.047-1.835-.679-1.8-1.622.033-.911.7-1.487,1.821-1.49,4.622-.012,9.245,0,13.867-.006" transform="translate(-208.814 -90.421)" fill="#12263f"/>
        <path id="Trazado_228324" data-name="Trazado 228324" d="M271.049,144.768q6.66,0,13.321,0a6.916,6.916,0,0,1,1,.034,1.418,1.418,0,0,1,1.281,1.338,1.387,1.387,0,0,1-.956,1.58,3.86,3.86,0,0,1-1.253.155q-13.321.012-26.641.006c-.182,0-.366.007-.547,0a1.607,1.607,0,0,1-1.709-1.623,1.536,1.536,0,0,1,1.727-1.481c4.592-.012,9.185-.005,13.777-.006" transform="translate(-208.818 -118.296)" fill="#12263f"/>
        <path id="Trazado_228325" data-name="Trazado 228325" d="M271.05,181.922c-4.5,0-9,.006-13.5-.01a2.817,2.817,0,0,1-1.23-.233,1.393,1.393,0,0,1-.764-1.607,1.455,1.455,0,0,1,1.291-1.235,5.718,5.718,0,0,1,.82-.025h26.824c.243,0,.488-.01.729.014a1.533,1.533,0,0,1,.241,3.025,4.39,4.39,0,0,1-1,.069q-6.706.006-13.412,0" transform="translate(-208.795 -146.115)" fill="#12263f"/>
        <path id="Trazado_228326" data-name="Trazado 228326" d="M271.047,215.938q-6.661,0-13.321,0a5.16,5.16,0,0,1-.91-.035,1.544,1.544,0,0,1,.067-3.052,4.461,4.461,0,0,1,.638-.019q13.595,0,27.19,0c1.228,0,1.959.581,1.966,1.538s-.733,1.566-1.944,1.567q-6.843.006-13.686,0" transform="translate(-208.813 -173.914)" fill="#12263f"/>
        <path id="Trazado_228327" data-name="Trazado 228327" d="M89.817,239.167a4.66,4.66,0,1,1,4.655-4.619,4.678,4.678,0,0,1-4.655,4.619m1.518-4.578a1.536,1.536,0,0,0-1.475-1.628,1.57,1.57,0,0,0-1.6,1.521,1.55,1.55,0,0,0,1.449,1.57,1.511,1.511,0,0,0,1.628-1.463" transform="translate(-69.562 -187.819)" fill="#12263f"/>
        <path id="Trazado_228328" data-name="Trazado 228328" d="M171.117,234.5a4.615,4.615,0,0,1-4.588,4.672,4.66,4.66,0,1,1,4.588-4.672m-6.212,0a1.573,1.573,0,0,0,1.569,1.555A1.507,1.507,0,0,0,168,234.574a1.537,1.537,0,0,0-1.5-1.611,1.6,1.6,0,0,0-1.6,1.538" transform="translate(-132.206 -187.82)" fill="#12263f"/>
        <path id="Trazado_228329" data-name="Trazado 228329" d="M446.079,215.869c-.547,0-1.1.038-1.64-.009a1.5,1.5,0,0,1-1.422-1.588,1.467,1.467,0,0,1,1.43-1.481c1.092-.046,2.188-.043,3.28,0a1.543,1.543,0,0,1,1.494,1.539,1.6,1.6,0,0,1-1.5,1.547c-.06.006-.121.005-.182.005h-1.458v-.009" transform="translate(-362.011 -173.855)" fill="#12263f"/>
        <path id="Trazado_228330" data-name="Trazado 228330" d="M446.117,178.813c.516,0,1.034-.021,1.549,0a1.55,1.55,0,0,1,1.552,1.477,1.51,1.51,0,0,1-1.349,1.578,26.982,26.982,0,0,1-3.549,0,1.454,1.454,0,0,1-1.3-1.6,1.469,1.469,0,0,1,1.459-1.449c.545-.034,1.093-.006,1.64-.006v0" transform="translate(-362.011 -146.111)" fill="#12263f"/>
        <path id="Trazado_228331" data-name="Trazado 228331" d="M446.175,144.781c.516,0,1.034-.026,1.548.006a1.528,1.528,0,0,1,1.506,1.423,1.44,1.44,0,0,1-1.215,1.578,22.05,22.05,0,0,1-3.808-.008,1.349,1.349,0,0,1-1.171-1.591,1.443,1.443,0,0,1,1.41-1.395c.574-.041,1.153-.008,1.73-.008v-.006" transform="translate(-362.024 -118.3)" fill="#12263f"/>
        <path id="Trazado_228332" data-name="Trazado 228332" d="M446.057,113.72a14.891,14.891,0,0,1-1.637-.011,1.485,1.485,0,0,1-1.406-1.6,1.447,1.447,0,0,1,1.454-1.451c1.09-.05,2.186-.05,3.277,0a1.5,1.5,0,0,1,1.471,1.453,1.579,1.579,0,0,1-1.429,1.607,1.81,1.81,0,0,1-.272.024c-.486,0-.972,0-1.458,0v-.025" transform="translate(-362.008 -90.395)" fill="#12263f"/>
      </g>
    </g>
  </g>
</svg>
