<svg xmlns="http://www.w3.org/2000/svg" xmlns:xlink="http://www.w3.org/1999/xlink" width="433.742" height="242.587" viewBox="0 0 433.742 242.587">
  <defs>
    <filter id="Rectángulo_46823" x="0" y="0" width="433.742" height="233.075" filterUnits="userSpaceOnUse">
      <feOffset dy="3" input="SourceAlpha"/>
      <feGaussianBlur stdDeviation="5" result="blur"/>
      <feFlood flood-opacity="0.161"/>
      <feComposite operator="in" in2="blur"/>
      <feComposite in="SourceGraphic"/>
    </filter>
    <clipPath id="clip-path">
      <rect id="Rectángulo_57618" data-name="Rectángulo 57618" width="90.562" height="90.467" fill="#12263f"/>
    </clipPath>
  </defs>
  <g id="Grupo_179510" data-name="Grupo 179510" transform="translate(-166.212 -2630.929)">
    <g transform="matrix(1, 0, 0, 1, 166.21, 2630.93)" filter="url(#Rectángulo_46823)">
      <path id="Rectángulo_46823-2" data-name="Rectángulo 46823" d="M0,0H341.742a62,62,0,0,1,62,62V203.075a0,0,0,0,1,0,0H62a62,62,0,0,1-62-62V0A0,0,0,0,1,0,0Z" transform="translate(15 12)" fill="#f6f6f6"/>
    </g>
    <text id="_01" data-name="01" transform="translate(387.878 2827.516)" fill="#e2e5e8" font-size="168" font-family="Roboto-Bold, Roboto" font-weight="700"><tspan x="0" y="0">01</tspan></text>
    <path id="Trazado_228554" data-name="Trazado 228554" d="M7.625,11.742H2.844l-.7,4.031H7.7L7.484,17H.461L2.438,5.625H9.383L9.164,6.852H3.688l-.633,3.664H7.836Zm5.18,1.016H9.094l.211-1.18h3.711Zm4.266,3.227a2.145,2.145,0,0,0,1.367-.441,2.1,2.1,0,0,0,.8-1.2l1.336-.008a3.014,3.014,0,0,1-.637,1.453,3.68,3.68,0,0,1-2.926,1.367,3.017,3.017,0,0,1-1.785-.551,3.084,3.084,0,0,1-1.074-1.492,4.972,4.972,0,0,1-.234-2.152l.039-.391a5.605,5.605,0,0,1,.711-2.18,4.11,4.11,0,0,1,1.469-1.5,3.648,3.648,0,0,1,2-.5,2.857,2.857,0,0,1,2.125.891,3.08,3.08,0,0,1,.8,2.18l-1.32-.008a2.029,2.029,0,0,0-.461-1.34,1.607,1.607,0,0,0-1.2-.543,2.254,2.254,0,0,0-1.832.82,4.3,4.3,0,0,0-.91,2.359l-.023.2a6.776,6.776,0,0,0-.016,1.031A2.355,2.355,0,0,0,15.8,15.43,1.656,1.656,0,0,0,17.07,15.984ZM26.4,8.391a3.047,3.047,0,0,1,1.82.578A3.285,3.285,0,0,1,29.34,10.52a4.8,4.8,0,0,1,.246,2.16l-.016.172a5.685,5.685,0,0,1-.734,2.23,4.309,4.309,0,0,1-1.516,1.551,3.7,3.7,0,0,1-2.039.523,3.052,3.052,0,0,1-1.816-.578,3.21,3.21,0,0,1-1.113-1.531,4.931,4.931,0,0,1-.25-2.133,5.76,5.76,0,0,1,.711-2.359A4.409,4.409,0,0,1,24.34,8.934,3.652,3.652,0,0,1,26.4,8.391Zm-2.875,4.531a4.8,4.8,0,0,0,0,1.023,2.507,2.507,0,0,0,.551,1.469,1.653,1.653,0,0,0,1.262.57,2.253,2.253,0,0,0,1.3-.348,2.919,2.919,0,0,0,1-1.121,4.721,4.721,0,0,0,.523-1.664,7.494,7.494,0,0,0,.023-1.211,2.6,2.6,0,0,0-.57-1.492,1.69,1.69,0,0,0-1.266-.578,2.3,2.3,0,0,0-1.859.859,4.245,4.245,0,0,0-.945,2.313Zm9.9-4.383-.18.945a3.305,3.305,0,0,1,2.57-1.094,2.608,2.608,0,0,1,1.363.367,1.8,1.8,0,0,1,.77.992,3.49,3.49,0,0,1,2.8-1.359,2.235,2.235,0,0,1,1.867.852,3.042,3.042,0,0,1,.445,2.2L42.133,17H40.727l.922-5.57a2.943,2.943,0,0,0,0-.742Q41.5,9.625,40.258,9.6a2.136,2.136,0,0,0-1.4.48,2.222,2.222,0,0,0-.809,1.3L37.086,17H35.664l.938-5.562A1.786,1.786,0,0,0,36.34,10.1a1.377,1.377,0,0,0-1.129-.484,2.315,2.315,0,0,0-2.1,1.2L32.039,17H30.625l1.469-8.453Zm13.68,0-.18.945a3.305,3.305,0,0,1,2.57-1.094,2.608,2.608,0,0,1,1.363.367,1.8,1.8,0,0,1,.77.992,3.49,3.49,0,0,1,2.8-1.359,2.235,2.235,0,0,1,1.867.852,3.042,3.042,0,0,1,.445,2.2L55.813,17H54.406l.922-5.57a2.943,2.943,0,0,0,0-.742Q55.18,9.625,53.938,9.6a2.136,2.136,0,0,0-1.4.48,2.222,2.222,0,0,0-.809,1.3L50.766,17H49.344l.938-5.562A1.786,1.786,0,0,0,50.02,10.1a1.377,1.377,0,0,0-1.129-.484,2.315,2.315,0,0,0-2.1,1.2L45.719,17H44.3l1.469-8.453Zm14.547,8.617a3.048,3.048,0,0,1-2.469-1.164,4.006,4.006,0,0,1-.75-2.9l.039-.336a5.624,5.624,0,0,1,.746-2.3,4.339,4.339,0,0,1,1.5-1.566,3.491,3.491,0,0,1,1.906-.5,2.688,2.688,0,0,1,2.047.867,3.566,3.566,0,0,1,.813,2.266,6.62,6.62,0,0,1-.031,1.016l-.086.648H59.836a2.856,2.856,0,0,0,.379,1.953,1.8,1.8,0,0,0,1.551.836,3.007,3.007,0,0,0,2.313-1.125l.813.688a3.718,3.718,0,0,1-1.371,1.2A3.886,3.886,0,0,1,61.648,17.156Zm.9-7.586a2.066,2.066,0,0,0-1.527.594A4.22,4.22,0,0,0,59.984,12l4.109.008.031-.125a2.313,2.313,0,0,0-.316-1.637A1.488,1.488,0,0,0,62.547,9.57Zm9,.266-.664-.07a2.42,2.42,0,0,0-2.141,1.227L67.7,17H66.289l1.469-8.453,1.367-.008-.211.984a2.527,2.527,0,0,1,2.117-1.148,2.594,2.594,0,0,1,.672.117Zm3.492,6.148a2.145,2.145,0,0,0,1.367-.441,2.1,2.1,0,0,0,.8-1.2l1.336-.008a3.014,3.014,0,0,1-.637,1.453,3.68,3.68,0,0,1-2.926,1.367,3.017,3.017,0,0,1-1.785-.551,3.084,3.084,0,0,1-1.074-1.492,4.972,4.972,0,0,1-.234-2.152l.039-.391a5.605,5.605,0,0,1,.711-2.18,4.11,4.11,0,0,1,1.469-1.5,3.648,3.648,0,0,1,2-.5,2.857,2.857,0,0,1,2.125.891,3.08,3.08,0,0,1,.8,2.18l-1.32-.008a2.029,2.029,0,0,0-.461-1.34,1.607,1.607,0,0,0-1.2-.543,2.254,2.254,0,0,0-1.832.82,4.3,4.3,0,0,0-.91,2.359l-.023.2a6.776,6.776,0,0,0-.016,1.031,2.355,2.355,0,0,0,.516,1.445A1.656,1.656,0,0,0,75.039,15.984Zm8.289,1.172a3.048,3.048,0,0,1-2.469-1.164,4.006,4.006,0,0,1-.75-2.9l.039-.336a5.624,5.624,0,0,1,.746-2.3,4.339,4.339,0,0,1,1.5-1.566,3.491,3.491,0,0,1,1.906-.5,2.688,2.688,0,0,1,2.047.867,3.566,3.566,0,0,1,.813,2.266,6.62,6.62,0,0,1-.031,1.016l-.086.648H81.516a2.856,2.856,0,0,0,.379,1.953,1.8,1.8,0,0,0,1.551.836,3.007,3.007,0,0,0,2.313-1.125l.813.688a3.718,3.718,0,0,1-1.371,1.2A3.886,3.886,0,0,1,83.328,17.156Zm.9-7.586a2.066,2.066,0,0,0-1.527.594A4.22,4.22,0,0,0,81.664,12l4.109.008.031-.125a2.313,2.313,0,0,0-.316-1.637A1.488,1.488,0,0,0,84.227,9.57Zm11.945,6.406a2.082,2.082,0,0,0,1.352-.469,1.649,1.649,0,0,0,.641-1.172h1.367a2.621,2.621,0,0,1-.5,1.383,3.293,3.293,0,0,1-1.23,1.047,3.55,3.55,0,0,1-1.629.391A3.482,3.482,0,0,1,93.426,16a4.59,4.59,0,0,1-1.02-3.152v-.242a5.089,5.089,0,0,1,.453-2.2,3.451,3.451,0,0,1,1.3-1.492,3.7,3.7,0,0,1,2-.531,3.39,3.39,0,0,1,2.363.852,3.043,3.043,0,0,1,1,2.211H98.164a1.992,1.992,0,0,0-.621-1.348,1.932,1.932,0,0,0-1.379-.527,2.023,2.023,0,0,0-1.707.793,3.724,3.724,0,0,0-.605,2.293v.273a3.65,3.65,0,0,0,.6,2.25A2.033,2.033,0,0,0,96.172,15.977Zm4.6-3.281a4.993,4.993,0,0,1,.488-2.234,3.643,3.643,0,0,1,1.359-1.531,3.7,3.7,0,0,1,1.988-.539,3.565,3.565,0,0,1,2.793,1.2,4.6,4.6,0,0,1,1.066,3.18v.1A5.036,5.036,0,0,1,108,15.082a3.589,3.589,0,0,1-1.352,1.527,3.743,3.743,0,0,1-2.02.547,3.556,3.556,0,0,1-2.785-1.2,4.575,4.575,0,0,1-1.066-3.164Zm1.453.172a3.616,3.616,0,0,0,.652,2.258,2.211,2.211,0,0,0,3.5-.012,3.955,3.955,0,0,0,.648-2.418,3.61,3.61,0,0,0-.66-2.254,2.1,2.1,0,0,0-1.754-.863,2.075,2.075,0,0,0-1.727.852A3.925,3.925,0,0,0,102.227,12.867Zm9.422-4.32.047,1.063a3.08,3.08,0,0,1,2.531-1.219q2.68,0,2.7,3.023V17h-1.445V11.406a1.946,1.946,0,0,0-.418-1.352,1.675,1.675,0,0,0-1.277-.437,2.086,2.086,0,0,0-1.234.375,2.546,2.546,0,0,0-.828.984V17h-1.445V8.547ZM128.289,17a3.036,3.036,0,0,1-.2-.891,3.225,3.225,0,0,1-2.406,1.047,2.984,2.984,0,0,1-2.051-.707,2.288,2.288,0,0,1-.8-1.793,2.39,2.39,0,0,1,1-2.051,4.733,4.733,0,0,1,2.824-.73h1.406v-.664A1.623,1.623,0,0,0,127.609,10a1.821,1.821,0,0,0-1.336-.449,2.108,2.108,0,0,0-1.3.391,1.151,1.151,0,0,0-.523.945H123a2,2,0,0,1,.449-1.223,3.066,3.066,0,0,1,1.219-.934,4.1,4.1,0,0,1,1.691-.344,3.342,3.342,0,0,1,2.289.73,2.635,2.635,0,0,1,.859,2.012v3.891a4.757,4.757,0,0,0,.3,1.852V17Zm-2.4-1.1a2.54,2.54,0,0,0,1.289-.352,2.127,2.127,0,0,0,.883-.914V12.9H126.93q-2.656,0-2.656,1.555a1.316,1.316,0,0,0,.453,1.063A1.742,1.742,0,0,0,125.891,15.9Zm7.453,1.1H131.9V5h1.445Zm1.93-4.3a4.993,4.993,0,0,1,.488-2.234,3.642,3.642,0,0,1,1.359-1.531,3.7,3.7,0,0,1,1.988-.539,3.565,3.565,0,0,1,2.793,1.2,4.6,4.6,0,0,1,1.066,3.18v.1a5.036,5.036,0,0,1-.473,2.215,3.589,3.589,0,0,1-1.352,1.527,3.743,3.743,0,0,1-2.02.547,3.556,3.556,0,0,1-2.785-1.2,4.575,4.575,0,0,1-1.066-3.164Zm1.453.172a3.616,3.616,0,0,0,.652,2.258,2.211,2.211,0,0,0,3.5-.012,3.954,3.954,0,0,0,.648-2.418,3.61,3.61,0,0,0-.66-2.254,2.1,2.1,0,0,0-1.754-.863,2.075,2.075,0,0,0-1.727.852A3.925,3.925,0,0,0,136.727,12.867Zm9.547-4.32v9.43q0,2.438-2.211,2.438a2.7,2.7,0,0,1-.883-.14V19.125a2.794,2.794,0,0,0,.656.063.982.982,0,0,0,.738-.262,1.3,1.3,0,0,0,.254-.911V8.547ZM144.68,6.3a.867.867,0,0,1,.215-.59.79.79,0,0,1,.629-.246.819.819,0,0,1,.641.242.854.854,0,0,1,.219.594.826.826,0,0,1-.219.586.834.834,0,0,1-.641.234.808.808,0,0,1-.633-.234A.843.843,0,0,1,144.68,6.3ZM153.82,17a3.036,3.036,0,0,1-.2-.891,3.225,3.225,0,0,1-2.406,1.047,2.984,2.984,0,0,1-2.051-.707,2.287,2.287,0,0,1-.8-1.793,2.39,2.39,0,0,1,1-2.051,4.733,4.733,0,0,1,2.824-.73h1.406v-.664A1.623,1.623,0,0,0,153.141,10a1.821,1.821,0,0,0-1.336-.449,2.107,2.107,0,0,0-1.3.391,1.151,1.151,0,0,0-.523.945h-1.453a2,2,0,0,1,.449-1.223,3.066,3.066,0,0,1,1.219-.934,4.1,4.1,0,0,1,1.691-.344,3.342,3.342,0,0,1,2.289.73,2.635,2.635,0,0,1,.859,2.012v3.891a4.757,4.757,0,0,0,.3,1.852V17Zm-2.4-1.1a2.54,2.54,0,0,0,1.289-.352,2.127,2.127,0,0,0,.883-.914V12.9h-1.133q-2.656,0-2.656,1.555a1.316,1.316,0,0,0,.453,1.063A1.742,1.742,0,0,0,151.422,15.9Zm7.242-7.352.039.938a3.122,3.122,0,0,1,2.508-1.094,2.417,2.417,0,0,1,2.414,1.359,3.2,3.2,0,0,1,1.1-.984,3.242,3.242,0,0,1,1.6-.375q2.781,0,2.828,2.945V17H167.7V11.422a1.941,1.941,0,0,0-.414-1.355,1.823,1.823,0,0,0-1.391-.449,1.917,1.917,0,0,0-1.336.48,1.949,1.949,0,0,0-.617,1.293V17h-1.453V11.461a1.613,1.613,0,0,0-1.8-1.844,1.934,1.934,0,0,0-1.945,1.211V17H157.3V8.547ZM172.9,17h-1.445V8.547H172.9ZM171.336,6.3a.863.863,0,0,1,.215-.594.807.807,0,0,1,.637-.242.819.819,0,0,1,.641.242.854.854,0,0,1,.219.594.826.826,0,0,1-.219.586.834.834,0,0,1-.641.234.821.821,0,0,1-.637-.234A.834.834,0,0,1,171.336,6.3Zm7.383,10.852a3.693,3.693,0,0,1-2.8-1.129,4.19,4.19,0,0,1-1.078-3.02v-.266a5.073,5.073,0,0,1,.48-2.246,3.748,3.748,0,0,1,1.344-1.547,3.378,3.378,0,0,1,1.871-.559A3.166,3.166,0,0,1,181.1,9.477a4.7,4.7,0,0,1,.914,3.109v.6h-5.727a3,3,0,0,0,.73,2.02,2.3,2.3,0,0,0,1.777.77,2.517,2.517,0,0,0,1.3-.312,3.258,3.258,0,0,0,.93-.828l.883.688A3.55,3.55,0,0,1,178.719,17.156Zm-.18-7.578a1.928,1.928,0,0,0-1.469.637A3.1,3.1,0,0,0,176.336,12h4.234v-.109a2.753,2.753,0,0,0-.594-1.707A1.815,1.815,0,0,0,178.539,9.578Zm6.516-1.031.047,1.063a3.08,3.08,0,0,1,2.531-1.219q2.68,0,2.7,3.023V17h-1.445V11.406a1.946,1.946,0,0,0-.418-1.352,1.675,1.675,0,0,0-1.277-.437,2.086,2.086,0,0,0-1.234.375,2.546,2.546,0,0,0-.828.984V17h-1.445V8.547ZM194.477,6.5V8.547h1.578V9.664h-1.578v5.249a1.173,1.173,0,0,0,.211.763.888.888,0,0,0,.719.254,3.5,3.5,0,0,0,.688-.094V17a4.215,4.215,0,0,1-1.109.155,1.8,1.8,0,0,1-1.461-.586,2.517,2.517,0,0,1-.492-1.664V9.664h-1.539V8.547h1.539V6.5Zm2.727,6.2a4.993,4.993,0,0,1,.488-2.234,3.642,3.642,0,0,1,1.359-1.531,3.7,3.7,0,0,1,1.988-.539,3.565,3.565,0,0,1,2.793,1.2,4.6,4.6,0,0,1,1.066,3.18v.1a5.036,5.036,0,0,1-.473,2.215,3.589,3.589,0,0,1-1.352,1.527,3.743,3.743,0,0,1-2.02.547,3.556,3.556,0,0,1-2.785-1.2A4.575,4.575,0,0,1,197.2,12.8Zm1.453.172a3.616,3.616,0,0,0,.652,2.258,2.211,2.211,0,0,0,3.5-.012,3.954,3.954,0,0,0,.648-2.418,3.61,3.61,0,0,0-.66-2.254,2.1,2.1,0,0,0-1.754-.863,2.075,2.075,0,0,0-1.727.852A3.925,3.925,0,0,0,198.656,12.867Zm19.156,0a5.062,5.062,0,0,1-.883,3.109,2.829,2.829,0,0,1-2.391,1.18,3.1,3.1,0,0,1-2.422-.977v4.07h-1.445V8.547h1.32l.07.938a2.977,2.977,0,0,1,2.453-1.094,2.882,2.882,0,0,1,2.41,1.148,5.117,5.117,0,0,1,.887,3.2Zm-1.445-.164a3.735,3.735,0,0,0-.609-2.258,1.963,1.963,0,0,0-1.672-.828,2.125,2.125,0,0,0-1.969,1.164V14.82a2.129,2.129,0,0,0,1.984,1.156,1.954,1.954,0,0,0,1.652-.824A4.077,4.077,0,0,0,216.367,12.7Zm7.367-2.859a4.331,4.331,0,0,0-.711-.055A1.9,1.9,0,0,0,221.094,11v6h-1.445V8.547h1.406l.023.977a2.251,2.251,0,0,1,2.016-1.133,1.477,1.477,0,0,1,.641.109Zm.789,2.852a4.993,4.993,0,0,1,.488-2.234,3.642,3.642,0,0,1,1.359-1.531,3.7,3.7,0,0,1,1.988-.539,3.565,3.565,0,0,1,2.793,1.2,4.6,4.6,0,0,1,1.066,3.18v.1a5.036,5.036,0,0,1-.473,2.215,3.589,3.589,0,0,1-1.352,1.527,3.743,3.743,0,0,1-2.02.547,3.556,3.556,0,0,1-2.785-1.2,4.575,4.575,0,0,1-1.066-3.164Zm1.453.172a3.616,3.616,0,0,0,.652,2.258,2.211,2.211,0,0,0,3.5-.012,3.954,3.954,0,0,0,.648-2.418,3.61,3.61,0,0,0-.66-2.254,2.1,2.1,0,0,0-1.754-.863,2.075,2.075,0,0,0-1.727.852A3.925,3.925,0,0,0,225.977,12.867Zm15.2,0a5.062,5.062,0,0,1-.883,3.109,2.829,2.829,0,0,1-2.391,1.18,3.1,3.1,0,0,1-2.422-.977v4.07h-1.445V8.547h1.32l.07.938a2.977,2.977,0,0,1,2.453-1.094,2.882,2.882,0,0,1,2.41,1.148,5.117,5.117,0,0,1,.887,3.2Zm-1.445-.164a3.735,3.735,0,0,0-.609-2.258,1.963,1.963,0,0,0-1.672-.828,2.125,2.125,0,0,0-1.969,1.164V14.82a2.129,2.129,0,0,0,1.984,1.156,1.954,1.954,0,0,0,1.652-.824A4.077,4.077,0,0,0,239.727,12.7Zm4.852,4.3h-1.445V8.547h1.445ZM243.016,6.3a.863.863,0,0,1,.215-.594.807.807,0,0,1,.637-.242.819.819,0,0,1,.641.242.854.854,0,0,1,.219.594.826.826,0,0,1-.219.586.834.834,0,0,1-.641.234.821.821,0,0,1-.637-.234A.834.834,0,0,1,243.016,6.3Zm3.492,6.391A4.993,4.993,0,0,1,247,10.461a3.642,3.642,0,0,1,1.359-1.531,3.7,3.7,0,0,1,1.988-.539,3.565,3.565,0,0,1,2.793,1.2,4.6,4.6,0,0,1,1.066,3.18v.1a5.036,5.036,0,0,1-.473,2.215,3.589,3.589,0,0,1-1.352,1.527,3.743,3.743,0,0,1-2.02.547,3.556,3.556,0,0,1-2.785-1.2,4.575,4.575,0,0,1-1.066-3.164Zm1.453.172a3.616,3.616,0,0,0,.652,2.258,2.211,2.211,0,0,0,3.5-.012,3.954,3.954,0,0,0,.648-2.418,3.61,3.61,0,0,0-.66-2.254,2.1,2.1,0,0,0-1.754-.863,2.075,2.075,0,0,0-1.727.852A3.925,3.925,0,0,0,247.961,12.867Z" transform="translate(226.135 2775.814)" fill="#12263f"/>
    <g id="Grupo_179396" data-name="Grupo 179396" transform="translate(227.462 2666.24)">
      <g id="Grupo_179396-2" data-name="Grupo 179396" clip-path="url(#clip-path)">
        <path id="Trazado_228319" data-name="Trazado 228319" d="M100.6,50.714a28.69,28.69,0,0,0,5.225-14.626H93.3l.507.6-3.135,3.457-3.163-4.111H63.246c-.6,1.478.275,4.371-2.507,3.947-1.079-.164-1.865-2.255-3.153-3.956H47.452a6.841,6.841,0,0,0-.1,1.137C47.5,38.688,47.068,40,45.4,40.1c-1.84.111-2.238-1.311-2.409-2.877A33.633,33.633,0,0,1,76.952.008c13.46.3,23.613,6.585,29.672,18.559,6.072,12,4.782,23.81-2.715,34.925-2.1,3.11-2.643,3.132-5.75.956a10.767,10.767,0,0,1-2.594-1.841c-.527-.7-.945-2.115-.581-2.689a3.155,3.155,0,0,1,2.667-.833c.974.153,1.841.982,2.946,1.628M88.8,31.406c-.343-3.2-.668-6.218-.968-9.016H63.885c-.3,2.544-.678,5.677-1.076,9.016ZM65.177,17.42A47.036,47.036,0,0,0,86.765,17.2c-1.84-3.806-3.614-7.515-6.173-10.565-2.814-3.352-6.433-3.127-9.548-.081-2.991,2.925-4.628,6.6-5.867,10.868m35.676-.233-8.777,3.856c.3,3.044.522,5.964.915,8.861.081.594.777,1.563,1.216,1.578,3.791.126,7.589.073,11.652.073a27.576,27.576,0,0,0-5.007-14.367m-41.139,3.38L52.28,17.139A27.23,27.23,0,0,0,47.3,31.344h11.15c.437-3.735.846-7.243,1.259-10.777m27.1-14.976-.451.639,4.821,10.484,6.647-2.959q.075-.461.148-.924L86.812,5.591M60.752,16.218,64.9,6.946l-.43-.484-9.895,6.973,6.177,2.783" transform="translate(-19.903 0)" fill="#12263f"/>
        <path id="Trazado_228320" data-name="Trazado 228320" d="M50.833,107.913H36.562c1.167,3.635.955,6.833-2.479,9a6.231,6.231,0,0,1-7.258-.478c-2.786-2.318-3.086-5.224-1.6-8.552-4.108-1.268-5.5-4.036-5.971-8.181-.428-3.764-2.459-7.321-3.542-11.039Q12.381,77.248,9.354,65.746C8.863,63.88,8.126,63,6.114,63.251a9.616,9.616,0,0,1-3.977-.1C1.278,62.873.7,61.712,0,60.947c.716-.652,1.388-1.8,2.155-1.866a42.813,42.813,0,0,1,8.006.01,3.582,3.582,0,0,1,2.275,2.078A40.7,40.7,0,0,1,14.413,68.1c.362,1.858,1.181,2.373,3.056,2.365,17.032-.077,34.064-.044,51.1-.043.535,0,1.07-.015,1.6,0,2.485.081,3.326.958,2.754,3.332-1.878,7.794-3.883,15.557-5.805,23.34-.514,2.081-2.039,2.141-3.735,2.138Q45.191,99.2,27,99.224H24.174c-.7,3.268.095,4.271,3.273,4.277,11.236.02,22.472-.028,33.707.065,1.067.009,2.924.708,3.015,1.3.164,1.071-.73,2.3-1.439,3.383.854,3.878.271,6.433-2.232,8.306a6.458,6.458,0,0,1-7.286.283c-2.723-1.708-3.429-4.272-2.379-8.926m17.4-33.025H16.364c1.66,6.034,3.322,11.846,4.832,17.7.454,1.758,1.189,2.382,3.09,2.362,10.518-.109,21.038-.052,31.557-.052h7.372c1.682-6.7,3.323-13.235,5.022-20.006m-37.316,33.45c-1.069,1.454-2.122,2.264-2.12,3.074,0,.693,1.315,2.022,1.857,1.93a3.166,3.166,0,0,0,2.084-2c.155-.619-.876-1.535-1.82-3M59.8,111.419c-1.56-1.012-2.408-1.983-3.231-1.962a2.629,2.629,0,0,0-1.816,1.9,2.672,2.672,0,0,0,1.772,1.987c.823.039,1.694-.933,3.275-1.929" transform="translate(0 -27.392)" fill="#12263f"/>
      </g>
    </g>
  </g>
</svg>
