<svg xmlns="http://www.w3.org/2000/svg" xmlns:xlink="http://www.w3.org/1999/xlink" width="93" height="94" viewBox="0 0 93 94">
  <defs>
    <clipPath id="clip-path">
      <rect id="Rectángulo_57655" data-name="Rectángulo 57655" width="53.945" height="53.948" fill="#fff"/>
    </clipPath>
  </defs>
  <g id="Grupo_179395" data-name="Grupo 179395" transform="translate(0.275 -0.334)">
    <ellipse id="Elipse_4870" data-name="Elipse 4870" cx="46.5" cy="47" rx="46.5" ry="47" transform="translate(-0.275 0.334)" fill="#7f4fc7"/>
    <g id="Grupo_179411" data-name="Grupo 179411" transform="translate(20.115 18.464)">
      <g id="Grupo_179410" data-name="Grupo 179410" clip-path="url(#clip-path)">
        <path id="Trazado_228381" data-name="Trazado 228381" d="M40.678,53.948H16.754c-.028-.021-.054-.054-.086-.063a4.369,4.369,0,0,1-3.612-4.719q0-6.008,0-12.015v-.605c-1.521,0-2.969-.028-4.415.015-.511.015-.7-.163-.781-.628-.086-.485-.236-.959-.367-1.474L5.715,35.51,1.043,30.833,2.1,29.052c-.617-.158-1.155-.312-1.7-.428-.272-.058-.4-.15-.4-.456.013-1.957,0-3.914.021-5.871a.583.583,0,0,1,.332-.421c.557-.183,1.134-.307,1.741-.463L1.08,19.692l4.694-4.7L7.5,16.009c.152-.585.316-1.1.413-1.635.065-.359.214-.468.573-.46,1.014.023,2.029.008,3.044.008h1.53v-.665q0-4.295,0-8.59A4.364,4.364,0,0,1,17.7,0Q28.711,0,39.718,0a4.364,4.364,0,0,1,4.657,4.657q0,5.328,0,10.656v.625c.218.061.375.1.531.149a12.064,12.064,0,0,1,8.576,8.455c.213.684.311,1.4.462,2.106v2.284c-.033.136-.079.271-.1.409a11.866,11.866,0,0,1-5.86,8.934,33.052,33.052,0,0,1-3.611,1.633v.459c0,3.079.01,6.158-.005,9.237a4.326,4.326,0,0,1-2.824,4.064c-.285.106-.578.187-.868.28M20.045,26.121V13.952h17.4v2.479l1.666-.509V12.238H18.328V41.719H39.146V39.851c-6.705-2.2-9.9-6.7-9.534-13.73ZM14.833,45.187H42.582V40.069h-1.7v3.408H16.563V10.467H40.933v5.151h1.653V8.748H14.833Zm36.225-12.7A10.4,10.4,0,0,0,34.138,20.737c-3.474,3.684-3.348,8.923-1.647,11.671a4.519,4.519,0,0,1,3.544-2.726c.527-.126,1.051-.268,1.577-.4l1.668-.422-.471-.448a4.241,4.241,0,0,1-1.378-2.866,18.23,18.23,0,0,1,0-2.227,4.462,4.462,0,0,1,4.013-4.169,4.3,4.3,0,0,1,4.6,3.654,14.521,14.521,0,0,1,.073,2.492A4.2,4.2,0,0,1,44.7,28.417a1.689,1.689,0,0,1-.5.219l.185.255c1.026.261,2.044.561,3.08.773a4.628,4.628,0,0,1,3.592,2.821m-6.607-8.07-.1-.018c0-.326.015-.653,0-.978a2.606,2.606,0,0,0-2.356-2.5,2.489,2.489,0,0,0-2.672,1.988,10.567,10.567,0,0,0-.016,2.908,1.9,1.9,0,0,0,.779,1.294,1.7,1.7,0,0,1,.838,1.946,2.179,2.179,0,0,0,0,.6c.1.541-.173.71-.653.82-1.444.332-2.881.7-4.315,1.071a2.521,2.521,0,0,0-1.985,2.577,1.4,1.4,0,0,0,.272.873,10.347,10.347,0,0,0,15.062,0,1.035,1.035,0,0,0,.257-.612,2.624,2.624,0,0,0-2.156-2.892c-1.471-.378-2.943-.748-4.421-1.1-.291-.069-.384-.193-.376-.477.016-.6-.024-1.2.02-1.793a1.167,1.167,0,0,1,.328-.6c.365-.414.892-.741,1.11-1.215a8.035,8.035,0,0,0,.383-1.887m-1.837-17.5c0-.78,0-1.5,0-2.225a2.639,2.639,0,0,0-2.92-2.931H23.172c-1.884,0-3.768-.006-5.652,0a2.461,2.461,0,0,0-2.571,1.912,28.639,28.639,0,0,0-.173,3.241ZM14.819,47.029c0,.758,0,1.462,0,2.166a2.657,2.657,0,0,0,2.971,2.99H34.909c1.685,0,3.369.011,5.054,0a2.48,2.48,0,0,0,2.579-2.172,24.567,24.567,0,0,0,.024-2.979ZM35.635,15.747H21.843v8.531a1.234,1.234,0,0,0,.2.041c2.552,0,5.1.01,7.657-.009a.607.607,0,0,0,.446-.331,12.408,12.408,0,0,1,5.2-6.546.641.641,0,0,0,.279-.407c.038-.41.013-.825.013-1.278M12.993,15.7c-.636,0-1.23,0-1.823,0-.559.006-1.273-.18-1.634.094s-.369,1.005-.5,1.545a.942.942,0,0,1-.588.7A1.083,1.083,0,0,1,7.2,17.948a4.836,4.836,0,0,0-.976-.584.616.616,0,0,0-.54.068c-.424.367-.808.779-1.2,1.181s-1.026.774-1.089,1.224.445.974.736,1.446a.886.886,0,0,1,.076.857A1.085,1.085,0,0,1,3.233,23c-.355.037-.7.183-1.052.253a.428.428,0,0,0-.406.511c.024.978.021,1.957,0,2.935-.006.309.082.46.392.521a7.6,7.6,0,0,1,1.309.338,1.527,1.527,0,0,1,.6.519A1,1,0,0,1,4,29.4c-.2.254-.319.571-.513.83-.223.3-.157.5.1.732.453.417.876.866,1.311,1.3,1.029,1.029,1.029,1.029,2.252.295.944-.567,1.653-.277,1.926.786.094.367.177.739.3,1.1.042.124.184.3.283.305,1.1.022,2.2.014,3.332.014V31.2A6.217,6.217,0,0,1,5.181,25.42,6.177,6.177,0,0,1,12.993,19.3Zm.064,9.534c0-1.177-.013-2.353.008-3.529a.529.529,0,0,0-.433-.613,4.346,4.346,0,1,0,.053,8.271.476.476,0,0,0,.379-.544c-.018-1.194-.007-2.389-.007-3.584" transform="translate(-0.001 0)" fill="#fff"/>
        <rect id="Rectángulo_57644" data-name="Rectángulo 57644" width="1.74" height="1.703" transform="translate(7.836 52.245)" fill="#fff"/>
        <path id="Trazado_228382" data-name="Trazado 228382" d="M59.454,363.539h-1.74v-.585c0-2.01-.006-4.02.006-6.031a.628.628,0,0,0-.376-.673,2.52,2.52,0,0,1-1.283-2.892,2.6,2.6,0,0,1,5.042-.017,2.523,2.523,0,0,1-1.262,2.9.668.668,0,0,0-.392.717c.01,2.172.005,4.345.005,6.578M58.6,353.173a.818.818,0,1,0,.8.821.894.894,0,0,0-.8-.821" transform="translate(-49.878 -313.095)" fill="#fff"/>
        <path id="Trazado_228383" data-name="Trazado 228383" d="M424.989,32.181h1.74v.576c0,2.01.005,4.02-.006,6.03a.626.626,0,0,0,.371.674,2.519,2.519,0,0,1,1.288,2.89,2.6,2.6,0,0,1-5.042.03,2.519,2.519,0,0,1,1.256-2.9.669.669,0,0,0,.4-.714c-.011-2.173-.006-4.346-.006-6.582m1.678,9.625a.811.811,0,1,0-.874.732.86.86,0,0,0,.874-.732" transform="translate(-377.134 -28.674)" fill="#fff"/>
        <rect id="Rectángulo_57645" data-name="Rectángulo 57645" width="1.653" height="1.692" transform="translate(47.9 0.012)" fill="#fff"/>
        <rect id="Rectángulo_57646" data-name="Rectángulo 57646" width="7.773" height="1.705" transform="translate(20.053 27.861)" fill="#fff"/>
        <rect id="Rectángulo_57647" data-name="Rectángulo 57647" width="7.765" height="1.697" transform="translate(20.048 31.356)" fill="#fff"/>
        <rect id="Rectángulo_57648" data-name="Rectángulo 57648" width="7.791" height="1.685" transform="translate(20.045 34.833)" fill="#fff"/>
        <rect id="Rectángulo_57649" data-name="Rectángulo 57649" width="7.792" height="1.686" transform="translate(20.025 38.313)" fill="#fff"/>
        <rect id="Rectángulo_57650" data-name="Rectángulo 57650" width="6.947" height="1.699" transform="translate(23.497 3.506)" fill="#fff"/>
        <rect id="Rectángulo_57651" data-name="Rectángulo 57651" width="1.709" height="1.719" transform="translate(32.216 3.506)" fill="#fff"/>
        <rect id="Rectángulo_57652" data-name="Rectángulo 57652" width="6.95" height="1.702" transform="translate(25.245 48.742)" fill="#fff"/>
        <rect id="Rectángulo_57653" data-name="Rectángulo 57653" width="1.721" height="1.713" transform="translate(18.29 48.746)" fill="#fff"/>
        <rect id="Rectángulo_57654" data-name="Rectángulo 57654" width="1.711" height="1.721" transform="translate(37.435 48.752)" fill="#fff"/>
      </g>
    </g>
  </g>
</svg>
