<svg xmlns="http://www.w3.org/2000/svg" xmlns:xlink="http://www.w3.org/1999/xlink" width="126" height="126" viewBox="0 0 126 126">
  <defs>
    <filter id="Elipse_6233" x="0" y="0" width="126" height="126" filterUnits="userSpaceOnUse">
      <feOffset dy="3" input="SourceAlpha"/>
      <feGaussianBlur stdDeviation="3" result="blur"/>
      <feFlood flood-opacity="0.161"/>
      <feComposite operator="in" in2="blur"/>
      <feComposite in="SourceGraphic"/>
    </filter>
    <clipPath id="clip-path">
      <rect id="Rectángulo_57629" data-name="Rectángulo 57629" width="63.207" height="62.347" fill="#1a76b7"/>
    </clipPath>
  </defs>
  <g id="Grupo_179513" data-name="Grupo 179513" transform="translate(-199.611 -4322.381)">
    <g transform="matrix(1, 0, 0, 1, 199.61, 4322.38)" filter="url(#Elipse_6233)">
      <circle id="Elipse_6233-2" data-name="Elipse 6233" cx="54" cy="54" r="54" transform="translate(9 6)" fill="#fff"/>
    </g>
    <g id="Grupo_179469" data-name="Grupo 179469" transform="translate(230.549 4351.208)">
      <g id="Grupo_179399" data-name="Grupo 179399" clip-path="url(#clip-path)">
        <path id="Trazado_228339" data-name="Trazado 228339" d="M112.847,82.734a10.1,10.1,0,0,1-1.095,3.259c-.438.894.09,1.248.58,1.776.515.554.947.824,1.7.377a15.613,15.613,0,0,1,2.21-.987c1.359-.544,2.206-.255,2.814,1.027q1.13,2.382,2.154,4.813a1.917,1.917,0,0,1-1.051,2.817,11.542,11.542,0,0,1-1.7.742,1.778,1.778,0,0,0-1.4,2.067c.028,1.227.879,1.227,1.569,1.456,3.686,1.219,3.551,2.039,2.258,5.051-.449,1.046-.79,2.138-1.227,3.189a1.941,1.941,0,0,1-2.836,1.26,10.465,10.465,0,0,1-1.728-.658,1.676,1.676,0,0,0-2.311.419c-.85.819-.381,1.41-.058,2.129,1.635,3.629,1.616,3.679-2.054,5.364-1.036.476-2.073.95-3.122,1.4a1.865,1.865,0,0,1-2.7-1.035,10.657,10.657,0,0,1-.8-1.823c-.282-1.079-.9-1.373-1.969-1.284-.717.059-1.122.209-1.315.953a15.584,15.584,0,0,1-.838,2.27,1.911,1.911,0,0,1-2.76,1.17c-1.609-.578-3.213-1.171-4.8-1.8a1.992,1.992,0,0,1-1.316-2.828,13.663,13.663,0,0,1,.644-1.736,1.74,1.74,0,0,0-.457-2.425c-.889-.8-1.465-.254-2.143.048-3.52,1.567-3.661,1.519-5.233-2.063-.458-1.043-.942-2.076-1.381-3.128-.563-1.351-.265-2.119,1.056-2.782.551-.277,1.11-.546,1.683-.772.813-.32,1.421-.565,1.408-1.756-.014-1.26-.692-1.453-1.561-1.766-3.551-1.281-3.642-1.506-2.286-5.029.427-1.108.832-2.225,1.281-3.323a1.893,1.893,0,0,1,2.654-1.178,13.453,13.453,0,0,1,1.862.711,1.727,1.727,0,0,0,2.323-.442c.85-.829.357-1.432.047-2.131-1.616-3.633-1.59-3.712,2.057-5.345.91-.408,1.82-.817,2.735-1.214,1.637-.709,2.48-.39,3.286,1.248a9.5,9.5,0,0,1,.635,1.431,1.719,1.719,0,0,0,1.944,1.367c1.175.007,1.253-.737,1.53-1.477,1.361-3.636,1.538-3.713,5.124-2.345,1.065.406,2.135.8,3.2,1.207a2,2,0,0,1,1.393,1.777M107,115.835c.723-.315,1.379-.591,2.028-.883,2.174-.98,2.174-.982,1.231-3.1-1-2.247-.709-2.048.677-4.065,1.563-2.275,3.156-2.19,5.129-1.012,1.277.763,1.85.294,2.118-.98a1.877,1.877,0,0,1,.083-.273c.972-2.572,1-2.654-1.544-3.5-1.489-.5-2.589-1-1.969-2.866a3.234,3.234,0,0,0-.017-1.278c-.221-2.151-.227-2.151,1.787-3.017,2.475-1.065,2.475-1.065,1.388-3.489-.853-1.9-.853-1.9-2.847-.991-2.331,1.064-2.33,1.063-4.122-.7a2.775,2.775,0,0,0-.63-.577c-1.674-.812-1.691-2.015-.863-3.444a2.6,2.6,0,0,0,.173-.392c.791-2.1.79-2.1-1.277-2.887-2.329-.889-2.386-.909-3.189,1.447-.5,1.479-1.035,2.1-2.939,2.3-3.046.328-4.3-.84-4.956-3.416-.229-.893-.7-.924-1.438-.52-1.034.563-2.6.786-3.029,1.621-.331.649.663,2.049,1.2,3.044a1.5,1.5,0,0,1-.5,2.3c-1.039.773-1.7,2.5-2.74,2.706-1.146.227-2.548-.787-3.825-1.294-.413-.164-.722-.237-.9.27-.443,1.245-1.315,2.534-1.187,3.716.088.809,1.832.867,2.811,1.317.215.1.522.108.649.268.295.37.9.479.693,1.3a6.68,6.68,0,0,0,.067,1.785c.064.873.432,2,.031,2.562-.478.673-1.627.874-2.491,1.267-1.785.812-1.786.808-.969,2.639,1.1,2.464,1.147,2.557,3.534,1.326,1.452-.748,2.151-.44,3.491.584,2.406,1.839,2.536,3.566,1.091,5.836A.94.94,0,0,0,94.357,115a16.232,16.232,0,0,1,2.671.9c.6.207.817.145,1.011-.468.344-1.085.783-2.14,1.191-3.2.131-.342.2-.767.737-.683a13.973,13.973,0,0,0,3.559.045c1.416-.143,1.963.661,2.305,1.848a12.885,12.885,0,0,0,.795,1.827,4.6,4.6,0,0,0,.37.564" transform="translate(-58.506 -56.339)" fill="#1a76b7"/>
        <path id="Trazado_228340" data-name="Trazado 228340" d="M32.824,19.452c-.6,1.529-1.943,1-3.058,1.112-.607.059-1.294-.246-1.625.694a1.3,1.3,0,0,0,.271,1.609c2.51,2.613,2.493,2.63-.023,5.153l-.1.1c-2.736,2.742-2.749,2.757-5.656.21a1,1,0,0,0-1.262-.184c-.469.223-.982.345-.91,1.065a12.1,12.1,0,0,1,.005,1.856c-.068,1.241-.624,2.051-1.981,2.06-1.382.009-2.765.038-4.144-.009a1.656,1.656,0,0,1-1.8-1.908c.019-.571-.051-1.15.016-1.713.09-.761-.276-1.057-.921-1.349-.669-.3-1.006-.062-1.456.371C7.6,31,7.588,30.985,5.028,28.416l-.1-.1c-2.717-2.726-2.733-2.74-.206-5.581A1.138,1.138,0,0,0,4.9,21.345a1.066,1.066,0,0,0-1.144-.8C0,20.375,0,20.36,0,16.557c0-.476,0-.953,0-1.429C.007,13,.187,12.915,2.273,12.835c.956-.037,2.167.248,2.709-1.11a1.1,1.1,0,0,0-.33-1.472A12.168,12.168,0,0,1,3.638,9.247C2.5,8.051,2.482,7.375,3.607,6.207Q4.9,4.869,6.225,3.571a1.809,1.809,0,0,1,2.95-.036c.383.358.765.718,1.116,1.106a.959.959,0,0,0,1.345.312c.538-.28.913-.444.942-1.186C12.723,0,12.752,0,16.507,0h.143c3.759,0,3.779,0,3.886,3.7A1.218,1.218,0,0,0,21.4,4.952a1.067,1.067,0,0,0,1.466-.357,8.849,8.849,0,0,1,1.216-1.206,1.759,1.759,0,0,1,2.6,0c.968.986,1.961,1.947,2.928,2.933a1.72,1.72,0,0,1,.015,2.739,11.278,11.278,0,0,1-1.217,1.2c-1,.718-.216,1.427-.054,2.135.184.8.844.413,1.3.45a3.872,3.872,0,0,0,.932-.246,1.769,1.769,0,0,1,2.358,1.867c.018,1.568-.053,3.136-.085,4.7-.039.023-.112.052-.109.068a1.158,1.158,0,0,0,.073.208M6.265,14.312l-.3.319c-.95.023-1.9.083-2.851.057-.664-.018-.981.179-.92.886A5.842,5.842,0,0,1,2.192,17c-.193,1.185.354,1.4,1.42,1.376,2.408-.066,2.408-.013,3.317,2.191a2.9,2.9,0,0,0,.38.761c.717.862.524,1.464-.289,2.221-2.125,1.979-2.071,2.013.122,3.9.4.343.66.476,1.041.022.305-.363.718-.641,1-1.021.812-1.108,1.547-1.06,2.908-.6,2.206.743,3.032,1.867,2.622,4.065-.153.82.244,1.12,1.037,1.02a2.986,2.986,0,0,1,.856,0c1.382.232,2.054-.214,1.772-1.717-.3-1.612.092-2.751,1.988-2.947.828-.086,1.511-1.191,2.247-.91.772.295,1.3,1.215,1.956,1.833.258.242.54.842.814.628a9.568,9.568,0,0,0,2.31-2.284c.3-.481-.587-.99-1.03-1.346-1.19-.956-1.345-1.735-.791-3.373.769-2.273,1.959-2.778,3.989-2.465.832.128,1.018-.239,1.025-1.031.021-2.607.055-2.6-2.6-2.626-.379,0-.757-.047-1.136-.072l-.363-.337a10.993,10.993,0,0,0-.961-2.344c-.756-1.074-.552-1.732.386-2.583,1.8-1.635,1.7-1.656.05-3.435-.7-.75-1.117-.766-1.728.021-1.1,1.412-2.308,2.487-4.1.927a1.212,1.212,0,0,0-.66-.248c-1.218-.1-1.465-.775-1.43-1.914.085-2.8.026-2.786-2.785-2.564-.576.046-.974.193-.852.815.464,2.36-.371,3.617-2.788,4.325-1.207.354-1.771.361-2.583-.508C7.721,5.055,7.715,5.134,6.007,6.73c-.739.691-.948,1.162-.034,1.835,1.5,1.1,2.327,2.367.9,4.161a5.589,5.589,0,0,0-.6,1.586" transform="translate(0 0)" fill="#1a76b7"/>
        <path id="Trazado_228341" data-name="Trazado 228341" d="M114.483,67.266a1.181,1.181,0,0,1-.073-.208c0-.016.071-.045.109-.068-.012.092-.024.184-.036.276" transform="translate(-81.659 -47.814)" fill="#1a76b7"/>
        <path id="Trazado_228342" data-name="Trazado 228342" d="M21.145,50c.009.206-.05.35-.3.319l.3-.319" transform="translate(-14.88 -35.684)" fill="#1a76b7"/>
        <path id="Trazado_228343" data-name="Trazado 228343" d="M93.944,50.254c-.252.029-.352-.106-.363-.337l.363.337" transform="translate(-66.793 -35.628)" fill="#1a76b7"/>
        <path id="Trazado_228344" data-name="Trazado 228344" d="M130.276,118.719a8.492,8.492,0,1,1-.124,16.983,8.492,8.492,0,1,1,.124-16.983m-.073,2.346a6.148,6.148,0,0,0-6.147,6.037,6.313,6.313,0,0,0,6.005,6.233,6.187,6.187,0,0,0,6.259-6.078,6.115,6.115,0,0,0-6.117-6.192" transform="translate(-86.865 -84.735)" fill="#1a76b7"/>
        <path id="Trazado_228345" data-name="Trazado 228345" d="M40.1,47.162a7.076,7.076,0,1,1,7-7.034,7.151,7.151,0,0,1-7,7.034m-4.94-7.06a4.813,4.813,0,0,0,4.836,4.907,4.9,4.9,0,1,0-.007-9.8,4.77,4.77,0,0,0-4.83,4.893" transform="translate(-23.504 -23.562)" fill="#1a76b7"/>
      </g>
    </g>
  </g>
</svg>
