<svg id="Grupo_179462" data-name="Grupo 179462" xmlns="http://www.w3.org/2000/svg" xmlns:xlink="http://www.w3.org/1999/xlink" width="137.156" height="137.156" viewBox="0 0 137.156 137.156">
  <defs>
    <clipPath id="clip-path">
      <rect id="Rectángulo_57723" data-name="Rectángulo 57723" width="137.156" height="137.156" fill="none"/>
    </clipPath>
  </defs>
  <g id="Grupo_179445" data-name="Grupo 179445" clip-path="url(#clip-path)">
    <path id="Trazado_228445" data-name="Trazado 228445" d="M227.079,245.654c.487,2.11.89,4.016,1.37,5.9,1.685,6.622.566,12.945-2.188,19.022a11.162,11.162,0,0,1-9.411,7.017c-5.751.573-10.716-4.054-11.02-10.261-.129-2.625.046-5.264.01-7.9a4.8,4.8,0,0,0-.456-2.182c-3.253-5.9-6.447-11.83-9.973-17.56-.644-1.047-2.7-1.238-4.129-1.762-.117-.043-.435.383-.621.622a6.5,6.5,0,0,1-5.429,2.661c-4.864-.014-9.729.012-14.593-.01a6.366,6.366,0,0,1-6.62-6.694q-.018-17.936,0-35.872a6.385,6.385,0,0,1,6.731-6.72c4.775-.019,9.55.014,14.325-.014a6.593,6.593,0,0,1,5.4,2.444c.142.171.3.475.447.472,2.1-.04,4.362.927,6.246-.4a13.784,13.784,0,0,1,8.508-2.536c10.932.13,21.866.047,32.8.049,6.991,0,11.4,5.3,10.258,12.235a2.284,2.284,0,0,0,.545,1.7,10.034,10.034,0,0,1,2.7,10.211,2.066,2.066,0,0,0,.412,1.588c2.424,2.94,3.351,6.17,2,9.838-.3.808.042,1.219.483,1.754a9.926,9.926,0,0,1-5.2,16.069,12.835,12.835,0,0,1-3.051.286c-5.8.031-11.6.023-17.4.029h-2.146m-35.208-46.4v1.724c0,10.35.018,20.7-.025,31.051,0,1.121.263,1.732,1.42,1.922,3.424.561,6.008,2.239,7.254,5.628a3.62,3.62,0,0,0,.272.46c2.848,5.148,5.759,10.263,8.494,15.471a9.672,9.672,0,0,1,.843,3.987c.113,2.626-.1,5.266.011,7.892a5.823,5.823,0,0,0,4.07,5.593c2.532.891,4.756.039,6.557-1.847a8,8,0,0,0,1.577-2.308c2.064-4.829,3.337-9.812,2.154-15.09-.78-3.479-1.74-6.917-2.631-10.371-.162-.625-.381-1.235-.617-1.991h1.5c8.166-.016,16.331-.02,24.5-.057a5.529,5.529,0,0,0,5.36-3.7,5.472,5.472,0,0,0-1.559-6.093,19.669,19.669,0,0,0-3.272-1.774c1.481-1.741,3.36-3.485,2.825-6.271-.539-2.8-2.41-4.238-5.3-4.752,1.714-2,3.24-3.962,2.678-6.652-.583-2.789-2.517-4.175-5.248-4.652.443-.864.9-1.633,1.244-2.447,2.208-5.163-1.445-8.888-5.759-8.806-10.884.206-21.774.119-32.661.025a8.748,8.748,0,0,0-5.955,1.839,5.453,5.453,0,0,1-3.854,1.235c-1.236-.063-2.477-.013-3.883-.013m-4.286,17.306q0-8.835,0-17.669c0-1.876-.743-2.665-2.55-2.672q-7.094-.029-14.19,0c-1.756.008-2.533.793-2.535,2.551q-.015,17.8,0,35.606c0,1.746.8,2.532,2.549,2.537q7.095.023,14.19,0c1.743-.006,2.53-.8,2.534-2.553.014-5.933.006-11.867.006-17.8" transform="translate(-120.077 -140.489)"/>
    <path id="Trazado_228447" data-name="Trazado 228447" d="M78.32,401.132A17.144,17.144,0,1,1,61.206,384.02,17.127,17.127,0,0,1,78.32,401.132m-4.3.122a12.849,12.849,0,1,0-12.97,12.759,12.881,12.881,0,0,0,12.97-12.759" transform="translate(-32.237 -281.155)"/>
    <path id="Trazado_228448" data-name="Trazado 228448" d="M233.171,40.021a17.143,17.143,0,1,1-17.145,17.074,17.121,17.121,0,0,1,17.145-17.074m12.848,17.171a12.848,12.848,0,1,0-12.912,12.823,12.877,12.877,0,0,0,12.912-12.823" transform="translate(-158.16 -29.301)"/>
    <path id="Trazado_228449" data-name="Trazado 228449" d="M363.245,77.044c-1.279.264-2.264.146-2.895-.881s-.233-1.948.371-2.849c.893-1.332,1.733-2.7,2.626-4.031,1.212-1.808,2.843-1.826,4.046-.044.847,1.255,1.642,2.546,2.479,3.807.63.949,1.4,2.013.525,3.028-.6.692-1.682.963-2.873,1.595,0,2.063.028,4.635-.009,7.206-.027,1.86-1.772,3.015-3.153,2.015a3.082,3.082,0,0,1-1.068-2.1c-.129-2.529-.05-5.07-.05-7.749" transform="translate(-263.59 -49.724)"/>
    <path id="Trazado_228450" data-name="Trazado 228450" d="M195.415,422.591c1.259-.236,2.293-.149,2.93.962.646,1.127.079,2.043-.526,2.959-.883,1.338-1.717,2.709-2.627,4.029-1.092,1.583-2.729,1.594-3.818.021-.938-1.354-1.788-2.769-2.7-4.139-.623-.932-1.221-1.99-.371-2.923.6-.654,1.636-.9,2.832-1.517,0-1.938-.033-4.412.023-6.884a2.683,2.683,0,0,1,.52-1.832,3.282,3.282,0,0,1,2.236-.681,1.873,1.873,0,0,1,1.5,2.083c0,2.582,0,5.164,0,7.922" transform="translate(-137.552 -302.058)"/>
    <path id="Trazado_228451" data-name="Trazado 228451" d="M75.706,324.384c-.023,1.832-1.036,3.134-2.427,3.12a2.143,2.143,0,0,1-2.131-2.252c.07-1.788,1.158-3.115,2.515-3.066a2.129,2.129,0,0,1,2.043,2.2" transform="translate(-52.089 -235.884)"/>
    <path id="Trazado_228452" data-name="Trazado 228452" d="M85.226,302.824a2.171,2.171,0,0,1-2.167-2.09,3.418,3.418,0,0,1,2.7-3.024,2.112,2.112,0,0,1,2.244,2.127,3.529,3.529,0,0,1-2.779,2.987" transform="translate(-60.81 -217.963)"/>
    <path id="Trazado_228453" data-name="Trazado 228453" d="M106.943,280.173a2.131,2.131,0,0,1,2.172,2.066c.053,1.348-1.52,2.744-3.071,2.726a2.091,2.091,0,0,1-2.107-2.116c-.011-1.244,1.58-2.66,3.007-2.676" transform="translate(-76.095 -205.125)"/>
    <path id="Trazado_228454" data-name="Trazado 228454" d="M68.015,352.256a2.13,2.13,0,0,1,2.3-2.21,2.424,2.424,0,0,1-.238,4.8,2.239,2.239,0,0,1-2.059-2.593" transform="translate(-49.794 -256.278)"/>
    <path id="Trazado_228455" data-name="Trazado 228455" d="M132.263,276.356a2.139,2.139,0,0,1-2.218-2.149,2.364,2.364,0,0,1,2.66-2.191,2.178,2.178,0,0,1,2.15,2.238,2.314,2.314,0,0,1-2.591,2.1" transform="translate(-95.211 -199.151)"/>
    <path id="Trazado_228456" data-name="Trazado 228456" d="M267.955,210.946c1.405,0,2.647-.05,3.883.013a5.452,5.452,0,0,0,3.854-1.235,8.749,8.749,0,0,1,5.955-1.839c10.887.095,21.777.181,32.661-.025,4.314-.081,7.967,3.643,5.759,8.806-.348.814-.8,1.582-1.245,2.447,2.731.477,4.665,1.863,5.248,4.652.562,2.69-.964,4.655-2.678,6.652,2.885.515,4.757,1.949,5.3,4.752.535,2.786-1.344,4.53-2.825,6.271a19.637,19.637,0,0,1,3.272,1.774,5.471,5.471,0,0,1,1.559,6.093,5.53,5.53,0,0,1-5.36,3.7c-8.166.038-16.331.041-24.5.057-.439,0-.878,0-1.5,0,.236.756.456,1.366.617,1.991.891,3.454,1.852,6.892,2.631,10.371,1.183,5.278-.09,10.26-2.153,15.09a8.014,8.014,0,0,1-1.577,2.308c-1.8,1.885-4.025,2.738-6.557,1.847a5.823,5.823,0,0,1-4.07-5.593c-.108-2.626.1-5.266-.011-7.892a9.67,9.67,0,0,0-.843-3.987c-2.735-5.208-5.645-10.323-8.494-15.471a3.583,3.583,0,0,1-.272-.46c-1.246-3.389-3.83-5.066-7.254-5.628-1.157-.19-1.425-.8-1.42-1.922.044-10.35.026-20.7.026-31.051v-1.724" transform="translate(-196.161 -152.181)" fill="#eeac3a"/>
    <path id="Trazado_228457" data-name="Trazado 228457" d="M199.311,228.355c0,5.933.009,11.867-.006,17.8,0,1.755-.791,2.547-2.534,2.553q-7.095.025-14.19,0c-1.752-.006-2.547-.792-2.549-2.537q-.015-17.8,0-35.606c0-1.758.779-2.543,2.535-2.551q7.095-.031,14.19,0c1.807.007,2.547.8,2.55,2.672q.015,8.835,0,17.669m-9.652-9.647a2.133,2.133,0,1,0-2.126-2.107,2.107,2.107,0,0,0,2.126,2.107" transform="translate(-131.803 -152.284)" fill="#eeac3a"/>
    <path id="Trazado_228460" data-name="Trazado 228460" d="M85.757,412.994a12.849,12.849,0,1,1-12.793-12.939,12.878,12.878,0,0,1,12.793,12.939m-12.851-2.237c-2,0-4.007-.013-6.011,0-1.586.013-2.53.812-2.552,2.113s.948,2.165,2.493,2.172q6.078.025,12.156,0c1.555-.007,2.506-.873,2.483-2.178s-.973-2.094-2.558-2.107c-2-.016-4.007,0-6.011,0" transform="translate(-43.972 -292.896)" fill="#b1daf6"/>
    <path id="Trazado_228461" data-name="Trazado 228461" d="M257.764,68.924A12.848,12.848,0,1,1,244.91,56.045a12.885,12.885,0,0,1,12.854,12.879m-10.707,2.119c1.453,0,2.7.017,3.938,0,1.574-.026,2.506-.861,2.482-2.185-.023-1.27-.93-2.071-2.43-2.1-.676-.012-8.274-.654-8.274-.007-1.408,0-2.606-.01-3.8,0-1.687.018-2.644.825-2.616,2.184.027,1.318.947,2.085,2.562,2.106,1.236.016,2.472,0,3.856,0,0,.758,4.285.657,4.285,0" transform="translate(-169.905 -41.033)" fill="#43a99b"/>
    <path id="Trazado_228462" data-name="Trazado 228462" d="M210.181,236.317a2.133,2.133,0,1,1,2.143-2.087,2.108,2.108,0,0,1-2.143,2.087" transform="translate(-152.325 -169.894)"/>
    <path id="Trazado_228463" data-name="Trazado 228463" d="M84.609,439.994c2,0,4.007-.012,6.011,0,1.585.013,2.535.813,2.558,2.107s-.928,2.171-2.483,2.178q-6.078.027-12.156,0c-1.545-.006-2.515-.883-2.493-2.172s.966-2.1,2.552-2.113c2-.017,4.007,0,6.011,0" transform="translate(-55.675 -322.133)"/>
    <path id="Trazado_228469" data-name="Trazado 228469" d="M191.926,215.687c.216.934.394,1.778.606,2.613a12.467,12.467,0,0,1-.968,8.42,4.941,4.941,0,0,1-4.166,3.106,4.574,4.574,0,0,1-4.878-4.542c-.057-1.162.02-2.33,0-3.495a2.123,2.123,0,0,0-.2-.966c-1.44-2.609-2.854-5.236-4.414-7.773-.285-.463-1.2-.548-1.827-.78-.052-.019-.193.17-.275.275a2.879,2.879,0,0,1-2.4,1.178c-2.153-.006-4.306.005-6.459,0a2.818,2.818,0,0,1-2.93-2.963q-.008-7.939,0-15.878a2.826,2.826,0,0,1,2.979-2.974c2.114-.008,4.227.006,6.341-.006a2.918,2.918,0,0,1,2.392,1.082c.063.076.133.21.2.209.927-.018,1.931.41,2.765-.177a6.1,6.1,0,0,1,3.766-1.122c4.839.057,9.679.021,14.518.022a4.406,4.406,0,0,1,4.541,5.416,1.011,1.011,0,0,0,.241.755,4.441,4.441,0,0,1,1.193,4.52.914.914,0,0,0,.182.7,4.192,4.192,0,0,1,.887,4.354c-.131.358.019.54.214.776a4.394,4.394,0,0,1-2.3,7.113,5.681,5.681,0,0,1-1.351.127c-2.568.014-5.136.01-7.7.013h-.95m-15.584-20.538v.763c0,4.581.008,9.163-.011,13.744,0,.5.116.767.629.851A3.781,3.781,0,0,1,180.169,213a1.6,1.6,0,0,0,.12.2c1.261,2.279,2.549,4.543,3.76,6.848a4.281,4.281,0,0,1,.373,1.765c.05,1.162-.043,2.331,0,3.493a2.577,2.577,0,0,0,1.8,2.476,2.623,2.623,0,0,0,2.9-.818,3.542,3.542,0,0,0,.7-1.022,10.73,10.73,0,0,0,.953-6.679c-.345-1.54-.77-3.062-1.165-4.59-.072-.277-.169-.547-.273-.881h.665c3.614-.007,7.229-.009,10.843-.025a2.447,2.447,0,0,0,2.373-1.638,2.422,2.422,0,0,0-.69-2.7,8.705,8.705,0,0,0-1.449-.785c.655-.771,1.487-1.543,1.25-2.776a2.554,2.554,0,0,0-2.344-2.1c.759-.884,1.434-1.754,1.186-2.944a2.562,2.562,0,0,0-2.323-2.059c.2-.382.4-.723.551-1.083a2.649,2.649,0,0,0-2.549-3.9c-4.817.091-9.638.053-14.457.011a3.872,3.872,0,0,0-2.636.814,2.414,2.414,0,0,1-1.706.547c-.547-.028-1.1-.006-1.719-.006m-1.9,7.66q0-3.911,0-7.821c0-.83-.329-1.18-1.129-1.183q-3.14-.013-6.281,0c-.777,0-1.121.351-1.122,1.129q-.007,7.88,0,15.76c0,.773.353,1.121,1.128,1.123q3.14.01,6.281,0c.772,0,1.12-.353,1.122-1.13.006-2.626,0-5.253,0-7.879" transform="translate(-160.275 -179.887)"/>
    <path id="Trazado_228470" data-name="Trazado 228470" d="M267.94,209.225c.622,0,1.172-.022,1.719.006a2.414,2.414,0,0,0,1.706-.547A3.873,3.873,0,0,1,274,207.87c4.819.042,9.639.08,14.457-.011a2.649,2.649,0,0,1,2.549,3.9c-.154.36-.355.7-.551,1.083a2.562,2.562,0,0,1,2.323,2.059c.249,1.191-.427,2.061-1.186,2.944a2.555,2.555,0,0,1,2.344,2.1c.237,1.233-.595,2.005-1.25,2.776a8.691,8.691,0,0,1,1.448.785,2.422,2.422,0,0,1,.69,2.7,2.448,2.448,0,0,1-2.373,1.639c-3.614.017-7.229.018-10.843.025h-.665c.1.334.2.6.273.881.395,1.529.82,3.051,1.165,4.591a10.731,10.731,0,0,1-.953,6.679,3.547,3.547,0,0,1-.7,1.022,2.623,2.623,0,0,1-2.9.817,2.577,2.577,0,0,1-1.8-2.476c-.048-1.163.045-2.331,0-3.493a4.28,4.28,0,0,0-.373-1.765c-1.211-2.305-2.5-4.569-3.76-6.848a1.58,1.58,0,0,1-.12-.2,3.781,3.781,0,0,0-3.211-2.491c-.512-.084-.631-.354-.629-.851.019-4.581.011-9.163.011-13.744v-.763" transform="translate(-251.873 -193.963)" fill="#eeac3a"/>
    <path id="Trazado_228471" data-name="Trazado 228471" d="M188.562,217.01c0,2.626,0,5.253,0,7.879,0,.777-.35,1.127-1.122,1.13q-3.14.011-6.281,0c-.776,0-1.127-.35-1.128-1.123q-.007-7.88,0-15.76c0-.778.345-1.126,1.122-1.129q3.14-.014,6.281,0c.8,0,1.127.353,1.129,1.183q.007,3.911,0,7.821m-4.272-4.27a.944.944,0,1,0-.941-.933.933.933,0,0,0,.941.933" transform="translate(-174.392 -194.088)" fill="#eeac3a"/>
    <path id="Trazado_228472" data-name="Trazado 228472" d="M209,233.94a.944.944,0,1,1,.948-.924.933.933,0,0,1-.948.924" transform="translate(-199.098 -215.288)"/>
    <path id="Trazado_228473" data-name="Trazado 228473" d="M84.609,439.994c2,0,4.007-.012,6.011,0,1.585.013,2.535.813,2.558,2.107s-.928,2.171-2.483,2.178q-6.078.027-12.156,0c-1.545-.006-2.515-.883-2.493-2.172s.966-2.1,2.552-2.113c2-.017,4.007,0,6.011,0" transform="translate(-9.534 -414.279)"/>
  </g>
</svg>
