<svg id="Grupo_179398" data-name="Grupo 179398" xmlns="http://www.w3.org/2000/svg" xmlns:xlink="http://www.w3.org/1999/xlink" width="94" height="94" viewBox="0 0 94 94">
  <defs>
    <clipPath id="clip-path">
      <rect id="Rectángulo_57628" data-name="Rectángulo 57628" width="94" height="94" fill="#12263f"/>
    </clipPath>
  </defs>
  <g id="Grupo_179398-2" data-name="Grupo 179398" clip-path="url(#clip-path)">
    <path id="Trazado_228333" data-name="Trazado 228333" d="M45.055,93.9H6.437c-.05-.037-.094-.094-.149-.109C1.986,92.617,0,90.026,0,85.573q0-38.7,0-77.4C0,3.171,3.158,0,8.138,0Q25.691,0,43.243,0c5.117,0,8.247,3.13,8.247,8.249q0,20.108,0,40.216V49.7L67.155,45.22c-.058-.137-.063-.174-.083-.192-.165-.146-.334-.287-.5-.433a16.315,16.315,0,0,1-5.828-14.93,16.628,16.628,0,0,1,32.395-2.77c.32,1.048.508,2.136.757,3.206v3.408a.851.851,0,0,0-.126.245,16.79,16.79,0,0,1-7.648,12.161,1.053,1.053,0,0,0-.3.918,60.206,60.206,0,0,1,1.885,11.733,56.986,56.986,0,0,1-2.77,21.609c-.532,1.609-.561,1.523-2.268,1.616a28.716,28.716,0,0,1-11.316-1.613c-1.505-.535-3.075-.888-4.726-1.355,0,.6.01,1.1,0,1.595a7.511,7.511,0,0,1-5.6,7.134,11.2,11.2,0,0,1-2.618.276c-2.355.036-4.71.012-7.031.012-.89,2.647-1.883,4.052-3.714,5.033A22.723,22.723,0,0,1,45.055,93.9M36.347,67,76.29,78.417a55.44,55.44,0,0,0,0-32.627c-.256.064-.4.1-.551.138Q66.16,48.661,56.581,51.4q-9.76,2.788-19.52,5.578c-.415.118-.733.2-.728.768.029,3.057.013,6.114.013,9.262M25.765,45.016c-3.187,4.414-8.973,4.64-12.234.544-1.2.8-2.344,1.671-3.593,2.338-.609.325-.872.565-.87,1.286q.043,14.285.019,28.57v.94H39.376V71.032l-3.037-.869c-.61,2.049-2.042,2.667-3.954,2.538-.691-.047-1.388.008-2.081-.012A2.988,2.988,0,0,1,27.272,69.7q-.04-7.615,0-15.231a2.976,2.976,0,0,1,2.95-2.971c.693-.027,1.39.035,2.08-.014,1.936-.137,3.42.442,4.035,2.537,1.931-.548,3.806-1.066,5.666-1.631a.806.806,0,0,0,.382-.62c.041-1.007.047-2.019,0-3.026a.885.885,0,0,0-.471-.645,7.909,7.909,0,0,1-3.754-2.759c-3.982,4.833-9.817,3.522-12.391-.323M6.059,24.2c0-3.04-.014-6,.005-8.963a2.975,2.975,0,0,1,3.007-3.109q16.658-.026,33.315,0a2.973,2.973,0,0,1,3.04,3.077c.025,2.65.007,5.3.008,7.95v1.1c1.021-.267,1.248.342,1.467,1.054.434,1.411.924,2.805,1.391,4.206.171-7.21.174-14.37.17-21.53A4.564,4.564,0,0,0,43.508,3.03q-17.746,0-35.492,0c-3.141,0-4.985,1.854-4.986,5.008q0,10.316,0,20.632v.8L3.2,29.5l1.769-5.236L6.059,24.2m-3.03,23v.95q0,18.827,0,37.653c0,3.264,1.822,5.068,5.114,5.069q17.644,0,35.288,0c.252,0,.505.006.756-.009a4.211,4.211,0,0,0,3.843-3c-4.366.143-7.267-1.813-8.571-6.079H9.765c-2.632,0-3.706-1.088-3.706-3.749q0-14.286,0-28.571V48.452L3.029,47.194m81.7-4.329.025.261c.132-.083.268-.16.394-.251a13.642,13.642,0,1,0-14.735.68,1.95,1.95,0,0,0,1.206.352c1.373-.31,2.719-.742,4.05-1.121V39.421c-2.813-.419-4.585-2.255-4.4-4.553h2.471c.7.6,1.158,1.334,1.687,1.388a47.848,47.848,0,0,0,4.832.058c0-.4,0-.716,0-1.028-.009-1.465-.514-1.962-2.008-1.968-.852,0-1.7.013-2.555-.005a4.3,4.3,0,0,1-4.364-3.593,42.261,42.261,0,0,1-.049-5.489h4.469V21.268h3v2.866c2.989.628,4.471,2.146,4.488,4.593H80.322c-.2-.745-.567-1.405-1.411-1.437-1.535-.058-3.074-.017-4.7-.017,0,.379,0,.686,0,.994,0,1.532.495,2.016,2.049,2.022.883,0,1.767-.02,2.65.009A4.192,4.192,0,0,1,83,33.38a48.69,48.69,0,0,1,.4,6.037H78.819V42.4c1.61,0,3.154-.031,4.694.021a4.256,4.256,0,0,1,1.22.439M42.359,15.208H9.161v8.976h33.2Zm.07,56.7c0,3.021-.1,5.954.033,8.876a4.372,4.372,0,0,0,4.4,4.013q6.146.054,12.294,0a4.379,4.379,0,0,0,3.823-2.237c.844-1.349.613-2.859.609-4.329a.548.548,0,0,0-.335-.376c-.857-.262-1.725-.487-2.672-.747,0,.468,0,.812,0,1.156-.006,2.369-1.165,3.516-3.558,3.518q-4.066,0-8.133,0c-2.261,0-3.447-1.183-3.452-3.432,0-1.856,0-3.712,0-5.589l-3-.851m5.94-32.563c-1.328-3.986-2.6-7.832-3.905-11.669a.715.715,0,0,0-.523-.395c-2.382-.027-4.765-.018-7.218-.018l2.635,12.082ZM3.163,39.322h8.929L14.767,27.26c-2.242,0-4.382.044-6.518-.022a1.226,1.226,0,0,0-1.455,1.018c-1.062,3.356-2.209,6.685-3.322,10.025-.107.321-.193.649-.308,1.041M79.4,45.534a58.9,58.9,0,0,1-.027,33.217,9.7,9.7,0,0,1,1.612.015c1.05.19,1.377-.337,1.637-1.252a55.337,55.337,0,0,0,.308-29.68c-.683-2.6-.689-2.6-3.379-2.365a.815.815,0,0,0-.152.064M36.3,39.341,33.627,27.31h-6.3V39.341Zm-12.137.005V27.314H17.857L15.246,39.347ZM30.357,69.62h2.911V54.562H30.357Zm27.191,9.09c0-.735.036-1.4-.022-2.047a.792.792,0,0,0-.453-.557c-2.83-.84-5.671-1.646-8.561-2.476v5.081ZM48.1,42.482H40.144a4.216,4.216,0,0,0,4.224,2.945A4.038,4.038,0,0,0,48.1,42.482m-12.084-.02H28.056a4.154,4.154,0,0,0,7.963,0M15.5,42.45a4.113,4.113,0,0,0,7.908,0Zm-12.1,0a4.006,4.006,0,0,0,3.8,2.98,4.085,4.085,0,0,0,4.113-2.98ZM45.47,51.405c.93-.259,1.805-.49,2.668-.759a.543.543,0,0,0,.305-.4c.026-1.016.014-2.033.014-3.051L45.47,48.439Z" transform="translate(0 0)" fill="#12263f"/>
    <path id="Trazado_228334" data-name="Trazado 228334" d="M285.931,271.039l.829,2.913-16.644,4.741-.846-2.908,16.661-4.746" transform="translate(-218.193 -219.627)" fill="#12263f"/>
    <path id="Trazado_228335" data-name="Trazado 228335" d="M376.136,261.928l.829,2.9-3.006.87-.845-2.9,3.022-.869" transform="translate(-302.339 -212.244)" fill="#12263f"/>
    <path id="Trazado_228336" data-name="Trazado 228336" d="M279.256,345.889l-.832,2.89-2.9-.828.828-2.91,2.9.848" transform="translate(-223.264 -279.591)" fill="#12263f"/>
    <path id="Trazado_228337" data-name="Trazado 228337" d="M214.549,327.7l2.9.823-.82,2.9-2.9-.835.822-2.892" transform="translate(-173.186 -265.536)" fill="#12263f"/>
    <path id="Trazado_228338" data-name="Trazado 228338" d="M245.708,336.315l2.914.846-.83,2.889-2.884-.805.8-2.93" transform="translate(-198.451 -272.521)" fill="#12263f"/>
    <rect id="Rectángulo_57620" data-name="Rectángulo 57620" width="12.029" height="2.902" transform="translate(12.165 63.679)" fill="#12263f"/>
    <rect id="Rectángulo_57621" data-name="Rectángulo 57621" width="11.996" height="2.912" transform="translate(12.194 57.616)" fill="#12263f"/>
    <rect id="Rectángulo_57622" data-name="Rectángulo 57622" width="12.009" height="2.914" transform="translate(12.161 51.559)" fill="#12263f"/>
    <rect id="Rectángulo_57623" data-name="Rectángulo 57623" width="2.906" height="2.923" transform="translate(12.169 69.709)" fill="#12263f"/>
    <rect id="Rectángulo_57624" data-name="Rectángulo 57624" width="2.922" height="2.939" transform="translate(18.235 69.718)" fill="#12263f"/>
    <rect id="Rectángulo_57625" data-name="Rectángulo 57625" width="8.97" height="2.932" transform="translate(24.282 6.098)" fill="#12263f"/>
    <rect id="Rectángulo_57626" data-name="Rectángulo 57626" width="2.906" height="2.923" transform="translate(18.227 6.103)" fill="#12263f"/>
    <rect id="Rectángulo_57627" data-name="Rectángulo 57627" width="11.996" height="2.914" transform="translate(19.765 84.875)" fill="#12263f"/>
  </g>
</svg>
