<svg id="Grupo_179456" data-name="Grupo 179456" xmlns="http://www.w3.org/2000/svg" xmlns:xlink="http://www.w3.org/1999/xlink" width="137.156" height="137.156" viewBox="0 0 137.156 137.156">
  <defs>
    <clipPath id="clip-path">
      <rect id="Rectángulo_57723" data-name="Rectángulo 57723" width="137.156" height="137.156" fill="none"/>
    </clipPath>
  </defs>
  <g id="Grupo_179445" data-name="Grupo 179445" clip-path="url(#clip-path)">
    <path id="Trazado_228446" data-name="Trazado 228446" d="M36.442,16.3c2.642,0,5.136-.013,7.629,0,5.892.035,8.787,5.01,6.523,10.427-.865,2.07-1,4.551-1.565,6.835-.429,1.748-.428,3.57-1.519,5.14a2.666,2.666,0,0,0-.339,1.368,7.132,7.132,0,0,1-7.247,7.064c-6.071.022-12.143.066-18.211-.043A9.818,9.818,0,0,1,18.069,46a2.17,2.17,0,0,0-2.55.136,5.171,5.171,0,0,1-2.689.966c-2.807.122-5.623.071-8.434.038A4.21,4.21,0,0,1,.019,42.737q-.038-9.508,0-19.016A4.194,4.194,0,0,1,4.373,19.3c2.811-.038,5.624-.011,8.436,0a4.37,4.37,0,0,1,.929.092c2.116.469,2.116.474,3.22-1.331.489-.8.946-1.62,1.462-2.4A12.232,12.232,0,0,0,20.793,7.81,7.139,7.139,0,0,1,26.307.228,7.708,7.708,0,0,1,34.986,4.25a15.323,15.323,0,0,1,1.8,9.957c-.1.612-.2,1.223-.341,2.1m-5.532,4.29c.583-2.443,1.278-4.707,1.634-7.022a10.449,10.449,0,0,0-1.884-7.991,2.945,2.945,0,0,0-3.338-1.137,2.878,2.878,0,0,0-2.236,2.7c-.063.8.077,1.613-.026,2.4a13.935,13.935,0,0,1-.811,4.377c-1.495,2.985-3.313,5.81-5.041,8.675a1.787,1.787,0,0,1-1.007.775c-.981.217-1.072.823-1.067,1.671.031,5,.014,10,.018,15,0,.388.044.777.049.863,1.124.523,2.026.963,2.946,1.363a4.493,4.493,0,0,0,1.611.553c6.116.036,12.232.054,18.348-.006a2.762,2.762,0,0,0,2.628-3.65,16.339,16.339,0,0,0-.728-1.823c2.452-.856,3.695-2.561,1.667-5.325.794-.951,1.954-1.744,2.128-2.715.184-1.027-.571-2.222-.925-3.374,1.7-.758,2.5-1.853,2.227-3.261S45.71,20.6,43.538,20.6q-2.477,0-4.955,0H30.91M12.855,23.7H4.4V42.766h8.377c.033-.3.077-.519.077-.734,0-6.068,0-12.136,0-18.334" transform="translate(0 0)"/>
    <path id="Trazado_228466" data-name="Trazado 228466" d="M50.058,22.4c3.629,0,7.055-.017,10.48,0,8.094.049,12.07,6.882,8.961,14.323-1.188,2.844-1.38,6.251-2.15,9.389-.589,2.4-.588,4.9-2.086,7.06A3.663,3.663,0,0,0,64.8,55.05a9.8,9.8,0,0,1-9.955,9.7c-8.339.031-16.68.091-25.016-.059a13.487,13.487,0,0,1-5-1.5c-1.3-.585-2.232-.751-3.5.187a7.1,7.1,0,0,1-3.693,1.327c-3.855.168-7.724.1-11.586.053A5.783,5.783,0,0,1,.026,58.706q-.052-13.061,0-26.122a5.761,5.761,0,0,1,5.983-6.074c3.862-.052,7.726-.015,11.589-.006a6,6,0,0,1,1.276.126c2.906.644,2.907.651,4.424-1.828.672-1.1,1.3-2.225,2.008-3.3,2.161-3.27,3.527-6.593,3.26-10.776A9.806,9.806,0,0,1,36.136.313,10.589,10.589,0,0,1,48.058,5.838a21.049,21.049,0,0,1,2.469,13.677c-.137.84-.273,1.68-.468,2.88m-7.6,5.893c.8-3.356,1.756-6.465,2.245-9.646A14.353,14.353,0,0,0,42.117,7.666,4.045,4.045,0,0,0,37.532,6.1a3.954,3.954,0,0,0-3.071,3.711c-.087,1.094.105,2.216-.035,3.3-.263,2.029-.237,4.259-1.115,6.013-2.053,4.1-4.551,7.98-6.924,11.917A2.454,2.454,0,0,1,25,32.108c-1.347.3-1.473,1.131-1.466,2.295.042,6.868.019,13.737.025,20.6,0,.534.06,1.067.068,1.186,1.544.718,2.784,1.323,4.047,1.873a6.173,6.173,0,0,0,2.214.759c8.4.049,16.8.074,25.2-.009a3.793,3.793,0,0,0,3.61-5.014,22.445,22.445,0,0,0-1-2.5c3.368-1.176,5.076-3.518,2.29-7.314,1.09-1.307,2.685-2.4,2.923-3.729.253-1.41-.784-3.052-1.271-4.635,2.339-1.041,3.429-2.545,3.059-4.48s-1.917-2.842-4.9-2.846q-3.4,0-6.807,0H42.46m-24.8,4.265H6.041V58.746H17.549c.045-.418.105-.713.105-1.009.005-8.335,0-16.67,0-25.184" transform="translate(66.447 59.214)"/>
    <path id="Trazado_228447" data-name="Trazado 228447" d="M78.32,401.132A17.144,17.144,0,1,1,61.206,384.02,17.127,17.127,0,0,1,78.32,401.132m-4.3.122a12.849,12.849,0,1,0-12.97,12.759,12.881,12.881,0,0,0,12.97-12.759" transform="translate(-32.237 -281.155)"/>
    <path id="Trazado_228448" data-name="Trazado 228448" d="M233.171,40.021a17.143,17.143,0,1,1-17.145,17.074,17.121,17.121,0,0,1,17.145-17.074m12.848,17.171a12.848,12.848,0,1,0-12.912,12.823,12.877,12.877,0,0,0,12.912-12.823" transform="translate(-158.16 -29.301)"/>
    <path id="Trazado_228449" data-name="Trazado 228449" d="M363.245,77.044c-1.279.264-2.264.146-2.895-.881s-.233-1.948.371-2.849c.893-1.332,1.733-2.7,2.626-4.031,1.212-1.808,2.843-1.826,4.046-.044.847,1.255,1.642,2.546,2.479,3.807.63.949,1.4,2.013.525,3.028-.6.692-1.682.963-2.873,1.595,0,2.063.028,4.635-.009,7.206-.027,1.86-1.772,3.015-3.153,2.015a3.082,3.082,0,0,1-1.068-2.1c-.129-2.529-.05-5.07-.05-7.749" transform="translate(-263.59 -49.724)"/>
    <path id="Trazado_228450" data-name="Trazado 228450" d="M195.415,422.591c1.259-.236,2.293-.149,2.93.962.646,1.127.079,2.043-.526,2.959-.883,1.338-1.717,2.709-2.627,4.029-1.092,1.583-2.729,1.594-3.818.021-.938-1.354-1.788-2.769-2.7-4.139-.623-.932-1.221-1.99-.371-2.923.6-.654,1.636-.9,2.832-1.517,0-1.938-.033-4.412.023-6.884a2.683,2.683,0,0,1,.52-1.832,3.282,3.282,0,0,1,2.236-.681,1.873,1.873,0,0,1,1.5,2.083c0,2.582,0,5.164,0,7.922" transform="translate(-137.552 -302.058)"/>
    <path id="Trazado_228451" data-name="Trazado 228451" d="M75.706,324.384c-.023,1.832-1.036,3.134-2.427,3.12a2.143,2.143,0,0,1-2.131-2.252c.07-1.788,1.158-3.115,2.515-3.066a2.129,2.129,0,0,1,2.043,2.2" transform="translate(-52.089 -235.884)"/>
    <path id="Trazado_228452" data-name="Trazado 228452" d="M85.226,302.824a2.171,2.171,0,0,1-2.167-2.09,3.418,3.418,0,0,1,2.7-3.024,2.112,2.112,0,0,1,2.244,2.127,3.529,3.529,0,0,1-2.779,2.987" transform="translate(-60.81 -217.963)"/>
    <path id="Trazado_228453" data-name="Trazado 228453" d="M106.943,280.173a2.131,2.131,0,0,1,2.172,2.066c.053,1.348-1.52,2.744-3.071,2.726a2.091,2.091,0,0,1-2.107-2.116c-.011-1.244,1.58-2.66,3.007-2.676" transform="translate(-76.095 -205.125)"/>
    <path id="Trazado_228454" data-name="Trazado 228454" d="M68.015,352.256a2.13,2.13,0,0,1,2.3-2.21,2.424,2.424,0,0,1-.238,4.8,2.239,2.239,0,0,1-2.059-2.593" transform="translate(-49.794 -256.278)"/>
    <path id="Trazado_228455" data-name="Trazado 228455" d="M132.263,276.356a2.139,2.139,0,0,1-2.218-2.149,2.364,2.364,0,0,1,2.66-2.191,2.178,2.178,0,0,1,2.15,2.238,2.314,2.314,0,0,1-2.591,2.1" transform="translate(-95.211 -199.151)"/>
    <path id="Trazado_228458" data-name="Trazado 228458" d="M77.745,32.37h7.673q2.477,0,4.955,0c2.172,0,3.3.658,3.568,2.072s-.524,2.5-2.227,3.261c.354,1.153,1.109,2.348.925,3.375-.174.97-1.334,1.763-2.128,2.715,2.028,2.764.785,4.469-1.667,5.325a16.336,16.336,0,0,1,.728,1.823,2.762,2.762,0,0,1-2.628,3.65c-6.116.061-12.232.042-18.348.006a4.49,4.49,0,0,1-1.611-.553c-.92-.4-1.823-.84-2.946-1.363-.006-.087-.049-.475-.05-.863,0-5,.012-10-.018-15-.005-.848.086-1.454,1.067-1.671a1.792,1.792,0,0,0,1.007-.775c1.727-2.865,3.546-5.69,5.04-8.675a13.943,13.943,0,0,0,.812-4.377c.1-.788-.038-1.6.025-2.4a2.879,2.879,0,0,1,2.236-2.7A2.945,2.945,0,0,1,77.5,17.356a10.45,10.45,0,0,1,1.883,7.991c-.356,2.316-1.052,4.579-1.634,7.023" transform="translate(-46.835 -11.775)" fill="#d2c1eb"/>
    <path id="Trazado_228465" data-name="Trazado 228465" d="M82.892,38.455h10.54q3.4,0,6.807,0c2.984,0,4.529.9,4.9,2.846s-.72,3.44-3.059,4.48c.487,1.584,1.524,3.225,1.271,4.635-.239,1.332-1.833,2.422-2.923,3.729,2.786,3.8,1.078,6.139-2.29,7.315a22.441,22.441,0,0,1,1,2.5,3.794,3.794,0,0,1-3.61,5.014c-8.4.084-16.8.058-25.2.009a6.168,6.168,0,0,1-2.214-.759c-1.264-.549-2.5-1.154-4.047-1.872-.008-.119-.067-.652-.068-1.186-.007-6.869.017-13.737-.025-20.6-.007-1.164.118-2,1.466-2.295a2.461,2.461,0,0,0,1.383-1.065c2.372-3.936,4.871-7.816,6.923-11.916.878-1.754.852-3.983,1.115-6.013.14-1.083-.052-2.2.035-3.3a3.955,3.955,0,0,1,3.071-3.711,4.046,4.046,0,0,1,4.585,1.562,14.355,14.355,0,0,1,2.587,10.976c-.489,3.181-1.445,6.29-2.245,9.647" transform="translate(26.015 49.048)" fill="#d2c1eb"/>
    <path id="Trazado_228459" data-name="Trazado 228459" d="M24.875,88.473c0,6.2,0,12.266,0,18.334,0,.215-.044.43-.077.734H16.418V88.473Z" transform="translate(-12.02 -64.774)" fill="#d2c1eb"/>
    <path id="Trazado_228467" data-name="Trazado 228467" d="M28.035,88.473c0,8.514,0,16.849,0,25.184,0,.3-.06.591-.105,1.009H16.418V88.473Z" transform="translate(56.07 3.295)" fill="#d2c1eb"/>
    <path id="Trazado_228460" data-name="Trazado 228460" d="M85.757,412.994a12.849,12.849,0,1,1-12.793-12.939,12.878,12.878,0,0,1,12.793,12.939m-12.851-2.237c-2,0-4.007-.013-6.011,0-1.586.013-2.53.812-2.552,2.113s.948,2.165,2.493,2.172q6.078.025,12.156,0c1.555-.007,2.506-.873,2.483-2.178s-.973-2.094-2.558-2.107c-2-.016-4.007,0-6.011,0" transform="translate(-43.972 -292.896)" fill="#b1daf6"/>
    <path id="Trazado_228461" data-name="Trazado 228461" d="M257.764,68.924A12.848,12.848,0,1,1,244.91,56.045a12.885,12.885,0,0,1,12.854,12.879m-10.707,2.119c1.453,0,2.7.017,3.938,0,1.574-.026,2.506-.861,2.482-2.185-.023-1.27-.93-2.071-2.43-2.1-1.28-.024-2.56,0-3.99,0,0-1.4.012-2.633,0-3.87-.02-1.611-.792-2.528-2.115-2.546s-2.141.914-2.163,2.5c-.018,1.273,0,2.547,0,3.919-1.408,0-2.606-.01-3.8,0-1.687.018-2.644.825-2.616,2.184.027,1.318.947,2.085,2.562,2.106,1.236.016,2.472,0,3.856,0,0,1.393-.012,2.63,0,3.867.019,1.615.787,2.53,2.111,2.549s2.143-.9,2.167-2.492c.019-1.241,0-2.483,0-3.924" transform="translate(-169.905 -41.033)" fill="#43a99b"/>
    <path id="Trazado_228462" data-name="Trazado 228462" d="M210.181,236.317a2.133,2.133,0,1,1,2.143-2.087,2.108,2.108,0,0,1-2.143,2.087" transform="translate(-152.325 -169.894)"/>
    <path id="Trazado_228464" data-name="Trazado 228464" d="M258.769,82.762c0,1.441.015,2.683,0,3.924-.024,1.592-.837,2.511-2.167,2.492s-2.092-.934-2.111-2.549c-.015-1.236,0-2.473,0-3.867-1.384,0-2.62.013-3.856,0-1.615-.02-2.535-.788-2.562-2.106-.028-1.358.929-2.166,2.616-2.184,1.2-.013,2.4,0,3.8,0,0-1.371-.014-2.645,0-3.919.022-1.581.843-2.514,2.163-2.5s2.1.935,2.115,2.546c.015,1.237,0,2.474,0,3.87,1.429,0,2.71-.019,3.99,0,1.5.028,2.407.829,2.43,2.1.024,1.324-.908,2.159-2.482,2.185-1.242.021-2.485,0-3.938,0" transform="translate(-181.618 -52.753)"/>
    <path id="Trazado_228468" data-name="Trazado 228468" d="M258.769,82.762c0,1.441.015,2.683,0,3.924-.024,1.592-.837,2.511-2.167,2.492s-2.092-.934-2.111-2.549c-.015-1.236,0-2.473,0-3.867-1.384,0-2.62.013-3.856,0-1.615-.02-2.535-.788-2.562-2.106-.028-1.358.929-2.166,2.616-2.184,1.2-.013,2.4,0,3.8,0,0-1.371-.014-2.645,0-3.919.022-1.581.843-2.514,2.163-2.5s2.1.935,2.115,2.546c.015,1.237,0,2.474,0,3.87,1.429,0,2.71-.019,3.99,0,1.5.028,2.407.829,2.43,2.1.024,1.324-.908,2.159-2.482,2.185-1.242.021-2.485,0-3.938,0" transform="translate(-227.699 39.479)"/>
  </g>
</svg>
