<svg id="Grupo_179396" data-name="Grupo 179396" xmlns="http://www.w3.org/2000/svg" xmlns:xlink="http://www.w3.org/1999/xlink" width="90.562" height="90.467" viewBox="0 0 90.562 90.467">
  <defs>
    <clipPath id="clip-path">
      <rect id="Rectángulo_57618" data-name="Rectángulo 57618" width="90.562" height="90.467" fill="#12263f"/>
    </clipPath>
  </defs>
  <g id="Grupo_179396-2" data-name="Grupo 179396" clip-path="url(#clip-path)">
    <path id="Trazado_228319" data-name="Trazado 228319" d="M100.6,50.714a28.69,28.69,0,0,0,5.225-14.626H93.3l.507.6-3.135,3.457-3.163-4.111H63.246c-.6,1.478.275,4.371-2.507,3.947-1.079-.164-1.865-2.255-3.153-3.956H47.452a6.841,6.841,0,0,0-.1,1.137C47.5,38.688,47.068,40,45.4,40.1c-1.84.111-2.238-1.311-2.409-2.877A33.633,33.633,0,0,1,76.952.008c13.46.3,23.613,6.585,29.672,18.559,6.072,12,4.782,23.81-2.715,34.925-2.1,3.11-2.643,3.132-5.75.956a10.767,10.767,0,0,1-2.594-1.841c-.527-.7-.945-2.115-.581-2.689a3.155,3.155,0,0,1,2.667-.833c.974.153,1.841.982,2.946,1.628M88.8,31.406c-.343-3.2-.668-6.218-.968-9.016H63.885c-.3,2.544-.678,5.677-1.076,9.016ZM65.177,17.42A47.036,47.036,0,0,0,86.765,17.2c-1.84-3.806-3.614-7.515-6.173-10.565-2.814-3.352-6.433-3.127-9.548-.081-2.991,2.925-4.628,6.6-5.867,10.868m35.676-.233-8.777,3.856c.3,3.044.522,5.964.915,8.861.081.594.777,1.563,1.216,1.578,3.791.126,7.589.073,11.652.073a27.576,27.576,0,0,0-5.007-14.367m-41.139,3.38L52.28,17.139A27.23,27.23,0,0,0,47.3,31.344h11.15c.437-3.735.846-7.243,1.259-10.777m27.1-14.976-.451.639,4.821,10.484,6.647-2.959q.075-.461.148-.924L86.812,5.591M60.752,16.218,64.9,6.946l-.43-.484-9.895,6.973,6.177,2.783" transform="translate(-19.903 0)" fill="#12263f"/>
    <path id="Trazado_228320" data-name="Trazado 228320" d="M50.833,107.913H36.562c1.167,3.635.955,6.833-2.479,9a6.231,6.231,0,0,1-7.258-.478c-2.786-2.318-3.086-5.224-1.6-8.552-4.108-1.268-5.5-4.036-5.971-8.181-.428-3.764-2.459-7.321-3.542-11.039Q12.381,77.248,9.354,65.746C8.863,63.88,8.126,63,6.114,63.251a9.616,9.616,0,0,1-3.977-.1C1.278,62.873.7,61.712,0,60.947c.716-.652,1.388-1.8,2.155-1.866a42.813,42.813,0,0,1,8.006.01,3.582,3.582,0,0,1,2.275,2.078A40.7,40.7,0,0,1,14.413,68.1c.362,1.858,1.181,2.373,3.056,2.365,17.032-.077,34.064-.044,51.1-.043.535,0,1.07-.015,1.6,0,2.485.081,3.326.958,2.754,3.332-1.878,7.794-3.883,15.557-5.805,23.34-.514,2.081-2.039,2.141-3.735,2.138Q45.191,99.2,27,99.224H24.174c-.7,3.268.095,4.271,3.273,4.277,11.236.02,22.472-.028,33.707.065,1.067.009,2.924.708,3.015,1.3.164,1.071-.73,2.3-1.439,3.383.854,3.878.271,6.433-2.232,8.306a6.458,6.458,0,0,1-7.286.283c-2.723-1.708-3.429-4.272-2.379-8.926m17.4-33.025H16.364c1.66,6.034,3.322,11.846,4.832,17.7.454,1.758,1.189,2.382,3.09,2.362,10.518-.109,21.038-.052,31.557-.052h7.372c1.682-6.7,3.323-13.235,5.022-20.006m-37.316,33.45c-1.069,1.454-2.122,2.264-2.12,3.074,0,.693,1.315,2.022,1.857,1.93a3.166,3.166,0,0,0,2.084-2c.155-.619-.876-1.535-1.82-3M59.8,111.419c-1.56-1.012-2.408-1.983-3.231-1.962a2.629,2.629,0,0,0-1.816,1.9,2.672,2.672,0,0,0,1.772,1.987c.823.039,1.694-.933,3.275-1.929" transform="translate(0 -27.392)" fill="#12263f"/>
  </g>
</svg>
