<svg id="Grupo_179397" data-name="Grupo 179397" xmlns="http://www.w3.org/2000/svg" xmlns:xlink="http://www.w3.org/1999/xlink" width="93.437" height="84.051" viewBox="0 0 93.437 84.051">
  <defs>
    <clipPath id="clip-path">
      <rect id="Rectángulo_57619" data-name="Rectángulo 57619" width="93.437" height="84.051" fill="#12263f"/>
    </clipPath>
  </defs>
  <g id="Grupo_179397-2" data-name="Grupo 179397" clip-path="url(#clip-path)">
    <path id="Trazado_228321" data-name="Trazado 228321" d="M93.437,3.709v60.94c-.961,3.121-3.1,3.883-5.708,3.866-10.7-.068-21.409-.028-32.114-.028h-1.04v6.22H55.61c3.223,0,6.447-.019,9.671.007a4.639,4.639,0,0,1,4.753,4.148,27.569,27.569,0,0,1,.019,3.736,1.418,1.418,0,0,1-1.39,1.426,7.288,7.288,0,0,1-.82.025H25.6c-.213,0-.426.006-.638-.007a1.521,1.521,0,0,1-1.6-1.616c-.027-.85-.008-1.7-.007-2.554,0-3.246,1.91-5.16,5.152-5.164q5.474-.007,10.948,0h.969v-6.22H5.332C1.829,68.486,0,66.657,0,63.152Q0,34.237,0,5.323c0-.3-.007-.609.009-.912A4.548,4.548,0,0,1,3.181.261,7.957,7.957,0,0,1,5.429.01Q46.711-.009,87.994,0c.365,0,.731-.006,1.094.023a4.522,4.522,0,0,1,3.995,2.871c.121.27.236.543.354.815m-3.154,8.953H3.183V56h87.1Zm.038-3.255c0-1.637.054-3.218-.035-4.79a1.831,1.831,0,0,0-.753-1.24,2.871,2.871,0,0,0-1.484-.252Q46.717,3.11,5.385,3.117c-.243,0-.487-.007-.73.01A1.481,1.481,0,0,0,3.128,4.618c-.042,1.576-.012,3.154-.012,4.789Zm0,49.828H3.11c0,1.318,0,2.562,0,3.806,0,1.925.418,2.337,2.365,2.337H87.962c.243,0,.487.01.73,0a1.552,1.552,0,0,0,1.625-1.6c.034-1.487.009-2.975.009-4.536M66.9,80.891c.246-2.61-.17-3.072-2.667-3.072H28.941c-.3,0-.61-.017-.912.012a1.572,1.572,0,0,0-1.552,1.591c-.027.474,0,.952,0,1.469ZM51.323,68.533H43.665v6.135h7.658Z" transform="translate(0 0)" fill="#12263f"/>
    <path id="Trazado_228322" data-name="Trazado 228322" d="M39.074,88.191c-1.12,0-2.18.011-3.238,0a1.564,1.564,0,1,1-.011-3.1q2.142-.021,4.285,0a1.59,1.59,0,0,1,1.749,1.391c.408,1.581.793,3.167,1.2,4.821h1.118q10.987,0,21.974,0c1.8,0,2.363.659,2.015,2.425q-1.454,7.368-2.936,14.73a1.6,1.6,0,0,1-1.819,1.52q-9.118.018-18.236,0c-1.137,0-1.576-.431-1.829-1.622L39.074,88.191m4.683,6.248c.805,4.05,1.582,8.005,2.4,11.951.041.2.465.451.711.452,4.951.027,9.9.013,14.854.03.556,0,.714-.232.8-.732.242-1.374.545-2.736.818-4.1.5-2.516,1-5.033,1.505-7.6Z" transform="translate(-27.83 -69.521)" fill="#12263f"/>
    <path id="Trazado_228323" data-name="Trazado 228323" d="M271.229,110.655q6.523,0,13.046,0c.3,0,.61-.009.911.021a1.535,1.535,0,0,1,.07,3.065,5.655,5.655,0,0,1-.819.032q-13.32,0-26.639,0c-.152,0-.3,0-.456,0-1.134-.047-1.835-.679-1.8-1.622.033-.911.7-1.487,1.821-1.49,4.622-.012,9.245,0,13.867-.006" transform="translate(-208.814 -90.421)" fill="#12263f"/>
    <path id="Trazado_228324" data-name="Trazado 228324" d="M271.049,144.768q6.66,0,13.321,0a6.916,6.916,0,0,1,1,.034,1.418,1.418,0,0,1,1.281,1.338,1.387,1.387,0,0,1-.956,1.58,3.86,3.86,0,0,1-1.253.155q-13.321.012-26.641.006c-.182,0-.366.007-.547,0a1.607,1.607,0,0,1-1.709-1.623,1.536,1.536,0,0,1,1.727-1.481c4.592-.012,9.185-.005,13.777-.006" transform="translate(-208.818 -118.296)" fill="#12263f"/>
    <path id="Trazado_228325" data-name="Trazado 228325" d="M271.05,181.922c-4.5,0-9,.006-13.5-.01a2.817,2.817,0,0,1-1.23-.233,1.393,1.393,0,0,1-.764-1.607,1.455,1.455,0,0,1,1.291-1.235,5.718,5.718,0,0,1,.82-.025h26.824c.243,0,.488-.01.729.014a1.533,1.533,0,0,1,.241,3.025,4.39,4.39,0,0,1-1,.069q-6.706.006-13.412,0" transform="translate(-208.795 -146.115)" fill="#12263f"/>
    <path id="Trazado_228326" data-name="Trazado 228326" d="M271.047,215.938q-6.661,0-13.321,0a5.16,5.16,0,0,1-.91-.035,1.544,1.544,0,0,1,.067-3.052,4.461,4.461,0,0,1,.638-.019q13.595,0,27.19,0c1.228,0,1.959.581,1.966,1.538s-.733,1.566-1.944,1.567q-6.843.006-13.686,0" transform="translate(-208.813 -173.914)" fill="#12263f"/>
    <path id="Trazado_228327" data-name="Trazado 228327" d="M89.817,239.167a4.66,4.66,0,1,1,4.655-4.619,4.678,4.678,0,0,1-4.655,4.619m1.518-4.578a1.536,1.536,0,0,0-1.475-1.628,1.57,1.57,0,0,0-1.6,1.521,1.55,1.55,0,0,0,1.449,1.57,1.511,1.511,0,0,0,1.628-1.463" transform="translate(-69.562 -187.819)" fill="#12263f"/>
    <path id="Trazado_228328" data-name="Trazado 228328" d="M171.117,234.5a4.615,4.615,0,0,1-4.588,4.672,4.66,4.66,0,1,1,4.588-4.672m-6.212,0a1.573,1.573,0,0,0,1.569,1.555A1.507,1.507,0,0,0,168,234.574a1.537,1.537,0,0,0-1.5-1.611,1.6,1.6,0,0,0-1.6,1.538" transform="translate(-132.206 -187.82)" fill="#12263f"/>
    <path id="Trazado_228329" data-name="Trazado 228329" d="M446.079,215.869c-.547,0-1.1.038-1.64-.009a1.5,1.5,0,0,1-1.422-1.588,1.467,1.467,0,0,1,1.43-1.481c1.092-.046,2.188-.043,3.28,0a1.543,1.543,0,0,1,1.494,1.539,1.6,1.6,0,0,1-1.5,1.547c-.06.006-.121.005-.182.005h-1.458v-.009" transform="translate(-362.011 -173.855)" fill="#12263f"/>
    <path id="Trazado_228330" data-name="Trazado 228330" d="M446.117,178.813c.516,0,1.034-.021,1.549,0a1.55,1.55,0,0,1,1.552,1.477,1.51,1.51,0,0,1-1.349,1.578,26.982,26.982,0,0,1-3.549,0,1.454,1.454,0,0,1-1.3-1.6,1.469,1.469,0,0,1,1.459-1.449c.545-.034,1.093-.006,1.64-.006v0" transform="translate(-362.011 -146.111)" fill="#12263f"/>
    <path id="Trazado_228331" data-name="Trazado 228331" d="M446.175,144.781c.516,0,1.034-.026,1.548.006a1.528,1.528,0,0,1,1.506,1.423,1.44,1.44,0,0,1-1.215,1.578,22.05,22.05,0,0,1-3.808-.008,1.349,1.349,0,0,1-1.171-1.591,1.443,1.443,0,0,1,1.41-1.395c.574-.041,1.153-.008,1.73-.008v-.006" transform="translate(-362.024 -118.3)" fill="#12263f"/>
    <path id="Trazado_228332" data-name="Trazado 228332" d="M446.057,113.72a14.891,14.891,0,0,1-1.637-.011,1.485,1.485,0,0,1-1.406-1.6,1.447,1.447,0,0,1,1.454-1.451c1.09-.05,2.186-.05,3.277,0a1.5,1.5,0,0,1,1.471,1.453,1.579,1.579,0,0,1-1.429,1.607,1.81,1.81,0,0,1-.272.024c-.486,0-.972,0-1.458,0v-.025" transform="translate(-362.008 -90.395)" fill="#12263f"/>
  </g>
</svg>
