<svg xmlns="http://www.w3.org/2000/svg" xmlns:xlink="http://www.w3.org/1999/xlink" width="108.419" height="108.419" viewBox="0 0 108.419 108.419">
  <defs>
    <linearGradient id="linear-gradient" x1="0.5" x2="0.5" y2="1" gradientUnits="objectBoundingBox">
      <stop offset="0" stop-color="#fdbe41"/>
      <stop offset="1" stop-color="#d09f40"/>
    </linearGradient>
    <clipPath id="clip-path">
      <rect id="Rectángulo_57657" data-name="Rectángulo 57657" width="66.096" height="66.102" fill="#12263f"/>
    </clipPath>
  </defs>
  <g id="Grupo_179503" data-name="Grupo 179503" transform="translate(-581.096 -1332.297)">
    <circle id="Elipse_6020" data-name="Elipse 6020" cx="54.209" cy="54.209" r="54.209" transform="translate(581.096 1332.297)" fill="url(#linear-gradient)"/>
    <g id="Grupo_179415" data-name="Grupo 179415" transform="translate(603 1353)">
      <g id="Grupo_179414" data-name="Grupo 179414" clip-path="url(#clip-path)">
        <path id="Trazado_228391" data-name="Trazado 228391" d="M30.262,64.074H53.988v-6.5c-.183-.011-.371-.031-.559-.032q-6.825-.015-13.651-.025c-1.421,0-2.843.022-4.264.034-.873.007-1.274-.4-1.27-1.288q0-.806.036-1.611a1.024,1.024,0,0,1,.946-1.1A1.119,1.119,0,0,1,36.263,54.7c.022.866.022.868.879.866q11.855-.017,23.71-.033c.894,0,1.788.023,2.682.031.174,0,.347-.014.556-.023,0-.345-.011-.646,0-.946a1.077,1.077,0,0,1,1.027-1.036.965.965,0,0,1,.964,1.014c.019.609.013,1.219,0,1.829a1.021,1.021,0,0,1-1.174,1.142q-4.157,0-8.314,0c-.158,0-.315.016-.55.028v.65q0,3.308,0,6.616c0,.922-.344,1.268-1.263,1.268H1.318C.309,66.1,0,65.793,0,64.788c.01-3.027.035-6.055.033-9.082Q.025,42.129,0,28.551c0-.108,0-.215,0-.323.015-.766.352-1.122,1.12-1.127,1.685-.011,3.371-.006,5.056-.007H6.8v-.712c0-3.945.007-7.889-.009-11.833a1.674,1.674,0,0,1,.527-1.287Q13.656,6.943,19.975.6A1.909,1.909,0,0,1,21.449,0Q38.042.02,54.636.01c1.111,0,1.412.3,1.412,1.394q0,12.882,0,25.765v.757h8.7c1.028,0,1.341.312,1.341,1.353q0,7.154,0,14.308c0,.992-.322,1.306-1.328,1.306H35.716c-1.216,0-1.471-.262-1.471-1.493q0-7.046,0-14.093c0-1.075.3-1.381,1.371-1.381H53.99V2.051h-32v.635q0,5.594,0,11.188c0,1.049-.287,1.335-1.343,1.335H8.847V27.094H28.8c1.2,0,1.458.253,1.458,1.441q0,11.564,0,23.128,0,5.884,0,11.769ZM2.042,29.128v6.492c1.762,0,3.479,0,5.2,0q4-.006,8-.016c2.075,0,4.15,0,6.225,0,1.272,0,2.544-.011,3.816,0a.97.97,0,0,1,.982.941.989.989,0,0,1-.943,1.039c-.2.019-.394.009-.591.009q-11.052,0-22.105-.009c-.484,0-.635.116-.635.622.006,4.965-.024,9.93-.026,14.9,0,3.458.035,6.917.027,10.375,0,.494.134.628.628.627q12.5-.022,25.009-.011h.622V29.128Zm62.011.85H36.307V42.851H64.053ZM20,3.634l-.153-.078L10.2,13.12a3.348,3.348,0,0,0,.4.08c2.994,0,5.988-.006,8.982.008.452,0,.423-.257.422-.556q0-4.33,0-8.66V3.634" transform="translate(0 0)" fill="#12263f"/>
        <path id="Trazado_228392" data-name="Trazado 228392" d="M266.719,59.762a7.725,7.725,0,0,1-4.256,6.937,7.563,7.563,0,0,1-8.058-.428.712.712,0,0,0-.929.009,7.563,7.563,0,0,1-8.613.087,7.408,7.408,0,0,1-3.587-7.729A7.862,7.862,0,0,1,253.567,53.2a.585.585,0,0,0,.789-.024,7.58,7.58,0,0,1,8.152-.434,7.747,7.747,0,0,1,4.212,7.015m-14.245-4.848a5.879,5.879,0,0,0-7.584,8.936c2.02,2.062,5.575,2.371,7.567.647a7.985,7.985,0,0,1,.016-9.583m6.288,10.695a5.9,5.9,0,1,0-5.873-5.559,5.9,5.9,0,0,0,5.873,5.559" transform="translate(-215.233 -46.191)" fill="#12263f"/>
        <path id="Trazado_228393" data-name="Trazado 228393" d="M320.311,438.443h27.825c0-.446-.007-.885,0-1.324.014-.725.385-1.141,1-1.139s.988.425,1,1.145c.007.735.01,1.47,0,2.2a1,1,0,0,1-1.127,1.127c-1.541.009-3.083,0-4.624,0H319.755c-1.192,0-1.462-.27-1.461-1.446,0-.645-.008-1.291,0-1.936a1.009,1.009,0,1,1,2.013-.019c.012.444,0,.889,0,1.386" transform="translate(-284.049 -389.075)" fill="#12263f"/>
        <path id="Trazado_228394" data-name="Trazado 228394" d="M116.335,445.225c0,.627.006,1.255,0,1.882a.989.989,0,0,1-1.086,1.113q-1.909.018-3.819,0a1,1,0,0,1-1.105-1.1q-.017-1.882,0-3.765a1.008,1.008,0,0,1,1.12-1.144q1.882-.017,3.765,0a1.007,1.007,0,0,1,1.128,1.133c0,.036,0,.072,0,.108q0,.888,0,1.775m-3.964.951h1.909v-1.931h-1.909Z" transform="translate(-98.446 -394.629)" fill="#12263f"/>
        <path id="Trazado_228395" data-name="Trazado 228395" d="M116.324,522.6c0,.627.009,1.254,0,1.881a.986.986,0,0,1-1.091,1.107q-1.908.021-3.816,0a1,1,0,0,1-1.1-1.107q-.021-1.908,0-3.816a.982.982,0,0,1,1.069-1.08q1.935-.028,3.87,0c.726.012,1.058.384,1.069,1.129.009.627,0,1.254,0,1.881m-3.968.962h1.919v-1.939h-1.919Z" transform="translate(-98.435 -463.677)" fill="#12263f"/>
        <path id="Trazado_228396" data-name="Trazado 228396" d="M193.666,448.237c-.645,0-1.289.007-1.934,0-.765-.01-1.138-.362-1.146-1.11q-.02-1.88,0-3.76c.008-.785.376-1.139,1.169-1.144q1.853-.011,3.707,0a1,1,0,0,1,1.129,1.126c0,1.288-.018,2.577-.044,3.865a.936.936,0,0,1-1.053,1c-.608-.009-1.217,0-1.825,0,0,.009,0,.017,0,.026m.892-3.955h-1.927v1.9h1.927Z" transform="translate(-170.073 -394.641)" fill="#12263f"/>
        <path id="Trazado_228397" data-name="Trazado 228397" d="M42.4,367.922c0,.627.007,1.254,0,1.881-.01.741-.344,1.122-1.065,1.135q-1.934.033-3.87,0a.966.966,0,0,1-1.071-1.077q-.028-1.908,0-3.816a.986.986,0,0,1,1.1-1.1q1.935-.017,3.87,0a.953.953,0,0,1,1.033,1.046c.014.645,0,1.29,0,1.935Zm-4,.984h1.954v-1.878l-1.524-.094c-.035,0-.085-.015-.1,0-.112.1-.3.2-.311.313-.033.531-.015,1.064-.015,1.656" transform="translate(-32.464 -325.671)" fill="#12263f"/>
        <path id="Trazado_228398" data-name="Trazado 228398" d="M110.393,367.872c0-.609-.011-1.219,0-1.828a.987.987,0,0,1,1.1-1.1q1.908-.018,3.817,0a.984.984,0,0,1,1.1,1.1q.017,1.908,0,3.817a.979.979,0,0,1-1.065,1.084q-1.935.032-3.87-.005c-.721-.015-1.062-.4-1.074-1.133-.01-.645,0-1.29,0-1.935m2.016-.93c0,.6,0,1.113,0,1.629,0,.1.021.2.035.335.125.013.228.033.331.033.515,0,1.031,0,1.626,0,0-.607.012-1.173-.012-1.738a.363.363,0,0,0-.252-.249c-.549-.023-1.1-.012-1.73-.012" transform="translate(-98.513 -325.674)" fill="#12263f"/>
        <path id="Trazado_228399" data-name="Trazado 228399" d="M194.882,367.936c0,.627.014,1.255,0,1.881-.021.745-.358,1.111-1.083,1.122q-1.934.032-3.87,0a.973.973,0,0,1-1.05-1.1q-.017-1.908,0-3.816a.975.975,0,0,1,1.1-1.088q1.908-.015,3.816,0A.977.977,0,0,1,194.878,366c0,.036,0,.072,0,.107q0,.914,0,1.828m-2.009-.951h-1.911q-.048.762-.1,1.523c0,.035-.014.085,0,.1.1.111.2.3.317.307a9.942,9.942,0,0,0,1.39,0,.4.4,0,0,0,.282-.274c.028-.546.013-1.095.013-1.663" transform="translate(-168.548 -325.671)" fill="#12263f"/>
        <path id="Trazado_228400" data-name="Trazado 228400" d="M190.574,522.6c0-.609-.011-1.219,0-1.828.017-.761.367-1.13,1.127-1.137,1.325-.012,2.65,0,3.975.019a.9.9,0,0,1,.9.9q.032,2.094-.01,4.189a.871.871,0,0,1-.909.879c-1.38.025-2.76.028-4.139,0a.946.946,0,0,1-.937-1.04c-.016-.663,0-1.326,0-1.989m4.009-.92h-1.969v1.963c.593,0,1.159.012,1.724-.013.085,0,.23-.172.234-.269.023-.549.011-1.1.011-1.681" transform="translate(-170.068 -463.727)" fill="#12263f"/>
        <path id="Trazado_228401" data-name="Trazado 228401" d="M37.688,448.226c-.645,0-1.289.01-1.934,0a1.069,1.069,0,0,1-1.067-1.046c-.016-1.307-.018-2.614,0-3.921a.97.97,0,0,1,1.049-1.043q1.933-.022,3.867,0a.974.974,0,0,1,1.079,1.064q.023,1.933,0,3.867a.986.986,0,0,1-1.116,1.079c-.627.007-1.253,0-1.88,0m-.962-2.048h1.929v-1.917H36.726Z" transform="translate(-30.944 -394.63)" fill="#12263f"/>
        <path id="Trazado_228402" data-name="Trazado 228402" d="M40.677,522.655c0,.645.009,1.29,0,1.935a.985.985,0,0,1-1.091,1.106q-1.908.018-3.817,0a.993.993,0,0,1-1.094-1.109c-.016-1.268-.015-2.536-.006-3.8a.916.916,0,0,1,.968-1.047c1.36-.045,2.722-.052,4.082-.038a.946.946,0,0,1,.954,1.021c.018.644,0,1.29,0,1.935M36.69,523.7c.609,0,1.161.012,1.712-.012a.368.368,0,0,0,.26-.246c.024-.566.012-1.133.012-1.7H36.69Z" transform="translate(-30.933 -463.782)" fill="#12263f"/>
        <path id="Trazado_228403" data-name="Trazado 228403" d="M441.067,290.386l.044-.569h.859l.04.595a2.308,2.308,0,0,1,2.272,2.018,1.478,1.478,0,0,1-2.158-.74l-.115.13q0,.562,0,1.124a3.179,3.179,0,0,1-.008.483c-.085.539.124.78.669.926a2.38,2.38,0,0,1,1.941,2.431,2.609,2.609,0,0,1-1.9,2.626c-.477.142-.856.255-.7.879h-.9c.112-.582-.233-.7-.69-.829a2.56,2.56,0,0,1-1.874-2.508l1.423-.147.922,1.294.191-.07c0-.773.015-1.547-.019-2.319,0-.095-.259-.2-.412-.264a2.659,2.659,0,0,1-1.916-2.28,2.318,2.318,0,0,1,1.887-2.658c.138-.036.276-.075.448-.121m.981,5.542v2.213a1.083,1.083,0,0,0,1-1.081c.016-.6-.312-.98-1-1.133m-1.008-2.177v-2.02c-.464.292-.822.574-.77,1.08a1.013,1.013,0,0,0,.77.94" transform="translate(-391.363 -258.638)" fill="#12263f"/>
        <path id="Trazado_228404" data-name="Trazado 228404" d="M397.626,330.975a.946.946,0,0,1-.945.9.921.921,0,0,1-.886-.951.891.891,0,0,1,.9-.87.937.937,0,0,1,.927.919" transform="translate(-353.214 -294.548)" fill="#12263f"/>
        <path id="Trazado_228405" data-name="Trazado 228405" d="M520.282,330.9a.852.852,0,0,1,.9-.844.91.91,0,1,1-.066,1.818.891.891,0,0,1-.836-.974" transform="translate(-464.307 -294.546)" fill="#12263f"/>
        <path id="Trazado_228406" data-name="Trazado 228406" d="M384.361,92.795l-.058.514h-.666c.007-.453-.29-.588-.7-.708a2.141,2.141,0,0,1-1.517-2.1l1.188-.135.778,1.083.174-.073c0-.616.022-1.233-.019-1.846-.008-.119-.249-.259-.41-.325a2.194,2.194,0,0,1-1.526-2.577c.106-.909.692-1.4,1.919-1.716l.093-.456h.6l-.067.125a4.619,4.619,0,0,0,.783.484,1.839,1.839,0,0,1,1.309,1.644c-.736.284-1.388.275-1.779-.656l-.126.137a13.342,13.342,0,0,0,.03,1.733c.02.155.39.3.622.385a2.174,2.174,0,0,1,1.045,3.5,7.623,7.623,0,0,1-1.556,1.058l-.121-.075m.018-3.192v1.948a.978.978,0,0,0,.848-.952c.024-.537-.3-.84-.848-1m-.853-1.8V86.112a.9.9,0,0,0-.622.846.851.851,0,0,0,.622.843" transform="translate(-340.387 -75.371)" fill="#12263f"/>
      </g>
    </g>
  </g>
</svg>
