<svg xmlns="http://www.w3.org/2000/svg" xmlns:xlink="http://www.w3.org/1999/xlink" width="108.419" height="108.419" viewBox="0 0 108.419 108.419">
  <defs>
    <linearGradient id="linear-gradient" x1="0.5" x2="0.5" y2="1" gradientUnits="objectBoundingBox">
      <stop offset="0" stop-color="#fdbe41"/>
      <stop offset="1" stop-color="#d09f40"/>
    </linearGradient>
    <clipPath id="clip-path">
      <rect id="Rectángulo_57660" data-name="Rectángulo 57660" width="62.488" height="66.943" fill="#12263f"/>
    </clipPath>
  </defs>
  <g id="Grupo_179507" data-name="Grupo 179507" transform="translate(-1848.798 10359.803)">
    <circle id="Elipse_6217" data-name="Elipse 6217" cx="54.209" cy="54.209" r="54.209" transform="translate(1848.798 -10359.803)" fill="url(#linear-gradient)"/>
    <g id="Grupo_179417" data-name="Grupo 179417" transform="translate(1872 -10338)">
      <g id="Grupo_179416" data-name="Grupo 179416" clip-path="url(#clip-path)">
        <path id="Trazado_228407" data-name="Trazado 228407" d="M234.391,0V4.445h4.452V6.684a24.229,24.229,0,0,1-2.92-.022,3.591,3.591,0,0,0-3.7,1.561,3.784,3.784,0,0,1-.416.442c4.417,6,5.135,12.256,1.24,18.724a15.089,15.089,0,0,1-13.13,7.118c0-.615-.033-1.241.027-1.859.012-.127.366-.307.569-.316a12.431,12.431,0,0,0,5.734-1.587,13.043,13.043,0,0,0,6.988-12.131,12.6,12.6,0,0,0-2.884-7.884c-.078-.1-.166-.189-.212-.242l-2.3,2.3c2.631,3.745,2.976,7.732.427,11.728a9.7,9.7,0,0,1-8.305,4.5v-2.2c3.618-.337,6.267-2.008,7.407-5.589a7.658,7.658,0,0,0-1.2-6.953c-.782.786-1.528,1.509-2.231,2.272-.1.108-.054.437.029.615A4.425,4.425,0,0,1,220.28,23.4c-.085,0-.171,0-.312,0V21.265c1.38-.244,2.474-1.268,2-2.853l-1.134,1.438-1.71-1.765,1.443-1.068c-1.272-.655-2.355.146-2.953,1.923h-2.071a4.36,4.36,0,0,1,6.526-3.844l2.437-2.435a7.714,7.714,0,0,0-7.228-1.033c-3.051,1.063-4.647,3.317-5.194,7.28h-2.189a9.647,9.647,0,0,1,4.428-8.2c3.973-2.628,7.965-2.256,11.793.356l2.426-2.442a13.495,13.495,0,0,0-22.027,10.291h-2.227c.223-5.6,2.511-10.057,7.25-13.122a15.853,15.853,0,0,1,18.641,1.318c.637-.628,1.288-1.257,1.917-1.907a.691.691,0,0,0,.083-.431c0-1.59-.006-3.181-.011-4.771Z" transform="translate(-177.524)" fill="#12263f"/>
        <path id="Trazado_228408" data-name="Trazado 228408" d="M49.158,0a3.422,3.422,0,0,1,2.525,2.307,5.543,5.543,0,0,1,.187,1.416q.017,11.892.006,23.784c0,2.433-1.326,3.737-3.776,3.739q-5.129,0-10.257,0c-2.533,0-3.835-1.293-3.835-3.812q0-11.631,0-23.261c0-2.466.5-3.229,2.731-4.172ZM36.286,24.518H49.6V6.72H36.286ZM36.251,4.411H49.634c0-.387.028-.734-.006-1.074a1.063,1.063,0,0,0-1.2-1.1q-5.49-.02-10.98,0a1.064,1.064,0,0,0-1.192,1.11c-.032.34-.006.686-.006,1.065m.059,22.4c-.248,1.774.12,2.209,1.8,2.209h9.866c1.481,0,1.995-.724,1.551-2.209Z" transform="translate(-29.552)" fill="#12263f"/>
        <path id="Trazado_228409" data-name="Trazado 228409" d="M447.758,200.488a10.174,10.174,0,0,1-1.125,1.86,3.788,3.788,0,0,1-3.279.858V201c.212,0,.442,0,.671,0,1.139-.01,1.494-.357,1.5-1.478.006-1.067,0-2.133,0-3.2V178.652h2.232Z" transform="translate(-385.27 -155.247)" fill="#12263f"/>
        <path id="Trazado_228410" data-name="Trazado 228410" d="M156.077,275.592c0,1.432,0,2.847,0,4.261,0,1.939.025,3.879-.015,5.818a3.326,3.326,0,0,1-6.65,0c-.04-3.116-.014-6.232-.016-9.348,0-.235,0-.469,0-.795-1.494.1-2.9-.144-4.333.473q-9.706,4.187-19.485,8.2a5.853,5.853,0,0,1-4.457-.122,2.94,2.94,0,0,1-1.8-2.6,8.964,8.964,0,0,1-.042-.913q0-10.623.007-21.246a5.981,5.981,0,0,1,.205-1.673,3.189,3.189,0,0,1,2.957-2.191,10.481,10.481,0,0,1,4.4.612c6.22,2.364,12.476,4.636,18.726,6.921a4.629,4.629,0,0,0,1.522.262c2.876.025,5.752.007,8.628.013,2.411.005,3.707,1.306,3.718,3.721.006,1.438,0,2.876,0,4.315,0,2.758-.665,3.625-3.364,4.293m-30.074,6c.18-.056.326-.087.46-.144q9.012-3.813,18.026-7.621a.665.665,0,0,0,.459-.737c-.014-2.4-.029-4.793.008-7.189a.893.893,0,0,0-.7-1.022q-8.818-3.233-17.619-6.515c-.2-.072-.4-.132-.636-.211Zm21.2-8.343a2.7,2.7,0,0,0,.31.042c2.788,0,5.577.014,8.365,0,.97-.006,1.323-.384,1.332-1.373q.023-2.516,0-5.033c-.009-1.047-.37-1.386-1.44-1.387q-4.019-.006-8.039,0c-.168,0-.335.019-.529.031ZM123.686,282.2V257.669h-.639c-1.217,0-1.537.317-1.537,1.554q0,10.717,0,21.435c0,.174.008.348.018.522a.974.974,0,0,0,.922,1.006,10.662,10.662,0,0,0,1.237.009m27.936-6.644v.762q0,4.081,0,8.161a4.286,4.286,0,0,0,.044,1.232,1.1,1.1,0,0,0,1.8.666,1.483,1.483,0,0,0,.37-1.043c.028-3.09.017-6.181.014-9.271,0-.165-.031-.33-.049-.507Z" transform="translate(-103.646 -221.969)" fill="#12263f"/>
        <path id="Trazado_228411" data-name="Trazado 228411" d="M217.89,162.48v13.213a12.16,12.16,0,0,1-13.281-13.213Zm-2.236,2.185h-8.708c.29,4.886,4.719,8.709,8.708,8.794Z" transform="translate(-177.763 -141.193)" fill="#12263f"/>
        <path id="Trazado_228412" data-name="Trazado 228412" d="M6.657,201.383v2.284a40.4,40.4,0,0,1-4.216-.224,3.031,3.031,0,0,1-2.4-2.764A7.136,7.136,0,0,1,0,199.765q0-9.963,0-19.927v-.748H2.228v.734q0,9.931,0,19.861c0,1.4.291,1.7,1.675,1.7H6.657" transform="translate(0 -155.627)" fill="#12263f"/>
        <rect id="Rectángulo_57658" data-name="Rectángulo 57658" width="6.616" height="2.147" transform="translate(24.591 3.401)" fill="#12263f"/>
        <path id="Trazado_228413" data-name="Trazado 228413" d="M77.332,405.674l-3.115,3.113-1.378-1.433,3.125-3.134,1.367,1.454" transform="translate(-63.296 -351.263)" fill="#12263f"/>
        <path id="Trazado_228414" data-name="Trazado 228414" d="M72.877,275.653l3.268,3.272-1.5,1.32-3.211-3.15,1.445-1.441" transform="translate(-62.074 -239.54)" fill="#12263f"/>
        <rect id="Rectángulo_57659" data-name="Rectángulo 57659" width="4.398" height="2.114" transform="translate(8.956 45.792)" fill="#12263f"/>
        <path id="Trazado_228415" data-name="Trazado 228415" d="M77.038,67.571l8.429,6.768-8.429,6.77Zm2.245,4.7v4.143l2.612-2.071-2.612-2.072" transform="translate(-66.945 -58.719)" fill="#12263f"/>
      </g>
    </g>
  </g>
</svg>
