<svg id="Grupo_177456" data-name="Grupo 177456" xmlns="http://www.w3.org/2000/svg" xmlns:xlink="http://www.w3.org/1999/xlink" width="246.04" height="249.586" viewBox="0 0 246.04 249.586">
  <defs>
    <clipPath id="clip-path">
      <rect id="Rectángulo_57136" data-name="Rectángulo 57136" width="246.04" height="249.587" fill="none"/>
    </clipPath>
    <clipPath id="clip-path-3">
      <rect id="Rectángulo_57100" data-name="Rectángulo 57100" width="22.401" height="19.043" fill="none"/>
    </clipPath>
    <clipPath id="clip-path-6">
      <rect id="Rectángulo_57105" data-name="Rectángulo 57105" width="33.236" height="2.163" fill="none"/>
    </clipPath>
    <clipPath id="clip-path-7">
      <rect id="Rectángulo_57106" data-name="Rectángulo 57106" width="10.896" height="10.896" fill="none"/>
    </clipPath>
    <linearGradient id="linear-gradient" x1="0.5" x2="0.5" y2="1" gradientUnits="objectBoundingBox">
      <stop offset="0" stop-color="#fdbe41"/>
      <stop offset="1" stop-color="#d09f40"/>
    </linearGradient>
    <clipPath id="clip-path-9">
      <rect id="Rectángulo_57108" data-name="Rectángulo 57108" width="15.138" height="24.453" fill="none"/>
    </clipPath>
    <linearGradient id="linear-gradient-3" x1="0.5" x2="0.5" y2="1" gradientUnits="objectBoundingBox">
      <stop offset="0" stop-color="#a5884e"/>
      <stop offset="1" stop-color="#d09f40"/>
    </linearGradient>
    <clipPath id="clip-path-10">
      <rect id="Rectángulo_57113" data-name="Rectángulo 57113" width="38.776" height="1.298" fill="none"/>
    </clipPath>
    <clipPath id="clip-path-11">
      <rect id="Rectángulo_57115" data-name="Rectángulo 57115" width="38.775" height="1.297" fill="none"/>
    </clipPath>
    <clipPath id="clip-path-12">
      <rect id="Rectángulo_57117" data-name="Rectángulo 57117" width="38.776" height="1.297" fill="none"/>
    </clipPath>
    <clipPath id="clip-path-13">
      <rect id="Rectángulo_57119" data-name="Rectángulo 57119" width="38.776" height="1.657" fill="none"/>
    </clipPath>
    <clipPath id="clip-path-14">
      <rect id="Rectángulo_57121" data-name="Rectángulo 57121" width="38.776" height="1.875" fill="none"/>
    </clipPath>
    <clipPath id="clip-path-16">
      <rect id="Rectángulo_57124" data-name="Rectángulo 57124" width="16.069" height="17.048" fill="none"/>
    </clipPath>
    <linearGradient id="linear-gradient-12" x1="0.5" x2="0.5" y2="1" gradientUnits="objectBoundingBox">
      <stop offset="0" stop-color="#7e53c5"/>
      <stop offset="1" stop-color="#080383"/>
    </linearGradient>
    <clipPath id="clip-path-18">
      <rect id="Rectángulo_57129" data-name="Rectángulo 57129" width="78.175" height="18.856" fill="none"/>
    </clipPath>
    <linearGradient id="linear-gradient-13" x1="0.5" x2="0.5" y2="1" gradientUnits="objectBoundingBox">
      <stop offset="0" stop-color="#278d7e"/>
      <stop offset="1" stop-color="#4fc1b1"/>
    </linearGradient>
    <linearGradient id="linear-gradient-14" x1="0.5" x2="0.5" y2="1" gradientUnits="objectBoundingBox">
      <stop offset="0" stop-color="#116eb9"/>
      <stop offset="1" stop-color="#1894f6"/>
    </linearGradient>
    <clipPath id="clip-path-21">
      <rect id="Rectángulo_57133" data-name="Rectángulo 57133" width="1.457" height="1.475" fill="none"/>
    </clipPath>
    <clipPath id="clip-path-22">
      <rect id="Rectángulo_57134" data-name="Rectángulo 57134" width="15.035" height="13.879" fill="none"/>
    </clipPath>
  </defs>
  <g id="Grupo_177455" data-name="Grupo 177455" clip-path="url(#clip-path)">
    <g id="Grupo_177385" data-name="Grupo 177385">
      <g id="Grupo_177384" data-name="Grupo 177384" clip-path="url(#clip-path)">
        <path id="Trazado_225918" data-name="Trazado 225918" d="M129.786,28.909A18.591,18.591,0,1,1,108.638,13.34a18.57,18.57,0,0,1,21.148,15.569" transform="translate(-42.461 -6.007)" fill="#f5f5f5"/>
        <path id="Trazado_225919" data-name="Trazado 225919" d="M129.143,33.291a14.167,14.167,0,1,1-16.116-11.866,14.151,14.151,0,0,1,16.116,11.866" transform="translate(-46.192 -9.729)" fill="#ebebeb"/>
        <path id="Trazado_225920" data-name="Trazado 225920" d="M128.854,32.4a8.35,8.35,0,0,1-.624-1.629,15.039,15.039,0,0,0-2.263-4.05,14.485,14.485,0,0,0-2.239-2.266,14.168,14.168,0,0,0-3.105-1.9,13.865,13.865,0,0,0-3.857-1.089,13.762,13.762,0,0,0-2.12-.112,13.834,13.834,0,0,0-4.288.784,13.846,13.846,0,0,0-1.943.856,13.856,13.856,0,0,0-3.222,2.384,14.182,14.182,0,0,0-2.232,2.874,14.512,14.512,0,0,0-1.291,2.912,15.037,15.037,0,0,0-.681,4.588,8.274,8.274,0,0,1-.007,1.744,4.162,4.162,0,0,1-.415-1.719,13.1,13.1,0,0,1,.365-4.824,14.182,14.182,0,0,1,3.548-6.275,13.678,13.678,0,0,1,1.578-1.408,13.9,13.9,0,0,1,1.849-1.208,14.415,14.415,0,0,1,2.09-.939,14.5,14.5,0,0,1,4.626-.846,14.467,14.467,0,0,1,2.287.138,14.451,14.451,0,0,1,4.132,1.233,14.2,14.2,0,0,1,5.542,4.612,13.128,13.128,0,0,1,2.051,4.383,4.153,4.153,0,0,1,.221,1.755" transform="translate(-45.972 -9.275)" fill="#e0e0e0"/>
        <path id="Trazado_225921" data-name="Trazado 225921" d="M124.608,47.107l.4,2.435-2.174.359-.392-2.369a10.445,10.445,0,0,1-5.7-.843l.756-2.85a8.9,8.9,0,0,0,4.473.845l-.6-3.63c-2.51-.187-5.338-.545-5.852-3.654-.381-2.3.965-4.559,4.335-5.519l-.4-2.414,2.174-.36.392,2.37a9.959,9.959,0,0,1,4.631.6l-.643,2.854a9.039,9.039,0,0,0-3.514-.58l.612,3.7c2.506.165,5.292.531,5.8,3.6.374,2.261-.954,4.491-4.3,5.468m-3.764-9.249-.512-3.086c-1.108.451-1.46,1.158-1.342,1.875.126.761.847,1.066,1.854,1.211m4.606,4.62c-.126-.761-.825-1.069-1.814-1.241l.5,3c1.048-.419,1.432-1.063,1.317-1.759" transform="translate(-52.822 -13.317)" fill="#e0e0e0"/>
        <path id="Trazado_225922" data-name="Trazado 225922" d="M347.277,219.943a11.409,11.409,0,1,1-12.978-9.555,11.4,11.4,0,0,1,12.978,9.555" transform="translate(-148.498 -96.193)" fill="#f5f5f5"/>
        <path id="Trazado_225923" data-name="Trazado 225923" d="M346.882,222.632a8.694,8.694,0,1,1-9.89-7.281,8.684,8.684,0,0,1,9.89,7.281" transform="translate(-150.787 -98.478)" fill="#ebebeb"/>
        <path id="Trazado_225924" data-name="Trazado 225924" d="M346.7,222.085a5.11,5.11,0,0,1-.383-1,9.239,9.239,0,0,0-1.389-2.485,8.925,8.925,0,0,0-1.374-1.391,8.715,8.715,0,0,0-1.906-1.164,8.521,8.521,0,0,0-2.367-.668,8.381,8.381,0,0,0-1.3-.069,8.486,8.486,0,0,0-2.632.481,8.48,8.48,0,0,0-1.192.525,8.155,8.155,0,0,0-1.062.675,8.035,8.035,0,0,0-.915.788,8.706,8.706,0,0,0-1.37,1.764,8.912,8.912,0,0,0-.792,1.788,9.213,9.213,0,0,0-.418,2.816,5.037,5.037,0,0,1,0,1.07,2.55,2.55,0,0,1-.254-1.055,8.031,8.031,0,0,1,.224-2.96,8.706,8.706,0,0,1,2.178-3.851,8.313,8.313,0,0,1,.968-.864,8.488,8.488,0,0,1,1.135-.742,8.841,8.841,0,0,1,1.282-.576,8.926,8.926,0,0,1,2.839-.52,8.883,8.883,0,0,1,1.4.085,8.849,8.849,0,0,1,2.536.757,8.707,8.707,0,0,1,3.4,2.83,8.045,8.045,0,0,1,1.259,2.689,2.551,2.551,0,0,1,.136,1.077" transform="translate(-150.652 -98.199)" fill="#e0e0e0"/>
        <path id="Trazado_225925" data-name="Trazado 225925" d="M344.1,231.111l.247,1.494-1.334.22-.24-1.454a6.415,6.415,0,0,1-3.5-.517l.464-1.749a5.47,5.47,0,0,0,2.745.519l-.369-2.228c-1.54-.114-3.276-.335-3.592-2.242-.234-1.414.592-2.8,2.66-3.387l-.245-1.482,1.334-.221.241,1.454a6.111,6.111,0,0,1,2.842.366l-.395,1.751a5.548,5.548,0,0,0-2.156-.356l.375,2.268c1.538.1,3.247.327,3.559,2.207.229,1.388-.586,2.756-2.638,3.356m-2.31-5.676-.314-1.894c-.68.277-.9.71-.824,1.151.078.467.52.654,1.138.743m2.827,2.836c-.078-.467-.506-.656-1.113-.762l.3,1.841c.643-.257.879-.652.808-1.079" transform="translate(-154.856 -100.68)" fill="#e0e0e0"/>
        <path id="Trazado_225926" data-name="Trazado 225926" d="M43.362,237.558A15.478,15.478,0,1,1,25.755,224.6a15.461,15.461,0,0,1,17.607,12.963" transform="translate(-5.754 -102.672)" fill="#f5f5f5"/>
        <path id="Trazado_225927" data-name="Trazado 225927" d="M42.826,241.206a11.8,11.8,0,1,1-13.418-9.879,11.782,11.782,0,0,1,13.418,9.879" transform="translate(-8.86 -105.771)" fill="#ebebeb"/>
        <path id="Trazado_225928" data-name="Trazado 225928" d="M42.585,240.463a6.982,6.982,0,0,1-.52-1.356,12.529,12.529,0,0,0-1.884-3.372,12.068,12.068,0,0,0-1.864-1.886,11.808,11.808,0,0,0-2.586-1.58,11.576,11.576,0,0,0-3.212-.906,11.423,11.423,0,0,0-1.764-.094,11.521,11.521,0,0,0-3.571.653,11.568,11.568,0,0,0-1.618.712,11.569,11.569,0,0,0-2.683,1.985,11.791,11.791,0,0,0-1.858,2.393,12.091,12.091,0,0,0-1.075,2.424,12.524,12.524,0,0,0-.567,3.82,6.873,6.873,0,0,1-.005,1.452,3.467,3.467,0,0,1-.346-1.431,10.9,10.9,0,0,1,.3-4.017,11.819,11.819,0,0,1,2.954-5.225,11.371,11.371,0,0,1,1.314-1.172,11.573,11.573,0,0,1,1.54-1.006,11.986,11.986,0,0,1,1.74-.782,12.085,12.085,0,0,1,3.851-.7,12.065,12.065,0,0,1,1.9.115,12.007,12.007,0,0,1,3.44,1.027,11.815,11.815,0,0,1,4.613,3.84A10.915,10.915,0,0,1,42.4,239a3.462,3.462,0,0,1,.184,1.461" transform="translate(-8.677 -105.393)" fill="#e0e0e0"/>
        <path id="Trazado_225929" data-name="Trazado 225929" d="M39.05,252.709l.336,2.027-1.81.3-.327-1.973a8.7,8.7,0,0,1-4.746-.7l.629-2.373a7.413,7.413,0,0,0,3.724.7l-.5-3.023c-2.09-.156-4.445-.454-4.873-3.042-.317-1.918.8-3.8,3.609-4.594l-.333-2.009,1.81-.3L36.9,239.7a8.288,8.288,0,0,1,3.856.5l-.536,2.376a7.525,7.525,0,0,0-2.925-.483l.51,3.078c2.086.137,4.406.442,4.828,2.994.311,1.882-.794,3.739-3.579,4.553m-3.133-7.7-.426-2.57c-.923.376-1.216.964-1.118,1.561.105.633.7.888,1.543,1.008m3.835,3.847c-.105-.634-.687-.89-1.51-1.033l.413,2.5c.872-.349,1.192-.885,1.1-1.464" transform="translate(-14.38 -108.759)" fill="#e0e0e0"/>
        <path id="Trazado_225930" data-name="Trazado 225930" d="M323.207,96.809l-94.516-29.42a4.6,4.6,0,0,1-3.028-5.765L243.837,3.237A4.6,4.6,0,0,1,249.6.21l94.517,29.421a4.6,4.6,0,0,1,3.028,5.765L328.973,93.781a4.606,4.606,0,0,1-5.766,3.028" transform="translate(-103.145 0)" fill="#e0e0e0"/>
        <path id="Trazado_225931" data-name="Trazado 225931" d="M252.065,81.834,250.28,87.57l-.59-.184,1.622-5.21-1.351-.421.164-.524Z" transform="translate(-114.233 -37.163)" fill="#fff"/>
        <path id="Trazado_225932" data-name="Trazado 225932" d="M258.419,90.192l-.163.525-4.023-1.252.13-.418,3.111-1.593c.846-.437,1.089-.784,1.211-1.177.207-.664-.133-1.219-1.009-1.491a2.043,2.043,0,0,0-1.765.151l-.3-.49a2.7,2.7,0,0,1,2.287-.187c1.164.362,1.718,1.182,1.419,2.14-.17.548-.5.987-1.5,1.5l-2.547,1.31Z" transform="translate(-116.312 -38.474)" fill="#fff"/>
        <path id="Trazado_225933" data-name="Trazado 225933" d="M269.449,92.912l-1.147-.357-.469,1.508-.59-.184.469-1.508-3.236-1.007.133-.426,4.223-2.856.655.2-4.086,2.79,2.491.776.413-1.328.573.178-.413,1.327,1.147.357Z" transform="translate(-120.998 -40.298)" fill="#fff"/>
        <path id="Trazado_225934" data-name="Trazado 225934" d="M285.65,97.955,284.5,97.6l-.469,1.508-.59-.183.469-1.508-3.236-1.007.132-.426,4.223-2.856.655.2-4.086,2.79,2.491.775.413-1.327.574.178-.413,1.327,1.147.357Z" transform="translate(-128.41 -42.605)" fill="#fff"/>
        <path id="Trazado_225935" data-name="Trazado 225935" d="M295.435,100.254c-.3.975-1.221,1.525-2.621,1.089a3.1,3.1,0,0,1-1.827-1.378l.432-.378a2.6,2.6,0,0,0,1.555,1.212c.975.3,1.639-.011,1.856-.708.229-.737-.087-1.338-1.545-1.792l-1.221-.38,1.19-2.784,3.138.977-.163.525-2.622-.816-.765,1.766.737.229c1.728.538,2.173,1.422,1.856,2.438" transform="translate(-133.126 -43.525)" fill="#fff"/>
        <path id="Trazado_225936" data-name="Trazado 225936" d="M306.116,103.775a1.871,1.871,0,0,1-2.507,1.152c-1.523-.474-2.022-1.789-1.459-3.6.608-1.95,1.988-2.634,3.545-2.149a2.754,2.754,0,0,1,1.263.735l-.386.4a2.1,2.1,0,0,0-1.029-.616c-1.237-.385-2.28.162-2.764,1.719-.041.131-.084.3-.12.474a1.919,1.919,0,0,1,2.059-.437,1.818,1.818,0,0,1,1.4,2.322m-.588-.165a1.319,1.319,0,0,0-1.057-1.686,1.323,1.323,0,1,0-.731,2.495,1.313,1.313,0,0,0,1.788-.809" transform="translate(-138.131 -45.305)" fill="#fff"/>
        <path id="Trazado_225937" data-name="Trazado 225937" d="M320.328,107.928c-.3.959-1.223,1.479-2.608,1.049a3.121,3.121,0,0,1-1.835-1.381l.431-.377a2.632,2.632,0,0,0,1.572,1.216c.95.3,1.613.017,1.834-.7.214-.688-.129-1.289-1.193-1.62l-.41-.127.135-.435,2.21-1.5-2.933-.913.163-.525,3.686,1.147-.13.418-2.257,1.535c1.209.449,1.622,1.287,1.336,2.2" transform="translate(-144.517 -46.95)" fill="#fff"/>
        <path id="Trazado_225938" data-name="Trazado 225938" d="M331.179,111.577a1.87,1.87,0,0,1-2.505,1.152c-1.524-.475-2.023-1.789-1.459-3.6.607-1.949,1.988-2.634,3.544-2.149a2.758,2.758,0,0,1,1.263.735l-.386.4a2.1,2.1,0,0,0-1.03-.617c-1.237-.385-2.279.162-2.763,1.719-.041.131-.084.3-.121.474a1.919,1.919,0,0,1,2.059-.437,1.817,1.817,0,0,1,1.4,2.322m-.586-.165a1.319,1.319,0,0,0-1.057-1.686,1.323,1.323,0,1,0-.732,2.495,1.314,1.314,0,0,0,1.789-.809" transform="translate(-149.598 -48.875)" fill="#fff"/>
        <path id="Trazado_225939" data-name="Trazado 225939" d="M342.676,110.086l-.13.418-4.055,4.57-.64-.2,3.981-4.476-2.95-.918-.334,1.073-.581-.181.5-1.6Z" transform="translate(-154.567 -49.765)" fill="#fff"/>
        <path id="Trazado_225940" data-name="Trazado 225940" d="M357.789,114.79l-.13.418-4.055,4.569-.639-.2,3.981-4.476-2.95-.918-.334,1.073-.581-.181.5-1.6Z" transform="translate(-161.481 -51.917)" fill="#fff"/>
        <path id="Trazado_225941" data-name="Trazado 225941" d="M366.074,122.517c-.316,1.016-1.372,1.379-2.74.953s-2.016-1.319-1.7-2.335a1.5,1.5,0,0,1,1.545-1.065,1.356,1.356,0,0,1-.508-1.542c.291-.934,1.267-1.269,2.479-.891s1.842,1.212,1.552,2.146a1.36,1.36,0,0,1-1.31.976,1.513,1.513,0,0,1,.682,1.759m-.6-.2c.219-.7-.25-1.336-1.266-1.652s-1.752-.06-1.971.645.239,1.342,1.255,1.657,1.76.063,1.982-.65m-1.121-2.119c.893.278,1.55.042,1.744-.58.2-.647-.241-1.216-1.1-1.484s-1.54-.048-1.738.591.2,1.2,1.1,1.473" transform="translate(-165.411 -53.749)" fill="#fff"/>
        <path id="Trazado_225942" data-name="Trazado 225942" d="M376.856,124.389c-.607,1.95-1.989,2.634-3.544,2.15a2.758,2.758,0,0,1-1.263-.735l.385-.4a2.115,2.115,0,0,0,1.031.616c1.237.385,2.28-.162,2.763-1.719.041-.131.084-.3.121-.474a1.92,1.92,0,0,1-2.06.437,1.817,1.817,0,0,1-1.4-2.322,1.871,1.871,0,0,1,2.505-1.152c1.524.475,2.023,1.789,1.459,3.6M376.4,123a1.394,1.394,0,0,0-1.132-1.7,1.312,1.312,0,1,0-.732,2.495A1.39,1.39,0,0,0,376.4,123" transform="translate(-170.212 -55.207)" fill="#fff"/>
        <path id="Trazado_225943" data-name="Trazado 225943" d="M391.244,125.157l-1.785,5.735-.59-.183,1.622-5.211-1.352-.42.164-.525Z" transform="translate(-177.907 -56.983)" fill="#fff"/>
        <path id="Trazado_225944" data-name="Trazado 225944" d="M397.6,133.514l-.163.525-4.023-1.252.13-.418,3.111-1.593c.846-.437,1.089-.784,1.211-1.178.207-.663-.133-1.218-1.01-1.491a2.037,2.037,0,0,0-1.764.152l-.306-.491a2.7,2.7,0,0,1,2.287-.187c1.163.362,1.717,1.182,1.419,2.14-.171.548-.5.987-1.5,1.5l-2.547,1.31Z" transform="translate(-179.986 -58.293)" fill="#fff"/>
        <path id="Trazado_225945" data-name="Trazado 225945" d="M407.507,135.065c-.3.959-1.224,1.479-2.609,1.048a3.12,3.12,0,0,1-1.834-1.38l.431-.377a2.63,2.63,0,0,0,1.571,1.216c.95.3,1.613.017,1.834-.7.214-.688-.129-1.289-1.193-1.62l-.41-.127.135-.435,2.209-1.5-2.933-.913.164-.525,3.687,1.148-.13.418-2.257,1.535c1.209.449,1.621,1.287,1.336,2.2" transform="translate(-184.402 -59.365)" fill="#fff"/>
        <rect id="Rectángulo_57098" data-name="Rectángulo 57098" width="2.608" height="48.11" transform="translate(176.456 70.369) rotate(-72.707)" fill="#fff"/>
        <rect id="Rectángulo_57099" data-name="Rectángulo 57099" width="2.609" height="24.675" transform="translate(197.284 82.308) rotate(-72.707)" fill="#fff"/>
        <g id="Grupo_177383" data-name="Grupo 177383" transform="translate(136.551 24.917)" opacity="0.5">
          <g id="Grupo_177382" data-name="Grupo 177382">
            <g id="Grupo_177381" data-name="Grupo 177381" clip-path="url(#clip-path-3)">
              <path id="Trazado_225946" data-name="Trazado 225946" d="M267.732,64.851l-14.133-4.4a2.693,2.693,0,0,1-1.771-3.372l2.882-9.257a2.693,2.693,0,0,1,3.371-1.771l14.132,4.4a2.693,2.693,0,0,1,1.771,3.371L271.1,63.08a2.693,2.693,0,0,1-3.372,1.771" transform="translate(-251.706 -45.93)" fill="#ebebeb"/>
            </g>
          </g>
        </g>
        <path id="Trazado_225947" data-name="Trazado 225947" d="M252.743,58.813l.289-.923,9.923,3.09a2.175,2.175,0,1,0,1.293-4.154l-9.924-3.09.288-.924,9.923,3.09a3.143,3.143,0,1,1-1.868,6Z" transform="translate(-115.63 -24.161)" fill="#e0e0e0"/>
        <rect id="Rectángulo_57101" data-name="Rectángulo 57101" width="0.968" height="7.134" transform="translate(150.368 35.988) rotate(-72.643)" fill="#e0e0e0"/>
        <rect id="Rectángulo_57102" data-name="Rectángulo 57102" width="4.456" height="51.916" transform="matrix(0.297, -0.955, 0.955, 0.297, 144.995, 17.354)" fill="#fff"/>
        <path id="Trazado_225948" data-name="Trazado 225948" d="M412.775,74.91l-6.715-2.09a1.709,1.709,0,0,1-1.124-2.139l2.091-6.715a1.708,1.708,0,0,1,2.139-1.124l6.715,2.09A1.709,1.709,0,0,1,417,67.072l-2.09,6.715a1.708,1.708,0,0,1-2.139,1.124" transform="translate(-185.223 -28.715)" fill="#fff"/>
      </g>
    </g>
    <g id="Grupo_177387" data-name="Grupo 177387">
      <g id="Grupo_177386" data-name="Grupo 177386" clip-path="url(#clip-path)">
        <path id="Trazado_225949" data-name="Trazado 225949" d="M246.04,443.139c0,.078-55.082.141-123.014.141C55.07,443.28,0,443.217,0,443.139S55.07,443,123.026,443c67.931,0,123.014.063,123.014.141" transform="translate(0 -202.671)" fill="#263238"/>
      </g>
    </g>
    <g id="Grupo_177395" data-name="Grupo 177395">
      <g id="Grupo_177394" data-name="Grupo 177394" clip-path="url(#clip-path)">
        <path id="Trazado_225950" data-name="Trazado 225950" d="M93.812,380.172H18a4.75,4.75,0,0,1-4.75-4.75v-65.27A4.75,4.75,0,0,1,18,305.4H93.812a4.75,4.75,0,0,1,4.75,4.75v65.27a4.75,4.75,0,0,1-4.75,4.75" transform="translate(-6.064 -139.721)" fill="#455a64"/>
        <g id="Grupo_177390" data-name="Grupo 177390" transform="translate(7.19 212.549)" opacity="0.3">
          <g id="Grupo_177389" data-name="Grupo 177389">
            <g id="Grupo_177388" data-name="Grupo 177388" clip-path="url(#clip-path-6)">
              <path id="Trazado_225951" data-name="Trazado 225951" d="M13.254,393.958H44.328A2.163,2.163,0,0,0,46.49,391.8H13.341Z" transform="translate(-13.254 -391.796)"/>
            </g>
          </g>
        </g>
        <path id="Trazado_225952" data-name="Trazado 225952" d="M43.138,375.925H11.747a2.7,2.7,0,0,1-2.7-2.7V359.225a2.7,2.7,0,0,1,2.7-2.7H43.138a2.7,2.7,0,0,1,2.7,2.7V373.22a2.705,2.705,0,0,1-2.7,2.7" transform="translate(-4.137 -163.108)" fill="#455a64"/>
        <path id="Trazado_225953" data-name="Trazado 225953" d="M43.019,375.806a3.243,3.243,0,0,0,1.054-.245,2.751,2.751,0,0,0,1.024-.8,2.683,2.683,0,0,0,.571-1.65c-.01-2.739-.026-6.681-.044-11.547q0-.915,0-1.872a7.871,7.871,0,0,0-.03-.951,2.584,2.584,0,0,0-1.772-2.1,2.968,2.968,0,0,0-1-.124l-1.065,0-9.152.013-20.971.011a2.571,2.571,0,0,0-2.191,1.234,2.5,2.5,0,0,0-.371,1.231c-.01.445,0,.908-.005,1.358q0,2.717,0,5.351t0,5.164c.005.838-.016,1.693.012,2.49a2.581,2.581,0,0,0,2.258,2.288c.368.036.783.012,1.17.02l2.324,0,4.443.007,7.974.017,11.547.045,3.139.027.816.014c.184,0,.278.015.278.015s-.094.01-.278.015l-.816.014-3.139.027-11.547.045-7.974.017-4.443.007-2.324,0c-.4-.008-.776.02-1.2-.02A2.84,2.84,0,0,1,8.806,373.4c-.032-.852-.01-1.668-.018-2.517q0-2.531,0-5.164t0-5.351c0-.455-.005-.9,0-1.369a2.79,2.79,0,0,1,.411-1.368,2.856,2.856,0,0,1,2.432-1.369l20.971.011,9.152.013,1.065,0a3.185,3.185,0,0,1,1.068.139,2.815,2.815,0,0,1,1.594,1.319,2.784,2.784,0,0,1,.32.97,7.909,7.909,0,0,1,.028.98q0,.957,0,1.872c-.02,4.866-.035,8.809-.046,11.548a2.74,2.74,0,0,1-1.683,2.5,2.8,2.8,0,0,1-.8.193c-.185,0-.279,0-.279,0" transform="translate(-4.018 -162.989)" fill="#263238"/>
        <g id="Grupo_177393" data-name="Grupo 177393" transform="translate(27.187 199.769)" opacity="0.3">
          <g id="Grupo_177392" data-name="Grupo 177392">
            <g id="Grupo_177391" data-name="Grupo 177391" clip-path="url(#clip-path-7)">
              <path id="Trazado_225954" data-name="Trazado 225954" d="M61.011,373.686a5.448,5.448,0,1,1-5.448-5.448,5.448,5.448,0,0,1,5.448,5.448" transform="translate(-50.115 -368.238)"/>
            </g>
          </g>
        </g>
        <path id="Trazado_225955" data-name="Trazado 225955" d="M61.011,370.19a5.448,5.448,0,1,1-5.448-5.448,5.448,5.448,0,0,1,5.448,5.448" transform="translate(-22.928 -166.869)" fill="#ebebeb"/>
        <path id="Trazado_225956" data-name="Trazado 225956" d="M60.892,370.092a12.239,12.239,0,0,0-.224-1.317,5.43,5.43,0,0,0-1.989-2.934,5.332,5.332,0,0,0-5.047-.743,5.336,5.336,0,0,0-2.465,1.856,5.293,5.293,0,0,0,0,6.276,5.33,5.33,0,0,0,2.465,1.856,5.333,5.333,0,0,0,5.047-.743,5.432,5.432,0,0,0,1.988-2.934,12.241,12.241,0,0,0,.224-1.317,4.178,4.178,0,0,1-.117,1.343A5.42,5.42,0,0,1,58.8,374.5a5.485,5.485,0,0,1-2.33,1.057,5.57,5.57,0,0,1-2.927-.227,5.569,5.569,0,0,1-2.6-1.938,5.546,5.546,0,0,1,0-6.6,5.569,5.569,0,0,1,2.6-1.937,5.564,5.564,0,0,1,2.927-.228,5.488,5.488,0,0,1,2.329,1.057,5.422,5.422,0,0,1,1.974,3.066,4.181,4.181,0,0,1,.117,1.344" transform="translate(-22.809 -166.771)" fill="#263238"/>
      </g>
    </g>
    <g id="Grupo_177439" data-name="Grupo 177439">
      <g id="Grupo_177438" data-name="Grupo 177438" clip-path="url(#clip-path)">
        <path id="Trazado_225957" data-name="Trazado 225957" d="M382.437,301.375A18.922,18.922,0,1,1,357.984,290.5a18.923,18.923,0,0,1,24.453,10.871" transform="translate(-158.225 -132.326)" fill="url(#linear-gradient)"/>
        <g id="Grupo_177398" data-name="Grupo 177398" transform="translate(187.622 158.177)" opacity="0.1">
          <g id="Grupo_177397" data-name="Grupo 177397">
            <g id="Grupo_177396" data-name="Grupo 177396" clip-path="url(#clip-path-9)">
              <path id="Trazado_225958" data-name="Trazado 225958" d="M357.984,291.571a18.922,18.922,0,0,0-10.871,24.453s12.625-4.216,13.688-10.362-2.817-14.09-2.817-14.09" transform="translate(-345.847 -291.571)" fill="#fff"/>
            </g>
          </g>
        </g>
        <path id="Trazado_225959" data-name="Trazado 225959" d="M381.315,306.513a14.385,14.385,0,1,1-18.589-8.264,14.385,14.385,0,0,1,18.589,8.264" transform="translate(-161.726 -136.009)" fill="#12263f"/>
        <path id="Trazado_225961" data-name="Trazado 225961" d="M382.725,307.381a14.192,14.192,0,1,1-18.339-8.153,14.192,14.192,0,0,1,18.339,8.153" transform="translate(-162.542 -136.462)" fill="url(#linear-gradient)"/>
        <path id="Trazado_225963" data-name="Trazado 225963" d="M376.435,315.787l-1.3-3.389.016-.006a7.432,7.432,0,0,1,1.982-.223,6.091,6.091,0,0,1,1.049.208l0-.122.054-1.421.012-.327-.848-.4-.24.242a6.8,6.8,0,0,0-2.728.235l-.717-1.864-.76-.244.18.468-.8.306.729,1.9c-2.523,1.259-3.19,3.231-2.532,4.944.9,2.334,3.128,2.17,5.166,1.906l1.291,3.359a6.919,6.919,0,0,1-3.849.015l-.1,1.986a7.878,7.878,0,0,0,4.65-.188l.541,1.407-.652.264.827.193,1.377-.529-.723-1.881c2.533-1.282,3.224-3.244,2.565-4.956-.9-2.334-3.155-2.141-5.193-1.877m-1.513.176c-1.084.09-1.948,0-2.258-.808-.284-.739-.013-1.537,1.109-2.18Zm.208-3.569h0m3.228,8.4-1.143-2.972c1.117-.1,2,0,2.32.823.278.721-.023,1.493-1.178,2.149" transform="translate(-169.412 -141.127)" fill="#12263f"/>
        <path id="Trazado_225965" data-name="Trazado 225965" d="M377.685,322.381l.724,1.881-1.377.529-.717-1.864a7.875,7.875,0,0,1-4.65.188l.1-1.986a6.911,6.911,0,0,0,3.85-.016l-1.292-3.359c-2.038.264-4.269.427-5.167-1.907-.659-1.713.009-3.685,2.532-4.944l-.73-1.9,1.377-.529.717,1.864a7.712,7.712,0,0,1,3.8-.286l-.037,1.961a7.443,7.443,0,0,0-3.069.139l1.3,3.392c2.039-.264,4.3-.457,5.194,1.877.659,1.713-.033,3.675-2.566,4.958m-4.14-6.658-1.15-2.989c-1.121.643-1.393,1.441-1.108,2.18.31.806,1.174.9,2.258.809m4.615,2.678c-.316-.823-1.2-.925-2.321-.823l1.142,2.972c1.155-.656,1.456-1.427,1.178-2.149" transform="translate(-168.782 -141.128)" fill="url(#linear-gradient-3)"/>
        <path id="Trazado_225966" data-name="Trazado 225966" d="M353.431,337.488a.768.768,0,0,1-.135-.1l-.369-.322a7.683,7.683,0,0,1-.562-.533c-.211-.216-.462-.453-.706-.745l-.393-.45c-.136-.157-.262-.333-.4-.508-.283-.347-.547-.747-.832-1.162a18.759,18.759,0,0,1-2.579-5.989c-.105-.492-.214-.958-.272-1.4-.032-.221-.072-.434-.093-.641s-.039-.4-.057-.595c-.045-.378-.044-.723-.058-1.025s-.01-.562,0-.775.015-.362.02-.489a.765.765,0,0,1,.016-.17.751.751,0,0,1,.012.17c0,.127,0,.289.007.489s0,.471.025.771.026.643.078,1.019q.031.282.066.59c.024.205.067.416.1.636.062.441.175.9.283,1.391a19.393,19.393,0,0,0,2.561,5.948c.281.414.539.813.816,1.161.136.176.26.352.392.51l.384.454c.238.3.482.535.686.756s.389.4.544.547l.35.341a.767.767,0,0,1,.116.126" transform="translate(-158.736 -147.579)" fill="#fff"/>
        <path id="Trazado_225967" data-name="Trazado 225967" d="M371.185,321.054a1.187,1.187,0,0,1-.539-.237,2.225,2.225,0,0,1-.876-2.546,1.191,1.191,0,0,1,.279-.519c.021.012-.1.2-.183.546a2.305,2.305,0,0,0,.838,2.437c.279.216.49.3.481.318" transform="translate(-169.12 -145.372)" fill="#fff"/>
        <path id="Trazado_225968" data-name="Trazado 225968" d="M373.988,311.3c-.036.014-.161-.222-.278-.527a1.3,1.3,0,0,1-.146-.577c.036-.014.161.222.278.527a1.3,1.3,0,0,1,.146.577" transform="translate(-170.901 -141.916)" fill="#fff"/>
        <path id="Trazado_225969" data-name="Trazado 225969" d="M364.852,297.563a2.847,2.847,0,0,1-.438.149c-.142.041-.316.094-.514.168s-.427.144-.671.249-.515.207-.8.344-.577.285-.888.447a14.838,14.838,0,0,0-3.6,2.766c-.237.258-.467.5-.661.743s-.379.468-.537.68-.292.411-.413.584-.218.326-.295.453a3.037,3.037,0,0,1-.257.385,2.854,2.854,0,0,1,.209-.413c.069-.132.16-.291.276-.468s.238-.386.4-.6.325-.455.527-.7.42-.5.656-.758a14.088,14.088,0,0,1,3.63-2.791c.315-.161.611-.318.9-.439s.558-.238.808-.331.481-.165.682-.231.378-.113.524-.146a2.907,2.907,0,0,1,.453-.1" transform="translate(-162.772 -136.134)" fill="#fff"/>
        <path id="Trazado_225970" data-name="Trazado 225970" d="M389.469,353.475a1.656,1.656,0,0,1-.282.207c-.186.127-.464.3-.818.488a13.671,13.671,0,0,1-6.023,1.631c-.4.012-.728.008-.953-.009a1.629,1.629,0,0,1-.347-.036,1.678,1.678,0,0,1,.348-.019c.224,0,.548-.011.947-.036a15.293,15.293,0,0,0,5.982-1.619c.356-.18.642-.334.835-.447a1.7,1.7,0,0,1,.311-.159" transform="translate(-174.328 -161.714)" fill="#fff"/>
        <rect id="Rectángulo_57112" data-name="Rectángulo 57112" width="40.06" height="8.078" transform="translate(188.152 193.535)" fill="url(#linear-gradient)"/>
        <path id="Trazado_225971" data-name="Trazado 225971" d="M415.773,357a44.272,44.272,0,0,0,0,7.833,44.133,44.133,0,0,0,0-7.833" transform="translate(-190.136 -163.326)" fill="#263238"/>
        <path id="Trazado_225972" data-name="Trazado 225972" d="M408.926,357a44.272,44.272,0,0,0,0,7.833,44.272,44.272,0,0,0,0-7.833" transform="translate(-187.004 -163.326)" fill="#263238"/>
        <path id="Trazado_225973" data-name="Trazado 225973" d="M402.158,357a44.133,44.133,0,0,0,0,7.833,44.272,44.272,0,0,0,0-7.833" transform="translate(-183.908 -163.326)" fill="#263238"/>
        <path id="Trazado_225974" data-name="Trazado 225974" d="M395.428,357a44.125,44.125,0,0,0,0,7.833,44.272,44.272,0,0,0,0-7.833" transform="translate(-180.829 -163.326)" fill="#263238"/>
        <path id="Trazado_225975" data-name="Trazado 225975" d="M388.7,357a44.256,44.256,0,0,0,0,7.833,44.412,44.412,0,0,0,0-7.833" transform="translate(-177.75 -163.326)" fill="#263238"/>
        <path id="Trazado_225976" data-name="Trazado 225976" d="M381.967,357a44.125,44.125,0,0,0,0,7.833,44.272,44.272,0,0,0,0-7.833" transform="translate(-174.67 -163.326)" fill="#263238"/>
        <path id="Trazado_225977" data-name="Trazado 225977" d="M375.238,357a44.264,44.264,0,0,0,0,7.833,44.272,44.272,0,0,0,0-7.833" transform="translate(-171.592 -163.326)" fill="#263238"/>
        <path id="Trazado_225978" data-name="Trazado 225978" d="M368.506,357a44.125,44.125,0,0,0,0,7.833,44.272,44.272,0,0,0,0-7.833" transform="translate(-168.512 -163.326)" fill="#263238"/>
        <path id="Trazado_225979" data-name="Trazado 225979" d="M361.776,357a44.133,44.133,0,0,0,0,7.833,44.264,44.264,0,0,0,0-7.833" transform="translate(-165.433 -163.326)" fill="#263238"/>
        <path id="Trazado_225980" data-name="Trazado 225980" d="M355.046,357a44.133,44.133,0,0,0,0,7.833,44.272,44.272,0,0,0,0-7.833" transform="translate(-162.354 -163.326)" fill="#263238"/>
        <path id="Trazado_225981" data-name="Trazado 225981" d="M348.316,357a44.264,44.264,0,0,0,0,7.833,44.272,44.272,0,0,0,0-7.833" transform="translate(-159.275 -163.326)" fill="#263238"/>
        <g id="Grupo_177410" data-name="Grupo 177410" transform="translate(188.792 193.544)" opacity="0.3">
          <g id="Grupo_177409" data-name="Grupo 177409">
            <g id="Grupo_177408" data-name="Grupo 177408" clip-path="url(#clip-path-10)">
              <path id="Trazado_225982" data-name="Trazado 225982" d="M386.779,356.763a146,146,0,0,1-38.776.008Z" transform="translate(-348.003 -356.763)"/>
            </g>
          </g>
        </g>
        <path id="Trazado_225983" data-name="Trazado 225983" d="M346.8,356.647c0,.1,8.953.174,19.994.174s20-.078,20-.174-8.951-.174-20-.174-19.994.078-19.994.174" transform="translate(-158.663 -163.086)" fill="#263238"/>
        <rect id="Rectángulo_57114" data-name="Rectángulo 57114" width="40.06" height="8.078" transform="translate(187.252 201.479)" fill="url(#linear-gradient)"/>
        <path id="Trazado_225984" data-name="Trazado 225984" d="M414.114,371.637a44.272,44.272,0,0,0,0,7.833,44.264,44.264,0,0,0,0-7.833" transform="translate(-189.377 -170.024)" fill="#263238"/>
        <path id="Trazado_225985" data-name="Trazado 225985" d="M407.268,371.637a44.272,44.272,0,0,0,0,7.833,44.133,44.133,0,0,0,0-7.833" transform="translate(-186.245 -170.024)" fill="#263238"/>
        <path id="Trazado_225986" data-name="Trazado 225986" d="M400.5,371.637a44.264,44.264,0,0,0,0,7.833,44.272,44.272,0,0,0,0-7.833" transform="translate(-183.149 -170.024)" fill="#263238"/>
        <path id="Trazado_225987" data-name="Trazado 225987" d="M393.77,371.637a43.994,43.994,0,0,0,0,7.833,44.4,44.4,0,0,0,0-7.833" transform="translate(-180.07 -170.024)" fill="#263238"/>
        <path id="Trazado_225988" data-name="Trazado 225988" d="M387.04,371.637a44.264,44.264,0,0,0,0,7.833,44.272,44.272,0,0,0,0-7.833" transform="translate(-176.991 -170.024)" fill="#263238"/>
        <path id="Trazado_225989" data-name="Trazado 225989" d="M380.31,371.637a44.272,44.272,0,0,0,0,7.833,44.264,44.264,0,0,0,0-7.833" transform="translate(-173.912 -170.024)" fill="#263238"/>
        <path id="Trazado_225990" data-name="Trazado 225990" d="M373.579,371.637a44.264,44.264,0,0,0,0,7.833,44.272,44.272,0,0,0,0-7.833" transform="translate(-170.833 -170.024)" fill="#263238"/>
        <path id="Trazado_225991" data-name="Trazado 225991" d="M366.848,371.637a44.133,44.133,0,0,0,0,7.833,44.272,44.272,0,0,0,0-7.833" transform="translate(-167.753 -170.024)" fill="#263238"/>
        <path id="Trazado_225992" data-name="Trazado 225992" d="M360.118,371.637a44.125,44.125,0,0,0,0,7.833,44.272,44.272,0,0,0,0-7.833" transform="translate(-164.674 -170.024)" fill="#263238"/>
        <path id="Trazado_225993" data-name="Trazado 225993" d="M353.388,371.637a44.272,44.272,0,0,0,0,7.833,44.264,44.264,0,0,0,0-7.833" transform="translate(-161.595 -170.024)" fill="#263238"/>
        <path id="Trazado_225994" data-name="Trazado 225994" d="M346.658,371.637a44.272,44.272,0,0,0,0,7.833,44.272,44.272,0,0,0,0-7.833" transform="translate(-158.516 -170.024)" fill="#263238"/>
        <g id="Grupo_177413" data-name="Grupo 177413" transform="translate(187.892 201.488)" opacity="0.3">
          <g id="Grupo_177412" data-name="Grupo 177412">
            <g id="Grupo_177411" data-name="Grupo 177411" clip-path="url(#clip-path-11)">
              <path id="Trazado_225995" data-name="Trazado 225995" d="M385.12,371.4a146,146,0,0,1-38.776.008Z" transform="translate(-346.345 -371.405)"/>
            </g>
          </g>
        </g>
        <path id="Trazado_225996" data-name="Trazado 225996" d="M345.145,371.29c0,.1,8.953.174,19.994.174s20-.078,20-.174-8.951-.174-20-.174-19.994.078-19.994.174" transform="translate(-157.904 -169.785)" fill="#263238"/>
        <rect id="Rectángulo_57116" data-name="Rectángulo 57116" width="40.06" height="8.078" transform="translate(191.055 209.296)" fill="url(#linear-gradient)"/>
        <path id="Trazado_225997" data-name="Trazado 225997" d="M421.125,386.047a44.272,44.272,0,0,0,0,7.833,44.264,44.264,0,0,0,0-7.833" transform="translate(-192.585 -176.616)" fill="#263238"/>
        <path id="Trazado_225998" data-name="Trazado 225998" d="M414.278,386.047a44.133,44.133,0,0,0,0,7.833,44.133,44.133,0,0,0,0-7.833" transform="translate(-189.452 -176.616)" fill="#263238"/>
        <path id="Trazado_225999" data-name="Trazado 225999" d="M407.511,386.047a44.133,44.133,0,0,0,0,7.833,44.264,44.264,0,0,0,0-7.833" transform="translate(-186.357 -176.616)" fill="#263238"/>
        <path id="Trazado_226000" data-name="Trazado 226000" d="M400.78,386.047a44.125,44.125,0,0,0,0,7.833,44.272,44.272,0,0,0,0-7.833" transform="translate(-183.277 -176.616)" fill="#263238"/>
        <path id="Trazado_226001" data-name="Trazado 226001" d="M394.051,386.047a44.272,44.272,0,0,0,0,7.833,44.272,44.272,0,0,0,0-7.833" transform="translate(-180.199 -176.616)" fill="#263238"/>
        <path id="Trazado_226002" data-name="Trazado 226002" d="M387.321,386.047a44.256,44.256,0,0,0,0,7.833,44.272,44.272,0,0,0,0-7.833" transform="translate(-177.12 -176.616)" fill="#263238"/>
        <path id="Trazado_226003" data-name="Trazado 226003" d="M380.59,386.047a44.256,44.256,0,0,0,0,7.833,44.133,44.133,0,0,0,0-7.833" transform="translate(-174.04 -176.616)" fill="#263238"/>
        <path id="Trazado_226004" data-name="Trazado 226004" d="M373.86,386.047a44.256,44.256,0,0,0,0,7.833,44.272,44.272,0,0,0,0-7.833" transform="translate(-170.961 -176.616)" fill="#263238"/>
        <path id="Trazado_226005" data-name="Trazado 226005" d="M367.129,386.047a43.994,43.994,0,0,0,0,7.833,44.4,44.4,0,0,0,0-7.833" transform="translate(-167.881 -176.616)" fill="#263238"/>
        <path id="Trazado_226006" data-name="Trazado 226006" d="M360.4,386.047a44.256,44.256,0,0,0,0,7.833,44.272,44.272,0,0,0,0-7.833" transform="translate(-164.803 -176.616)" fill="#263238"/>
        <path id="Trazado_226007" data-name="Trazado 226007" d="M353.669,386.047a44.264,44.264,0,0,0,0,7.833,44.264,44.264,0,0,0,0-7.833" transform="translate(-161.724 -176.616)" fill="#263238"/>
        <g id="Grupo_177416" data-name="Grupo 177416" transform="translate(191.696 209.305)" opacity="0.3">
          <g id="Grupo_177415" data-name="Grupo 177415">
            <g id="Grupo_177414" data-name="Grupo 177414" clip-path="url(#clip-path-12)">
              <path id="Trazado_226008" data-name="Trazado 226008" d="M392.132,385.815a146,146,0,0,1-38.776.008Z" transform="translate(-353.356 -385.815)"/>
            </g>
          </g>
        </g>
        <path id="Trazado_226009" data-name="Trazado 226009" d="M352.156,385.7c0,.1,8.953.174,19.994.174s20-.078,20-.174-8.951-.174-20-.174-19.994.078-19.994.174" transform="translate(-161.111 -176.378)" fill="#263238"/>
        <rect id="Rectángulo_57118" data-name="Rectángulo 57118" width="40.06" height="7.769" transform="translate(186.362 217.314)" fill="url(#linear-gradient)"/>
        <path id="Trazado_226010" data-name="Trazado 226010" d="M412.474,400.818a40.829,40.829,0,0,0,0,7.534,40.829,40.829,0,0,0,0-7.534" transform="translate(-188.627 -183.374)" fill="#263238"/>
        <path id="Trazado_226011" data-name="Trazado 226011" d="M405.628,400.818a40.829,40.829,0,0,0,0,7.534,40.951,40.951,0,0,0,0-7.534" transform="translate(-185.495 -183.374)" fill="#263238"/>
        <path id="Trazado_226012" data-name="Trazado 226012" d="M398.861,400.818a40.7,40.7,0,0,0,0,7.534,41.08,41.08,0,0,0,0-7.534" transform="translate(-182.399 -183.374)" fill="#263238"/>
        <path id="Trazado_226013" data-name="Trazado 226013" d="M392.131,400.818a40.951,40.951,0,0,0,0,7.534,40.958,40.958,0,0,0,0-7.534" transform="translate(-179.32 -183.374)" fill="#263238"/>
        <path id="Trazado_226014" data-name="Trazado 226014" d="M385.4,400.818a40.958,40.958,0,0,0,0,7.534,40.951,40.951,0,0,0,0-7.534" transform="translate(-176.241 -183.374)" fill="#263238"/>
        <path id="Trazado_226015" data-name="Trazado 226015" d="M378.669,400.818a40.829,40.829,0,0,0,0,7.534,40.958,40.958,0,0,0,0-7.534" transform="translate(-173.161 -183.374)" fill="#263238"/>
        <path id="Trazado_226016" data-name="Trazado 226016" d="M371.94,400.818a40.958,40.958,0,0,0,0,7.534,40.951,40.951,0,0,0,0-7.534" transform="translate(-170.083 -183.374)" fill="#263238"/>
        <path id="Trazado_226017" data-name="Trazado 226017" d="M365.209,400.818a40.951,40.951,0,0,0,0,7.534,40.958,40.958,0,0,0,0-7.534" transform="translate(-167.003 -183.374)" fill="#263238"/>
        <path id="Trazado_226018" data-name="Trazado 226018" d="M358.479,400.818a40.958,40.958,0,0,0,0,7.534,40.951,40.951,0,0,0,0-7.534" transform="translate(-163.924 -183.374)" fill="#263238"/>
        <path id="Trazado_226019" data-name="Trazado 226019" d="M351.748,400.818a40.829,40.829,0,0,0,0,7.534,40.951,40.951,0,0,0,0-7.534" transform="translate(-160.845 -183.374)" fill="#263238"/>
        <path id="Trazado_226020" data-name="Trazado 226020" d="M345.017,400.818a40.822,40.822,0,0,0,0,7.534,40.958,40.958,0,0,0,0-7.534" transform="translate(-157.766 -183.374)" fill="#263238"/>
        <g id="Grupo_177419" data-name="Grupo 177419" transform="translate(187.003 217.323)" opacity="0.3">
          <g id="Grupo_177418" data-name="Grupo 177418">
            <g id="Grupo_177417" data-name="Grupo 177417" clip-path="url(#clip-path-13)">
              <path id="Trazado_226021" data-name="Trazado 226021" d="M383.481,400.594a114.615,114.615,0,0,1-38.776.011Z" transform="translate(-344.705 -400.594)"/>
            </g>
          </g>
        </g>
        <path id="Trazado_226022" data-name="Trazado 226022" d="M343.506,400.478c0,.1,8.953.174,19.994.174s20-.078,20-.174-8.951-.174-20-.174-19.994.078-19.994.174" transform="translate(-157.154 -183.139)" fill="#263238"/>
        <rect id="Rectángulo_57120" data-name="Rectángulo 57120" width="40.06" height="7.769" transform="translate(188.938 225.088)" fill="url(#linear-gradient)"/>
        <path id="Trazado_226023" data-name="Trazado 226023" d="M417.222,415.147a40.829,40.829,0,0,0,0,7.534,40.951,40.951,0,0,0,0-7.534" transform="translate(-190.799 -189.93)" fill="#263238"/>
        <path id="Trazado_226024" data-name="Trazado 226024" d="M410.375,415.147a40.829,40.829,0,0,0,0,7.534,40.951,40.951,0,0,0,0-7.534" transform="translate(-187.667 -189.93)" fill="#263238"/>
        <path id="Trazado_226025" data-name="Trazado 226025" d="M403.609,415.147a40.958,40.958,0,0,0,0,7.534,40.951,40.951,0,0,0,0-7.534" transform="translate(-184.571 -189.93)" fill="#263238"/>
        <path id="Trazado_226026" data-name="Trazado 226026" d="M396.879,415.147a40.951,40.951,0,0,0,0,7.534,40.958,40.958,0,0,0,0-7.534" transform="translate(-181.492 -189.93)" fill="#263238"/>
        <path id="Trazado_226027" data-name="Trazado 226027" d="M390.148,415.147a40.958,40.958,0,0,0,0,7.534,40.829,40.829,0,0,0,0-7.534" transform="translate(-178.413 -189.93)" fill="#263238"/>
        <path id="Trazado_226028" data-name="Trazado 226028" d="M383.417,415.147a40.829,40.829,0,0,0,0,7.534,40.951,40.951,0,0,0,0-7.534" transform="translate(-175.334 -189.93)" fill="#263238"/>
        <path id="Trazado_226029" data-name="Trazado 226029" d="M376.687,415.147a40.829,40.829,0,0,0,0,7.534,40.958,40.958,0,0,0,0-7.534" transform="translate(-172.255 -189.93)" fill="#263238"/>
        <path id="Trazado_226030" data-name="Trazado 226030" d="M369.956,415.147a40.829,40.829,0,0,0,0,7.534,40.951,40.951,0,0,0,0-7.534" transform="translate(-169.175 -189.93)" fill="#263238"/>
        <path id="Trazado_226031" data-name="Trazado 226031" d="M363.227,415.147a40.958,40.958,0,0,0,0,7.534,40.951,40.951,0,0,0,0-7.534" transform="translate(-166.097 -189.93)" fill="#263238"/>
        <path id="Trazado_226032" data-name="Trazado 226032" d="M356.5,415.147a40.958,40.958,0,0,0,0,7.534,40.829,40.829,0,0,0,0-7.534" transform="translate(-163.018 -189.93)" fill="#263238"/>
        <path id="Trazado_226033" data-name="Trazado 226033" d="M349.765,415.147a40.829,40.829,0,0,0,0,7.534,40.958,40.958,0,0,0,0-7.534" transform="translate(-159.938 -189.93)" fill="#263238"/>
        <g id="Grupo_177422" data-name="Grupo 177422" transform="translate(189.578 225.096)" opacity="0.3">
          <g id="Grupo_177421" data-name="Grupo 177421">
            <g id="Grupo_177420" data-name="Grupo 177420" clip-path="url(#clip-path-14)">
              <path id="Trazado_226034" data-name="Trazado 226034" d="M388.229,414.924a101.5,101.5,0,0,1-38.776.012Z" transform="translate(-349.453 -414.924)"/>
            </g>
          </g>
        </g>
        <path id="Trazado_226035" data-name="Trazado 226035" d="M348.254,414.807c0,.1,8.953.174,19.994.174s20-.078,20-.174-8.951-.174-20-.174-19.994.078-19.994.174" transform="translate(-159.326 -189.694)" fill="#263238"/>
        <rect id="Rectángulo_57122" data-name="Rectángulo 57122" width="40.06" height="7.769" transform="translate(186.649 232.751)" fill="url(#linear-gradient)"/>
        <path id="Trazado_226036" data-name="Trazado 226036" d="M413,429.272a40.944,40.944,0,0,0,0,7.534,40.958,40.958,0,0,0,0-7.534" transform="translate(-188.87 -196.392)" fill="#263238"/>
        <path id="Trazado_226037" data-name="Trazado 226037" d="M406.156,429.272a40.83,40.83,0,0,0,0,7.534,40.958,40.958,0,0,0,0-7.534" transform="translate(-185.737 -196.392)" fill="#263238"/>
        <path id="Trazado_226038" data-name="Trazado 226038" d="M399.389,429.272a40.815,40.815,0,0,0,0,7.534,40.958,40.958,0,0,0,0-7.534" transform="translate(-182.641 -196.392)" fill="#263238"/>
        <path id="Trazado_226039" data-name="Trazado 226039" d="M392.659,429.272a40.83,40.83,0,0,0,0,7.534,40.815,40.815,0,0,0,0-7.534" transform="translate(-179.562 -196.392)" fill="#263238"/>
        <path id="Trazado_226040" data-name="Trazado 226040" d="M385.929,429.272a40.83,40.83,0,0,0,0,7.534,40.951,40.951,0,0,0,0-7.534" transform="translate(-176.483 -196.392)" fill="#263238"/>
        <path id="Trazado_226041" data-name="Trazado 226041" d="M379.2,429.272a40.83,40.83,0,0,0,0,7.534,40.951,40.951,0,0,0,0-7.534" transform="translate(-173.403 -196.392)" fill="#263238"/>
        <path id="Trazado_226042" data-name="Trazado 226042" d="M372.468,429.272a40.83,40.83,0,0,0,0,7.534,40.951,40.951,0,0,0,0-7.534" transform="translate(-170.324 -196.392)" fill="#263238"/>
        <path id="Trazado_226043" data-name="Trazado 226043" d="M365.737,429.272a40.83,40.83,0,0,0,0,7.534,40.951,40.951,0,0,0,0-7.534" transform="translate(-167.245 -196.392)" fill="#263238"/>
        <path id="Trazado_226044" data-name="Trazado 226044" d="M359.008,429.272a40.958,40.958,0,0,0,0,7.534,40.951,40.951,0,0,0,0-7.534" transform="translate(-164.166 -196.392)" fill="#263238"/>
        <path id="Trazado_226045" data-name="Trazado 226045" d="M352.278,429.272a40.958,40.958,0,0,0,0,7.534,40.83,40.83,0,0,0,0-7.534" transform="translate(-161.087 -196.392)" fill="#263238"/>
        <path id="Trazado_226046" data-name="Trazado 226046" d="M345.547,429.272a40.958,40.958,0,0,0,0,7.534,40.944,40.944,0,0,0,0-7.534" transform="translate(-158.008 -196.392)" fill="#263238"/>
        <g id="Grupo_177425" data-name="Grupo 177425" transform="translate(187.29 232.759)" opacity="0.3">
          <g id="Grupo_177424" data-name="Grupo 177424">
            <g id="Grupo_177423" data-name="Grupo 177423" clip-path="url(#clip-path-13)">
              <path id="Trazado_226047" data-name="Trazado 226047" d="M384.01,429.049a114.628,114.628,0,0,1-38.776.011Z" transform="translate(-345.234 -429.049)"/>
            </g>
          </g>
        </g>
        <path id="Trazado_226048" data-name="Trazado 226048" d="M344.035,428.932c0,.1,8.953.174,19.994.174s20-.078,20-.174-8.951-.174-20-.174-19.994.078-19.994.174" transform="translate(-157.396 -196.157)" fill="#263238"/>
        <path id="Trazado_226049" data-name="Trazado 226049" d="M417.477,403.753a.549.549,0,0,1-.013-.133c0-.1-.007-.23-.012-.391q-.008-.543-.023-1.511c-.009-1.335-.023-3.246-.04-5.627V396h.087l2.207-.01-.1.1c-.007-2.27-.015-4.9-.023-7.773l.119.118-2.576,0h-.123v-.124c0-2.4,0-5-.008-7.709v-.131H421.8l-.131.131c0-2.874,0-5.636.007-8.226l.124.123L418,372.5h-.117v-.117c.009-2.811.017-5.348.024-7.534v-.093H418l.981,0-.088.09c-.008-2.5-.015-4.511-.02-5.914,0-.678.005-1.209.007-1.588,0-.17.007-.3.008-.411a.587.587,0,0,1,.011-.14.573.573,0,0,1,.014.14c0,.106.01.241.016.411.01.379.023.91.04,1.588.024,1.4.057,3.41.1,5.913l0,.089h-.09l-.981,0,.093-.093c.007,2.186.015,4.722.023,7.534l-.116-.117,3.8-.007h.124v.124c0,2.59,0,5.352.008,8.226v.131h-4.824l.131-.131c0,2.7,0,5.308-.007,7.709l-.124-.123,2.576,0h.119v.119c-.008,2.876-.016,5.5-.023,7.773v.1h-.1l-2.207-.01.087-.086c-.017,2.381-.03,4.292-.04,5.627-.01.645-.017,1.15-.023,1.511,0,.161-.009.29-.012.391a.552.552,0,0,1-.012.133" transform="translate(-190.767 -163.233)" fill="#263238"/>
        <path id="Trazado_226050" data-name="Trazado 226050" d="M417.154,219.562a16.481,16.481,0,1,1-17.047-15.895,16.48,16.48,0,0,1,17.047,15.895" transform="translate(-175.772 -93.173)" fill="url(#linear-gradient)"/>
        <g id="Grupo_177428" data-name="Grupo 177428" transform="translate(208.429 110.494)" opacity="0.1">
          <g id="Grupo_177427" data-name="Grupo 177427">
            <g id="Grupo_177426" data-name="Grupo 177426" clip-path="url(#clip-path-16)">
              <path id="Trazado_226051" data-name="Trazado 226051" d="M400.106,203.676a16.481,16.481,0,0,0-15.895,17.047s11.592.113,14.213-4.645,1.682-12.4,1.682-12.4" transform="translate(-384.201 -203.676)" fill="#fff"/>
            </g>
          </g>
        </g>
        <path id="Trazado_226052" data-name="Trazado 226052" d="M416.039,222.57a12.529,12.529,0,1,1-12.959-12.083,12.528,12.528,0,0,1,12.959,12.083" transform="translate(-178.877 -96.294)" fill="#12263f"/>
        <path id="Trazado_226054" data-name="Trazado 226054" d="M417.008,223.645a12.361,12.361,0,1,1-12.785-11.921,12.36,12.36,0,0,1,12.785,11.921" transform="translate(-179.474 -96.86)" fill="url(#linear-gradient)"/>
        <path id="Trazado_226056" data-name="Trazado 226056" d="M411.747,226.585l-.111-3.161h.015a6.48,6.48,0,0,1,1.7.379,5.315,5.315,0,0,1,.8.469l.038-.1.448-1.155.1-.265-.584-.572-.267.132a5.911,5.911,0,0,0-2.313-.581l-.061-1.738-.557-.417.015.436-.743.026.062,1.769c-2.434.321-3.544,1.754-3.488,3.352.076,2.177,1.959,2.675,3.712,3.037l.11,3.131a6.018,6.018,0,0,1-3.174-1.08l-.649,1.606a6.854,6.854,0,0,0,3.882,1.166l.046,1.312-.611.032.625.393,1.284-.044-.061-1.754c2.449-.336,3.576-1.756,3.52-3.353-.076-2.177-1.99-2.658-3.743-3.02m-1.3-.284c-.917-.234-1.6-.555-1.629-1.307-.024-.689.426-1.269,1.531-1.48Zm1.185-2.879Zm.274,7.829-.1-2.772c.949.233,1.65.57,1.677,1.337.023.673-.443,1.222-1.58,1.435" transform="translate(-186.113 -100.455)" fill="#12263f"/>
        <path id="Trazado_226058" data-name="Trazado 226058" d="M410.963,232.55l.061,1.754-1.284.045-.061-1.738a6.864,6.864,0,0,1-3.883-1.166l.649-1.606a6.023,6.023,0,0,0,3.174,1.081l-.109-3.132c-1.753-.362-3.637-.86-3.713-3.037-.056-1.6,1.054-3.032,3.489-3.352l-.062-1.77,1.284-.045.061,1.739a6.715,6.715,0,0,1,3.213.844l-.587,1.6a6.489,6.489,0,0,0-2.567-.757l.111,3.163c1.753.362,3.667.844,3.743,3.021.056,1.6-1.07,3.016-3.52,3.353m-1.519-6.658-.1-2.787c-1.106.211-1.555.792-1.531,1.48.026.751.712,1.073,1.629,1.307m3.04,3.516c-.027-.768-.729-1.1-1.677-1.337l.1,2.772c1.137-.213,1.6-.762,1.58-1.435" transform="translate(-185.652 -100.459)" fill="#ad8c4b"/>
        <path id="Trazado_226059" data-name="Trazado 226059" d="M414.725,236.386a.617.617,0,0,1,.1-.015l.3-.031.483-.048a4.654,4.654,0,0,0,.655-.088l.814-.158a3.417,3.417,0,0,0,.458-.119l.49-.146c.167-.056.348-.092.521-.168l.54-.221c.183-.08.38-.145.568-.242l.576-.3a13.128,13.128,0,0,0,2.382-1.655l.571-.557c.1-.095.2-.187.29-.286l.268-.316c.177-.215.369-.422.541-.651l.5-.714.126-.181c.04-.062.073-.129.111-.193l.219-.391.222-.4c.079-.13.128-.277.194-.415.12-.283.256-.563.368-.856l.3-.9a12.34,12.34,0,0,0-.271-7.772l-.358-.88c-.132-.284-.288-.554-.427-.827-.075-.133-.134-.276-.222-.4l-.25-.379-.246-.375c-.041-.061-.08-.125-.124-.184l-.138-.172-.545-.678c-.187-.216-.394-.41-.585-.611l-.289-.3c-.1-.093-.208-.177-.31-.266l-.608-.515a13.175,13.175,0,0,0-2.492-1.484l-.6-.263c-.194-.083-.395-.135-.584-.2l-.554-.183c-.178-.063-.361-.087-.532-.131l-.5-.112a3.354,3.354,0,0,0-.465-.087l-.822-.1a4.741,4.741,0,0,0-.66-.042l-.486-.013-.3-.011a.781.781,0,0,1-.1-.008.6.6,0,0,1,.1,0l.3,0,.487,0a4.555,4.555,0,0,1,.663.03l.827.091a3.362,3.362,0,0,1,.468.082l.5.107a5.451,5.451,0,0,1,.536.127l.559.18c.19.065.393.116.589.2l.6.26A13.144,13.144,0,0,1,422,213.9l.615.517c.1.088.212.174.314.266l.293.3c.194.2.4.4.592.615l.552.682.14.174c.044.06.084.124.125.186l.25.378.252.382a4.565,4.565,0,0,1,.225.4c.142.276.3.548.433.834l.363.888a12.417,12.417,0,0,1,.274,7.847l-.3.911c-.114.3-.251.578-.373.863-.067.14-.117.287-.2.419l-.225.4-.222.394c-.037.065-.072.131-.112.194l-.127.182-.5.719c-.173.231-.368.439-.547.655l-.271.317c-.1.1-.2.193-.294.288l-.578.558a13.145,13.145,0,0,1-2.409,1.655l-.582.3c-.19.1-.388.161-.573.24l-.545.218c-.175.075-.357.11-.526.164l-.494.142a3.365,3.365,0,0,1-.461.115l-.819.149a4.543,4.543,0,0,1-.659.076l-.486.036-.3.02a.653.653,0,0,1-.1,0" transform="translate(-189.336 -96.686)" fill="#263238"/>
        <path id="Trazado_226060" data-name="Trazado 226060" d="M387.36,237.294a.664.664,0,0,1-.081-.125l-.212-.369a6.718,6.718,0,0,1-.311-.6c-.112-.238-.251-.5-.369-.814l-.2-.482c-.067-.168-.122-.348-.186-.532-.135-.367-.238-.77-.355-1.193a16.376,16.376,0,0,1-.423-5.664c.054-.435.1-.85.175-1.233.037-.191.063-.378.1-.554l.122-.506c.07-.324.169-.608.244-.86s.151-.465.219-.638l.155-.4a.62.62,0,0,1,.062-.135.706.706,0,0,1-.039.144c-.034.105-.078.239-.133.4s-.132.388-.2.642-.161.537-.225.86l-.114.505c-.039.175-.063.361-.1.552-.074.381-.112.794-.162,1.226a16.886,16.886,0,0,0,.42,5.625c.114.42.213.823.343,1.188.062.184.113.364.178.532l.187.482c.112.311.245.578.35.818s.206.442.292.605l.191.38a.656.656,0,0,1,.06.137" transform="translate(-176.205 -102.111)" fill="#fff"/>
        <path id="Trazado_226061" data-name="Trazado 226061" d="M407.208,228.887a1.039,1.039,0,0,1-.376-.348,1.938,1.938,0,0,1,0-2.345,1.036,1.036,0,0,1,.377-.348c.014.016-.137.141-.306.4a2.01,2.01,0,0,0,0,2.245c.169.257.32.382.305.4" transform="translate(-185.945 -103.324)" fill="#fff"/>
        <path id="Trazado_226062" data-name="Trazado 226062" d="M412.634,221.566a1.136,1.136,0,0,1-.079-.513,1.123,1.123,0,0,1,.043-.517,2.2,2.2,0,0,1,.036,1.03" transform="translate(-188.742 -100.895)" fill="#fff"/>
        <path id="Trazado_226063" data-name="Trazado 226063" d="M407.377,209.753a2.476,2.476,0,0,1-.4,0c-.129-.007-.287-.012-.471-.007s-.392,0-.623.014-.483.024-.753.057-.556.071-.858.117a12.909,12.909,0,0,0-3.748,1.255c-.268.145-.526.278-.755.424s-.444.277-.635.407-.358.256-.506.364-.272.207-.371.289a2.482,2.482,0,0,1-.321.244,2.464,2.464,0,0,1,.29-.28c.095-.088.214-.194.36-.307s.306-.251.5-.381.4-.282.632-.423.487-.289.756-.438a12.259,12.259,0,0,1,3.781-1.267c.3-.043.594-.088.867-.106s.527-.037.76-.043.443,0,.627,0,.343.015.473.028a2.5,2.5,0,0,1,.4.049" transform="translate(-182.054 -95.922)" fill="#fff"/>
        <path id="Trazado_226064" data-name="Trazado 226064" d="M412.891,262.263a1.467,1.467,0,0,1-.291.09c-.189.052-.467.111-.812.169a11.9,11.9,0,0,1-5.422-.368c-.335-.1-.6-.2-.782-.278a1.479,1.479,0,0,1-.276-.128,1.415,1.415,0,0,1,.292.084c.184.063.455.146.79.239a13.321,13.321,0,0,0,5.385.366c.345-.047.623-.093.815-.131a1.473,1.473,0,0,1,.3-.043" transform="translate(-185.428 -119.749)" fill="#fff"/>
      </g>
    </g>
    <g id="Grupo_177444" data-name="Grupo 177444">
      <g id="Grupo_177443" data-name="Grupo 177443" clip-path="url(#clip-path)">
        <path id="Trazado_226065" data-name="Trazado 226065" d="M241.06,260.314l-73.487-.34A16.008,16.008,0,0,1,151.64,243.9l.779-184.232A16.008,16.008,0,0,1,168.5,43.727l73.487.339A16.009,16.009,0,0,1,257.92,60.141l-.779,184.233a16.007,16.007,0,0,1-16.081,15.94" transform="translate(-69.375 -20.005)" fill="#263238"/>
        <path id="Trazado_226066" data-name="Trazado 226066" d="M246,55.786l-14.248-.066-41.611-.192-5.011-.023-12.47-.058a11.21,11.21,0,0,0-11.262,11.164l-.761,179.824a11.211,11.211,0,0,0,11.159,11.259l73.34.339A11.211,11.211,0,0,0,256.4,246.869l.761-179.825A11.212,11.212,0,0,0,246,55.786" transform="translate(-73.49 -25.367)" fill="#fafafa"/>
        <path id="Trazado_226067" data-name="Trazado 226067" d="M317.439,85.42a.918.918,0,1,1-.914-.921.917.917,0,0,1,.914.921" transform="translate(-144.389 -38.658)" fill="#263238"/>
        <path id="Trazado_226068" data-name="Trazado 226068" d="M317.416,91.505a.918.918,0,1,1-.914-.921.918.918,0,0,1,.914.921" transform="translate(-144.378 -41.442)" fill="#263238"/>
        <path id="Trazado_226069" data-name="Trazado 226069" d="M317.393,97.59a.918.918,0,1,1-.914-.921.917.917,0,0,1,.914.921" transform="translate(-144.368 -44.226)" fill="#263238"/>
        <path id="Trazado_226070" data-name="Trazado 226070" d="M260.98,193.556H187.47a2.333,2.333,0,0,1-2.333-2.333v-44.93a2.332,2.332,0,0,1,2.333-2.332h73.51a2.332,2.332,0,0,1,2.333,2.332v44.93a2.333,2.333,0,0,1-2.333,2.333" transform="translate(-84.7 -65.862)" fill="#ebebeb"/>
        <path id="Trazado_226071" data-name="Trazado 226071" d="M257.019,187.621h-73.51a2.333,2.333,0,0,1-2.333-2.333v-44.93a2.333,2.333,0,0,1,2.333-2.333h73.51a2.333,2.333,0,0,1,2.333,2.333v44.93a2.333,2.333,0,0,1-2.333,2.333" transform="translate(-82.888 -63.147)" fill="#e0e0e0"/>
        <path id="Trazado_226072" data-name="Trazado 226072" d="M252.448,182.688h-73.51a2.333,2.333,0,0,1-2.333-2.333v-44.93a2.333,2.333,0,0,1,2.333-2.332h73.51a2.333,2.333,0,0,1,2.333,2.332v44.93a2.333,2.333,0,0,1-2.333,2.333" transform="translate(-80.797 -60.89)" fill="url(#linear-gradient-12)"/>
        <path id="Trazado_226073" data-name="Trazado 226073" d="M197.5,151.725c0,.635-.5,1-1.468,1h-1.9v-3.669h1.793c.918,0,1.389.382,1.389.954a.883.883,0,0,1-.487.807.906.906,0,0,1,.671.907m-2.522-2.029v.865h.844c.414,0,.64-.146.64-.435s-.226-.43-.64-.43Zm1.667,1.94c0-.309-.235-.456-.676-.456h-.991v.907h.991c.441,0,.676-.136.676-.451" transform="translate(-88.815 -68.194)" fill="#fff"/>
        <path id="Trazado_226074" data-name="Trazado 226074" d="M203.529,151.94h-1.7l-.325.786h-.87l1.636-3.669h.839l1.641,3.669h-.892Zm-.267-.645-.582-1.405L202.1,151.3Z" transform="translate(-91.788 -68.194)" fill="#fff"/>
        <path id="Trazado_226075" data-name="Trazado 226075" d="M212.281,149.056v3.67h-.7l-1.829-2.229v2.229h-.839v-3.67h.7l1.824,2.228v-2.228Z" transform="translate(-95.578 -68.193)" fill="#fff"/>
        <path id="Trazado_226076" data-name="Trazado 226076" d="M218.054,151.284l-.493.514v.928h-.845v-3.67h.845v1.714l1.625-1.714h.943l-1.52,1.636,1.609,2.034h-.991Z" transform="translate(-99.148 -68.193)" fill="#fff"/>
        <path id="Trazado_226077" data-name="Trazado 226077" d="M196.605,180.009h-.674v.885h-.346v-.885h-1.9v-.25l1.785-2.233h.386l-1.723,2.175H195.6v-.779h.336v.779h.674Z" transform="translate(-88.611 -81.218)" fill="#fff"/>
        <path id="Trazado_226078" data-name="Trazado 226078" d="M201.574,179.928c0,.563-.409,1-1.222,1a1.755,1.755,0,0,1-1.213-.433l.169-.274a1.475,1.475,0,0,0,1.044.39c.558,0,.866-.26.866-.679s-.284-.669-.91-.669h-.24V179l.934-1.17h-1.723v-.308h2.166v.246l-.953,1.2c.722.039,1.083.419,1.083.958" transform="translate(-91.106 -81.218)" fill="#fff"/>
        <path id="Trazado_226079" data-name="Trazado 226079" d="M206.6,179.9c0,.573-.4,1.02-1.223,1.02a1.739,1.739,0,0,1-1.208-.433l.169-.275a1.457,1.457,0,0,0,1.034.39c.573,0,.876-.279.876-.688,0-.432-.269-.7-1.126-.7H204.4l.174-1.689h1.843v.308h-1.54l-.116,1.073h.433c1.015,0,1.4.4,1.4,1" transform="translate(-93.407 -81.218)" fill="#fff"/>
        <path id="Trazado_226080" data-name="Trazado 226080" d="M211.986,179.865a1.05,1.05,0,0,1-1.151,1.034c-.895,0-1.381-.62-1.381-1.684,0-1.146.626-1.742,1.54-1.742a1.545,1.545,0,0,1,.8.183l-.14.279a1.179,1.179,0,0,0-.654-.158c-.727,0-1.193.466-1.193,1.38,0,.077,0,.174.015.275a1.075,1.075,0,0,1,1.03-.577,1.02,1.02,0,0,1,1.136,1.01m-.342.009c0-.443-.327-.727-.847-.727a.78.78,0,0,0-.866.737c0,.371.308.722.89.722a.737.737,0,0,0,.823-.731" transform="translate(-95.825 -81.194)" fill="#fff"/>
        <path id="Trazado_226081" data-name="Trazado 226081" d="M225.855,181.6l-.8-1.059-.808,1.059h-.385l1-1.3-.953-1.232h.385l.76.991.76-.991h.376l-.953,1.232,1.011,1.3Z" transform="translate(-102.415 -81.924)" fill="#fff"/>
        <path id="Trazado_226082" data-name="Trazado 226082" d="M230.592,181.6l-.8-1.059-.808,1.059h-.385l1-1.3-.953-1.232h.385l.76.991.76-.991h.376l-.953,1.232,1.011,1.3Z" transform="translate(-104.582 -81.924)" fill="#fff"/>
        <path id="Trazado_226083" data-name="Trazado 226083" d="M235.327,181.6l-.8-1.059-.808,1.059h-.385l1-1.3-.953-1.232h.385l.76.991.76-.991h.376l-.953,1.232,1.011,1.3Z" transform="translate(-106.749 -81.924)" fill="#fff"/>
        <path id="Trazado_226084" data-name="Trazado 226084" d="M240.064,181.6l-.8-1.059-.808,1.059h-.385l1-1.3-.953-1.232h.385l.76.991.76-.991h.376l-.953,1.232,1.011,1.3Z" transform="translate(-108.916 -81.924)" fill="#fff"/>
        <path id="Trazado_226085" data-name="Trazado 226085" d="M256.419,181.6l-.8-1.059-.808,1.059h-.385l1-1.3-.953-1.232h.385l.76.991.76-.991h.376L255.8,180.3l1.011,1.3Z" transform="translate(-116.398 -81.924)" fill="#fff"/>
        <path id="Trazado_226086" data-name="Trazado 226086" d="M261.155,181.6l-.8-1.059-.808,1.059h-.385l1-1.3-.953-1.232h.385l.76.991.76-.991h.375l-.953,1.232,1.011,1.3Z" transform="translate(-118.565 -81.924)" fill="#fff"/>
        <path id="Trazado_226087" data-name="Trazado 226087" d="M265.892,181.6l-.8-1.059-.808,1.059h-.385l1-1.3-.953-1.232h.385l.76.991.76-.991h.375l-.953,1.232,1.011,1.3Z" transform="translate(-120.732 -81.924)" fill="#fff"/>
        <path id="Trazado_226088" data-name="Trazado 226088" d="M270.628,181.6l-.8-1.059-.808,1.059h-.385l1-1.3-.953-1.232h.386l.76.991.76-.991h.375l-.953,1.232,1.011,1.3Z" transform="translate(-122.898 -81.924)" fill="#fff"/>
        <path id="Trazado_226089" data-name="Trazado 226089" d="M286.039,177.526v3.368h-.346v-3.06H284.9v-.308Z" transform="translate(-130.341 -81.218)" fill="#fff"/>
        <path id="Trazado_226090" data-name="Trazado 226090" d="M290.533,179.928c0,.563-.409,1-1.222,1a1.755,1.755,0,0,1-1.213-.433l.169-.274a1.475,1.475,0,0,0,1.044.39c.558,0,.866-.26.866-.679s-.284-.669-.91-.669h-.241V179l.934-1.17h-1.723v-.308H290.4v.246l-.953,1.2c.722.039,1.083.419,1.083.958" transform="translate(-131.805 -81.218)" fill="#fff"/>
        <path id="Trazado_226091" data-name="Trazado 226091" d="M296.3,180.009h-.674v.885h-.346v-.885h-1.9v-.25l1.785-2.233h.386l-1.723,2.175h1.463v-.779h.336v.779h.674Z" transform="translate(-134.22 -81.218)" fill="#fff"/>
        <path id="Trazado_226092" data-name="Trazado 226092" d="M301.472,180.563v.308h-2.363v-.245l1.4-1.372c.38-.375.452-.6.452-.833,0-.39-.274-.63-.789-.63a1.142,1.142,0,0,0-.919.375l-.246-.211a1.514,1.514,0,0,1,1.193-.482c.684,0,1.116.347,1.116.91a1.385,1.385,0,0,1-.553,1.054l-1.145,1.126Z" transform="translate(-136.796 -81.194)" fill="#fff"/>
        <path id="Trazado_226093" data-name="Trazado 226093" d="M190.491,195.922a.885.885,0,0,1,1.534-.546l-.239.22a.517.517,0,0,0-.4-.188.514.514,0,0,0,0,1.029.512.512,0,0,0,.4-.19l.239.22a.884.884,0,0,1-1.534-.544" transform="translate(-87.15 -89.254)" fill="#fff"/>
        <path id="Trazado_226094" data-name="Trazado 226094" d="M194.606,196.4h-.746l-.143.344h-.381l.716-1.607h.367l.719,1.607h-.39Zm-.117-.283-.254-.615-.255.615Z" transform="translate(-88.452 -89.277)" fill="#fff"/>
        <path id="Trazado_226095" data-name="Trazado 226095" d="M198,196.749l-.31-.448h-.342v.448h-.372v-1.607h.7c.43,0,.7.223.7.583a.522.522,0,0,1-.331.508l.361.516Zm-.349-1.3h-.3v.56h.3c.227,0,.342-.106.342-.28s-.115-.28-.342-.28" transform="translate(-90.115 -89.277)" fill="#fff"/>
        <path id="Trazado_226096" data-name="Trazado 226096" d="M199.856,196.568l.126-.28a.943.943,0,0,0,.531.168c.22,0,.31-.074.31-.173,0-.3-.934-.094-.934-.691,0-.273.22-.5.677-.5a1.079,1.079,0,0,1,.558.142l-.114.283a.908.908,0,0,0-.445-.126c-.221,0-.305.082-.305.183,0,.3.935.092.935.682,0,.269-.223.5-.682.5a1.148,1.148,0,0,1-.654-.186" transform="translate(-91.434 -89.254)" fill="#fff"/>
        <path id="Trazado_226097" data-name="Trazado 226097" d="M205.468,195.142v1.607H205.1v-.659h-.731v.659h-.372v-1.607h.372v.634h.731v-.634Z" transform="translate(-93.327 -89.277)" fill="#fff"/>
        <path id="Trazado_226098" data-name="Trazado 226098" d="M207.232,195.922a.881.881,0,1,1,.88.831.832.832,0,0,1-.88-.831m1.382,0a.5.5,0,1,0-.5.514.49.49,0,0,0,.5-.514" transform="translate(-94.809 -89.254)" fill="#fff"/>
        <path id="Trazado_226099" data-name="Trazado 226099" d="M211,195.142h.372v1.3h.806v.3H211Z" transform="translate(-96.531 -89.277)" fill="#fff"/>
        <path id="Trazado_226100" data-name="Trazado 226100" d="M213.558,195.142h.73a.808.808,0,1,1,0,1.607h-.73Zm.712,1.3a.5.5,0,1,0,0-1h-.34v1Z" transform="translate(-97.703 -89.277)" fill="#fff"/>
        <path id="Trazado_226101" data-name="Trazado 226101" d="M218.3,196.451v.3h-1.244v-1.607h1.215v.3h-.845v.349h.746v.289h-.746v.372Z" transform="translate(-99.305 -89.277)" fill="#fff"/>
        <path id="Trazado_226102" data-name="Trazado 226102" d="M220.929,196.749l-.31-.448h-.342v.448H219.9v-1.607h.695c.43,0,.7.223.7.583a.522.522,0,0,1-.331.508l.361.516Zm-.349-1.3h-.3v.56h.3c.227,0,.342-.106.342-.28s-.115-.28-.342-.28" transform="translate(-100.606 -89.277)" fill="#fff"/>
        <path id="Trazado_226103" data-name="Trazado 226103" d="M212.794,207.53H190.671a.861.861,0,0,1-.861-.861v-.339a.862.862,0,0,1,.861-.861h22.123a.862.862,0,0,1,.861.861v.339a.862.862,0,0,1-.861.861" transform="translate(-86.838 -94.002)" fill="#fff"/>
        <path id="Trazado_226104" data-name="Trazado 226104" d="M294.378,207.53H282.854a.862.862,0,0,1-.862-.861v-.339a.862.862,0,0,1,.862-.861h11.523a.862.862,0,0,1,.861.861v.339a.861.861,0,0,1-.861.861" transform="translate(-129.012 -94.002)" fill="#fff"/>
        <g id="Grupo_177442" data-name="Grupo 177442" transform="translate(95.808 72.203)" opacity="0.2">
          <g id="Grupo_177441" data-name="Grupo 177441">
            <g id="Grupo_177440" data-name="Grupo 177440" clip-path="url(#clip-path-18)">
              <path id="Trazado_226105" data-name="Trazado 226105" d="M252.19,133.093h-73a2.59,2.59,0,0,0-2.59,2.59v13.1c4.613,3.216,10.947,3.781,16.566,2.607,6.624-1.385,12.623-4.772,18.8-7.548s12.952-5.006,19.622-3.862c6.295,1.079,11.661,5,17.35,7.9a33.782,33.782,0,0,0,5.841,2.353V135.683a2.59,2.59,0,0,0-2.59-2.59" transform="translate(-176.605 -133.093)" fill="#fff"/>
            </g>
          </g>
        </g>
        <path id="Trazado_226106" data-name="Trazado 226106" d="M195.148,280.426H184.382a4.764,4.764,0,0,1-4.764-4.764V264.9a4.764,4.764,0,0,1,4.764-4.764h10.765a4.764,4.764,0,0,1,4.764,4.764v10.765a4.764,4.764,0,0,1-4.764,4.764" transform="translate(-82.175 -119.01)" fill="#12263f"/>
        <path id="Trazado_226107" data-name="Trazado 226107" d="M195.156,278.445h-4.434a.262.262,0,0,1-.254-.2l-1.641-6.528h-1.54a.262.262,0,0,1,0-.524h1.744a.262.262,0,0,1,.254.2l1.641,6.528h4.23a.262.262,0,1,1,0,.524" transform="translate(-85.564 -124.072)" fill="#fff"/>
        <path id="Trazado_226108" data-name="Trazado 226108" d="M195.517,286.167a.831.831,0,1,1-.831-.831.831.831,0,0,1,.831.831" transform="translate(-88.689 -130.541)" fill="#12263f"/>
        <path id="Trazado_226109" data-name="Trazado 226109" d="M194.467,287.039a1.093,1.093,0,1,1,1.093-1.093,1.093,1.093,0,0,1-1.093,1.093m0-1.662a.569.569,0,1,0,.569.569.57.57,0,0,0-.569-.569" transform="translate(-88.469 -130.32)" fill="#fff"/>
        <path id="Trazado_226110" data-name="Trazado 226110" d="M204.02,286.167a.831.831,0,1,1-.831-.831.831.831,0,0,1,.831.831" transform="translate(-92.579 -130.541)" fill="#12263f"/>
        <path id="Trazado_226111" data-name="Trazado 226111" d="M202.968,287.039a1.093,1.093,0,1,1,1.093-1.093,1.094,1.094,0,0,1-1.093,1.093m0-1.662a.569.569,0,1,0,.569.569.57.57,0,0,0-.569-.569" transform="translate(-92.358 -130.32)" fill="#fff"/>
        <path id="Trazado_226112" data-name="Trazado 226112" d="M198.671,278.155h-6.319a.262.262,0,0,1,0-.524h6.1l.695-3.909h-7.968a.262.262,0,0,1,0-.524c.013-.005.928,0,2.162,0h6.116a.262.262,0,0,1,.258.308l-.788,4.433a.262.262,0,0,1-.258.216" transform="translate(-87.345 -124.987)" fill="#fff"/>
        <path id="Trazado_226113" data-name="Trazado 226113" d="M268.552,271.6H231.479a2.048,2.048,0,0,1-2.048-2.047v-.806a2.048,2.048,0,0,1,2.048-2.048h37.073a2.047,2.047,0,0,1,2.047,2.048v.806a2.047,2.047,0,0,1-2.047,2.047" transform="translate(-104.965 -122.017)" fill="#e0e0e0"/>
        <path id="Trazado_226114" data-name="Trazado 226114" d="M248.194,289.355H231.478a2.047,2.047,0,0,1-2.047-2.047V286.5a2.047,2.047,0,0,1,2.047-2.048h16.716a2.047,2.047,0,0,1,2.047,2.048v.806a2.047,2.047,0,0,1-2.047,2.047" transform="translate(-104.965 -130.138)" fill="#e0e0e0"/>
        <path id="Trazado_226115" data-name="Trazado 226115" d="M256.152,245.923c0,.078-21.424.141-47.845.141s-47.85-.063-47.85-.141,21.419-.141,47.85-.141,47.845.063,47.845.141" transform="translate(-73.409 -112.445)" fill="#e0e0e0"/>
        <path id="Trazado_226116" data-name="Trazado 226116" d="M245.69,333.581H200.866a8.792,8.792,0,0,1-8.792-8.792v-3.46a8.792,8.792,0,0,1,8.792-8.792H245.69a8.792,8.792,0,0,1,8.792,8.792v3.46a8.792,8.792,0,0,1-8.792,8.792" transform="translate(-87.874 -142.986)" fill="url(#linear-gradient-13)"/>
        <path id="Trazado_226117" data-name="Trazado 226117" d="M243.794,328.646c0,1.055-.8,1.713-2.064,1.713h-.811v1.215H239.6v-4.647h2.125c1.268,0,2.064.658,2.064,1.72m-1.328,0c0-.432-.272-.684-.816-.684h-.731v1.361h.731c.544,0,.816-.252.816-.677" transform="translate(-109.619 -149.569)" fill="#fff"/>
        <path id="Trazado_226118" data-name="Trazado 226118" d="M250.718,330.67h-1.965l-.365.9h-1.341l2.052-4.647h1.294l2.058,4.647h-1.367Zm-.385-.969-.6-1.487-.6,1.487Z" transform="translate(-113.024 -149.569)" fill="#fff"/>
        <path id="Trazado_226119" data-name="Trazado 226119" d="M259.141,329.907v1.666h-1.314v-1.686l-1.772-2.961h1.387l1.1,1.846,1.1-1.846h1.274Z" transform="translate(-117.145 -149.569)" fill="#fff"/>
        <path id="Trazado_226120" data-name="Trazado 226120" d="M182.542,91.582a4.05,4.05,0,1,1-4.05-4.05,4.05,4.05,0,0,1,4.05,4.05" transform="translate(-79.807 -40.046)" fill="url(#linear-gradient-14)"/>
        <path id="Trazado_226121" data-name="Trazado 226121" d="M249.549,94.714H222.172a1.484,1.484,0,0,1-1.484-1.484v-.584a1.484,1.484,0,0,1,1.484-1.484h27.377a1.484,1.484,0,0,1,1.484,1.484v.584a1.484,1.484,0,0,1-1.484,1.484" transform="translate(-100.965 -41.707)" fill="#e0e0e0"/>
        <rect id="Rectángulo_57130" data-name="Rectángulo 57130" width="61.945" height="4.137" transform="translate(107.501 196.662)" fill="#263238"/>
        <path id="Trazado_226122" data-name="Trazado 226122" d="M203.564,366.324c.544.181,7.8.181,7.8,14.51s-.362,32.1,7.255,32.648,47.7,0,47.7,0V377.521a10.9,10.9,0,0,0-10.835-10.9Z" transform="translate(-93.13 -167.593)" fill="#fafafa"/>
        <path id="Trazado_226123" data-name="Trazado 226123" d="M203.564,366.324l30.129.09,15.288.056,4.191.02a24.505,24.505,0,0,1,4.33.214,11,11,0,0,1,4.125,1.7,11.089,11.089,0,0,1,4.731,7.744,19.09,19.09,0,0,1,.095,2.393q0,1.2,0,2.407,0,4.839,0,9.875c0,6.707,0,13.653,0,20.765v2.03l-.139,0c-14.019.169-27.351.294-39.466.2-1.515-.012-3.01-.038-4.485-.069-1.479-.055-2.923-.039-4.376-.236a4.943,4.943,0,0,1-1.966-.923,7.223,7.223,0,0,1-1.41-1.6A14.48,14.48,0,0,1,213,407.2a42.227,42.227,0,0,1-1.288-7.685c-.222-2.49-.318-4.886-.374-7.172-.118-4.571-.027-8.707-.08-12.33a22.117,22.117,0,0,0-1.75-9.033,9.848,9.848,0,0,0-1.939-2.737,7.424,7.424,0,0,0-2.045-1.365,10.234,10.234,0,0,0-1.96-.556l.514.078a7.111,7.111,0,0,1,1.468.425,7.408,7.408,0,0,1,2.08,1.356,9.877,9.877,0,0,1,1.98,2.75,22.117,22.117,0,0,1,1.809,9.078c.068,3.63-.009,7.761.122,12.328.063,2.283.165,4.675.392,7.157a42.08,42.08,0,0,0,1.3,7.641,14.244,14.244,0,0,0,1.6,3.726,6.987,6.987,0,0,0,1.36,1.54,4.693,4.693,0,0,0,1.864.871c1.388.187,2.867.174,4.332.225,1.473.03,2.968.054,4.482.064,12.11.081,25.443-.053,39.46-.222l-.139.141v-1.89c0-7.113,0-14.058,0-20.765q0-5.031,0-9.875,0-1.21,0-2.407a18.856,18.856,0,0,0-.091-2.36,10.773,10.773,0,0,0-1.526-4.323,10.886,10.886,0,0,0-3.086-3.244,10.762,10.762,0,0,0-4.029-1.67,24.353,24.353,0,0,0-4.274-.216l-4.171-.029-15.212-.12-30.236-.259" transform="translate(-93.13 -167.593)" fill="#263238"/>
        <path id="Trazado_226124" data-name="Trazado 226124" d="M231.654,427.571s6.271,0,7.615-9.25c1.6-11.021,0-20.677,8.524-21.04s31.379,0,31.379,0v30.29Z" transform="translate(-105.982 -181.682)" fill="#e0e0e0"/>
        <path id="Trazado_226125" data-name="Trazado 226125" d="M259.43,397.347s6.875-.834,6.875,10.593.181,18.984,7.8,19.831,54.413,0,54.413,0-7.436-3.507-7.98-13.845-2.721-16.647-10.157-16.848-50.95.27-50.95.27" transform="translate(-118.689 -181.64)" fill="#fafafa"/>
        <path id="Trazado_226126" data-name="Trazado 226126" d="M259.43,397.248l.462-.019,1.354-.028,5.21-.079,19.181-.21,13.259-.092,7.392-.01c1.271.006,2.56.011,3.869.037a11.1,11.1,0,0,1,3.926.755,7.987,7.987,0,0,1,3.19,2.564,13.237,13.237,0,0,1,1.882,3.747,36.867,36.867,0,0,1,1.429,8.5c.048.73.087,1.467.167,2.192l.108,1.1.2,1.085.1.545.149.534.305,1.07a18.9,18.9,0,0,0,.861,2.064,14.937,14.937,0,0,0,6.1,6.551l.475.259-.533.009-1.3.023c-12.558.206-24.523.342-35.406.34-5.442-.012-10.613-.026-15.453-.232a21.727,21.727,0,0,1-3.561-.384,7.15,7.15,0,0,1-3.085-1.554,7.631,7.631,0,0,1-1.912-2.712,14.339,14.339,0,0,1-.916-3.04,38.413,38.413,0,0,1-.588-5.849c-.071-1.855-.074-3.6-.077-5.238.007-.818,0-1.606-.036-2.362-.02-.378-.014-.751-.053-1.112s-.088-.715-.13-1.061q-.032-.26-.063-.514c-.037-.166-.075-.33-.111-.493q-.11-.487-.214-.953l-.3-.879-.149-.422-.192-.39a6.707,6.707,0,0,0-1.8-2.412,5.28,5.28,0,0,0-1.935-1.067,5.183,5.183,0,0,0-1.345-.247c-.155-.011-.272-.008-.35-.008h-.118a.978.978,0,0,1,.118-.015,3.021,3.021,0,0,1,.352-.007,4.988,4.988,0,0,1,1.361.221,5.281,5.281,0,0,1,1.971,1.057,6.753,6.753,0,0,1,1.846,2.429c1.077,2.08,1.323,4.98,1.309,8.232.009,1.634.021,3.381.1,5.231a38.47,38.47,0,0,0,.6,5.818,14.106,14.106,0,0,0,.911,2.994,7.41,7.41,0,0,0,1.865,2.633,6.926,6.926,0,0,0,2.994,1.5,21.556,21.556,0,0,0,3.52.37c4.829.2,10,.2,15.441.206,10.88-.012,22.844-.157,35.4-.362l1.3-.022-.057.269a15.188,15.188,0,0,1-6.228-6.682,19.244,19.244,0,0,1-.875-2.1l-.31-1.087-.15-.543-.1-.552-.206-1.1-.11-1.109c-.081-.741-.118-1.47-.166-2.2A36.655,36.655,0,0,0,318.9,404a12.994,12.994,0,0,0-1.837-3.671,7.728,7.728,0,0,0-3.082-2.485,10.856,10.856,0,0,0-3.83-.739c-1.3-.028-2.594-.036-3.864-.044l-7.39,0-13.258.057-19.181.12-5.21.026H259.89l-.461-.009" transform="translate(-118.689 -181.54)" fill="#263238"/>
        <path id="Trazado_226127" data-name="Trazado 226127" d="M248.38,397.543c0,.034-.55-.023-1.52.113a6.535,6.535,0,0,0-3.646,1.776,10.321,10.321,0,0,0-2.709,5.389,46.379,46.379,0,0,0-.637,7.521,37.226,37.226,0,0,1-.876,7.545,18.393,18.393,0,0,1-1.122,3.131,11.637,11.637,0,0,1-1.482,2.495,6.152,6.152,0,0,1-1.833,1.546,6.247,6.247,0,0,1-1.71.592,6.537,6.537,0,0,1-1.135.1,2,2,0,0,1-.4-.011,2.19,2.19,0,0,1,.394-.046,8.076,8.076,0,0,0,1.116-.155,6.405,6.405,0,0,0,1.655-.622,6.091,6.091,0,0,0,1.753-1.534,11.618,11.618,0,0,0,1.424-2.466,18.52,18.52,0,0,0,1.084-3.1,38.14,38.14,0,0,0,.846-7.494,44.846,44.846,0,0,1,.665-7.564,10.407,10.407,0,0,1,2.826-5.479,6.515,6.515,0,0,1,3.769-1.74,5.32,5.32,0,0,1,.657-.046,4.036,4.036,0,0,1,.482,0,2.1,2.1,0,0,1,.4.037" transform="translate(-105.826 -181.854)" fill="#263238"/>
        <path id="Trazado_226128" data-name="Trazado 226128" d="M271.739,381.509c0,.078-8.789.141-19.628.141s-19.629-.063-19.629-.141,8.787-.141,19.629-.141,19.628.063,19.628.141" transform="translate(-106.36 -174.476)" fill="#e0e0e0"/>
        <path id="Trazado_226129" data-name="Trazado 226129" d="M274.329,392.274c0,.078-8.5.141-18.979.141s-18.98-.063-18.98-.141,8.5-.141,18.98-.141,18.979.063,18.979.141" transform="translate(-108.139 -179.401)" fill="#e0e0e0"/>
        <path id="Trazado_226130" data-name="Trazado 226130" d="M322.572,413.205c0,.078-8.789.141-19.628.141s-19.629-.063-19.629-.141,8.787-.141,19.629-.141,19.628.063,19.628.141" transform="translate(-129.617 -188.977)" fill="#e0e0e0"/>
        <path id="Trazado_226131" data-name="Trazado 226131" d="M326.205,425.764c0,.078-8.062.141-18.006.141s-18.007-.063-18.007-.141,8.06-.141,18.007-.141,18.006.063,18.006.141" transform="translate(-132.763 -194.722)" fill="#e0e0e0"/>
        <path id="Trazado_226132" data-name="Trazado 226132" d="M291.446,153.006h-3.822a1.709,1.709,0,0,1-1.709-1.708v-3.823a1.709,1.709,0,0,1,1.709-1.708h3.822a1.708,1.708,0,0,1,1.708,1.708V151.3a1.708,1.708,0,0,1-1.708,1.708" transform="translate(-130.806 -66.688)" fill="#fff"/>
      </g>
    </g>
    <g id="Grupo_177446" data-name="Grupo 177446">
      <g id="Grupo_177445" data-name="Grupo 177445" clip-path="url(#clip-path)">
        <path id="Trazado_226133" data-name="Trazado 226133" d="M28.549,109.492l-3.589-.433a13.785,13.785,0,1,1,3.549-3.435l.007,0Z" transform="translate(-1.631 -38.36)" fill="#fff"/>
        <path id="Trazado_226134" data-name="Trazado 226134" d="M28.463,109.4s-.007-.092-.011-.261-.01-.427-.018-.749c-.012-.662-.03-1.622-.054-2.862l.082.039-.006,0a.051.051,0,0,1-.071-.007.051.051,0,0,1,0-.062A13.741,13.741,0,0,0,30.8,99.375a14.057,14.057,0,0,0-.115-4.343,13.679,13.679,0,0,0-1.778-4.6,13.948,13.948,0,0,0-3.716-3.974,13.346,13.346,0,0,0-5.392-2.33,13.956,13.956,0,0,0-6.239.27,13.357,13.357,0,0,0-5.683,3.234,14.039,14.039,0,0,0-2.15,2.589c-.277.482-.563.96-.8,1.456l-.326.757-.16.378-.122.391a13.926,13.926,0,0,0-.565,6.282,13.318,13.318,0,0,0,2.123,5.535,13.986,13.986,0,0,0,3.865,3.892,13.742,13.742,0,0,0,4.559,1.956l1.137.2c.374.056.748.065,1.11.1a12.363,12.363,0,0,0,2.107-.04,13.739,13.739,0,0,0,6.194-2.2.049.049,0,0,1,.033-.008l2.645.348.695.1c.158.022.243.039.243.039s-.074,0-.227-.018l-.686-.071-2.682-.295.033-.008a13.7,13.7,0,0,1-6.232,2.274,12.446,12.446,0,0,1-2.131.054c-.368-.032-.746-.039-1.126-.094l-1.154-.2a13.9,13.9,0,0,1-4.633-1.964,14.149,14.149,0,0,1-3.937-3.94A13.514,13.514,0,0,1,3.517,99.52a14.14,14.14,0,0,1,.567-6.394l.124-.4.163-.385.331-.771c.241-.506.531-.992.813-1.483A14.248,14.248,0,0,1,7.7,87.452a13.589,13.589,0,0,1,5.787-3.291,14.172,14.172,0,0,1,6.35-.266,13.553,13.553,0,0,1,5.479,2.382,14.128,14.128,0,0,1,3.761,4.048A13.834,13.834,0,0,1,30.865,95a14.163,14.163,0,0,1,.092,4.4,13.71,13.71,0,0,1-2.492,6.169l-.073-.068.006,0a.05.05,0,0,1,.071.007.056.056,0,0,1,.012.032c0,1.254,0,2.224,0,2.894,0,.316,0,.56-.005.737s-.007.243-.007.243" transform="translate(-1.546 -38.272)" fill="#263238"/>
        <path id="Trazado_226135" data-name="Trazado 226135" d="M17.731,106.015l1.724-1.846L23,107.112l6.535-6.731,1.718,1.728-8.39,8.453Z" transform="translate(-8.112 -45.924)" fill="url(#linear-gradient-14)"/>
      </g>
    </g>
    <g id="Grupo_177454" data-name="Grupo 177454">
      <g id="Grupo_177453" data-name="Grupo 177453" clip-path="url(#clip-path)">
        <path id="Trazado_226136" data-name="Trazado 226136" d="M72.212,91.321a10.412,10.412,0,0,1,11.047-8.8l.538.04c5.773.761,8.353,6.09,7.432,11.84l-2.01,20.411-.1,4.218-13.751,1.247.3-8.908s-5.511-1.273-5.174-6.851c.163-2.694.949-8.215,1.72-13.2" transform="translate(-32.243 -37.743)" fill="#ffc09d"/>
        <path id="Trazado_226137" data-name="Trazado 226137" d="M79.955,134.352a13.552,13.552,0,0,0,7.458-1.605s-1.938,4.023-7.463,3.116Z" transform="translate(-36.578 -60.732)" fill="#ff9b6c"/>
        <path id="Trazado_226138" data-name="Trazado 226138" d="M77.652,108.447a.8.8,0,0,0,.709.859.763.763,0,0,0,.872-.658.8.8,0,0,0-.708-.859.763.763,0,0,0-.873.658" transform="translate(-35.524 -49.31)" fill="#263238"/>
        <path id="Trazado_226139" data-name="Trazado 226139" d="M75.509,103.335c.091.111.726-.291,1.583-.227s1.452.539,1.553.441c.049-.043-.038-.238-.3-.457a2.187,2.187,0,0,0-1.234-.481,2.106,2.106,0,0,0-1.269.31c-.278.183-.381.365-.336.414" transform="translate(-34.541 -46.942)" fill="#263238"/>
        <path id="Trazado_226140" data-name="Trazado 226140" d="M92.446,109.858a.8.8,0,0,0,.709.859.764.764,0,0,0,.873-.658.8.8,0,0,0-.709-.859.764.764,0,0,0-.873.659" transform="translate(-42.292 -49.956)" fill="#263238"/>
        <path id="Trazado_226141" data-name="Trazado 226141" d="M91.005,104.759c.091.111.727-.291,1.583-.226s1.453.539,1.553.441c.049-.043-.037-.238-.3-.457a2.188,2.188,0,0,0-1.234-.481,2.1,2.1,0,0,0-1.269.31c-.277.183-.381.364-.336.414" transform="translate(-41.63 -47.594)" fill="#263238"/>
        <path id="Trazado_226142" data-name="Trazado 226142" d="M82.628,110.671a5.643,5.643,0,0,0-1.373-.353c-.217-.038-.421-.1-.447-.249a1.117,1.117,0,0,1,.193-.637l.768-1.618a28.664,28.664,0,0,0,1.77-4.25,28.751,28.751,0,0,0-2.108,4.1q-.388.854-.742,1.63a1.268,1.268,0,0,0-.176.85.549.549,0,0,0,.336.346,1.521,1.521,0,0,0,.367.079,5.62,5.62,0,0,0,1.41.1" transform="translate(-36.824 -47.38)" fill="#263238"/>
        <path id="Trazado_226143" data-name="Trazado 226143" d="M86.556,118.095c-.139-.018-.208.911-1.052,1.513s-1.826.427-1.843.557c-.017.057.208.2.625.238a2.321,2.321,0,0,0,1.535-.412,2.023,2.023,0,0,0,.822-1.273c.063-.386-.023-.624-.087-.623" transform="translate(-38.275 -54.028)" fill="#263238"/>
        <path id="Trazado_226144" data-name="Trazado 226144" d="M91.055,98.71c.067.239.931.191,1.926.385,1,.174,1.789.527,1.938.328.066-.1-.059-.325-.37-.574a3.416,3.416,0,0,0-2.944-.544c-.38.122-.579.291-.551.4" transform="translate(-41.656 -44.917)" fill="#263238"/>
        <path id="Trazado_226145" data-name="Trazado 226145" d="M76.417,98.762c.137.206.741.047,1.451.089.712.017,1.3.226,1.454.033.068-.094-.012-.3-.261-.5a2.106,2.106,0,0,0-2.341-.1c-.265.182-.362.376-.3.476" transform="translate(-34.953 -44.825)" fill="#263238"/>
        <path id="Trazado_226146" data-name="Trazado 226146" d="M105.956,113.179a1.517,1.517,0,0,1,1.74-1.339c1.032.175,2.146.849,1.92,2.992-.4,3.8-4.133,2.616-4.128,2.506,0-.074.287-2.57.468-4.159" transform="translate(-48.261 -51.158)" fill="#ffc09d"/>
        <path id="Trazado_226147" data-name="Trazado 226147" d="M107.286,117.041c.018-.01.061.054.168.117a.664.664,0,0,0,.494.062,1.646,1.646,0,0,0,.912-1.39,2.2,2.2,0,0,0-.086-.967.769.769,0,0,0-.445-.561.339.339,0,0,0-.41.141c-.062.1-.046.18-.067.184s-.075-.072-.028-.226a.425.425,0,0,1,.175-.222.5.5,0,0,1,.376-.058.936.936,0,0,1,.63.662,2.261,2.261,0,0,1,.118,1.083,1.728,1.728,0,0,1-1.138,1.54.714.714,0,0,1-.6-.164c-.108-.106-.119-.194-.105-.2" transform="translate(-49.081 -52.203)" fill="#ff9b6c"/>
        <path id="Trazado_226148" data-name="Trazado 226148" d="M91.753,91.95c-.315,1.09-.2,2.9-1.175,2.654-1.933-.487-1.47,3.475-2.4,3.087s-1.725-1.511-1.782-3.949c-.073-3.1,1.173-5.33-.047-8.875a4.692,4.692,0,0,0-3.912-2.429,4.772,4.772,0,0,0-4.107,2.175c-.174-1.08-.7-2.709-1.662-3.23a2.79,2.79,0,0,0-3.075.255,2.27,2.27,0,0,0-.4,2.956,1.086,1.086,0,0,1-1.216-.437,1.858,1.858,0,0,0,.483,1.392,1.714,1.714,0,0,1-.981-.684l.288,1.341a4.309,4.309,0,0,1-3.678-2.94,7.26,7.26,0,0,1,1.032-6.17,6.7,6.7,0,0,1,5.557-3.208,5.149,5.149,0,0,1,4.973,3.144,7.212,7.212,0,0,1,6.011-.648,5.222,5.222,0,0,1,2.975,4.139,3.113,3.113,0,0,1,3.081.6c.071.058.14.118.207.18a4.646,4.646,0,0,1,1.35,4.287c-.118.62-.333,1.262-.459,1.76-.376,1.478-1.062,4.6-1.062,4.6" transform="translate(-31.011 -33.804)" fill="#263238"/>
        <path id="Trazado_226149" data-name="Trazado 226149" d="M74.107,87.878a.611.611,0,0,1-.13-.1,2.287,2.287,0,0,1-.32-.352,3.259,3.259,0,0,1-.639-1.619,3.09,3.09,0,0,1,.759-2.439,3.336,3.336,0,0,1,2.907-1.1,3.772,3.772,0,0,1,1.542.6,5.049,5.049,0,0,1,1.136,1.039,6.031,6.031,0,0,1,1.167,2.307,5.9,5.9,0,0,1,.19,1.733,4.616,4.616,0,0,1-.047.472.62.62,0,0,1-.034.162,7.171,7.171,0,0,0-.224-2.337,6.054,6.054,0,0,0-1.171-2.239,4.257,4.257,0,0,0-2.583-1.575,3.2,3.2,0,0,0-2.768,1.035,2.993,2.993,0,0,0-.756,2.324,3.329,3.329,0,0,0,.573,1.592c.233.333.41.48.4.493" transform="translate(-33.395 -37.623)" fill="#455a64"/>
        <path id="Trazado_226150" data-name="Trazado 226150" d="M72.353,88.61a1.027,1.027,0,0,1-.116-.186c-.07-.125-.172-.309-.3-.55a11.78,11.78,0,0,1-.9-2.123,6.114,6.114,0,0,1-.25-1.58,4.423,4.423,0,0,1,.33-1.809,3.522,3.522,0,0,1,1.306-1.554,4.272,4.272,0,0,1,2.069-.685,5.2,5.2,0,0,1,2.153.344,6.779,6.779,0,0,1,1.764,1,5.268,5.268,0,0,1,1.926,2.792,3.827,3.827,0,0,1-.112,2.288,3.115,3.115,0,0,1-.285.56,1.079,1.079,0,0,1-.134.174,5.067,5.067,0,0,0,.357-.757,3.858,3.858,0,0,0,.059-2.236,5.2,5.2,0,0,0-1.907-2.7,5.788,5.788,0,0,0-3.811-1.3,4.134,4.134,0,0,0-1.989.655,3.379,3.379,0,0,0-1.254,1.478,4.326,4.326,0,0,0-.334,1.746,6.089,6.089,0,0,0,.226,1.549A12.971,12.971,0,0,0,72,87.845l.27.564a1.04,1.04,0,0,1,.085.2" transform="translate(-32.388 -36.652)" fill="#455a64"/>
        <path id="Trazado_226151" data-name="Trazado 226151" d="M109.488,96.592c-.02-.024.351-.285.814-.835a5.58,5.58,0,0,0,1.089-5.248c-.206-.688-.443-1.076-.414-1.09a1.05,1.05,0,0,1,.178.263,4.689,4.689,0,0,1,.35.792,5.375,5.375,0,0,1-1.112,5.362,4.652,4.652,0,0,1-.636.586,1.023,1.023,0,0,1-.267.171" transform="translate(-50.091 -40.909)" fill="#455a64"/>
        <path id="Trazado_226152" data-name="Trazado 226152" d="M103.1,97.166c-.007-.016.19-.085.492-.291a2.761,2.761,0,0,0,.96-1.157l.161-.363-.036.4c-.048.536-.1,1.153-.164,1.823l-.124-.074a4.988,4.988,0,0,0,1.244-1.218,4.934,4.934,0,0,0,.851-2.006,5.063,5.063,0,0,0-.011-1.789,6.858,6.858,0,0,0-.538-1.574c.005,0,.03.029.072.093a3.218,3.218,0,0,1,.169.291,4.714,4.714,0,0,1,.414,1.167,4.987,4.987,0,0,1-2.112,5.169l-.142.094.018-.169.194-1.82.124.033a2.707,2.707,0,0,1-1.039,1.165,2.317,2.317,0,0,1-.386.19.425.425,0,0,1-.145.039" transform="translate(-47.167 -41.593)" fill="#455a64"/>
        <path id="Trazado_226153" data-name="Trazado 226153" d="M95.359,86.009a3.617,3.617,0,0,0-.882-1.1,3.235,3.235,0,0,0-1.37-.637,3.414,3.414,0,0,0-1.833.166,3.949,3.949,0,0,0-1.535,1.037,4.7,4.7,0,0,0-.827,1.286,9.02,9.02,0,0,0-.415,1.364,1.376,1.376,0,0,1,.027-.387,4.815,4.815,0,0,1,.278-1.022,4.575,4.575,0,0,1,.821-1.344,3.991,3.991,0,0,1,1.592-1.092,3.488,3.488,0,0,1,1.923-.16,3.242,3.242,0,0,1,1.414.7,2.829,2.829,0,0,1,.667.827,1.835,1.835,0,0,1,.114.265c.021.062.03.1.024.1" transform="translate(-40.485 -38.453)" fill="#455a64"/>
        <path id="Trazado_226154" data-name="Trazado 226154" d="M94.46,81.763a5.338,5.338,0,0,0-1.05-.405,3.811,3.811,0,0,0-2.614.369,4.749,4.749,0,0,0-1.851,1.925c-.33.616-.436,1.043-.467,1.033a.99.99,0,0,1,.059-.3,4.641,4.641,0,0,1,.3-.785,4.58,4.58,0,0,1,1.877-2.018,3.749,3.749,0,0,1,2.723-.337,2.874,2.874,0,0,1,.777.331.9.9,0,0,1,.245.189" transform="translate(-40.477 -37.114)" fill="#455a64"/>
        <path id="Trazado_226155" data-name="Trazado 226155" d="M68.326,413.416l.384,10.433s-10.476,3.894-10.593,5.829l20.256-.017.069-16.28Z" transform="translate(-26.589 -189.121)" fill="url(#linear-gradient-13)"/>
        <path id="Trazado_226156" data-name="Trazado 226156" d="M88.353,431.02a.827.827,0,0,1,.573.943.8.8,0,0,1-.93.576.872.872,0,0,1-.6-1,.825.825,0,0,1,1.034-.492" transform="translate(-39.969 -197.176)" fill="#e0e0e0"/>
        <path id="Trazado_226157" data-name="Trazado 226157" d="M78.366,442.006l-.057-1.641-19.4.63s-.9.393-.8,1.028Z" transform="translate(-26.582 -201.467)" fill="#263238"/>
        <path id="Trazado_226158" data-name="Trazado 226158" d="M77.038,432.41c0,.1.5.143.985.461s.746.733.837.694c.091-.02-.056-.611-.653-.985s-1.191-.261-1.169-.17" transform="translate(-35.244 -197.785)" fill="#fff"/>
        <path id="Trazado_226159" data-name="Trazado 226159" d="M73.122,434.076c-.022.1.406.264.742.682s.434.86.532.856c.093.015.161-.564-.267-1.076s-1.005-.557-1.007-.462" transform="translate(-33.453 -198.571)" fill="#fff"/>
        <path id="Trazado_226160" data-name="Trazado 226160" d="M70.234,437.361c.09.021.227-.473-.027-1.014s-.717-.757-.759-.674.245.372.446.819.241.86.34.87" transform="translate(-31.769 -199.312)" fill="#fff"/>
        <path id="Trazado_226161" data-name="Trazado 226161" d="M77.36,427.786c.042.09.5-.047,1.054-.009s1,.213,1.046.129-.368-.437-1.027-.473-1.122.276-1.074.353" transform="translate(-35.391 -195.549)" fill="#fff"/>
        <path id="Trazado_226162" data-name="Trazado 226162" d="M118.55,415.206l.806,12.605-2.237,10.154a1.294,1.294,0,0,0,2.194,1.178c1.85-1.926,8.621-9.046,8.51-9.965-.128-1.064.033-13.353.033-13.353Z" transform="translate(-53.568 -189.957)" fill="url(#linear-gradient-13)"/>
        <path id="Trazado_226163" data-name="Trazado 226163" d="M119.12,450.589l9.6-11.2.022.535a1.949,1.949,0,0,1-.41,1.281c-.763.974-2.927,3.62-8.049,9a1.294,1.294,0,0,1-1.16.381" transform="translate(-54.497 -201.022)" fill="#263238"/>
        <g id="Grupo_177449" data-name="Grupo 177449" transform="translate(71.168 234.267)" opacity="0.6">
          <g id="Grupo_177448" data-name="Grupo 177448">
            <g id="Grupo_177447" data-name="Grupo 177447" clip-path="url(#clip-path-21)">
              <path id="Trazado_226164" data-name="Trazado 226164" d="M131.481,431.967a.784.784,0,0,0-.173,1.031.754.754,0,0,0,1.02.18.827.827,0,0,0,.176-1.093.781.781,0,0,0-1.082-.069" transform="translate(-131.186 -431.828)" fill="#fff"/>
            </g>
          </g>
        </g>
        <path id="Trazado_226165" data-name="Trazado 226165" d="M121.818,448.493a2.793,2.793,0,0,0-2.612-1.154c-.012-.03.143-.135.437-.189a2.064,2.064,0,0,1,2.02.894c.158.253.186.439.155.45" transform="translate(-54.537 -204.559)" fill="#fff"/>
        <path id="Trazado_226166" data-name="Trazado 226166" d="M120.483,452.13a10.626,10.626,0,0,0-1.14-.5,10.512,10.512,0,0,0-1.239-.108,1.434,1.434,0,0,1,1.307-.161c.751.187,1.135.729,1.071.765" transform="translate(-54.032 -206.469)" fill="#fff"/>
        <path id="Trazado_226167" data-name="Trazado 226167" d="M123.907,444.377a12.967,12.967,0,0,0-1.708-.885,12.932,12.932,0,0,0-1.89-.36,3.54,3.54,0,0,1,3.6,1.245" transform="translate(-55.041 -202.678)" fill="#fff"/>
        <path id="Trazado_226168" data-name="Trazado 226168" d="M124.3,438.041c-.03.077-.739-.186-1.648-.181s-1.619.252-1.649.175a3.21,3.21,0,0,1,3.3.007" transform="translate(-55.357 -200.194)" fill="#fff"/>
        <path id="Trazado_226169" data-name="Trazado 226169" d="M123.975,431.159a4.111,4.111,0,0,0-3.367.254c-.022-.025.11-.189.393-.369a2.82,2.82,0,0,1,2.529-.191c.308.136.463.278.445.307" transform="translate(-55.177 -197.018)" fill="#fff"/>
        <path id="Trazado_226170" data-name="Trazado 226170" d="M121.915,427.734a1.086,1.086,0,0,1-.037-.477,3.326,3.326,0,0,1,.328-1.266,1.474,1.474,0,0,1,.6-.728.52.52,0,0,1,.591.092.847.847,0,0,1,.223.561,1.829,1.829,0,0,1-1.533,1.757,2.122,2.122,0,0,1-2.128-1.023.738.738,0,0,1-.06-.611.511.511,0,0,1,.522-.291,1.812,1.812,0,0,1,.849.4,3.694,3.694,0,0,1,.9.946,1.13,1.13,0,0,1,.212.428,5.887,5.887,0,0,0-1.226-1.213,1.7,1.7,0,0,0-.749-.329.273.273,0,0,0-.286.157.507.507,0,0,0,.063.4,1.9,1.9,0,0,0,1.855.866,1.588,1.588,0,0,0,1.322-1.472.612.612,0,0,0-.139-.4.281.281,0,0,0-.325-.055,1.329,1.329,0,0,0-.521.607,4.9,4.9,0,0,0-.466,1.654" transform="translate(-54.835 -194.534)" fill="#fff"/>
        <path id="Trazado_226171" data-name="Trazado 226171" d="M59.445,249.214a44.842,44.842,0,0,0-1.282,13.164c.151,2.808,9.168,83.925,9.168,83.925L78.8,345.272l-1.983-75.841.481.43s6.834,31.907,7.287,36.952c.407,4.534,5.862,40.957,5.862,40.957l11.132-.529L99.06,301.2l-3.377-41.8-1.352-12.177Z" transform="translate(-26.582 -113.103)" fill="#263238"/>
        <path id="Trazado_226172" data-name="Trazado 226172" d="M91.266,267.337a2.456,2.456,0,0,1-.54.288,6.143,6.143,0,0,1-1.594.517,3.331,3.331,0,0,1-1.177-.019,2.414,2.414,0,0,1-1.216-.619,2.914,2.914,0,0,1-.716-1.321c-.139-.5-.214-1.017-.307-1.544-.359-2.112-.59-4.039-.718-5.436-.065-.7-.105-1.265-.125-1.657a2.6,2.6,0,0,1,0-.611,2.734,2.734,0,0,1,.107.6c.056.445.127,1,.21,1.646.177,1.389.438,3.306.8,5.412a5.057,5.057,0,0,0,.931,2.734,2.653,2.653,0,0,0,2.191.625,7.209,7.209,0,0,0,1.58-.425,2.883,2.883,0,0,1,.58-.191" transform="translate(-38.823 -117.548)" fill="#455a64"/>
        <path id="Trazado_226173" data-name="Trazado 226173" d="M89.21,257.668c0-.012.084-.065.264-.072a1.145,1.145,0,0,1,.709.246,1.277,1.277,0,0,1,.515,1,1.266,1.266,0,0,1-2.174.759,1.274,1.274,0,0,1-.218-1.1,1.142,1.142,0,0,1,.4-.634c.145-.106.247-.12.251-.108a1.444,1.444,0,0,0-.467.782,1.117,1.117,0,0,0,.222.9,1.035,1.035,0,0,0,1.734-.605,1.113,1.113,0,0,0-.388-.844,1.443,1.443,0,0,0-.851-.322" transform="translate(-40.381 -117.85)" fill="#455a64"/>
        <path id="Trazado_226174" data-name="Trazado 226174" d="M118.825,264.574a1.381,1.381,0,0,1-.436.058,8.155,8.155,0,0,1-1.2-.014,11.6,11.6,0,0,1-7.1-3.185,8.088,8.088,0,0,1-.807-.885c-.173-.224-.261-.353-.247-.364.037-.031.436.448,1.183,1.109a12.879,12.879,0,0,0,6.988,3.135c.991.119,1.614.1,1.616.146" transform="translate(-49.884 -119.033)" fill="#455a64"/>
        <path id="Trazado_226175" data-name="Trazado 226175" d="M64.039,257.7a5.445,5.445,0,0,1-.693,1.287,14.633,14.633,0,0,1-5.136,4.768,5.419,5.419,0,0,1-1.335.6,13.816,13.816,0,0,1,1.238-.76,17.7,17.7,0,0,0,5.075-4.712,13.644,13.644,0,0,1,.85-1.178" transform="translate(-26.02 -117.898)" fill="#455a64"/>
        <path id="Trazado_226176" data-name="Trazado 226176" d="M44.994,173.239c-1.707,4.974-1.516,4.55-4.705,19.413-.588,2.742.45,7.029,2.922,8.352s6.868-.129,8.339-2.517l2.369-22.434Z" transform="translate(-18.358 -79.257)" fill="#ffc09d"/>
        <path id="Trazado_226177" data-name="Trazado 226177" d="M65.549,146.088" transform="translate(-29.989 -66.835)" fill="#ff725e"/>
        <path id="Trazado_226178" data-name="Trazado 226178" d="M87.339,185.292l-.066-11.819.047-1.159,12-2.8s-2.355-7.76-4.515-16.1a12.915,12.915,0,0,0-6.4-7.757v-.007l-.219-.1h0l-11.545-4.887c-2.331,2.487-5.73,4.482-9,3.527a10.234,10.234,0,0,1-4.747-3.241l-7.782,2.67v0a10.081,10.081,0,0,0-5.379,4.361c-1.629,2.88-6.83,16.087-6.921,16.382l9.636.865s-1.71,31.256-1.1,36.841c0,0,2.34,1.618,8.246,1.9,11.974.566,29.8-.285,29.8-.285-.279-1.8-.572-4.816-.737-6.342Z" transform="translate(-19.581 -64.353)" fill="url(#linear-gradient-13)"/>
        <path id="Trazado_226179" data-name="Trazado 226179" d="M60.05,164.488c.049,0-.208,7.456-.572,16.647s-.7,16.644-.748,16.642.207-7.455.572-16.649.7-16.642.748-16.64" transform="translate(-26.866 -75.253)" fill="#263238"/>
        <path id="Trazado_226180" data-name="Trazado 226180" d="M122.453,168.329c-.086,0,.157,6.619.541,14.773s.765,14.763.851,14.759-.157-6.617-.541-14.774-.765-14.761-.851-14.758" transform="translate(-56.015 -77.01)" fill="#263238"/>
        <path id="Trazado_226181" data-name="Trazado 226181" d="M128.337,196.382c-.391-2.933-.716-5.528-.716-5.528l-9.592,2.228.41,1.544-7.415-7.532-1.175.1-3.732,3.882a94.089,94.089,0,0,0,5.146,9.549c2.462,3.481,6.334,8.787,11.634,8.341,4.9-.412,6.141-7.322,5.44-12.585" transform="translate(-48.548 -85.595)" fill="#ffc09d"/>
        <path id="Trazado_226182" data-name="Trazado 226182" d="M133.605,204.643a12.053,12.053,0,0,0-4.613-3.321c-.042.079,1.057.72,2.324,1.636s2.227,1.75,2.289,1.684" transform="translate(-59.013 -92.102)" fill="#ff9b6c"/>
        <path id="Trazado_226183" data-name="Trazado 226183" d="M91.3,167.555l3.3-1.683,4.274,1.358,2.12,1.953,3.257,8.2,2.609,3.3-4.6,6-2.912-5.317a9.119,9.119,0,0,1-3.461-2.639c-.988-1.56-1.435-2.408-1.435-2.408s-1.428-.685-1.692-1.343a3.257,3.257,0,0,1-.252-1.17l.723-1.055a2.653,2.653,0,0,1,.217-1.345,1.313,1.313,0,0,1,.569-.452s-.212-.89.121-1.208a10.23,10.23,0,0,1,1.974-.9l-1.438-.816s-3.189.988-3.366-.471" transform="translate(-41.769 -75.886)" fill="#ffc09d"/>
        <path id="Trazado_226184" data-name="Trazado 226184" d="M98.465,174.429c0,.042-.506.054-1.109.184s-1.071.317-1.088.279a3.41,3.41,0,0,1,2.2-.463" transform="translate(-44.042 -79.783)" fill="#ff9b6c"/>
        <path id="Trazado_226185" data-name="Trazado 226185" d="M96.893,177.807c0,.041-.433.04-.953.12s-.932.206-.946.167a2.893,2.893,0,0,1,1.9-.288" transform="translate(-43.459 -81.32)" fill="#ff9b6c"/>
        <path id="Trazado_226186" data-name="Trazado 226186" d="M95.872,182.464c-.039,0-.067-.189-.062-.42s.04-.418.079-.417.066.189.062.42-.04.418-.079.417" transform="translate(-43.833 -83.094)" fill="#ff9b6c"/>
        <path id="Trazado_226187" data-name="Trazado 226187" d="M96.271,183.754a1.469,1.469,0,0,0-.968-1.239c0-.016.1-.027.261.023a1.132,1.132,0,0,1,.748.957c.01.164-.025.262-.041.259" transform="translate(-43.601 -83.495)" fill="#ff9b6c"/>
        <path id="Trazado_226188" data-name="Trazado 226188" d="M100.694,179.26a1.533,1.533,0,0,0-1.356-.757c0-.016.086-.061.246-.073a1.144,1.144,0,0,1,1.043.583c.074.143.082.243.067.248" transform="translate(-45.447 -81.63)" fill="#ff9b6c"/>
        <path id="Trazado_226189" data-name="Trazado 226189" d="M103.554,175.889c-.038.016-.167-.325-.527-.548a2.471,2.471,0,0,0-.719-.248c0-.017.086-.05.238-.048a1.134,1.134,0,0,1,.952.608c.066.136.073.231.056.236" transform="translate(-46.806 -80.083)" fill="#ff9b6c"/>
        <path id="Trazado_226190" data-name="Trazado 226190" d="M105.579,173.755c-.021,0-.011-.113-.035-.283a1.264,1.264,0,0,0-.749-1.009c-.155-.071-.263-.093-.261-.114s.117-.031.3.021a1.151,1.151,0,0,1,.814,1.1c0,.186-.048.293-.065.289" transform="translate(-47.824 -78.842)" fill="#ff9b6c"/>
        <path id="Trazado_226191" data-name="Trazado 226191" d="M101.358,170.974c0,.05-.691.061-1.522.187s-1.46.42-1.478.38a3.435,3.435,0,0,1,1.456-.519,6.713,6.713,0,0,1,1.092-.081,1.43,1.43,0,0,1,.452.033" transform="translate(-44.998 -78.205)" fill="#ff9b6c"/>
        <g id="Grupo_177452" data-name="Grupo 177452" transform="translate(32.006 106.831)" opacity="0.3">
          <g id="Grupo_177451" data-name="Grupo 177451">
            <g id="Grupo_177450" data-name="Grupo 177450" clip-path="url(#clip-path-22)">
              <path id="Trazado_226192" data-name="Trazado 226192" d="M73.965,201.383a5.915,5.915,0,0,0-.814-2.732c-.964-1.359-2.858-1.65-4.523-1.568s-3.391.407-4.958-.161L59,210.8a6.952,6.952,0,0,0,4.22-3.072,7.559,7.559,0,0,1,1.547-2.231c.995-.765,2.376-.653,3.631-.666a14.586,14.586,0,0,0,3.883-.572,2.591,2.591,0,0,0,1.423-.811,2.851,2.851,0,0,0,.263-2.066" transform="translate(-58.998 -196.923)"/>
            </g>
          </g>
        </g>
        <path id="Trazado_226193" data-name="Trazado 226193" d="M64.383,173.384l1.452,15.444a2.171,2.171,0,0,0,.955,1.778l9.367-.2a3.7,3.7,0,0,0,.717-2.626L75.836,173c-.062-.888-.394-1.53-.8-1.54l-9.866-.227c-.5-.012-.893,1.053-.79,2.152" transform="translate(-29.448 -78.338)" fill="#263238"/>
        <path id="Trazado_226194" data-name="Trazado 226194" d="M61.652,178.91a1.36,1.36,0,0,1,.03-1.675,2.071,2.071,0,0,1,1.6-.713,4.524,4.524,0,0,1,1.757.407,11.481,11.481,0,0,1,1.98,1.045,1.913,1.913,0,0,1,.971,1.19c.075.522-.5,1.1-.956.832a2.211,2.211,0,0,1,1.257,1.569c.08.661-.28,1.007-.922,1.182a.991.991,0,0,1,.544,1.282,1.14,1.14,0,0,1-1.438.4,3.32,3.32,0,0,1-1.22-1.073,3.753,3.753,0,0,1,.167,2.353c-1.4-.514-2.774-2.067-2.358-3.544a2,2,0,0,1-.561-2.392,1.959,1.959,0,0,1-1.129-1.663" transform="translate(-28.079 -80.759)" fill="#ffc09d"/>
        <path id="Trazado_226195" data-name="Trazado 226195" d="M53.439,178.442l-.112,6.6-1.712,2.574-7.853,7.019s1.165,9.542,4.708,8.5,4.4-1.72,6.5-5.569c1.123-2.062,1.814-5.414,2.461-7.339.379-1.128.046-4.762.046-4.762Z" transform="translate(-20.021 -81.637)" fill="#ffc09d"/>
        <path id="Trazado_226196" data-name="Trazado 226196" d="M68.731,186.7a5.355,5.355,0,0,1-.6-.48,4.108,4.108,0,0,0-1.586-.858,2.2,2.2,0,0,0-.977-.021,1.816,1.816,0,0,0-.721.34,2.281,2.281,0,0,0-.478.575.423.423,0,0,1,.059-.2,1.428,1.428,0,0,1,.349-.457,1.821,1.821,0,0,1,.758-.394,2.228,2.228,0,0,1,1.045.009,3.777,3.777,0,0,1,1.621.926,2.969,2.969,0,0,1,.528.563" transform="translate(-29.448 -84.702)" fill="#ff9b6c"/>
        <path id="Trazado_226197" data-name="Trazado 226197" d="M68.164,182.05a3.228,3.228,0,0,1-.732-.326c-.22-.111-.48-.246-.78-.362a6.654,6.654,0,0,0-1.007-.286,2.924,2.924,0,0,0-1.028-.034,1.878,1.878,0,0,0-.77.314,1.922,1.922,0,0,0-.511.582.433.433,0,0,1,.063-.209,1.368,1.368,0,0,1,.382-.46,1.874,1.874,0,0,1,.809-.366,2.871,2.871,0,0,1,1.083.022,5.97,5.97,0,0,1,1.031.305,6.655,6.655,0,0,1,.778.4,5.561,5.561,0,0,1,.68.422" transform="translate(-28.975 -82.744)" fill="#ff9b6c"/>
        <path id="Trazado_226198" data-name="Trazado 226198" d="M45.043,203.823a6.456,6.456,0,0,1-.1-2.46,7.477,7.477,0,0,1,.928-2.5,12.12,12.12,0,0,1,2.075-2.544c.845-.815,1.714-1.527,2.488-2.2a24.653,24.653,0,0,0,1.984-1.871,11,11,0,0,0,1.145-1.443,2.65,2.65,0,0,0,.327-.591,4.612,4.612,0,0,0-.41.533,13.931,13.931,0,0,1-1.195,1.374c-.539.549-1.224,1.16-2.007,1.816s-1.658,1.368-2.514,2.193a11.831,11.831,0,0,0-2.1,2.611,7.348,7.348,0,0,0-.9,2.588,5.231,5.231,0,0,0,.06,1.847,3.385,3.385,0,0,0,.144.482c.041.107.066.162.075.159" transform="translate(-20.456 -87.026)" fill="#ff9b6c"/>
      </g>
    </g>
  </g>
</svg>
