<svg xmlns="http://www.w3.org/2000/svg" xmlns:xlink="http://www.w3.org/1999/xlink" width="348.403" height="240.333" viewBox="0 0 348.403 240.333">
  <defs>
    <clipPath id="clip-path">
      <rect id="Rectángulo_57231" data-name="Rectángulo 57231" width="323.676" height="240.333" fill="none"/>
    </clipPath>
    <clipPath id="clip-path-6">
      <rect id="Rectángulo_57225" data-name="Rectángulo 57225" width="46.036" height="5.774" fill="none"/>
    </clipPath>
    <clipPath id="clip-path-7">
      <rect id="Rectángulo_57226" data-name="Rectángulo 57226" width="13.36" height="23.526" fill="none"/>
    </clipPath>
    <clipPath id="clip-path-8">
      <rect id="Rectángulo_57227" data-name="Rectángulo 57227" width="7.507" height="26.668" fill="none"/>
    </clipPath>
  </defs>
  <g id="Grupo_177602" data-name="Grupo 177602" transform="translate(6.026)">
    <g id="Grupo_177601" data-name="Grupo 177601" clip-path="url(#clip-path)">
      <rect id="Rectángulo_57205" data-name="Rectángulo 57205" width="4.621" height="22.996" transform="translate(290.158 18.409) rotate(-0.31)" fill="#e0e0e0"/>
      <rect id="Rectángulo_57206" data-name="Rectángulo 57206" width="11.968" height="12.695" transform="translate(250.123 18.509) rotate(-0.307)" fill="#ebebeb"/>
      <rect id="Rectángulo_57207" data-name="Rectángulo 57207" width="11.968" height="12.695" transform="translate(262.034 18.445) rotate(-0.307)" fill="#f5f5f5"/>
      <g id="Grupo_177583" data-name="Grupo 177583">
        <g id="Grupo_177582" data-name="Grupo 177582" clip-path="url(#clip-path)">
          <path id="Trazado_226656" data-name="Trazado 226656" d="M460.465,40.212q11.93.1,23.878-.11a.127.127,0,0,0,0-.254c-7.953-.044-15.926,0-23.878.146a.109.109,0,0,0,0,.218" transform="translate(-210.323 -18.197)" fill="#e0e0e0"/>
          <rect id="Rectángulo_57208" data-name="Rectángulo 57208" width="21.743" height="10.345" transform="matrix(1, -0.005, 0.005, 1, 242.662, 31.044)" fill="#ebebeb"/>
          <rect id="Rectángulo_57209" data-name="Rectángulo 57209" width="21.743" height="10.345" transform="matrix(1, -0.005, 0.005, 1, 264.302, 30.928)" fill="#f5f5f5"/>
          <path id="Trazado_226657" data-name="Trazado 226657" d="M446.721,62.027c14.444.163,28.939.017,43.382-.214a.127.127,0,0,0,0-.255c-14.445-.076-28.941-.068-43.382.25a.109.109,0,0,0,0,.218" transform="translate(-204.043 -28.106)" fill="#e0e0e0"/>
          <rect id="Rectángulo_57210" data-name="Rectángulo 57210" width="84.238" height="3.706" transform="translate(234.546 41.389)" fill="#e0e0e0"/>
          <rect id="Rectángulo_57211" data-name="Rectángulo 57211" width="3.42" height="12.647" transform="translate(248.338 43.171)" fill="#e0e0e0"/>
          <rect id="Rectángulo_57212" data-name="Rectángulo 57212" width="3.42" height="12.647" transform="translate(299.386 43.171)" fill="#e0e0e0"/>
          <rect id="Rectángulo_57213" data-name="Rectángulo 57213" width="4.621" height="31.627" transform="translate(294.668 9.834) rotate(-0.31)" fill="#ebebeb"/>
          <rect id="Rectángulo_57214" data-name="Rectángulo 57214" width="7.181" height="25.63" transform="translate(299.33 15.735) rotate(-0.308)" fill="#f5f5f5"/>
          <path id="Trazado_226658" data-name="Trazado 226658" d="M558.208,37.887a51.884,51.884,0,0,1-7.181,0,51.884,51.884,0,0,1,7.181,0" transform="translate(-251.746 -17.253)" fill="#e0e0e0"/>
          <path id="Trazado_226659" data-name="Trazado 226659" d="M558.208,35.9a51.882,51.882,0,0,1-7.181,0,51.885,51.885,0,0,1,7.181,0" transform="translate(-251.746 -16.347)" fill="#e0e0e0"/>
          <path id="Trazado_226660" data-name="Trazado 226660" d="M558.208,68.884a51.882,51.882,0,0,1-7.181,0,51.885,51.885,0,0,1,7.181,0" transform="translate(-251.746 -31.414)" fill="#e0e0e0"/>
          <path id="Trazado_226661" data-name="Trazado 226661" d="M558.208,66.9a51.885,51.885,0,0,1-7.181,0,51.882,51.882,0,0,1,7.181,0" transform="translate(-251.746 -30.509)" fill="#e0e0e0"/>
          <path id="Trazado_226662" data-name="Trazado 226662" d="M557.746,52.965c-.069,0-.124-2.586-.124-5.775s.055-5.776.124-5.776.124,2.585.124,5.776-.056,5.775-.124,5.775" transform="translate(-254.759 -18.921)" fill="#e0e0e0"/>
          <rect id="Rectángulo_57215" data-name="Rectángulo 57215" width="7.816" height="19.345" transform="translate(306.54 21.99)" fill="#ebebeb"/>
          <path id="Trazado_226663" data-name="Trazado 226663" d="M546.875,26.886a1.328,1.328,0,1,1-1.328-1.329,1.328,1.328,0,0,1,1.328,1.329" transform="translate(-248.635 -11.676)" fill="#e0e0e0"/>
          <rect id="Rectángulo_57216" data-name="Rectángulo 57216" width="0.821" height="18.814" transform="translate(296.5 18.862)" fill="#e0e0e0"/>
          <rect id="Rectángulo_57217" data-name="Rectángulo 57217" width="52.858" height="50.804" transform="translate(270.696 66.99)" fill="#fff"/>
          <rect id="Rectángulo_57218" data-name="Rectángulo 57218" width="52.858" height="3.805" transform="translate(270.696 66.99)" fill="#f5f5f5"/>
          <path id="Trazado_226664" data-name="Trazado 226664" d="M508.117,210.088h43.151v-8.074H498.426v8.074h2.755" transform="translate(-227.714 -92.293)" fill="#ebebeb"/>
          <path id="Trazado_226665" data-name="Trazado 226665" d="M510.965,126.5a.711.711,0,1,1-.711-.711.711.711,0,0,1,.711.711" transform="translate(-232.793 -57.468)" fill="#fff"/>
          <path id="Trazado_226666" data-name="Trazado 226666" d="M503.029,126.5a.711.711,0,1,1-.711-.711.711.711,0,0,1,.711.711" transform="translate(-229.167 -57.468)" fill="#fff"/>
          <path id="Trazado_226667" data-name="Trazado 226667" d="M507,126.5a.711.711,0,1,1-.711-.711.711.711,0,0,1,.711.711" transform="translate(-230.98 -57.468)" fill="#fff"/>
          <path id="Trazado_226668" data-name="Trazado 226668" d="M583.442,141.056h0a3.351,3.351,0,1,1,3.351-3.351,3.351,3.351,0,0,1-3.351,3.351" transform="translate(-265.024 -61.382)" fill="#f5f5f5"/>
          <path id="Trazado_226669" data-name="Trazado 226669" d="M585.116,139.691a.534.534,0,1,0-.325,0,.931.931,0,0,0-.781.918h1.864a.932.932,0,0,0-.758-.915" transform="translate(-266.815 -63.343)" fill="#e0e0e0"/>
          <path id="Trazado_226670" data-name="Trazado 226670" d="M587.9,140.011a.077.077,0,0,1-.077-.077v-.858a.077.077,0,0,1,.154,0v.858a.077.077,0,0,1-.077.077" transform="translate(-268.558 -63.504)" fill="#e0e0e0"/>
          <path id="Trazado_226671" data-name="Trazado 226671" d="M587.973,139.944h-.858a.077.077,0,1,1,0-.154h.858a.077.077,0,1,1,0,.154" transform="translate(-268.198 -63.865)" fill="#e0e0e0"/>
          <path id="Trazado_226672" data-name="Trazado 226672" d="M541.984,168.465h0a8.847,8.847,0,1,1,8.848-8.848,8.848,8.848,0,0,1-8.848,8.848" transform="translate(-243.572 -68.882)" fill="#f5f5f5"/>
          <path id="Trazado_226673" data-name="Trazado 226673" d="M546.951,163.98a2.167,2.167,0,1,0-1.315-.014,3.776,3.776,0,0,0-3.165,3.724h7.556a3.777,3.777,0,0,0-3.075-3.71" transform="translate(-247.836 -72.983)" fill="#e0e0e0"/>
          <path id="Trazado_226674" data-name="Trazado 226674" d="M564.792,206.944a2.51,2.51,0,1,1-2.51-2.51,2.51,2.51,0,0,1,2.51,2.51" transform="translate(-255.741 -93.399)" fill="#e0e0e0"/>
          <path id="Trazado_226675" data-name="Trazado 226675" d="M563.687,209.258h-.649a.3.3,0,0,1-.3-.3v-.649a.3.3,0,0,1,.3-.3h.649a.3.3,0,0,1,.3.3v.649a.3.3,0,0,1-.3.3" transform="translate(-257.095 -95.031)" fill="#fff"/>
          <path id="Trazado_226676" data-name="Trazado 226676" d="M565.25,208.907v-.424l.317-.339a.068.068,0,0,1,.118.047v.964a.068.068,0,0,1-.115.05Z" transform="translate(-258.244 -95.084)" fill="#fff"/>
          <path id="Trazado_226677" data-name="Trazado 226677" d="M546.648,208.788a2.474,2.474,0,1,1,3.5,0,2.475,2.475,0,0,1-3.5,0" transform="translate(-249.414 -93.458)" fill="#e0e0e0"/>
          <path id="Trazado_226678" data-name="Trazado 226678" d="M548.327,209.152l.441-.1a.121.121,0,0,0,.093-.117v-.091s-.019-.154.127-.164c.1-.007.769,0,.769,0s.174,0,.171.134v.133a.1.1,0,0,0,.074.1l.479.144a.1.1,0,0,0,.125-.059l.061-.148a.2.2,0,0,0,.015-.085.417.417,0,0,0-.083-.221,1.806,1.806,0,0,0-1.4-.368c-.812.039-.989.382-1.036.464a.35.35,0,0,0-.015.228l.035.084a.121.121,0,0,0,.139.071" transform="translate(-250.427 -95.166)" fill="#fff"/>
          <path id="Trazado_226679" data-name="Trazado 226679" d="M536.962,207a2.488,2.488,0,1,1-2.488-2.488A2.488,2.488,0,0,1,536.962,207" transform="translate(-243.046 -93.436)" fill="#e0e0e0"/>
          <path id="Trazado_226680" data-name="Trazado 226680" d="M534.906,209.133a.245.245,0,1,1,.245-.245.245.245,0,0,1-.245.245" transform="translate(-244.269 -95.322)" fill="#fff"/>
          <path id="Trazado_226681" data-name="Trazado 226681" d="M536.311,209.133a.245.245,0,1,1,.245-.245.245.245,0,0,1-.245.245" transform="translate(-244.91 -95.322)" fill="#fff"/>
          <path id="Trazado_226682" data-name="Trazado 226682" d="M537.815,209.133a.245.245,0,1,1,.245-.245.245.245,0,0,1-.245.245" transform="translate(-245.598 -95.322)" fill="#fff"/>
          <path id="Trazado_226683" data-name="Trazado 226683" d="M506.137,138.8a1.61,1.61,0,1,1-1.61-1.61,1.61,1.61,0,0,1,1.61,1.61" transform="translate(-229.766 -62.676)" fill="#e0e0e0"/>
          <path id="Trazado_226684" data-name="Trazado 226684" d="M517.2,139.552a31.72,31.72,0,0,1-5.979,0,31.716,31.716,0,0,1,5.979,0" transform="translate(-233.557 -63.692)" fill="#e0e0e0"/>
          <path id="Trazado_226685" data-name="Trazado 226685" d="M551.988,188.318c0,.078-5.4.141-12.058.141s-12.058-.063-12.058-.141,5.4-.141,12.058-.141,12.058.063,12.058.141" transform="translate(-241.167 -85.972)" fill="#e0e0e0"/>
          <path id="Trazado_226686" data-name="Trazado 226686" d="M551.136,174.025s0-.084-.007-.242,0-.4-.006-.7c0-.624-.008-1.538-.014-2.728-.008-2.389-.018-5.881-.031-10.326-.015-8.884-.036-21.569-.062-36.805l.122.122-52.853.02h0l.141-.142c-.007,18.563-.013,35.983-.018,50.8l-.123-.123,38.264.062L547.3,174l2.846.014.733.007c.165,0,.253.007.253.007s-.078,0-.239.007l-.72.007-2.822.014-10.734.032-38.343.063h-.123v-.123c0-14.821-.011-32.241-.018-50.8v-.141h.146l52.853.02h.122v.121c-.026,15.269-.047,27.98-.062,36.883-.014,4.433-.024,7.916-.031,10.3-.006,1.18-.011,2.086-.014,2.7,0,.3-.005.529-.007.69s-.007.229-.007.229" transform="translate(-227.582 -56.231)" fill="#ebebeb"/>
          <path id="Trazado_226687" data-name="Trazado 226687" d="M127.658,306.176H64.95V245.9h62.708Z" transform="translate(-29.673 -112.345)" fill="#fff"/>
          <rect id="Rectángulo_57219" data-name="Rectángulo 57219" width="62.708" height="4.514" transform="translate(35.277 133.559)" fill="#f5f5f5"/>
          <path id="Trazado_226688" data-name="Trazado 226688" d="M76.482,348.816h51.191v-9.579H64.984v9.579h3.269" transform="translate(-29.689 -154.986)" fill="#ebebeb"/>
          <path id="Trazado_226689" data-name="Trazado 226689" d="M79.862,249.65a.844.844,0,1,1-.843-.843.843.843,0,0,1,.843.843" transform="translate(-35.715 -113.672)" fill="#fff"/>
          <path id="Trazado_226690" data-name="Trazado 226690" d="M70.447,249.65a.844.844,0,1,1-.844-.843.843.843,0,0,1,.844.843" transform="translate(-31.414 -113.672)" fill="#fff"/>
          <path id="Trazado_226691" data-name="Trazado 226691" d="M75.155,249.65a.844.844,0,1,1-.843-.843.843.843,0,0,1,.843.843" transform="translate(-33.565 -113.672)" fill="#fff"/>
          <path id="Trazado_226692" data-name="Trazado 226692" d="M165.842,266.922h0a3.975,3.975,0,1,1,3.975-3.975,3.975,3.975,0,0,1-3.975,3.975" transform="translate(-73.952 -118.316)" fill="#f5f5f5"/>
          <path id="Trazado_226693" data-name="Trazado 226693" d="M167.829,265.3a.634.634,0,1,0-.385,0,1.105,1.105,0,0,0-.927,1.09h2.212a1.106,1.106,0,0,0-.9-1.086" transform="translate(-76.076 -120.641)" fill="#e0e0e0"/>
          <path id="Trazado_226694" data-name="Trazado 226694" d="M171.137,265.682a.091.091,0,0,1-.091-.091v-1.017a.091.091,0,1,1,.182,0v1.017a.091.091,0,0,1-.091.091" transform="translate(-78.145 -120.833)" fill="#e0e0e0"/>
          <path id="Trazado_226695" data-name="Trazado 226695" d="M171.218,265.6H170.2a.091.091,0,1,1,0-.182h1.018a.091.091,0,1,1,0,.182" transform="translate(-77.717 -121.261)" fill="#e0e0e0"/>
          <path id="Trazado_226696" data-name="Trazado 226696" d="M116.659,299.437h0a10.5,10.5,0,1,1,10.5-10.5,10.5,10.5,0,0,1-10.5,10.5" transform="translate(-48.502 -127.212)" fill="#f5f5f5"/>
          <path id="Trazado_226697" data-name="Trazado 226697" d="M122.553,294.117a2.57,2.57,0,1,0-1.56-.016,4.478,4.478,0,0,0-3.755,4.417H126.2a4.481,4.481,0,0,0-3.647-4.4" transform="translate(-53.562 -132.078)" fill="#e0e0e0"/>
          <path id="Trazado_226698" data-name="Trazado 226698" d="M143.718,345.086a2.977,2.977,0,1,1-2.977-2.977,2.977,2.977,0,0,1,2.977,2.977" transform="translate(-62.939 -156.298)" fill="#e0e0e0"/>
          <path id="Trazado_226699" data-name="Trazado 226699" d="M142.462,347.831h-.883a.3.3,0,0,1-.3-.3v-.883a.3.3,0,0,1,.3-.3h.883a.3.3,0,0,1,.3.3v.883a.3.3,0,0,1-.3.3" transform="translate(-64.545 -158.234)" fill="#fff"/>
          <path id="Trazado_226700" data-name="Trazado 226700" d="M144.262,347.415v-.5l.376-.4a.081.081,0,0,1,.14.055v1.144a.081.081,0,0,1-.136.059Z" transform="translate(-65.908 -158.297)" fill="#fff"/>
          <path id="Trazado_226701" data-name="Trazado 226701" d="M122.194,347.275a2.935,2.935,0,1,1,4.151,0,2.935,2.935,0,0,1-4.151,0" transform="translate(-55.433 -156.369)" fill="#e0e0e0"/>
          <path id="Trazado_226702" data-name="Trazado 226702" d="M124.185,347.706l.524-.123a.143.143,0,0,0,.11-.139v-.108s-.023-.183.15-.194c.124-.008.911,0,.911,0s.207,0,.2.159v.157a.122.122,0,0,0,.087.117l.568.172a.123.123,0,0,0,.149-.071l.072-.175a.233.233,0,0,0,.018-.1.5.5,0,0,0-.1-.262,2.146,2.146,0,0,0-1.655-.436c-.964.047-1.174.453-1.229.55a.414.414,0,0,0-.018.271l.042.1a.143.143,0,0,0,.165.084" transform="translate(-56.635 -158.394)" fill="#fff"/>
          <path id="Trazado_226703" data-name="Trazado 226703" d="M110.7,345.155a2.951,2.951,0,1,1-2.951-2.951,2.951,2.951,0,0,1,2.951,2.951" transform="translate(-47.879 -156.341)" fill="#e0e0e0"/>
          <path id="Trazado_226704" data-name="Trazado 226704" d="M108.263,347.685a.291.291,0,1,1,.291-.291.291.291,0,0,1-.291.291" transform="translate(-49.329 -158.58)" fill="#fff"/>
          <path id="Trazado_226705" data-name="Trazado 226705" d="M109.93,347.685a.291.291,0,1,1,.291-.291.291.291,0,0,1-.291.291" transform="translate(-50.09 -158.58)" fill="#fff"/>
          <path id="Trazado_226706" data-name="Trazado 226706" d="M111.713,347.685a.291.291,0,1,1,.291-.291.291.291,0,0,1-.291.291" transform="translate(-50.905 -158.58)" fill="#fff"/>
          <path id="Trazado_226707" data-name="Trazado 226707" d="M74.133,264.242a1.91,1.91,0,1,1-1.91-1.91,1.91,1.91,0,0,1,1.91,1.91" transform="translate(-32.124 -119.851)" fill="#e0e0e0"/>
          <path id="Trazado_226708" data-name="Trazado 226708" d="M87.252,265.159a22.37,22.37,0,0,1-3.547.141,22.369,22.369,0,0,1-3.547-.141,22.355,22.355,0,0,1,3.547-.141,22.357,22.357,0,0,1,3.547.141" transform="translate(-36.621 -121.078)" fill="#e0e0e0"/>
          <path id="Trazado_226709" data-name="Trazado 226709" d="M128.528,323.012c0,.078-6.405.141-14.3.141s-14.306-.063-14.306-.141,6.4-.141,14.306-.141,14.3.063,14.3.141" transform="translate(-45.649 -147.509)" fill="#e0e0e0"/>
          <path id="Trazado_226710" data-name="Trazado 226710" d="M127.539,306.057s0-.1-.007-.286,0-.469-.007-.832c0-.738-.008-1.821-.014-3.234-.007-2.831-.018-6.974-.031-12.248-.015-10.54-.036-25.591-.062-43.671l.122.121-62.7.02h-.005l.141-.141c-.007,22.021-.013,42.688-.018,60.27l-.123-.123,45.4.063,12.765.032,3.374.014.869.007c.2,0,.3.007.3.007s-.093,0-.285.007l-.855.007-3.35.014-12.737.032-45.48.063h-.123v-.123c-.005-17.582-.012-38.25-.018-60.27v-.142h.147l62.7.02h.122v.122c-.026,18.111-.047,33.19-.062,43.748-.014,5.262-.024,9.4-.032,12.221-.006,1.4-.011,2.478-.014,3.21q0,.536-.007.819c0,.183-.007.273-.007.273" transform="translate(-29.555 -112.227)" fill="#ebebeb"/>
        </g>
      </g>
      <g id="Grupo_177585" data-name="Grupo 177585">
        <g id="Grupo_177584" data-name="Grupo 177584" clip-path="url(#clip-path)">
          <path id="Trazado_226711" data-name="Trazado 226711" d="M374.28,180.344V208.4l-9.6,10.356h9.6v50.007h91.989V180.344Z" transform="translate(-166.608 -82.393)" fill="#fff"/>
          <rect id="Rectángulo_57221" data-name="Rectángulo 57221" width="91.989" height="6.622" transform="translate(207.704 98.047)" fill="#f5f5f5"/>
          <path id="Trazado_226712" data-name="Trazado 226712" d="M382.466,317.437v14.051h91.962V317.437Z" transform="translate(-174.736 -145.026)" fill="#ebebeb"/>
          <path id="Trazado_226713" data-name="Trazado 226713" d="M404.29,186.016a1.238,1.238,0,1,1-1.238-1.237,1.238,1.238,0,0,1,1.238,1.237" transform="translate(-183.576 -84.419)" fill="#fff"/>
          <path id="Trazado_226714" data-name="Trazado 226714" d="M390.48,186.016a1.238,1.238,0,1,1-1.238-1.237,1.238,1.238,0,0,1,1.238,1.237" transform="translate(-177.266 -84.419)" fill="#fff"/>
          <path id="Trazado_226715" data-name="Trazado 226715" d="M397.385,186.016a1.238,1.238,0,1,1-1.238-1.237,1.238,1.238,0,0,1,1.238,1.237" transform="translate(-180.421 -84.419)" fill="#fff"/>
          <path id="Trazado_226716" data-name="Trazado 226716" d="M530.422,211.352h0a5.831,5.831,0,1,1,5.831-5.831,5.831,5.831,0,0,1-5.831,5.831" transform="translate(-239.668 -91.232)" fill="#ebebeb"/>
          <path id="Trazado_226717" data-name="Trazado 226717" d="M533.336,208.976a.93.93,0,1,0-.565-.006,1.621,1.621,0,0,0-1.359,1.6h3.244a1.622,1.622,0,0,0-1.32-1.593" transform="translate(-242.784 -94.644)" fill="#263238"/>
          <path id="Trazado_226718" data-name="Trazado 226718" d="M538.19,209.534a.134.134,0,0,1-.134-.134v-1.493a.134.134,0,0,1,.268,0V209.4a.134.134,0,0,1-.134.134" transform="translate(-245.82 -94.925)" fill="#263238"/>
          <path id="Trazado_226719" data-name="Trazado 226719" d="M538.308,209.416h-1.493a.134.134,0,0,1,0-.268h1.493a.134.134,0,0,1,0,.268" transform="translate(-245.191 -95.553)" fill="#263238"/>
          <path id="Trazado_226720" data-name="Trazado 226720" d="M497.966,326.017a4.368,4.368,0,1,1-4.368-4.368,4.368,4.368,0,0,1,4.368,4.368" transform="translate(-223.513 -146.951)" fill="#12263f"/>
          <path id="Trazado_226721" data-name="Trazado 226721" d="M495.869,330.044h-.784a.7.7,0,0,1-.7-.7v-.784a.7.7,0,0,1,.7-.7h.784a.7.7,0,0,1,.7.7v.784a.7.7,0,0,1-.7.7" transform="translate(-225.869 -149.79)" fill="#fff"/>
          <path id="Trazado_226722" data-name="Trazado 226722" d="M498.764,329.435V328.7l.551-.59a.119.119,0,0,1,.205.081v1.678a.119.119,0,0,1-.2.087Z" transform="translate(-227.869 -149.883)" fill="#fff"/>
          <path id="Trazado_226723" data-name="Trazado 226723" d="M466.391,329.227a4.306,4.306,0,1,1,6.09,0,4.307,4.307,0,0,1-6.09,0" transform="translate(-212.502 -147.054)" fill="#eeac3a"/>
          <path id="Trazado_226724" data-name="Trazado 226724" d="M469.311,329.861l.768-.181a.209.209,0,0,0,.162-.2v-.158s-.033-.269.221-.286c.182-.012,1.337,0,1.337,0s.3-.006.3.234v.23a.179.179,0,0,0,.128.172l.833.252a.179.179,0,0,0,.218-.1l.106-.257a.339.339,0,0,0,.027-.148.717.717,0,0,0-.143-.385,3.145,3.145,0,0,0-2.428-.64c-1.414.068-1.722.664-1.8.807a.606.606,0,0,0-.027.4c.015.034.039.091.062.147a.21.21,0,0,0,.242.124" transform="translate(-214.264 -150.025)" fill="#fff"/>
          <path id="Trazado_226725" data-name="Trazado 226725" d="M449.532,326.119a4.33,4.33,0,1,1-4.33-4.33,4.33,4.33,0,0,1,4.33,4.33" transform="translate(-201.42 -147.015)" fill="#43a99b"/>
          <path id="Trazado_226726" data-name="Trazado 226726" d="M445.955,329.829a.427.427,0,1,1,.427-.427.427.427,0,0,1-.427.427" transform="translate(-203.547 -150.298)" fill="#fff"/>
          <path id="Trazado_226727" data-name="Trazado 226727" d="M448.4,329.829a.427.427,0,1,1,.427-.427.427.427,0,0,1-.427.427" transform="translate(-204.664 -150.298)" fill="#fff"/>
          <path id="Trazado_226728" data-name="Trazado 226728" d="M451.016,329.829a.427.427,0,1,1,.427-.427.427.427,0,0,1-.427.427" transform="translate(-205.859 -150.298)" fill="#fff"/>
          <path id="Trazado_226729" data-name="Trazado 226729" d="M397.523,208.783a2.8,2.8,0,1,1-2.8-2.8,2.8,2.8,0,0,1,2.8,2.8" transform="translate(-179.055 -94.106)" fill="#455a64"/>
          <path id="Trazado_226730" data-name="Trazado 226730" d="M420.335,211.95c0,.078-3.5.141-7.8.141s-7.805-.063-7.805-.141,3.495-.141,7.805-.141,7.8.063,7.8.141" transform="translate(-184.905 -96.768)" fill="#455a64"/>
          <path id="Trazado_226731" data-name="Trazado 226731" d="M374.167,180.419s.138,0,.419-.007l1.252-.007,4.9-.014,18.651-.031,66.764-.062h.122v.122c.006,25.721.013,56.014.02,88.415v.142H459.48l-85.313-.016h-.053l-.036-.037h0l-.037-.037v-.052c.011-18.892.021-35.759.029-50.006l.1.1-9.6-.009h-.2l.139-.149,9.614-10.347-.02.051c.018-9,.032-16.017.041-20.791.008-2.376.014-4.193.018-5.42q0-.911.008-1.381c0-.308.007-.461.007-.461s0,.162.007.475,0,.78.008,1.393c0,1.231.01,3.053.018,5.437.009,4.764.023,11.768.041,20.747v.029l-.02.021-9.592,10.367-.065-.15,9.6-.008h.1v.1c.008,14.247.018,31.114.029,50.006l-.037-.089-.089-.036,85.313-.016h6.676l-.141.141c.007-32.4.014-62.694.02-88.415l.122.122-66.686-.062-18.679-.032-4.926-.014-1.267-.007c-.285,0-.432-.007-.432-.007" transform="translate(-166.463 -82.372)" fill="#263238"/>
          <path id="Trazado_226732" data-name="Trazado 226732" d="M491.406,264.2c0,.078-2.528.252-5.653.388s-5.663.184-5.666.106,2.527-.252,5.653-.388a56.658,56.658,0,0,1,5.665-.106" transform="translate(-219.336 -120.687)" fill="#fff"/>
          <path id="Trazado_226733" data-name="Trazado 226733" d="M448.847,218.1c.5-2.718,1.148-5.511,2.823-7.709s4.637-3.64,7.254-2.755l3.227,1.87A98.594,98.594,0,0,1,457.6,231.6a4.829,4.829,0,0,1-1.006,1.955c-1.047,1.06-2.754.963-4.234.791-1.787-.206-3.873-.618-4.637-2.245a5.207,5.207,0,0,1-.278-2.555,98.964,98.964,0,0,1,1.4-11.445" transform="translate(-204.407 -94.743)" fill="#12263f"/>
          <path id="Trazado_226734" data-name="Trazado 226734" d="M469.326,215.41l-9.942-3.3c-3.219-.58-5.667,3.257-6.11,6.5a58.175,58.175,0,0,0-.719,10.745c.466,5.489,4.574,6.483,4.574,6.483a13.2,13.2,0,0,0-.322,4.132c.258,3.738,2.668,4.7,4.643,4.841,3.114.328,6.365-.659,6.723-3.77l2.717-23.568a1.914,1.914,0,0,0-1.566-2.061" transform="translate(-206.729 -96.879)" fill="#ffbe9d"/>
          <path id="Trazado_226735" data-name="Trazado 226735" d="M456.516,231.464a.7.7,0,0,0,.62.751.668.668,0,0,0,.764-.575.7.7,0,0,0-.619-.751.667.667,0,0,0-.764.575" transform="translate(-208.565 -105.483)" fill="#263238"/>
          <path id="Trazado_226736" data-name="Trazado 226736" d="M455.9,228.795c.08.1.635-.255,1.384-.2s1.27.471,1.358.386c.043-.037-.033-.208-.26-.4a1.915,1.915,0,0,0-1.079-.421,1.838,1.838,0,0,0-1.11.271c-.243.16-.333.318-.294.362" transform="translate(-208.281 -104.237)" fill="#263238"/>
          <path id="Trazado_226737" data-name="Trazado 226737" d="M469.019,233.176a.7.7,0,0,0,.62.751.667.667,0,0,0,.763-.575.7.7,0,0,0-.619-.751.667.667,0,0,0-.764.575" transform="translate(-214.277 -106.265)" fill="#263238"/>
          <path id="Trazado_226738" data-name="Trazado 226738" d="M469.678,230.188c.08.1.636-.255,1.384-.2s1.27.471,1.358.386c.043-.037-.032-.208-.26-.4a1.917,1.917,0,0,0-1.079-.421,1.845,1.845,0,0,0-1.11.271c-.243.16-.333.318-.294.362" transform="translate(-214.576 -104.874)" fill="#263238"/>
          <path id="Trazado_226739" data-name="Trazado 226739" d="M462.173,234.408a4.992,4.992,0,0,0-1.2-.309c-.19-.034-.368-.085-.391-.217a.973.973,0,0,1,.169-.558l.672-1.415a25.116,25.116,0,0,0,1.548-3.716,25.063,25.063,0,0,0-1.843,3.583q-.34.746-.649,1.425a1.108,1.108,0,0,0-.154.743.482.482,0,0,0,.294.3,1.3,1.3,0,0,0,.321.068,4.9,4.9,0,0,0,1.233.092" transform="translate(-210.297 -104.254)" fill="#263238"/>
          <path id="Trazado_226740" data-name="Trazado 226740" d="M460.948,254.676a14.671,14.671,0,0,0,7.72-1.386s-2.423,3.661-7.817,2.757Z" transform="translate(-210.547 -115.72)" fill="#eb996e"/>
          <path id="Trazado_226741" data-name="Trazado 226741" d="M469.017,226.087c.059.209.814.167,1.685.337.874.153,1.564.461,1.693.287.059-.084-.051-.284-.323-.5a2.985,2.985,0,0,0-2.574-.476c-.332.106-.506.255-.481.354" transform="translate(-214.277 -103.079)" fill="#12263f"/>
          <path id="Trazado_226742" data-name="Trazado 226742" d="M455.811,224.659c.151.182.8.052,1.573.1.771.026,1.413.218,1.576.051.072-.081-.018-.26-.291-.441a2.58,2.58,0,0,0-1.258-.372,2.527,2.527,0,0,0-1.28.25c-.285.155-.387.323-.32.412" transform="translate(-208.236 -102.335)" fill="#12263f"/>
          <path id="Trazado_226743" data-name="Trazado 226743" d="M462.84,211.527a8.585,8.585,0,0,0,1.542,1.835l2.736,2.7a16.449,16.449,0,0,0,4.053,3.165c.721.435,1.091,1.56,1.812,2,.163.1.691.038.863.163-.034,1.215-.052,5.083-.065,6.624-.021,2.428-.889,8.9-.889,8.9h2.068a5.227,5.227,0,0,0,3.669-3.716,38.954,38.954,0,0,0,.34-4.814c.254-3.155-.363-6.349-.569-9.507a13.074,13.074,0,0,0-.619-3.766,10.207,10.207,0,0,0-3.356-4.179,13.8,13.8,0,0,0-5.479-2.853,7.747,7.747,0,0,0-5.989.93,1.3,1.3,0,0,0-.608.72c-.26.759.1,1.109.492,1.808m11.052,9.9c.076.147.016.524,0,0" transform="translate(-211.191 -94.958)" fill="#12263f"/>
          <path id="Trazado_226744" data-name="Trazado 226744" d="M482.694,234.337a1.587,1.587,0,0,1,2.411-1.183,2.176,2.176,0,0,1,.765,2.247c-.366,3.259-3.563,2.22-3.559,2.125,0-.058.218-1.842.382-3.19" transform="translate(-220.352 -106.405)" fill="#ffbe9d"/>
          <path id="Trazado_226745" data-name="Trazado 226745" d="M484.4,237.235c.016-.009.052.046.143.1a.572.572,0,0,0,.424.056,1.414,1.414,0,0,0,.791-1.188,1.886,1.886,0,0,0-.067-.831.662.662,0,0,0-.379-.484.291.291,0,0,0-.352.118c-.054.086-.04.154-.059.157s-.064-.062-.022-.194a.365.365,0,0,1,.152-.19.431.431,0,0,1,.323-.047.8.8,0,0,1,.537.572,1.944,1.944,0,0,1,.095.93,1.484,1.484,0,0,1-.986,1.315.613.613,0,0,1-.509-.144c-.092-.092-.1-.167-.089-.172" transform="translate(-221.303 -107.237)" fill="#eb996e"/>
          <path id="Trazado_226746" data-name="Trazado 226746" d="M485.174,241.523a.644.644,0,1,1-.6-.688.644.644,0,0,1,.6.688" transform="translate(-221.072 -110.029)" fill="#263238"/>
          <path id="Trazado_226747" data-name="Trazado 226747" d="M465.387,242.335a1.493,1.493,0,0,1-.909,2.274.87.87,0,0,1-.561-.031,1.241,1.241,0,0,1-.542-.817l-.256-.8a.261.261,0,0,1,.253-.4l1.963-.329" transform="translate(-211.568 -110.665)" fill="#eb996e"/>
          <path id="Trazado_226748" data-name="Trazado 226748" d="M463.856,244.359a1.733,1.733,0,0,0,.885-.048,1.379,1.379,0,0,0,.813-.57,1.038,1.038,0,0,0,.16-.589,1.755,1.755,0,0,0-.109-.628,1.613,1.613,0,0,0-.328-.527l-.048-.051-.066.018c-1.31.361-2.326.518-2.319.574a7.867,7.867,0,0,0,2.378-.353l-.113-.033a1.441,1.441,0,0,1,.277.455,1.246,1.246,0,0,1-.016,1.023,1.269,1.269,0,0,1-.679.525c-.494.161-.841.162-.835.2" transform="translate(-211.458 -110.537)" fill="#263238"/>
          <path id="Trazado_226749" data-name="Trazado 226749" d="M470.391,215.169a19.134,19.134,0,0,1,5.121,5.461l-1.761,2.988c-2.993-.282-3.348-.587-5.457-2.73s-6.3-6.409-6.534-9.406a29.2,29.2,0,0,1,8.631,3.686" transform="translate(-210.963 -96.619)" fill="#12263f"/>
          <path id="Trazado_226750" data-name="Trazado 226750" d="M476.921,238.454a1.774,1.774,0,0,1,.144-.313c.1-.2.252-.5.437-.88a22.842,22.842,0,0,0,1.286-3.366,22.034,22.034,0,0,0,.86-5.258,14.322,14.322,0,0,0-.165-3.131,5.462,5.462,0,0,0-1.442-2.94,10.507,10.507,0,0,0-2.816-1.809,21.152,21.152,0,0,1-2.768-1.573,20.3,20.3,0,0,1-3.992-3.606,22.549,22.549,0,0,1-2.131-2.934c-.223-.365-.387-.654-.491-.854a.172.172,0,1,1,.045-.026c.118.191.3.471.531.827a25.306,25.306,0,0,0,2.184,2.868,20.731,20.731,0,0,0,3.987,3.529,21.319,21.319,0,0,0,2.747,1.544,10.635,10.635,0,0,1,2.886,1.853,5.691,5.691,0,0,1,1.507,3.075,14.273,14.273,0,0,1,.154,3.187,21.459,21.459,0,0,1-.922,5.3,20.552,20.552,0,0,1-1.37,3.358c-.2.379-.361.67-.481.861a1.711,1.711,0,0,1-.189.287" transform="translate(-212.758 -96.619)" fill="#fff"/>
          <path id="Trazado_226751" data-name="Trazado 226751" d="M479.671,220.718a5.473,5.473,0,0,0-1.038-2.272,7.646,7.646,0,0,0-2.044-1.788,27.94,27.94,0,0,0-3.01-1.52,20.433,20.433,0,0,1-5.181-3.346,16.783,16.783,0,0,1-1.331-1.316,3.092,3.092,0,0,1-.432-.533,4.01,4.01,0,0,1,.5.464c.316.306.777.745,1.378,1.248a22.264,22.264,0,0,0,5.171,3.251,25.535,25.535,0,0,1,3.027,1.552,7.518,7.518,0,0,1,2.062,1.879,4.752,4.752,0,0,1,.813,1.7,2.994,2.994,0,0,1,.081.506c.008.117.008.178,0,.179" transform="translate(-213.189 -95.916)" fill="#fff"/>
          <path id="Trazado_226752" data-name="Trazado 226752" d="M449.232,234.642a1.132,1.132,0,0,1-.011-.278c0-.21.011-.471.019-.792.023-.688.064-1.683.127-2.912.132-2.457.339-5.857.852-9.584a25.168,25.168,0,0,1,1.129-5.188,9.6,9.6,0,0,1,2.28-3.684,6.657,6.657,0,0,1,2.466-1.566,4.5,4.5,0,0,1,.772-.2,1.131,1.131,0,0,1,.276-.029c.005.027-.376.078-1.013.323a6.885,6.885,0,0,0-2.373,1.6,9.608,9.608,0,0,0-2.185,3.635,25.909,25.909,0,0,0-1.1,5.143c-.511,3.714-.746,7.106-.924,9.559-.086,1.2-.157,2.184-.209,2.907-.027.32-.049.581-.067.79a1.128,1.128,0,0,1-.041.274" transform="translate(-205.234 -96.128)" fill="#fff"/>
          <path id="Trazado_226753" data-name="Trazado 226753" d="M432.985,273.766s.588-4.7,2.854-7.052,11.749-5.294,11.749-5.294.392,3.353,2.662,4.162a6.139,6.139,0,0,0,6.894-1.51,11.029,11.029,0,0,0,2.2-4.523s11.325,1.042,13.172,4.148,4.235,15.137,4.235,15.137l-10.588,2.247.678,9.757-26.02.152-.8-8.633-7.66,1.094Z" transform="translate(-197.531 -118.579)" fill="#b0c0d2"/>
          <path id="Trazado_226754" data-name="Trazado 226754" d="M490.691,290.467a1.725,1.725,0,0,1-.038-.468c-.009-.3-.013-.735-.012-1.273,0-1.075.017-2.559.051-4.2s.079-3.123.123-4.2c.022-.537.045-.972.065-1.272a1.763,1.763,0,0,1,.057-.466,1.7,1.7,0,0,1,.037.467c.009.3.013.735.013,1.272,0,1.075-.017,2.559-.051,4.2s-.079,3.124-.123,4.2c-.022.537-.045.972-.065,1.272a1.785,1.785,0,0,1-.056.466" transform="translate(-224.157 -127.28)" fill="#263238"/>
          <path id="Trazado_226755" data-name="Trazado 226755" d="M441.656,284.745c.065-.018.726,2.083,1.476,4.694s1.306,4.743,1.241,4.761-.725-2.082-1.476-4.694-1.306-4.743-1.241-4.761" transform="translate(-201.775 -130.09)" fill="#263238"/>
          <path id="Trazado_226756" data-name="Trazado 226756" d="M498.531,265.808c.008.043-.5.137-1.275.431a9.207,9.207,0,0,0-4.763,4.144c-.4.725-.562,1.217-.6,1.2a1.072,1.072,0,0,1,.08-.357,5.9,5.9,0,0,1,.371-.926,8.4,8.4,0,0,1,4.859-4.226,5.892,5.892,0,0,1,.968-.239,1.071,1.071,0,0,1,.365-.029" transform="translate(-224.725 -121.435)" fill="#263238"/>
          <path id="Trazado_226757" data-name="Trazado 226757" d="M438.435,274.49a9.727,9.727,0,0,1,.757,2.98,9.734,9.734,0,0,1-.757-2.98" transform="translate(-200.298 -125.405)" fill="#263238"/>
          <path id="Trazado_226758" data-name="Trazado 226758" d="M468.559,278.589c.01.078-6,.888-13.431,1.811s-13.458,1.607-13.468,1.53,6-.888,13.432-1.811,13.457-1.608,13.466-1.53" transform="translate(-201.78 -127.275)" fill="#fff"/>
          <path id="Trazado_226759" data-name="Trazado 226759" d="M501.439,277.938a93.017,93.017,0,0,1-9.954,2.464,93.191,93.191,0,0,1,9.954-2.464" transform="translate(-224.543 -126.977)" fill="#fff"/>
          <path id="Trazado_226760" data-name="Trazado 226760" d="M503.186,290c.016.077-2.574.695-5.785,1.381s-5.828,1.181-5.845,1.1,2.573-.695,5.786-1.381,5.828-1.181,5.844-1.1" transform="translate(-224.575 -132.487)" fill="#fff"/>
          <path id="Trazado_226761" data-name="Trazado 226761" d="M450.841,267.184c.02.076-2.472.779-5.564,1.572s-5.615,1.373-5.634,1.3,2.471-.779,5.564-1.572,5.614-1.373,5.634-1.3" transform="translate(-200.858 -122.065)" fill="#fff"/>
          <path id="Trazado_226762" data-name="Trazado 226762" d="M470.149,296.819c0,.078-5.384.461-12.034.855s-12.047.65-12.052.572,5.382-.461,12.035-.855,12.046-.651,12.051-.572" transform="translate(-203.792 -135.6)" fill="#fff"/>
          <path id="Trazado_226763" data-name="Trazado 226763" d="M435.049,290.17a25.046,25.046,0,0,1,4.241-.543,12.057,12.057,0,0,1-4.241.543" transform="translate(-198.759 -132.309)" fill="#fff"/>
          <path id="Trazado_226764" data-name="Trazado 226764" d="M472.135,311.508a4.6,4.6,0,0,1-.82.09l-2.238.148-7.381.49-7.376.578-2.236.175a4.569,4.569,0,0,1-.824.029,4.561,4.561,0,0,1,.813-.138c.525-.072,1.286-.163,2.228-.266,1.884-.206,4.49-.451,7.374-.66s5.5-.341,7.391-.408c.947-.034,1.713-.054,2.243-.059a4.562,4.562,0,0,1,.824.021" transform="translate(-206.166 -142.307)" fill="#fff"/>
          <path id="Trazado_226765" data-name="Trazado 226765" d="M435.893,294.519l-3.618.468-3.417-8.819-5.53,2.237s3.121,10.573,4.313,14.747l11.235-.013Z" transform="translate(-193.404 -130.741)" fill="#ffbe9d"/>
          <path id="Trazado_226766" data-name="Trazado 226766" d="M443.865,308.818A20.521,20.521,0,0,1,442,306.534a16.174,16.174,0,0,1-1.2-2.081c-.3-.618-.5-1.135-.641-1.494a3.342,3.342,0,0,0-.229-.555,2.488,2.488,0,0,0,.139.585,13.274,13.274,0,0,0,.575,1.535,14.588,14.588,0,0,0,1.173,2.135,18.936,18.936,0,0,0,1.867,2.321,10.012,10.012,0,0,1,1.363,1.588l.284-.011a10.669,10.669,0,0,0-1.465-1.74" transform="translate(-200.988 -138.159)" fill="#eb996e"/>
          <path id="Trazado_226767" data-name="Trazado 226767" d="M421.812,274.007a29.722,29.722,0,0,0-.319-4.946l-2.726-6.092s-.7-.431-1.038.784a3.188,3.188,0,0,0,.728,2.464l.083,1.595-1.1-.9-2.124-3.98s-1.463-2.9-1.843-2.438-.254,1.392.377,2.642l1.432,2.836s.216.5-.536-.227-2.384-4.269-2.722-4.711-.8-1.739-1.533-1.446.205,1.848.205,1.848l2.343,5.247s-1.358-1.987-1.6-2.322-.81-1.473-1.255-2.051-.93-.8-1.253-.666a.654.654,0,0,0-.406.8l2.5,4.339s1.25,1.946,1.249,2.094-1.09-.643-1.09-.643L410.13,266.9s-1.134-2-1.729-1.892-.487.552-.487.552l2.107,3.644,3.055,3.93,3.268,3.246,1.887-.608Z" transform="translate(-186.358 -118.579)" fill="#ffbe9d"/>
          <path id="Trazado_226768" data-name="Trazado 226768" d="M422.4,279.025a7.557,7.557,0,0,0,.2-1.216,3.871,3.871,0,0,1,1.256-2.5,2.075,2.075,0,0,1,1.27-.484h.156l-.011-.169c-.048-.748-.021-1.46-.048-1.934s-.067-.77-.105-.764a3.986,3.986,0,0,0-.074.761,19.608,19.608,0,0,0-.061,1.982l.146-.169a2.292,2.292,0,0,0-1.466.532,3.183,3.183,0,0,0-.988,1.38,5.048,5.048,0,0,0-.293,1.336,3.613,3.613,0,0,0,.023,1.244" transform="translate(-192.955 -124.249)" fill="#eb996e"/>
          <path id="Trazado_226769" data-name="Trazado 226769" d="M490.93,297.868l-2.013,9.69,9.453-.009c.363-1.378,2.339-11.756,2.339-11.756Z" transform="translate(-223.37 -135.138)" fill="#ffbe9d"/>
        </g>
      </g>
      <g id="Grupo_177587" data-name="Grupo 177587">
        <g id="Grupo_177586" data-name="Grupo 177586" clip-path="url(#clip-path)">
          <path id="Trazado_226770" data-name="Trazado 226770" d="M376.023,87.451H285.052V.015h90.971Z" transform="translate(-130.231 -0.007)" fill="#fff"/>
          <rect id="Rectángulo_57223" data-name="Rectángulo 57223" width="90.971" height="6.549" transform="translate(154.821 0.008)" fill="#f5f5f5"/>
          <path id="Trazado_226771" data-name="Trazado 226771" d="M376.046,135.415H285.1v13.9h4.742v12.964l11.938-12.964h74.265Z" transform="translate(-130.253 -61.867)" fill="#ebebeb"/>
          <path id="Trazado_226772" data-name="Trazado 226772" d="M375.927,73.682s.013.546.018,1.6.01,2.635.018,4.685.01,4.589.017,7.571v.035c-.111.108-.041.03-.07.054h-1.087l-1.181,0-2.486,0-5.454.008-64.04.051.088-.039-11.933,12.969-.22.24v-.326c0-4.054,0-8.466,0-12.964l.131.131h-4.832l-.043-.053-.027-.033v-.047c0-19.827-.005-41.548-.009-64.207,0-7.884,0-15.655,0-23.23V0h.141l90.971.028h.112V.141c-.02,22.462-.037,40.846-.048,53.619-.013,6.382-.023,11.361-.03,14.749-.007,1.69-.013,2.982-.016,3.856s-.017,1.317-.017,1.317-.011-.447-.017-1.317-.009-2.166-.016-3.856c-.007-3.388-.017-8.368-.03-14.749-.011-12.773-.028-31.156-.048-53.619l.112.112L284.956.282l.14-.141c0,7.575,0,15.346,0,23.23,0,22.658-.006,44.38-.009,64.207l-.027-.079h0l-.106-.053,4.768,0h.132v.131c0,4.5,0,8.91,0,12.964l-.221-.086L301.574,87.5l.035-.039h.053l64.04.05,5.454.008,2.486,0,1.181,0h1.087c-.018.024.065-.053-.036.053v-.035c.007-2.982.012-5.516.017-7.571s.014-3.622.018-4.685.018-1.6.018-1.6" transform="translate(-130.122 0)" fill="#263238"/>
          <path id="Trazado_226773" data-name="Trazado 226773" d="M306.683,5.449a1.224,1.224,0,1,1-1.224-1.224,1.224,1.224,0,0,1,1.224,1.224" transform="translate(-138.995 -1.93)" fill="#fff"/>
          <path id="Trazado_226774" data-name="Trazado 226774" d="M293.026,5.449A1.224,1.224,0,1,1,291.8,4.225a1.224,1.224,0,0,1,1.224,1.224" transform="translate(-132.755 -1.93)" fill="#fff"/>
          <path id="Trazado_226775" data-name="Trazado 226775" d="M299.855,5.449a1.224,1.224,0,1,1-1.224-1.224,1.224,1.224,0,0,1,1.224,1.224" transform="translate(-135.875 -1.93)" fill="#fff"/>
          <path id="Trazado_226776" data-name="Trazado 226776" d="M431.419,30.5h0a5.766,5.766,0,1,1,5.766-5.766,5.766,5.766,0,0,1-5.766,5.766" transform="translate(-194.467 -8.668)" fill="#ebebeb"/>
          <path id="Trazado_226777" data-name="Trazado 226777" d="M434.3,28.154a.92.92,0,1,0-.559-.006,1.6,1.6,0,0,0-1.344,1.581h3.209a1.6,1.6,0,0,0-1.306-1.575" transform="translate(-197.548 -12.041)" fill="#263238"/>
          <path id="Trazado_226778" data-name="Trazado 226778" d="M439.1,28.706a.132.132,0,0,1-.133-.133V27.1a.133.133,0,0,1,.265,0v1.476a.132.132,0,0,1-.133.133" transform="translate(-200.549 -12.319)" fill="#263238"/>
          <path id="Trazado_226779" data-name="Trazado 226779" d="M439.218,28.589h-1.476a.132.132,0,1,1,0-.265h1.476a.132.132,0,1,1,0,.265" transform="translate(-199.929 -12.94)" fill="#263238"/>
          <path id="Trazado_226780" data-name="Trazado 226780" d="M399.321,143.9a4.32,4.32,0,1,1-4.32-4.32,4.32,4.32,0,0,1,4.32,4.32" transform="translate(-178.489 -63.769)" fill="#12263f"/>
          <path id="Trazado_226781" data-name="Trazado 226781" d="M397.24,147.882h-.76a.7.7,0,0,1-.7-.7v-.76a.7.7,0,0,1,.7-.7h.76a.7.7,0,0,1,.7.7v.76a.7.7,0,0,1-.7.7" transform="translate(-180.819 -66.578)" fill="#fff"/>
          <path id="Trazado_226782" data-name="Trazado 226782" d="M400.111,147.279v-.731l.545-.583a.117.117,0,0,1,.2.08V147.7a.117.117,0,0,1-.2.086Z" transform="translate(-182.797 -66.669)" fill="#fff"/>
          <path id="Trazado_226783" data-name="Trazado 226783" d="M368.1,147.074a4.258,4.258,0,1,1,6.022,0,4.258,4.258,0,0,1-6.022,0" transform="translate(-167.601 -63.872)" fill="#eeac3a"/>
          <path id="Trazado_226784" data-name="Trazado 226784" d="M370.985,147.7l.759-.179a.208.208,0,0,0,.16-.2v-.156s-.033-.266.218-.282c.18-.012,1.322,0,1.322,0s.3-.006.3.231v.228a.177.177,0,0,0,.126.17l.824.249a.178.178,0,0,0,.216-.1l.1-.254a.34.34,0,0,0,.027-.147.719.719,0,0,0-.142-.381,3.111,3.111,0,0,0-2.4-.633c-1.4.068-1.7.657-1.783.8a.6.6,0,0,0-.026.393l.061.146a.208.208,0,0,0,.239.122" transform="translate(-169.344 -66.81)" fill="#fff"/>
          <path id="Trazado_226785" data-name="Trazado 226785" d="M351.425,144a4.282,4.282,0,1,1-4.282-4.282A4.282,4.282,0,0,1,351.425,144" transform="translate(-156.642 -63.832)" fill="#43a99b"/>
          <path id="Trazado_226786" data-name="Trazado 226786" d="M347.887,147.669a.422.422,0,1,1,.422-.422.422.422,0,0,1-.422.422" transform="translate(-158.745 -67.079)" fill="#fff"/>
          <path id="Trazado_226787" data-name="Trazado 226787" d="M350.305,147.669a.422.422,0,1,1,.422-.422.422.422,0,0,1-.422.422" transform="translate(-159.85 -67.079)" fill="#fff"/>
          <path id="Trazado_226788" data-name="Trazado 226788" d="M352.892,147.669a.422.422,0,1,1,.422-.422.422.422,0,0,1-.422.422" transform="translate(-161.032 -67.079)" fill="#fff"/>
          <path id="Trazado_226789" data-name="Trazado 226789" d="M298.373,26.615a2.771,2.771,0,1,1-2.771-2.771,2.771,2.771,0,0,1,2.771,2.771" transform="translate(-133.785 -10.894)" fill="#455a64"/>
          <path id="Trazado_226790" data-name="Trazado 226790" d="M317.405,28a46.928,46.928,0,0,1-5.145.141A46.932,46.932,0,0,1,307.114,28a93.82,93.82,0,0,1,10.291,0" transform="translate(-140.31 -12.728)" fill="#455a64"/>
          <path id="Trazado_226791" data-name="Trazado 226791" d="M335.9,33.431c.831-1.049,1.859-2.059,2.071-3.38.2-1.215-.336-2.545.209-3.648.67-1.358,2.6-1.623,3.432-2.885.4-.612.5-1.386.9-2a3.642,3.642,0,0,1,3.325-1.313c1.247.072,2.464.459,3.713.486,1.714.036,3.449-.607,5.113-.2,1.836.453,3.021,2,4.273,3.493l1.622,1.722a6.756,6.756,0,0,0,1.063.78,12.2,12.2,0,0,1,2,1.143A3.026,3.026,0,0,1,363.638,32a3.237,3.237,0,0,1,2.333,3.064,9.292,9.292,0,0,1-.479,2.223,3.232,3.232,0,0,0,.047,2.231,1.421,1.421,0,0,0,1.893.71,3.4,3.4,0,0,1-1.744,2.356,2.034,2.034,0,0,0,1.4.541c-1.229,3.32-4.914,5.211-8.449,5.4s-6.983-.992-10.326-2.155l-9.638-2.022c-.845-.152-1.242-1.151-1.27-2.009a6.855,6.855,0,0,0-.2-2.547c-.472-1.078-1.777-1.6-2.268-2.67-.558-1.217.137-2.635.968-3.684" transform="translate(-152.929 -9.226)" fill="#263238"/>
          <path id="Trazado_226792" data-name="Trazado 226792" d="M377.578,45.416a39.267,39.267,0,0,0,1.369-6.636,13.727,13.727,0,0,0-.881-6.657c-.136-.314-1.264-2.415-1.6-2.364-.242.037.488,2.013.375,2.231a11.636,11.636,0,0,0-.958,6.841,30.661,30.661,0,0,0,1.7,6.585" transform="translate(-171.667 -13.596)" fill="#263238"/>
          <path id="Trazado_226793" data-name="Trazado 226793" d="M362.925,34.22c-.108-5.671-3.5-10.335-9.164-10.07l-.522.055a10.14,10.14,0,0,0-9.076,10.331c.121,4.915.317,10.343.625,12.955.638,5.405,6.14,5.676,6.14,5.676s.3,4.375.3,4.375l13.057-.923Z" transform="translate(-157.235 -11.028)" fill="#b28f83"/>
          <path id="Trazado_226794" data-name="Trazado 226794" d="M356.621,75.206a13.15,13.15,0,0,0,6.828-2.826s-1.277,4.118-6.729,4.2Z" transform="translate(-162.928 -33.068)" fill="#826a63"/>
          <path id="Trazado_226795" data-name="Trazado 226795" d="M347.965,51.155a.777.777,0,0,0,.828.7.743.743,0,0,0,.723-.781.778.778,0,0,0-.827-.7.744.744,0,0,0-.724.782" transform="translate(-158.972 -23.013)" fill="#263238"/>
          <path id="Trazado_226796" data-name="Trazado 226796" d="M346.719,46.366c.106.091.646-.4,1.478-.49s1.485.266,1.565.155c.04-.049-.077-.222-.363-.387a2.133,2.133,0,0,0-1.266-.249,2.049,2.049,0,0,0-1.163.515c-.235.223-.3.415-.25.455" transform="translate(-158.397 -20.734)" fill="#263238"/>
          <path id="Trazado_226797" data-name="Trazado 226797" d="M361.77,50.347a.777.777,0,0,0,.828.7.743.743,0,0,0,.723-.781.778.778,0,0,0-.827-.7.744.744,0,0,0-.724.782" transform="translate(-165.28 -22.644)" fill="#263238"/>
          <path id="Trazado_226798" data-name="Trazado 226798" d="M361.784,45.4c.106.091.647-.4,1.478-.49s1.486.266,1.565.155c.039-.049-.077-.222-.364-.387a2.134,2.134,0,0,0-1.265-.249,2.054,2.054,0,0,0-1.164.515c-.234.223-.3.415-.25.455" transform="translate(-165.28 -20.295)" fill="#263238"/>
          <path id="Trazado_226799" data-name="Trazado 226799" d="M355.705,52.715a5.533,5.533,0,0,0-1.377-.1c-.215,0-.42-.02-.471-.161a1.085,1.085,0,0,1,.076-.645l.457-1.684a28.045,28.045,0,0,0,.965-4.379,27.968,27.968,0,0,0-1.315,4.291c-.15.59-.294,1.152-.43,1.69a1.238,1.238,0,0,0-.022.845.535.535,0,0,0,.382.274,1.445,1.445,0,0,0,.366.012,5.431,5.431,0,0,0,1.369-.142" transform="translate(-161.51 -20.899)" fill="#263238"/>
          <path id="Trazado_226800" data-name="Trazado 226800" d="M360.129,59.162c-.136.007-.043.909-.748,1.632s-1.677.725-1.671.851c-.007.058.233.153.64.121a2.261,2.261,0,0,0,1.4-.659,1.969,1.969,0,0,0,.569-1.362c-.005-.381-.13-.594-.191-.582" transform="translate(-163.426 -27.029)" fill="#263238"/>
          <path id="Trazado_226801" data-name="Trazado 226801" d="M361.221,39.325c.105.218.924.023,1.913.037.988,0,1.805.2,1.913-.019.048-.1-.112-.3-.453-.487a3.33,3.33,0,0,0-2.916-.014c-.343.182-.5.379-.457.482" transform="translate(-165.026 -17.596)" fill="#263238"/>
          <path id="Trazado_226802" data-name="Trazado 226802" d="M346.8,41.173c.166.173.719-.083,1.407-.165.685-.106,1.286-.007,1.4-.219.049-.1-.063-.281-.337-.433a2.05,2.05,0,0,0-2.261.31c-.223.219-.282.423-.208.508" transform="translate(-158.429 -18.342)" fill="#263238"/>
          <path id="Trazado_226803" data-name="Trazado 226803" d="M378.673,49.9c.088-.049,3.6-1.492,3.875,2.221s-3.511,3.22-3.526,3.114-.349-5.335-.349-5.335" transform="translate(-173.003 -22.652)" fill="#b28f83"/>
          <path id="Trazado_226804" data-name="Trazado 226804" d="M381.212,54.729c.015-.013.068.04.181.083a.646.646,0,0,0,.484-.026,1.605,1.605,0,0,0,.635-1.49,2.152,2.152,0,0,0-.249-.913.749.749,0,0,0-.523-.461.33.33,0,0,0-.369.205c-.042.107-.013.18-.033.187s-.084-.056-.066-.212a.416.416,0,0,1,.129-.243.49.49,0,0,1,.351-.121.911.911,0,0,1,.717.526,2.206,2.206,0,0,1,.3,1.019,1.684,1.684,0,0,1-.826,1.672.7.7,0,0,1-.6-.055c-.122-.084-.147-.165-.135-.173" transform="translate(-174.161 -23.638)" fill="#826a63"/>
          <path id="Trazado_226805" data-name="Trazado 226805" d="M347.751,27.633c-.622-.293,1.056-2.356,2.491-3.121,2.168-1.157,5.538-2,7.634-1.549a8.97,8.97,0,0,1,6.053,3.82,14.641,14.641,0,0,1,2.12,7.355,4.45,4.45,0,0,1-.377,2.3c-.466.855-1.428,1.436-1.312,2.566a1.562,1.562,0,0,1-.313,1.159c-.633.767-1.508.141-1.935-.515a10.778,10.778,0,0,1-1.292-4.8,10.893,10.893,0,0,1,.008-3.548c.142-.631.4-1.235.5-1.873a2.236,2.236,0,0,0-.383-1.837,2.287,2.287,0,0,0-.321-.286,3.882,3.882,0,0,0-3.891-.484c-2.044.875-5.546,2.21-6.525,1.56a5.734,5.734,0,0,1-1.772-1.58Z" transform="translate(-158.815 -10.434)" fill="#263238"/>
          <path id="Trazado_226806" data-name="Trazado 226806" d="M359.03,21.909a8.177,8.177,0,0,0-6.254.748,4.253,4.253,0,0,0-2.081,2.611,2.439,2.439,0,0,0,1.4,2.806l.076.041a5.666,5.666,0,0,0,4.181-.5c1.3-.546,2.429-1.443,3.732-1.982a7.566,7.566,0,0,1,4.41-.413,12.347,12.347,0,0,0-5.469-3.315" transform="translate(-160.196 -9.872)" fill="#263238"/>
          <path id="Trazado_226807" data-name="Trazado 226807" d="M375.455,47.14c0-.015-.131.021-.378.014a1.914,1.914,0,0,1-.994-.354,2.4,2.4,0,0,1-.945-1.351,4.518,4.518,0,0,1,.044-2.223c.184-.819.54-1.682.747-2.674a4.818,4.818,0,0,0,.081-1.573,3,3,0,0,0-.641-1.558,3.567,3.567,0,0,0-1.491-.945,9.406,9.406,0,0,1-1.626-.7,5.251,5.251,0,0,1-2.054-2.965c-.406-1.214-.565-2.473-.9-3.661a6.68,6.68,0,0,0-1.657-3.132,4.453,4.453,0,0,0-2.971-1.18,5.816,5.816,0,0,0-2.731.6A8.614,8.614,0,0,0,356.93,28.1c-.282.384-.477.7-.607.912a1.962,1.962,0,0,0-.18.337,2.1,2.1,0,0,0,.225-.307c.143-.2.353-.506.645-.878a8.814,8.814,0,0,1,3.012-2.548,5.665,5.665,0,0,1,2.64-.552,4.232,4.232,0,0,1,2.807,1.135,6.465,6.465,0,0,1,1.574,3.023c.324,1.164.481,2.429.9,3.676A5.487,5.487,0,0,0,370.115,36a9.5,9.5,0,0,0,1.671.712,3.332,3.332,0,0,1,1.395.866,2.765,2.765,0,0,1,.595,1.428,4.606,4.606,0,0,1-.066,1.5c-.19.965-.536,1.836-.714,2.676a4.626,4.626,0,0,0,0,2.306,2.479,2.479,0,0,0,1.031,1.4,1.887,1.887,0,0,0,1.052.321,1.094,1.094,0,0,0,.378-.068" transform="translate(-162.71 -11.347)" fill="#455a64"/>
          <path id="Trazado_226808" data-name="Trazado 226808" d="M355.47,22.071a2.323,2.323,0,0,0-1.126.17,4.314,4.314,0,0,0-2.935,4.3,2.327,2.327,0,0,0,.253,1.111c.046-.011-.075-.43-.062-1.113a4.468,4.468,0,0,1,2.811-4.123c.632-.261,1.066-.3,1.06-.348" transform="translate(-160.544 -10.075)" fill="#455a64"/>
          <path id="Trazado_226809" data-name="Trazado 226809" d="M344.871,28.947a1.965,1.965,0,0,0-.282,1.356,1.964,1.964,0,0,0,.444,1.312c.073-.032-.135-.6-.175-1.328s.089-1.317.013-1.34" transform="translate(-157.428 -13.225)" fill="#455a64"/>
          <path id="Trazado_226810" data-name="Trazado 226810" d="M370.634,84.778,357.11,80.5l-12.139,2.354-14.357,7.854,6.591,19.619H370.5l-.691-19.2Z" transform="translate(-151.047 -36.778)" fill="#1a76b7"/>
          <path id="Trazado_226811" data-name="Trazado 226811" d="M356.4,82.548V80.436L369.9,78.461l-.14,4.087L356.143,84.01Z" transform="translate(-162.71 -35.846)" fill="#1a76b7"/>
          <path id="Trazado_226812" data-name="Trazado 226812" d="M410.009,92.758c-1.932-4.692-8.207-5.061-8.621-5.061l-.9,3.681,1.671,18.76.8,3.476h14.56c-2.277-7.432-6.254-17.811-7.507-20.856" transform="translate(-182.969 -40.066)" fill="#1a76b7"/>
          <path id="Trazado_226813" data-name="Trazado 226813" d="M328.2,99.294s-1.765,1.863-2.024,6.92-.846,12.7-.846,12.7h10.649l.7-7.519Z" transform="translate(-148.633 -45.364)" fill="#1a76b7"/>
          <path id="Trazado_226814" data-name="Trazado 226814" d="M340.132,126.114a56.313,56.313,0,0,1-2.026-5.269,56.387,56.387,0,0,1-1.76-5.365,56.307,56.307,0,0,1,2.026,5.269c1.046,2.936,1.833,5.338,1.76,5.364" transform="translate(-153.663 -52.759)" fill="#263238"/>
          <path id="Trazado_226815" data-name="Trazado 226815" d="M402.84,101.145c.078,0,.293,4.122.48,9.212s.274,9.221.2,9.223-.293-4.121-.48-9.213-.275-9.22-.2-9.222" transform="translate(-184.031 -46.21)" fill="#263238"/>
        </g>
      </g>
      <path id="Trazado_226816" data-name="Trazado 226816" d="M204.025,402.19l1.8,21.89h4.863l-.939-21.89Z" transform="translate(-93.212 -183.747)" fill="#263238"/>
      <path id="Trazado_226817" data-name="Trazado 226817" d="M294.829,402.19l-.94,21.89h4.863l1.8-21.89Z" transform="translate(-134.268 -183.747)" fill="#263238"/>
      <g id="Grupo_177598" data-name="Grupo 177598">
        <g id="Grupo_177597" data-name="Grupo 177597" clip-path="url(#clip-path)">
          <path id="Trazado_226818" data-name="Trazado 226818" d="M258.056,368.409l-62.589,1.469-1.905-40.426a6.943,6.943,0,0,1,6.935-7.27h53.327a6.943,6.943,0,0,1,6.926,7.424Z" transform="translate(-88.429 -147.194)" fill="#455a64"/>
          <path id="Trazado_226819" data-name="Trazado 226819" d="M261.273,335.166a.808.808,0,0,1-.175.015l-.513.016-1.973.029-7.256.026c-6.126.01-14.59-.058-23.932.158-9.347.311-17.817.258-23.942.165-3.063-.049-5.542-.109-7.254-.16l-1.972-.068-.512-.025a.8.8,0,0,1-.174-.018.784.784,0,0,1,.175-.011l.513,0,1.972.015,7.254.07c6.126.042,14.588.063,23.933-.247,9.349-.217,17.814-.116,23.94-.076l7.255.064,1.973.023.513.012a.789.789,0,0,1,.175.014" transform="translate(-88.436 -153.047)" fill="#263238"/>
          <path id="Trazado_226820" data-name="Trazado 226820" d="M229.349,323.319a11.829,11.829,0,0,0-7.436,3.794,3.761,3.761,0,0,1,.775-1.005,9.4,9.4,0,0,1,5.392-2.751,3.759,3.759,0,0,1,1.269-.037" transform="translate(-101.384 -147.699)" fill="#263238"/>
          <g id="Grupo_177590" data-name="Grupo 177590" transform="translate(119.939 173.394)" opacity="0.3">
            <g id="Grupo_177589" data-name="Grupo 177589">
              <g id="Grupo_177588" data-name="Grupo 177588" clip-path="url(#clip-path-6)">
                <path id="Trazado_226821" data-name="Trazado 226821" d="M220.828,320.841c1.853,2.07,4.882,2.977,7.628,3.4a47.085,47.085,0,0,0,14.942.316c3.16-.538,6.291-1.586,9.489-1.367,3.273.225,6.562,1.768,9.719.873a6.632,6.632,0,0,0,4-3.227c.263-.495.427-1.188,0-1.551-.216-.184-.689.454-.972.432-14.828-1.132-29.966,2.167-44.8,1.129" transform="translate(-220.828 -319.247)"/>
              </g>
            </g>
          </g>
          <g id="Grupo_177593" data-name="Grupo 177593" transform="translate(158.061 184.702)" opacity="0.3">
            <g id="Grupo_177592" data-name="Grupo 177592">
              <g id="Grupo_177591" data-name="Grupo 177591" clip-path="url(#clip-path-7)">
                <path id="Trazado_226822" data-name="Trazado 226822" d="M291.073,340.068a4.458,4.458,0,0,0,1.378,3.8,15.275,15.275,0,0,0,3.439,2.385,14.826,14.826,0,0,1,5.275,4.458c2.39,3.714,1.506,8.586,2.518,12.885,0,0,.843-18.549.669-18.081" transform="translate(-291.016 -340.068)"/>
              </g>
            </g>
          </g>
          <path id="Trazado_226823" data-name="Trazado 226823" d="M241.6,113.71a9.717,9.717,0,0,1,2.622,8.6c-.293,1.487-.909,3.151-.067,4.412s2.735,1.439,3.524,2.715c.929,1.5-.225,3.44-.036,5.2a3.5,3.5,0,0,0,3.39,3.015,13.641,13.641,0,0,1-7.062,2.125l-1.6-2.635a2.507,2.507,0,0,1-.527,3.035,5.718,5.718,0,0,1-3.005,1.338,17.316,17.316,0,0,1-14.782-4.224" transform="translate(-102.365 -51.95)" fill="#263238"/>
          <path id="Trazado_226824" data-name="Trazado 226824" d="M201.145,115.764a34.832,34.832,0,0,0,1.66-3.252c.843-2.48-.059-5.489,1.445-7.635,1.07-1.526,3.036-2.1,4.87-2.441s3.788-.575,5.26-1.719c1.08-.839,1.785-2.086,2.862-2.928a8.219,8.219,0,0,1,5.564-1.314,11.661,11.661,0,0,1,5.708,1.629,6.4,6.4,0,0,1,3.056,4.9,18.917,18.917,0,0,0,0,2.92,20.008,20.008,0,0,0,1.294,2.937,5.132,5.132,0,0,1-1.994,5.959l-15.689,15.988c-2.988.744-9.767-1.379-11.729-3.752s-3.6-8.5-2.308-11.3" transform="translate(-91.686 -44.065)" fill="#263238"/>
          <path id="Trazado_226825" data-name="Trazado 226825" d="M237.935,118.612c-.091-4.06-2.573-9.137-6.626-8.874l-12.728,2.674a2.377,2.377,0,0,0-2.222,2.322l.118,30.437-.088.015s2.5,8.691,10.942,6.429c1.673-.449,2.5-2.223,2.911-4.066l.085.015c.012-.221.024-.426.036-.637a19.9,19.9,0,0,0,.228-4.169c.128-2.452.169-3.458.169-3.435,0,0,5.208-.65,6.553-7.356.669-3.335.723-8.846.622-13.357" transform="translate(-98.847 -50.131)" fill="#ffbe9d"/>
          <path id="Trazado_226826" data-name="Trazado 226826" d="M235.587,135.671a.867.867,0,0,1-.87.84.829.829,0,0,1-.861-.817.867.867,0,0,1,.869-.84.83.83,0,0,1,.862.817" transform="translate(-106.841 -61.61)" fill="#263238"/>
          <path id="Trazado_226827" data-name="Trazado 226827" d="M251.837,135.671a.867.867,0,0,1-.87.84.829.829,0,0,1-.861-.817.868.868,0,0,1,.869-.84.83.83,0,0,1,.862.817" transform="translate(-114.265 -61.61)" fill="#263238"/>
          <path id="Trazado_226828" data-name="Trazado 226828" d="M251.172,130.571c-.112.146-.851-.452-1.867-.425-1.016.011-1.738.638-1.854.5-.057-.063.053-.325.367-.608a2.295,2.295,0,0,1,2.97-.057c.323.272.439.528.384.594" transform="translate(-113.045 -59.146)" fill="#263238"/>
          <path id="Trazado_226829" data-name="Trazado 226829" d="M233.672,130.38c-.135.131-.853-.532-1.934-.612-1.078-.1-1.914.437-2.021.286-.053-.067.091-.311.457-.553a2.625,2.625,0,0,1,1.63-.4,2.559,2.559,0,0,1,1.526.663c.312.3.407.562.342.62" transform="translate(-104.945 -58.976)" fill="#263238"/>
          <path id="Trazado_226830" data-name="Trazado 226830" d="M242.406,137.333a6.167,6.167,0,0,1,1.524-.212c.239-.015.466-.053.513-.213a1.21,1.21,0,0,0-.13-.712l-.63-1.84a31.241,31.241,0,0,1-1.388-4.8,31.236,31.236,0,0,1,1.772,4.679q.314.968.6,1.849a1.377,1.377,0,0,1,.086.939.6.6,0,0,1-.405.332,1.62,1.62,0,0,1-.406.04,6.055,6.055,0,0,1-1.534-.06" transform="translate(-110.691 -59.189)" fill="#263238"/>
          <path id="Trazado_226831" data-name="Trazado 226831" d="M235.351,161.885a17.184,17.184,0,0,1-8.943-2.778s2.005,4.726,8.787,4.368Z" transform="translate(-103.438 -72.691)" fill="#eb996e"/>
          <path id="Trazado_226832" data-name="Trazado 226832" d="M239.259,147.4a1.679,1.679,0,0,0-1.479-.684,1.533,1.533,0,0,0-1.081.525.972.972,0,0,0-.119,1.107,1.128,1.128,0,0,0,1.209.358,3.533,3.533,0,0,0,1.219-.663,1.03,1.03,0,0,0,.277-.264.312.312,0,0,0,.013-.347" transform="translate(-108.029 -67.029)" fill="#ff725e"/>
          <path id="Trazado_226833" data-name="Trazado 226833" d="M237.269,144.859c.152,0,.113,1.009.949,1.761s1.917.685,1.919.827c.011.064-.248.187-.7.181a2.521,2.521,0,0,1-1.6-.633,2.195,2.195,0,0,1-.731-1.474c-.021-.424.1-.67.171-.662" transform="translate(-108.321 -66.181)" fill="#263238"/>
          <path id="Trazado_226834" data-name="Trazado 226834" d="M233.936,125c-.1.25-1.028.092-2.125.179-1.1.066-1.995.35-2.131.117-.06-.111.1-.343.47-.574a3.7,3.7,0,0,1,3.242-.225c.395.178.589.385.544.5" transform="translate(-104.927 -56.756)" fill="#263238"/>
          <path id="Trazado_226835" data-name="Trazado 226835" d="M250.192,125.4c-.2.2-.921-.045-1.8-.091-.88-.073-1.635.076-1.8-.152-.071-.111.055-.318.389-.505a2.769,2.769,0,0,1,1.48-.287,2.728,2.728,0,0,1,1.42.483c.3.23.4.452.31.552" transform="translate(-112.651 -56.815)" fill="#263238"/>
          <path id="Trazado_226836" data-name="Trazado 226836" d="M213.587,112.942a5.52,5.52,0,0,1,3-1.52,62.088,62.088,0,0,1,14.606-1.943,2.522,2.522,0,0,1-1.227,2.973,11.251,11.251,0,0,1-3.339,1.045,4.371,4.371,0,0,0-2.905,1.8c-.612,1.086-.368,2.486-.925,3.6-.958,1.919-3.831,2.236-4.777,4.16-.716,1.456-.027,3.176.005,4.8a5.8,5.8,0,0,1-6.425,5.888l1.035-17.368a5.781,5.781,0,0,1,.949-3.43" transform="translate(-96.674 -50.017)" fill="#263238"/>
          <path id="Trazado_226837" data-name="Trazado 226837" d="M189.467,127.887c1-.707,2.225-1.277,2.724-2.4.727-1.634-.4-3.788.658-5.229.966-1.314,3.315-.966,4.228-2.318.713-1.056.163-2.129.5-3.09a2.711,2.711,0,0,1,2.831-1.426l6.513,12.306c.28,3.9.774,6.023-.309,8.159a18.3,18.3,0,0,0-1.649,3.57,3.733,3.733,0,0,0,.8,3.666c-4.738-.185-8.849-3.16-12.636-6.015l-4.008-3.021a3.166,3.166,0,0,1-1.067-1.124c-.508-1.118.412-2.371,1.416-3.078" transform="translate(-85.848 -51.799)" fill="#263238"/>
          <path id="Trazado_226838" data-name="Trazado 226838" d="M197.547,128.215a2.24,2.24,0,0,0,.49.155,4.3,4.3,0,0,0,1.475.068,4.564,4.564,0,0,0,2.169-.858,4.485,4.485,0,0,0,1.666-2.587,4.626,4.626,0,0,0,.058-1.819,7.391,7.391,0,0,0-.666-1.848,6.982,6.982,0,0,1-.687-1.916,2.35,2.35,0,0,1,.486-1.961,4.268,4.268,0,0,1,2.075-.779,2.163,2.163,0,0,0,1.088-.624,2.118,2.118,0,0,0,.468-1.193,13.463,13.463,0,0,0-.247-2.509,2.694,2.694,0,0,1,.134-1.2,1.684,1.684,0,0,1,.79-.872,4.73,4.73,0,0,1,2.45-.355,5.125,5.125,0,0,0,2.5-.427,4.591,4.591,0,0,0,1.868-1.6,7.564,7.564,0,0,0,.876-2.179,10.556,10.556,0,0,1,.709-2.056,4.719,4.719,0,0,1,1.3-1.534,5.307,5.307,0,0,1,6.258-.141,6.473,6.473,0,0,1,1.647,1.59,8.564,8.564,0,0,1,.929,1.734.476.476,0,0,0-.03-.127c-.028-.082-.058-.208-.122-.364a6.213,6.213,0,0,0-.689-1.3,6.438,6.438,0,0,0-1.647-1.655,5.546,5.546,0,0,0-2.916-1.016,5.637,5.637,0,0,0-3.567,1.1,4.946,4.946,0,0,0-1.377,1.6,10.744,10.744,0,0,0-.738,2.1,7.367,7.367,0,0,1-.851,2.1,4.336,4.336,0,0,1-1.762,1.5,4.863,4.863,0,0,1-2.383.4,4.96,4.96,0,0,0-2.589.388,1.96,1.96,0,0,0-.912,1.012,2.951,2.951,0,0,0-.152,1.323,13.615,13.615,0,0,1,.251,2.461,1.854,1.854,0,0,1-.4,1.044,1.905,1.905,0,0,1-.959.545c-.368.107-.757.163-1.139.275a2.245,2.245,0,0,0-1.047.58,2.586,2.586,0,0,0-.543,2.172,7.123,7.123,0,0,0,.72,1.98,7.239,7.239,0,0,1,.664,1.787,4.446,4.446,0,0,1-.039,1.738,4.342,4.342,0,0,1-1.569,2.507,4.508,4.508,0,0,1-2.091.874,5.11,5.11,0,0,1-1.951-.117" transform="translate(-90.253 -46.067)" fill="#455a64"/>
          <path id="Trazado_226839" data-name="Trazado 226839" d="M187.535,118.891a1,1,0,0,0-.2.366,1.7,1.7,0,0,0,.065,1.188,1.794,1.794,0,0,0,.526.7,1.886,1.886,0,0,0,.972.385,2.36,2.36,0,0,0,2.21-1.064,3.161,3.161,0,0,0,.5-1.392,4.417,4.417,0,0,0-.148-1.59,9.721,9.721,0,0,1-.688-3.319,2.182,2.182,0,0,1,.735-1.551,2.39,2.39,0,0,1,1.77-.332,5.808,5.808,0,0,0,2.058.029,1.782,1.782,0,0,0,.918-.606,2.54,2.54,0,0,0,.465-1,8.368,8.368,0,0,0,.076-2.108,4.61,4.61,0,0,1,.336-1.922,4.92,4.92,0,0,1,2.523-2.61,6.96,6.96,0,0,1,3.344-.36,9.673,9.673,0,0,0,3.027-.119,6.347,6.347,0,0,0,3.586-2.42,4.475,4.475,0,0,0,.734-1.424,8.65,8.65,0,0,1-.82,1.36,6.281,6.281,0,0,1-1.332,1.284,6.156,6.156,0,0,1-2.214,1.011,9.618,9.618,0,0,1-2.968.08,7.131,7.131,0,0,0-3.46.356,5.162,5.162,0,0,0-2.671,2.741,4.892,4.892,0,0,0-.361,2.029,8.246,8.246,0,0,1-.07,2.039,1.764,1.764,0,0,1-1.191,1.4,5.66,5.66,0,0,1-1.957-.034,2.64,2.64,0,0,0-1.958.394,2.432,2.432,0,0,0-.825,1.733,4.637,4.637,0,0,0,.224,1.8c.165.559.36,1.082.5,1.6a4.232,4.232,0,0,1,.158,1.511,2.975,2.975,0,0,1-.454,1.307,2.2,2.2,0,0,1-2.033,1.019,1.753,1.753,0,0,1-.906-.336,1.728,1.728,0,0,1-.618-1.77c.072-.257.16-.374.147-.382" transform="translate(-85.552 -45.572)" fill="#263238"/>
          <path id="Trazado_226840" data-name="Trazado 226840" d="M268.368,133.688a1.873,1.873,0,0,1-.16,1.226,1.63,1.63,0,0,1-1.093.875,1.708,1.708,0,0,1-1.668-.673,1.568,1.568,0,0,1-.288-1.031,3.264,3.264,0,0,1,.319-1.168,6.955,6.955,0,0,0,1-2.616,3.818,3.818,0,0,0-1.109-2.882,4.486,4.486,0,0,0-1.372-.943,6.572,6.572,0,0,0-1.644-.437,8.811,8.811,0,0,1-1.6-.361,2.174,2.174,0,0,1-1.172-.934,2.672,2.672,0,0,1-.293-1.443,5.351,5.351,0,0,1,.292-1.434,11.082,11.082,0,0,0,.745-2.7,4.194,4.194,0,0,0-.57-2.38,5.412,5.412,0,0,0-1.378-1.473,10.207,10.207,0,0,1-1.124-.99,3.159,3.159,0,0,1-.653-1.079s0,.029.01.085a1.374,1.374,0,0,0,.067.241,2.529,2.529,0,0,0,.5.824,9.4,9.4,0,0,0,1.106,1.037,5.347,5.347,0,0,1,1.308,1.452,4.02,4.02,0,0,1,.511,2.267,11.078,11.078,0,0,1-.758,2.634,5.55,5.55,0,0,0-.313,1.5,2.926,2.926,0,0,0,.321,1.589,2.441,2.441,0,0,0,1.309,1.057,9.005,9.005,0,0,0,1.654.376,6.355,6.355,0,0,1,1.579.416,4.214,4.214,0,0,1,1.291.882,3.568,3.568,0,0,1,1.048,2.679,6.867,6.867,0,0,1-.952,2.536,3.451,3.451,0,0,0-.324,1.252,1.77,1.77,0,0,0,.344,1.155,1.869,1.869,0,0,0,1.858.708,1.8,1.8,0,0,0,1.313-1.929.987.987,0,0,0-.094-.323" transform="translate(-117.228 -51.739)" fill="#263238"/>
          <path id="Trazado_226841" data-name="Trazado 226841" d="M305.54,255.394l-2.4-3.628-3.852-1.932-.144-.105a5.167,5.167,0,0,0-4.37-.812c-1.569.417-3.662.937-5.478,1.247l-4.146-1.134v8.091l20.911-1.321Z" transform="translate(-130.275 -113.642)" fill="#ffbe9d"/>
          <path id="Trazado_226842" data-name="Trazado 226842" d="M316.533,257.429a5.468,5.468,0,0,0-.883-.808c-.566-.473-1.359-1.111-2.245-1.8l-.829-.644-.024-.019-.029-.005c-.858-.161-1.6-.291-2.134-.373a3.361,3.361,0,0,0-.857-.087,3.372,3.372,0,0,0,.826.244c.524.125,1.262.287,2.117.463l-.053-.024.824.65c.886.694,1.7,1.309,2.292,1.745a5.463,5.463,0,0,0,1,.663" transform="translate(-141.415 -115.897)" fill="#eb996e"/>
          <path id="Trazado_226843" data-name="Trazado 226843" d="M313.978,259.938a23.814,23.814,0,0,0-3.008-1.815l-.733-.4-.026-.014-.028,0a16.388,16.388,0,0,0-2.677-.045,16.29,16.29,0,0,0,2.661.3l-.053-.015.729.408a23.8,23.8,0,0,0,3.134,1.588" transform="translate(-140.49 -117.7)" fill="#eb996e"/>
          <path id="Trazado_226844" data-name="Trazado 226844" d="M327.729,218.672a1.593,1.593,0,0,0-2.062.443l-16.842,22.81-26.649.361c-1.065.064-2.356,2.215-1.4,3.256l30.094-.411,17.374-24.14a1.593,1.593,0,0,0-.513-2.319" transform="translate(-128.124 -99.811)" fill="#e0e0e0"/>
          <path id="Trazado_226845" data-name="Trazado 226845" d="M327.611,218.653a.927.927,0,0,1,.133.073,1.478,1.478,0,0,1,.336.3,1.612,1.612,0,0,1,.246,1.669,9.412,9.412,0,0,1-.711,1.067l-.888,1.249-2.2,3.089-13.673,19.086-.036.051h-.063l-29.548.421-.545.008H280.6l-.043-.047a1.494,1.494,0,0,1-.368-1.074,2.625,2.625,0,0,1,.284-1.067,3.113,3.113,0,0,1,.646-.88,1.53,1.53,0,0,1,1.01-.473l4.116-.055,7.955-.1,14.511-.182-.1.049,13.245-17.853,3.73-4.987a1.608,1.608,0,0,1,1.5-.542,1.218,1.218,0,0,1,.526.2,2.122,2.122,0,0,0-.532-.165,1.573,1.573,0,0,0-1.437.552l-3.673,5.023-13.164,17.914-.036.049h-.061l-14.507.211-7.953.112-4.115.056a1.249,1.249,0,0,0-.827.4,2.827,2.827,0,0,0-.585.8,1.654,1.654,0,0,0,.039,1.825l-.106-.046.545-.007,29.549-.387-.1.052,13.756-19.026,2.23-3.07.9-1.238a9.744,9.744,0,0,0,.718-1.042,1.575,1.575,0,0,0-.206-1.613,2.026,2.026,0,0,0-.438-.4" transform="translate(-128.007 -99.791)" fill="#263238"/>
          <path id="Trazado_226846" data-name="Trazado 226846" d="M211.252,170.162a8.886,8.886,0,0,0-4.479,2.091,15.084,15.084,0,0,0-3.585,5.873c-.89,2.669-.49,13.2-.49,16.249s.776,14.509,1.159,16.415a12.048,12.048,0,0,1-1.131,6.585c-1.585,3.308.886,5,.886,5l32.7-.245-.131-1.22c-.224-2.125.566-4.29-.242-6.268a20.368,20.368,0,0,1-1.505-9.164c.418-5.447,2.045-9.166,1.046-12.327-1.525-4.821-6.561-15.786-12.646-20.469,0,0-4.8-1.027-5.883-1.407-2.47-.865-3.776-1.331-5.7-1.117" transform="translate(-92.376 -77.718)" fill="#d2c1eb"/>
          <path id="Trazado_226847" data-name="Trazado 226847" d="M250.537,213.149,222.6,207.316l-.72-24.255s-.978-9.881-5.93-10.8L204.025,187.1c.666,7.482.059,21.636,3.5,27.095s6.782,9.834,15.247,9.446,27.124-.567,27.124-.567Z" transform="translate(-93.212 -78.701)" fill="#d2c1eb"/>
          <path id="Trazado_226848" data-name="Trazado 226848" d="M236.573,236.974c.066.053-.6.927-1.167,2.146s-.812,2.29-.9,2.274a7.089,7.089,0,0,1,2.062-4.419" transform="translate(-107.132 -108.265)" fill="#263238"/>
          <g id="Grupo_177596" data-name="Grupo 177596" transform="translate(128.473 103.324)" opacity="0.3">
            <g id="Grupo_177595" data-name="Grupo 177595">
              <g id="Grupo_177594" data-name="Grupo 177594" clip-path="url(#clip-path-8)">
                <path id="Trazado_226849" data-name="Trazado 226849" d="M236.54,190.236c2.79,8.574,2.184,21.795,7.506,26.668l-6.593-1.376a33.43,33.43,0,0,0,.055-4.658c-.534-6.779-.6-13.673-.968-20.634" transform="translate(-236.54 -190.236)"/>
              </g>
            </g>
          </g>
          <path id="Trazado_226850" data-name="Trazado 226850" d="M221.065,184.6a15.419,15.419,0,0,1,.49,1.946,23.672,23.672,0,0,1,.34,2.4c.091.954.105,2.056.152,3.29.159,4.949.386,12.053.664,20.711l-.09-.108,27.944,5.808.118.025-.008.12c-.205,3.178-.421,6.521-.641,9.93l-.009.13-.131,0-3.4.039c-4.856.06-9.6.134-14.173.233q-3.433.073-6.737.18a36.02,36.02,0,0,1-6.474-.067,14.059,14.059,0,0,1-3.038-.782,12.952,12.952,0,0,1-2.682-1.465,18.22,18.22,0,0,1-4.03-4.187q-.816-1.148-1.544-2.293l-.362-.569c-.113-.194-.214-.4-.32-.594l-.314-.59-.24-.615a23.507,23.507,0,0,1-1.248-4.848,75.938,75.938,0,0,1-.818-8.554c-.125-2.526-.182-4.7-.244-6.481s-.12-3.158-.168-4.094c-.028-.461-.051-.814-.066-1.063s-.013-.363-.013-.363.019.122.042.361.053.6.094,1.062c.067.935.148,2.314.222,4.092s.152,3.954.292,6.476a77.043,77.043,0,0,0,.857,8.53,23.4,23.4,0,0,0,1.254,4.8l.238.6.309.576c.1.192.2.388.315.58l.363.566q.727,1.141,1.542,2.277a18.025,18.025,0,0,0,3.985,4.122,12.708,12.708,0,0,0,2.63,1.431,13.832,13.832,0,0,0,2.983.762,35.966,35.966,0,0,0,6.427.055q3.3-.112,6.74-.187c4.579-.1,9.32-.179,14.176-.239l3.4-.038-.14.132c.222-3.408.439-6.751.646-9.929l.11.145-27.933-5.858-.087-.018,0-.09c-.237-8.66-.431-15.764-.566-20.714-.037-1.236-.041-2.336-.122-3.285s-.192-1.752-.307-2.4-.228-1.133-.307-1.46c-.039-.158-.068-.28-.09-.371a.741.741,0,0,1-.026-.127" transform="translate(-93.212 -84.339)" fill="#263238"/>
          <path id="Trazado_226851" data-name="Trazado 226851" d="M314.478,357.152l-4.148,30.56,10.851,1.779,7.72-27.116Z" transform="translate(-141.779 -163.171)" fill="#ffbe9d"/>
          <path id="Trazado_226852" data-name="Trazado 226852" d="M257.387,268.688s46.285-4.4,49.717-1.256,6.291,10.008,5.147,12.3-3.717,10.008-3.717,10.008l-21.319-4.861Z" transform="translate(-117.591 -121.663)" fill="#263238"/>
          <path id="Trazado_226853" data-name="Trazado 226853" d="M305.082,309.452l-8.589,13.1L306.6,329.1l10.964-16.8Z" transform="translate(-135.458 -141.378)" fill="#ffbe9d"/>
          <path id="Trazado_226854" data-name="Trazado 226854" d="M205.231,266.1s-4,18.3,2.573,25.736,16.3,7.435,26.308,6,33.768-1.926,33.768-1.926-1.06,6.5-1.835,13.891c-.778,7.413-.936,12.067-.936,12.067l14.874,1.241s8.287-25.224,9.562-30.219.844-11.705-3.564-14.195c-3.735-2.11-33.2-10.279-47.3-11.493l-1.532-1.315Z" transform="translate(-93.212 -121.478)" fill="#263238"/>
          <path id="Trazado_226855" data-name="Trazado 226855" d="M328.809,309.98c.008.052-.576.133-1.458.449a9.441,9.441,0,0,0-1.487.691,9.487,9.487,0,0,0-2.96,2.669,9.477,9.477,0,0,0-.84,1.409c-.405.845-.546,1.417-.6,1.4a1.179,1.179,0,0,1,.06-.411,6.059,6.059,0,0,1,.354-1.075,8.259,8.259,0,0,1,.809-1.477,8.866,8.866,0,0,1,3.045-2.747,8.255,8.255,0,0,1,1.552-.653,6.058,6.058,0,0,1,1.106-.242,1.18,1.18,0,0,1,.415-.018" transform="translate(-146.865 -141.614)" fill="#455a64"/>
          <path id="Trazado_226856" data-name="Trazado 226856" d="M331.729,279.559a6.826,6.826,0,0,1,1.929-2.832,22.93,22.93,0,0,1-1.929,2.832" transform="translate(-151.552 -126.426)" fill="#455a64"/>
          <path id="Trazado_226857" data-name="Trazado 226857" d="M319.324,286.98a.581.581,0,0,1-.044-.142c-.026-.111-.059-.25-.1-.423-.089-.372-.226-.918-.448-1.607a12.22,12.22,0,0,0-1.057-2.4,6,6,0,0,0-2.4-2.414,65.806,65.806,0,0,0-8.572-3.046c-3.289-.984-6.917-2.026-10.746-3.039-7.66-2.034-14.69-3.49-19.812-4.339-2.56-.433-4.641-.728-6.078-.929l-1.657-.225-.431-.066a.58.58,0,0,1-.146-.032.573.573,0,0,1,.149,0l.434.037,1.664.173c1.443.167,3.53.432,6.1.84a201.052,201.052,0,0,1,19.852,4.263c3.833,1.013,7.462,2.065,10.749,3.063a63.437,63.437,0,0,1,8.587,3.117,6.128,6.128,0,0,1,2.446,2.514,11.873,11.873,0,0,1,1.025,2.451,16.578,16.578,0,0,1,.4,1.628c.03.175.054.317.073.43a.58.58,0,0,1,.015.148" transform="translate(-122.364 -122.582)" fill="#455a64"/>
          <path id="Trazado_226858" data-name="Trazado 226858" d="M319,409.778l.362-1.325a20.64,20.64,0,0,1-11.977-5.162l-3.676,7.948,24.52,10.9c.926-2.344-9.228-12.364-9.228-12.364" transform="translate(-138.753 -184.25)" fill="#d2c1eb"/>
          <path id="Trazado_226859" data-name="Trazado 226859" d="M303.707,416.292l.9-1.942,23.221,11.2s.875.948.4,1.642Z" transform="translate(-138.753 -189.303)" fill="#e0e0e0"/>
          <path id="Trazado_226860" data-name="Trazado 226860" d="M328.855,414.572c-.059.115-.682-.1-1.447.015-.768.093-1.308.463-1.4.368-.1-.072.406-.689,1.334-.81s1.586.332,1.51.427" transform="translate(-148.938 -189.198)" fill="#263238"/>
          <path id="Trazado_226861" data-name="Trazado 226861" d="M312.559,412.553a.716.716,0,0,1-.943.324.681.681,0,0,1-.333-.919.716.716,0,0,1,.943-.324.681.681,0,0,1,.333.919" transform="translate(-142.183 -188.031)" fill="#e0e0e0"/>
          <path id="Trazado_226862" data-name="Trazado 226862" d="M328.915,412.555a1.615,1.615,0,0,1-.556-.1,2.988,2.988,0,0,1-1.376-.734,2.048,2.048,0,0,1-.321-.423,1.284,1.284,0,0,1-.206-.564.6.6,0,0,1,.385-.606.935.935,0,0,1,.743.034,2.739,2.739,0,0,1,1.516,2.392l-.362-.052a2.914,2.914,0,0,1,.242-.55,3.017,3.017,0,0,1,2.658-1.5.923.923,0,0,1,.412.08.524.524,0,0,1,.278.363.944.944,0,0,1-.177.708,2.2,2.2,0,0,1-.94.754,3.8,3.8,0,0,1-1.683.251,2.183,2.183,0,0,1-.614-.051,1.9,1.9,0,0,1,.61-.09,4.142,4.142,0,0,0,1.573-.341,1.963,1.963,0,0,0,.794-.684.664.664,0,0,0,.118-.479c-.03-.137-.147-.183-.373-.18a2.7,2.7,0,0,0-2.332,1.345,2.615,2.615,0,0,0-.213.482.186.186,0,0,1-.362-.052,2.443,2.443,0,0,0-1.285-2.1c-.332-.178-.72-.025-.691.263a1.644,1.644,0,0,0,.417.835,3.165,3.165,0,0,0,1.234.772,1.988,1.988,0,0,1,.511.229" transform="translate(-149.145 -187.345)" fill="#263238"/>
          <path id="Trazado_226863" data-name="Trazado 226863" d="M332.1,417.876a4.705,4.705,0,0,0-3.108.772,2.557,2.557,0,0,1,3.108-.772" transform="translate(-150.304 -190.8)" fill="#263238"/>
          <path id="Trazado_226864" data-name="Trazado 226864" d="M334.88,420.854c-.007.083-.671.063-1.437.295s-1.314.6-1.365.535a2.821,2.821,0,0,1,2.8-.83" transform="translate(-151.714 -192.223)" fill="#263238"/>
          <path id="Trazado_226865" data-name="Trazado 226865" d="M305.757,335.892l.579-1.245a20.643,20.643,0,0,1-10.937-7.1l-4.963,7.216,22.335,14.875c1.307-2.155-7.015-13.741-7.015-13.741" transform="translate(-132.691 -149.643)" fill="#d2c1eb"/>
          <path id="Trazado_226866" data-name="Trazado 226866" d="M290.438,339.345l1.212-1.763,21,14.952s.7,1.081.118,1.686Z" transform="translate(-132.691 -154.23)" fill="#e0e0e0"/>
          <path id="Trazado_226867" data-name="Trazado 226867" d="M315.678,341.965c-.077.1-.656-.212-1.428-.229-.773-.037-1.368.236-1.439.128-.086-.087.516-.611,1.452-.574s1.507.594,1.416.676" transform="translate(-142.909 -155.923)" fill="#263238"/>
          <path id="Trazado_226868" data-name="Trazado 226868" d="M299.962,337.115a.716.716,0,0,1-.985.161.681.681,0,0,1-.174-.962.716.716,0,0,1,.985-.161.681.681,0,0,1,.174.962" transform="translate(-136.455 -153.518)" fill="#e0e0e0"/>
          <path id="Trazado_226869" data-name="Trazado 226869" d="M316.1,339.868a1.6,1.6,0,0,1-.531-.194,2.982,2.982,0,0,1-1.233-.955,2.04,2.04,0,0,1-.245-.47,1.291,1.291,0,0,1-.108-.591.605.605,0,0,1,.481-.532.935.935,0,0,1,.727.158,2.739,2.739,0,0,1,1.092,2.614l-.348-.112a2.959,2.959,0,0,1,.331-.5,3.019,3.019,0,0,1,2.873-1.034.93.93,0,0,1,.393.149.526.526,0,0,1,.213.4.943.943,0,0,1-.293.668,2.2,2.2,0,0,1-1.053.585,3.809,3.809,0,0,1-1.7-.035,2.207,2.207,0,0,1-.6-.154,1.9,1.9,0,0,1,.616.014,4.138,4.138,0,0,0,1.608-.071,1.965,1.965,0,0,0,.9-.541.663.663,0,0,0,.2-.452c-.007-.14-.114-.205-.338-.24a2.705,2.705,0,0,0-2.526.934,2.648,2.648,0,0,0-.291.439.186.186,0,0,1-.248.078.182.182,0,0,1-.1-.191,2.444,2.444,0,0,0-.914-2.287c-.3-.231-.706-.146-.725.143a1.644,1.644,0,0,0,.27.893,3.161,3.161,0,0,0,1.086.968c.306.186.477.29.465.312" transform="translate(-143.445 -154.012)" fill="#263238"/>
          <path id="Trazado_226870" data-name="Trazado 226870" d="M318.294,345.827a4.7,4.7,0,0,0-3.194.238,2.556,2.556,0,0,1,3.194-.238" transform="translate(-143.957 -157.79)" fill="#263238"/>
          <path id="Trazado_226871" data-name="Trazado 226871" d="M320.54,349.238c-.021.081-.672-.051-1.465.049s-1.4.372-1.437.3a2.821,2.821,0,0,1,2.9-.347" transform="translate(-145.117 -159.438)" fill="#263238"/>
        </g>
      </g>
      <g id="Grupo_177600" data-name="Grupo 177600">
        <g id="Grupo_177599" data-name="Grupo 177599" clip-path="url(#clip-path)">
          <path id="Trazado_226872" data-name="Trazado 226872" d="M104.163,118.216,91.232,106.308V60.373H.261V147.81H91.232V118.216Z" transform="translate(-0.119 -27.583)" fill="#fff"/>
          <rect id="Rectángulo_57229" data-name="Rectángulo 57229" width="90.971" height="6.549" transform="translate(0.142 32.791)" fill="#f5f5f5"/>
          <path id="Trazado_226873" data-name="Trazado 226873" d="M.307,195.774v13.9H91.251v-13.9Z" transform="translate(-0.14 -89.443)" fill="#ebebeb"/>
          <path id="Trazado_226874" data-name="Trazado 226874" d="M21.892,65.808a1.224,1.224,0,1,1-1.224-1.224,1.224,1.224,0,0,1,1.224,1.224" transform="translate(-8.883 -29.506)" fill="#fff"/>
          <path id="Trazado_226875" data-name="Trazado 226875" d="M8.235,65.808a1.224,1.224,0,1,1-1.224-1.224,1.224,1.224,0,0,1,1.224,1.224" transform="translate(-2.644 -29.506)" fill="#fff"/>
          <path id="Trazado_226876" data-name="Trazado 226876" d="M15.063,65.808a1.224,1.224,0,1,1-1.224-1.224,1.224,1.224,0,0,1,1.224,1.224" transform="translate(-5.763 -29.506)" fill="#fff"/>
          <path id="Trazado_226877" data-name="Trazado 226877" d="M146.627,90.863h0a5.766,5.766,0,1,1,5.766-5.766,5.767,5.767,0,0,1-5.766,5.766" transform="translate(-64.355 -36.243)" fill="#ebebeb"/>
          <path id="Trazado_226878" data-name="Trazado 226878" d="M149.509,88.513a.92.92,0,1,0-.558-.006,1.6,1.6,0,0,0-1.344,1.581h3.208a1.6,1.6,0,0,0-1.306-1.575" transform="translate(-67.436 -39.617)" fill="#263238"/>
          <path id="Trazado_226879" data-name="Trazado 226879" d="M154.309,89.064a.132.132,0,0,1-.133-.133V87.456a.133.133,0,1,1,.265,0v1.476a.132.132,0,0,1-.133.133" transform="translate(-70.438 -39.895)" fill="#263238"/>
          <path id="Trazado_226880" data-name="Trazado 226880" d="M154.426,88.948H152.95a.132.132,0,1,1,0-.265h1.476a.132.132,0,1,1,0,.265" transform="translate(-69.817 -40.516)" fill="#263238"/>
          <path id="Trazado_226881" data-name="Trazado 226881" d="M114.53,204.259a4.32,4.32,0,1,1-4.32-4.32,4.32,4.32,0,0,1,4.32,4.32" transform="translate(-48.378 -91.345)" fill="#12263f"/>
          <path id="Trazado_226882" data-name="Trazado 226882" d="M112.449,208.241h-.76a.7.7,0,0,1-.7-.7v-.76a.7.7,0,0,1,.7-.7h.76a.7.7,0,0,1,.7.7v.76a.7.7,0,0,1-.7.7" transform="translate(-50.708 -94.154)" fill="#fff"/>
          <path id="Trazado_226883" data-name="Trazado 226883" d="M115.32,207.638v-.73l.545-.584a.117.117,0,0,1,.2.08v1.659a.117.117,0,0,1-.2.086Z" transform="translate(-52.686 -94.245)" fill="#fff"/>
          <path id="Trazado_226884" data-name="Trazado 226884" d="M83.3,207.433a4.258,4.258,0,1,1,6.022,0,4.258,4.258,0,0,1-6.022,0" transform="translate(-37.489 -91.448)" fill="#eeac3a"/>
          <path id="Trazado_226885" data-name="Trazado 226885" d="M86.193,208.06l.759-.179a.208.208,0,0,0,.16-.2v-.156s-.033-.266.218-.282c.18-.012,1.322,0,1.322,0s.3-.006.3.231v.228a.177.177,0,0,0,.126.17l.824.249a.178.178,0,0,0,.216-.1l.1-.254a.332.332,0,0,0,.026-.147.713.713,0,0,0-.141-.381,3.111,3.111,0,0,0-2.4-.633c-1.4.068-1.7.657-1.783.8a.6.6,0,0,0-.027.393c.015.034.038.09.061.146a.208.208,0,0,0,.239.122" transform="translate(-39.232 -94.386)" fill="#fff"/>
          <path id="Trazado_226886" data-name="Trazado 226886" d="M66.634,204.359a4.282,4.282,0,1,1-4.282-4.282,4.282,4.282,0,0,1,4.282,4.282" transform="translate(-26.53 -91.408)" fill="#43a99b"/>
          <path id="Trazado_226887" data-name="Trazado 226887" d="M63.1,208.028a.422.422,0,1,1,.422-.422.422.422,0,0,1-.422.422" transform="translate(-28.633 -94.655)" fill="#fff"/>
          <path id="Trazado_226888" data-name="Trazado 226888" d="M65.513,208.028a.422.422,0,1,1,.422-.422.422.422,0,0,1-.422.422" transform="translate(-29.738 -94.655)" fill="#fff"/>
          <path id="Trazado_226889" data-name="Trazado 226889" d="M68.1,208.028a.422.422,0,1,1,.422-.422.422.422,0,0,1-.422.422" transform="translate(-30.92 -94.655)" fill="#fff"/>
          <path id="Trazado_226890" data-name="Trazado 226890" d="M13.582,86.974A2.771,2.771,0,1,1,10.811,84.2a2.771,2.771,0,0,1,2.771,2.771" transform="translate(-3.673 -38.47)" fill="#455a64"/>
          <path id="Trazado_226891" data-name="Trazado 226891" d="M37.759,88.359c0,.078-3.456.141-7.718.141s-7.719-.063-7.719-.141,3.455-.141,7.719-.141,7.718.063,7.718.141" transform="translate(-10.198 -40.304)" fill="#455a64"/>
          <path id="Trazado_226892" data-name="Trazado 226892" d="M104.044,118.1l-12.931.052.052-.052c.009,7.093.022,17.162.038,29.594v.09h-.09l-90.971.046H.086l-.04-.04-.04-.04v-.056c0-16.9,0-35.224-.007-54.2,0-11.35,0-22.463,0-33.233v-.139H.142l90.971.033h.106v.106c-.02,19.387-.036,35.105-.047,45.935l-.019-.043L104.044,118.1,91.073,106.234l-.019-.017v-.026c-.011-10.83-.027-26.548-.047-45.935l.106.106L.142,60.4l.139-.139c0,10.77,0,21.883,0,33.233,0,18.979,0,37.3-.006,54.2l-.04-.1-.1-.04,90.971.046-.089.089c.016-12.432.029-22.5.038-29.594v-.052h.051l12.931.051" transform="translate(0 -27.465)" fill="#263238"/>
          <path id="Trazado_226893" data-name="Trazado 226893" d="M71.124,99.431l1.735,22.834c.295,3.883,1.522,9.527,7.64,8.78,5.259-1.048,6.223-6.2,5.945-9.823-.133-1.718-.24-3.152-.241-3.33,0,0,5.771-.989,5.754-6.773-.009-2.8-.495-8.553-1-13.756a10.775,10.775,0,0,0-10.895-9.737l-.558.008c-6.012.444-8.994,5.8-8.384,11.8" transform="translate(-32.459 -40.033)" fill="#ffd5bd"/>
          <path id="Trazado_226894" data-name="Trazado 226894" d="M92.6,141.494a13.449,13.449,0,0,1-7.573-2.028s1.846,4.135,7.61,3.526Z" transform="translate(-38.844 -63.717)" fill="#ffb294"/>
          <path id="Trazado_226895" data-name="Trazado 226895" d="M103.01,110.612c-.1.121-.916-.051-1.946.243s-1.7.869-1.83.811c-.065-.023.017-.216.305-.477a3.679,3.679,0,0,1,1.438-.758,3.362,3.362,0,0,1,1.576-.084c.359.081.506.209.457.265" transform="translate(-45.327 -50.388)" fill="#263238"/>
          <path id="Trazado_226896" data-name="Trazado 226896" d="M86.586,111.963c-.14.064-.8-.445-1.844-.638s-1.9.02-1.991-.089c-.047-.049.111-.182.482-.285a3.713,3.713,0,0,1,1.617-.036,3.389,3.389,0,0,1,1.444.615c.285.228.359.4.291.432" transform="translate(-37.803 -50.641)" fill="#263238"/>
          <path id="Trazado_226897" data-name="Trazado 226897" d="M89.225,115.251a.638.638,0,0,1-.605.653.61.61,0,0,1-.666-.565.638.638,0,0,1,.6-.653.61.61,0,0,1,.667.565" transform="translate(-40.183 -52.395)" fill="#263238"/>
          <path id="Trazado_226898" data-name="Trazado 226898" d="M104.731,114.126a.638.638,0,0,1-.605.653.61.61,0,0,1-.666-.565.638.638,0,0,1,.6-.653.61.61,0,0,1,.667.565" transform="translate(-47.267 -51.881)" fill="#263238"/>
          <path id="Trazado_226899" data-name="Trazado 226899" d="M95.1,117.189a5.882,5.882,0,0,1,1.44-.282c.226-.027.44-.076.476-.231a1.154,1.154,0,0,0-.162-.67l-.7-1.718a29.649,29.649,0,0,1-1.577-4.5,29.818,29.818,0,0,1,1.935,4.36q.35.905.67,1.729a1.315,1.315,0,0,1,.131.889.569.569,0,0,1-.368.337,1.548,1.548,0,0,1-.385.06,5.77,5.77,0,0,1-1.463.024" transform="translate(-43.208 -50.159)" fill="#263238"/>
          <path id="Trazado_226900" data-name="Trazado 226900" d="M85.676,104.4c-.074.222-.859.129-1.777.258-.921.11-1.658.4-1.783.2-.056-.094.071-.3.367-.521a2.927,2.927,0,0,1,1.317-.5,2.9,2.9,0,0,1,1.4.148c.339.135.512.306.481.411" transform="translate(-37.51 -47.431)" fill="#263238"/>
          <path id="Trazado_226901" data-name="Trazado 226901" d="M102.81,106.189c-.085.183-.853.056-1.766.109-.914.036-1.657.236-1.769.062-.049-.083.086-.252.392-.418a3.188,3.188,0,0,1,1.326-.342,3.289,3.289,0,0,1,1.367.211c.327.135.487.291.45.377" transform="translate(-45.351 -48.243)" fill="#263238"/>
          <path id="Trazado_226902" data-name="Trazado 226902" d="M68.975,117.1c-.1-.041-3.993-1.115-3.805,2.838s4.116,2.949,4.118,2.836-.313-5.674-.313-5.674" transform="translate(-29.771 -53.423)" fill="#ffd5bd"/>
          <path id="Trazado_226903" data-name="Trazado 226903" d="M68.859,122.427c-.018-.012-.067.052-.18.11a.688.688,0,0,1-.514.035,1.707,1.707,0,0,1-.861-1.491,2.292,2.292,0,0,1,.146-1,.8.8,0,0,1,.493-.553.35.35,0,0,1,.415.169c.059.108.037.188.059.194s.081-.07.042-.232a.44.44,0,0,0-.167-.241.521.521,0,0,0-.385-.083.969.969,0,0,0-.69.647,2.339,2.339,0,0,0-.187,1.113,1.79,1.79,0,0,0,1.085,1.66.739.739,0,0,0,.625-.135c.118-.1.135-.193.121-.2" transform="translate(-30.62 -54.52)" fill="#ffb294"/>
          <path id="Trazado_226904" data-name="Trazado 226904" d="M92.347,126.606c.034-.1-.758-.266-1.364-.942a4.459,4.459,0,0,1-.636-.98c-.14-.276-.243-.448-.284-.431s-.012.209.079.514a2.914,2.914,0,0,0,.609,1.107,2.367,2.367,0,0,0,1.074.682c.312.1.516.085.523.05" transform="translate(-41.139 -56.767)" fill="#263238"/>
          <path id="Trazado_226905" data-name="Trazado 226905" d="M93.587,88.552a.934.934,0,0,0-.485-.5,2.871,2.871,0,0,0-1.489-.108,8.328,8.328,0,0,1-4.434-.93,19.371,19.371,0,0,0-2.225-2.258,14.683,14.683,0,0,0-4.973-3.2,13.386,13.386,0,0,0-7.168.07,5.41,5.41,0,0,0-3.7,4.552,4.16,4.16,0,0,0-4.2-.022l-.036-.012c-1.471.676-2.193,2.358-2.5,3.948a19.355,19.355,0,0,1-1.054,4.725c-.146.306-.319.672-.142.961a.644.644,0,0,0,.7.232,1.891,1.891,0,0,0,.679-.382l-.4,1.262a3.6,3.6,0,0,0,1.643-.256,35.457,35.457,0,0,0,1.443,3.991,2.348,2.348,0,0,1,1.644.254c.575.431.892,1.311,1.747.891.435-.214.762-1.195.872-1.667a22.5,22.5,0,0,0,.131-9.572,7.234,7.234,0,0,1,2.082-1.8l-.063.067c1.556-.7,3.322-1.408,4.912-.79,1.232.48,2.035,1.644,3,2.544a9.053,9.053,0,0,0,6.688,2.4c.228,1.609.294,3.906.522,5.516l1.131-2.71,0,.013c.095-.2.17-.4.242-.6l.026-.06V95.1a10.125,10.125,0,0,1,.373-.96l.017.012a1.014,1.014,0,0,0,1.356-1.481,2.261,2.261,0,0,0-.532-.448,1.606,1.606,0,0,0,1.557.26,1.259,1.259,0,0,0,.777-1.319,1.07,1.07,0,0,0-.711-.8,3.616,3.616,0,0,0,2.008-.633c.384-.266.747-.681.565-1.178" transform="translate(-27.915 -37.051)" fill="#263238"/>
          <path id="Trazado_226906" data-name="Trazado 226906" d="M72.9,91.362a4.945,4.945,0,0,0-.53.578,4.136,4.136,0,0,0-.713,1.985,7.288,7.288,0,0,0-.017,1.472c.045.529.137,1.092.23,1.685a15.088,15.088,0,0,1,.21,1.88,6.671,6.671,0,0,1-.041,1,2.084,2.084,0,0,1-.32,1,.871.871,0,0,1-.787.344,1.3,1.3,0,0,1-.766-.348,2.989,2.989,0,0,1-.682-1.412l.122,0a4.833,4.833,0,0,1-.593,1.266,1.717,1.717,0,0,1-1.063.707,1.109,1.109,0,0,1-.6-.051.963.963,0,0,1-.438-.361.991.991,0,0,1-.167-.5.715.715,0,0,1,.145-.463l.066.049a3.723,3.723,0,0,1-1.152,1.035,3.359,3.359,0,0,1-.369.182.6.6,0,0,1-.134.046.748.748,0,0,1,.125-.066c.082-.043.2-.105.356-.2a3.824,3.824,0,0,0,1.108-1.044l.066.049a.74.74,0,0,0,.037.857.86.86,0,0,0,.395.318,1.009,1.009,0,0,0,.544.04,1.609,1.609,0,0,0,.986-.67,4.756,4.756,0,0,0,.569-1.237l.066-.191.055.2a2.893,2.893,0,0,0,.651,1.349,1.161,1.161,0,0,0,.685.311.733.733,0,0,0,.669-.292,1.973,1.973,0,0,0,.294-.935,6.61,6.61,0,0,0,.042-.985,15.408,15.408,0,0,0-.2-1.865c-.09-.594-.179-1.159-.219-1.7a7.235,7.235,0,0,1,.034-1.493,4.082,4.082,0,0,1,.766-2,2.346,2.346,0,0,1,.571-.546" transform="translate(-29.831 -41.74)" fill="#455a64"/>
          <path id="Trazado_226907" data-name="Trazado 226907" d="M97.677,92.411s-.013.016-.042.043l-.135.117a1.84,1.84,0,0,1-.229.178,3.077,3.077,0,0,1-.333.215,5.111,5.111,0,0,1-2.42.66,6.534,6.534,0,0,1-3.58-.973,11.314,11.314,0,0,1-3.282-3.169c-.48-.658-.883-1.342-1.317-1.967A7.646,7.646,0,0,0,84.9,85.88a3.934,3.934,0,0,0-1.744-.858A2.824,2.824,0,0,0,82.276,85a3.1,3.1,0,0,0-.785.224,3.333,3.333,0,0,0-1.708,1.725,4,4,0,0,0-.221.887.225.225,0,0,1,0-.061c0-.048.007-.106.011-.178a2.921,2.921,0,0,1,.161-.668A3.293,3.293,0,0,1,80.3,86a3.382,3.382,0,0,1,1.151-.865,3.208,3.208,0,0,1,.81-.24,2.908,2.908,0,0,1,.916.017,4.032,4.032,0,0,1,1.8.871,7.7,7.7,0,0,1,1.469,1.657c.438.629.842,1.311,1.317,1.963A11.323,11.323,0,0,0,91,92.544a6.493,6.493,0,0,0,3.514.985,5.187,5.187,0,0,0,2.4-.61,8.131,8.131,0,0,0,.765-.507" transform="translate(-36.349 -38.773)" fill="#455a64"/>
          <path id="Trazado_226908" data-name="Trazado 226908" d="M108.36,94.024a.908.908,0,0,1-.193.162,4.458,4.458,0,0,1-.582.363,5.9,5.9,0,0,1-.938.4,6.27,6.27,0,0,1-2.471.3,5.955,5.955,0,0,1-1.006-.167,4.515,4.515,0,0,1-.652-.215.948.948,0,0,1-.226-.111c.009-.024.341.111.9.232a6.854,6.854,0,0,0,.993.136,6.718,6.718,0,0,0,2.425-.293,6.808,6.808,0,0,0,.933-.369c.514-.251.8-.461.819-.44" transform="translate(-46.733 -42.956)" fill="#455a64"/>
          <path id="Trazado_226909" data-name="Trazado 226909" d="M55.6,146.956l-6.969,2.91a24.024,24.024,0,0,0-10.7,8.651c-.622.921-2.6,8.023-2.744,8.606-.576,2.334-1.52,6.347-1.52,6.347H89.03s-1.636-15.82-5.581-18.877c-2.56-1.984-14.282-7.4-14.282-7.4a5.169,5.169,0,0,1-4.746,2.985,12.733,12.733,0,0,1-8.825-3.227" transform="translate(-15.379 -67.139)" fill="#455a64"/>
        </g>
      </g>
    </g>
    <path id="Trazado_226910" data-name="Trazado 226910" d="M608.095,50,599.673,18.1a3.266,3.266,0,0,0-1.615-2.079l-13.8-7.463a3.266,3.266,0,0,0-4.279,1.073l-8.648,13.09a3.267,3.267,0,0,0-.443,2.6L579.31,57.22a3.267,3.267,0,0,0,3.963,2.374l22.448-5.627A3.267,3.267,0,0,0,608.095,50M584.845,19.595a3.067,3.067,0,1,1,2.474-3.563,3.066,3.066,0,0,1-2.474,3.563" transform="translate(-478.851 -8.161)" fill="#e0e0e0"/>
    <path id="Trazado_226911" data-name="Trazado 226911" d="M608.095,50,599.673,18.1a3.266,3.266,0,0,0-1.615-2.079l-13.8-7.463a3.266,3.266,0,0,0-4.279,1.073l-8.648,13.09a3.267,3.267,0,0,0-.443,2.6L579.31,57.22a3.267,3.267,0,0,0,3.963,2.374l22.448-5.627A3.267,3.267,0,0,0,608.095,50M584.845,19.595a3.067,3.067,0,1,1,2.474-3.563,3.066,3.066,0,0,1-2.474,3.563" transform="translate(-265.816 122.839)" fill="#e0e0e0"/>
    <path id="Trazado_226912" data-name="Trazado 226912" d="M608.095,50,599.673,18.1a3.266,3.266,0,0,0-1.615-2.079l-13.8-7.463a3.266,3.266,0,0,0-4.279,1.073l-8.648,13.09a3.267,3.267,0,0,0-.443,2.6L579.31,57.22a3.267,3.267,0,0,0,3.963,2.374l22.448-5.627A3.267,3.267,0,0,0,608.095,50M584.845,19.595a3.067,3.067,0,1,1,2.474-3.563,3.066,3.066,0,0,1-2.474,3.563" transform="translate(-576.816 122.839)" fill="#e0e0e0"/>
    <path id="Trazado_226913" data-name="Trazado 226913" d="M583.342,52.988c-.824-3.113.633-5.508,3.283-6.209,2.675-.708,5.127.652,5.951,3.764.831,3.139-.633,5.508-3.308,6.216-2.65.7-5.1-.633-5.926-3.771m6.122-1.621c-.484-1.827-1.317-2.377-2.192-2.145-.823.218-1.327,1.122-.843,2.948s1.369,2.362,2.192,2.144c.874-.232,1.326-1.121.843-2.948m7.871-7.178,3.7-.98L593.512,64.47l-3.7.981ZM598.3,58.11c-.824-3.112.608-5.5,3.282-6.209s5.128.651,5.952,3.763c.831,3.138-.633,5.508-3.308,6.216s-5.095-.633-5.925-3.771m6.122-1.621c-.483-1.826-1.343-2.369-2.192-2.144s-1.327,1.123-.844,2.948,1.344,2.369,2.192,2.145,1.327-1.122.843-2.949" transform="translate(-484.741 -24.915)" fill="#fff"/>
    <path id="Trazado_226914" data-name="Trazado 226914" d="M583.342,52.988c-.824-3.113.633-5.508,3.283-6.209,2.675-.708,5.127.652,5.951,3.764.831,3.139-.633,5.508-3.308,6.216-2.65.7-5.1-.633-5.926-3.771m6.122-1.621c-.484-1.827-1.317-2.377-2.192-2.145-.823.218-1.327,1.122-.843,2.948s1.369,2.362,2.192,2.144c.874-.232,1.326-1.121.843-2.948m7.871-7.178,3.7-.98L593.512,64.47l-3.7.981ZM598.3,58.11c-.824-3.112.608-5.5,3.282-6.209s5.128.651,5.952,3.763c.831,3.138-.633,5.508-3.308,6.216s-5.095-.633-5.925-3.771m6.122-1.621c-.483-1.826-1.343-2.369-2.192-2.144s-1.327,1.123-.844,2.948,1.344,2.369,2.192,2.145,1.327-1.122.843-2.949" transform="translate(-271.706 106.085)" fill="#fff"/>
    <path id="Trazado_226915" data-name="Trazado 226915" d="M583.342,52.988c-.824-3.113.633-5.508,3.283-6.209,2.675-.708,5.127.652,5.951,3.764.831,3.139-.633,5.508-3.308,6.216-2.65.7-5.1-.633-5.926-3.771m6.122-1.621c-.484-1.827-1.317-2.377-2.192-2.145-.823.218-1.327,1.122-.843,2.948s1.369,2.362,2.192,2.144c.874-.232,1.326-1.121.843-2.948m7.871-7.178,3.7-.98L593.512,64.47l-3.7.981ZM598.3,58.11c-.824-3.112.608-5.5,3.282-6.209s5.128.651,5.952,3.763c.831,3.138-.633,5.508-3.308,6.216s-5.095-.633-5.925-3.771m6.122-1.621c-.483-1.826-1.343-2.369-2.192-2.144s-1.327,1.123-.844,2.948,1.344,2.369,2.192,2.145,1.327-1.122.843-2.949" transform="translate(-582.706 106.085)" fill="#fff"/>
  </g>
</svg>
