<svg id="Grupo_177308" data-name="Grupo 177308" xmlns="http://www.w3.org/2000/svg" xmlns:xlink="http://www.w3.org/1999/xlink" width="349" height="240.891" viewBox="0 0 349 240.891">
  <defs>
    <clipPath id="clip-path">
      <rect id="Rectángulo_57044" data-name="Rectángulo 57044" width="349" height="240.891" fill="none"/>
    </clipPath>
    <linearGradient id="linear-gradient" x1="0.5" x2="0.5" y2="1" gradientUnits="objectBoundingBox">
      <stop offset="0" stop-color="#0a518b"/>
      <stop offset="1" stop-color="#1894f6"/>
    </linearGradient>
    <clipPath id="clip-path-5">
      <rect id="Rectángulo_57030" data-name="Rectángulo 57030" width="53.004" height="20.98" fill="none"/>
    </clipPath>
    <clipPath id="clip-path-6">
      <rect id="Rectángulo_57031" data-name="Rectángulo 57031" width="8.941" height="6.846" fill="none"/>
    </clipPath>
    <linearGradient id="linear-gradient-2" x1="0.5" x2="0.5" y2="1" gradientUnits="objectBoundingBox">
      <stop offset="0" stop-color="#fdbe41"/>
      <stop offset="1" stop-color="#d09f40"/>
    </linearGradient>
    <linearGradient id="linear-gradient-3" x1="0.5" x2="0.5" y2="1" gradientUnits="objectBoundingBox">
      <stop offset="0" stop-color="#2a9d8d"/>
      <stop offset="1" stop-color="#43a99b"/>
    </linearGradient>
    <clipPath id="clip-path-11">
      <rect id="Rectángulo_57041" data-name="Rectángulo 57041" width="26.557" height="35.921" fill="none"/>
    </clipPath>
    <clipPath id="clip-path-12">
      <rect id="Rectángulo_57042" data-name="Rectángulo 57042" width="19.381" height="19.882" fill="none"/>
    </clipPath>
  </defs>
  <g id="Grupo_177307" data-name="Grupo 177307" clip-path="url(#clip-path)">
    <rect id="Rectángulo_57024" data-name="Rectángulo 57024" width="52.2" height="77.445" transform="translate(257.824 169.074) rotate(-68.535)" fill="#ebebeb"/>
    <g id="Grupo_177279" data-name="Grupo 177279">
      <g id="Grupo_177278" data-name="Grupo 177278" clip-path="url(#clip-path)">
        <path id="Trazado_224698" data-name="Trazado 224698" d="M541.875,233.9a5.374,5.374,0,0,1-.925.383l-2.7.969-9.973,3.445-33.066,11.141-.272.092-.144-.25-.348-.6-17.555-30.7c-2.188-3.9-3.972-7.07-5.25-9.343l-1.4-2.558a5.588,5.588,0,0,1-.446-.915,5.452,5.452,0,0,1,.568.845l1.511,2.492,5.444,9.231c4.571,7.887,10.824,18.676,17.733,30.6l.348.6-.416-.158,33.132-10.943L538.165,235l2.74-.845a5.364,5.364,0,0,1,.97-.249" transform="translate(-192.875 -84.393)" fill="#e0e0e0"/>
        <path id="Trazado_224699" data-name="Trazado 224699" d="M437.4,274.318c-.093-.171,7.946-4.7,17.952-10.113s18.2-9.665,18.288-9.494-7.944,4.7-17.954,10.113-18.193,9.664-18.286,9.494" transform="translate(-179.571 -104.568)" fill="#e0e0e0"/>
        <path id="Trazado_224700" data-name="Trazado 224700" d="M539.919,269.665c.186-.055,2.942,8.661,6.155,19.466s5.668,19.613,5.482,19.668-2.941-8.659-6.156-19.468-5.668-19.611-5.481-19.667" transform="translate(-221.658 -110.71)" fill="#e0e0e0"/>
        <rect id="Rectángulo_57025" data-name="Rectángulo 57025" width="46.325" height="31.225" transform="matrix(0.917, -0.399, 0.399, 0.917, 288.055, 76.144)" fill="#ebebeb"/>
        <path id="Trazado_224701" data-name="Trazado 224701" d="M531.639,98.279a3.222,3.222,0,0,1-.229.553l-.732,1.551-2.762,5.675-9.273,18.7-.077.154-.166-.045-.4-.108-20.41-5.559-6.172-1.732-1.673-.491a3.343,3.343,0,0,1-.575-.2,3.289,3.289,0,0,1,.6.117l1.693.415,6.208,1.6,20.442,5.441.4.108-.242.109,9.385-18.643,2.881-5.616.8-1.516a3.238,3.238,0,0,1,.3-.516" transform="translate(-200.826 -40.348)" fill="#e0e0e0"/>
        <path id="Trazado_224702" data-name="Trazado 224702" d="M510.315,161.775c-.111-.033,1.373-5.349,3.316-11.87s3.608-11.784,3.719-11.751-1.373,5.347-3.316,11.872-3.607,11.783-3.719,11.75" transform="translate(-209.506 -56.718)" fill="#e0e0e0"/>
        <path id="Trazado_224703" data-name="Trazado 224703" d="M545.94,127.112c.055-.1,4.908,2.419,10.837,5.63s10.693,5.9,10.638,6-4.907-2.418-10.838-5.63-10.692-5.9-10.637-6" transform="translate(-224.133 -52.184)" fill="#e0e0e0"/>
      </g>
    </g>
    <g id="Grupo_177281" data-name="Grupo 177281">
      <g id="Grupo_177280" data-name="Grupo 177280" clip-path="url(#clip-path)">
        <path id="Trazado_224704" data-name="Trazado 224704" d="M287.78,284.549H44.069a8.587,8.587,0,0,1-8.587-8.587V120.615a8.587,8.587,0,0,1,8.587-8.587H287.78a8.587,8.587,0,0,1,8.587,8.587V275.962a8.587,8.587,0,0,1-8.587,8.587" transform="translate(-14.567 -45.993)" fill="#263238"/>
        <path id="Trazado_224705" data-name="Trazado 224705" d="M289.132,398.155H27.465a10.491,10.491,0,0,1-10.491-10.491v-4.6H299.623v4.6a10.491,10.491,0,0,1-10.491,10.491" transform="translate(-6.969 -157.264)" fill="#263238"/>
        <rect id="Rectángulo_57027" data-name="Rectángulo 57027" width="246.149" height="145.691" transform="translate(27.918 72.889)" fill="#455a64"/>
        <path id="Trazado_224706" data-name="Trazado 224706" d="M213.146,383.06l3.507,5.579h49.354l3.257-5.579Z" transform="translate(-87.506 -157.264)" fill="#455a64"/>
        <path id="Trazado_224707" data-name="Trazado 224707" d="M290.551,272.316H57.893a1.929,1.929,0,0,1-1.929-1.929V133.953a1.929,1.929,0,0,1,1.929-1.929H290.551a1.929,1.929,0,0,1,1.929,1.929V270.387a1.929,1.929,0,0,1-1.929,1.929" transform="translate(-22.976 -54.202)" fill="#ebebeb"/>
        <rect id="Rectángulo_57028" data-name="Rectángulo 57028" width="236.516" height="130.013" transform="translate(32.988 88.101)" fill="#ebebeb"/>
        <path id="Trazado_224708" data-name="Trazado 224708" d="M86.241,139.9a1.889,1.889,0,1,1-1.889-1.889,1.889,1.889,0,0,1,1.889,1.889" transform="translate(-33.855 -56.66)" fill="#455a64"/>
        <path id="Trazado_224709" data-name="Trazado 224709" d="M66.82,139.9a1.889,1.889,0,1,1-1.89-1.889,1.889,1.889,0,0,1,1.89,1.889" transform="translate(-25.882 -56.66)" fill="#455a64"/>
        <path id="Trazado_224710" data-name="Trazado 224710" d="M76.142,139.9a1.889,1.889,0,1,1-1.889-1.889,1.889,1.889,0,0,1,1.889,1.889" transform="translate(-29.709 -56.66)" fill="#455a64"/>
        <path id="Trazado_224711" data-name="Trazado 224711" d="M294.125,382.942c0,.093-57.9.169-129.315.169-71.436,0-129.327-.076-129.327-.169s57.891-.169,129.327-.169c71.412,0,129.315.076,129.315.169" transform="translate(-14.567 -157.146)" fill="#455a64"/>
      </g>
    </g>
    <g id="Grupo_177289" data-name="Grupo 177289">
      <g id="Grupo_177288" data-name="Grupo 177288" clip-path="url(#clip-path)">
        <path id="Trazado_224712" data-name="Trazado 224712" d="M20.86,254.724a1.315,1.315,0,0,1-.2-.12l-.576-.383-.944-.64c-.374-.256-.817-.542-1.277-.924l-1.572-1.241c-.574-.463-1.152-1.028-1.805-1.609a43.721,43.721,0,0,1-4.108-4.418,45.961,45.961,0,0,1-7.761-14.535A57.23,57.23,0,0,1,.171,209.178a62.189,62.189,0,0,1,2.2-12.552,50.833,50.833,0,0,1,5.445-12.694c.617-1.027,1.314-2.019,2.038-3q1.147-1.42,2.31-2.864c.821-.924,1.676-1.83,2.523-2.757.866-.908,1.8-1.758,2.713-2.65a90.705,90.705,0,0,1,12.455-9.532c9.028-5.84,19.234-10.673,29.74-15.707,10.472-5.13,21.51-10.051,32.827-15.027,45.325-19.85,86.806-36.761,117.024-48.5C224.546,78,236.871,73.5,245.4,70.42c4.269-1.52,7.6-2.651,9.857-3.432l2.569-.874.657-.216a1.337,1.337,0,0,1,.225-.062,1.274,1.274,0,0,1-.214.093l-.648.245-2.549.932-9.817,3.54c-8.5,3.15-20.8,7.705-35.873,13.653-30.169,11.842-71.619,28.814-116.934,48.659-11.319,4.977-22.34,9.885-32.814,15.007-10.513,5.027-20.7,9.84-29.693,15.64a90.352,90.352,0,0,0-12.4,9.453c-.9.884-1.837,1.726-2.7,2.624-.841.918-1.691,1.815-2.508,2.729l-2.3,2.834c-.716.967-1.405,1.94-2.018,2.954a50.44,50.44,0,0,0-5.422,12.557A61.892,61.892,0,0,0,.6,209.209a57.082,57.082,0,0,0,2.34,21.539,46.035,46.035,0,0,0,7.622,14.491,44.416,44.416,0,0,0,4.046,4.434c.644.585,1.213,1.155,1.779,1.624l1.549,1.261c.452.389.889.682,1.256.946l.924.664.558.408a1.284,1.284,0,0,1,.183.147" transform="translate(0 -27.028)" fill="#263238"/>
        <path id="Trazado_224713" data-name="Trazado 224713" d="M422.082,31.794,433,40.843l-1.007,10.363,8.941-4.971L450.454,53l35.5-22.8Z" transform="translate(-173.284 -12.399)" fill="url(#linear-gradient)"/>
        <g id="Grupo_177284" data-name="Grupo 177284" transform="translate(258.704 17.827)" opacity="0.5">
          <g id="Grupo_177283" data-name="Grupo 177283">
            <g id="Grupo_177282" data-name="Grupo 177282" clip-path="url(#clip-path-5)">
              <path id="Trazado_224714" data-name="Trazado 224714" d="M439.9,40.86l52-10.617-46.7,14.134-6.3,6.847Z" transform="translate(-438.888 -30.243)"/>
            </g>
          </g>
        </g>
        <g id="Grupo_177287" data-name="Grupo 177287" transform="translate(258.704 31.961)" opacity="0.8">
          <g id="Grupo_177286" data-name="Grupo 177286">
            <g id="Grupo_177285" data-name="Grupo 177285" clip-path="url(#clip-path-6)">
              <path id="Trazado_224715" data-name="Trazado 224715" d="M445.19,54.221l2.64,1.875-8.941,4.971Z" transform="translate(-438.888 -54.221)"/>
            </g>
          </g>
        </g>
      </g>
    </g>
    <path id="Trazado_224800" data-name="Trazado 224800" d="M0,0H56.96V38.393H0Z" transform="translate(44.773 161.029) rotate(-5.419)" fill="url(#linear-gradient-2)"/>
    <g id="Grupo_177291" data-name="Grupo 177291">
      <g id="Grupo_177290" data-name="Grupo 177290" clip-path="url(#clip-path)">
        <path id="Trazado_224716" data-name="Trazado 224716" d="M136.069,302.117s-.039-.247-.09-.707q-.077-.722-.216-2.027c-.182-1.793-.447-4.387-.785-7.7-.657-6.65-1.6-16.172-2.746-27.769l.23.191-56.7,5.431c-.057.062.446-.543.234-.282v.01l0,.02,0,.04.007.08.015.16.03.319.061.637.121,1.271q.119,1.27.239,2.53l.474,5.007q.47,4.969.922,9.773c.6,6.4,1.179,12.548,1.727,18.372l-.263-.218,40.82-3.752,11.692-1.044,3.121-.266.811-.063a2.42,2.42,0,0,1,.285-.012,1.643,1.643,0,0,1-.254.038l-.781.088-3.068.32-11.625,1.168-40.955,4.005-.24.024-.024-.242-1.759-18.369q-.457-4.8-.931-9.771-.236-2.485-.476-5.007-.119-1.261-.24-2.53l-.121-1.271-.061-.637-.03-.319-.015-.16-.008-.08,0-.04,0-.02v-.01c-.214.253.289-.357.242-.294l56.706-5.326.212-.02.019.211c1.06,11.66,1.93,21.235,2.537,27.921.289,3.3.516,5.877.673,7.661q.107,1.285.166,1.992c.034.447.04.667.04.667" transform="translate(-30.964 -108.247)" fill="#455a64"/>
        <path id="Trazado_224717" data-name="Trazado 224717" d="M132.663,264.057a3.837,3.837,0,0,1-.44.565l-1.336,1.557-5,5.679c-4.3,4.811-10.2,11.408-16.776,18.76l-.149.167-.189-.12-1.51-.962-22.2-14.238L78.372,271.1l-1.8-1.21a4.072,4.072,0,0,1-.611-.452,4.088,4.088,0,0,1,.668.362l1.859,1.126,6.784,4.224,22.28,14.107,1.51.963-.338.046,16.9-18.651,5.123-5.569,1.408-1.492a3.7,3.7,0,0,1,.517-.5" transform="translate(-31.184 -108.407)" fill="#455a64"/>
        <rect id="Rectángulo_57034" data-name="Rectángulo 57034" width="28.172" height="41.796" transform="translate(213.693 127.549) rotate(-74.218)" fill="#fff"/>
        <path id="Trazado_224718" data-name="Trazado 224718" d="M402.6,208.741s.039-.179.126-.508.222-.824.39-1.444l1.506-5.475,5.49-19.725.107.192-40.227-11.329c-.055.027.45-.254.235-.131l0,.007,0,.014-.008.028-.016.057-.032.113-.064.226-.127.452-.255.9-.508,1.795-1,3.551q-1,3.523-1.962,6.93l-3.695,13.026-.123-.219,28.921,8.265,8.275,2.389,2.206.645.571.172a1.746,1.746,0,0,1,.2.067,1.176,1.176,0,0,1-.184-.041l-.558-.147-2.183-.595-8.262-2.286-29.081-8.128-.171-.048.048-.172c1.164-4.131,2.393-8.495,3.671-13.033q.96-3.4,1.956-6.933l1-3.551q.252-.894.507-1.795l.255-.9.128-.452.064-.226.032-.113.016-.057.008-.028,0-.014,0-.007c-.213.117.293-.168.244-.137l40.206,11.4.15.042-.043.15-5.674,19.774-1.573,5.419-.416,1.407c-.1.315-.15.467-.15.467" transform="translate(-148.682 -69.824)" fill="#455a64"/>
        <path id="Trazado_224719" data-name="Trazado 224719" d="M415.747,181.762a2.7,2.7,0,0,1-.45.27l-1.327.71-4.927,2.558-16.455,8.382-.147.075-.1-.133-.777-1.059-11.407-15.631-3.421-4.763-.914-1.307a3.032,3.032,0,0,1-.3-.471,2.909,2.909,0,0,1,.361.425l.973,1.263,3.52,4.69,11.5,15.563.777,1.059-.243-.058,16.508-8.275,4.983-2.45,1.359-.647a2.718,2.718,0,0,1,.484-.2" transform="translate(-154.171 -69.955)" fill="#455a64"/>
      </g>
    </g>
    <g id="Grupo_177293" data-name="Grupo 177293">
      <g id="Grupo_177292" data-name="Grupo 177292" clip-path="url(#clip-path)">
        <path id="Trazado_224724" data-name="Trazado 224724" d="M116.894,222.25a1.625,1.625,0,0,0-.392.017l-1.06.1c-.9.087-2.132.2-3.5.282s-2.611.114-3.51.131l-1.066.021a1.61,1.61,0,0,0-.391.029,1.68,1.68,0,0,0,.39.041c.252.015.617.029,1.067.036.9.016,2.147,0,3.521-.078s2.612-.216,3.505-.335c.446-.062.807-.116,1.055-.162a1.637,1.637,0,0,0,.383-.086" transform="translate(-43.917 -91.241)" fill="#263238"/>
        <path id="Trazado_224725" data-name="Trazado 224725" d="M127.439,207.912a1.4,1.4,0,0,0-.181.315c-.105.207-.253.51-.433.885-.358.75-.842,1.793-1.365,2.949s-.989,2.207-1.317,2.971c-.164.383-.294.693-.381.91a1.374,1.374,0,0,0-.117.343,1.435,1.435,0,0,0,.181-.314c.106-.207.253-.51.433-.885.358-.751.841-1.794,1.365-2.95s.989-2.207,1.317-2.971c.164-.382.294-.693.38-.909a1.429,1.429,0,0,0,.117-.344" transform="translate(-50.762 -85.357)" fill="#263238"/>
        <path id="Trazado_224726" data-name="Trazado 224726" d="M140.587,223.309a2.3,2.3,0,0,0-.227.4l-.558,1.133c-.464.96-1.094,2.291-1.78,3.766s-1.3,2.815-1.731,3.789l-.506,1.157a2.323,2.323,0,0,0-.163.434,2.3,2.3,0,0,0,.227-.4l.558-1.133c.465-.96,1.094-2.291,1.78-3.767s1.3-2.815,1.731-3.788l.506-1.157a2.27,2.27,0,0,0,.163-.434" transform="translate(-55.679 -91.679)" fill="#263238"/>
        <path id="Trazado_224727" data-name="Trazado 224727" d="M126.922,240.939a2.643,2.643,0,0,0-.5.009l-1.349.084c-1.139.07-2.713.162-4.453.216s-3.317.066-4.458.066l-1.351,0a2.639,2.639,0,0,0-.5.021,2.611,2.611,0,0,0,.5.049c.319.019.78.04,1.352.055,1.142.032,2.722.042,4.466-.014s3.319-.166,4.457-.269c.569-.053,1.029-.1,1.346-.141a2.619,2.619,0,0,0,.491-.08" transform="translate(-46.932 -98.914)" fill="#263238"/>
      </g>
    </g>
    <rect id="Rectángulo_57037" data-name="Rectángulo 57037" width="148.976" height="163.353" transform="translate(80.261 42.616)" fill="#fafafa"/>
    <g id="Grupo_177298" data-name="Grupo 177298">
      <g id="Grupo_177297" data-name="Grupo 177297" clip-path="url(#clip-path)">
        <path id="Trazado_224734" data-name="Trazado 224734" d="M285.03,235.543c0-1.162-.054-65.733-.135-163.353l.135.134-148.961.019h-.015l.153-.153c-.008,60.108-.016,116.245-.022,163.353l-.131-.131,148.976.131-148.976.131h-.131v-.131c-.006-47.108-.014-103.245-.022-163.353v-.154h.169l148.961.019h.135v.135c-.08,97.619-.133,162.192-.134,163.353" transform="translate(-55.794 -29.574)" fill="#263238"/>
        <path id="Trazado_224735" data-name="Trazado 224735" d="M274.946,310.944H218.009a8.55,8.55,0,0,1-8.55-8.55v-1.739a8.55,8.55,0,0,1,8.55-8.55h56.937a8.55,8.55,0,0,1,8.55,8.55v1.739a8.55,8.55,0,0,1-8.55,8.55" transform="translate(-85.993 -119.922)" fill="#359185"/>
        <path id="Trazado_224737" data-name="Trazado 224737" d="M264.4,310.944H207.462a8.55,8.55,0,0,1-8.55-8.55v-1.739a8.55,8.55,0,0,1,8.55-8.55H264.4a8.55,8.55,0,0,1,8.55,8.55v1.739a8.55,8.55,0,0,1-8.55,8.55" transform="translate(-81.663 -119.922)" fill="url(#linear-gradient-3)"/>
        <path id="Trazado_224738" data-name="Trazado 224738" d="M233.571,307.684l.251-.563a2.161,2.161,0,0,0,1.288.429c.608,0,.865-.218.865-.508,0-.842-2.32-.29-2.32-1.739,0-.63.5-1.166,1.573-1.166a2.469,2.469,0,0,1,1.3.345l-.229.564a2.168,2.168,0,0,0-1.076-.306c-.6,0-.848.234-.848.529,0,.831,2.315.291,2.315,1.724,0,.625-.508,1.16-1.579,1.16a2.512,2.512,0,0,1-1.539-.469" transform="translate(-95.892 -124.862)" fill="#fafafa"/>
        <path id="Trazado_224739" data-name="Trazado 224739" d="M240.026,306.434v-2.2h.725v2.174c0,.8.363,1.148.993,1.148s.987-.345.987-1.148v-2.174h.714v2.2a1.71,1.71,0,1,1-3.418,0" transform="translate(-98.542 -124.901)" fill="#fafafa"/>
        <path id="Trazado_224740" data-name="Trazado 224740" d="M251.021,307.076c0,.67-.525,1.06-1.528,1.06h-1.94v-3.9h1.829c.937,0,1.439.4,1.439,1.015a.937.937,0,0,1-.5.859.961.961,0,0,1,.7.97m-2.744-2.275v1.076H249.3c.5,0,.786-.179.786-.535s-.285-.541-.786-.541Zm2.013,2.2c0-.39-.3-.563-.842-.563h-1.171v1.126h1.171c.546,0,.842-.173.842-.564" transform="translate(-101.632 -124.901)" fill="#fafafa"/>
        <path id="Trazado_224741" data-name="Trazado 224741" d="M254.2,307.684l.251-.563a2.161,2.161,0,0,0,1.288.429c.608,0,.865-.218.865-.508,0-.842-2.32-.29-2.32-1.739,0-.63.5-1.166,1.573-1.166a2.469,2.469,0,0,1,1.3.345l-.229.564a2.17,2.17,0,0,0-1.076-.306c-.6,0-.848.234-.848.529,0,.831,2.315.291,2.315,1.724,0,.625-.508,1.16-1.579,1.16a2.512,2.512,0,0,1-1.539-.469" transform="translate(-104.36 -124.862)" fill="#fafafa"/>
        <path id="Trazado_224742" data-name="Trazado 224742" d="M260.236,306.145a2.113,2.113,0,0,1,3.636-1.355l-.469.441a1.371,1.371,0,0,0-1.043-.457,1.372,1.372,0,1,0,0,2.743,1.356,1.356,0,0,0,1.043-.463l.469.446a2.112,2.112,0,0,1-3.636-1.355" transform="translate(-106.839 -124.863)" fill="#fafafa"/>
        <path id="Trazado_224743" data-name="Trazado 224743" d="M270.146,308.135l-.8-1.143a1.405,1.405,0,0,1-.15.005h-.881v1.138h-.725v-3.9H269.2c1.026,0,1.662.524,1.662,1.388a1.249,1.249,0,0,1-.831,1.233l.9,1.283Zm-.982-3.29h-.847V306.4h.847c.636,0,.965-.29.965-.781s-.329-.775-.965-.775" transform="translate(-109.859 -124.901)" fill="#fafafa"/>
        <rect id="Rectángulo_57039" data-name="Rectángulo 57039" width="0.724" height="3.903" transform="translate(161.812 179.331)" fill="#fafafa"/>
        <path id="Trazado_224744" data-name="Trazado 224744" d="M281,307.076c0,.67-.523,1.06-1.528,1.06h-1.94v-3.9h1.829c.937,0,1.439.4,1.439,1.015a.937.937,0,0,1-.5.859.96.96,0,0,1,.7.97m-2.743-2.275v1.076h1.026c.5,0,.786-.179.786-.535s-.284-.541-.786-.541Zm2.013,2.2c0-.39-.3-.563-.842-.563h-1.171v1.126h1.171c.547,0,.842-.173.842-.564" transform="translate(-113.939 -124.901)" fill="#fafafa"/>
        <path id="Trazado_224745" data-name="Trazado 224745" d="M287.663,307.527v.608h-2.928v-3.9h2.849v.608H285.46v1.015h1.884v.6H285.46v1.076Z" transform="translate(-116.897 -124.901)" fill="#fafafa"/>
        <path id="Trazado_224746" data-name="Trazado 224746" d="M277.135,270.681c0,.085-18.946.153-42.311.153s-42.315-.068-42.315-.153,18.941-.153,42.315-.153,42.311.068,42.311.153" transform="translate(-79.034 -111.064)" fill="#263238"/>
        <path id="Trazado_224747" data-name="Trazado 224747" d="M281.154,279.366c0,.085-24.874.153-55.549.153s-55.555-.068-55.555-.153,24.868-.153,55.555-.153,55.549.068,55.549.153" transform="translate(-69.813 -114.63)" fill="#263238"/>
        <path id="Trazado_224748" data-name="Trazado 224748" d="M146.286,82.2a1.261,1.261,0,1,1-1.261-1.261,1.261,1.261,0,0,1,1.261,1.261" transform="translate(-59.022 -33.228)" fill="#e0e0e0"/>
        <path id="Trazado_224749" data-name="Trazado 224749" d="M153.42,82.2a1.261,1.261,0,1,1-1.261-1.261A1.261,1.261,0,0,1,153.42,82.2" transform="translate(-61.951 -33.228)" fill="#e0e0e0"/>
        <path id="Trazado_224750" data-name="Trazado 224750" d="M160.554,82.2a1.261,1.261,0,1,1-1.261-1.261,1.261,1.261,0,0,1,1.261,1.261" transform="translate(-64.88 -33.228)" fill="#e0e0e0"/>
      </g>
    </g>
    <g id="Grupo_177306" data-name="Grupo 177306">
      <g id="Grupo_177305" data-name="Grupo 177305" clip-path="url(#clip-path)">
        <path id="Trazado_224751" data-name="Trazado 224751" d="M363.073,114.546l2.449-8.834s.884-3.589,1.094-4.428c.279-1.109-.5-1.458-.958-.7-.174.286-2.113,3.941-2.113,3.941s1.546-5.983,1.6-6.2c.5-1.953-.709-1.751-1.063-1.053-.366.722-2.554,6.61-2.554,6.61,2.054-7.694,1.412-8.372.834-8.493s-2.39,6.914-2.39,6.914a6.571,6.571,0,0,0-1.857-2.031c-1.859-1.278-4.955,0-5.1.873s.957,1.12.957,1.12a2.8,2.8,0,0,1,4.47,2.538,1.741,1.741,0,0,1-3.408.332c-.769-3.469-1.963-2.342-1.963-2.342l1.2,7.652L353,114.289" transform="translate(-144.922 -39.159)" fill="#ffbe9d"/>
        <path id="Trazado_224752" data-name="Trazado 224752" d="M220.1,188.737l52.962-.354,1.455,36.009-54.84-.541Z" transform="translate(-90.187 -77.34)" fill="#455a64"/>
        <path id="Trazado_224753" data-name="Trazado 224753" d="M220.392,173.841l26.9-21.741,26.061,21.387" transform="translate(-90.481 -62.444)" fill="#263238"/>
        <path id="Trazado_224754" data-name="Trazado 224754" d="M219.674,234.315c-.066-.062,4.177-4.689,9.475-10.333s9.649-10.172,9.715-10.11-4.176,4.688-9.476,10.334-9.648,10.17-9.714,10.109" transform="translate(-90.186 -87.804)" fill="#263238"/>
        <path id="Trazado_224755" data-name="Trazado 224755" d="M300.043,235.2c-.068.06-4.195-4.478-9.216-10.135s-9.039-10.294-8.971-10.354,4.193,4.478,9.217,10.137,9.038,10.292,8.97,10.353" transform="translate(-115.715 -88.148)" fill="#263238"/>
        <path id="Trazado_224756" data-name="Trazado 224756" d="M273.355,188.383l-26.607,21.23-26.355-20.876" transform="translate(-90.481 -77.34)" fill="#263238"/>
        <path id="Trazado_224757" data-name="Trazado 224757" d="M158.364,108.864l.176-.005-.71-2.369-2.269-9.055a1.663,1.663,0,0,1,1.066-1.973l1.633-.055,5.593-2.616a1.744,1.744,0,0,1,2.357,1.353c.2,1.665,1.336,6.136,2.541,4.569.028-.037.058-.067.087-.1,1.693-2.33,3.8-3.587,4.669-3.553a.974.974,0,0,1,.592,1.672,1.037,1.037,0,0,1-.319.276c-.057.03-.123.085-.183.124a14.455,14.455,0,0,0-2.012,2.209,7.641,7.641,0,0,0-1.233,2.357c-.3.94-.52,1.762-.688,2.46l.434,4.622" transform="translate(-63.843 -38.048)" fill="#ffbe9d"/>
        <path id="Trazado_224758" data-name="Trazado 224758" d="M149.905,29.8s-6.536-1.253-15.925-9.782S119.965-.062,118.848.027s-6.066-2.041-14.783,18.433-4.925,25.063-3.077,24.973,14.3-3.945,22.168-3.276,18.061,4.469,18.061,4.469Z" transform="translate(-40.463 0)" fill="#455a64"/>
        <path id="Trazado_224759" data-name="Trazado 224759" d="M192.756,58.574l-2.1,4.276-.939,1.915a5.5,5.5,0,0,1-7.1,2.638l-14.058-4.456,7.582-18.739,14.119,7.017a5.5,5.5,0,0,1,2.491,7.348" transform="translate(-69.203 -18.15)" fill="#263238"/>
        <path id="Trazado_224760" data-name="Trazado 224760" d="M179,78.453l-4.19,8.821-2.236-.554-14.153,12.2L154.15,91.1s8.457-3.931,9.954-7.029-.353-3.738-.353-3.738l3.9-4.693Z" transform="translate(-63.286 -31.055)" fill="#263238"/>
        <path id="Trazado_224761" data-name="Trazado 224761" d="M105.659,19.145c-4.634,11.088-6.416,20.9-3.979,21.921s8.168-7.145,12.8-18.234S120.9,1.93,118.46.912s-8.167,7.145-12.8,18.233" transform="translate(-41.296 -0.339)" fill="#263238"/>
        <path id="Trazado_224762" data-name="Trazado 224762" d="M209.274,74.96l-3.807-1.078,2.209-4.506,2.88,1.679Z" transform="translate(-84.354 -28.482)" fill="#455a64"/>
        <path id="Trazado_224763" data-name="Trazado 224763" d="M174.787,78.372l10.324,6.179,1.195-2.515Z" transform="translate(-71.758 -32.175)" fill="#455a64"/>
        <path id="Trazado_224764" data-name="Trazado 224764" d="M207.676,69.376l-2.209,4.506.782.222,1.772-4.526Z" transform="translate(-84.354 -28.482)" fill="#455a64"/>
        <path id="Trazado_224765" data-name="Trazado 224765" d="M199.06,68.805a21.14,21.14,0,0,1-4.253-1.515,21.174,21.174,0,0,1-4.065-1.963,21.139,21.139,0,0,1,4.252,1.515,21.235,21.235,0,0,1,4.066,1.963" transform="translate(-78.308 -26.814)" fill="#455a64"/>
        <path id="Trazado_224766" data-name="Trazado 224766" d="M201.469,64.3a17.7,17.7,0,0,1-3.851-1.5,17.722,17.722,0,0,1-3.65-1.938,17.786,17.786,0,0,1,3.852,1.5,17.817,17.817,0,0,1,3.65,1.937" transform="translate(-79.632 -24.981)" fill="#455a64"/>
        <path id="Trazado_224767" data-name="Trazado 224767" d="M197.223,73.833c-.018.065-.469-.026-1.191-.226-.36-.1-.788-.228-1.26-.377s-.96-.386-1.484-.606a16.014,16.014,0,0,1-3.646-1.906,19.457,19.457,0,0,1,3.836,1.46c.519.218,1,.46,1.457.635s.864.328,1.206.468c.683.281,1.1.487,1.083.552" transform="translate(-77.857 -29.027)" fill="#455a64"/>
        <path id="Trazado_224768" data-name="Trazado 224768" d="M119.63,26.788s-5.744-3.34-8.617,4.374,3.1,8.8,3.1,8.8a50.828,50.828,0,0,0,5.514-13.174" transform="translate(-45.256 -10.702)" fill="#455a64"/>
        <path id="Trazado_224769" data-name="Trazado 224769" d="M125.315,11.579a8.547,8.547,0,0,1-.18,1.464c-.152.937-.366,2.3-.681,3.968-.215.825-.451,1.725-.7,2.691l-.4,1.5-.208.784c-.077.263-.18.522-.271.788L121.694,26.1q-.154.432-.312.872c-.1.295-.249.574-.373.864q-.389.865-.79,1.754l-.792,1.754c-.136.285-.248.579-.4.851l-.449.812-1.712,3.089c-.14.244-.266.492-.412.724l-.45.676-.863,1.291L113.586,41.1c-1.042,1.339-1.918,2.4-2.52,3.13a8.637,8.637,0,0,1-.979,1.1,8.679,8.679,0,0,1,.831-1.22l2.4-3.224,1.493-2.326.835-1.293.437-.676c.142-.231.265-.48.4-.724l1.676-3.082.441-.808c.151-.27.261-.563.4-.847l.785-1.742.786-1.741c.124-.288.271-.564.373-.856l.314-.865,1.2-3.3c.093-.264.2-.519.278-.78l.217-.775q.215-.764.417-1.483c.271-.955.525-1.846.757-2.662.347-1.638.628-2.972.829-3.922a8.777,8.777,0,0,1,.366-1.432" transform="translate(-45.195 -4.754)" fill="#263238"/>
        <path id="Trazado_224770" data-name="Trazado 224770" d="M179.263,138.081l-5.844-22.206-14.605.387,4.543,30.988c.581,6.743,4.548,11.158,11.231,12.229,4.007.642,8.348-3.177,11.566-5.649,2.1-1.614,2.475-1.294,4.642-3.264l9.408-6.8.231,1.116-.06,0,1.6,18.935,19.486,15.3L244.7,160.494l-.531-8.055c.057-.006.114-.118-.008-.116l-.6-9.128,11.906,13.658a13.593,13.593,0,0,0,23.9-2.783l6.135-31.216-13.463-2.9-6.305,22.494-15.043-17.288c-8.674-11.3-18.8-10.347-18.8-10.347l-18.672-.331h-.042c-.554.03-10.989.345-18.061,7.9Z" transform="translate(-65.2 -47.001)" fill="#a493c0"/>
        <path id="Trazado_224771" data-name="Trazado 224771" d="M275.118,133.444c-.009.018-.2-.095-.6-.22a4.7,4.7,0,0,0-1.8-.186,8.332,8.332,0,0,0-2.762.792c-1.033.458-2.1,1.188-3.345,1.9a8.689,8.689,0,0,1-4.462,1.415,7.811,7.811,0,0,1-2.568-.6c-.841-.33-1.669-.739-2.541-1.083a10.071,10.071,0,0,0-5.739-.544,19.028,19.028,0,0,0-5.724,2.6,21.585,21.585,0,0,1-2.907,1.455,11.884,11.884,0,0,1-3.078.749,12.117,12.117,0,0,1-5.886-.817,22.432,22.432,0,0,1-4.628-2.756c-1.362-.986-2.615-1.925-3.846-2.637a13.845,13.845,0,0,0-3.53-1.455,8.8,8.8,0,0,0-2.865-.238,7.353,7.353,0,0,0-2.363.67.642.642,0,0,1,.139-.086c.1-.051.236-.13.427-.222a6.5,6.5,0,0,1,1.784-.482,8.74,8.74,0,0,1,2.917.19,13.782,13.782,0,0,1,3.6,1.433,46.558,46.558,0,0,1,3.886,2.618,22.438,22.438,0,0,0,4.586,2.7,11.87,11.87,0,0,0,5.747.78,11.6,11.6,0,0,0,3-.734,21.468,21.468,0,0,0,2.865-1.436,19.18,19.18,0,0,1,5.818-2.628,10.328,10.328,0,0,1,5.9.576c1.752.716,3.345,1.638,5.013,1.689a8.519,8.519,0,0,0,4.347-1.349c1.24-.7,2.326-1.42,3.381-1.871a8.276,8.276,0,0,1,2.824-.755,4.524,4.524,0,0,1,1.829.246,2.59,2.59,0,0,1,.581.278" transform="translate(-88.873 -54.05)" fill="#fafafa"/>
        <path id="Trazado_224772" data-name="Trazado 224772" d="M279.289,150.865a3.358,3.358,0,0,1-.319.822,5.286,5.286,0,0,1-1.691,1.866,7.787,7.787,0,0,1-3.754,1.329,24.511,24.511,0,0,1-5.288-.232,14.85,14.85,0,0,0-6.293.282,14.29,14.29,0,0,0-3.121,1.64,22.55,22.55,0,0,1-3.284,1.909,13.921,13.921,0,0,1-8.035.94,13.406,13.406,0,0,1-4.081-1.43c-1.294-.7-2.5-1.557-3.751-2.365a15.526,15.526,0,0,0-3.9-1.96,9.781,9.781,0,0,0-4.189-.261c-2.77.4-5.284,1.517-7.791,2.2a14.962,14.962,0,0,1-3.753.629,8.906,8.906,0,0,1-3.544-.6,17.543,17.543,0,0,1-5.2-3.748,24.977,24.977,0,0,0-4.057-3.34,8.419,8.419,0,0,0-3.709-1.265,5.91,5.91,0,0,0-2.465.3c-.538.2-.792.37-.8.352a3.7,3.7,0,0,1,.78-.41,5.773,5.773,0,0,1,2.495-.358,8.45,8.45,0,0,1,3.789,1.237,24.806,24.806,0,0,1,4.116,3.327,17.439,17.439,0,0,0,5.147,3.671,8.675,8.675,0,0,0,3.442.565,14.787,14.787,0,0,0,3.685-.632c1.24-.349,2.491-.787,3.783-1.2a23.814,23.814,0,0,1,4.042-1.016,10.063,10.063,0,0,1,4.319.266,15.77,15.77,0,0,1,3.981,1.995c1.257.813,2.458,1.671,3.729,2.354a13.091,13.091,0,0,0,3.989,1.4,13.668,13.668,0,0,0,7.867-.9c2.345-1.023,4.188-2.8,6.439-3.533a10.445,10.445,0,0,1,3.322-.477,27.025,27.025,0,0,1,3.077.22,24.71,24.71,0,0,0,5.246.278,7.735,7.735,0,0,0,3.7-1.257,5.374,5.374,0,0,0,1.7-1.8c.278-.5.354-.8.373-.792" transform="translate(-82.216 -60.41)" fill="#fafafa"/>
        <path id="Trazado_224773" data-name="Trazado 224773" d="M345.778,177.97a4.425,4.425,0,0,0-.816-.668,4.09,4.09,0,0,0-2.769-.413,8.966,8.966,0,0,0-3.729,1.992c-.641.5-1.307,1.043-2.06,1.533a6.463,6.463,0,0,1-5.342,1.026,20.311,20.311,0,0,1-2.471-.72c-.772-.264-1.5-.527-2.191-.709a10.781,10.781,0,0,0-1.962-.332,5.5,5.5,0,0,0-2.805.449,10.583,10.583,0,0,0-.9.554c-.008-.008.059-.077.193-.2a1.706,1.706,0,0,1,.264-.212,2.582,2.582,0,0,1,.393-.247,5.387,5.387,0,0,1,2.872-.559,10.6,10.6,0,0,1,2.012.3c.712.174,1.448.431,2.219.687a10.373,10.373,0,0,0,5.107.762,6.914,6.914,0,0,0,2.452-1.053c.737-.475,1.4-1.01,2.051-1.5a8.98,8.98,0,0,1,3.866-1.982,4.1,4.1,0,0,1,2.868.526,2.778,2.778,0,0,1,.6.535.955.955,0,0,1,.152.235" transform="translate(-131.674 -72.509)" fill="#fafafa"/>
        <path id="Trazado_224774" data-name="Trazado 224774" d="M358.231,149.044a1.565,1.565,0,0,1-.507.318,4.662,4.662,0,0,1-1.583.4,7.766,7.766,0,0,1-2.411-.217,23.98,23.98,0,0,1-2.793-.93,15.633,15.633,0,0,0-2.775-.828,6.677,6.677,0,0,0-2.334-.009,5.33,5.33,0,0,0-1.978.853,1.5,1.5,0,0,1,.435-.411,4.156,4.156,0,0,1,1.5-.655,6.54,6.54,0,0,1,2.423-.058,14.585,14.585,0,0,1,2.838.82,27.566,27.566,0,0,0,2.753.943,8.105,8.105,0,0,0,2.33.275,6.346,6.346,0,0,0,2.1-.5" transform="translate(-141.167 -60.524)" fill="#fafafa"/>
        <path id="Trazado_224775" data-name="Trazado 224775" d="M273.24,186.966a15.165,15.165,0,0,0-1.543-.707,10.424,10.424,0,0,0-4.551-.47,19.5,19.5,0,0,0-6.5,2.063,63.011,63.011,0,0,1-7.7,3.509,14.3,14.3,0,0,1-4.339.749,13.273,13.273,0,0,1-4.042-.7,34.059,34.059,0,0,1-3.437-1.367c-1.057-.466-2.033-.915-2.944-1.273a15.3,15.3,0,0,0-4.457-1.164c-.272-.015-.515-.039-.724-.044l-.532.017a2.4,2.4,0,0,1-.442,0,2.336,2.336,0,0,1,.438-.057l.535-.047c.212,0,.457.009.733.016a14.6,14.6,0,0,1,4.528,1.08c.923.347,1.907.787,2.967,1.243a35,35,0,0,0,3.421,1.33,13.1,13.1,0,0,0,3.955.665,14.142,14.142,0,0,0,4.246-.741,65.877,65.877,0,0,0,7.669-3.472,19.3,19.3,0,0,1,6.6-2.024,10.187,10.187,0,0,1,4.612.574,5.938,5.938,0,0,1,1.5.819" transform="translate(-95.26 -76.166)" fill="#fafafa"/>
        <path id="Trazado_224776" data-name="Trazado 224776" d="M165.367,162.287a.783.783,0,0,1,.281-.134,1.539,1.539,0,0,1,.891.036,2.55,2.55,0,0,1,1.162.8,8.461,8.461,0,0,1,.934,1.606,5.491,5.491,0,0,0,1.3,1.735,6.369,6.369,0,0,0,2.181,1.205,12.3,12.3,0,0,0,5.74.275,40.571,40.571,0,0,1,5.843-.7,8.285,8.285,0,0,1,4.622,1.282,5.22,5.22,0,0,1,2.107,2.448,3.159,3.159,0,0,1,.246,1.165,10.2,10.2,0,0,0-.357-1.119,5.265,5.265,0,0,0-2.113-2.311,8.191,8.191,0,0,0-4.5-1.182,42.914,42.914,0,0,0-5.8.724,12.374,12.374,0,0,1-5.874-.311,6.56,6.56,0,0,1-2.259-1.283,5.64,5.64,0,0,1-1.33-1.83,8.732,8.732,0,0,0-.874-1.6,2.489,2.489,0,0,0-1.066-.8,1.653,1.653,0,0,0-1.134-.015" transform="translate(-67.891 -66.551)" fill="#fafafa"/>
        <path id="Trazado_224777" data-name="Trazado 224777" d="M176.588,130.786a6,6,0,0,0-2.055-1.068,6.71,6.71,0,0,0-2.5-.164,10.91,10.91,0,0,0-2.967.855c-1.016.436-1.953.934-2.822,1.362a21.2,21.2,0,0,1-2.366,1.027,9.424,9.424,0,0,1-1.688.432,2.052,2.052,0,0,1-.638.039,20.644,20.644,0,0,0,2.251-.676,25.23,25.23,0,0,0,2.314-1.076c.858-.439,1.795-.947,2.829-1.391a10.614,10.614,0,0,1,3.057-.854,6.578,6.578,0,0,1,2.588.237,4.629,4.629,0,0,1,1.551.812,1.732,1.732,0,0,1,.443.463" transform="translate(-66.326 -53.058)" fill="#fafafa"/>
        <g id="Grupo_177301" data-name="Grupo 177301" transform="translate(152.944 96.194)" opacity="0.3">
          <g id="Grupo_177300" data-name="Grupo 177300">
            <g id="Grupo_177299" data-name="Grupo 177299" clip-path="url(#clip-path-11)">
              <path id="Trazado_224778" data-name="Trazado 224778" d="M259.467,196.51c7.566-4.387,16.326-9.533,20.693-17.11a40.647,40.647,0,0,0,4.723-16.209l1.14,17.3-23.243,18.623Z" transform="translate(-259.467 -163.192)"/>
            </g>
          </g>
        </g>
        <g id="Grupo_177304" data-name="Grupo 177304" transform="translate(113.95 72.282)" opacity="0.2">
          <g id="Grupo_177303" data-name="Grupo 177303">
            <g id="Grupo_177302" data-name="Grupo 177302" clip-path="url(#clip-path-12)">
              <path id="Trazado_224779" data-name="Trazado 224779" d="M212.7,122.626A33.386,33.386,0,0,1,202.3,139.494a12.938,12.938,0,0,1-4.18,2.642,5.784,5.784,0,0,1-4.809-.317l.113-.4,11.78-11.664Z" transform="translate(-193.314 -122.626)"/>
            </g>
          </g>
        </g>
        <path id="Trazado_224780" data-name="Trazado 224780" d="M194.986,163.819c-.05-.019.142-.536.3-1.4a9.937,9.937,0,0,0-1.091-6.613c-.427-.766-.776-1.194-.734-1.228a4.031,4.031,0,0,1,.921,1.117,8.907,8.907,0,0,1,1.118,6.769,4.039,4.039,0,0,1-.513,1.354" transform="translate(-79.423 -63.462)" fill="#263238"/>
        <path id="Trazado_224781" data-name="Trazado 224781" d="M190.321,161.037a8.417,8.417,0,0,0,1.66-6,2.144,2.144,0,0,1,.235.93A6.276,6.276,0,0,1,191,160.36c-.363.472-.654.7-.68.677" transform="translate(-78.134 -63.651)" fill="#263238"/>
        <path id="Trazado_224782" data-name="Trazado 224782" d="M227.516,144.539c.084-.008.568,4.691,1.08,10.494s.859,10.515.775,10.522-.568-4.691-1.081-10.5-.859-10.513-.775-10.521" transform="translate(-93.401 -59.34)" fill="#263238"/>
        <path id="Trazado_224783" data-name="Trazado 224783" d="M268.766,113.9a1.427,1.427,0,0,1,.127.318,6.558,6.558,0,0,1,.256.947,8.984,8.984,0,0,1-.056,3.6,9.318,9.318,0,0,1-2.571,4.66,9.165,9.165,0,0,1-12.119.265,9.319,9.319,0,0,1-2.772-4.544,8.993,8.993,0,0,1-.213-3.594,6.564,6.564,0,0,1,.215-.957,1.374,1.374,0,0,1,.113-.322c.037.009-.115.457-.209,1.3a9.347,9.347,0,0,0,.3,3.521,9.221,9.221,0,0,0,2.749,4.388,8.955,8.955,0,0,0,11.737-.256,9.223,9.223,0,0,0,2.555-4.5,9.357,9.357,0,0,0,.15-3.531c-.131-.833-.3-1.274-.266-1.285" transform="translate(-103.181 -46.762)" fill="#263238"/>
        <path id="Trazado_224784" data-name="Trazado 224784" d="M338.907,169.017a22.3,22.3,0,0,1,.419-7.364c.088.013-.1,1.653-.209,3.682s-.121,3.679-.209,3.682" transform="translate(-139.078 -66.366)" fill="#263238"/>
        <path id="Trazado_224785" data-name="Trazado 224785" d="M341.755,169.936a4.823,4.823,0,0,1-.5-1.2,26.143,26.143,0,0,1-1.271-6.147,4.806,4.806,0,0,1-.015-1.3c.091-.007.267,1.968.766,4.354s1.11,4.271,1.023,4.3" transform="translate(-139.559 -66.213)" fill="#263238"/>
        <path id="Trazado_224786" data-name="Trazado 224786" d="M302.169,166.2c-.085,0-.278-3.318-.432-7.417s-.21-7.426-.125-7.429.278,3.317.432,7.418.21,7.425.125,7.428" transform="translate(-123.809 -62.137)" fill="#263238"/>
        <path id="Trazado_224787" data-name="Trazado 224787" d="M255.745,100.448h0a8.358,8.358,0,0,1-8.193-8.008c-.136-3.23-.246-6.2-.246-6.2s-6.761-.718-7.169-7.423.008-22.168.008-22.168a23.345,23.345,0,0,1,23.573,1.81l1.031.717-.49,33.037a8.358,8.358,0,0,1-8.513,8.232" transform="translate(-98.513 -22.287)" fill="#ffbe9d"/>
        <path id="Trazado_224788" data-name="Trazado 224788" d="M252.4,106.314a15.622,15.622,0,0,0,8.626-2.91s-1.833,4.928-8.557,4.648Z" transform="translate(-103.62 -42.452)" fill="#eb996e"/>
        <path id="Trazado_224789" data-name="Trazado 224789" d="M281.184,74.246c.112-.055,4.544-1.587,4.62,3.007s-4.552,3.723-4.562,3.591-.058-6.6-.058-6.6" transform="translate(-115.439 -30.363)" fill="#ffbe9d"/>
        <path id="Trazado_224790" data-name="Trazado 224790" d="M283.61,80.107c.02-.015.081.055.217.114a.8.8,0,0,0,.6,0,1.979,1.979,0,0,0,.887-1.791,2.632,2.632,0,0,0-.243-1.142.924.924,0,0,0-.612-.6.407.407,0,0,0-.469.227c-.06.13-.029.221-.053.229s-.1-.075-.066-.265a.512.512,0,0,1,.176-.291.6.6,0,0,1,.441-.124,1.122,1.122,0,0,1,.848.7,2.713,2.713,0,0,1,.3,1.276,2.078,2.078,0,0,1-1.135,2,.855.855,0,0,1-.734-.11c-.144-.111-.17-.213-.154-.222" transform="translate(-116.433 -31.39)" fill="#eb996e"/>
        <path id="Trazado_224791" data-name="Trazado 224791" d="M245.717,74.911a.959.959,0,0,0,.925.968.918.918,0,0,0,.989-.865.961.961,0,0,0-.924-.968.919.919,0,0,0-.99.866" transform="translate(-100.878 -30.398)" fill="#263238"/>
        <path id="Trazado_224792" data-name="Trazado 224792" d="M243.726,73.183c.119.125.846-.413,1.878-.41s1.788.519,1.9.393c.055-.056-.066-.282-.4-.522a2.635,2.635,0,0,0-1.522-.469,2.525,2.525,0,0,0-1.494.483c-.318.243-.425.47-.367.526" transform="translate(-100.055 -29.631)" fill="#263238"/>
        <path id="Trazado_224793" data-name="Trazado 224793" d="M262.53,75.111a.959.959,0,0,0,.925.968.918.918,0,0,0,.989-.865.96.96,0,0,0-.924-.968.918.918,0,0,0-.99.865" transform="translate(-107.78 -30.481)" fill="#263238"/>
        <path id="Trazado_224794" data-name="Trazado 224794" d="M260.94,73.51c.119.125.847-.413,1.878-.41,1.032-.012,1.789.519,1.9.392.055-.055-.065-.281-.4-.522A2.633,2.633,0,0,0,262.8,72.5a2.533,2.533,0,0,0-1.495.483c-.317.243-.425.47-.367.526" transform="translate(-107.122 -29.765)" fill="#263238"/>
        <path id="Trazado_224795" data-name="Trazado 224795" d="M252.763,81.209a6.835,6.835,0,0,0-1.676-.3c-.263-.027-.513-.08-.558-.259a1.344,1.344,0,0,1,.176-.782l.779-2.007a34.523,34.523,0,0,0,1.751-5.25,34.593,34.593,0,0,0-2.169,5.1c-.261.7-.51,1.376-.747,2.019a1.527,1.527,0,0,0-.137,1.034.663.663,0,0,0,.434.386,1.789,1.789,0,0,0,.447.062,6.685,6.685,0,0,0,1.7,0" transform="translate(-102.691 -29.809)" fill="#263238"/>
        <path id="Trazado_224796" data-name="Trazado 224796" d="M257.457,88.41c-.168-.01-.17,1.111-1.129,1.906s-2.152.672-2.161.829c-.015.07.266.217.77.232a2.792,2.792,0,0,0,1.8-.628,2.432,2.432,0,0,0,.875-1.6c.042-.468-.083-.746-.159-.739" transform="translate(-104.347 -36.296)" fill="#263238"/>
        <path id="Trazado_224797" data-name="Trazado 224797" d="M260.494,66.81c.1.281,1.132.147,2.344.294,1.214.121,2.19.476,2.351.225.071-.12-.1-.384-.494-.656a4.105,4.105,0,0,0-3.576-.395c-.444.179-.668.4-.625.533" transform="translate(-106.943 -27.111)" fill="#263238"/>
        <path id="Trazado_224798" data-name="Trazado 224798" d="M244.362,68.072c.182.235.892-.009,1.748-.02.855-.042,1.579.157,1.746-.088.073-.119-.041-.354-.358-.576a2.529,2.529,0,0,0-2.815.087c-.3.24-.4.482-.321.6" transform="translate(-100.311 -27.508)" fill="#263238"/>
        <path id="Trazado_224799" data-name="Trazado 224799" d="M234.454,46.828a2.482,2.482,0,0,1,.915-2.216,1.759,1.759,0,0,1,2.279.171,2.052,2.052,0,0,1,1.764-2.489c1.1-.07,2.03.758,3.089,1.048a4.985,4.985,0,0,0,3.136-.362c.994-.4,1.923-.953,2.93-1.32A8.59,8.59,0,0,1,259.553,46.7a3.813,3.813,0,0,1,4.044,1.531,6.257,6.257,0,0,1,.958,4.407,14.037,14.037,0,0,1-.768,3.014c0,.086.008.171.007.258-.07,3.694-.487,8.031-2.063,8.055-2.746.042-2.092-5.132-2.092-5.132-3.371-1.3-2.115-6.353-2.958-7.119s-2.606-2.546-9.663,1.06a13.672,13.672,0,0,1-8.373.906c-.058-.013-.117-.022-.176-.036l-.041-.008c-.022-.005-.037-.018-.058-.024a6.344,6.344,0,0,1-1.81-.768,3.572,3.572,0,0,1-1.492-1.658,1.959,1.959,0,0,1,.385-2.1,4.306,4.306,0,0,1-1-2.259" transform="translate(-96.25 -16.893)" fill="#263238"/>
      </g>
    </g>
  </g>
</svg>
