<svg xmlns="http://www.w3.org/2000/svg" xmlns:xlink="http://www.w3.org/1999/xlink" width="108.419" height="108.419" viewBox="0 0 108.419 108.419">
  <defs>
    <linearGradient id="linear-gradient" x1="0.5" x2="0.5" y2="1" gradientUnits="objectBoundingBox">
      <stop offset="0" stop-color="#fdbe41"/>
      <stop offset="1" stop-color="#d09f40"/>
    </linearGradient>
    <clipPath id="clip-path">
      <rect id="Rectángulo_57450" data-name="Rectángulo 57450" width="66.47" height="66.521" fill="none"/>
    </clipPath>
  </defs>
  <g id="Grupo_179505" data-name="Grupo 179505" transform="translate(9044.988 5026.465)">
    <circle id="Elipse_6215" data-name="Elipse 6215" cx="54.209" cy="54.209" r="54.209" transform="translate(-9044.988 -5026.465)" fill="url(#linear-gradient)"/>
    <g id="Grupo_179227" data-name="Grupo 179227" transform="translate(-9024.014 -5005.743)">
      <g id="Grupo_179226" data-name="Grupo 179226" clip-path="url(#clip-path)">
        <path id="Trazado_227344" data-name="Trazado 227344" d="M259.034,23.645c-.629.9-1.051.99-2,.422-1.393-.832-2.8-1.649-4.169-2.511a2.758,2.758,0,0,0-1.7-.475c-.685.042-1.375.01-2.09.01a5.8,5.8,0,0,1-1.219,3.428,5.411,5.411,0,0,1-4.341,2.108c-3.681.028-7.362.017-11.043.006A5.6,5.6,0,0,1,227,22.212c-1.04,0-2.1.043-3.154-.022a1.722,1.722,0,0,1-1.112-.49,1.146,1.146,0,0,1-.087-1.058,1.415,1.415,0,0,1,.961-.611,24.5,24.5,0,0,1,2.53-.033h.739V13.413h-3.125c.092.761.183,1.506.27,2.251a8.522,8.522,0,0,1,.083.9,1.081,1.081,0,0,1-2.145.256c-.146-.741-.216-1.5-.314-2.248q-.13-1-.249-2a1.143,1.143,0,0,1,1.237-1.431c1.3-.019,2.6.008,3.9-.021a.724.724,0,0,0,.564-.332,6.067,6.067,0,0,1,1.864-2.824,3.3,3.3,0,0,1-.835-3.056,4.553,4.553,0,0,1,.961-1.718,3.2,3.2,0,0,1,3.72-.581c1.434.707,1.993,2,1.729,4.048h2.773a13.64,13.64,0,0,1-.393-2.315A4.343,4.343,0,0,1,240.239.141,2.946,2.946,0,0,0,240.586,0h1.429c.18.064.357.136.539.191a4.284,4.284,0,0,1,3.163,3.985,15.168,15.168,0,0,1-.487,2.8,5.589,5.589,0,0,1,3.857,5.249c.786,0,1.541.043,2.289-.016a3.282,3.282,0,0,0,1.324-.367c1.429-.806,2.823-1.673,4.231-2.516,1.017-.608,1.361-.561,2.1.283Zm-21.1.779c1.775,0,3.55.006,5.324,0a3.325,3.325,0,0,0,3.581-3.557q.017-4.188,0-8.376A3.3,3.3,0,0,0,243.27,8.93q-5.292-.022-10.584,0a3.3,3.3,0,0,0-3.549,3.577q-.014,4.156,0,8.311a3.332,3.332,0,0,0,3.6,3.6c1.732.007,3.463,0,5.195,0m18.852-3.088V12.005c-1.087.654-2.1,1.254-3.1,1.88a.593.593,0,0,0-.185.44c-.013,1.558-.017,3.116,0,4.674a.714.714,0,0,0,.274.515c.965.61,1.951,1.187,3.009,1.821M239.113,4.462a2.191,2.191,0,0,0,2.144,2.225A2.2,2.2,0,1,0,241.3,2.28a2.192,2.192,0,0,0-2.188,2.182m12.123,10.027h-2.149v4.341h2.149Zm-18.815-8.9a1.052,1.052,0,0,0-1.051-1.075,1.081,1.081,0,0,0-1.124,1.078,1.1,1.1,0,0,0,1.063,1.082,1.071,1.071,0,0,0,1.112-1.086" transform="translate(-192.564)"/>
        <path id="Trazado_227345" data-name="Trazado 227345" d="M466.344,291.028a1.389,1.389,0,0,1-1.464.825c-1.272-.024-2.544,0-3.817-.01-.853-.007-1.329-.4-1.346-1.066-.018-.685.49-1.134,1.35-1.144,1.294-.015,2.588.007,3.881-.009a1.54,1.54,0,0,1,1.4.755Z" transform="translate(-399.874 -251.923)"/>
        <path id="Trazado_227346" data-name="Trazado 227346" d="M16.556,124.34c.34-3.1,1.239-4.377,3.19-4.383a3.7,3.7,0,0,1,2,.551,3.937,3.937,0,0,1,1.3,1.7,8.49,8.49,0,0,1,.3,2.126,5.746,5.746,0,0,1,3.287,1.175,5.356,5.356,0,0,1,2.149,4.317c.036,2.986.054,5.974,0,8.96a5.393,5.393,0,0,1-5.324,5.444c-2.334.1-4.674.034-7.011.037-3.485,0-6.971-.058-10.454.018a5.593,5.593,0,0,1-5.963-5.441c-.048-3.114-.043-6.232.038-9.345a5.464,5.464,0,0,1,5.613-5.158c2.381.012,4.762,0,7.143,0h3.731m-2.117,17.707q4.22,0,8.439,0a3.349,3.349,0,0,0,3.708-3.685q0-4.057,0-8.115a3.359,3.359,0,0,0-3.708-3.692q-8.472,0-16.943,0a3.367,3.367,0,0,0-3.714,3.692q-.017,4.057,0,8.115a3.354,3.354,0,0,0,3.714,3.684q4.252.008,8.5,0m6.59-17.74c-.043-.718.276-1.516-.5-1.954a1.383,1.383,0,0,0-1.183.005c-.734.447-.5,1.231-.5,1.949Z" transform="translate(0 -104.342)"/>
        <path id="Trazado_227347" data-name="Trazado 227347" d="M266.08,243.658h6.606v-6.609h-6.019a5.007,5.007,0,0,1-.584-.013,1.137,1.137,0,0,1-1.1-1.144,1.1,1.1,0,0,1,1.177-1.049c2.23-.016,4.46.008,6.69-.022a4.176,4.176,0,0,0,1.441-.275c3.279-1.287,6.545-2.607,9.816-3.914,1.27-.507,1.9-.079,1.9,1.295q0,8.443,0,16.887c0,1.382-.613,1.792-1.9,1.278-3.332-1.329-6.662-2.665-10-3.984a2.843,2.843,0,0,0-1-.2c-2.251-.017-4.5,0-6.755-.01a2.227,2.227,0,0,1-2.475-2.435c-.007-.649-.016-1.3.009-1.948a1.091,1.091,0,1,1,2.18-.074c.05.71.011,1.426.011,2.215m17.672,3.9v-14.4c-2.867,1.146-5.674,2.262-8.473,3.4a.623.623,0,0,0-.318.46c-.02,2.335-.014,4.67-.014,7.02l8.805,3.52" transform="translate(-229.524 -200.43)"/>
        <path id="Trazado_227348" data-name="Trazado 227348" d="M136.932,348.351c-3.961,0-7.922.007-11.884,0a5.512,5.512,0,0,1-5.6-4.136,6.1,6.1,0,0,1-.191-1.6q-.02-8.6-.008-17.209a3.43,3.43,0,0,1,.014-.389,1.053,1.053,0,0,1,1.009-1,1.017,1.017,0,0,1,1.128.854,3.5,3.5,0,0,1,.061.772q0,8.377,0,16.754c0,2.415,1.321,3.746,3.72,3.746q11.786,0,23.572,0a3.375,3.375,0,0,0,3.715-3.7c.011-3.03,0-6.061,0-9.091,0-1.068.364-1.6,1.092-1.6s1.126.541,1.127,1.583c0,3.03.01,6.061,0,9.091a5.519,5.519,0,0,1-4.151,5.716,6.874,6.874,0,0,1-1.795.209c-3.94.018-7.879.009-11.819.009" transform="translate(-103.728 -281.833)"/>
        <path id="Trazado_227349" data-name="Trazado 227349" d="M213.829,374.875q3.86,0,7.72,0a5.2,5.2,0,0,1,.711.032,1.071,1.071,0,0,1,.064,2.126,4.036,4.036,0,0,1-.772.058q-7.72,0-15.439,0a4.184,4.184,0,0,1-.835-.071.988.988,0,0,1-.84-1.073,1,1,0,0,1,.9-1.029,4.908,4.908,0,0,1,.775-.043q3.86,0,7.72,0" transform="translate(-177.824 -326.077)"/>
        <path id="Trazado_227350" data-name="Trazado 227350" d="M246.224,223.83q-3.116,0-6.232,0a3.179,3.179,0,0,1-.646-.034,1.03,1.03,0,0,1-.876-.993.99.99,0,0,1,.74-1.087,2.946,2.946,0,0,1,.831-.094q6.168-.008,12.335,0a3.488,3.488,0,0,1,.582.025,1.076,1.076,0,0,1,.965,1.176,1.047,1.047,0,0,1-1.077,1c-.865.029-1.731.012-2.6.012h-4.025" transform="translate(-207.425 -192.768)"/>
        <path id="Trazado_227351" data-name="Trazado 227351" d="M167.37,334.518c-1.383,0-2.767.006-4.15,0-.842,0-1.333-.407-1.35-1.078-.018-.7.488-1.129,1.359-1.13q4.15-.008,8.3,0c.875,0,1.4.425,1.392,1.108s-.524,1.1-1.4,1.1c-1.383.006-2.767,0-4.15,0" transform="translate(-140.799 -289.047)"/>
        <path id="Trazado_227352" data-name="Trazado 227352" d="M167.417,419.509c-1.4,0-2.81.007-4.214,0-.839-.005-1.324-.417-1.324-1.091s.494-1.111,1.318-1.114q4.214-.017,8.429,0c.815,0,1.316.475,1.3,1.139-.019.645-.5,1.058-1.291,1.064-1.4.011-2.809,0-4.214,0" transform="translate(-140.806 -362.973)"/>
        <path id="Trazado_227353" data-name="Trazado 227353" d="M277.375,419.508c-1.21,0-2.42.007-3.63,0-.824-.006-1.332-.436-1.33-1.1s.511-1.106,1.332-1.11q3.629-.017,7.259,0c.856,0,1.383.468,1.36,1.146-.023.663-.515,1.055-1.362,1.06-1.21.008-2.42,0-3.63,0" transform="translate(-236.954 -362.973)"/>
        <path id="Trazado_227354" data-name="Trazado 227354" d="M166.245,453.528c-1.015,0-2.029.01-3.044,0-.837-.011-1.318-.426-1.315-1.1s.493-1.1,1.322-1.109q3.108-.022,6.217,0a1.112,1.112,0,0,1,1.247.892.986.986,0,0,1-.567,1.179,2.025,2.025,0,0,1-.816.134c-1.014.015-2.029.006-3.044.006" transform="translate(-140.813 -392.558)"/>
        <path id="Trazado_227355" data-name="Trazado 227355" d="M259.782,453.519c-1.015,0-2.029.01-3.044,0-.834-.01-1.328-.431-1.328-1.1s.5-1.107,1.326-1.114q3.109-.023,6.217,0c.831.008,1.3.456,1.279,1.142-.016.663-.464,1.053-1.276,1.064-1.058.015-2.116,0-3.173,0" transform="translate(-222.163 -392.549)"/>
        <path id="Trazado_227356" data-name="Trazado 227356" d="M456.616,231.7a2.334,2.334,0,0,1-.513.71c-1.072.766-2.174,1.493-3.286,2.2a1.094,1.094,0,1,1-1.194-1.833c1.064-.742,2.137-1.473,3.236-2.159a1.132,1.132,0,0,1,1.756,1.081" transform="translate(-392.372 -200.427)"/>
        <path id="Trazado_227357" data-name="Trazado 227357" d="M452.425,340.979a3.71,3.71,0,0,1,.636.285q1.494.968,2.965,1.972c.69.47.861,1.084.489,1.645a1.154,1.154,0,0,1-1.714.189q-1.545-1.009-3.067-2.051a1.06,1.06,0,0,1-.476-1.293,1.1,1.1,0,0,1,1.168-.746" transform="translate(-392.459 -296.593)"/>
        <path id="Trazado_227358" data-name="Trazado 227358" d="M319.644,85.6c1.1,0,2.207-.036,3.309.008a3.228,3.228,0,0,1,3.107,3.139c.033.777.027,1.557.009,2.336a3.228,3.228,0,0,1-3.136,3.322c-2.246.082-4.5.041-6.747.022a1.1,1.1,0,1,1,.06-2.2c2.033-.012,4.066,0,6.1-.006,1.144,0,1.511-.374,1.515-1.518,0-.519.006-1.038,0-1.557-.012-.951-.39-1.345-1.337-1.35-1.925-.01-3.85,0-5.775,0-.173,0-.347.009-.519,0a1.147,1.147,0,0,1-1.206-1.166c.033-.631.488-1.028,1.247-1.038,1.125-.015,2.25,0,3.374,0V85.6" transform="translate(-274.013 -74.445)"/>
        <path id="Trazado_227359" data-name="Trazado 227359" d="M68.273,193.254A5.535,5.535,0,0,1,73.6,187.72a1.141,1.141,0,0,1,1.286,1c.062.631-.4,1.109-1.169,1.2a3.316,3.316,0,1,0,3.3,4.068c.061-.273.08-.556.124-.834a1.125,1.125,0,0,1,1.147-1.011,1.148,1.148,0,0,1,1.042,1.2,5.527,5.527,0,0,1-11.052-.092" transform="translate(-59.386 -163.283)"/>
        <path id="Trazado_227360" data-name="Trazado 227360" d="M36.426,256.9a1.084,1.084,0,1,1-2.168-.032,1.084,1.084,0,1,1,2.168.032" transform="translate(-29.799 -222.486)"/>
      </g>
    </g>
  </g>
</svg>
