<svg xmlns="http://www.w3.org/2000/svg" xmlns:xlink="http://www.w3.org/1999/xlink" width="108.419" height="108.419" viewBox="0 0 108.419 108.419">
  <defs>
    <linearGradient id="linear-gradient" x1="0.5" x2="0.5" y2="1" gradientUnits="objectBoundingBox">
      <stop offset="0" stop-color="#fdbe41"/>
      <stop offset="1" stop-color="#d09f40"/>
    </linearGradient>
    <clipPath id="clip-path">
      <rect id="Rectángulo_57449" data-name="Rectángulo 57449" width="62.38" height="66.521" fill="#12263f"/>
    </clipPath>
  </defs>
  <g id="Grupo_179506" data-name="Grupo 179506" transform="translate(8749.79 5026.465)">
    <path id="Trazado_227285" data-name="Trazado 227285" d="M54.209,0A54.209,54.209,0,1,1,0,54.209,54.209,54.209,0,0,1,54.209,0Z" transform="translate(-8749.79 -5026.465)" fill="url(#linear-gradient)"/>
    <g id="Grupo_179225" data-name="Grupo 179225" transform="translate(-8725.579 -5005.743)">
      <g id="Grupo_179224" data-name="Grupo 179224" clip-path="url(#clip-path)">
        <path id="Trazado_227335" data-name="Trazado 227335" d="M42.5,66.522a11.221,11.221,0,0,1-1.549-.623,4.484,4.484,0,0,1-2.367-3.922c-.013-.364,0-.729,0-1.153-.287-.013-.516-.032-.745-.033-1.71,0-3.421,0-5.131,0a4.7,4.7,0,0,1-4.87-4.877c-.01-1.969,0-3.937,0-6h-.791q-10.392,0-20.783,0A6.109,6.109,0,0,1,.088,44.687a6.846,6.846,0,0,1-.072-1.164q-.006-10.231,0-20.461a3.77,3.77,0,0,1,.01-.454.912.912,0,0,1,.893-.87.907.907,0,0,1,1,.746,2.865,2.865,0,0,1,.044.709c0,6.712.058,13.425-.026,20.136A4.482,4.482,0,0,0,6.6,47.988c6.818-.086,13.638-.028,20.458-.028H27.8V46.871c-.23.059-.433.119-.639.164a2.107,2.107,0,0,1-2.446-1.027c-1.43-2.643-2.821-5.308-4.209-7.974a.961.961,0,0,1,.414-1.383.977.977,0,0,1,1.335.555c1.288,2.425,2.56,4.859,3.851,7.283.146.274.2.789.676.607.448-.171,1.01-.161,1.109-.945a16.076,16.076,0,0,1,.8-2.688l.2.034a3.238,3.238,0,0,0-.244-.287,8.221,8.221,0,0,1-2.589-7.29c.109-.985.183-1.974.279-3.017H18.95c.388.745.75,1.424,1.1,2.111a1.013,1.013,0,0,1-.292,1.467c-.523.3-1.078.081-1.431-.572-.462-.856-.931-1.71-1.356-2.585a.741.741,0,0,0-.8-.479c-.6.028-1.213.024-1.818,0A3.555,3.555,0,0,1,10.808,27.2c0-.169,0-.339,0-.59-.95,0-1.852.023-2.753,0a3.551,3.551,0,1,1-.009-7.1c.886-.017,1.773,0,2.765,0,0-.276-.008-.524,0-.772a3.546,3.546,0,0,1,3.13-3.428,8.417,8.417,0,0,1,1.036-.053q7.4,0,14.808,0a8.764,8.764,0,0,0,8.557-5.406,2.874,2.874,0,0,1,2.812-1.817c.628,0,1.256-.016,1.883.011a1.979,1.979,0,0,1,1.928,1.971c.015.452,0,.905,0,1.414h7.588c0-1.01,0-2,0-2.989,0-.866.024-1.734-.032-2.6a4.176,4.176,0,0,0-4-3.878c-.151-.006-.3-.006-.455-.006q-20.816,0-41.631,0A4.2,4.2,0,0,0,2.021,5.523a20.831,20.831,0,0,0-.058,2.724c-.007,1.055,0,2.11,0,3.234h.9q14.483,0,28.966,0a3.987,3.987,0,0,1,.9.068.86.86,0,0,1,.7.957.864.864,0,0,1-.778.894,5.13,5.13,0,0,1-.841.04q-14.483,0-28.966,0H1.962c0,1.421.005,2.76,0,4.1a2.205,2.205,0,0,1-.107.76.768.768,0,0,1-.978.538,2.58,2.58,0,0,1-.835-.764C-.03,18,.013,17.825.013,17.7c0-3.854-.021-7.708.008-11.562A6.1,6.1,0,0,1,6.138.015q21.108-.029,42.216,0a6.1,6.1,0,0,1,6.128,5.838c.021.367.025.736.025,1.1q0,17.668,0,35.336v3.229c.388,0,.957-.009,1.525,0a4.671,4.671,0,0,1,4.714,3.844,6.205,6.205,0,0,1,.077,1.163q.008,5.424,0,10.848c0,2.748-1.158,4.286-3.809,5.069-.037.011-.066.052-.1.078Zm.485-30.39V9.976A12.385,12.385,0,0,1,41.6,9.967a1.5,1.5,0,0,0-1.682,1.06,10,10,0,0,1-7.189,5.823,35.9,35.9,0,0,1-5.418.345c-.293.016-.587,0-.88,0V28.9c1.177,0,2.319,0,3.46,0a11.136,11.136,0,0,1,4.371.8,10.666,10.666,0,0,1,5.749,5.529c.207.444.4.885.983.894.646.01,1.292,0,1.987,0m1.986-6.938v.738c0,1.991.005,3.983,0,5.974a2.02,2.02,0,0,1-2.188,2.179c-.519.006-1.039-.006-1.558,0a2.967,2.967,0,0,1-2.914-1.87,10.93,10.93,0,0,0-1.4-2.243,8.922,8.922,0,0,0-7.564-3.129c-1.124.038-1.126.006-1.136,1.136a1.434,1.434,0,0,0,.034.213,3.5,3.5,0,0,1,3.174,2.727,3.551,3.551,0,0,1-2.086,4.163c.594.72,1.095,1.436,2.149.836a2.033,2.033,0,0,1,.956-.134c4.372-.008,8.744-.045,13.115.011a4.587,4.587,0,0,1,4.539,4.314c.043.445.047.895.068,1.335,2.224.123,2.236.449,2.4-1.9,0-.065,0-.13,0-.195q0-14.578,0-29.156c0-.23-.019-.46-.031-.712H45v3.45A6.2,6.2,0,0,1,49.3,18.928a5.963,5.963,0,0,1,1.613,4.452,6.185,6.185,0,0,1-5.944,5.814M29.784,48.017v.708q0,3.537,0,7.073A2.784,2.784,0,0,0,32.86,58.84q6.1,0,12.2,0A2.8,2.8,0,0,0,48.169,55.7c0-2.314-.02-4.629.015-6.943.009-.6-.169-.757-.76-.754-5.623.021-11.247.013-16.87.013ZM48.341,59.939h.634q3.084,0,6.167,0c.236,0,.548-.044.691.083a1.878,1.878,0,0,1,.655.92.809.809,0,0,1-.743.906,3.259,3.259,0,0,1-.647.036q-5.323,0-10.647,0c-1.024,0-1.156-.1-1.5-1.057H40.587c-.323,2.457.778,3.742,3.165,3.743q6.1,0,12.205,0a2.72,2.72,0,0,0,2.918-2.921c.007-2.359,0-4.718,0-7.077v-.757H50.158v2.126H50.9c1.515,0,3.03-.009,4.544.007a.976.976,0,0,1,1.081.958,1,1,0,0,1-1.072.979c-.172.011-.346,0-.519,0-1.558,0-3.116-.011-4.674.014a.928.928,0,0,0-.624.3c-.437.528-.823,1.1-1.29,1.738M20.283,28.886V17.232c-2.057,0-4.063-.039-6.066.018a1.5,1.5,0,0,0-1.452,1.611q-.026,4.182,0,8.365a1.541,1.541,0,0,0,1.558,1.648c1.964.039,3.93.012,5.961.012M29.79,46.015H48.143c0-.634.047-1.219-.009-1.795a2.631,2.631,0,0,0-2.624-2.477q-6.523-.055-13.047,0A2.672,2.672,0,0,0,29.8,44.326c-.035.537-.006,1.079-.006,1.689M50.169,47.5v4.268h8.706c0-.557.01-1.073,0-1.588a2.583,2.583,0,0,0-2.422-2.657c-2.07-.092-4.147-.024-6.282-.024M45,18.955v8.183a4.056,4.056,0,0,0,3.975-3.928A4.107,4.107,0,0,0,45,18.955M24.416,17.2c-.513,0-.987.034-1.453-.009-.542-.05-.693.148-.689.686.023,3.456.011,6.913.013,10.369,0,.19.02.381.034.614h2.1ZM10.785,21.461c-.995,0-1.923-.037-2.847.011a1.563,1.563,0,0,0-1.494,1.517,1.5,1.5,0,0,0,1.3,1.606c1,.088,2.011.021,3.039.021Zm17.2,12.733a6.027,6.027,0,0,0,.353,3.1A1.568,1.568,0,0,0,29.55,35.56c-.1-.78-.6-1.248-1.567-1.365" transform="translate(0 0)" fill="#12263f"/>
        <path id="Trazado_227336" data-name="Trazado 227336" d="M42.988,31.951a3.055,3.055,0,0,1,6.109.013,3.087,3.087,0,0,1-3.069,3.055,3.052,3.052,0,0,1-3.041-3.067m2.962,1.112a1.137,1.137,0,0,0,1.191-1.036,1.118,1.118,0,0,0-.989-1.162,1.087,1.087,0,0,0-1.209.991,1.111,1.111,0,0,0,1.007,1.207" transform="translate(-37.392 -25.146)" fill="#12263f"/>
        <path id="Trazado_227337" data-name="Trazado 227337" d="M119.036,45.856c1.255,0,2.51-.006,3.765,0,.724,0,1.129.361,1.132.961s-.413.979-1.121.981q-3.732.012-7.465,0c-.7,0-1.144-.4-1.148-.971s.437-.966,1.138-.971c1.233-.009,2.466,0,3.7,0" transform="translate(-99.334 -39.885)" fill="#12263f"/>
        <path id="Trazado_227338" data-name="Trazado 227338" d="M438.067,176.631c.6,0,1.208-.015,1.811,0a.956.956,0,0,1,1.012.948.945.945,0,0,1-.978.985c-1.271.023-2.544.025-3.815,0a.965.965,0,0,1,.03-1.929c.646-.021,1.293,0,1.94-.005" transform="translate(-378.51 -153.634)" fill="#12263f"/>
        <path id="Trazado_227339" data-name="Trazado 227339" d="M439.977,98.722a3.659,3.659,0,0,1-.484.788q-1.368,1.242-2.785,2.43a.967.967,0,1,1-1.275-1.451c.917-.823,1.831-1.653,2.8-2.409a1.3,1.3,0,0,1,1.06-.151c.278.095.448.5.683.793" transform="translate(-378.442 -85.137)" fill="#12263f"/>
        <path id="Trazado_227340" data-name="Trazado 227340" d="M435.891,236.12a5.744,5.744,0,0,1,.83.473q1.312,1.11,2.591,2.258a.969.969,0,0,1,.206,1.473,1,1,0,0,1-1.494-.02c-.886-.76-1.76-1.534-2.642-2.3a.9.9,0,0,1-.308-1.154c.165-.3.529-.486.816-.733" transform="translate(-378.352 -205.384)" fill="#12263f"/>
        <path id="Trazado_227341" data-name="Trazado 227341" d="M208.434,45.85c.454,0,.908-.016,1.361,0a.961.961,0,0,1,.982.918.951.951,0,0,1-.958,1.011q-1.425.045-2.852,0a.965.965,0,1,1,.04-1.93c.475-.02.951,0,1.426,0" transform="translate(-179.193 -39.876)" fill="#12263f"/>
        <path id="Trazado_227342" data-name="Trazado 227342" d="M255.112,387.476c-1.817,0-3.634,0-5.451,0-.837,0-1.25-.332-1.242-.975.008-.625.442-.969,1.27-.97q5.451-.007,10.9,0c.065,0,.13,0,.195,0,.7.045,1.105.43,1.079,1.03-.025.581-.4.909-1.107.913-1.882.009-3.764,0-5.645,0" transform="translate(-216.083 -335.343)" fill="#12263f"/>
        <path id="Trazado_227343" data-name="Trazado 227343" d="M253.133,418.275c-1.188,0-2.375.005-3.563,0-.74,0-1.135-.335-1.15-.936-.016-.621.406-1,1.158-1.008q3.53-.012,7.061,0c.738,0,1.184.412,1.16,1.015-.022.574-.451.923-1.169.927-1.166.007-2.332,0-3.5,0" transform="translate(-216.084 -362.131)" fill="#12263f"/>
      </g>
    </g>
  </g>
</svg>
