<svg xmlns="http://www.w3.org/2000/svg" xmlns:xlink="http://www.w3.org/1999/xlink" width="108.419" height="108.419" viewBox="0 0 108.419 108.419">
  <defs>
    <linearGradient id="linear-gradient" x1="0.5" x2="0.5" y2="1" gradientUnits="objectBoundingBox">
      <stop offset="0" stop-color="#fdbe41"/>
      <stop offset="1" stop-color="#d09f40"/>
    </linearGradient>
    <clipPath id="clip-path">
      <rect id="Rectángulo_57448" data-name="Rectángulo 57448" width="66.873" height="66.871" fill="#12263f"/>
    </clipPath>
  </defs>
  <g id="Grupo_179504" data-name="Grupo 179504" transform="translate(-1053.287 -6699.535)">
    <circle id="Elipse_6021" data-name="Elipse 6021" cx="54.209" cy="54.209" r="54.209" transform="translate(1053.287 6699.535)" fill="url(#linear-gradient)"/>
    <g id="Grupo_179223" data-name="Grupo 179223" transform="translate(1074.87 6718.586)">
      <g id="Grupo_179222" data-name="Grupo 179222" clip-path="url(#clip-path)">
        <path id="Trazado_227324" data-name="Trazado 227324" d="M49.181,0a14.207,14.207,0,0,1,2.024,1.151A3.2,3.2,0,0,1,52.362,3.6c.049,1.366.012,2.734.012,4.151H50.156c0-1.179,0-2.355,0-3.531-.005-1.366-.632-1.991-2.009-1.991q-14.731,0-29.462-.006a1.8,1.8,0,0,0-1.84,1.083c.253.014.447.035.641.035,1.764,0,3.529-.009,5.293,0a3.881,3.881,0,0,1,3.968,3.968c.017,2.438-.009,4.876.02,7.313a1.713,1.713,0,0,0,.354.987c1.536,1.892,3.1,3.759,4.667,5.628.37.442.713.875.427,1.5-.3.647-.867.672-1.472.67-3.155-.009-6.31,0-9.515,0v4.458c.853,0,1.7,0,2.554,0a3.9,3.9,0,0,1,4.08,4.069c.01,3.482-.012,6.965.022,10.447a2.225,2.225,0,0,0,.439,1.237c1.153,1.513,2.36,2.986,3.554,4.468a1.179,1.179,0,0,1-.986,2.071q-13.408-.009-26.815-.007A3.89,3.89,0,0,1,.006,46.073Q-.005,39,.006,31.934a3.89,3.89,0,0,1,4.078-4.07c3.434-.007,6.869,0,10.356,0V23.415H12.3V21.194H28.839c-1.094-1.318-2.022-2.561-3.085-3.677a4.3,4.3,0,0,1-1.261-3.43c.11-2.177.033-4.363.028-6.546a1.727,1.727,0,0,0-1.962-1.967q-8.079-.005-16.159,0A1.711,1.711,0,0,0,4.463,7.5q-.008,5.851,0,11.7a1.727,1.727,0,0,0,1.952,1.977c1.179.006,2.359,0,3.578,0v2.178a3.874,3.874,0,0,1-.5.048,33.183,33.183,0,0,1-4.232-.146,3.661,3.661,0,0,1-3.018-3.669q-.035-6.2,0-12.4a3.853,3.853,0,0,1,3.879-3.84c2.53-.022,5.061-.006,7.592-.006h.8A4.166,4.166,0,0,1,17.7,0Zm-20.3,47.924c-.976-1.224-1.889-2.3-2.713-3.438a2.683,2.683,0,0,1-.512-1.439c-.042-3.621-.022-7.242-.023-10.863,0-1.506-.594-2.09-2.119-2.091q-9.61,0-19.221,0c-1.466,0-2.064.6-2.064,2.074q0,6.79,0,13.58c0,1.613.563,2.177,2.172,2.177H28.886ZM16.77,27.807h2.143V23.436H16.77Z" transform="translate(0)" fill="#12263f"/>
        <path id="Trazado_227325" data-name="Trazado 227325" d="M279.838,90.933c-.1.257-.189.516-.292.77a3.887,3.887,0,0,1-3.656,2.43c-3.227.012-6.454,0-9.681,0H265.4v6.687h.743c2.461,0,4.922-.006,7.383,0a3.894,3.894,0,0,1,4.081,4.067q.014,5.955,0,11.91a3.9,3.9,0,0,1-4.07,4.081c-1.206.007-2.413,0-3.674,0v-2.229c1.113,0,2.242,0,3.37,0,1.566,0,2.147-.577,2.147-2.134q0-5.711,0-11.422c0-1.426-.613-2.045-2.024-2.046q-10.8,0-21.591,0h-.747c1.066,1.282,1.976,2.512,3.029,3.6a4.418,4.418,0,0,1,1.3,3.557c-.112,2.153-.033,4.317-.028,6.476a1.727,1.727,0,0,0,1.965,1.964q4.736.007,9.472,0h.785v2.229h-.656q-4.806,0-9.611,0a3.914,3.914,0,0,1-4.184-4.176c0-2.345.017-4.69-.019-7.034a1.935,1.935,0,0,0-.4-1.108c-1.547-1.913-3.131-3.8-4.71-5.683a1.223,1.223,0,0,1-.343-1.389,1.251,1.251,0,0,1,1.329-.674c3.2.009,6.4,0,9.659,0V94.138h-.734c-2.972,0-5.943-.005-8.915,0a1.263,1.263,0,0,1-1.335-.666,1.232,1.232,0,0,1,.328-1.394c1.223-1.518,2.452-3.032,3.641-4.577a1.874,1.874,0,0,0,.364-1.056c.027-3.459.014-6.918.017-10.377a3.916,3.916,0,0,1,4.2-4.224q9.4,0,18.8,0c2.88,0,3.8.607,4.852,3.2Zm-28.858.946c.25.014.38.028.511.028q12.117,0,24.235,0A1.7,1.7,0,0,0,277.607,90q.008-6.964,0-13.928c0-1.367-.631-1.992-2.007-1.993q-9.68,0-19.36,0c-1.418,0-2.035.617-2.036,2.032,0,3.575-.014,7.15.011,10.724a2.529,2.529,0,0,1-.611,1.777c-.88,1.035-1.706,2.116-2.625,3.267m12.1,2.3h-2.141v6.608h2.141Z" transform="translate(-212.965 -61.817)" fill="#12263f"/>
        <path id="Trazado_227326" data-name="Trazado 227326" d="M103.8,375.337h2.229v.731q0,4.735,0,9.47c0,1.421.615,2.04,2.029,2.041q14.692,0,29.385,0c1.409,0,2.015-.621,2.02-2.05,0-.394,0-.788,0-1.237H141.6c.6,2.689-.708,4.976-3.132,5.448a5.114,5.114,0,0,1-.969.066q-14.762.005-29.524,0a3.912,3.912,0,0,1-4.175-4.183q-.006-4.8,0-9.609v-.678" transform="translate(-89.308 -322.939)" fill="#12263f"/>
        <path id="Trazado_227327" data-name="Trazado 227327" d="M65.91,61.677a5.778,5.778,0,0,1-.637-.264c-.716-.381-1.439-.753-2.127-1.181A.956.956,0,0,0,62,60.241a15.951,15.951,0,0,1-2.2,1.188,1.843,1.843,0,0,1-1.284.016c-.489-.2-.566-.726-.463-1.26.171-.887.286-1.785.454-2.673a1.025,1.025,0,0,0-.341-1.045c-.642-.6-1.248-1.245-1.849-1.89a1.112,1.112,0,0,1,.628-2c.842-.162,1.693-.276,2.543-.385a.967.967,0,0,0,.872-.653,18.01,18.01,0,0,1,1.167-2.443,1.115,1.115,0,0,1,2.086,0c.473.791.781,1.68,1.224,2.492a1.273,1.273,0,0,0,.753.566c.79.176,1.6.253,2.4.37a1.291,1.291,0,0,1,1.2.8,1.252,1.252,0,0,1-.464,1.36c-.572.576-1.107,1.193-1.712,1.732a1.159,1.159,0,0,0-.361,1.235c.173.887.315,1.78.447,2.674a1.153,1.153,0,0,1-1.2,1.351m-1.385-3.236a3.077,3.077,0,0,1,1.291-3.993,2.869,2.869,0,0,1-3.26-2.341c-.39,1.776-1.555,2.357-3.207,2.384a3,3,0,0,1,1.25,3.964,2.748,2.748,0,0,1,3.926-.014" transform="translate(-48.086 -41.621)" fill="#12263f"/>
        <path id="Trazado_227328" data-name="Trazado 227328" d="M321.569,322.683a9.9,9.9,0,0,1-8.415-4.67,1.6,1.6,0,0,1,0-1.865c3.62-6.132,13.236-6.15,16.878-.031a1.659,1.659,0,0,1-.006,1.937,9.942,9.942,0,0,1-8.46,4.628m-.028-2.24a7.815,7.815,0,0,0,6.119-2.865.646.646,0,0,0,.029-.954,7.9,7.9,0,0,0-12.162-.01.651.651,0,0,0,.019.962,7.771,7.771,0,0,0,5.995,2.868" transform="translate(-269.179 -268.047)" fill="#12263f"/>
        <path id="Trazado_227329" data-name="Trazado 227329" d="M207.8,34.188V31.965c.251-.011.476-.03.7-.03q8.314,0,16.627,0c1.268,0,1.588.326,1.59,1.612,0,.552,0,1.1,0,1.692H224.5v-1.05Z" transform="translate(-178.791 -27.475)" fill="#12263f"/>
        <path id="Trazado_227330" data-name="Trazado 227330" d="M135.739,375.434h2.2c.015.344.029.661.046,1.046h16.643v2.267H137.347c-1.283,0-1.606-.322-1.608-1.593,0-.553,0-1.107,0-1.72" transform="translate(-116.789 -323.022)" fill="#12263f"/>
        <path id="Trazado_227331" data-name="Trazado 227331" d="M218.914,407.172A3.339,3.339,0,1,1,215.6,410.5a3.353,3.353,0,0,1,3.319-3.323m.016,4.45a1.11,1.11,0,1,0-1.105-1.1,1.12,1.12,0,0,0,1.105,1.1" transform="translate(-185.497 -350.33)" fill="#12263f"/>
        <path id="Trazado_227332" data-name="Trazado 227332" d="M42.656,228.762a4.484,4.484,0,0,1,6.458-1.04,4.449,4.449,0,0,1-1.557,7.8,4.185,4.185,0,0,1-4.475-1.347.744.744,0,0,0-1.039-.226q-1.43.63-2.905,1.157a.735.735,0,0,0-.564.792,3.326,3.326,0,0,1-3.507,3.128,3.372,3.372,0,0,1-3.143-3.511,3.3,3.3,0,0,1,3.5-3.13,9.126,9.126,0,0,1,1.813.615,1.506,1.506,0,0,0,.848.122c1.133-.406,2.249-.864,3.356-1.34.205-.088.46-.342.468-.528a.776.776,0,0,0-.432-.549c-1.127-.487-2.266-.948-3.42-1.368a1,1,0,0,0-.783.118,3.352,3.352,0,1,1-1.407-5.974A3.4,3.4,0,0,1,38.6,226.66a.785.785,0,0,0,.3.582c1.232.531,2.484,1.014,3.75,1.521m5.965,2.465a2.226,2.226,0,1,0-2.2,2.237,2.235,2.235,0,0,0,2.2-2.237M36.36,226.834a1.111,1.111,0,1,0-1.148,1.056,1.124,1.124,0,0,0,1.148-1.056m0,8.884a1.11,1.11,0,1,0-1.117,1.087,1.122,1.122,0,0,0,1.117-1.087" transform="translate(-27.446 -192.231)" fill="#12263f"/>
        <path id="Trazado_227333" data-name="Trazado 227333" d="M335.308,110.587c0-1.762-.006-3.525,0-5.288.006-1.2.763-1.676,1.845-1.138,3.566,1.771,7.124,3.559,10.689,5.333a1.226,1.226,0,0,1,.828,1.1,1.2,1.2,0,0,1-.8,1.115c-3.584,1.787-7.164,3.584-10.751,5.364-1.04.516-1.8.034-1.811-1.125-.011-1.786,0-3.571,0-5.357m9.769.02-7.5-3.754v7.506l7.5-3.751" transform="translate(-288.496 -89.431)" fill="#12263f"/>
        <path id="Trazado_227334" data-name="Trazado 227334" d="M361.488,335.315a2.227,2.227,0,1,1-2.2,2.238,2.243,2.243,0,0,1,2.2-2.238" transform="translate(-309.134 -288.504)" fill="#12263f"/>
      </g>
    </g>
  </g>
</svg>
