<svg xmlns="http://www.w3.org/2000/svg" xmlns:xlink="http://www.w3.org/1999/xlink" width="108.419" height="108.419" viewBox="0 0 108.419 108.419">
  <defs>
    <linearGradient id="linear-gradient" x1="0.5" x2="0.5" y2="1" gradientUnits="objectBoundingBox">
      <stop offset="0" stop-color="#fdbe41"/>
      <stop offset="1" stop-color="#d09f40"/>
    </linearGradient>
    <clipPath id="clip-path">
      <rect id="Rectángulo_57447" data-name="Rectángulo 57447" width="57.982" height="52.717" fill="#12263f"/>
    </clipPath>
  </defs>
  <g id="Grupo_179503" data-name="Grupo 179503" transform="translate(-737.326 -6699.535)">
    <circle id="Elipse_6020" data-name="Elipse 6020" cx="54.209" cy="54.209" r="54.209" transform="translate(737.326 6699.535)" fill="url(#linear-gradient)"/>
    <g id="Grupo_179221" data-name="Grupo 179221" transform="translate(762.544 6729.666)">
      <g id="Grupo_179220" data-name="Grupo 179220" clip-path="url(#clip-path)">
        <path id="Trazado_227298" data-name="Trazado 227298" d="M11.632,10.846c0,3.43-.015,6.86,0,10.289,0,.9-.23,1.667-1.2,1.857a1.309,1.309,0,0,1-1.683-1.1c.033-.032.1-.079.094-.1a1.309,1.309,0,0,0-.123-.2c-.023-3.213-.064-6.426-.055-9.639,0-.732-.136-1.072-.951-1.33a4.157,4.157,0,0,1-3.065-4.3c-.009-.272.015-.547-.008-.817C4.337,1.989,6.118.038,10.075.024c11.5-.042,23-.015,34.5-.015q5.642,0,11.283,0a3.7,3.7,0,0,1,2.918.916.667.667,0,0,0,.712.339l.3.289c-.022.395.114.668.547.716a.255.255,0,0,1,.1.275q.027,2.848.055,5.695l.021-.029c-.361.088-.407.362-.4.669-.042.1-.059.254-.131.287-2.43,1.11-1.944,3.284-1.942,5.284q0,5.631,0,11.262c0,.8-.185,1.574-1.094,1.776a1.286,1.286,0,0,1-1.728-1,1.011,1.011,0,0,0,.291-.885q0-6.733,0-13.465c0-.376.037-.768-.33-1.027l-.331-.336c-.425-.509-1.01-.315-1.53-.316q-20.1-.015-40.206,0c-.51,0-1.114-.22-1.48.387M8.67,2.921C7,3.891,7.431,5.476,7.7,6.853,7.975,8.244,9.295,7.9,10.284,7.9q22.246.018,44.492,0c.653,0,1.306-.06,1.959-.073a1.132,1.132,0,0,0,1.178-.944c.224-1.374.592-2.822-.786-3.891-.359-.618-.966-.4-1.475-.4Q32.925,2.582,10.2,2.6c-.519,0-1.106-.194-1.526.323" transform="translate(-3.095 0)" fill="#12263f"/>
        <path id="Trazado_227299" data-name="Trazado 227299" d="M36.448,73.311c-.018,1.526-.034,3.053-.055,4.579-.042,3.014-2.2,4.638-5.024,3.658-4.777-1.657-9.523-3.4-14.277-5.127-2.355-.854-2.348-.868-2.362,1.564a6.106,6.106,0,0,1-.2,1.941,3.653,3.653,0,0,1-3.886,2.585,3.6,3.6,0,0,1-3.121-3.447c-.009-.163-.011-.327-.012-.491-.009-1.091.328-2.363-.123-3.221-.441-.839-1.876-.394-2.842-.712a6.76,6.76,0,0,1-4.48-7.174c.472-3.146,3.156-5.777,6.294-5.529,4.827.381,9.211-.923,13.6-2.606,3.654-1.4,7.376-2.627,11.084-3.88,3.245-1.1,5.328.449,5.349,3.9.011,1.909.037,3.817.056,5.725q-.006.838-.012,1.676l-.019,4.837q.014.863.027,1.726M30.429,58.889a1.37,1.37,0,0,0-1.038.382c-4.716,1.318-9.252,3.171-13.9,4.688-.735.24-.772.794-.766,1.43.017,1.965.063,3.932-.018,5.893a1.437,1.437,0,0,0,1.174,1.629c5.282,1.873,10.546,3.8,15.821,5.688,1.6.574,1.75.46,1.753-1.291q.013-8.432,0-16.864c0-2.833,0-2.833-2.678-1.742l-.35.187M11.78,68.54c0-.872-.047-1.746.013-2.614s-.24-1.159-1.107-1.12c-1.359.062-2.724-.011-4.085.025a3.577,3.577,0,0,0-3.629,3.437,3.673,3.673,0,0,0,3.535,3.745c.6.04,1.2.012,1.8.013,3.476,0,3.476,0,3.475-3.487m0,8.85c0-.564.017-1,0-1.434-.02-.4.142-.933-.555-.942s-.756.475-.759,1a5.741,5.741,0,0,0,.014,1.3c.175.751-.589,2.141.644,2.126,1.176-.014.425-1.422.66-2.048" transform="translate(0 -37.042)" fill="#12263f"/>
        <path id="Trazado_227300" data-name="Trazado 227300" d="M21.1,127.345a4.418,4.418,0,0,1-4.28-5.333,1.352,1.352,0,0,1,1.41-1.245c.578.136,1.619.461,1.519,1.395-.236,2.206,1.029,2.313,2.717,2.307q19.131-.063,38.263-.014a2.621,2.621,0,0,0,2.236-.682c.578-.377.364-.969.37-1.478.022-2,.062-4-.01-5.989-.044-1.214.344-2.469-.26-3.645.631-1.985,1.207-2.049,2.827-.316-.57,2.621-.164,5.275-.229,7.911-.029,1.163-.319,2.375.235,3.511-.667,2.41-1.84,3.408-4.2,3.575-.107-.173-.21-.166-.311,0q-13.38.031-26.76.058c-4.4,0-8.81-.038-13.214-.058-.1-.174-.207-.173-.312,0" transform="translate(-11.256 -74.689)" fill="#12263f"/>
        <path id="Trazado_227301" data-name="Trazado 227301" d="M133.987,93.741c1.582,0,3.165,0,4.748,0,.962,0,1.627.421,1.649,1.406a1.441,1.441,0,0,1-1.584,1.516c-3.274.041-6.549.048-9.822-.005a1.392,1.392,0,0,1-1.472-1.6,1.377,1.377,0,0,1,1.57-1.317c1.637.019,3.274.005,4.911,0" transform="translate(-85.709 -63.013)" fill="#12263f"/>
        <path id="Trazado_227302" data-name="Trazado 227302" d="M82.739,40.069c1.771,1.432,1.771,1.657,0,2.818-.461-.434-1.033-.254-1.557-.256q-5.139-.023-10.278,0c-.524,0-1.1-.179-1.554.263-.712-.269-1.363-.66-1.3-1.516a1.3,1.3,0,0,1,1.3-1.317c.456.444,1.03.261,1.553.263q5.057.024,10.115,0c.577,0,1.2.2,1.721-.253" transform="translate(-45.74 -26.931)" fill="#12263f"/>
        <path id="Trazado_227303" data-name="Trazado 227303" d="M129.569,114.906c-.036,1.247-1.352,2.032-2.213,1.291a57.355,57.355,0,0,1-4.268-4.235,1.246,1.246,0,0,1,.124-1.774,1.183,1.183,0,0,1,1.605-.357,26.244,26.244,0,0,1,4.587,4.574,1.319,1.319,0,0,1,.166.5" transform="translate(-82.53 -73.703)" fill="#12263f"/>
        <path id="Trazado_227304" data-name="Trazado 227304" d="M124.4,72.008a1.52,1.52,0,0,1-1.392-.852,1.251,1.251,0,0,1,.177-1.52c1.321-1.37,2.652-2.734,4.048-4.024a1.3,1.3,0,0,1,1.8.073,1.285,1.285,0,0,1,.274,1.776,25.461,25.461,0,0,1-4.383,4.348,1.713,1.713,0,0,1-.52.2" transform="translate(-82.573 -43.888)" fill="#12263f"/>
        <path id="Trazado_227305" data-name="Trazado 227305" d="M26.047,32.217c.366-.606.97-.387,1.48-.387q20.1-.017,40.207,0c.52,0,1.1-.193,1.53.315q-20.627.017-41.254.036c-.654,0-1.308.024-1.963.037" transform="translate(-17.51 -21.372)" fill="#12263f"/>
        <path id="Trazado_227306" data-name="Trazado 227306" d="M111.147,93.759q-.014-.863-.028-1.727c1.826-1.489,1.833-3.282.019-4.836q.005-.838.012-1.676a4.064,4.064,0,0,1,2.787,4.065,4.354,4.354,0,0,1-2.79,4.174" transform="translate(-74.699 -57.49)" fill="#12263f"/>
        <path id="Trazado_227307" data-name="Trazado 227307" d="M158.911,33.892c.367.26.33.652.33,1.027q0,6.733,0,13.465a1.011,1.011,0,0,1-.291.885q-.02-7.688-.039-15.377" transform="translate(-106.826 -22.784)" fill="#12263f"/>
        <path id="Trazado_227308" data-name="Trazado 227308" d="M72.022,48.093c.457-.441,1.03-.26,1.554-.263q5.139-.024,10.278,0c.524,0,1.1-.178,1.557.256l-13.389.007" transform="translate(-48.416 -32.13)" fill="#12263f"/>
        <path id="Trazado_227309" data-name="Trazado 227309" d="M85.423,40.069c-.518.456-1.145.25-1.721.253q-5.057.03-10.115,0c-.523,0-1.1.181-1.553-.263l13.39.008" transform="translate(-48.423 -26.931)" fill="#12263f"/>
        <path id="Trazado_227310" data-name="Trazado 227310" d="M166.015,126.311c-.554-1.136-.264-2.348-.235-3.511.065-2.637-.341-5.29.23-7.911q0,5.711.005,11.422" transform="translate(-111.376 -77.233)" fill="#12263f"/>
        <path id="Trazado_227311" data-name="Trazado 227311" d="M157.856,115.852c.6,1.176.216,2.431.26,3.645.072,1.994.033,3.993.01,5.989-.006.509.208,1.1-.37,1.478l.1-11.112" transform="translate(-106.05 -77.88)" fill="#12263f"/>
        <path id="Trazado_227312" data-name="Trazado 227312" d="M175.014,13.458q-.028-2.847-.055-5.694a6.944,6.944,0,0,1,.055,5.694" transform="translate(-117.614 -5.219)" fill="#12263f"/>
        <path id="Trazado_227313" data-name="Trazado 227313" d="M173.515,5.454c-.432-.048-.569-.322-.547-.717a1.078,1.078,0,0,1,.547.717" transform="translate(-116.275 -3.184)" fill="#12263f"/>
        <path id="Trazado_227314" data-name="Trazado 227314" d="M173.977,25.72c-.009-.307.037-.581.4-.669a.736.736,0,0,1-.4.669" transform="translate(-116.954 -16.84)" fill="#12263f"/>
        <path id="Trazado_227315" data-name="Trazado 227315" d="M170.6,3.036a.667.667,0,0,1-.712-.339c.379-.185.537.1.712.339" transform="translate(-114.206 -1.773)" fill="#12263f"/>
        <path id="Trazado_227316" data-name="Trazado 227316" d="M17.08,65.893a1.293,1.293,0,0,1,.123.2c.007.016-.061.063-.094.1a.275.275,0,0,1-.029-.3" transform="translate(-11.461 -44.296)" fill="#12263f"/>
        <path id="Trazado_227317" data-name="Trazado 227317" d="M30.023,160.392c.1-.171.209-.172.312,0l-.156.038Z" transform="translate(-20.183 -107.736)" fill="#12263f"/>
        <path id="Trazado_227318" data-name="Trazado 227318" d="M152.936,160.392c.1-.171.2-.177.311,0l-.155.043Z" transform="translate(-102.81 -107.734)" fill="#12263f"/>
        <path id="Trazado_227319" data-name="Trazado 227319" d="M65.467,8.248Q51.879,8.222,38.292,8.2q-10.641-.017-21.283-.024c.42-.518,1.007-.323,1.526-.323q22.729-.015,45.458,0c.509,0,1.116-.221,1.475.4" transform="translate(-11.434 -5.252)" fill="#12263f"/>
        <path id="Trazado_227320" data-name="Trazado 227320" d="M89.671,67.034a1.369,1.369,0,0,1,1.038-.382q.057,6.254.113,12.508c-.932-.071-.72-.787-.723-1.34-.014-3.027,0-6.054-.017-9.08,0-.566.225-1.2-.309-1.681Z" transform="translate(-60.28 -44.806)" fill="#12263f"/>
        <path id="Trazado_227321" data-name="Trazado 227321" d="M92.953,78.778Q92.9,72.524,92.84,66.27l.349-.187q-.039,6.349-.079,12.7l-.158,0" transform="translate(-62.411 -44.424)" fill="#12263f"/>
        <path id="Trazado_227322" data-name="Trazado 227322" d="M90.93,80l.158,0c-1.127.559-1.253.525-1.256-.657-.009-3.816.029-7.632.049-11.447.534.48.3,1.115.309,1.681.022,3.027,0,6.054.017,9.081,0,.552-.21,1.268.723,1.339" transform="translate(-60.387 -45.641)" fill="#12263f"/>
        <path id="Trazado_227323" data-name="Trazado 227323" d="M89.7,113.492a1.035,1.035,0,0,1-1.057-.993.924.924,0,0,1,.865-1.142c.7-.076,1.032.58,1.149,1.068.137.572-.318.979-.957,1.066" transform="translate(-59.577 -74.855)" fill="#12263f"/>
      </g>
    </g>
  </g>
</svg>
