<svg id="Grupo_177262" data-name="Grupo 177262" xmlns="http://www.w3.org/2000/svg" xmlns:xlink="http://www.w3.org/1999/xlink" width="58.045" height="58.068" viewBox="0 0 58.045 58.068">
  <defs>
    <clipPath id="clip-path">
      <rect id="Rectángulo_57019" data-name="Rectángulo 57019" width="58.045" height="58.068" fill="#12263f"/>
    </clipPath>
  </defs>
  <g id="Grupo_177262-2" data-name="Grupo 177262" clip-path="url(#clip-path)">
    <path id="Trazado_224666" data-name="Trazado 224666" d="M46.464,0c.239.1.483.19.714.3a3.393,3.393,0,0,1,2.009,3.277q0,10.275,0,20.55c0,.87,0,1.741,0,2.611s-.42,1.4-1.126,1.408-1.139-.511-1.139-1.391q0-6.869,0-13.738V12.3H2.182v.6q0,13.624,0,27.249c0,1.247.384,1.635,1.62,1.635H33.039c-.258-.893-.5-1.724-.739-2.555-.358-1.251-.731-2.5-1.058-3.758-.107-.412-.3-.515-.7-.512-2.441.019-4.882.009-7.323.009H6.868c-1.124,0-1.5-.375-1.5-1.489q0-8.288,0-16.576c0-1.081.382-1.459,1.473-1.459H34.315c1.088,0,1.474.381,1.474,1.459q0,6.926,0,13.851v.666c1.62.468,3.227.934,4.835,1.4q5.575,1.6,11.15,3.2c1.456.419,1.689,1.3.625,2.368-.786.786-1.575,1.569-2.491,2.48a3.989,3.989,0,0,1,.573.39q3.278,3.264,6.542,6.544c.358.359.681.752,1.021,1.13v.795c-.213.232-.417.472-.64.695q-3.528,3.534-7.061,7.063a1.376,1.376,0,0,1-2.239.01q-3.472-3.469-6.943-6.941c-.143-.143-.294-.279-.481-.457-.893.9-1.747,1.776-2.627,2.629a1.152,1.152,0,0,1-2.008-.5c-.136-.411-.239-.834-.359-1.25-.661-2.3-1.322-4.6-1.994-6.928H3.824c-.227,0-.454,0-.681-.006A3.389,3.389,0,0,1,0,40.817C.053,28.258.034,15.7.02,3.138A2.807,2.807,0,0,1,1.167.795,9.85,9.85,0,0,1,2.639,0ZM2.184,9.953h44.7a.882.882,0,0,0,.033-.148q0-2.895.006-5.79c0-1.409-.336-1.746-1.736-1.746H3.917c-.17,0-.341-.009-.511,0A1.171,1.171,0,0,0,2.192,3.5c-.023,2.136-.008,4.272-.008,6.448m5.489,7.783V32.678H30.4c-.08-.3-.149-.573-.224-.841a1.189,1.189,0,0,1,1.594-1.57c.568.164,1.14.319,1.723.482V17.736ZM55.225,49.255c-.13-.137-.269-.288-.414-.433q-3.471-3.471-6.942-6.941c-.847-.848-.846-1.355.005-2.208.6-.6,1.2-1.187,1.863-1.847L32.89,32.974l4.864,16.893c.666-.693,1.232-1.3,1.815-1.887.875-.883,1.373-.88,2.247-.006q3.471,3.47,6.936,6.947a2.2,2.2,0,0,1,.3.51l6.174-6.175" transform="translate(0)" fill="#12263f"/>
    <path id="Trazado_224667" data-name="Trazado 224667" d="M53.618,327.367c1.209,0,2.419,0,3.628,0,.812,0,1.35.462,1.348,1.134s-.543,1.128-1.355,1.13q-3.685.006-7.369,0a1.171,1.171,0,0,1-1.315-1.108c-.019-.677.516-1.151,1.322-1.155,1.247-.006,2.494,0,3.741,0" transform="translate(-43.03 -290.125)" fill="#12263f"/>
    <path id="Trazado_224668" data-name="Trazado 224668" d="M413.629,267.531a1.129,1.129,0,1,1-1.145,1.082,1.139,1.139,0,0,1,1.145-1.082" transform="translate(-365.559 -237.097)" fill="#12263f"/>
    <path id="Trazado_224669" data-name="Trazado 224669" d="M158.407,328.545a1.114,1.114,0,0,1-1.093,1.127,1.13,1.13,0,1,1-.047-2.259,1.105,1.105,0,0,1,1.14,1.132" transform="translate(-138.386 -290.166)" fill="#12263f"/>
    <path id="Trazado_224670" data-name="Trazado 224670" d="M229.694,43.922q3.917,0,7.834,0a1.147,1.147,0,0,1,1.164.734.932.932,0,0,1-.234,1.143,1.91,1.91,0,0,1-1.073.374c-3.254.028-6.509.016-9.763.016h-5.336c-1.069,0-1.564-.353-1.572-1.119s.492-1.147,1.544-1.147h7.436" transform="translate(-195.606 -38.925)" fill="#12263f"/>
    <path id="Trazado_224671" data-name="Trazado 224671" d="M52.688,43.955a1.131,1.131,0,1,1,0,2.262,1.131,1.131,0,1,1,0-2.262" transform="translate(-45.684 -38.955)" fill="#12263f"/>
    <path id="Trazado_224672" data-name="Trazado 224672" d="M144.651,45.111a1.142,1.142,0,0,1-1.179,1.113,1.13,1.13,0,1,1,1.179-1.113" transform="translate(-126.176 -38.963)" fill="#12263f"/>
    <path id="Trazado_224673" data-name="Trazado 224673" d="M99.346,45.1a1.13,1.13,0,1,1-1.162-1.131A1.131,1.131,0,0,1,99.346,45.1" transform="translate(-86.042 -38.966)" fill="#12263f"/>
    <path id="Trazado_224674" data-name="Trazado 224674" d="M190.913,180.857c0-1.248,0-2.5,0-3.744,0-1.085.393-1.47,1.462-1.485a6.926,6.926,0,0,1,3.577.635,5.212,5.212,0,0,1-2.256,9.8c-.491.021-.983.014-1.475.008a1.179,1.179,0,0,1-1.3-1.3c-.014-1.3,0-2.61,0-3.914m2.308,2.944A2.979,2.979,0,0,0,196,182.312a2.8,2.8,0,0,0-.107-3.1,2.916,2.916,0,0,0-2.677-1.3Z" transform="translate(-169.192 -155.645)" fill="#12263f"/>
    <path id="Trazado_224675" data-name="Trazado 224675" d="M110.289,184.97a1.228,1.228,0,0,1-.846,1.143,1.047,1.047,0,0,1-1.254-.531c-.177-.422-.433-.478-.823-.464-.718.025-1.437-.008-2.155.019a.676.676,0,0,0-.477.254c-.423.656-.929.9-1.49.673a1.172,1.172,0,0,1-.619-1.6c.639-1.933,1.3-3.86,1.948-5.79.241-.715.479-1.431.732-2.141a1.141,1.141,0,0,1,2.191.008q1.37,4.043,2.718,8.094a2.785,2.785,0,0,1,.075.339m-3.894-4.544-.793,2.4H107.2l-.8-2.4" transform="translate(-90.864 -155.721)" fill="#12263f"/>
  </g>
</svg>
