<svg id="Grupo_177263" data-name="Grupo 177263" xmlns="http://www.w3.org/2000/svg" xmlns:xlink="http://www.w3.org/1999/xlink" width="64.875" height="58.691" viewBox="0 0 64.875 58.691">
  <defs>
    <clipPath id="clip-path">
      <rect id="Rectángulo_57020" data-name="Rectángulo 57020" width="64.875" height="58.691" fill="#12263f"/>
    </clipPath>
  </defs>
  <g id="Grupo_177263-2" data-name="Grupo 177263" clip-path="url(#clip-path)">
    <path id="Trazado_224676" data-name="Trazado 224676" d="M0,109.137a6.028,6.028,0,0,1,.715-1.545A7.826,7.826,0,0,1,2.7,105.827c2.88-1.6,5.858-3.029,8.72-4.661A27.781,27.781,0,0,0,23.75,87.816,28.56,28.56,0,0,0,24.9,84.152a2.122,2.122,0,0,0-.118-1.033,4.286,4.286,0,0,0-.376-.742A1.585,1.585,0,0,1,25,80.109a1.557,1.557,0,0,1,2.148.8c1.105,2.079,2.193,4.167,3.288,6.251q6.868,13.074,13.736,26.149c.509.97.444,1.572-.217,2.13a1.435,1.435,0,0,1-2.333-.391,3.677,3.677,0,0,0-2.73-2.132,24.856,24.856,0,0,0-11.433-.762,30.906,30.906,0,0,0-7.735,2.256c-.134.059-.265.127-.439.211.416.8.818,1.574,1.225,2.348q1.791,3.411,3.584,6.822c.647,1.235.418,1.959-.83,2.622-1.039.552-2.079,1.1-3.128,1.638a1.568,1.568,0,0,1-2.333-.692,22.475,22.475,0,0,0-7.681-7.621.8.8,0,0,0-.629-.045,4.642,4.642,0,0,1-6.2-2.254q-1.344-2.521-2.654-5.06c-.241-.466-.425-.962-.635-1.444v-1.8m17.813,2.7c6.7-2.947,13.578-4.074,20.891-2.254L27.187,87.672c-2.635,7.09-7.49,12.087-13.693,15.945l4.318,8.219m-7.066-6.752c-2.242,1.178-4.437,2.324-6.625,3.483a1.557,1.557,0,0,0-.72,2.405q1.289,2.474,2.6,4.938a1.611,1.611,0,0,0,2.535.773q3.041-1.588,6.076-3.189a4.5,4.5,0,0,0,.412-.279l-4.277-8.132m2.222,12.794A27.323,27.323,0,0,1,19.85,124.7l.937-.519-4.3-8.163-3.522,1.859" transform="translate(0 -69.625)" fill="#12263f"/>
    <path id="Trazado_224677" data-name="Trazado 224677" d="M38.131,0A2,2,0,0,1,39.17,2.083c-.062.654-.012,1.318-.012,1.967a12.311,12.311,0,0,1,1.5.212,3.552,3.552,0,0,1,2.613,3.482,1.536,1.536,0,0,1-1.381,1.515A1.491,1.491,0,0,1,40.224,8c-.067-.665-.383-.819-.969-.8-.835.027-1.673,0-2.509.01a1.591,1.591,0,0,0-1.7,1.552A1.613,1.613,0,0,0,36.766,10.3a18.579,18.579,0,0,1,2.942.147,4.5,4.5,0,0,1,3.567,4.443,4.613,4.613,0,0,1-3.548,4.545c-.166.04-.33.089-.567.153,0,.8,0,1.6,0,2.412a1.547,1.547,0,1,1-3.082,0c-.005-.789,0-1.578,0-2.363a12.686,12.686,0,0,1-1.494-.213,3.549,3.549,0,0,1-2.623-3.474A1.526,1.526,0,0,1,33.39,14.42a1.489,1.489,0,0,1,1.625,1.315c.064.595.348.759.885.746.857-.02,1.716.005,2.573-.008a1.554,1.554,0,1,0,0-3.092,18.9,18.9,0,0,1-2.942-.145A4.507,4.507,0,0,1,31.958,8.8a4.612,4.612,0,0,1,3.535-4.554c.184-.045.365-.1.581-.164,0-.655.045-1.3-.011-1.937A2.024,2.024,0,0,1,37.1,0Z" transform="translate(-27.834)" fill="#12263f"/>
    <path id="Trazado_224678" data-name="Trazado 224678" d="M286.312,42.118c-1.124-.144-2.246-.3-3.372-.421a1.794,1.794,0,0,0-.913.121c-1.373.652-2.731,1.336-4.083,2.029a1.556,1.556,0,0,1-1.853-.135,1.54,1.54,0,0,1-.477-1.741c.237-.866.434-1.743.665-2.611a.814.814,0,0,0-.3-.978,11.952,11.952,0,0,1-4.29-6.835,11.4,11.4,0,0,1,3.218-10.855,15.57,15.57,0,0,1,13.252-4.565,15.129,15.129,0,0,1,8.965,3.912,11.844,11.844,0,0,1-.609,18.5,16.66,16.66,0,0,1-10.2,3.575m-6.872-2.5a15.976,15.976,0,0,0,1.446-.726,3.131,3.131,0,0,1,2.517-.3,13.029,13.029,0,0,0,10.592-2.035c4.991-3.495,5.585-9.754,1.367-13.923-4.6-4.545-12.969-4.692-17.713-.311-3.642,3.362-4.206,8.207-1.3,11.954a17.444,17.444,0,0,0,2.6,2.459,1.689,1.689,0,0,1,.7,1.9c-.081.282-.126.575-.213.982" transform="translate(-236.403 -13.965)" fill="#12263f"/>
    <path id="Trazado_224679" data-name="Trazado 224679" d="M387.421,275.6c0-.839-.005-1.631,0-2.423a1.544,1.544,0,1,1,3.082-.028c.01.772.008,1.544.015,2.316,0,.037.033.074.049.108a11.259,11.259,0,0,1,1.448.2,3.553,3.553,0,0,1,2.607,3.489,1.535,1.535,0,0,1-1.39,1.508,1.489,1.489,0,0,1-1.663-1.271c-.066-.674-.4-.809-.978-.791-.814.026-1.63,0-2.445.009a1.557,1.557,0,1,0-.023,3.093,18.077,18.077,0,0,1,2.879.135,4.508,4.508,0,0,1,3.617,4.469,4.614,4.614,0,0,1-3.565,4.534c-.166.041-.33.091-.551.153,0,.8.005,1.615,0,2.425a1.544,1.544,0,1,1-3.081.026c-.008-.809,0-1.618,0-2.413a12.413,12.413,0,0,1-1.514-.212,3.553,3.553,0,0,1-2.6-3.491,1.531,1.531,0,0,1,1.392-1.5,1.487,1.487,0,0,1,1.661,1.273c.065.677.405.805.98.788.836-.024,1.673.006,2.509-.01a1.55,1.55,0,1,0,.019-3.089,19.025,19.025,0,0,1-2.819-.107,4.529,4.529,0,0,1-3.739-4.439,4.6,4.6,0,0,1,3.627-4.61c.145-.036.288-.082.489-.141" transform="translate(-333.876 -236.508)" fill="#12263f"/>
    <path id="Trazado_224680" data-name="Trazado 224680" d="M354.59,73.593a3.869,3.869,0,0,1-.564.955q-4.022,4.075-8.092,8.1a1.55,1.55,0,1,1-2.212-2.172q4.055-4.087,8.14-8.144a1.5,1.5,0,0,1,1.763-.383,1.659,1.659,0,0,1,.964,1.643" transform="translate(-298.974 -62.549)" fill="#12263f"/>
    <path id="Trazado_224681" data-name="Trazado 224681" d="M350.468,77.422a1.541,1.541,0,1,1-1.544-1.536,1.527,1.527,0,0,1,1.544,1.536" transform="translate(-302.593 -66.101)" fill="#12263f"/>
    <path id="Trazado_224682" data-name="Trazado 224682" d="M406.365,133.342a1.541,1.541,0,1,1-1.519-1.561,1.527,1.527,0,0,1,1.519,1.561" transform="translate(-351.282 -114.788)" fill="#12263f"/>
  </g>
</svg>
