<svg id="Grupo_177264" data-name="Grupo 177264" xmlns="http://www.w3.org/2000/svg" xmlns:xlink="http://www.w3.org/1999/xlink" width="62.404" height="64.577" viewBox="0 0 62.404 64.577">
  <defs>
    <clipPath id="clip-path">
      <rect id="Rectángulo_57021" data-name="Rectángulo 57021" width="62.404" height="64.577" fill="#12263f"/>
    </clipPath>
  </defs>
  <g id="Grupo_177264-2" data-name="Grupo 177264" clip-path="url(#clip-path)">
    <path id="Trazado_224683" data-name="Trazado 224683" d="M62.4,149.187c-.249.286-.482.587-.749.855q-3.352,3.364-6.714,6.718c-1.092,1.092-1.374,1.095-2.484.028-.079-.076-.165-.145-.32-.28-.923.928-1.862,1.821-2.737,2.773a14.569,14.569,0,0,0-1.6,2.052c-1.077,1.706-2.1,3.448-3.116,5.191a.789.789,0,0,0-.035.686c1.676,2.419.726,4.9-2.157,5.491a3.4,3.4,0,0,1-3.059,3.047,3.17,3.17,0,0,1-1.28,2.317c-.526.348-1.287.4-1.714.824-.409.4-.423,1.178-.782,1.664a3.17,3.17,0,0,1-4.746.388c-.887-.825-1.718-1.711-2.585-2.559a1.055,1.055,0,0,0-.537-.351,3.342,3.342,0,0,1-3.289-3.054,3.294,3.294,0,0,1-2.968-2.709.675.675,0,0,0-.433-.406,3.307,3.307,0,0,1-2.677-2.965,3.131,3.131,0,0,1-2.661-1.847,8.924,8.924,0,0,1-.484-2.544c-.08-1.025-.019-2.06-.019-3.16-.792.147-1.255-.316-1.728-.807-1.057-1.1-2.14-2.171-3.342-3.384a8.358,8.358,0,0,1-.674.813,1.009,1.009,0,0,1-1.554.025Q4.128,154.2.335,150.372a1.041,1.041,0,0,1-.014-1.516c.1-.121.217-.227.328-.338q5.763-5.764,11.527-11.527c.892-.892,1.351-.888,2.251.012q6.906,6.907,13.811,13.816c.174.174.329.365.5.559,2.5-1.141,4.949-2.25,7.385-3.378a2.372,2.372,0,0,0,.613-.513q5.553-5.545,11.1-11.1c.111-.111.222-.222.336-.331.705-.678,1.192-.674,1.907.023.354.345.7.7,1.049,1.047q5.263,5.264,10.524,10.53c.267.268.5.569.75.854Zm-30.068,8.8c-.929.943-1.777,1.838-2.664,2.695a3.62,3.62,0,0,1-3.725.935,3.74,3.74,0,0,1-1.706-6.163c.878-.953,1.868-1.8,2.649-2.548l-1.428-1.717c-2.628,2.626-5.218,5.212-7.8,7.8a.681.681,0,0,0-.227.387c-.02.887-.011,1.775-.011,2.776.2-.156.3-.23.4-.312a3.23,3.23,0,0,1,5.524,1.7.675.675,0,0,0,.423.4,3.331,3.331,0,0,1,2.7,2.97c1.8.412,2.389.965,2.991,2.768a.618.618,0,0,0,.378.375,3.257,3.257,0,0,1,1.542,5.707c-.441.4-.86.828-1.349,1.3l2.151,2.091c.585.569,1.11.648,1.6.242s.5-.952.047-1.614a1.088,1.088,0,0,1,1.523-1.541c.657.445,1.168.456,1.567.019a1.062,1.062,0,0,0-.02-1.514,1.083,1.083,0,0,1,1.509-1.55c.652.468,1.152.472,1.561.022a1.073,1.073,0,0,0-.016-1.517,1.043,1.043,0,0,1,.033-1.511,1.111,1.111,0,0,1,1.524,0c.183.121.426.317.585.274a2.012,2.012,0,0,0,1.059-.526c.349-.463.149-.971-.263-1.381q-2.458-2.448-4.907-4.906c-1.855-1.858-3.708-3.717-5.643-5.656M2.744,149.611l5.9,5.917,10.553-10.555-5.906-5.906L2.744,149.611m46.432-11.252-5.957,5.956,10.447,10.445L59.64,148.8,49.176,138.359m-9.232,15.031c-.972-.963-1.929-1.877-2.84-2.833a.727.727,0,0,0-.991-.153c-2.17,1.007-4.354,1.983-6.528,2.981a2.374,2.374,0,0,0-.661.442q-1.467,1.434-2.9,2.9a1.615,1.615,0,1,0,2.3,2.237c1-.993,2-2,3-3,.774-.771,1.151-.785,2.01-.083a3.17,3.17,0,0,0,4.186-.051c.824-.756,1.583-1.584,2.434-2.443m10.505,1.573-8.975-8.971-2.833,2.817,8.972,8.978,2.835-2.824m-35.726,3.6,9-8.978L20.958,146.8l-8.993,9,2.758,2.759m21.6.188,6.538,6.535c.893-1.491,1.813-3.028,2.735-4.563.618-1.029.618-1.028-.239-1.887l-3.848-3.855c-1.665,1.445-2.847,3.435-5.186,3.771m-8.474,17.084c.108-.035.324-.042.44-.153a25.022,25.022,0,0,0,1.925-1.965.8.8,0,0,0-.189-1.2c-.33-.2-.965-.349-1.2-.171a10.44,10.44,0,0,0-1.983,1.98c-.456.608.167,1.516,1,1.5m-9.381-9.089c.263-.071.429-.066.514-.146a25.174,25.174,0,0,0,2.116-2.112.87.87,0,0,0-.293-1.193.941.941,0,0,0-1.291-.022,13.106,13.106,0,0,0-1.693,1.716,1.319,1.319,0,0,0-.1,1.1c.111.293.524.472.751.659m5.806.175c-.113-.145-.281-.56-.57-.677a1.31,1.31,0,0,0-1.1.071,10.023,10.023,0,0,0-1.749,1.743,1.249,1.249,0,0,0-.068,1.094,1.27,1.27,0,0,0,.9.534c.658.078,2.584-1.879,2.593-2.766m3.027,3.041c-.12-.149-.293-.563-.583-.675a1.319,1.319,0,0,0-1.1.1,9.536,9.536,0,0,0-1.707,1.706,1.04,1.04,0,0,0,.813,1.661c.659.084,2.586-1.908,2.576-2.788" transform="translate(0 -117.251)" fill="#12263f"/>
    <path id="Trazado_224684" data-name="Trazado 224684" d="M148.976,0c.841.216,1.7.388,2.521.657a11.7,11.7,0,0,1,5.391,3.757,1.379,1.379,0,0,0,.806.46,5.972,5.972,0,0,1,2.9,1.327.857.857,0,0,0,1.12.021,10.389,10.389,0,0,1,2.572-1.23,4.036,4.036,0,0,1,4.376,2.055,3.96,3.96,0,0,1-.541,4.741c-2.011,2.083-4.076,4.114-6.133,6.153a1.058,1.058,0,0,1-1.707-.036c-.52-.519-1-1.082-1.567-1.709l-.371.763a12,12,0,0,1-5.286,5.468,2.7,2.7,0,0,0-.917.825c-1.169,1.7-2.3,3.429-3.447,5.142-.66.983-1.461.984-2.121,0-1.138-1.694-2.25-3.405-3.411-5.083a2.977,2.977,0,0,0-1.01-.916A11.882,11.882,0,0,1,145.506.173c.26-.05.517-.115.775-.172Zm12.212,15.7c1.727-1.737,3.425-3.434,5.109-5.145a1.906,1.906,0,0,0,.285-2.713,2.128,2.128,0,0,0-2.852-.375c-.587.373-1.172.75-1.735,1.157a1.285,1.285,0,0,1-1.666.01c-.639-.455-1.288-.9-1.966-1.295a2.1,2.1,0,0,0-2.623.494,1.83,1.83,0,0,0,.083,2.512c1.74,1.781,3.522,3.521,5.366,5.355m-13.558,5.789c1.139-2.8,2.792-5.39,2.96-8.52h-5.933c.2,3.139,1.825,5.73,2.973,8.52M150.6,10.746c-.212-3.141-1.821-5.738-2.977-8.52-1.144,2.79-2.775,5.382-2.971,8.52ZM138.1,12.964c.039,3.6,3.533,7.6,6.9,8.09-1.123-2.625-2.424-5.172-2.525-8.09Zm-.029-2.231h4.42c.082-2.952,1.434-5.479,2.524-8.139-3.552.763-6.912,4.726-6.944,8.139M150.2,21.214a9.747,9.747,0,0,0,6.221-5.3c.6-1.268.6-1.279-.393-2.243-.28-.272-.59-.651-.926-.7a16.752,16.752,0,0,0-2.323-.033c-.1,2.977-1.418,5.515-2.579,8.277m.014-18.683c1.15,2.742,2.476,5.3,2.571,8.263l.661-.063a4.254,4.254,0,0,1,1.542-5.157,9.493,9.493,0,0,0-4.774-3.043m-2.58,23.53,1.567-2.367h-3.15l1.583,2.367" transform="translate(-117.427 -0.001)" fill="#12263f"/>
  </g>
</svg>
