<svg id="Grupo_177265" data-name="Grupo 177265" xmlns="http://www.w3.org/2000/svg" xmlns:xlink="http://www.w3.org/1999/xlink" width="53" height="53" viewBox="0 0 53 53">
  <defs>
    <clipPath id="clip-path">
      <rect id="Rectángulo_57022" data-name="Rectángulo 57022" width="53" height="53" fill="#12263f"/>
    </clipPath>
  </defs>
  <g id="Grupo_177265-2" data-name="Grupo 177265" clip-path="url(#clip-path)">
    <path id="Trazado_224685" data-name="Trazado 224685" d="M50.88,53H2.12A3.3,3.3,0,0,1,0,50.881V33.921a3.088,3.088,0,0,1,3.47-2.148,4.993,4.993,0,0,0,.063-.526c0-6.232.012-12.463-.017-18.695,0-.36-.311-.724-.494-1.078a8.279,8.279,0,0,1-1.127-2.23,6.22,6.22,0,0,1,1.324-5.5c.5-.541.772-1.286,1.268-1.827C5.126,1.223,5.887.636,6.6,0H30.622a6.634,6.634,0,0,1,1.446,1.124c1.016,1.384,1.988,2.809,2.866,4.284.978,1.644.423,4.779-.864,6.135a5.771,5.771,0,0,0-.742,1.713c5.633,0,10.947.033,16.261-.02A3.219,3.219,0,0,1,53,15.312V16.49a3.2,3.2,0,0,1-3.439,2.1v29.2A2.945,2.945,0,0,1,53,49.7v1.178A3.3,3.3,0,0,1,50.88,53M35.335,47.619c0-4.132,0-8.208,0-12.285,0-1.676-.13-1.815-1.79-1.815q-15,0-30,0c-1.6,0-1.834.23-1.835,1.831q0,7,0,14c0,1.734.213,1.943,1.968,1.943q13.472,0,26.944,0h1.227c-.126-2.479.584-3.21,3.49-3.676m1.835-29a2.753,2.753,0,0,0-.105.5Q37.055,33,37.042,46.884c0,.788.375.885,1.017.88,2.784-.02,5.569-.061,8.351.017,1.1.031,1.373-.308,1.368-1.381-.042-8.823-.024-17.645-.024-26.468V18.617ZM22.533,24.811A16.17,16.17,0,0,1,25.058,27.9a16.185,16.185,0,0,1,.789,3.824H28.2V11.974a3.9,3.9,0,0,1-4.333-.742,3.811,3.811,0,0,1-5.325.033c-2.049,1.419-3.072,1.419-5.356,0-1.22,1.232-2.736,1.206-4.312.762V31.709h2.705c-.367-2.912.457-5.206,3.209-6.618-.349-.518-.608-.945-.908-1.341a2.682,2.682,0,0,1-.269-2.976,5.968,5.968,0,0,0,.533-1.72,4.418,4.418,0,0,1,4.576-3.99,4.33,4.33,0,0,1,4.2,4.107,3.507,3.507,0,0,0,.438,1.4,2.7,2.7,0,0,1-.2,3.27,11.319,11.319,0,0,0-.627.966m1.262,6.946c0-.819.061-1.56-.012-2.287-.2-1.987-1.876-2.893-3.793-2.427a12.7,12.7,0,0,1-3.385-.152,3.373,3.373,0,0,0-1.509.071c-1.579.762-2.189,2.538-1.738,4.794Zm7.942.011V12.386l-1.669-.37V31.767Zm-24.71-19.7c-1.782.3-1.782.3-1.782,1.954q0,8.165,0,16.33v1.381H7.027ZM42.4,49.463c-2.506,0-5.012.012-7.518-.008-.648,0-1.271.085-1.3.833-.031.8.608,1,1.3,1.005q7.518,0,15.036,0c.7,0,1.332-.211,1.3-1.007-.029-.742-.651-.837-1.3-.832-2.506.02-5.012.008-7.518.008m0-32.69c2.511,0,5.021-.009,7.532.006.646,0,1.267-.09,1.288-.851s-.567-.92-1.229-.919q-7.59.01-15.181,0c-.66,0-1.248.162-1.226.919s.64.854,1.285.85c2.51-.014,5.021-.006,7.532-.006m-8.8,1.644V31.764l1.675.1V18.645l-1.675-.228M16.325,21.49l-.071-.2-1.172.492c.171.4.335.8.516,1.2.144.314.32.614.461.929a2.663,2.663,0,0,0,4.988,0,5.08,5.08,0,0,1,.731-1.141c.556-.689.371-1.415-.517-1.554-1.259-.2-2.532-.858-3.814.025a3.215,3.215,0,0,1-1.122.256M28.175,1.777H24.825v3.5h3.349Zm-8.567,3.38c2.966.759,3.505.36,3.418-2.464A1.656,1.656,0,0,0,23,2.23c-.057-.167-.176-.438-.279-.444a9.5,9.5,0,0,0-2.309.031c-.218.044-.338.769-.432,1.2-.156.71-.255,1.433-.377,2.142m3.384,2H19.428c-.027,1.207-.364,2.462.852,3.133a2.216,2.216,0,0,0,1.827,0c1.221-.66.894-1.921.885-3.135M12.358,7.142H8.839c-.044,1.19-.373,2.439.8,3.123a2.25,2.25,0,0,0,1.919-.009c1.175-.689.837-1.936.8-3.114M30.031,7.1c-.047,1.25-.378,2.537.9,3.2a2.227,2.227,0,0,0,1.912-.1c1.111-.742.786-1.958.7-3.1ZM14.474,5.259h3.347l.592-3.546c-.85,0-1.582-.032-2.308.021a.807.807,0,0,0-.564.436c-.371.969-.685,1.961-1.068,3.089M24.752,7.107c.038,1.247-.439,2.582.919,3.237a2.218,2.218,0,0,0,1.834-.113c1.183-.74.711-1.983.715-3.124Zm-10.635,0c.109,1.239-.416,2.585.957,3.234A2.22,2.22,0,0,0,16.9,10.23c1.174-.74.727-1.976.709-3.121Zm-7.1.028H3.611c-.234,2.43.232,3.407,1.608,3.462,1.427.057,1.955-.924,1.8-3.462m6.853-5.63c-1.173.237-2.312.132-2.819.648a12.708,12.708,0,0,0-1.7,3.192c1.043,0,1.892.026,2.739-.018a.818.818,0,0,0,.617-.376c.381-1.006.7-2.037,1.165-3.446M4.395,5.35c.912,0,1.65.043,2.378-.021a1.187,1.187,0,0,0,.833-.453c.551-.968,1.018-1.985,1.536-3.026C6.4,1.518,6.767,1.392,4.395,5.35M16.105,19.808c.573-.267,1.13-.577,1.723-.785a2.731,2.731,0,0,1,1.317-.192,14.243,14.243,0,0,1,2,.672,2.677,2.677,0,0,0-2.612-2.685c-1.4.014-2.37.978-2.428,2.99M32.816,5.276,30.4,1.741l-.359.188c-.022.332-.061.664-.064,1-.028,2.562-.026,2.562,2.839,2.351" transform="translate(0 -0.001)" fill="#12263f"/>
    <path id="Trazado_224686" data-name="Trazado 224686" d="M67.393,152.741a1.9,1.9,0,0,0-1.838,1.578,1.791,1.791,0,0,0,1.334,1.951c.417.1.855.11,1.272.209a3.286,3.286,0,0,1,2.629,2.944,3.371,3.371,0,0,1-1.61,3.408c-.667.452-1.377,1.256-2.022,1.213-.686-.046-1.441-.807-1.942-1.434a9.047,9.047,0,0,1-1.318-2.5c-.088-.237.4-.685.617-1.037.336.278.861.5.974.846.456,1.419,1.36,2.063,2.466,1.594a1.669,1.669,0,0,0,1.107-1.863,1.6,1.6,0,0,0-1.4-1.506c-.383-.08-.778-.108-1.158-.2a3.324,3.324,0,0,1-2.61-2.71,3.443,3.443,0,0,1,1.586-3.642,1.236,1.236,0,0,1,.412-.219c.743-.1.939-1.774,1.776-.958,1.087,1.059,2.868,1.557,3.084,3.432.076.659.231,1.328-.625,1.5-.78.153-.974-.431-1.07-1.074a1.808,1.808,0,0,0-1.663-1.526" transform="translate(-48.784 -114.813)" fill="#12263f"/>
    <path id="Trazado_224687" data-name="Trazado 224687" d="M168.583,93.213c-3.483,0-3.572-.09-3.572-3.632,0-3.144.266-3.413,3.371-3.413,3.53,0,3.689.159,3.689,3.683,0,.352,0,.7,0,1.055-.01,1.735-.575,2.3-2.315,2.307-.391,0-.782,0-1.173,0m-1.742-1.74h3.433V88.035h-3.433Z" transform="translate(-126.142 -65.871)" fill="#12263f"/>
    <path id="Trazado_224688" data-name="Trazado 224688" d="M171.625,125.527a8.336,8.336,0,0,1-1.753-.034c-.327-.072-.579-.481-.865-.739.285-.3.55-.828.859-.855a21.288,21.288,0,0,1,3.514,0,1.108,1.108,0,0,1,.753.793c0,.276-.44.72-.756.795a7.782,7.782,0,0,1-1.751.037Z" transform="translate(-129.196 -94.658)" fill="#12263f"/>
    <path id="Trazado_224689" data-name="Trazado 224689" d="M171.6,140.512a6.734,6.734,0,0,1-1.635-.033c-.363-.093-.644-.5-.962-.767.293-.291.565-.8.882-.834a18.846,18.846,0,0,1,3.4,0c.323.029.6.533.9.819-.314.272-.59.687-.951.782a6.589,6.589,0,0,1-1.634.034" transform="translate(-129.192 -106.106)" fill="#12263f"/>
    <path id="Trazado_224690" data-name="Trazado 224690" d="M171.761,155.557a8,8,0,0,1-1.751-.037c-.318-.073-.76-.5-.766-.78a1.1,1.1,0,0,1,.732-.8,24.229,24.229,0,0,1,3.631,0,1.094,1.094,0,0,1,.7.828c-.014.275-.471.681-.8.753a8.175,8.175,0,0,1-1.752.034" transform="translate(-129.377 -117.627)" fill="#12263f"/>
    <path id="Trazado_224691" data-name="Trazado 224691" d="M171.821,168.887a7.567,7.567,0,0,1,1.75.039,1.2,1.2,0,0,1,.714.837c.032.221-.42.723-.678.738a29.621,29.621,0,0,1-3.749-.006c-.25-.016-.69-.541-.65-.759a1.208,1.208,0,0,1,.744-.812,9.028,9.028,0,0,1,1.869-.037" transform="translate(-129.349 -129.08)" fill="#12263f"/>
  </g>
</svg>
