<svg id="Grupo_177266" data-name="Grupo 177266" xmlns="http://www.w3.org/2000/svg" xmlns:xlink="http://www.w3.org/1999/xlink" width="62.322" height="57.393" viewBox="0 0 62.322 57.393">
  <defs>
    <clipPath id="clip-path">
      <rect id="Rectángulo_57023" data-name="Rectángulo 57023" width="62.322" height="57.393" fill="#12263f"/>
    </clipPath>
  </defs>
  <g id="Grupo_177266-2" data-name="Grupo 177266" transform="translate(0 0)" clip-path="url(#clip-path)">
    <path id="Trazado_224692" data-name="Trazado 224692" d="M41.863,16.02C37.09,12.363,35.479,8.707,36.735,4.9A7.667,7.667,0,0,1,44.028,0a7.433,7.433,0,0,1,7.194,4.984c1.289,3.707-.3,7.364-5.055,10.97,1.22.19,2.1.382,2.986.457a9.752,9.752,0,0,1,9.407,8.9c.509,3.793,1.018,7.589,1.371,11.4.061.654-.66,1.382-1.02,2.076-.437-.586-1.168-1.13-1.262-1.767-.488-3.343-.919-6.7-1.173-10.071-.4-5.283-2.927-8.07-8.186-8.339a63.651,63.651,0,0,0-9.876.168c-3.984.419-6.163,2.814-6.68,6.8-.481,3.709-.795,7.439-1.318,11.141-.1.729-.827,1.37-1.264,2.052-.341-.786-1.023-1.6-.967-2.354.278-3.726.628-7.457,1.185-11.15.849-5.62,3.991-8.393,9.671-8.855.785-.064,1.564-.214,2.82-.39m2.13-13.6C40.878,2.4,38.762,4.3,38.714,7.174c-.054,3.187,2.525,6.477,5.139,6.553,2.568.076,5.393-3.155,5.49-6.28.091-2.918-2.132-5.009-5.35-5.031" transform="translate(-12.98 0)" fill="#12263f"/>
    <path id="Trazado_224693" data-name="Trazado 224693" d="M39.039,83.036c2.43-4.176-.078-7.477-3.865-10.472-1.23-.973-.985-2.033.738-2.359a2.513,2.513,0,0,1,.533-.032c4.612.121,7.709-1.816,8.991-6.42.179-.641.982-1.108,1.5-1.655.539.512,1.082,1.022,1.615,1.541a.544.544,0,0,1,.1.245c1.181,4.345,4.067,6.3,8.518,6.263.745-.006,1.5.632,2.243.973-.36.662-.552,1.568-1.106,1.947-3.754,2.571-4.96,5.864-3.385,10.212.253.7-.181,1.647-.3,2.48-.817-.195-1.835-.144-2.418-.623-3.693-3.033-7.179-2.248-10.761.21-1.543,1.058-2.759.933-2.4-2.31m13.422-.385c-1.861-4.453-.444-7.637,3.387-10.238-2.389-.532-4.525-.474-5.9-1.467-1.347-.973-1.919-3.018-3.224-5.271-1.05,4.782-3.841,6.8-8.487,6.7,4.148,2.56,4.826,5.914,3.3,10.206,3.711-2.67,7.171-3.08,10.921.069" transform="translate(-15.846 -28.6)" fill="#12263f"/>
    <path id="Trazado_224694" data-name="Trazado 224694" d="M3.282,88.655a4.644,4.644,0,0,1,.151-1.322c1.112-2.6-.006-4.359-1.976-5.972A8.656,8.656,0,0,1,0,79.039a8,8,0,0,1,2.558-1.007,5.051,5.051,0,0,0,5.253-3.9c.257-.791,1.178-1.366,1.795-2.041.559.629,1.4,1.171,1.626,1.9.879,2.891,2.8,4.034,5.707,4.076.762.011,1.514.662,2.271,1.019-.433.723-.7,1.685-1.329,2.126-2.562,1.794-3.017,4.067-2.1,6.9a5.62,5.62,0,0,1-.247,2.188c-.733-.119-1.651,0-2.168-.4-2.643-2.039-5.1-1.741-7.7.1-1.391.98-2.593.867-2.378-1.353m9.75-2.41c-.854-2.115.118-4.2,2.382-6.11-3.523.6-4.672-1.731-6.135-4.9-.437,3.932-2.67,4.756-6.053,5.045,3.2,1.739,3.546,4.031,2.873,5.962Z" transform="translate(0 -33.202)" fill="#12263f"/>
    <path id="Trazado_224695" data-name="Trazado 224695" d="M83.115,88.782c.067-.258.121-.52.208-.772.965-2.823.372-5.093-2.172-6.864-.613-.427-.84-1.408-1.245-2.135a7.281,7.281,0,0,1,2.334-.936c2.774-.06,4.643-1.125,5.543-3.887.261-.8,1.165-1.389,1.774-2.075.6.7,1.529,1.306,1.758,2.111.823,2.895,2.818,3.76,5.553,3.858A6.784,6.784,0,0,1,99.124,79.1c-.361.665-.559,1.55-1.11,1.955-2.418,1.78-3.395,3.89-2.329,6.871.245.687-.211,1.626-.345,2.449-.741-.166-1.661-.109-2.192-.536-2.585-2.084-4.944-1.435-7.49.13-1.812,1.115-2.659.593-2.542-1.182m-.127-8.729c3.141,1.97,3.746,4.2,2.627,7.6,2.8-2.32,5.067-2.294,7.523-.54-1.021-2.9-.3-5.064,2.242-6.881-3.223.238-4.8-1.449-5.895-4.786-.9,3.482-2.752,4.83-6.5,4.6" transform="translate(-36.801 -33.212)" fill="#12263f"/>
    <path id="Trazado_224696" data-name="Trazado 224696" d="M73.007,57.474a3.735,3.735,0,0,1-.029,1.325A13.137,13.137,0,0,1,71.9,60.6c-.375-.522-1.021-1.015-1.082-1.571-.356-3.275-.638-6.562-.782-9.852-.025-.569.727-1.171,1.12-1.758.413.6,1.119,1.158,1.188,1.791.3,2.744.409,5.508.589,8.265l.07,0" transform="translate(-32.257 -21.84)" fill="#12263f"/>
    <path id="Trazado_224697" data-name="Trazado 224697" d="M39.558,54.933c.177-2.024.282-4.058.58-6.064.078-.522.757-.956,1.16-1.43.332.534.962,1.077.946,1.6-.1,3.354-.29,6.709-.611,10.048-.052.543-.915,1.008-1.4,1.509-.311-.565-.871-1.124-.882-1.695a33.335,33.335,0,0,1,.349-3.954l-.139-.013" transform="translate(-18.121 -21.848)" fill="#12263f"/>
  </g>
</svg>
