<svg xmlns="http://www.w3.org/2000/svg" xmlns:xlink="http://www.w3.org/1999/xlink" width="112" height="112" viewBox="0 0 112 112">
  <defs>
    <clipPath id="clip-path">
      <rect id="Rectángulo_57570" data-name="Rectángulo 57570" width="60.598" height="66.443" fill="#fff"/>
    </clipPath>
  </defs>
  <g id="Grupo_179504" data-name="Grupo 179504" transform="translate(-1104.05 -6952.854)">
    <circle id="Elipse_5466" data-name="Elipse 5466" cx="56" cy="56" r="56" transform="translate(1104.05 6952.854)" fill="#12263f"/>
    <g id="Grupo_179364" data-name="Grupo 179364" transform="translate(1129.751 6976.859)">
      <g id="Grupo_179363" data-name="Grupo 179363" clip-path="url(#clip-path)">
        <path id="Trazado_228275" data-name="Trazado 228275" d="M17.725,66.443a20.119,20.119,0,0,1-2.951-.908,9.53,9.53,0,0,1-5.737-8.773c-.032-.777-.014-1.557,0-2.335a.976.976,0,0,1,.939-1.094c.593-.017.98.405,1,1.1a32.226,32.226,0,0,0,.131,3.493,7.717,7.717,0,0,0,7.5,6.557q14.271.046,28.542,0a7.775,7.775,0,0,0,7.576-7.214c.024-.345.035-.691.035-1.037q0-13.852,0-27.7v-.689l-.207-.135c-.547.595-1.117,1.17-1.624,1.8a1.307,1.307,0,0,0-.111.745q-.007,12.976,0,25.952a5.8,5.8,0,0,1-3.018,5.553,6.1,6.1,0,0,1-2.764.764q-14.173.082-28.347.022a5.823,5.823,0,0,1-5.767-5.95q-.019-12.976,0-25.952c0-1.31-.015-1.324-1.356-1.315-.169,0-.339,0-.59,0V49.582c0,.151,0,.3,0,.454,0,.866-.347,1.337-.973,1.338s-.972-.468-.972-1.335q0-9.926,0-19.853V29.32c-.976,0-1.918-.01-2.859,0a5.924,5.924,0,0,1-4.317-1.61A5.812,5.812,0,0,1,.011,23.3c0-3.46-.03-6.921.008-10.38A5.841,5.841,0,0,1,6.113,6.9c.951-.006,1.9-.014,2.854.006a.581.581,0,0,0,.66-.439,9.716,9.716,0,0,1,9.4-6.459Q32.911,0,46.792.006a9.671,9.671,0,0,1,9.875,9.578,3.849,3.849,0,0,0,1.466,3.373,7.078,7.078,0,0,1,2.4,6.6,1.009,1.009,0,0,1-1.03,1.027.966.966,0,0,1-.9-1.18,5.947,5.947,0,0,0-1-4.191,5.835,5.835,0,0,0-8.851-.854c-1,.956-1.236.956-2.242,0a5.835,5.835,0,0,0-8.048-.077,5.627,5.627,0,0,0-.571,7.849c3.157,3.345,6.551,6.467,9.878,9.717.032-.03.19-.172.34-.321q4.427-4.426,8.853-8.854c.076-.076.148-.159.229-.229a.972.972,0,0,1,1.346-.011.921.921,0,0,1,.043,1.339,16.147,16.147,0,0,1-1.366,1.384A1.5,1.5,0,0,0,56.7,26.4c.014,9.97,0,19.94.015,29.909a9.783,9.783,0,0,1-3.8,8.079,9.463,9.463,0,0,1-4.4,1.927,3.336,3.336,0,0,0-.421.128ZM47.488,12.6c1.075-.529,2.061-1,3.031-1.505a.687.687,0,0,0,.336-.448c.285-2.91-1.457-4.808-4.392-4.808H19.283a7.081,7.081,0,0,0-.778.013A3.653,3.653,0,0,0,16.193,6.9h.863c2.184,0,4.368-.021,6.552.006a5.829,5.829,0,0,1,5.931,5.979c.015,3.568.025,7.137-.008,10.705a5.75,5.75,0,0,1-4.881,5.627c-.629.1-1.272.109-1.974.166,0,.943.036,1.849-.008,2.752a3.087,3.087,0,0,1-3.008,2.913,3.16,3.16,0,0,1-2.431-1.025c-.75-.756-1.506-1.505-2.322-2.319v5.112h9.815c2.008,0,2.81-.648,3.253-2.6.52-2.3,1.037-4.592,1.582-6.881a3.39,3.39,0,0,1,5.092-2.285,4.484,4.484,0,0,1,2.373,3.525,14.686,14.686,0,0,1-.306,3.452c-.252,1.572-.6,3.127-.93,4.789h.769c1.751.005,3.5-.026,5.254.028a3.206,3.206,0,0,1,3.176,2.792,12.22,12.22,0,0,1-.22,2.593A3.347,3.347,0,0,1,46.4,45.179,3.513,3.513,0,0,1,44.58,48.23c1.115,2.446.42,4-2.315,5.3.617,2.647-1.235,4.174-3.668,4.139-7.588-.111-15.179-.041-22.769-.041h-.8a2.461,2.461,0,0,0,.058.3,3.116,3.116,0,0,0,.168.421,3.941,3.941,0,0,0,3.781,2.255q13.785-.006,27.57,0a3.942,3.942,0,0,0,4.258-4.242q.013-12.035,0-24.071c0-.2-.025-.391-.049-.748-.838.851-1.545,1.578-2.262,2.295s-1.146.7-1.862-.017q-2.389-2.382-4.771-4.77c-1.77-1.777-3.587-3.511-5.291-5.35a7.687,7.687,0,0,1-1.022-8.875,7.784,7.784,0,0,1,8.019-3.96A7.916,7.916,0,0,1,47.488,12.6M14.814,8.844c-2.9,0-5.794-.006-8.691,0a3.9,3.9,0,0,0-4.159,4.072q-.04,5.189,0,10.379a3.9,3.9,0,0,0,4.151,4.076c2.162,0,4.324.012,6.486-.007a1.624,1.624,0,0,1,1.262.523c1.548,1.571,3.118,3.119,4.671,4.685a1.231,1.231,0,0,0,2.217-.919c-.015-.994-.009-1.989,0-2.984.007-.974.321-1.29,1.274-1.3.454,0,.908,0,1.362,0A3.92,3.92,0,0,0,27.6,23.166q.006-5.027,0-10.055A3.934,3.934,0,0,0,23.31,8.845q-4.248,0-8.5,0M26.284,55.658c.2.012.308.024.414.024q6.224,0,12.448,0c.779,0,1.234-.358,1.286-.983s-.325-1.042-1.094-1.2c-.637-.127-.986-.5-.948-1.025a1,1,0,0,1,1.073-.909c.648-.02,1.3,0,1.945-.009a1.563,1.563,0,0,0,1.727-1.391c.06-.8-.491-1.395-1.47-1.576-.682-.127-1.025-.5-.973-1.062.049-.534.435-.852,1.09-.88.345-.015.692,0,1.037-.008a1.487,1.487,0,1,0,.029-2.961c-.216-.009-.432,0-.648,0-1.01,0-1.432-.242-1.507-.857s.261-.912,1.262-1.14a1.461,1.461,0,0,0-.067-2.879,4.957,4.957,0,0,0-.776-.04q-3.015,0-6.029,0c-1.294,0-1.6-.4-1.342-1.693.478-2.392.976-4.78,1.4-7.181A2.978,2.978,0,0,0,33.786,26.8a1.443,1.443,0,0,0-2.3.845c-.053.187-.09.378-.134.567-.526,2.293-1.046,4.587-1.58,6.877a4.388,4.388,0,0,1-2.914,3.37c-.5.174-.584.41-.582.878.016,5.209.01,10.418.01,15.627Zm-11.37-.03h9.38V38.794h-9.38ZM11.557,6.9c.57,0,1.026-.034,1.474.009a.972.972,0,0,0,.991-.522A5.55,5.55,0,0,1,17.74,4.009,7.127,7.127,0,0,1,18.963,3.9q13.878-.009,27.756,0a5.865,5.865,0,0,1,6.091,5.9c.011.313,0,.627,0,.927l1.923.222c0-.591.029-1.129,0-1.662A7.789,7.789,0,0,0,47,1.957q-14.105-.029-28.21,0a7.646,7.646,0,0,0-5.2,2.013,7.245,7.245,0,0,0-2.03,2.93" transform="translate(0 0)" fill="#fff"/>
        <path id="Trazado_228280" data-name="Trazado 228280" d="M44.3,88.795q2.82,0,5.64,0c.777,0,1.2.338,1.214.944s-.419,1-1.172,1c-3.781.006-7.563,0-11.344,0-.492,0-.962-.118-1.086-.621a1.284,1.284,0,0,1,.189-1,1.328,1.328,0,0,1,.921-.318c1.879-.028,3.76-.014,5.639-.014" transform="translate(-32.641 -77.247)" fill="#fff"/>
        <path id="Trazado_228281" data-name="Trazado 228281" d="M43.837,121.658c1.858,0,3.716,0,5.574,0,.82,0,1.251.354,1.238.987-.013.6-.445.955-1.214.956q-5.639.006-11.278,0c-.753,0-1.207-.373-1.215-.966s.434-.974,1.191-.976c1.9-.006,3.8,0,5.7,0" transform="translate(-32.138 -105.839)" fill="#fff"/>
        <path id="Trazado_228282" data-name="Trazado 228282" d="M43.768,154.528c1.88,0,3.759,0,5.639,0,.784,0,1.2.337,1.213.944s-.415,1-1.174,1q-5.671.01-11.342,0c-.9,0-1.418-.657-1.1-1.368a1.018,1.018,0,0,1,1.063-.577c1.9.007,3.8,0,5.7,0" transform="translate(-32.109 -134.434)" fill="#fff"/>
      </g>
    </g>
  </g>
</svg>
