<svg xmlns="http://www.w3.org/2000/svg" xmlns:xlink="http://www.w3.org/1999/xlink" width="170.484" height="170.484" viewBox="0 0 170.484 170.484">
  <defs>
    <linearGradient id="linear-gradient" x1="0.5" x2="0.5" y2="1" gradientUnits="objectBoundingBox">
      <stop offset="0" stop-color="#fdbe41"/>
      <stop offset="1" stop-color="#d09f40"/>
    </linearGradient>
    <filter id="Trazado_150707" x="0" y="0" width="170.484" height="170.484" filterUnits="userSpaceOnUse">
      <feOffset dx="5" dy="5" input="SourceAlpha"/>
      <feGaussianBlur stdDeviation="12.5" result="blur"/>
      <feFlood flood-opacity="0.161"/>
      <feComposite operator="in" in2="blur"/>
      <feComposite in="SourceGraphic"/>
    </filter>
    <clipPath id="clip-path">
      <rect id="Rectángulo_57537" data-name="Rectángulo 57537" width="57.522" height="56.583" fill="none"/>
    </clipPath>
    <linearGradient id="linear-gradient-2" x1="0.5" x2="0.5" y2="1" gradientUnits="objectBoundingBox">
      <stop offset="0" stop-color="#f5f5f5"/>
      <stop offset="0.25" stop-color="#f5f5f5"/>
      <stop offset="1" stop-color="#a7b3cf"/>
    </linearGradient>
    <linearGradient id="linear-gradient-3" x1="0.5" x2="0.5" y2="1" gradientUnits="objectBoundingBox">
      <stop offset="0" stop-color="#278d7e"/>
      <stop offset="1" stop-color="#4fc1b1"/>
    </linearGradient>
  </defs>
  <g id="Grupo_169376" data-name="Grupo 169376" transform="translate(19.579 19.578)">
    <path id="Trazado_150705" data-name="Trazado 150705" d="M121.116,55.633A60.661,60.661,0,1,1,55.633.212a60.661,60.661,0,0,1,65.483,55.42" transform="translate(0 121.328) rotate(-90)" fill="#60a2d8"/>
    <path id="Trazado_150706" data-name="Trazado 150706" d="M121.116,55.633A60.661,60.661,0,1,1,55.633.212a60.661,60.661,0,0,1,65.483,55.42" transform="translate(0 121.328) rotate(-90)" fill="url(#linear-gradient)"/>
    <g transform="matrix(1, 0, 0, 1, -19.58, -19.58)" filter="url(#Trazado_150707)">
      <path id="Trazado_150707-2" data-name="Trazado 150707" d="M95.3,43.6A47.739,47.739,0,1,1,43.6.183,47.739,47.739,0,0,1,95.3,43.6" transform="translate(32.5 127.98) rotate(-90)" fill="#fff"/>
    </g>
    <g id="Grupo_179355" data-name="Grupo 179355" transform="translate(31.902 31.091)">
      <g id="Grupo_179354" data-name="Grupo 179354" clip-path="url(#clip-path)">
        <path id="Trazado_228223" data-name="Trazado 228223" d="M10.729,0H45.854a1.22,1.22,0,0,0,.194.113,2.836,2.836,0,0,1,2.044,2.9c0,.962,0,1.924,0,2.886V8.61a2.837,2.837,0,0,1,3.393,1.335.727.727,0,0,0,.775.434c.47-.027.942-.006,1.413-.006h2.861v1.886c-1.495,0-2.946-.006-4.4.008-.17,0-.433.06-.494.176a2.923,2.923,0,0,1-3.51,1.6v2.892a1.188,1.188,0,0,0,1.452-.626,2.761,2.761,0,0,1,4.737.258.671.671,0,0,0,.724.42c.5-.03,1-.008,1.5-.008v1.886c-.474,0-.922.022-1.367-.006a.845.845,0,0,0-.916.5,2.75,2.75,0,0,1-4.7.142,1.178,1.178,0,0,0-1.442-.595V35.831a7.908,7.908,0,0,0,.842,0,1.259,1.259,0,0,1,1.418.879c.3.682.673,1.329.988,2a.534.534,0,0,0,.625.373c.761-.079,1.529-.084,2.29-.164a1.275,1.275,0,0,1,1.39.737c.586,1.059,1.227,2.088,1.845,3.13v.707c-.569.832-1.145,1.659-1.7,2.5a.468.468,0,0,0,0,.419c.553.842,1.129,1.67,1.7,2.5v.707c-.628,1.059-1.271,2.109-1.877,3.181a1.227,1.227,0,0,1-1.3.687c-.762-.07-1.53-.082-2.291-.16a.566.566,0,0,0-.682.373c-.315.7-.7,1.36-1.013,2.058a1.285,1.285,0,0,1-1.338.824q-18.709-.018-37.417-.01A2.849,2.849,0,0,1,8.49,53.46q0-6.6,0-13.2V39.6c-2.1,0-4.119.006-6.139,0A2.216,2.216,0,0,1,.006,37.279q-.012-5.215,0-10.429a2.215,2.215,0,0,1,2.332-2.332c1.827-.009,3.653,0,5.48,0H8.49v-.764q0-10.282,0-20.564a4.766,4.766,0,0,1,.068-.936A3.026,3.026,0,0,1,10.729,0M38.651,40.553a10.947,10.947,0,0,0,.6-.928,1.238,1.238,0,0,1,1.336-.741c.723.067,1.454.056,2.174.145a.744.744,0,0,0,.89-.537c.3-.682.666-1.333.991-2a1.057,1.057,0,0,1,1.063-.683,3.305,3.305,0,0,0,.437-.036V18.91h-1.8c0,.533.011,1.038,0,1.543a2.2,2.2,0,0,1-2.173,2.191q-5.392.025-10.784,0a2.149,2.149,0,0,1-2.165-2.178q-.019-5.363,0-10.725a2.193,2.193,0,0,1,2.205-2.216q5.363-.019,10.726,0A2.211,2.211,0,0,1,44.341,9.7c.007.206,0,.413,0,.6h1.809V5.718H10.44V24.494c.845,0,1.648-.01,2.451,0a2.218,2.218,0,0,1,2.164,1.743,4.13,4.13,0,0,1,.055.878c.005,1.309,0,2.618,0,3.936h3.22l-.985-1.035,1.232-1.459c.986.971,1.95,1.894,2.879,2.849a.866.866,0,0,1,.017,1.277c-.937.974-1.915,1.909-2.875,2.859L17.132,34.1l1.2-.936-.093-.1H15.173a.586.586,0,0,0-.049.142c-.005,1.355,0,2.71-.012,4.066a2.24,2.24,0,0,1-2.371,2.355c-.761,0-1.522,0-2.307,0v7.5h.729c8.938,0,17.876-.009,26.814.02a1,1,0,0,0,1.086-.737c.073-.22-.118-.547-.236-.8-.1-.229-.3-.415-.409-.644a1.052,1.052,0,0,0-1.169-.634c-1.09.049-2.184.014-3.285.014V42.409c1.112,0,2.188.01,3.263-.01a.726.726,0,0,0,.534-.22c.333-.527.609-1.091.906-1.641ZM10.391,49.069c0,1.436,0,2.808,0,4.181,0,1.168.253,1.424,1.406,1.424H44.022a6.519,6.519,0,0,1-.374-.769c-.153-.474-.435-.6-.929-.539a15.523,15.523,0,0,1-2.29.126,1.238,1.238,0,0,1-.916-.378,23.5,23.5,0,0,1-2.227-4.045Zm36.942,5.572a4.3,4.3,0,0,1,.56,0,.983.983,0,0,0,1.2-.724c.26-.653.626-1.262.932-1.9a1.068,1.068,0,0,1,1.117-.684c.841.053,1.684.073,2.524.131a.652.652,0,0,0,.7-.39c.308-.59.893-1.168.89-1.748,0-.548-.6-1.1-.958-1.639-.978-1.489-.978-1.484.007-2.99.352-.539.95-1.093.95-1.64,0-.581-.545-1.183-.917-1.733a.971.971,0,0,0-.689-.369,23.008,23.008,0,0,0-2.348.11,1.245,1.245,0,0,1-1.373-.853c-.295-.661-.654-1.294-.958-1.951a.718.718,0,0,0-.8-.51,7.831,7.831,0,0,1-1.353,0,.755.755,0,0,0-.859.515c-.307.7-.687,1.365-1.013,2.056a1.137,1.137,0,0,1-1.206.74c-.841-.057-1.683-.11-2.525-.111a.843.843,0,0,0-.6.329c-1.131,1.7-1.123,1.706-.012,3.382l.034.048c.983,1.484.979,1.481-.006,2.986-.353.539-.937,1.088-.949,1.642s.57,1.121.865,1.7a.69.69,0,0,0,.745.429c.84-.06,1.683-.081,2.525-.131a1.046,1.046,0,0,1,1.083.647,16.558,16.558,0,0,1,.75,1.53c.325.881.815,1.412,1.685,1.125M10.393,3.713H46.164c.107-1.579-.106-1.812-1.62-1.812H11.92c-.2,0-.394-.01-.589,0a.934.934,0,0,0-.934.942c-.018.273,0,.548,0,.865m26.345,9.581a1.85,1.85,0,0,0-1.767,1.786,1.807,1.807,0,1,0,3.614-.015,1.85,1.85,0,0,0-1.847-1.771m9.417-.982H44.373v4.607h1.782Zm2.875-1.85a.856.856,0,1,0,.822.832.851.851,0,0,0-.822-.832m2.019,7.426a.818.818,0,1,0,.829-.826.856.856,0,0,0-.829.826" transform="translate(0)"/>
        <path id="Trazado_228224" data-name="Trazado 228224" d="M116.565,83.228c-.3.55-.573,1.114-.906,1.641a.726.726,0,0,1-.534.22c-1.076.02-2.152.01-3.263.01V87.03c1.1,0,2.2.034,3.285-.014a1.052,1.052,0,0,1,1.169.633c.1.229.3.415.409.645.118.257.308.584.236.8a1,1,0,0,1-1.086.737c-8.938-.029-17.876-.02-26.814-.02h-.729v-7.5c.785,0,1.546,0,2.307,0a2.24,2.24,0,0,0,2.371-2.356c.008-1.355.007-2.71.012-4.066a.6.6,0,0,1,.049-.142H96.14l.093.1-1.2.936L96.5,78.235c.961-.95,1.938-1.885,2.875-2.859a.866.866,0,0,0-.017-1.277c-.93-.956-1.893-1.878-2.879-2.849l-1.232,1.459.985,1.035h-3.22c0-1.318,0-2.627,0-3.936a4.139,4.139,0,0,0-.055-.878,2.218,2.218,0,0,0-2.164-1.743c-.8-.012-1.606,0-2.451,0V48.408h35.711v4.583h-1.809c0-.189.006-.4,0-.6a2.212,2.212,0,0,0-2.193-2.172q-5.363-.021-10.725,0a2.192,2.192,0,0,0-2.205,2.216q-.018,5.363,0,10.725a2.149,2.149,0,0,0,2.165,2.178q5.392.021,10.784,0a2.2,2.2,0,0,0,2.173-2.191c.013-.505,0-1.011,0-1.543h1.8V78.46a3.347,3.347,0,0,1-.437.036,1.056,1.056,0,0,0-1.063.683c-.326.67-.693,1.321-.991,2a.744.744,0,0,1-.89.537c-.72-.089-1.451-.078-2.174-.145a1.238,1.238,0,0,0-1.336.741,10.97,10.97,0,0,1-.6.928c0-.62,0-1.24,0-1.864h-2.792v1.849ZM97.683,65.343c1.747,0,3.495.005,5.242,0a2.226,2.226,0,0,0,2.342-2.321q.011-5.242,0-10.484a2.221,2.221,0,0,0-2.34-2.322q-5.213-.009-10.425,0a2.228,2.228,0,0,0-2.362,2.359q-.007,5.213,0,10.425a2.193,2.193,0,0,0,2.36,2.344c1.728.005,3.456,0,5.183,0m.645,12.916a3.616,3.616,0,0,0,4.249-1.171,3.8,3.8,0,0,0-.079-4.783,3.591,3.591,0,0,0-4.176-1.054l.61,1.709c1.449-.2,2.487.5,2.5,1.7.015,1.311-.946,2.122-2.523,1.91l-.582,1.683M109.2,69.423c-.983,1.317-1.945,2.578-2.867,3.868a.968.968,0,0,0-.119.776c.6,1.609,1.254,3.2,1.908,4.847l1.809-.726a24.2,24.2,0,0,0-1.089-2.676,2.153,2.153,0,0,1,.384-2.9,17.63,17.63,0,0,0,1.53-2.02L109.2,69.423m7.392,8.758,1.806.728c.514-1.284.922-2.539,1.509-3.7a2.308,2.308,0,0,0-.4-2.91c-.79-.881-1.445-1.884-2.186-2.869L115.77,70.6c.783,1.047,1.526,2.007,2.222,3a.976.976,0,0,1,.1.776c-.45,1.23-.952,2.442-1.5,3.809m-2.8-7.609-2.854,6.655,1.792.767,2.851-6.656-1.789-.766m-3.861,14.57H104.32V87h5.611Zm-1.852-1.924h3.755V81.378h-3.755Zm-3.756,0h1.838V81.353h-1.838Z" transform="translate(-77.899 -42.691)" fill="url(#linear-gradient-2)"/>
        <path id="Trazado_228225" data-name="Trazado 228225" d="M87.973,415.451h26.9a23.508,23.508,0,0,0,2.227,4.045,1.238,1.238,0,0,0,.916.378,15.509,15.509,0,0,0,2.29-.126c.494-.062.776.065.929.539a6.5,6.5,0,0,0,.374.769H89.38c-1.154,0-1.406-.256-1.406-1.424,0-1.372,0-2.745,0-4.181m18.364,3.749c1.058,0,2.116.006,3.174,0a.964.964,0,0,0,1.089-.963c0-.579-.418-.947-1.1-.948q-3.144-.008-6.289,0c-.694,0-1.1.355-1.117.933-.014.6.409.975,1.131.98,1.038.006,2.077,0,3.115,0" transform="translate(-77.583 -366.382)" fill="#d2c1eb"/>
        <path id="Trazado_228226" data-name="Trazado 228226" d="M343.619,336.5c-.87.287-1.36-.244-1.685-1.125a16.559,16.559,0,0,0-.75-1.53,1.046,1.046,0,0,0-1.083-.647c-.841.049-1.684.071-2.525.131a.69.69,0,0,1-.745-.429c-.3-.574-.877-1.138-.865-1.7s.6-1.1.949-1.643c.986-1.5.99-1.5.006-2.986l-.034-.048c-1.11-1.676-1.118-1.682.012-3.382a.842.842,0,0,1,.6-.329c.842,0,1.684.053,2.525.111a1.137,1.137,0,0,0,1.206-.74c.327-.691.707-1.357,1.013-2.056a.755.755,0,0,1,.859-.515,7.837,7.837,0,0,0,1.353,0,.718.718,0,0,1,.8.51c.3.657.664,1.29.958,1.951a1.245,1.245,0,0,0,1.374.853,23,23,0,0,1,2.348-.11.971.971,0,0,1,.689.369c.372.549.917,1.152.917,1.733,0,.547-.6,1.1-.95,1.64-.985,1.506-.985,1.5-.007,2.99.354.539.956,1.091.958,1.639,0,.58-.583,1.158-.89,1.748a.652.652,0,0,1-.7.39c-.84-.058-1.683-.079-2.524-.131a1.068,1.068,0,0,0-1.117.684c-.305.636-.672,1.245-.932,1.9a.983.983,0,0,1-1.2.724,4.311,4.311,0,0,0-.56,0m.123-4.5a3.937,3.937,0,1,0-3.966-3.966A3.934,3.934,0,0,0,343.741,332" transform="translate(-296.286 -281.86)" fill="#43a99b"/>
        <path id="Trazado_228227" data-name="Trazado 228227" d="M87.953,17.881c0-.317-.015-.592,0-.865a.933.933,0,0,1,.934-.942c.2-.015.392,0,.589,0H122.1c1.514,0,1.727.232,1.62,1.812Z" transform="translate(-77.56 -14.169)" fill="#d2c1eb"/>
        <path id="Trazado_228228" data-name="Trazado 228228" d="M297.855,112.555a1.849,1.849,0,0,1,1.847,1.771,1.807,1.807,0,1,1-3.614.015,1.85,1.85,0,0,1,1.767-1.786" transform="translate(-261.117 -99.261)" fill="#fff"/>
        <rect id="Rectángulo_57533" data-name="Rectángulo 57533" width="1.782" height="4.607" transform="translate(44.373 12.312)" fill="#fff"/>
        <path id="Trazado_228229" data-name="Trazado 228229" d="M409.073,88.578a.854.854,0,1,1-.81.845.85.85,0,0,1,.81-.845" transform="translate(-360.043 -78.116)" fill="#fff"/>
        <path id="Trazado_228230" data-name="Trazado 228230" d="M432.21,145.286a.817.817,0,1,1,.774.881.851.851,0,0,1-.774-.881" transform="translate(-381.162 -127.398)" fill="#fff"/>
        <path id="Trazado_228231" data-name="Trazado 228231" d="M111.154,78.793c-1.728,0-3.456,0-5.183,0a2.193,2.193,0,0,1-2.36-2.344q-.007-5.213,0-10.425a2.228,2.228,0,0,1,2.362-2.359q5.213-.007,10.425,0a2.221,2.221,0,0,1,2.34,2.322q.01,5.242,0,10.484a2.226,2.226,0,0,1-2.342,2.321c-1.747.007-3.495,0-5.242,0m5.634-7.567c0-1.649-.009-3.3.006-4.947,0-.474-.172-.671-.657-.67q-4.948.016-9.9,0c-.515,0-.687.2-.685.7q.019,4.918,0,9.836c0,.5.174.7.687.7q4.918-.02,9.836,0c.543,0,.723-.206.717-.733-.021-1.629-.008-3.259-.008-4.888" transform="translate(-91.37 -56.141)"/>
        <path id="Trazado_228232" data-name="Trazado 228232" d="M172.917,246.581l.582-1.683c1.577.212,2.538-.6,2.523-1.91-.014-1.2-1.053-1.9-2.5-1.7l-.61-1.709a3.592,3.592,0,0,1,4.176,1.054,3.8,3.8,0,0,1,.079,4.783,3.616,3.616,0,0,1-4.249,1.171" transform="translate(-152.488 -211.013)"/>
        <path id="Trazado_228233" data-name="Trazado 228233" d="M242.46,226.339l1.555,1.164a17.645,17.645,0,0,1-1.53,2.02,2.153,2.153,0,0,0-.384,2.9,24.216,24.216,0,0,1,1.09,2.676l-1.809.726c-.654-1.645-1.3-3.238-1.908-4.847a.968.968,0,0,1,.119-.776c.923-1.289,1.884-2.551,2.867-3.868" transform="translate(-211.158 -199.606)"/>
        <path id="Trazado_228234" data-name="Trazado 228234" d="M321.466,235.126c.543-1.367,1.045-2.578,1.5-3.809a.975.975,0,0,0-.1-.776c-.7-.994-1.439-1.954-2.222-3l1.551-1.169c.741.985,1.4,1.987,2.186,2.869a2.308,2.308,0,0,1,.4,2.91c-.587,1.164-1,2.419-1.509,3.7l-1.806-.728" transform="translate(-282.771 -199.635)"/>
        <path id="Trazado_228235" data-name="Trazado 228235" d="M282.6,236.066l1.789.766-2.851,6.656-1.792-.767,2.854-6.655" transform="translate(-246.702 -208.184)"/>
        <rect id="Rectángulo_57534" data-name="Rectángulo 57534" width="5.611" height="1.862" transform="translate(26.421 42.451)"/>
        <rect id="Rectángulo_57535" data-name="Rectángulo 57535" width="3.755" height="1.839" transform="translate(30.18 38.688)"/>
        <path id="Trazado_228236" data-name="Trazado 228236" d="M306.421,329.417h-2.806v-1.849h2.792c0,.624,0,1.244,0,1.864l.015-.015" transform="translate(-267.755 -288.879)"/>
        <rect id="Rectángulo_57536" data-name="Rectángulo 57536" width="1.838" height="1.869" transform="translate(26.424 38.663)"/>
        <path id="Trazado_228237" data-name="Trazado 228237" d="M211.749,432.876c-1.038,0-2.077,0-3.115,0-.722,0-1.144-.378-1.131-.98.013-.578.424-.931,1.117-.933q3.144-.008,6.289,0c.684,0,1.1.37,1.1.948a.964.964,0,0,1-1.089.963c-1.058.008-2.116,0-3.174,0" transform="translate(-182.995 -380.058)"/>
        <path id="Trazado_228238" data-name="Trazado 228238" d="M372.179,365.727a3.937,3.937,0,1,1,3.979-3.938,3.949,3.949,0,0,1-3.979,3.938m.638-2.079a1.973,1.973,0,0,0,1.383-1.905,1.861,1.861,0,0,0-1.358-1.776,2.134,2.134,0,0,0-.024.225c0,1.135,0,2.269,0,3.456m-1.93-3.265a1.8,1.8,0,0,0-.532,2.045c.072.147.292.221.532.392Z" transform="translate(-324.724 -315.587)"/>
        <path id="Trazado_228239" data-name="Trazado 228239" d="M131.336,85.774c0,1.629-.013,3.259.008,4.888.007.528-.173.736-.717.733q-4.918-.024-9.836,0c-.514,0-.689-.2-.687-.7q.019-4.918,0-9.836c0-.5.17-.7.685-.7q4.947.02,9.9,0c.485,0,.661.2.657.67-.014,1.649-.006,3.3-.006,4.947m-8.486,0c0,.9-.007,1.8,0,2.7a1,1,0,0,0,1.606.921q2.258-1.316,4.485-2.686a1.016,1.016,0,0,0,0-1.877q-2.227-1.368-4.485-2.686a1,1,0,0,0-1.606.92c-.009.9,0,1.8,0,2.7" transform="translate(-105.919 -70.689)" fill="#eeac3a"/>
        <path id="Trazado_228240" data-name="Trazado 228240" d="M407.2,379.429c0-1.187,0-2.322,0-3.456a2.148,2.148,0,0,1,.024-.225,1.861,1.861,0,0,1,1.358,1.776,1.973,1.973,0,0,1-1.383,1.905" transform="translate(-359.103 -331.369)" fill="#fff"/>
        <path id="Trazado_228241" data-name="Trazado 228241" d="M385.844,379.271v2.436c-.24-.171-.46-.245-.532-.392a1.8,1.8,0,0,1,.532-2.045" transform="translate(-339.68 -334.476)" fill="#fff"/>
        <path id="Trazado_228242" data-name="Trazado 228242" d="M143.334,99.171c0-.9-.007-1.8,0-2.7a1,1,0,0,1,1.606-.92q2.258,1.316,4.485,2.686a1.016,1.016,0,0,1,0,1.877q-2.227,1.369-4.485,2.686a1,1,0,0,1-1.606-.921c-.009-.9,0-1.8,0-2.7m3.808,0L145.337,98.1v2.156l1.806-1.09" transform="translate(-126.403 -84.085)"/>
        <path id="Trazado_228243" data-name="Trazado 228243" d="M162.114,119.73l-1.806,1.09v-2.156l1.806,1.066" transform="translate(-141.374 -104.649)" fill="url(#linear-gradient-3)"/>
      </g>
    </g>
  </g>
</svg>
