<svg id="Grupo_179337" data-name="Grupo 179337" xmlns="http://www.w3.org/2000/svg" xmlns:xlink="http://www.w3.org/1999/xlink" width="321.252" height="197.406" viewBox="0 0 321.252 197.406">
  <defs>
    <clipPath id="clip-path">
      <rect id="Rectángulo_57530" data-name="Rectángulo 57530" width="321.252" height="197.406" fill="none"/>
    </clipPath>
    <clipPath id="clip-path-2">
      <rect id="Rectángulo_57529" data-name="Rectángulo 57529" width="321.253" height="197.406" fill="none"/>
    </clipPath>
    <linearGradient id="linear-gradient" x1="0.5" x2="0.5" y2="1" gradientUnits="objectBoundingBox">
      <stop offset="0" stop-color="#fdbe41"/>
      <stop offset="1" stop-color="#d09f40"/>
    </linearGradient>
    <linearGradient id="linear-gradient-13" x1="0.5" x2="0.5" y2="1" gradientUnits="objectBoundingBox">
      <stop offset="0" stop-color="#f5f5f5"/>
      <stop offset="0.25" stop-color="#f5f5f5"/>
      <stop offset="1" stop-color="#a7b3cf"/>
    </linearGradient>
    <linearGradient id="linear-gradient-14" x1="0.5" x2="0.5" y2="1" gradientUnits="objectBoundingBox">
      <stop offset="0" stop-color="#0a518b"/>
      <stop offset="1" stop-color="#1894f6"/>
    </linearGradient>
    <clipPath id="clip-path-3">
      <rect id="Rectángulo_57522" data-name="Rectángulo 57522" width="180.336" height="105.43" fill="none"/>
    </clipPath>
    <clipPath id="clip-path-4">
      <rect id="Rectángulo_57525" data-name="Rectángulo 57525" width="180.336" height="6.776" fill="none"/>
    </clipPath>
    <clipPath id="clip-path-5">
      <rect id="Rectángulo_57527" data-name="Rectángulo 57527" width="60.089" height="70.826" fill="none"/>
    </clipPath>
  </defs>
  <g id="Grupo_179336" data-name="Grupo 179336" clip-path="url(#clip-path)">
    <g id="Grupo_179335" data-name="Grupo 179335" transform="translate(0 0)">
      <g id="Grupo_179334" data-name="Grupo 179334" clip-path="url(#clip-path-2)">
        <path id="Trazado_228162" data-name="Trazado 228162" d="M1360.975,343.3l-51.117-9.238a1.531,1.531,0,0,1-.538-2.805l21.342-13.305a1.531,1.531,0,0,1,1.926.252l5.475,5.834,7.171-3.549a1.531,1.531,0,0,1,1.892.439l15.335,19.934a1.531,1.531,0,0,1-1.486,2.44m-46.668-11.545,43.307,7.827-12.149-15.792-7.063,3.5a1.531,1.531,0,0,1-1.8-.324l-5.393-5.747Z" transform="translate(-1180.64 -286.651)" fill="url(#linear-gradient)"/>
        <path id="Trazado_228163" data-name="Trazado 228163" d="M1309.858,177.93a1.53,1.53,0,0,1-1.234-1.778l5.463-30.227a1.531,1.531,0,0,1,2.623-.775l15.879,16.922a1.531,1.531,0,0,1-.306,2.347l-21.342,13.305a1.531,1.531,0,0,1-1.082.207m6.7-28.467-4.308,23.835,16.829-10.492Z" transform="translate(-1180.641 -130.52)" fill="url(#linear-gradient)"/>
        <path id="Trazado_228164" data-name="Trazado 228164" d="M1691.134,272.407a1.531,1.531,0,0,1-.941-.573L1674.858,251.9a1.531,1.531,0,0,1,.534-2.305l20.8-10.293a1.531,1.531,0,0,1,2.185,1.644l-5.463,30.227a1.531,1.531,0,0,1-1.778,1.234m-12.712-20.9,12.092,15.719,4.307-23.835Z" transform="translate(-1510.798 -215.759)" fill="url(#linear-gradient)"/>
        <path id="Trazado_228165" data-name="Trazado 228165" d="M1387.856,171.286a1.53,1.53,0,0,1-.844-.459l-22.131-23.584a1.531,1.531,0,0,1,1.389-2.554l51.118,9.238a1.531,1.531,0,0,1,.407,2.878l-28.986,14.346a1.529,1.529,0,0,1-.951.134m-17.573-22.761,18.185,19.379,23.817-11.788Z" transform="translate(-1231.044 -130.519)" fill="url(#linear-gradient)"/>
        <path id="Trazado_228166" data-name="Trazado 228166" d="M2402.688,1389.351l-55.525-23.94a1.782,1.782,0,0,1,.13-3.322l27.7-9.464a1.781,1.781,0,0,1,2.117.792l4.671,8.057,9.065-2.135a1.782,1.782,0,0,1,2.03,1l12.136,26.64a1.782,1.782,0,0,1-2.327,2.375m-49.872-25.383,47.04,20.282-9.615-21.106-8.929,2.1a1.782,1.782,0,0,1-1.95-.841l-4.6-7.936Z" transform="translate(-2116.679 -1220.275)" fill="url(#linear-gradient)"/>
        <path id="Trazado_228167" data-name="Trazado 228167" d="M2347.164,1149.795a1.782,1.782,0,0,1-.93-2.341l14.156-32.833a1.782,1.782,0,0,1,3.178-.188l13.546,23.369a1.781,1.781,0,0,1-.966,2.58l-27.7,9.464a1.782,1.782,0,0,1-1.282-.05m15.1-30.512-11.162,25.89,21.844-7.462Z" transform="translate(-2116.68 -1004.658)" fill="url(#linear-gradient)"/>
        <path id="Trazado_228168" data-name="Trazado 228168" d="M2803.021,1394.619a1.782,1.782,0,0,1-.916-.9l-12.136-26.64a1.781,1.781,0,0,1,1.213-2.473l26.292-6.192a1.782,1.782,0,0,1,2.045,2.44l-14.156,32.833a1.782,1.782,0,0,1-2.341.931m-8.91-27.04,9.57,21.007,11.163-25.89Z" transform="translate(-2517.011 -1225.542)" fill="url(#linear-gradient)"/>
        <path id="Trazado_228169" data-name="Trazado 228169" d="M2510.813,1149.532a1.78,1.78,0,0,1-.836-.742l-18.88-32.57a1.782,1.782,0,0,1,2.247-2.53l55.524,23.94a1.782,1.782,0,0,1-.3,3.371l-36.644,8.63a1.778,1.778,0,0,1-1.114-.1m-13.93-30.436,15.514,26.762,30.11-7.091Z" transform="translate(-2247.293 -1004.658)" fill="url(#linear-gradient)"/>
        <path id="Trazado_228170" data-name="Trazado 228170" d="M210.752,1194.434l-57.282,24.952a1.841,1.841,0,0,1-2.413-2.445l12.437-27.575a1.841,1.841,0,0,1,2.094-1.037l9.376,2.171,4.8-8.344a1.841,1.841,0,0,1,2.185-.827L210.606,1191a1.841,1.841,0,0,1,.147,3.432m-54.377,19.67,48.53-21.14L182.2,1185.3l-4.723,8.218a1.841,1.841,0,0,1-2.012.876l-9.234-2.138Z" transform="translate(-136.139 -1065.728)" fill="url(#linear-gradient)"/>
        <path id="Trazado_228171" data-name="Trazado 228171" d="M17.332,1226.326a1.841,1.841,0,0,1-2.423-.953L.154,1191.5a1.841,1.841,0,0,1,2.1-2.529l27.192,6.3a1.841,1.841,0,0,1,1.263,2.551l-12.437,27.575a1.841,1.841,0,0,1-.943.931m-12.34-32.941,11.635,26.71,9.808-21.744Z" transform="translate(-0.001 -1072.668)" fill="url(#linear-gradient)"/>
        <path id="Trazado_228172" data-name="Trazado 228172" d="M474.821,971.148a1.842,1.842,0,0,1-1.324.057l-28.662-9.672a1.841,1.841,0,0,1-1.008-2.662l13.907-24.2a1.841,1.841,0,0,1,3.284.182l14.755,33.872a1.841,1.841,0,0,1-.952,2.423m-26.684-12.387,22.6,7.627L459.1,939.678Z" transform="translate(-400.207 -842.442)" fill="url(#linear-gradient)"/>
        <path id="Trazado_228173" data-name="Trazado 228173" d="M40.475,971a1.838,1.838,0,0,1-1.151.106l-37.9-8.776a1.841,1.841,0,0,1-.32-3.482L58.388,933.9a1.841,1.841,0,0,1,2.332,2.605L41.336,970.234a1.839,1.839,0,0,1-.861.77M7.684,960l31.14,7.211L54.751,939.5Z" transform="translate(0 -842.442)" fill="url(#linear-gradient)"/>
        <path id="Trazado_228174" data-name="Trazado 228174" d="M722.576,773.938H534.633a4.5,4.5,0,0,1-4.5-4.5v-112.8a4.5,4.5,0,0,1,4.5-4.5H722.576a4.5,4.5,0,0,1,4.5,4.5v112.8a4.5,4.5,0,0,1-4.5,4.5" transform="translate(-478.291 -588.358)" fill="#14244d"/>
        <path id="Trazado_228201" data-name="Trazado 228201" d="M0,0H185.6V108.063H0Z" transform="translate(57.512 70.129)" fill="url(#linear-gradient-13)"/>
        <rect id="Rectángulo_57519" data-name="Rectángulo 57519" width="2.634" height="108.063" transform="translate(57.512 70.129)" fill="#141835"/>
        <rect id="Rectángulo_57520" data-name="Rectángulo 57520" width="2.633" height="108.063" transform="translate(240.481 70.129)" fill="#141835"/>
        <rect id="Rectángulo_57521" data-name="Rectángulo 57521" width="185.603" height="2.634" transform="translate(57.512 70.129)" fill="#141835"/>
        <path id="Trazado_228175" data-name="Trazado 228175" d="M575.491,1921.86H364.383a10.118,10.118,0,0,1-10.118-10.118v-.39H585.609v.39a10.118,10.118,0,0,1-10.118,10.118" transform="translate(-319.624 -1724.454)" fill="#141835"/>
        <path id="Trazado_228176" data-name="Trazado 228176" d="M669.976,1887.593H464.218a2.263,2.263,0,0,0-2.263,2.263v.06H672.239v-.06a2.263,2.263,0,0,0-2.263-2.263" transform="translate(-416.783 -1703.018)" fill="#7f4fc7"/>
        <path id="Trazado_228177" data-name="Trazado 228177" d="M2965.667,1858.968h-34.648a17.324,17.324,0,1,1,34.648,0" transform="translate(-2644.414 -1661.562)" fill="url(#linear-gradient-14)"/>
        <g id="Grupo_179327" data-name="Grupo 179327" transform="translate(60.146 72.762)" opacity="0.25">
          <g id="Grupo_179326" data-name="Grupo 179326">
            <g id="Grupo_179325" data-name="Grupo 179325" clip-path="url(#clip-path-3)">
              <path id="Trazado_228178" data-name="Trazado 228178" d="M615.091,849.547l180.336-105.43v105.43Z" transform="translate(-615.091 -744.118)" fill="#fff"/>
            </g>
          </g>
        </g>
        <rect id="Rectángulo_57523" data-name="Rectángulo 57523" width="180.336" height="6.656" transform="translate(60.146 156.187)" fill="#fff"/>
        <path id="Trazado_228179" data-name="Trazado 228179" d="M721.54,938.085H692.665a3.409,3.409,0,0,1-3.409-3.409V903.412A3.409,3.409,0,0,1,692.665,900H721.54a3.409,3.409,0,0,1,3.409,3.409v31.264a3.409,3.409,0,0,1-3.409,3.409" transform="translate(-621.858 -811.998)" fill="#fff"/>
        <path id="Trazado_228180" data-name="Trazado 228180" d="M858.559,1112.628H829.84a3.409,3.409,0,0,1-3.409-3.409v-31.1a3.409,3.409,0,0,1,3.409-3.409h28.719a3.409,3.409,0,0,1,3.409,3.409v31.1a3.409,3.409,0,0,1-3.409,3.409" transform="translate(-745.62 -969.624)" fill="#e8e8e8"/>
        <path id="Trazado_228181" data-name="Trazado 228181" d="M850.957,1105.851H822.239a4.237,4.237,0,0,1-4.233-4.233v-31.1a4.237,4.237,0,0,1,4.233-4.233h28.719a4.237,4.237,0,0,1,4.233,4.233v31.1a4.237,4.237,0,0,1-4.233,4.233m-28.719-37.915a2.588,2.588,0,0,0-2.585,2.585v31.1a2.588,2.588,0,0,0,2.585,2.585h28.719a2.588,2.588,0,0,0,2.585-2.585v-31.1a2.588,2.588,0,0,0-2.585-2.585Z" transform="translate(-738.019 -962.023)" fill="#fff"/>
        <path id="Trazado_228182" data-name="Trazado 228182" d="M717.717,172.975a.7.7,0,0,1-.314-.074c-1.727-.864-3.734-1.876-5.681-2.948a.7.7,0,1,1,.678-1.231c1.926,1.06,3.917,2.064,5.633,2.923a.7.7,0,0,1-.315,1.331m-12.814-7.5a.7.7,0,0,1-.426-.145,32.274,32.274,0,0,1-4.773-4.415.7.7,0,0,1,1.059-.924,30.887,30.887,0,0,0,4.568,4.223.7.7,0,0,1-.428,1.261m1.332-3.444a.7.7,0,0,1-.148-1.39,16.031,16.031,0,0,0,2.108-.609,14.633,14.633,0,0,0,3.432-1.814.7.7,0,0,1,.813,1.147,16.035,16.035,0,0,1-3.762,1.987,17.436,17.436,0,0,1-2.293.663.7.7,0,0,1-.149.016m-8.423-.161a.712.712,0,0,1-.164-.019,22.566,22.566,0,0,1-6.083-2.442.7.7,0,1,1,.706-1.215,21.16,21.16,0,0,0,5.7,2.29.7.7,0,0,1-.163,1.386m-12.281-7.9a.7.7,0,0,1-.546-.26A28.6,28.6,0,0,1,681.5,148.2a.7.7,0,1,1,1.264-.614,27.212,27.212,0,0,0,3.311,5.239.7.7,0,0,1-.545,1.145m10.452-.1a.7.7,0,0,1-.672-.5,19.114,19.114,0,0,1-.816-5.568c0-.321.008-.646.024-.967a.7.7,0,1,1,1.4.069c-.015.3-.022.6-.022.9a17.712,17.712,0,0,0,.755,5.16.7.7,0,0,1-.673.907m21.44-.825a.7.7,0,0,1-.637-1,13.329,13.329,0,0,0,1.3-5.651q0-.1,0-.209a.7.7,0,0,1,.69-.715h.012a.7.7,0,0,1,.7.69q0,.117,0,.234a14.721,14.721,0,0,1-1.426,6.244.7.7,0,0,1-.638.406m-37.968-12.488a.7.7,0,0,1-.688-.564,38.471,38.471,0,0,1-.73-6.444.7.7,0,1,1,1.4-.041,37.065,37.065,0,0,0,.7,6.208.7.7,0,0,1-.69.841m18.217-1.017a.7.7,0,0,1-.588-1.086,11.558,11.558,0,0,1,5.04-4.385.7.7,0,0,1,.568,1.285,10.177,10.177,0,0,0-4.43,3.866.7.7,0,0,1-.59.319m18.105-.425a.7.7,0,0,1-.535-.246,12.7,12.7,0,0,0-4.837-3.518.7.7,0,0,1,.529-1.3,14.112,14.112,0,0,1,5.376,3.907.7.7,0,0,1-.534,1.159m-36.442-13.346a.7.7,0,0,1-.695-.814,60.59,60.59,0,0,1,1.372-6.3.7.7,0,0,1,1.356.369,59.189,59.189,0,0,0-1.34,6.149.7.7,0,0,1-.693.592m4.028-14.285a.7.7,0,0,1-.656-.955c.711-1.849,1.513-3.785,2.451-5.918a.7.7,0,0,1,1.286.566c-.93,2.112-1.723,4.028-2.426,5.856a.7.7,0,0,1-.656.451m5.994-13.6a.7.7,0,0,1-.634-1c.7-1.478,1.426-2.978,2.125-4.429l.635-1.319a.7.7,0,1,1,1.267.609l-.635,1.319c-.7,1.45-1.42,2.949-2.122,4.424a.7.7,0,0,1-.635.4m6.39-13.428a.7.7,0,0,1-.638-1q.227-.494.444-.973-1.2.1-2.4.15a.7.7,0,0,1-.06-1.4c1.03-.044,2.072-.116,3.117-.216.521-1.172,1-2.287,1.459-3.367a.7.7,0,0,1,1.3.545c-.361.857-.739,1.735-1.139,2.645q.767-.094,1.535-.208a.7.7,0,0,1,.207,1.39q-1.2.178-2.405.31-.376.836-.779,1.714a.7.7,0,0,1-.639.41m-11.1-2.1a.722.722,0,0,1-.079,0,51.478,51.478,0,0,1-6.36-1.115.7.7,0,1,1,.33-1.366,50.035,50.035,0,0,0,6.185,1.084.7.7,0,0,1-.077,1.4m23.12-2.126a.7.7,0,0,1-.192-1.379c2-.57,4.014-1.246,5.978-2.007a.7.7,0,0,1,.508,1.31c-2,.777-4.057,1.466-6.1,2.049a.7.7,0,0,1-.193.027m-37.43-1.7a.7.7,0,0,1-.288-.062,42.886,42.886,0,0,1-5.685-3.1.7.7,0,1,1,.763-1.18,41.473,41.473,0,0,0,5.5,2.995.7.7,0,0,1-.288,1.344m51.189-3.869a.7.7,0,0,1-.331-1.323c1.764-.938,3.555-1.973,5.476-3.164a.7.7,0,1,1,.741,1.194c-1.947,1.207-3.765,2.258-5.556,3.211a.7.7,0,0,1-.329.082M701.367,70.69a.7.7,0,0,1-.665-.931c.707-2.064,1.328-4.1,1.846-6.046a.7.7,0,0,1,1.358.361c-.526,1.979-1.156,4.045-1.875,6.141a.7.7,0,0,1-.665.475M658.1,70.21a.7.7,0,0,1-.487-.2,45.077,45.077,0,0,1-4.326-4.809.7.7,0,1,1,1.11-.862A43.682,43.682,0,0,0,658.586,69a.7.7,0,0,1-.487,1.209m76.031-3.421a.7.7,0,0,1-.4-1.281c1.54-1.066,3.1-2.167,4.606-3.231l.6-.427A.7.7,0,0,1,739.75,63l-.6.426c-1.51,1.066-3.071,2.169-4.617,3.239a.7.7,0,0,1-.4.125m-84.8-8.5a.7.7,0,0,1-.63-.392,39.435,39.435,0,0,1-2.385-6.025.7.7,0,0,1,1.345-.406,38.014,38.014,0,0,0,2.3,5.81.7.7,0,0,1-.63,1.014m97,0A.7.7,0,0,1,745.939,57c1.946-1.3,3.712-2.43,5.4-3.446a.7.7,0,0,1,.726,1.2c-1.668,1.005-3.415,2.121-5.343,3.411a.7.7,0,0,1-.39.119m-41.4-2.006a.7.7,0,0,1-.7-.8c.061-.428.117-.86.169-1.285a45.632,45.632,0,0,0,.323-4.972.7.7,0,0,1,.7-.7h.008a.7.7,0,0,1,.7.71,47.038,47.038,0,0,1-.333,5.126c-.053.435-.111.877-.173,1.314a.7.7,0,0,1-.695.6m54.247-5.441a.7.7,0,0,1-.295-1.341,61.649,61.649,0,0,1,5.983-2.394.7.7,0,1,1,.452,1.331,60.252,60.252,0,0,0-5.846,2.34.7.7,0,0,1-.294.065m34.848-1.761a.7.7,0,0,1-.321-.078,27.73,27.73,0,0,0-5.8-2.192.7.7,0,1,1,.348-1.361,29.129,29.129,0,0,1,6.095,2.3.7.7,0,0,1-.322,1.328M773.324,46.4a.7.7,0,0,1-.112-1.4,42.114,42.114,0,0,1,6.451-.56.7.7,0,0,1,.009,1.405,40.705,40.705,0,0,0-6.234.542.711.711,0,0,1-.114.009M645.519,44.029a.7.7,0,0,1-.7-.667c-.029-.569-.043-1.146-.043-1.713,0-1.055.05-2.12.15-3.164.051-.538.12-1.083.2-1.621a.7.7,0,1,1,1.389.214c-.079.511-.143,1.03-.192,1.541-.1,1-.144,2.019-.144,3.03,0,.544.014,1.1.042,1.642a.7.7,0,0,1-.666.737h-.036m59.264-2.558a.7.7,0,0,1-.692-.589,47.935,47.935,0,0,0-1.417-6.115.7.7,0,0,1,1.345-.407,49.373,49.373,0,0,1,1.459,6.3.7.7,0,0,1-.694.816M648.31,29.581a.7.7,0,0,1-.636-1,33.684,33.684,0,0,1,3.318-5.589.7.7,0,0,1,1.134.83,32.281,32.281,0,0,0-3.179,5.355.7.7,0,0,1-.637.4m51.824-2.168a.7.7,0,0,1-.621-.374,36.8,36.8,0,0,0-3.372-5.257.7.7,0,0,1,1.112-.859,38.213,38.213,0,0,1,3.5,5.458.7.7,0,0,1-.62,1.032m-42.76-9.47a.7.7,0,0,1-.448-1.245,33.322,33.322,0,0,1,5.389-3.633.7.7,0,1,1,.666,1.237,31.914,31.914,0,0,0-5.16,3.48.7.7,0,0,1-.447.161m33.3-1.843a.7.7,0,0,1-.418-.138,25.979,25.979,0,0,0-5.369-3.073.7.7,0,0,1,.546-1.3,27.381,27.381,0,0,1,5.66,3.239.7.7,0,0,1-.419,1.267M670.6,11.48a.7.7,0,0,1-.138-1.392,26.085,26.085,0,0,1,5.135-.519c.459,0,.923.013,1.379.038a.7.7,0,1,1-.078,1.4c-.43-.024-.867-.036-1.3-.036a24.681,24.681,0,0,0-4.857.491.7.7,0,0,1-.139.014" transform="translate(-581.726 -8.634)" fill="#43a99b"/>
        <path id="Trazado_228183" data-name="Trazado 228183" d="M2403.325,0l-11.693,37.977-1.874,6.085-5.342-4.508-13.962-11.779Z" transform="translate(-2138.663 -0.001)" fill="url(#linear-gradient-14)"/>
        <path id="Trazado_228184" data-name="Trazado 228184" d="M2161.264,0l-40.626,23.463-18.479-6.124Z" transform="translate(-1896.603 -0.001)" fill="url(#linear-gradient-14)"/>
        <path id="Trazado_228185" data-name="Trazado 228185" d="M2331.768,0,2298.9,27.777l-6.317,12.631-1.439-16.943Z" transform="translate(-2067.107 -0.001)" fill="#141835"/>
        <g id="Grupo_179330" data-name="Grupo 179330" transform="translate(60.146 72.762)" opacity="0.5" style="mix-blend-mode: multiply;isolation: isolate">
          <g id="Grupo_179329" data-name="Grupo 179329">
            <g id="Grupo_179328" data-name="Grupo 179328" clip-path="url(#clip-path-4)">
              <rect id="Rectángulo_57524" data-name="Rectángulo 57524" width="180.336" height="6.776" transform="translate(0 0)" fill="#578cca"/>
            </g>
          </g>
        </g>
        <path id="Trazado_228186" data-name="Trazado 228186" d="M653.409,767.83a1.326,1.326,0,1,1-1.326-1.326,1.326,1.326,0,0,1,1.326,1.326" transform="translate(-587.124 -691.553)" fill="#14244d"/>
        <path id="Trazado_228187" data-name="Trazado 228187" d="M694.882,767.83a1.326,1.326,0,1,1-1.326-1.326,1.326,1.326,0,0,1,1.326,1.326" transform="translate(-624.541 -691.553)" fill="#14244d"/>
        <path id="Trazado_228188" data-name="Trazado 228188" d="M736.354,767.83a1.326,1.326,0,1,1-1.326-1.326,1.326,1.326,0,0,1,1.326,1.326" transform="translate(-661.958 -691.553)" fill="#14244d"/>
        <g id="Grupo_179333" data-name="Grupo 179333" transform="translate(163.242 98)" opacity="0.5" style="mix-blend-mode: multiply;isolation: isolate">
          <g id="Grupo_179332" data-name="Grupo 179332">
            <g id="Grupo_179331" data-name="Grupo 179331" clip-path="url(#clip-path-5)">
              <rect id="Rectángulo_57526" data-name="Rectángulo 57526" width="60.089" height="70.826" transform="translate(0 0)" fill="#193970"/>
            </g>
          </g>
        </g>
        <rect id="Rectángulo_57528" data-name="Rectángulo 57528" width="60.089" height="80.119" transform="translate(159.013 85.102)" fill="#fff"/>
        <path id="Trazado_228189" data-name="Trazado 228189" d="M1712.194,995.718H1701a.785.785,0,0,1-.785-.785v-11.2a.785.785,0,0,1,.785-.785h11.2a.785.785,0,0,1,.785.785v11.2a.785.785,0,0,1-.785.785m-10.41-1.571h9.625v-9.625h-9.625Z" transform="translate(-1533.961 -886.836)" fill="#12263f"/>
        <path id="Trazado_228190" data-name="Trazado 228190" d="M1712.194,1227.484H1701a.785.785,0,0,1-.785-.785v-11.2a.785.785,0,0,1,.785-.785h11.2a.785.785,0,0,1,.785.785v11.2a.785.785,0,0,1-.785.785m-10.41-1.571h9.625v-9.625h-9.625Z" transform="translate(-1533.961 -1095.939)" fill="#12263f"/>
        <path id="Trazado_228191" data-name="Trazado 228191" d="M1712.194,1459.249H1701a.785.785,0,0,1-.785-.785v-11.2a.785.785,0,0,1,.785-.785h11.2a.785.785,0,0,1,.785.785v11.2a.786.786,0,0,1-.785.785m-10.41-1.571h9.625v-9.625h-9.625Z" transform="translate(-1533.961 -1305.041)" fill="#12263f"/>
        <path id="Trazado_228192" data-name="Trazado 228192" d="M1904.422,1015.841H1880.04a.785.785,0,0,1,0-1.571h24.382a.785.785,0,1,1,0,1.571" transform="translate(-1695.495 -915.091)" fill="#12263f"/>
        <path id="Trazado_228193" data-name="Trazado 228193" d="M1907.982,1067.7H1880.04a.785.785,0,1,1,0-1.571h27.942a.785.785,0,0,1,0,1.571" transform="translate(-1695.495 -961.876)" fill="#12263f"/>
        <path id="Trazado_228194" data-name="Trazado 228194" d="M1898.381,1229.358h-18.34a.785.785,0,0,1,0-1.571h18.34a.785.785,0,0,1,0,1.571" transform="translate(-1695.495 -1107.73)" fill="#12263f"/>
        <path id="Trazado_228195" data-name="Trazado 228195" d="M1906.148,1273.535H1880.04a.785.785,0,0,1,0-1.571h26.108a.785.785,0,0,1,0,1.571" transform="translate(-1695.495 -1147.587)" fill="#12263f"/>
        <path id="Trazado_228196" data-name="Trazado 228196" d="M1906.148,1531.456H1880.04a.785.785,0,0,1,0-1.571h26.108a.785.785,0,0,1,0,1.571" transform="translate(-1695.495 -1380.288)" fill="#12263f"/>
        <path id="Trazado_228197" data-name="Trazado 228197" d="M1895.09,1479.144h-15.05a.785.785,0,0,1,0-1.571h15.05a.785.785,0,1,1,0,1.571" transform="translate(-1695.495 -1333.091)" fill="#12263f"/>
        <path id="Trazado_228198" data-name="Trazado 228198" d="M1890.691,1317.711h-10.65a.785.785,0,1,1,0-1.57h10.65a.785.785,0,1,1,0,1.57" transform="translate(-1695.495 -1187.444)" fill="#12263f"/>
        <path id="Trazado_228199" data-name="Trazado 228199" d="M1737.791,1016.59h-.019a.785.785,0,0,1-.68-.427l-1.37-2.67a.785.785,0,0,1,1.4-.717l.711,1.385,2.806-4.87a.785.785,0,1,1,1.361.784l-3.526,6.121a.785.785,0,0,1-.68.393" transform="translate(-1565.92 -910.245)" fill="#12263f"/>
        <path id="Trazado_228200" data-name="Trazado 228200" d="M1737.791,1248.356h-.019a.785.785,0,0,1-.68-.427l-1.37-2.67a.785.785,0,0,1,1.4-.717l.711,1.385,2.806-4.87a.785.785,0,1,1,1.361.784l-3.526,6.121a.785.785,0,0,1-.68.393" transform="translate(-1565.92 -1119.348)" fill="#12263f"/>
      </g>
    </g>
  </g>
</svg>
