<svg xmlns="http://www.w3.org/2000/svg" xmlns:xlink="http://www.w3.org/1999/xlink" width="112" height="112" viewBox="0 0 112 112">
  <defs>
    <clipPath id="clip-path">
      <rect id="Rectángulo_57571" data-name="Rectángulo 57571" width="70.467" height="70.398" transform="translate(0 0)" fill="#fff"/>
    </clipPath>
  </defs>
  <g id="Grupo_179505" data-name="Grupo 179505" transform="translate(2346.95 4747.146)">
    <circle id="Elipse_5466" data-name="Elipse 5466" cx="56" cy="56" r="56" transform="translate(-2346.95 -4747.146)" fill="#12263f"/>
    <g id="Grupo_179366" data-name="Grupo 179366" transform="translate(-2325.184 -4727.342)">
      <g id="Grupo_179365" data-name="Grupo 179365" transform="translate(0 -0.003)" clip-path="url(#clip-path)">
        <path id="Trazado_228283" data-name="Trazado 228283" d="M18.753,234.732l4.622,36.984h-.412c-1.289,0-2.577-.008-3.866,0a4.2,4.2,0,0,1-2.21-.542,1.653,1.653,0,0,0-.165-.072v7.667h7.456c0-.688,0-1.358,0-2.028a2.2,2.2,0,0,1,2.362-2.347c1.374,0,2.748,0,4.216,0a4.282,4.282,0,0,1,.43-5.619,10.924,10.924,0,0,1-5.822-8.459,10.569,10.569,0,0,1,2.454-8.324,11,11,0,1,1,14.762,16.048l8.689,2.338c-.041-.882-.045-1.728-.127-2.565a9.291,9.291,0,0,1,.392-3.558A20.461,20.461,0,0,1,54.29,258.2c.454-.65,1.015-1.225,1.483-1.782a26.117,26.117,0,0,1-1.646-2.134,9.28,9.28,0,0,1-1.283-6.328,8.862,8.862,0,0,1,2.533-5.256,6.812,6.812,0,0,1,10.1.223,9.667,9.667,0,0,1-.126,12.9.272.272,0,0,0-.03.071c.378.144.77.259,1.132.435a6.457,6.457,0,0,1,3.887,5.969c.049,1.536.005,3.075.015,4.613a1.9,1.9,0,0,0,.113.459,6.212,6.212,0,0,0-.115.845q-.009,10.608,0,21.216c0,.105-.01.211-.017.336H68.144V271.522l-.078-.029c-.059.091-.12.182-.177.274-1.6,2.614-3.185,5.232-4.79,7.839a7.347,7.347,0,0,1-1.735,1.961,4.585,4.585,0,0,1-4.264.781L54.04,281.5c.137,2.752.272,5.467.409,8.222l-2.19.117c-.022-.32-.049-.629-.065-.938-.129-2.563-.259-5.126-.376-7.689a.394.394,0,0,0-.351-.434c-1.566-.422-3.127-.865-4.691-1.3-.017,0-.039.007-.083.016a3.8,3.8,0,0,1,1.42,1.826,4.2,4.2,0,0,1,.232,1.169c.033.95.011,1.9.011,2.886H47.27v4.389H45.063v-4.363H3.322v4.352h-2.2V285.4H0a18.342,18.342,0,0,1,.225-4.113,2.956,2.956,0,0,1,2.583-2.324,17.8,17.8,0,0,1,2.2-.161c.239-.01.362-.057.434-.308q1.409-4.9,2.838-9.786,1.933-6.636,3.869-13.272c.257-.883.518-1.765.761-2.652a1.45,1.45,0,0,0,.011-.545q-.678-5.477-1.366-10.954c-.086-.687-.186-1.373-.255-2.062a3.915,3.915,0,0,1,3.564-4.468c1.275-.12,2.57-.022,3.89-.022m23.135,41.1c.195.058.357.109.52.155l9.41,2.606c2.022.559,4.042,1.123,6.066,1.672a2.323,2.323,0,0,0,2.358-.64,5.854,5.854,0,0,0,.9-1.065q3.489-5.666,6.945-11.352a.424.424,0,0,0,.07-.207c0-1.591,0-3.182-.021-4.773a4.356,4.356,0,0,0-2.862-4,11.76,11.76,0,0,0-4.088-.248c-.464,0-.928.046-1.392.04-.6-.008-1.21-.031-1.813-.079a1.2,1.2,0,0,0-1.057.449c-.135.155-.281.3-.4.466a19.625,19.625,0,0,0-2.651,5.216,7.489,7.489,0,0,0-.563,2.654c.031,1.331.13,2.66.187,3.99a.319.319,0,0,0,.291.347c.7.177,1.4.36,2.1.567a.343.343,0,0,0,.48-.2q2.485-4.485,4.989-8.96c.283-.508.569-1.015.865-1.541L64.138,262c-.6,1.067-1.17,2.1-1.744,3.125q-2.488,4.465-4.975,8.93c-.079.143-.143.233-.348.177q-5.542-1.5-11.089-2.99c-.779-.21-1.559-.417-2.38-.636.786,2.2.038,3.858-1.715,5.219M38.1,267.263l.012.107a5.584,5.584,0,0,0,1.324-.182,8.768,8.768,0,1,0-6.653-.117,4.515,4.515,0,0,0,2.607.454c.894-.148,1.806-.18,2.711-.262m-17.23,2.222c-.082-.672-.158-1.315-.238-1.958q-.6-4.831-1.21-9.662-.442-3.527-.883-7.053-.424-3.382-.849-6.763-.43-3.446-.849-6.894c-.024-.2-.111-.248-.294-.243-.389.01-.779,0-1.169,0a1.81,1.81,0,0,0-1.88,2.146q.506,4.026,1.008,8.052.566,4.525,1.132,9.051.369,2.947.74,5.894c.243,1.954.475,3.909.726,5.862a1.717,1.717,0,0,0,1.547,1.554c.72.052,1.446.011,2.218.011m34.086-20.215a7.132,7.132,0,0,0,1.846,4.945,4.624,4.624,0,0,0,6.891.152,7.445,7.445,0,0,0,.093-10.031,4.643,4.643,0,0,0-7.048.127,7.152,7.152,0,0,0-1.783,4.808m-8.778,33.9a5.542,5.542,0,0,0-.086-.927A1.729,1.729,0,0,0,44.252,281q-5.539,0-11.078,0Q19.691,281,6.209,281c-.877,0-1.755,0-2.631.033-.485.018-1,.113-1.159.658a12,12,0,0,0-.255,1.477Zm-38.518-4.4H14.5v-.315q0-5.684,0-11.367c0-.151-.014-.3-.029-.453q-.343-3.407-.689-6.814c-.047-.46-.1-.919-.143-1.379h-.065L7.657,278.77m29.755-3.935a5.2,5.2,0,0,0,3.377-.969,1.943,1.943,0,0,0,.907-1.828,2.6,2.6,0,0,0-1.107-1.8,3.854,3.854,0,0,0-2.513-.717c-1.411.086-2.821.243-4.222.437a3.187,3.187,0,0,0-1.231.526,2.027,2.027,0,0,0-.078,2.624,7.008,7.008,0,0,0,.661.519,8.662,8.662,0,0,0,4.2,1.209m.991,2.172c-.444,0-1,.032-1.545-.009s-1.112-.163-1.669-.235a12.263,12.263,0,0,0-1.475-.152c-2.317-.016-4.634-.007-6.951-.007h-.355v2.163h17.5a.393.393,0,0,0-.212-.135c-1.636-.455-3.273-.906-4.907-1.367a1.856,1.856,0,0,1-.392-.259" transform="translate(0 -219.445)" fill="#fff"/>
        <path id="Trazado_228284" data-name="Trazado 228284" d="M367.208,24.173a12.088,12.088,0,1,1,12.106-11.937,12.118,12.118,0,0,1-12.106,11.937m5.726-20.111A9.866,9.866,0,0,0,359.7,18.5a9.862,9.862,0,0,0,13.2,1.661,9.7,9.7,0,0,0,3.947-5.874,8.754,8.754,0,0,0-.082-4.483c-.065.03-.085.084-.121.123q-3.513,3.85-7.027,7.7a2.269,2.269,0,0,1-3.632.113q-3.108-3.116-6.218-6.23c-.172-.172-.363-.325-.5-.445l4.694-4.7,3.73,3.749,5.234-6.053m-5.162,12.347c.071-.1.105-.151.149-.2q2.5-2.732,4.993-5.462c.942-1.03,1.886-2.058,2.822-3.093.074-.081.161-.257.125-.315-.388-.617-.8-1.219-1.23-1.86l-6.821,7.887-3.861-3.9-1.581,1.564,5.405,5.377" transform="translate(-332.045 0.003)" fill="#fff"/>
        <path id="Trazado_228285" data-name="Trazado 228285" d="M501.807,508.967v-1.1H504v1.068h2.727v2.2h-.37c-1.277,0-2.555,0-3.832,0a1.162,1.162,0,0,0-1.152.634,1.086,1.086,0,0,0,.93,1.555c.518.024,1.042-.012,1.556.043a3.293,3.293,0,0,1,.6,6.41c-.143.045-.287.085-.45.132V521h-2.2v-1.054h-2.72v-2.206c.107-.005.221-.015.335-.015,1.342,0,2.685,0,4.027-.005a1.094,1.094,0,1,0,.011-2.187c-.335-.01-.671-.013-1.007,0a3.061,3.061,0,0,1-1.71-.421,3.3,3.3,0,0,1,.7-6.045c.1-.033.207-.058.356-.1" transform="translate(-466.642 -474.865)" fill="#fff"/>
      </g>
    </g>
  </g>
</svg>
