<svg xmlns="http://www.w3.org/2000/svg" xmlns:xlink="http://www.w3.org/1999/xlink" width="126" height="126" viewBox="0 0 126 126">
  <defs>
    <filter id="Elipse_6247" x="0" y="0" width="126" height="126" filterUnits="userSpaceOnUse">
      <feOffset dy="3" input="SourceAlpha"/>
      <feGaussianBlur stdDeviation="3" result="blur"/>
      <feFlood flood-opacity="0.161"/>
      <feComposite operator="in" in2="blur"/>
      <feComposite in="SourceGraphic"/>
    </filter>
    <clipPath id="clip-path">
      <rect id="Rectángulo_57586" data-name="Rectángulo 57586" width="71.677" height="73.486" transform="translate(0 0)" fill="#1a76b7"/>
    </clipPath>
  </defs>
  <g id="Grupo_179510" data-name="Grupo 179510" transform="translate(-184.611 -8101.381)">
    <g transform="matrix(1, 0, 0, 1, 184.61, 8101.38)" filter="url(#Elipse_6247)">
      <circle id="Elipse_6247-2" data-name="Elipse 6247" cx="54" cy="54" r="54" transform="translate(9 6)" fill="#fff"/>
    </g>
    <g id="Grupo_179375" data-name="Grupo 179375" transform="translate(215.772 8126.223)">
      <g id="Grupo_179375-2" data-name="Grupo 179375" transform="translate(0 0.002)" clip-path="url(#clip-path)">
        <path id="Trazado_228310" data-name="Trazado 228310" d="M15.736,465.245a14.24,14.24,0,0,1-8.022-2.619,27.423,27.423,0,0,1-3.432-3.239,15.138,15.138,0,0,1-2.4-3.075,13.686,13.686,0,0,1-1.792-5.431,13.909,13.909,0,0,1,1.472-7.966A15.9,15.9,0,0,1,5.1,438.5c1.865-1.723,3.7-3.48,5.543-5.224,2.741-2.591,5.458-5.207,8.226-7.769a13.937,13.937,0,0,1,15.271-2.392,7.626,7.626,0,0,1,3.622,2.873,6.048,6.048,0,0,1-1.308,7.8A6.216,6.216,0,0,1,30.21,434.9a7.162,7.162,0,0,1-1.059-.493,1.643,1.643,0,0,0-1.951.2c-1.518,1.416-3.02,2.849-4.53,4.273-.889.838-1.785,1.669-2.672,2.509q-2.106,1.994-4.2,4c-.964.914-1.939,1.817-2.9,2.737a1.581,1.581,0,0,0-.1,2.317l.805.853q.563.594,1.127,1.187a1.709,1.709,0,0,0,2.241,0c2.192-2.085,4.372-4.182,6.584-6.245a5.927,5.927,0,0,1,7.92.082,6.591,6.591,0,0,1,2.162,3.433A5.638,5.638,0,0,1,32,455.215c-1.94,1.884-3.936,3.71-5.892,5.579a16.385,16.385,0,0,1-4.017,2.97,14.627,14.627,0,0,1-6.356,1.481m12.549-40.534a11.03,11.03,0,0,0-5.063,1.226,13.351,13.351,0,0,0-3,2.251c-2.384,2.274-4.795,4.521-7.192,6.782q-2.848,2.686-5.689,5.379a16.475,16.475,0,0,0-2.69,2.972,11.005,11.005,0,0,0,.18,12.239,28.009,28.009,0,0,0,2.329,2.675,11.669,11.669,0,0,0,3.936,3.048,10.9,10.9,0,0,0,11.737-1.421c1.138-.883,2.131-1.954,3.185-2.945,1.357-1.277,2.722-2.545,4.055-3.846a2.728,2.728,0,0,0,.736-2.813,4.054,4.054,0,0,0-1.2-1.767,3,3,0,0,0-4.071-.155c-1.864,1.724-3.689,3.49-5.543,5.225a8.482,8.482,0,0,1-2.293,1.831,4.591,4.591,0,0,1-4.986-.885c-.681-.675-1.341-1.374-1.99-2.08a4.366,4.366,0,0,1-1.091-4.283,5.023,5.023,0,0,1,1.589-2.392c2.3-2.139,4.57-4.316,6.853-6.477q3.555-3.364,7.113-6.726a4.547,4.547,0,0,1,5.5-.579,3.262,3.262,0,0,0,2.642.294,3.189,3.189,0,0,0,2.343-2.312,2.912,2.912,0,0,0-.9-3.1,6.983,6.983,0,0,0-1.695-1.093,11.052,11.052,0,0,0-4.788-1.055" transform="translate(0 -391.759)" fill="#1a76b7"/>
        <path id="Trazado_228311" data-name="Trazado 228311" d="M487,190.961a13.737,13.737,0,0,1,9.88,4.5c.821.872,1.666,1.724,2.445,2.633a12.979,12.979,0,0,1,2.549,4.8,14.008,14.008,0,0,1-2.009,12.066,19.966,19.966,0,0,1-2.762,2.961q-5.573,5.244-11.128,10.509c-1.044.985-2.051,2.02-3.172,2.91a13.576,13.576,0,0,1-9.482,2.984,13.714,13.714,0,0,1-6.415-1.991,5.893,5.893,0,0,1-3.051-5.911,5.674,5.674,0,0,1,2.88-4.541,6.206,6.206,0,0,1,6.589-.084,1.63,1.63,0,0,0,2.045-.32q2.566-2.416,5.124-4.84l7.818-7.378c.423-.4.849-.794,1.264-1.2a1.572,1.572,0,0,0,.064-2.316q-.908-.978-1.834-1.939a1.647,1.647,0,0,0-2.334-.051c-2.15,2.027-4.3,4.049-6.44,6.092a5.925,5.925,0,0,1-8.048.026,6.753,6.753,0,0,1-1.94-2.683,5.662,5.662,0,0,1,1.5-6.293q3.252-3.14,6.578-6.2A13.986,13.986,0,0,1,487,190.961m12.563,16.614a11.191,11.191,0,0,0-2.176-7.292c-.683-.89-1.514-1.666-2.265-2.506a11.113,11.113,0,0,0-4.512-3.193,10.86,10.86,0,0,0-9.979,1.027,18.531,18.531,0,0,0-2.506,2.09c-1.892,1.744-3.756,3.519-5.629,5.283a2.859,2.859,0,0,0-.767,3.188,4.238,4.238,0,0,0,1.661,1.949,3.051,3.051,0,0,0,3.525-.247c.75-.691,1.487-1.4,2.229-2.1,1.475-1.391,2.936-2.8,4.427-4.171a4.484,4.484,0,0,1,6.336.228c.655.687,1.349,1.343,1.942,2.08a5.033,5.033,0,0,1,.932,1.655,4.288,4.288,0,0,1-1.221,4.552c-.5.488-1.012.968-1.521,1.448q-3.43,3.235-6.861,6.468-2.937,2.774-5.87,5.552a4.474,4.474,0,0,1-5.417.687,3.48,3.48,0,0,0-3.617.016,3.171,3.171,0,0,0-.273,5.321,10.355,10.355,0,0,0,3.318,1.507,10.922,10.922,0,0,0,6.207-.147,10.042,10.042,0,0,0,3.813-2.145c2.707-2.506,5.378-5.049,8.061-7.58,2.132-2.011,4.242-4.045,6.393-6.035a10.815,10.815,0,0,0,3.769-7.638" transform="translate(-430.768 -177.352)" fill="#1a76b7"/>
        <path id="Trazado_228312" data-name="Trazado 228312" d="M61.028,5.283,58.709,6.7l2.715,4.474c-.441.414-.881.811-1.3,1.226a13.309,13.309,0,0,0-2.983,4.548c-.138.339-.29.424-.654.329-1.41-.367-2.829-.7-4.245-1.04-.114-.028-.23-.049-.409-.086L51.191,18.8l5.091,1.224c-.015.3-.026.59-.046.882A14.249,14.249,0,0,0,57.352,27.3c.1.25.039.346-.169.471-1.269.765-2.531,1.544-3.795,2.318-.119.073-.235.15-.38.242l1.414,2.318,3.458-2.1,1.5,2.441L53.47,36.6l-4.421-7.231,1.37-.835c1.113-.68,2.225-1.363,3.341-2.038a.3.3,0,0,0,.157-.37q-.294-1.8-.536-3.618c-.029-.217-.128-.269-.3-.311q-2.506-.6-5.01-1.209c-.1-.025-.2-.056-.335-.093l1.986-8.217c.619.151,1.211.3,1.8.441,1.208.291,2.415.585,3.627.862a.356.356,0,0,0,.3-.139,15.1,15.1,0,0,1,2.166-2.982c.155-.164.093-.276,0-.431-.948-1.546-1.889-3.1-2.855-4.682l7.224-4.417q.869,1.42,1.739,2.842c.384.627.774,1.251,1.153,1.881.092.154.171.184.366.149,1.106-.2,2.216-.386,3.33-.535.524-.07.533-.027.662-.559Q69.79,2.794,70.347.478c.036-.147.079-.293.129-.477l8.208,1.985c-.066.3-.122.588-.19.87-.356,1.473-.71,2.948-1.08,4.418-.067.266.013.381.233.534.933.649,1.858,1.311,2.75,2.014a.459.459,0,0,0,.641.023q2.1-1.3,4.2-2.594c.11-.068.227-.123.372-.2l4.437,7.2-5.923,3.618-1.5-2.457L86.093,13.3l-1.432-2.314L80.176,13.72A14.27,14.27,0,0,0,73.99,9.24l1.232-5.125-2.653-.664c-.145.615-.278,1.2-.42,1.784-.244,1-.507,2-.731,3.005-.063.284-.17.363-.448.337a13.511,13.511,0,0,0-4.839.366c-.8.216-1.576.5-2.394.766L61.028,5.283" transform="translate(-44.329 -0.001)" fill="#1a76b7"/>
        <path id="Trazado_228313" data-name="Trazado 228313" d="M262.178,210.759l-2.591-1.126a4.681,4.681,0,0,0-.623-4.771,4.406,4.406,0,0,0-2.857-1.718,4.689,4.689,0,1,0-1.1,9.3c-.029.469-.057.939-.089,1.41s-.066.917-.1,1.372a7.523,7.523,0,1,1,7.361-4.464" transform="translate(-230.081 -185.923)" fill="#1a76b7"/>
      </g>
    </g>
  </g>
</svg>
