<svg xmlns="http://www.w3.org/2000/svg" xmlns:xlink="http://www.w3.org/1999/xlink" width="112" height="112" viewBox="0 0 112 112">
  <defs>
    <clipPath id="clip-path">
      <rect id="Rectángulo_57583" data-name="Rectángulo 57583" width="62.555" height="62.559" fill="#fff"/>
    </clipPath>
  </defs>
  <g id="Grupo_179506" data-name="Grupo 179506" transform="translate(2025.95 4747.146)">
    <circle id="Elipse_5466" data-name="Elipse 5466" cx="56" cy="56" r="56" transform="translate(-2025.95 -4747.146)" fill="#12263f"/>
    <g id="Grupo_179368" data-name="Grupo 179368" transform="translate(-2000.74 -4722.726)">
      <g id="Grupo_179367" data-name="Grupo 179367" clip-path="url(#clip-path)">
        <path id="Trazado_228286" data-name="Trazado 228286" d="M47.171,62.559H19.428c-.033-.025-.062-.063-.1-.073a5.066,5.066,0,0,1-4.188-5.473q0-6.966,0-13.933v-.7c-1.764,0-3.443-.033-5.12.018-.593.018-.81-.189-.905-.728-.1-.562-.274-1.112-.426-1.709L6.627,41.178,1.21,35.755l1.225-2.066c-.715-.183-1.34-.362-1.974-.5C.145,33.126,0,33.019,0,32.664c.015-2.27,0-4.539.025-6.809a.676.676,0,0,1,.385-.489c.646-.212,1.314-.356,2.019-.537L1.252,22.835,6.7,17.382l2,1.182c.176-.678.367-1.28.479-1.9.076-.416.249-.543.664-.533,1.176.027,2.353.009,3.53.009h1.774v-.771q0-4.981,0-9.961A5.061,5.061,0,0,1,20.529,0Q33.293,0,46.058,0a5.061,5.061,0,0,1,5.4,5.4q0,6.179,0,12.357v.724c.252.071.435.119.616.172a13.989,13.989,0,0,1,9.945,9.8c.247.793.361,1.627.536,2.442V33.55c-.039.158-.091.314-.114.475a13.76,13.76,0,0,1-6.8,10.36,38.329,38.329,0,0,1-4.188,1.894v.532c0,3.571.011,7.141-.006,10.711a5.016,5.016,0,0,1-3.275,4.712c-.33.123-.671.217-1.007.325M23.244,30.29V16.18H43.427v2.875l1.932-.59V14.191H21.253V48.378H45.394V46.212c-7.775-2.556-11.478-7.771-11.056-15.922ZM17.2,52.4H49.379V46.465H47.407v3.952h-28.2V12.137H47.466V18.11h1.917V10.145H17.2ZM59.207,37.67a12.063,12.063,0,0,0-19.62-13.623c-4.028,4.272-3.883,10.348-1.91,13.534a5.241,5.241,0,0,1,4.11-3.161c.612-.146,1.219-.311,1.828-.466l1.934-.49L45,32.945a4.918,4.918,0,0,1-1.6-3.324,21.139,21.139,0,0,1,0-2.582A5.175,5.175,0,0,1,48.056,22.2a4.986,4.986,0,0,1,5.332,4.237,16.838,16.838,0,0,1,.084,2.89,4.864,4.864,0,0,1-1.636,3.622,1.959,1.959,0,0,1-.58.254l.214.3c1.19.3,2.37.65,3.572.9a5.367,5.367,0,0,1,4.165,3.271m-7.662-9.359-.116-.021c0-.378.017-.757,0-1.135a3.022,3.022,0,0,0-2.732-2.9,2.886,2.886,0,0,0-3.1,2.306,12.253,12.253,0,0,0-.019,3.372,2.2,2.2,0,0,0,.9,1.5,1.97,1.97,0,0,1,.972,2.257,2.527,2.527,0,0,0,0,.692c.117.627-.2.823-.757.95-1.675.384-3.341.807-5,1.242a2.924,2.924,0,0,0-2.3,2.988,1.618,1.618,0,0,0,.315,1.012,12,12,0,0,0,17.467-.005,1.2,1.2,0,0,0,.3-.709,3.043,3.043,0,0,0-2.5-3.354c-1.705-.439-3.413-.868-5.126-1.275-.338-.08-.445-.223-.437-.553.018-.693-.028-1.389.023-2.079a1.353,1.353,0,0,1,.38-.693c.423-.48,1.035-.859,1.287-1.409a9.317,9.317,0,0,0,.444-2.188M49.415,8.024c0-.9,0-1.742,0-2.58a3.061,3.061,0,0,0-3.386-3.4H26.871c-2.185,0-4.369-.007-6.554,0a2.853,2.853,0,0,0-2.981,2.218,33.211,33.211,0,0,0-.2,3.759ZM17.185,54.536c0,.879,0,1.7,0,2.512,0,2.279,1.18,3.467,3.445,3.467H40.48c1.953,0,3.907.013,5.86,0a2.876,2.876,0,0,0,2.991-2.519,28.488,28.488,0,0,0,.027-3.455ZM41.323,18.26H25.329v9.892a1.432,1.432,0,0,0,.234.048c2.96,0,5.92.011,8.879-.011a.7.7,0,0,0,.517-.384,14.388,14.388,0,0,1,6.025-7.591.743.743,0,0,0,.323-.472c.044-.475.015-.957.015-1.482m-26.256-.054c-.738,0-1.426-.006-2.114,0-.648.007-1.476-.208-1.894.109s-.428,1.166-.577,1.792a1.092,1.092,0,0,1-.682.807,1.256,1.256,0,0,1-1.449-.1,5.608,5.608,0,0,0-1.132-.677.714.714,0,0,0-.626.079c-.491.425-.937.9-1.392,1.369s-1.189.9-1.262,1.42.516,1.13.854,1.677a1.028,1.028,0,0,1,.088.994,1.258,1.258,0,0,1-1.131.991c-.412.042-.809.212-1.219.294a.5.5,0,0,0-.471.593c.027,1.134.025,2.269,0,3.4-.007.358.095.534.454.6a8.818,8.818,0,0,1,1.518.392,1.77,1.77,0,0,1,.7.6A1.158,1.158,0,0,1,4.636,34.1c-.232.294-.369.662-.6.963-.259.345-.183.576.115.849.525.483,1.016,1,1.521,1.51,1.193,1.194,1.193,1.194,2.611.342,1.095-.657,1.917-.321,2.234.911.11.426.2.857.346,1.273.049.144.213.352.328.354,1.275.025,2.551.016,3.863.016V36.178a7.21,7.21,0,0,1-9.052-6.7,7.163,7.163,0,0,1,9.059-7.092Zm.074,11.056c0-1.364-.015-2.729.01-4.093a.613.613,0,0,0-.5-.711,5.04,5.04,0,1,0,.062,9.591.552.552,0,0,0,.439-.631c-.021-1.385-.008-2.77-.008-4.156" transform="translate(-0.001 0)" fill="#fff"/>
        <rect id="Rectángulo_57572" data-name="Rectángulo 57572" width="2.018" height="1.975" transform="translate(9.087 60.584)" fill="#fff"/>
        <path id="Trazado_228287" data-name="Trazado 228287" d="M60.009,365.48H57.991V364.8c0-2.331-.007-4.662.007-6.993a.728.728,0,0,0-.437-.781,2.922,2.922,0,0,1-1.488-3.353,3.014,3.014,0,0,1,5.847-.02,2.925,2.925,0,0,1-1.463,3.365.774.774,0,0,0-.455.831c.012,2.519.006,5.038.006,7.629m-.991-12.021a.949.949,0,1,0,.929.952,1.037,1.037,0,0,0-.929-.952" transform="translate(-48.904 -306.983)" fill="#fff"/>
        <path id="Trazado_228288" data-name="Trazado 228288" d="M425.266,32.181h2.018v.668c0,2.331.006,4.662-.006,6.993a.726.726,0,0,0,.431.782,2.921,2.921,0,0,1,1.494,3.351,3.013,3.013,0,0,1-5.847.034,2.921,2.921,0,0,1,1.457-3.367.776.776,0,0,0,.461-.829c-.013-2.52-.007-5.039-.007-7.633m1.945,11.162a.94.94,0,1,0-1.014.849,1,1,0,0,0,1.014-.849" transform="translate(-369.772 -28.115)" fill="#fff"/>
        <rect id="Rectángulo_57573" data-name="Rectángulo 57573" width="1.917" height="1.962" transform="translate(55.546 0.014)" fill="#fff"/>
        <rect id="Rectángulo_57574" data-name="Rectángulo 57574" width="9.014" height="1.977" transform="translate(23.254 32.308)" fill="#fff"/>
        <rect id="Rectángulo_57575" data-name="Rectángulo 57575" width="9.004" height="1.968" transform="translate(23.248 36.361)" fill="#fff"/>
        <rect id="Rectángulo_57576" data-name="Rectángulo 57576" width="9.035" height="1.954" transform="translate(23.244 40.393)" fill="#fff"/>
        <rect id="Rectángulo_57577" data-name="Rectángulo 57577" width="9.036" height="1.956" transform="translate(23.221 44.428)" fill="#fff"/>
        <rect id="Rectángulo_57578" data-name="Rectángulo 57578" width="8.056" height="1.97" transform="translate(27.248 4.066)" fill="#fff"/>
        <rect id="Rectángulo_57579" data-name="Rectángulo 57579" width="1.982" height="1.994" transform="translate(37.358 4.066)" fill="#fff"/>
        <rect id="Rectángulo_57580" data-name="Rectángulo 57580" width="8.059" height="1.973" transform="translate(29.275 56.522)" fill="#fff"/>
        <rect id="Rectángulo_57581" data-name="Rectángulo 57581" width="1.995" height="1.986" transform="translate(21.209 56.527)" fill="#fff"/>
        <rect id="Rectángulo_57582" data-name="Rectángulo 57582" width="1.984" height="1.995" transform="translate(43.41 56.533)" fill="#fff"/>
      </g>
    </g>
  </g>
</svg>
