<svg xmlns="http://www.w3.org/2000/svg" xmlns:xlink="http://www.w3.org/1999/xlink" width="112" height="112" viewBox="0 0 112 112">
  <defs>
    <clipPath id="clip-path">
      <rect id="Rectángulo_57585" data-name="Rectángulo 57585" width="76.175" height="76.165" fill="#fff"/>
    </clipPath>
  </defs>
  <g id="Grupo_179509" data-name="Grupo 179509" transform="translate(1053.9 4747.146)">
    <circle id="Elipse_5466" data-name="Elipse 5466" cx="56" cy="56" r="56" transform="translate(-1053.9 -4747.146)" fill="#12263f"/>
    <g id="Grupo_179372" data-name="Grupo 179372" transform="translate(-1033.638 -4725.675)">
      <g id="Grupo_179371" data-name="Grupo 179371" clip-path="url(#clip-path)">
        <path id="Trazado_228303" data-name="Trazado 228303" d="M20.627,27.922H18.243q-7.123,0-14.245-.006A3.681,3.681,0,0,1,.337,25.564,4.385,4.385,0,0,1,.04,24C0,22.6.1,21.189.011,19.79A4.016,4.016,0,0,1,3.784,15.2V12.821a12.01,12.01,0,0,1-1.822-.653A3.5,3.5,0,0,1,.047,9.048C0,7.253,0,5.455.044,3.66A3.733,3.733,0,0,1,3.829.013C6.037-.011,8.247.007,10.456.007H32.69a3.832,3.832,0,0,1,4.129,4.139c0,1.466,0,2.932,0,4.4a3.811,3.811,0,0,1-3.5,4.131c-.08.013-.157.039-.271.067v2.452c.387.083.758.131,1.107.244a3.771,3.771,0,0,1,2.662,3.64c.016,1.194,0,2.388,0,3.662.845-.268,1.627-.492,2.385-.78.14-.053.228-.359.261-.561.257-1.61.491-3.223.74-4.834.151-.972.552-1.311,1.539-1.311q3.964,0,7.928,0c1.016,0,1.42.356,1.568,1.347.244,1.633.479,3.267.755,4.894a.86.86,0,0,0,.453.537q2.606,1.128,5.241,2.188a.844.844,0,0,0,.689-.066c1.346-.956,2.666-1.948,4-2.924a1.354,1.354,0,0,1,2.117.17q2.761,2.756,5.516,5.518a1.37,1.37,0,0,1,.156,2.166c-.944,1.278-1.88,2.563-2.836,3.832a.745.745,0,0,0-.092.879c.728,1.658,1.425,3.331,2.077,5.02a.879.879,0,0,0,.8.679c1.493.2,2.98.438,4.471.654,1.311.189,1.589.495,1.59,1.8q0,3.809,0,7.618c0,1.17-.321,1.523-1.5,1.7-1.572.233-3.141.484-4.715.7-.339.047-.458.2-.581.508q-1.031,2.58-2.142,5.128a.734.734,0,0,0,.07.877c.978,1.278,1.929,2.578,2.883,3.874a1.345,1.345,0,0,1-.138,2.115q-2.78,2.781-5.565,5.558a1.349,1.349,0,0,1-2.117.155c-1.3-.956-2.6-1.9-3.877-2.878a.747.747,0,0,0-.881-.074c-1.72.741-3.463,1.43-5.185,2.167a.85.85,0,0,0-.44.543c-.272,1.649-.486,3.307-.752,4.957-.152.941-.575,1.27-1.52,1.271q-3.995,0-7.99,0c-.983,0-1.379-.35-1.525-1.323-.244-1.633-.5-3.263-.727-4.9-.047-.344-.207-.461-.511-.584-1.7-.684-3.4-1.38-5.067-2.128a.818.818,0,0,0-.982.092c-1.279.976-2.582,1.923-3.876,2.88a1.325,1.325,0,0,1-2.031-.119q-2.857-2.835-5.69-5.694a1.29,1.29,0,0,1-.116-1.978c.978-1.33,1.955-2.661,2.949-3.979a.659.659,0,0,0,.06-.773c-.73-1.7-1.439-3.415-2.113-5.14a.75.75,0,0,0-.674-.575c-1.553-.213-3.1-.46-4.655-.683-1.169-.168-1.485-.517-1.485-1.7q0-3.933,0-7.866c0-.991.335-1.374,1.322-1.523,1.591-.24,3.182-.484,4.777-.7a.8.8,0,0,0,.712-.617c.674-1.7,1.389-3.39,2.13-5.065a.688.688,0,0,0-.069-.822q-1.4-1.849-2.766-3.73c-.271-.375-.468-.8-.765-1.319M63.277,67.707c1.417-1.429,2.777-2.812,4.151-4.18.263-.262.165-.444-.016-.686-.914-1.223-1.791-2.475-2.73-3.679a1.574,1.574,0,0,1-.076-2.034,21.046,21.046,0,0,0,2.619-6.319,1.377,1.377,0,0,1,1.253-1.17c1.553-.22,3.1-.48,4.654-.688.42-.056.545-.212.54-.627q-.031-2.6,0-5.2c.006-.441-.12-.607-.571-.665-1.515-.194-3.021-.451-4.534-.655a1.479,1.479,0,0,1-1.383-1.265,22.016,22.016,0,0,0-2.467-6.119c-.671-1.141-.658-1.314.133-2.381.944-1.274,1.885-2.55,2.795-3.78l-4.479-4.473c-1.316.972-2.676,1.942-4,2.965a1.552,1.552,0,0,1-1.98.108,21.667,21.667,0,0,0-6.319-2.624,1.49,1.49,0,0,1-1.245-1.409c-.2-1.493-.448-2.979-.651-4.471-.058-.425-.208-.586-.664-.581-1.693.02-3.386-.009-5.079-.014-.218,0-.436.026-.673.041-.259,1.731-.525,3.4-.751,5.075A1.506,1.506,0,0,1,40.6,24.244c-1.225.36-2.432.785-3.638,1.208a1.112,1.112,0,0,0-.57.422,4,4,0,0,1-3.816,2.056c-2.663-.028-5.327-.013-7.99,0a3.384,3.384,0,0,0-.743.173,4.611,4.611,0,0,0,.344.68c.826,1.135,1.642,2.278,2.512,3.379a1.664,1.664,0,0,1,.13,2.146,20.316,20.316,0,0,0-2.561,6.077c-.257,1.09-.5,1.281-1.631,1.446-1.45.212-2.9.438-4.349.634-.372.05-.529.167-.524.577q.033,2.663,0,5.327c0,.4.141.527.523.579,1.554.214,3.1.476,4.654.691a1.4,1.4,0,0,1,1.3,1.2,21.368,21.368,0,0,0,2.623,6.384,1.522,1.522,0,0,1-.1,1.93c-.929,1.212-1.83,2.445-2.718,3.688-.108.151-.165.511-.072.608,1.371,1.425,2.77,2.822,4.2,4.26,1.379-1.019,2.719-1.977,4.021-2.984a1.648,1.648,0,0,1,2.094-.15,22.026,22.026,0,0,0,6.377,2.648,1.411,1.411,0,0,1,1.152,1.344c.2,1.513.454,3.02.658,4.533.057.426.2.6.659.579.741-.041,1.486-.011,2.229-.011h3.509c.261-1.727.517-3.4.765-5.065.132-.891.387-1.214,1.224-1.416a23.235,23.235,0,0,0,6.386-2.633,1.519,1.519,0,0,1,1.882.089c1.346,1.021,2.716,2.01,4.152,3.069M12.737,25.36c.163.018.263.038.363.038q9.909,0,19.818,0A1.237,1.237,0,0,0,34.3,24.011c.009-1.486,0-2.973,0-4.459,0-1.437-.355-1.8-1.789-1.8H12.737Zm-.015-15.233c.222.016.382.039.542.039q9.786,0,19.573,0c1,0,1.458-.48,1.461-1.5q.006-2.292,0-4.584c0-1.117-.45-1.561-1.587-1.562q-9.662,0-19.325,0c-.217,0-.433.021-.665.033Zm-6.336,5.1H30.444V12.742H6.386Zm3.806,6.389c0-1.113-.014-2.226.008-3.339.008-.407-.133-.537-.534-.534-1.9.016-3.793,0-5.689.015-.986.009-1.432.475-1.436,1.46q-.011,2.381,0,4.761A1.263,1.263,0,0,0,3.958,25.4c1.9.011,3.793-.009,5.689.013.448.005.561-.16.553-.575-.021-1.071-.007-2.144-.007-3.215m0-15.231h0c0-1.113-.008-2.226,0-3.338,0-.342-.059-.535-.468-.532-1.957.014-3.915-.011-5.872.012A1.232,1.232,0,0,0,2.546,3.864q-.02,2.473,0,4.945A1.242,1.242,0,0,0,3.9,10.163c1.937.015,3.874,0,5.811.011.389,0,.5-.149.491-.509-.014-1.092-.005-2.184-.005-3.276" transform="translate(0 0)" fill="#fff"/>
        <path id="Trazado_228304" data-name="Trazado 228304" d="M42.526,164.082a1.252,1.252,0,0,0-1.245,1.272,1.249,1.249,0,1,0,1.245-1.272" transform="translate(-36.167 -143.755)" fill="#fff"/>
        <path id="Trazado_228305" data-name="Trazado 228305" d="M235.928,252.36a16.5,16.5,0,1,1,16.491,16.518,16.5,16.5,0,0,1-16.491-16.518m21.552,12.993a13.86,13.86,0,0,0,8.768-15.055,13.982,13.982,0,0,0-27.755.887c-.5,6.151,3.871,13.176,8.835,14.124.009-.207.025-.408.026-.608,0-1.383-.019-2.767.014-4.149a1.031,1.031,0,0,0-.536-.994,10.138,10.138,0,0,1,.964-17.447c1.164-.63,2.069-.071,2.073,1.247.007,2.126,0,4.253.007,6.379a1.274,1.274,0,0,0,1.379,1.4c.722.019,1.445.006,2.167,0,1.078-.005,1.545-.47,1.547-1.547,0-2.126-.011-4.253.011-6.379a1.25,1.25,0,0,1,1.928-1.178,9.708,9.708,0,0,1,4.482,4.382,10.119,10.119,0,0,1-3.491,13.25c-.171.115-.4.317-.4.482-.029,1.709-.018,3.42-.018,5.2m-2.51.892V265.4c0-1.982.014-3.964-.008-5.945a1.59,1.59,0,0,1,.957-1.573,7.586,7.586,0,0,0,1.556-12.442c0,.432,0,.69,0,.948,0,1.156.013,2.312,0,3.468a3.73,3.73,0,0,1-3.641,3.779c-.927.039-1.858.037-2.786,0a3.692,3.692,0,0,1-3.667-3.558c-.064-1.111-.021-2.228-.026-3.343,0-.379,0-.758,0-1.137l-.221-.122c-.156.213-.3.436-.47.637a7.593,7.593,0,0,0,2.215,11.74,1.667,1.667,0,0,1,1,1.671c-.031,1.981-.01,3.964-.01,5.945v.779Z" transform="translate(-206.701 -206.685)" fill="#fff"/>
        <path id="Trazado_228306" data-name="Trazado 228306" d="M132.081,166.495c-2.248,0-4.5.014-6.744-.014a1.582,1.582,0,0,1-1.07-.323,1.55,1.55,0,0,1-.363-1.2c.09-.358.542-.65.883-.908.136-.1.4-.052.6-.052q6.621,0,13.241,0c.144,0,.289-.006.433.005a1.271,1.271,0,0,1,1.219,1.243,1.229,1.229,0,0,1-1.211,1.237c-1.3.027-2.6.01-3.9.011h-3.094" transform="translate(-108.535 -143.672)" fill="#fff"/>
        <path id="Trazado_228307" data-name="Trazado 228307" d="M131.543,41.091q3.438,0,6.875,0a1.266,1.266,0,0,1,1.223.687,1.177,1.177,0,0,1-.083,1.287,1.426,1.426,0,0,1-1.307.555l-9.538,0c-1.3,0-2.6,0-3.9,0-.931,0-1.5-.5-1.487-1.287.015-.767.563-1.235,1.468-1.237q3.376-.005,6.751,0" transform="translate(-108.046 -35.999)" fill="#fff"/>
        <path id="Trazado_228308" data-name="Trazado 228308" d="M42.526,164.082a1.258,1.258,0,1,1-1.245,1.272,1.252,1.252,0,0,1,1.245-1.272" transform="translate(-36.167 -143.755)" fill="#fff"/>
        <path id="Trazado_228309" data-name="Trazado 228309" d="M42.544,43.615a1.248,1.248,0,1,1-.027-2.5,1.261,1.261,0,0,1,1.247,1.207,1.24,1.24,0,0,1-1.22,1.289" transform="translate(-36.155 -36.025)" fill="#fff"/>
      </g>
    </g>
  </g>
</svg>
