<svg id="Grupo_57027" data-name="Grupo 57027" xmlns="http://www.w3.org/2000/svg" xmlns:xlink="http://www.w3.org/1999/xlink" width="87.938" height="87.938" viewBox="0 0 87.938 87.938">
  <defs>
    <radialGradient id="radial-gradient" cx="0.076" cy="0.019" r="1.465" gradientTransform="translate(0.001)" gradientUnits="objectBoundingBox">
      <stop offset="0" stop-color="#f6f6f7"/>
      <stop offset="0.477" stop-color="#f9f9fa"/>
      <stop offset="0.715" stop-color="#fff"/>
    </radialGradient>
  </defs>
  <g id="Grupo_18531" data-name="Grupo 18531" transform="translate(0)">
    <g id="Grupo_18423" data-name="Grupo 18423" transform="translate(0 0)">
      <g id="Grupo_18421" data-name="Grupo 18421">
        <g id="Grupo_18420" data-name="Grupo 18420">
          <g id="Grupo_18419" data-name="Grupo 18419">
            <path id="Trazado_40936" data-name="Trazado 40936" d="M282.561,2189.689a43.969,43.969,0,1,1-43.968-43.968A43.968,43.968,0,0,1,282.561,2189.689Z" transform="translate(-194.623 -2145.721)" fill="#fff"/>
          </g>
        </g>
      </g>
      <path id="Trazado_40937" data-name="Trazado 40937" d="M282.292,2189.4a43.968,43.968,0,1,0-43.968,43.97A43.8,43.8,0,0,0,282.292,2189.4Z" transform="translate(-194.354 -2145.428)" fill="url(#radial-gradient)"/>
      <path id="Trazado_40938" data-name="Trazado 40938" d="M269.554,2187.082a33.561,33.561,0,1,0-33.561,33.561A33.437,33.437,0,0,0,269.554,2187.082Z" transform="translate(-191.89 -2142.967)" fill="none" stroke="#0b67d1" stroke-miterlimit="10" stroke-width="5"/>
      <g id="Grupo_18422" data-name="Grupo 18422" transform="translate(7.79 24.685)">
        <path id="Trazado_40939" data-name="Trazado 40939" d="M276.248,2164.488a43.974,43.974,0,0,1-75.7,43.787,43.834,43.834,0,0,0,75.7-43.787Z" transform="translate(-200.545 -2164.488)" fill="#eceef0"/>
      </g>
    </g>
  </g>
  <g id="LwdD94.tif" transform="translate(2584.195 -253.642)">
    <g id="Grupo_157288" data-name="Grupo 157288" transform="translate(-2560.549 277.279)">
      <path id="Trazado_197625" data-name="Trazado 197625" d="M-2539.564,317.944h-1.311a.906.906,0,0,0-.175-.083,4.024,4.024,0,0,1-2.857-2.348.773.773,0,0,0-.349-.342,1.977,1.977,0,0,1-1.163-1.389,1.907,1.907,0,0,1,.352-1.626l-.5-1.7c-1.267,1.268-2.553,2.564-3.853,3.847a1.934,1.934,0,0,1-.637.413c-1.861.728-3.731,1.436-5.595,2.158-.895.347-1.783.711-2.674,1.067h-.9c-1.38-.787-1.584-1.383-1-2.912.966-2.517,1.927-5.036,2.9-7.548a2.126,2.126,0,0,1,.462-.7q2.622-2.649,5.269-5.273a.5.5,0,0,0,.144-.6,8.92,8.92,0,0,1-.469-1.936c-.076-1.091-.021-2.192-.021-3.3.012,0-.013-.012-.039-.012q-2.006,0-4.013-.008a8.776,8.776,0,0,1-1.1-.022,3.967,3.967,0,0,1-3.432-3.446,3.966,3.966,0,0,1,2.5-4.138c.086-.034.17-.072.193-.082a20.984,20.984,0,0,1,.016-2.562,6.526,6.526,0,0,1,6.186-5.477,6.5,6.5,0,0,1,5.915,3.229.457.457,0,0,0,.373.173,5.206,5.206,0,0,1,5.615,2.294.666.666,0,0,0,.386.226c.813.164,1.634.288,2.443.469a.614.614,0,0,0,.674-.173c2.423-2.442,4.846-4.885,7.3-7.3a5.032,5.032,0,0,1,5.163-1.341,5.112,5.112,0,0,1,3.709,3.839c.049.183.1.365.149.548v1.475c-.023.032-.062.061-.068.1a5.526,5.526,0,0,1-1.692,3.1c-2.191,2.171-4.341,4.384-6.562,6.524a1.549,1.549,0,0,0-.541,1.879,11.84,11.84,0,0,1,.374,2.023h1.279c0,.421,0,.8,0,1.183a1.27,1.27,0,0,0,.769,1.282,1.221,1.221,0,0,0,1.485-.33c.286-.289.543-.607.781-.875l2.863,2.864c-.28.268-.59.554-.886.852a1.206,1.206,0,0,0-.3,1.422,1.254,1.254,0,0,0,1.228.791c.423.007.846,0,1.269,0v3.933c-.423,0-.846-.007-1.269,0a1.242,1.242,0,0,0-1.227.789,1.218,1.218,0,0,0,.3,1.424c.3.3.606.585.854.823l-2.826,2.84c-.241-.253-.51-.542-.785-.826a1.224,1.224,0,0,0-1.448-.344,1.278,1.278,0,0,0-.807,1.3c0,.391,0,.782,0,1.171h-3.929v-1.175a1.272,1.272,0,0,0-.771-1.282,1.215,1.215,0,0,0-1.484.333c-.285.289-.542.607-.916,1.031l-.743-.967a2.067,2.067,0,0,1-1.334,1.99.581.581,0,0,0-.243.288,3.527,3.527,0,0,1-1.312,1.638A16.221,16.221,0,0,1-2539.564,317.944Zm-14.4-26.244c-.033-.186-.062-.36-.1-.532a2.6,2.6,0,0,0-3.048-2,2.586,2.586,0,0,0-2.065,3,2.606,2.606,0,0,0,2.673,2.177q8.722.007,17.445,0c.068,0,.137,0,.2,0a1.985,1.985,0,0,0,1.878-1.693,1.976,1.976,0,0,0-1.115-2.047,1.894,1.894,0,0,0-2.348.57,6.635,6.635,0,0,0-.546,1.175h-1.214a3.012,3.012,0,0,1,1.339-2.568,1.347,1.347,0,0,0,.627-1.26,3.916,3.916,0,0,0-.059-.65,3.913,3.913,0,0,0-3.683-3.349,3.96,3.96,0,0,0-3.963,2.87c-.1.344-.075.512.3.671a2.371,2.371,0,0,1,1.463,2.326h-1.239c-.217-.842-.645-1.26-1.3-1.285s-1.082.373-1.4,1.277h-1.247a2.538,2.538,0,0,1,1.679-2.412.489.489,0,0,0,.355-.428,5.1,5.1,0,0,1,1.93-3.221c.178-.142.365-.274.544-.408a5.179,5.179,0,0,0-6.691-2.194,5.13,5.13,0,0,0-2.859,6.061c2.213.287,3.863,2.035,3.681,3.922Zm15.073-2.62c.049.009.088.019.127.022a3.3,3.3,0,0,1,3.121,2.975,3.254,3.254,0,0,1-2.688,3.519,7.9,7.9,0,0,1-1.386.056c-.814.008-1.628,0-2.473,0,0,.605,0,1.162,0,1.719,0,.683.223.9.909.905,1.638,0,3.276,0,4.914,0a1.951,1.951,0,0,1,2.041,1.942,1.952,1.952,0,0,1-2.038,1.986q-3.092,0-6.183,0a1.89,1.89,0,0,0-.367.012.633.633,0,0,0-.573.644.637.637,0,0,0,.572.645,1.415,1.415,0,0,0,.286.012c.368,0,.737,0,1.106,0a1.942,1.942,0,0,1,1.954,1.945c.008,1.088,0,2.175,0,3.3.983,0,1.922.007,2.861-.011.089,0,.2-.145.261-.244a23.3,23.3,0,0,1,1.538-2.3c.875-1.026,1.861-1.957,2.808-2.921a7.843,7.843,0,0,0,2.26-7.044,10.325,10.325,0,0,0-6.692-8.409,22,22,0,0,0-2.462-.694C-2538.954,287.858-2538.921,288.452-2538.887,289.08Zm-1.988,19.677c0-1.107.01-2.17,0-3.233a.659.659,0,0,0-.707-.689c-.4-.014-.792,0-1.187,0a1.952,1.952,0,0,1-2.031-1.953,1.949,1.949,0,0,1,2.046-1.977q3.072,0,6.144,0a2.275,2.275,0,0,0,.408-.014.641.641,0,0,0,.493-.926.748.748,0,0,0-.758-.375q-2.477.006-4.956,0a1.949,1.949,0,0,1-2.067-2.08c0-.609,0-1.218,0-1.853-2.29,0-4.527,0-6.764.009a.356.356,0,0,0-.269.206,7.628,7.628,0,0,0,1.028,5.923,21.58,21.58,0,0,0,2.339,2.673,13.768,13.768,0,0,1,3.265,4.291Zm16.863,3.335.9-.881a2.542,2.542,0,0,1-.507-2.829,2.566,2.566,0,0,1,2.374-1.609V305.5c-2.377-.18-3.25-2.314-1.862-4.47l-.878-.889a2.55,2.55,0,0,1-2.61.634,2.619,2.619,0,0,1-1.812-1.981l-.753,2.737a4.6,4.6,0,0,1,4.655,4.223,4.592,4.592,0,0,1-3.606,4.878,4.494,4.494,0,0,1-3.166-.467,4.657,4.657,0,0,1-2.365-3.408,7.926,7.926,0,0,0-1.713,2.63.405.405,0,0,0,.074.292A2.016,2.016,0,0,1-2535,311.1a.445.445,0,0,0,.085.314c.216.262.455.505.7.767a2.587,2.587,0,0,1,2.886-.581,2.576,2.576,0,0,1,1.625,2.416h1.265A2.636,2.636,0,0,1-2524.012,312.093Zm-4.687-31.585,5.595,5.6c2.258-2.015,2.541-4.6.651-6.381C-2523.97,278.292-2526.653,277.914-2528.7,280.508Zm-24.68,29.2,4.742-4.752-2.019-2.348-4.909,4.912Zm-2.967-.979a.092.092,0,0,0-.038.038c-.521,1.344-1.044,2.686-1.548,4.036a.448.448,0,0,0,.121.366c.674.694,1.371,1.368,2.042,2.064a.384.384,0,0,0,.5.088c.618-.25,1.241-.484,1.863-.724l2.111-.817Zm4.075,1.99,2.293,2.293c1.421-1.424,2.878-2.88,4.327-4.344a.337.337,0,0,0,.065-.306,10.534,10.534,0,0,0-1.959-2.373Zm26.469-4.569a3.3,3.3,0,0,0-3.29-3.273,1.648,1.648,0,0,0-1.485.672,8.264,8.264,0,0,1-1.277,1.377,1.514,1.514,0,0,0-.5,1.233,3.311,3.311,0,0,0,3.3,3.267A3.312,3.312,0,0,0-2525.8,306.145Zm-2.621-19.288-2.929,2.921,1.8,2.684,3.371-3.368Zm-1.074-1-2.235-2.232-3.326,3.326,2.693,1.805Zm-1.178-3.376,5.545,5.545.91-.843-5.58-5.581Zm-9.556,28.908q1.533,0,3.065,0c.546,0,.867-.24.875-.645s-.315-.667-.852-.668q-3.085,0-6.171,0c-.51,0-.825.25-.834.644s.316.667.851.668C-2542.275,311.392-2541.253,311.39-2540.232,311.39Zm.005,2.622c1.062,0,2.125.005,3.188,0a.682.682,0,0,0,.747-.648.674.674,0,0,0-.734-.66c-2.125-.006-4.25-.011-6.375.01a.871.871,0,0,0-.613.307.661.661,0,0,0-.026.625,1,1,0,0,0,.667.353C-2542.325,314.033-2541.276,314.012-2540.227,314.012Zm2.287,1.334h-4.563a2.63,2.63,0,0,0,2.284,1.275A2.621,2.621,0,0,0-2537.939,315.346Zm-19.048.622-1.575-1.571c-.2.519-.422,1.059-.6,1.613a.568.568,0,0,0,.1.468.494.494,0,0,0,.434.105C-2558.066,316.4-2557.518,316.171-2556.988,315.968Z" transform="translate(2560.549 -277.279)" fill="#12263f"/>
      <path id="Trazado_197626" data-name="Trazado 197626" d="M-2197.161,606.963a1.952,1.952,0,0,1-1.97,1.97,1.95,1.95,0,0,1-1.958-1.981A1.951,1.951,0,0,1-2199.14,605,1.95,1.95,0,0,1-2197.161,606.963Zm-1.313,0a.682.682,0,0,0-.658-.645.682.682,0,0,0-.645.658.682.682,0,0,0,.657.646A.685.685,0,0,0-2198.474,606.962Z" transform="translate(2230.595 -578.103)" fill="#12263f"/>
    </g>
  </g>
</svg>
