<svg xmlns="http://www.w3.org/2000/svg" xmlns:xlink="http://www.w3.org/1999/xlink" width="250.848" height="252.151" viewBox="0 0 250.848 252.151">
  <defs>
    <clipPath id="clip-path">
      <path id="Trazado_97723" data-name="Trazado 97723" d="M249.124,236.66c.037,3.892-1.032,10.805-3.2,12.2a6.32,6.32,0,0,1-4.288.791s-2.088,3.342-4.374,3.244a7.14,7.14,0,0,1-3.892-1.557s-.111.247-.315.605v33.312a10.258,10.258,0,0,1-5.98,9.52,8.789,8.789,0,0,1-3.484.717H130.153c-5.239,0-9.477-4.578-9.477-10.237v-149.6L90.829,141.03l-.346.062a2.857,2.857,0,0,1-.859-.019c-2.657-.47-4.337-4.745-4.807-11.034-1.229.247-2.459.47-3.694.686-1.514.259-3.027.513-4.553.723l-2.286.309c-.76.08-1.526.179-2.292.241.741-.2,1.5-.358,2.243-.544l2.255-.476c1.5-.321,3.015-.587,4.529-.859,1.254-.21,2.5-.426,3.762-.605a57.378,57.378,0,0,1-.006-6.363l-2.6.13c-2.255.105-4.51.161-6.765.222-2.261.037-4.516.08-6.777.074s-4.516-.006-6.777-.087c2.255-.173,4.51-.284,6.771-.383s4.51-.167,6.765-.222,4.516-.086,6.777-.08l2.626.006a76.1,76.1,0,0,1,1.069-9.125l.019-.093c-1.291-.2-2.582-.42-3.874-.636-2.607-.439-5.208-.927-7.809-1.384-2.595-.513-5.2-.995-7.784-1.532l-3.886-.809c-1.285-.3-2.582-.568-3.867-.883,1.31.179,2.619.389,3.923.581l3.917.649c2.607.432,5.208.927,7.809,1.384,2.595.513,5.2.995,7.784,1.532,1.279.266,2.558.531,3.837.809a75.413,75.413,0,0,1,2.57-10.219l-2-1.378c-1.89-1.3-3.75-2.632-5.61-3.966s-3.7-2.7-5.523-4.084-3.645-2.774-5.424-4.22c1.928,1.236,3.818,2.533,5.7,3.837s3.75,2.632,5.61,3.966,3.7,2.694,5.523,4.084l1.841,1.4a50.41,50.41,0,0,1,2.2-5.5c-.871-.772-1.724-1.575-2.57-2.379-.982-.945-1.958-1.89-2.9-2.873s-1.9-1.958-2.792-2.99c1.069.846,2.1,1.748,3.12,2.65s2.014,1.835,3,2.768c.8.766,1.594,1.538,2.379,2.329,2.453-5,5.251-7.933,7.71-7.5a2.772,2.772,0,0,1,.815.278V89.5l.037.025,21.061,12.257V85.05c0-11.528,4.238-12.09,9.477-12.09h18.72c1.087,0,1.977,1.236,1.977,2.768v.661c0,3.589,1.965,3.6,4.374,3.6h43.283c2.434,0,4.386-.012,4.386-3.6v-.661c0-1.532.877-2.768,1.983-2.768H223.59c5.227,0,9.465,1.532,9.465,12.09v88.7a37.659,37.659,0,0,1,3.707,6.438c3.274,7.976,9.31,37.488,9.31,37.488l-1.328.105c.136.964.241,1.847.315,2.644v.006C246.01,223.785,249.093,233.133,249.124,236.66Z" transform="translate(-58.66 -72.96)" fill="none"/>
    </clipPath>
  </defs>
  <g id="Grupo_179255" data-name="Grupo 179255" transform="translate(-46.985 -36.631)">
    <g id="Background_Complete" data-name="Background Complete" transform="translate(54.138 36.631)">
      <g id="Grupo_46908" data-name="Grupo 46908" transform="translate(0 94.077)">
        <path id="Trazado_97594" data-name="Trazado 97594" d="M59.691,213.062A17.911,17.911,0,1,1,82.719,223.61,17.91,17.91,0,0,1,59.691,213.062Z" transform="translate(-58.563 -188.906)" fill="#ebebeb"/>
        <path id="Trazado_97595" data-name="Trazado 97595" d="M90.423,213.457c-2.055,5.734-8.072,9.7-8.072,9.7s-6.77-2.469-10.086-7.576c-2.767-4.259-1.92-9.312,1.488-10.792,4.885-2.124,7.216,6.544,7.216,6.544s.268-8.971,5.517-8.032C90.143,203.954,92.132,208.674,90.423,213.457Z" transform="translate(-63.168 -194.381)" fill="#fff"/>
      </g>
      <g id="Grupo_46910" data-name="Grupo 46910" transform="translate(196.296 133.823)">
        <path id="Trazado_97596" data-name="Trazado 97596" d="M402.283,287.139a17.907,17.907,0,0,1-18.766-1.62,17.909,17.909,0,1,1,18.766,1.62Z" transform="translate(-376.293 -253.241)" fill="#ebebeb"/>
        <g id="Grupo_46909" data-name="Grupo 46909" transform="translate(7.224 10.423)">
          <path id="Trazado_97597" data-name="Trazado 97597" d="M407.625,276.028a5.45,5.45,0,1,1-4.963-5.9A5.45,5.45,0,0,1,407.625,276.028Z" transform="translate(-391.334 -270.111)" fill="#fff"/>
          <path id="Trazado_97598" data-name="Trazado 97598" d="M406.945,298.158l-.193,2.24a17.907,17.907,0,0,1-18.766-1.62l.191-2.232a9.418,9.418,0,1,1,18.767,1.612Z" transform="translate(-387.986 -276.923)" fill="#fff"/>
        </g>
      </g>
      <g id="Grupo_46912" data-name="Grupo 46912" transform="translate(180.099 0)">
        <circle id="Elipse_3885" data-name="Elipse 3885" cx="19.675" cy="19.675" r="19.675" transform="translate(0 15.422) rotate(-23.073)" fill="#ebebeb"/>
        <g id="xsrjP0" transform="translate(13.248 12.587)">
          <g id="Grupo_46911" data-name="Grupo 46911">
            <path id="Trazado_97599" data-name="Trazado 97599" d="M386.348,78.056c-.52-.327-.973-.8-1.671-.735-.268.027-.208-.2-.21-.34q-.006-3.933-.006-7.862c0-.19.012-.347.22-.452,2-1.009,2.869-3,4.1-4.692a7.831,7.831,0,0,0,1.452-5.946c-.083-.59.192-.854.723-.975a1.314,1.314,0,0,1,1.5.47,10.556,10.556,0,0,1,1.143,3.434,12.308,12.308,0,0,1-.364,2.945c-.091.72-.259,1.431-.4,2.16.175.127.379.061.568.064q3.32.006,6.642,0c.933,0,1.389.268,1.519.887a1.774,1.774,0,0,1-.964,1.92c-.165.083-.465.008-.485.268s.289.237.442.343c.8.55.652,1.684-.275,2.339-.223.156-.655.084-.667.411,0,.261.4.258.583.442a1.5,1.5,0,0,1-.641,2.315,2.952,2.952,0,0,0-.389.15c-.11.074-.217.156,0,.308a1.3,1.3,0,0,1-.027,2.334l-.289.207a1.872,1.872,0,0,1-1.166.255q-5.208.01-10.415,0A1.235,1.235,0,0,1,386.348,78.056Z" transform="translate(-376.467 -57.004)" fill="#fff" fill-rule="evenodd"/>
            <path id="Trazado_97600" data-name="Trazado 97600" d="M371.53,80.2c0-1.664.008-3.331-.006-4.995,0-.339.032-.505.447-.5q3.048.037,6.092,0c.4,0,.46.133.458.487q-.017,5.026,0,10.052c0,.426-.114.547-.542.539-1.97-.022-3.94-.027-5.908,0-.491.007-.558-.164-.553-.593C371.546,83.53,371.53,81.866,371.53,80.2Z" transform="translate(-371.521 -63.769)" fill="#fff" fill-rule="evenodd"/>
          </g>
        </g>
      </g>
      <g id="Grupo_46913" data-name="Grupo 46913" transform="translate(12.133 183.737)">
        <path id="Trazado_97601" data-name="Trazado 97601" d="M99.905,372.647c1.017,6.6-2.707,13.555-2.707,13.555s-7.808,1.158-13.67-2.026c-4.889-2.656-6.712-7.964-4.2-11.169,3.6-4.6,10.366,2.532,10.366,2.532s-4.428-8.779,1.117-10.616C94.672,363.642,99.053,367.149,99.905,372.647Z" transform="translate(-78.203 -345.738)" fill="#ebebeb"/>
        <path id="Trazado_97602" data-name="Trazado 97602" d="M126.226,344.712c-2.952,3.925-8.532,5.539-8.532,5.539s-4.623-3.518-5.957-8.242c-1.113-3.941.746-7.629,3.724-7.954,4.269-.468,3.993,6.763,3.993,6.763s2.35-6.844,6.166-4.867C128.281,337.327,128.685,341.437,126.226,344.712Z" transform="translate(-90.895 -334.033)" fill="#ebebeb"/>
      </g>
    </g>
    <g id="Floor" transform="translate(46.985 281.301)">
      <path id="Trazado_97603" data-name="Trazado 97603" d="M46.985,432.969l31.356-.15,31.356-.055,62.712-.1,62.712.1,31.356.054,31.356.151-31.356.151-31.356.054-62.712.1-62.712-.1-31.356-.055Z" transform="translate(-46.985 -432.661)" fill="#263238"/>
    </g>
    <g id="Device" transform="translate(109.618 52.255)">
      <g id="Grupo_46938" data-name="Grupo 46938">
        <g id="Grupo_46937" data-name="Grupo 46937">
          <path id="Trazado_97604" data-name="Trazado 97604" d="M263.37,61.92H158.929a10.663,10.663,0,0,0-10.564,10.762v215a10.671,10.671,0,0,0,10.564,10.762H263.37a10.677,10.677,0,0,0,10.577-10.762v-215A10.669,10.669,0,0,0,263.37,61.92Zm3.972,219.117c0,5.659-4.238,10.237-9.465,10.237H164.44c-5.239,0-9.477-4.578-9.477-10.237V80.831c0-11.528,4.238-12.09,9.477-12.09h18.713c1.087,0,1.977,1.236,1.977,2.768v.661c0,3.589,1.965,3.6,4.38,3.6h43.283c2.434,0,4.38-.012,4.38-3.6v-.661c0-1.532.877-2.768,1.983-2.768h18.72c5.227,0,9.465,1.532,9.465,12.09Z" transform="translate(-148.365 -61.92)" fill="#12263f"/>
          <path id="Trazado_97605" data-name="Trazado 97605" d="M251.8,76.181H239.99a.729.729,0,0,1-.73-.729h0a.73.73,0,0,1,.73-.73H251.8a.73.73,0,0,1,.73.73h0A.729.729,0,0,1,251.8,76.181Z" transform="translate(-183.105 -66.813)" fill="#fff"/>
          <line id="Línea_1518" data-name="Línea 1518" x1="0.352" transform="translate(6.246 206.428)" fill="none"/>
          <g id="Grupo_46936" data-name="Grupo 46936" transform="translate(6.595 6.821)">
            <path id="Trazado_97606" data-name="Trazado 97606" d="M271.424,85.05V285.257c0,5.659-4.238,10.237-9.465,10.237H168.522c-5.239,0-9.477-4.578-9.477-10.237V85.05c0-11.528,4.238-12.09,9.477-12.09h18.713c1.087,0,1.977,1.236,1.977,2.768v.661c0,3.589,1.965,3.6,4.38,3.6h43.284c2.434,0,4.38-.012,4.38-3.6v-.661c0-1.532.877-2.768,1.983-2.768h18.72C267.186,72.96,271.424,74.492,271.424,85.05Z" transform="translate(-159.042 -72.96)" fill="#fff"/>
            <path id="Trazado_97607" data-name="Trazado 97607" d="M271.419,85.05V99.989H159.04V85.05c0-11.528,4.238-12.09,9.477-12.09h18.72c1.087,0,1.977,1.236,1.977,2.768v.661c0,3.589,1.965,3.6,4.374,3.6h43.284c2.434,0,4.386-.012,4.386-3.6v-.661c0-1.532.877-2.768,1.983-2.768h18.713C267.181,72.96,271.419,74.492,271.419,85.05Z" transform="translate(-159.04 -72.96)" fill="#7d6eb2"/>
            <g id="Grupo_46915" data-name="Grupo 46915" transform="translate(7.33 13.298)">
              <path id="Trazado_97608" data-name="Trazado 97608" d="M174.225,101.056l-3.32-3.111,3.32-3.11.515.549-2.734,2.562,2.734,2.562Z" transform="translate(-170.905 -94.618)" fill="#fff"/>
              <path id="Trazado_97609" data-name="Trazado 97609" d="M321.622,101.139H319.4v-.77a.186.186,0,0,0-.1-.165,2.756,2.756,0,0,1-.248-.144.189.189,0,0,0-.2-.009l-.668.386-1.11-1.924.668-.385a.185.185,0,0,0,.088-.174c0-.046,0-.094,0-.142s0-.1,0-.142a.189.189,0,0,0-.09-.175l-.668-.385,1.11-1.924.667.385a.187.187,0,0,0,.2-.008,2.478,2.478,0,0,1,.249-.144.187.187,0,0,0,.1-.165v-.77h2.222v.77a.187.187,0,0,0,.1.165,2.551,2.551,0,0,1,.25.144.186.186,0,0,0,.2.008l.667-.385,1.11,1.924-.669.386a.185.185,0,0,0-.089.175c0,.048,0,.095,0,.141s0,.093,0,.139a.185.185,0,0,0,.087.175l.67.387-1.11,1.924-.668-.386a.189.189,0,0,0-.2.009,2.667,2.667,0,0,1-.248.144.186.186,0,0,0-.1.165Zm-1.758-.463h1.295v-.306a.648.648,0,0,1,.357-.578,2.288,2.288,0,0,0,.206-.119.646.646,0,0,1,.68-.022l.267.153.647-1.121-.269-.155a.644.644,0,0,1-.318-.6l0-.117,0-.12a.644.644,0,0,1,.321-.6l.267-.154-.647-1.121-.266.153a.648.648,0,0,1-.68-.022,2.116,2.116,0,0,0-.206-.119.647.647,0,0,1-.358-.578v-.306h-1.295v.306a.648.648,0,0,1-.358.578,1.969,1.969,0,0,0-.206.119.65.65,0,0,1-.681.022l-.266-.153-.646,1.121.266.154a.651.651,0,0,1,.321.6c0,.04,0,.079,0,.118s0,.078,0,.117a.649.649,0,0,1-.319.6l-.266.154.646,1.121.267-.153a.645.645,0,0,1,.681.022,2.093,2.093,0,0,0,.205.118.649.649,0,0,1,.357.578Zm.647-1.194a1.671,1.671,0,1,1,1.672-1.671A1.672,1.672,0,0,1,320.511,99.482Zm0-2.88a1.208,1.208,0,1,0,1.209,1.209A1.21,1.21,0,0,0,320.511,96.6Z" transform="translate(-226.77 -94.484)" fill="#fff"/>
            </g>
            <g id="Grupo_46919" data-name="Grupo 46919" transform="translate(7.33 3.655)">
              <g id="u5Zjqx" transform="translate(13.583)">
                <g id="Grupo_46916" data-name="Grupo 46916">
                  <path id="Trazado_97610" data-name="Trazado 97610" d="M196.942,79.717l-.181.18-.1.1a2.46,2.46,0,0,0-3.487,0c-.032-.033-.064-.069-.1-.1l-.179-.18,0,0v0l.013-.011c.076-.068.15-.138.229-.2a2.827,2.827,0,0,1,1.23-.573c.116-.021.233-.032.35-.046.04,0,.3-.006.306,0,.08.006.159.009.238.018a2.7,2.7,0,0,1,.643.153,2.815,2.815,0,0,1,.435.2,2.72,2.72,0,0,1,.415.29c.065.056.127.114.191.172Z" transform="translate(-192.891 -78.876)" fill="#fff"/>
                  <path id="Trazado_97611" data-name="Trazado 97611" d="M194.1,81.066l-.286-.284a2.016,2.016,0,0,1,1.163-.584,2.038,2.038,0,0,1,1.749.58l-.287.286a1.653,1.653,0,0,0-2.338,0Z" transform="translate(-193.243 -79.373)" fill="#fff"/>
                  <path id="Trazado_97612" data-name="Trazado 97612" d="M196.505,81.849l-.284.284a.845.845,0,0,0-1.2,0l-.284-.284A1.241,1.241,0,0,1,196.505,81.849Z" transform="translate(-193.597 -79.872)" fill="#fff"/>
                </g>
                <path id="Trazado_97613" data-name="Trazado 97613" d="M196.266,82.8a.257.257,0,1,1-.256-.257A.257.257,0,0,1,196.266,82.8Z" transform="translate(-193.985 -80.276)" fill="#fff"/>
              </g>
              <g id="Grupo_46917" data-name="Grupo 46917" transform="translate(0 0.644)">
                <path id="Trazado_97614" data-name="Trazado 97614" d="M170.9,80.662a.745.745,0,1,1,.744.744A.744.744,0,0,1,170.9,80.662Z" transform="translate(-170.905 -79.918)" fill="#fff"/>
                <path id="Trazado_97615" data-name="Trazado 97615" d="M174.7,80.662a.745.745,0,1,1,.744.744A.744.744,0,0,1,174.7,80.662Z" transform="translate(-172.356 -79.918)" fill="#fff"/>
                <path id="Trazado_97616" data-name="Trazado 97616" d="M178.5,80.662a.745.745,0,1,1,.744.744A.744.744,0,0,1,178.5,80.662Z" transform="translate(-173.807 -79.918)" fill="#fff"/>
                <path id="Trazado_97617" data-name="Trazado 97617" d="M182.3,80.662a.745.745,0,1,1,.744.744A.744.744,0,0,1,182.3,80.662Z" transform="translate(-175.259 -79.918)" fill="#fff"/>
                <path id="Trazado_97618" data-name="Trazado 97618" d="M186.093,80.662a.745.745,0,1,1,.744.744A.744.744,0,0,1,186.093,80.662Z" transform="translate(-176.71 -79.918)" fill="#fff"/>
              </g>
              <g id="Grupo_46918" data-name="Grupo 46918" transform="translate(90.557 0.205)">
                <path id="Trazado_97619" data-name="Trazado 97619" d="M323.547,82.017h-6.063V79.208h6.063Zm-5.754-.309h5.445V79.517h-5.445Z" transform="translate(-317.484 -79.208)" fill="#fff"/>
                <rect id="Rectángulo_28296" data-name="Rectángulo 28296" width="3.908" height="1.855" transform="translate(0.503 0.477)" fill="#fff"/>
                <rect id="Rectángulo_28297" data-name="Rectángulo 28297" width="0.539" height="1.502" transform="translate(6.067 0.653)" fill="#fff"/>
              </g>
            </g>
            <path id="Trazado_97620" data-name="Trazado 97620" d="M181.9,410.879h-.855V414.8h-1.6v-2h-2.827v2h-1.6v-3.924h-.855l3.865-3.994Z" transform="translate(-164.824 -200.584)" fill="#ebebeb"/>
            <g id="Grupo_46920" data-name="Grupo 46920" transform="translate(93.727 206.301)">
              <rect id="Rectángulo_28298" data-name="Rectángulo 28298" width="9.315" height="1.331" fill="#ebebeb"/>
              <rect id="Rectángulo_28299" data-name="Rectángulo 28299" width="9.315" height="1.331" transform="translate(0 3.293)" fill="#ebebeb"/>
              <rect id="Rectángulo_28300" data-name="Rectángulo 28300" width="9.315" height="1.331" transform="translate(0 6.586)" fill="#ebebeb"/>
            </g>
            <g id="Grupo_46925" data-name="Grupo 46925" transform="translate(7.33 35.079)">
              <g id="Grupo_46923" data-name="Grupo 46923">
                <g id="Grupo_46922" data-name="Grupo 46922">
                  <path id="Trazado_97621" data-name="Trazado 97621" d="M180.472,141.344a6.169,6.169,0,0,1-1.808.757,6.269,6.269,0,1,1,1.808-.757Z" transform="translate(-170.905 -129.74)" fill="#dbdbdb"/>
                  <g id="Grupo_46921" data-name="Grupo 46921" transform="translate(2.973 3.647)">
                    <path id="Trazado_97622" data-name="Trazado 97622" d="M181.781,137.551a1.908,1.908,0,1,1-1.908-1.908A1.908,1.908,0,0,1,181.781,137.551Z" transform="translate(-176.576 -135.643)" fill="#fff"/>
                    <path id="Trazado_97623" data-name="Trazado 97623" d="M182.311,145.21V146a6.17,6.17,0,0,1-1.808.757,6.234,6.234,0,0,1-4.786-.759v-.785a3.3,3.3,0,0,1,6.594,0Z" transform="translate(-175.717 -138.039)" fill="#fff"/>
                  </g>
                </g>
              </g>
              <g id="Grupo_46924" data-name="Grupo 46924" transform="translate(20.402 0.36)">
                <rect id="Rectángulo_28301" data-name="Rectángulo 28301" width="39.857" height="3.287" fill="#ebebeb"/>
                <rect id="Rectángulo_28302" data-name="Rectángulo 28302" width="34.789" height="2.177" transform="translate(0 5.48)" fill="#ebebeb"/>
                <rect id="Rectángulo_28303" data-name="Rectángulo 28303" width="57.525" height="2.177" transform="translate(0 9.671)" fill="#ebebeb"/>
              </g>
            </g>
            <g id="Grupo_46926" data-name="Grupo 46926" transform="translate(0.003 52.814)">
              <rect id="Rectángulo_28304" data-name="Rectángulo 28304" width="112.36" height="78.685" transform="translate(112.36 78.685) rotate(180)" fill="#ebebeb"/>
              <path id="Trazado_97624" data-name="Trazado 97624" d="M180.3,188.892a9.308,9.308,0,1,0,9.309-9.309A9.308,9.308,0,0,0,180.3,188.892Z" transform="translate(-167.168 -166.525)" fill="#dbdbdb"/>
              <path id="Trazado_97625" data-name="Trazado 97625" d="M239.8,231.9h62.484l-31.242-42.348Z" transform="translate(-189.91 -170.336)" fill="#c7c7c7"/>
              <path id="Trazado_97626" data-name="Trazado 97626" d="M200.156,241.369h51.587l-25.794-27.576Z" transform="translate(-174.757 -179.599)" fill="#dbdbdb"/>
              <rect id="Rectángulo_28305" data-name="Rectángulo 28305" width="112.36" height="16.953" transform="translate(0 61.732)" fill="#dbdbdb"/>
            </g>
            <g id="Grupo_46931" data-name="Grupo 46931" transform="translate(7.33 161.385)">
              <g id="Grupo_46929" data-name="Grupo 46929">
                <g id="Grupo_46928" data-name="Grupo 46928">
                  <path id="Trazado_97627" data-name="Trazado 97627" d="M180.472,345.786a6.168,6.168,0,0,1-1.808.757,6.269,6.269,0,1,1,1.808-.757Z" transform="translate(-170.905 -334.182)" fill="#dbdbdb"/>
                  <g id="Grupo_46927" data-name="Grupo 46927" transform="translate(2.973 3.647)">
                    <path id="Trazado_97628" data-name="Trazado 97628" d="M181.781,341.993a1.908,1.908,0,1,1-1.908-1.908A1.908,1.908,0,0,1,181.781,341.993Z" transform="translate(-176.576 -340.085)" fill="#fff"/>
                    <path id="Trazado_97629" data-name="Trazado 97629" d="M182.311,349.652v.787a6.168,6.168,0,0,1-1.808.757,6.232,6.232,0,0,1-4.786-.76v-.784a3.3,3.3,0,0,1,6.594,0Z" transform="translate(-175.717 -342.481)" fill="#fff"/>
                  </g>
                </g>
              </g>
              <g id="Grupo_46930" data-name="Grupo 46930" transform="translate(20.402 0.36)">
                <rect id="Rectángulo_28306" data-name="Rectángulo 28306" width="51.259" height="3.287" fill="#ebebeb"/>
                <rect id="Rectángulo_28307" data-name="Rectángulo 28307" width="65.435" height="2.177" transform="translate(0 5.48)" fill="#ebebeb"/>
                <rect id="Rectángulo_28308" data-name="Rectángulo 28308" width="22.291" height="2.177" transform="translate(0 9.671)" fill="#ebebeb"/>
              </g>
            </g>
            <g id="Grupo_46932" data-name="Grupo 46932" transform="translate(0.003 179.121)">
              <rect id="Rectángulo_28309" data-name="Rectángulo 28309" width="112.36" height="19.22" fill="#ebebeb"/>
              <path id="Trazado_97630" data-name="Trazado 97630" d="M198.706,390.19H181.185a9.31,9.31,0,0,1,17.521,0Z" transform="translate(-167.507 -370.97)" fill="#dbdbdb"/>
            </g>
            <g id="Grupo_46934" data-name="Grupo 46934" transform="translate(7.446 136.118)">
              <circle id="Elipse_3887" data-name="Elipse 3887" cx="3.719" cy="3.719" r="3.719" fill="#ebebeb"/>
              <g id="xsrjP0-2" data-name="xsrjP0" transform="translate(1.344 1.219)">
                <g id="Grupo_46933" data-name="Grupo 46933">
                  <path id="Trazado_97631" data-name="Trazado 97631" d="M176.072,299.238c-.1-.062-.184-.152-.316-.139-.051,0-.04-.037-.04-.064,0-.5,0-.991,0-1.486,0-.036,0-.065.041-.085.378-.191.542-.567.774-.887a1.482,1.482,0,0,0,.275-1.124c-.016-.111.036-.161.137-.184a.248.248,0,0,1,.282.089,2,2,0,0,1,.216.649,2.341,2.341,0,0,1-.069.557c-.017.136-.049.271-.075.408.033.024.072.012.107.012.419,0,.837,0,1.256,0,.176,0,.263.051.287.168a.335.335,0,0,1-.182.363c-.031.016-.088,0-.091.051s.054.044.083.065c.151.1.124.318-.052.442-.042.03-.124.015-.126.078s.075.048.11.083a.283.283,0,0,1-.121.437.538.538,0,0,0-.074.028c-.02.014-.041.03,0,.058a.247.247,0,0,1,0,.441l-.055.039a.359.359,0,0,1-.221.048q-.984,0-1.968,0A.235.235,0,0,1,176.072,299.238Z" transform="translate(-174.203 -295.258)" fill="#fff" fill-rule="evenodd"/>
                  <path id="Trazado_97632" data-name="Trazado 97632" d="M173.27,299.643c0-.314,0-.629,0-.944,0-.064.006-.1.084-.094q.576.006,1.152,0c.075,0,.087.025.086.092q0,.951,0,1.9c0,.081-.022.1-.1.1-.372,0-.744,0-1.116,0-.093,0-.106-.032-.105-.112C173.273,300.273,173.27,299.958,173.27,299.643Z" transform="translate(-173.268 -296.537)" fill="#fff" fill-rule="evenodd"/>
                </g>
              </g>
            </g>
            <g id="Grupo_46935" data-name="Grupo 46935" transform="translate(15.257 136.117)">
              <path id="Trazado_97633" data-name="Trazado 97633" d="M183.843,297.886a3.719,3.719,0,1,1,4.5,2.731A3.719,3.719,0,0,1,183.843,297.886Z" transform="translate(-183.736 -293.283)" fill="#ffc727"/>
              <path id="Trazado_97634" data-name="Trazado 97634" d="M190.342,298.679a4.766,4.766,0,0,1-1.9,1.805,4.759,4.759,0,0,1-1.9-1.805,1.5,1.5,0,0,1,.567-2.19c1.059-.321,1.33,1.524,1.33,1.524s.272-1.844,1.332-1.524A1.5,1.5,0,0,1,190.342,298.679Z" transform="translate(-184.723 -294.494)" fill="#fff"/>
            </g>
            <rect id="Rectángulo_28310" data-name="Rectángulo 28310" width="52.789" height="2.149" transform="translate(28.348 139.351)" fill="#ebebeb"/>
            <path id="Trazado_97635" data-name="Trazado 97635" d="M159.045,319.129l14.045-.113,14.045-.041,28.09-.078,28.09.077,14.045.041,14.045.113-14.045.113-14.045.041-28.09.077-28.09-.078-14.045-.041Z" transform="translate(-159.042 -166.956)" fill="#ebebeb"/>
          </g>
        </g>
      </g>
    </g>
    <g id="Icons" transform="translate(56.429 75.556)">
      <g id="Grupo_46939" data-name="Grupo 46939" transform="translate(0 96.851)">
        <rect id="Rectángulo_28311" data-name="Rectángulo 28311" width="39.229" height="39.229" transform="translate(0 10.106) rotate(-14.929)" fill="#12263f"/>
        <path id="Trazado_97636" data-name="Trazado 97636" d="M93.057,290.267l-5.082,1.355c-.529-1.986-1.029-3.859-1.556-5.836l4.985-1.329c-.1-.449-.162-.8-.247-1.149-.374-1.541-.846-3.066-1.109-4.626A6.637,6.637,0,0,1,94.085,271a48.88,48.88,0,0,1,6.349-1.75c.483,1.81.923,3.463,1.416,5.311-.77.205-1.541.394-2.3.618a11.043,11.043,0,0,0-2.008.681,1.974,1.974,0,0,0-1.128,2.277c.339,1.506.781,2.989,1.212,4.605l5.8-1.546c.264,1.974.529,3.8.723,5.64.019.178-.365.512-.616.587-1.388.411-2.792.764-4.309,1.168l3.992,14.973-6.17,1.645C95.721,300.257,94.4,295.318,93.057,290.267Z" transform="translate(-71.501 -261.311)" fill="#fff"/>
      </g>
      <g id="Grupo_46941" data-name="Grupo 46941" transform="translate(182.108 137.829)">
        <rect id="Rectángulo_28312" data-name="Rectángulo 28312" width="39.336" height="39.336" transform="translate(3.877 0) rotate(5.657)" fill="#12263f"/>
        <g id="Grupo_46940" data-name="Grupo 46940" transform="translate(6.295 6.234)">
          <path id="Trazado_97637" data-name="Trazado 97637" d="M397.629,341.569c.371-3.921-1.824-6.7-5.706-7.119q-8.053-.879-16.125-1.6a6.073,6.073,0,0,0-6.951,5.726c-.3,2.678-.538,5.367-.8,8.049-.26,2.625-.538,5.251-.777,7.878-.363,4.009,1.826,6.813,5.788,7.246q7.967.876,15.954,1.58a6.124,6.124,0,0,0,7.04-5.84Q396.882,349.536,397.629,341.569Zm-4.153,15.716c-.272,2.474-1.742,3.713-4.225,3.484q-7.98-.74-15.951-1.58c-2.489-.261-3.7-1.762-3.47-4.23q.762-8.049,1.594-16.092a3.544,3.544,0,0,1,4.223-3.5q7.981.735,15.951,1.58a3.554,3.554,0,0,1,3.471,4.254c-.235,2.685-.525,5.365-.79,8.047S393.772,354.606,393.476,357.285Z" transform="translate(-367.227 -332.82)" fill="#fff"/>
          <path id="Trazado_97638" data-name="Trazado 97638" d="M387.968,345.293a7.563,7.563,0,1,0,6.721,8.377A7.551,7.551,0,0,0,387.968,345.293Zm-1.336,12.527a5.1,5.1,0,0,1-4.443-5.442,5.041,5.041,0,0,1,10.033.99A5.109,5.109,0,0,1,386.632,357.82Z" transform="translate(-371.986 -337.572)" fill="#fff"/>
          <path id="Trazado_97639" data-name="Trazado 97639" d="M406.8,345.306a1.567,1.567,0,0,1-1.949,1.378,1.584,1.584,0,0,1-1.451-2.038,1.674,1.674,0,0,1,1.974-1.42A1.694,1.694,0,0,1,406.8,345.306Z" transform="translate(-381.036 -336.796)" fill="#fff"/>
        </g>
      </g>
      <g id="Grupo_46942" data-name="Grupo 46942" transform="translate(182.544 46.394)">
        <rect id="Rectángulo_28313" data-name="Rectángulo 28313" width="29.254" height="29.254" transform="translate(9.807 0) rotate(19.587)" fill="#26aab7"/>
        <path id="Trazado_97640" data-name="Trazado 97640" d="M367.065,201.227a10.068,10.068,0,0,0,6.8.292c-2.26-1.671-2.995-2.8-2.851-4.375l1.729.521a4.956,4.956,0,0,1-1.8-5.49l1.584,1.085c-1.013-2.961-.748-4.883.943-6.164a13.413,13.413,0,0,0,7.385,7.69c.085-.292.146-.513.214-.731a4.385,4.385,0,0,1,3.885-3.3,4.439,4.439,0,0,1,4.568,2.275.932.932,0,0,0,.893.541c.773-.014,1.547-.017,2.4-.024a4.627,4.627,0,0,1-2.429,1.545l0,.14,2.293.208c.018.038.036.076.054.113-.738.354-1.461.741-2.217,1.047a1.191,1.191,0,0,0-.79.774,13.046,13.046,0,0,1-15.571,8.34,13.242,13.242,0,0,1-6.765-4.085C367.279,201.5,367.174,201.361,367.065,201.227Z" transform="translate(-361.306 -179.457)" fill="#fff"/>
      </g>
      <g id="Grupo_46944" data-name="Grupo 46944" transform="translate(182.214 0)">
        <rect id="Rectángulo_28314" data-name="Rectángulo 28314" width="25.422" height="25.421" transform="matrix(0.949, -0.316, 0.316, 0.949, 0, 8.042)" fill="#ffc727"/>
        <g id="Grupo_46943" data-name="Grupo 46943" transform="translate(6.704 6.631)">
          <path id="Trazado_97641" data-name="Trazado 97641" d="M371.421,131.738c-.078-1.514-.165-2.916-.211-4.32a1.5,1.5,0,0,0-.487-1.106,9.405,9.405,0,1,1,15.747-9.351,9.482,9.482,0,0,1-5.579,11.409,10.086,10.086,0,0,1-4.7.639,1.487,1.487,0,0,0-.869.218C374.044,130.019,372.792,130.849,371.421,131.738Zm1.462-2.82c.806-.521,1.477-.987,2.182-1.4a1.339,1.339,0,0,1,.82-.161,8.365,8.365,0,0,0,3.908-.263,7.825,7.825,0,0,0,4.53-11.132A7.333,7.333,0,0,0,376.8,112a7.828,7.828,0,0,0-4.473,13.666,1.452,1.452,0,0,1,.4.835C372.824,127.267,372.834,128.041,372.883,128.918Z" transform="translate(-368.06 -110.369)" fill="#fff"/>
          <path id="Trazado_97642" data-name="Trazado 97642" d="M374.881,121.3c.334-1.018,1.2-1.128,1.926-.368.284.3.363.4.66.751a1.148,1.148,0,0,1,.221,1.489c-.223.391-.109.632.221.887a6.6,6.6,0,0,0,3.467,1.383.628.628,0,0,0,.759-.455c.471-1.2.486-1.191,1.765-1.039l.442.054a1.092,1.092,0,0,1,.9,1.749,2.624,2.624,0,0,1-2.293,1.439,9.576,9.576,0,0,1-6.787-2.31,3.621,3.621,0,0,1-1.352-1.791A3.16,3.16,0,0,1,374.881,121.3Z" transform="translate(-370.604 -114.215)" fill="#fff"/>
        </g>
      </g>
    </g>
    <g id="Character" transform="translate(54.198 59.075)">
      <g id="Grupo_46999" data-name="Grupo 46999">
        <g id="Grupo_46998" data-name="Grupo 46998" clip-path="url(#clip-path)">
          <g id="Grupo_46997" data-name="Grupo 46997" transform="translate(-0.001 14.804)">
            <g id="Grupo_46996" data-name="Grupo 46996" transform="translate(0 0)">
              <g id="Grupo_46960" data-name="Grupo 46960" transform="translate(58.294 113.63)">
                <g id="Grupo_46952" data-name="Grupo 46952">
                  <g id="Grupo_46948" data-name="Grupo 46948" transform="translate(0 176.84)">
                    <path id="Trazado_97643" data-name="Trazado 97643" d="M153.983,629.054c2.154.7,63.543-.1,65.859-1.617.89-.561,1.3-9.513,1.475-20.343,0-.113,0-.226,0-.339.042-2.232.071-4.531.074-6.86,0-.321,0-.641.012-.961l-2.979-31.848-41.066.411,4.053,31.548.048,1.249.248,6.531.024.672S158.371,618.313,156,620.248C153.644,622.176,151.829,628.369,153.983,629.054Z" transform="translate(-153.018 -567.086)" fill="#ad6359"/>
                    <path id="Trazado_97644" data-name="Trazado 97644" d="M153.983,648.756c2.154.695,63.543-.1,65.859-1.617.89-.561,1.3-9.513,1.475-20.343,0-.113,0-.226,0-.339.042-2.232.071-4.531.074-6.86,0-.321,0-.641.012-.961l-39.992.112.048,1.249.248,6.531.024.672S158.371,638.015,156,639.95C153.644,641.878,151.829,648.071,153.983,648.756Z" transform="translate(-153.018 -586.788)" fill="#ebebeb"/>
                    <g id="Grupo_46947" data-name="Grupo 46947" transform="translate(0 39.57)">
                      <path id="Trazado_97645" data-name="Trazado 97645" d="M153.975,653.585c1.108.357,17.787.319,34.089-.01,3.277-.066,6.536-.141,9.645-.225,11.627-.319,21.233-.8,22.126-1.381.883-.554,1.286-9.26,1.465-19.89,0-.15.009-.3.009-.45,0-.113,0-.235.009-.348h-.046l-39.565.076.019.676s-23.365,10.809-25.732,12.743S151.825,652.9,153.975,653.585Z" transform="translate(-153.016 -631.191)" fill="#a6a6a6"/>
                      <g id="Grupo_46946" data-name="Grupo 46946" transform="translate(1.466)">
                        <g id="Grupo_46945" data-name="Grupo 46945">
                          <path id="Trazado_97646" data-name="Trazado 97646" d="M155.552,663.082c10.345-.389,52.107-.978,62.363-.576.083,0,.084.06,0,.065-10.245.609-52.011.86-62.361.68C155.335,663.248,155.333,663.09,155.552,663.082Z" transform="translate(-155.389 -643.074)" fill="#263238"/>
                          <path id="Trazado_97647" data-name="Trazado 97647" d="M192.192,631.475c4.062-.813,9.051-.252,12.2,2.609.122.111-.037.282-.17.242a57.291,57.291,0,0,0-12.007-2.337A.26.26,0,0,1,192.192,631.475Z" transform="translate(-169.375 -631.135)" fill="#263238"/>
                          <path id="Trazado_97648" data-name="Trazado 97648" d="M187.472,634.4c4.063-.813,9.051-.252,12.2,2.608.122.111-.038.283-.17.243a57.3,57.3,0,0,0-12.008-2.337A.26.26,0,0,1,187.472,634.4Z" transform="translate(-167.571 -632.254)" fill="#263238"/>
                          <path id="Trazado_97649" data-name="Trazado 97649" d="M182.751,637.333c4.063-.813,9.051-.252,12.2,2.609.122.11-.037.282-.17.242a57.286,57.286,0,0,0-12.007-2.337A.26.26,0,0,1,182.751,637.333Z" transform="translate(-165.767 -633.374)" fill="#263238"/>
                        </g>
                      </g>
                      <path id="Trazado_97650" data-name="Trazado 97650" d="M209.747,653.575c3.277-.066,6.536-.141,9.645-.225,11.626-.319,21.233-.8,22.126-1.381.883-.554,1.286-9.26,1.465-19.89,0-.15.009-.3.009-.45,0-.113,0-.235.009-.348h-.046C237.535,635.085,218.434,647.8,209.747,653.575Z" transform="translate(-174.698 -631.191)" fill="#263238"/>
                    </g>
                  </g>
                  <g id="Grupo_46951" data-name="Grupo 46951" transform="translate(20.421)">
                    <path id="Trazado_97651" data-name="Trazado 97651" d="M191.645,497.564h44.213S226.955,394.3,227.3,392.5c.442-2.31,3.053-12.763,6.527-26.417,1.089-4.273,2.263-8.856,3.484-13.608,3.3-12.847,6.931-26.886,10.1-39.1,4.752-18.3,8.461-32.521,8.461-32.521H218.4s-4.367,13.843-9.869,31.855c-8.969,29.272-20.952,69.559-22.135,79.354C184.48,407.87,191.645,497.564,191.645,497.564Z" transform="translate(-186.07 -280.847)" fill="#26aab7"/>
                    <g id="Grupo_46950" data-name="Grupo 46950" transform="translate(7.439 9.385)">
                      <g id="Grupo_46949" data-name="Grupo 46949" transform="translate(0 199.467)">
                        <path id="Trazado_97652" data-name="Trazado 97652" d="M198.205,619.222c6.752-.141,4.812-.2,11.566-.261,3.3-.032,25.022-.221,28.109.29a.072.072,0,0,1,0,.138c-3.088.511-24.8.322-28.109.29-6.754-.065-4.814-.12-11.566-.261A.1.1,0,0,1,198.205,619.222Z" transform="translate(-198.11 -618.901)" fill="#263238"/>
                      </g>
                      <path id="Trazado_97653" data-name="Trazado 97653" d="M238.679,391.991c1.45-6.391,3.615-12.655,5.5-18.928q5.747-19.12,11.565-38.219,2.9-9.552,5.832-19.1,1.483-4.818,2.982-9.631c.984-3.138,2.1-6.249,2.991-9.415.361-1.288.558-.58.1,1.055-.932,3.3-1.853,6.6-2.814,9.888q-2.856,9.772-5.749,19.533-5.749,19.429-11.6,38.83-2.918,9.731-5.852,19.457a79.7,79.7,0,0,0-2.39,9.412,43.341,43.341,0,0,0-.39,10.069c.424,6.764,1.208,13.519,1.832,20.267l1.878,20.289q1.868,20.187,3.7,40.379c.153,1.706.3,3.412.434,5.12.044.572-.82.528-.88-.022-1.456-13.308-2.573-26.66-3.822-39.989q-1.865-19.895-3.727-39.79c-.311-3.329-.665-6.666-.668-10.013A41.3,41.3,0,0,1,238.679,391.991Z" transform="translate(-213.204 -296.038)" fill="#263238"/>
                    </g>
                  </g>
                  <path id="Trazado_97654" data-name="Trazado 97654" d="M245.286,280.847c2.6,20.125,7.56,57.858,11.176,85.233,8.452-33.169,22.041-85.233,22.041-85.233Z" transform="translate(-188.281 -280.847)" fill="#263238"/>
                </g>
                <g id="Grupo_46959" data-name="Grupo 46959" transform="translate(46.847)">
                  <g id="Grupo_46956" data-name="Grupo 46956" transform="translate(0 177.678)">
                    <path id="Trazado_97655" data-name="Trazado 97655" d="M229.8,630.164c2.151.7,63.543.131,65.864-1.377.893-.557,1.331-9.508,1.55-20.338q0-.17,0-.339c.05-2.232.087-4.53.1-6.859,0-.321,0-.641.015-.961.143-15.63-.984-31.848-.984-31.848l-40.128.261,1.121,31.553.042,1.249.224,6.531.022.672s-23.4,10.729-25.781,12.656C229.485,623.284,227.647,629.471,229.8,630.164Z" transform="translate(-228.844 -568.442)" fill="#ad6359"/>
                    <path id="Trazado_97656" data-name="Trazado 97656" d="M229.8,649.845c2.151.7,63.543.131,65.864-1.377.893-.557,1.331-9.508,1.55-20.338q0-.17,0-.339c.05-2.232.087-4.53.1-6.859,0-.321,0-.641.015-.961l-39.992-.034.042,1.249.224,6.531.022.672s-23.4,10.729-25.781,12.656C229.485,642.965,227.647,649.152,229.8,649.845Z" transform="translate(-228.844 -588.123)" fill="#ebebeb"/>
                    <g id="Grupo_46955" data-name="Grupo 46955" transform="translate(0 39.421)">
                      <path id="Trazado_97657" data-name="Trazado 97657" d="M229.8,654.658c2.151.7,63.543.131,65.864-1.377.893-.557,1.331-9.508,1.55-20.338q0-.17,0-.339l-39.611-.074.022.672s-23.4,10.729-25.781,12.656C229.485,647.778,227.647,653.965,229.8,654.658Z" transform="translate(-228.844 -632.358)" fill="#a6a6a6"/>
                      <g id="Grupo_46954" data-name="Grupo 46954" transform="translate(1.464)">
                        <g id="Grupo_46953" data-name="Grupo 46953">
                          <path id="Trazado_97658" data-name="Trazado 97658" d="M231.377,664.153c10.346-.35,52.11-.788,62.364-.348.083,0,.084.06,0,.065-10.247.571-52.013.67-62.363.453C231.16,664.318,231.158,664.161,231.377,664.153Z" transform="translate(-231.214 -644.24)" fill="#263238"/>
                          <path id="Trazado_97659" data-name="Trazado 97659" d="M268.133,632.578c4.065-.8,9.051-.219,12.191,2.654.122.111-.038.282-.171.242a57.228,57.228,0,0,0-12-2.381A.261.261,0,0,1,268.133,632.578Z" transform="translate(-245.244 -632.251)" fill="#263238"/>
                          <path id="Trazado_97660" data-name="Trazado 97660" d="M263.4,635.49c4.065-.8,9.051-.219,12.191,2.653.122.112-.039.283-.171.242a57.3,57.3,0,0,0-12-2.381A.26.26,0,0,1,263.4,635.49Z" transform="translate(-243.435 -633.363)" fill="#263238"/>
                          <path id="Trazado_97661" data-name="Trazado 97661" d="M258.67,638.4c4.066-.8,9.052-.219,12.191,2.653.122.112-.038.282-.171.242a57.28,57.28,0,0,0-12-2.381A.26.26,0,0,1,258.67,638.4Z" transform="translate(-241.627 -634.476)" fill="#263238"/>
                        </g>
                      </g>
                    </g>
                  </g>
                  <g id="Grupo_46957" data-name="Grupo 46957" transform="translate(7.115)">
                    <path id="Trazado_97662" data-name="Trazado 97662" d="M240.361,280.847s.864,17.927,4.968,32.127c.329,1.174.686,2.329,1.071,3.437a66.614,66.614,0,0,1,10.8,5.55s.432,14.425.864,30.511c.479,17.984.977,38.043.874,42.3-.376,15.918,1.991,103.442,1.991,103.442l44.2.179s-7.992-97.742-7.936-103.573c.085-9.373-2.141-50.8-3.859-81.007-1.052-18.613-1.916-32.962-1.916-32.962Z" transform="translate(-240.361 -280.847)" fill="#26aab7"/>
                    <path id="Trazado_97663" data-name="Trazado 97663" d="M276.043,619.81c6.753-.112,4.813-.175,11.567-.211,3.3-.018,25.022-.114,28.108.41a.072.072,0,0,1,0,.137c-3.09.5-24.805.217-28.11.171-6.753-.093-4.813-.14-11.565-.31A.1.1,0,0,1,276.043,619.81Z" transform="translate(-253.962 -410.309)" fill="#26aab7"/>
                    <path id="Trazado_97664" data-name="Trazado 97664" d="M316.8,291.119c.814,24.662,1.676,49.326,2.779,73.976,1.106,24.736,2.6,49.462,4.667,74.137,1.157,13.786,2.246,33.177,3.734,46.93.01.093-.131.126-.143.032-3.219-24.463-5.013-54.713-6.6-79.331s-2.655-49.271-3.494-73.922c-.475-13.944-.838-27.893-1.255-41.838C316.49,290.9,316.8,290.922,316.8,291.119Z" transform="translate(-269.459 -284.713)" fill="#26aab7"/>
                  </g>
                  <g id="Grupo_46958" data-name="Grupo 46958" transform="translate(10.905 34.472)">
                    <path id="Trazado_97665" data-name="Trazado 97665" d="M246.906,336.668a82.077,82.077,0,0,1,12.637,6.619.146.146,0,0,1-.133.26c-4.265-2.072-8.618-4.067-12.763-6.371A.285.285,0,0,1,246.906,336.668Z" transform="translate(-246.495 -336.644)" fill="#263238"/>
                  </g>
                  <path id="Trazado_97666" data-name="Trazado 97666" d="M242.758,304.537c.352,1.9.812,3.771,1.221,5.655.384,1.768.667,3.571,1.134,5.318a9.051,9.051,0,0,0,2.477,4.457c.694.644,1.457,1.215,2.2,1.805.4.318.829.624,1.243.946-.054-.25-.1-.5-.143-.762q-.189-1.078-.368-2.157-.4-2.395-.768-4.795c-.481-3.145-.924-6.323-1.58-9.436a.1.1,0,0,1,.2-.049c.783,3.085,1.648,6.137,2.33,9.248.334,1.526,1.528,9.06,1.582,9.593.054.55.1,1.1.12,1.656a6.57,6.57,0,0,1,0,1.691c-.032.137-.2.115-.256.022l-.008.006a6.651,6.651,0,0,1-.479-1.637c-.138-.538-.26-1.083-.356-1.63-.035-.2-.062-.4-.09-.6-.742-.451-1.433-1.047-2.127-1.549-.748-.541-1.51-1.069-2.217-1.664a8.494,8.494,0,0,1-2.705-4.228,30.754,30.754,0,0,1-.887-5.414c-.24-2.141-.415-4.293-.714-6.426C242.543,304.459,242.734,304.408,242.758,304.537Z" transform="translate(-234.086 -289.872)" fill="#263238"/>
                </g>
              </g>
              <g id="Grupo_46995" data-name="Grupo 46995">
                <g id="Grupo_46974" data-name="Grupo 46974">
                  <g id="Grupo_46973" data-name="Grupo 46973">
                    <path id="Trazado_97667" data-name="Trazado 97667" d="M226.727,193.474c-2.533,20.189-6.959,54.051-14.117,56.791-1.24.475-6.512,1.52-10.115-2.537-6.076-6.84-16.578-29.889-19.513-37.3-1.3-3.288,20.134-14.017,21.969-10.712,2.571,4.629,5.269,11.6,5.781,11.364.854-.387,2.312-8.984,8.039-21.054C225.886,175.024,227.669,185.969,226.727,193.474Z" transform="translate(-106.153 -129.644)" fill="#ad6359"/>
                    <g id="Grupo_46971" data-name="Grupo 46971">
                      <path id="Trazado_97668" data-name="Trazado 97668" d="M172.79,201.335c2.11,4.533,10.053,12.115,12.672,13.207s15.959-11.982,15.619-14.874-8.627-17.6-13.2-19.869S170.6,196.638,172.79,201.335Z" transform="translate(-102.183 -128.526)" fill="#d08b73"/>
                      <g id="Grupo_46961" data-name="Grupo 46961" transform="translate(88.917 44.095)">
                        <path id="Trazado_97669" data-name="Trazado 97669" d="M211.594,192.588a41.459,41.459,0,0,1,1.1-12.008c1.3-4.64,3.748-11.384,1.279-12.174C208.907,166.781,202.8,183.6,202.8,183.6s-1.5,7.853,3.377,9.907A5.258,5.258,0,0,0,211.594,192.588Z" transform="translate(-202.583 -168.295)" fill="#d08b73"/>
                      </g>
                      <g id="Grupo_46968" data-name="Grupo 46968">
                        <g id="Grupo_46963" data-name="Grupo 46963" transform="translate(76.826 44.617)">
                          <g id="Grupo_46962" data-name="Grupo 46962" transform="translate(0 6.033)">
                            <path id="Trazado_97670" data-name="Trazado 97670" d="M190.537,202.009l-7.52-1.326,3.839-21.778,9.517,1.677Z" transform="translate(-183.014 -178.905)" fill="#ffc727"/>
                            <path id="Trazado_97671" data-name="Trazado 97671" d="M196.368,180.582l-2.223,8.174-3.613,13.255-7.521-1.326,3.839-21.781Z" transform="translate(-183.012 -178.905)" fill="#ffc727"/>
                            <path id="Trazado_97672" data-name="Trazado 97672" d="M197.838,180.582l-2.223,8.174-8.759-1.544,1.464-8.308Z" transform="translate(-184.481 -178.905)" opacity="0.1"/>
                          </g>
                          <rect id="Rectángulo_28315" data-name="Rectángulo 28315" width="12.023" height="9.133" transform="translate(3.421 0) rotate(9.996)" fill="#ffc727"/>
                        </g>
                        <g id="Grupo_46966" data-name="Grupo 46966" transform="translate(22.634)">
                          <g id="Grupo_46964" data-name="Grupo 46964" transform="translate(68.602 29.558)">
                            <path id="Trazado_97673" data-name="Trazado 97673" d="M215.7,160.022l-9.36-.7,2.565-14.555,9.036,2.54Z" transform="translate(-206.336 -144.765)" fill="#ffc727"/>
                          </g>
                          <path id="Trazado_97674" data-name="Trazado 97674" d="M167.924,123.842l-3.786,21.48-15.759-.872-38.21,6.876,9.092-51.584,33.555,19.531Z" transform="translate(-100.979 -98)" fill="#f5ca56"/>
                          <ellipse id="Elipse_3888" data-name="Elipse 3888" cx="26.32" cy="8.46" rx="26.32" ry="8.46" transform="matrix(0.174, -0.985, 0.985, 0.174, 0, 51.841)" fill="#ffc727"/>
                          <ellipse id="Elipse_3889" data-name="Elipse 3889" cx="23.365" cy="6.926" rx="23.365" ry="6.926" transform="matrix(0.174, -0.985, 0.985, 0.174, 1.67, 48.675)" opacity="0.2"/>
                          <path id="Trazado_97675" data-name="Trazado 97675" d="M119.4,137.5c-.3,1.693-.644,3.331-1.03,4.9a5.225,5.225,0,0,1-7.686-5.477l.429-2.433a5.221,5.221,0,0,1,9.061-2.553C120,133.734,119.74,135.6,119.4,137.5Z" transform="translate(-101.147 -109.629)" fill="#ffc727"/>
                          <g id="Grupo_46965" data-name="Grupo 46965" transform="translate(53.174 20.473)">
                            <path id="Trazado_97676" data-name="Trazado 97676" d="M199.464,159.566l-18.1-1.358,4.961-28.148,17.474,4.912Z" transform="translate(-181.364 -130.061)" fill="#ffc727"/>
                            <path id="Trazado_97677" data-name="Trazado 97677" d="M199.464,159.566l-18.1-1.358,4.961-28.148,17.474,4.912Z" transform="translate(-181.364 -130.061)" opacity="0.2"/>
                          </g>
                          <path id="Trazado_97678" data-name="Trazado 97678" d="M122.594,106.151a16.346,16.346,0,0,1,1.826,5.6,37.261,37.261,0,0,1,.465,5.9c.028.988-.035,1.975-.062,2.962-.082.984-.134,1.97-.24,2.952-.122.979-.208,1.963-.359,2.938s-.287,1.953-.462,2.924a64.883,64.883,0,0,1-3.069,11.425,33.746,33.746,0,0,1-2.57,5.338,14.017,14.017,0,0,1-3.923,4.382,14.476,14.476,0,0,0,3.685-4.523,33.7,33.7,0,0,0,2.4-5.348,68.761,68.761,0,0,0,2.921-11.374,70.556,70.556,0,0,0,1.245-11.678,37.458,37.458,0,0,0-.3-5.861A17.023,17.023,0,0,0,122.594,106.151Z" transform="translate(-102.52 -100.449)" opacity="0.2"/>
                        </g>
                        <g id="Grupo_46967" data-name="Grupo 46967" transform="translate(0 1.223)">
                          <path id="Trazado_97679" data-name="Trazado 97679" d="M97.327,98.9c1.073.848,2.1,1.745,3.119,2.649s2.015,1.834,3.006,2.768,1.96,1.891,2.907,2.872l1.418,1.473c.457.507.929,1,1.373,1.519-.541-.419-1.055-.867-1.583-1.3l-1.537-1.347c-1.024-.9-2.015-1.834-3.005-2.769s-1.96-1.891-2.906-2.872S98.224,99.933,97.327,98.9Z" transform="translate(-73.438 -98.901)" fill="#263238"/>
                          <path id="Trazado_97680" data-name="Trazado 97680" d="M98.4,163.421c-1.491.389-2.995.71-4.5,1.021s-3.015.588-4.527.859-3.029.51-4.552.718l-2.284.309c-.765.08-1.527.182-2.3.245.744-.2,1.5-.361,2.244-.543l2.255-.479c1.5-.318,3.015-.589,4.527-.858s3.029-.51,4.552-.717S96.862,163.558,98.4,163.421Z" transform="translate(-66.907 -123.56)" fill="#263238"/>
                          <path id="Trazado_97681" data-name="Trazado 97681" d="M63.834,154.327c2.254-.178,4.511-.288,6.766-.387s4.513-.165,6.771-.223,4.514-.085,6.773-.08l3.387.011c1.13.027,2.259.032,3.389.076-1.127.1-2.255.151-3.382.227l-3.384.162c-2.256.106-4.513.164-6.77.222s-4.515.085-6.773.078S66.095,154.4,63.834,154.327Z" transform="translate(-60.637 -119.82)" fill="#263238"/>
                          <path id="Trazado_97682" data-name="Trazado 97682" d="M76.919,99.629c1.929,1.239,3.819,2.533,5.7,3.835s3.748,2.632,5.607,3.968,3.7,2.7,5.523,4.084l2.733,2.083c.9.712,1.807,1.408,2.694,2.136-.969-.614-1.914-1.261-2.872-1.89L93.475,111.9c-1.888-1.3-3.748-2.632-5.607-3.969s-3.7-2.7-5.523-4.085S78.7,101.075,76.919,99.629Z" transform="translate(-65.638 -99.179)" fill="#263238"/>
                          <path id="Trazado_97683" data-name="Trazado 97683" d="M89.848,136.077c-2.623-.361-5.233-.788-7.841-1.226s-5.207-.926-7.81-1.387c-2.595-.51-5.195-.993-7.784-1.527l-3.883-.814c-1.29-.293-2.584-.566-3.871-.878,1.312.174,2.618.387,3.927.58l3.914.644c2.608.438,5.207.926,7.81,1.388,2.594.512,5.195.993,7.784,1.529S87.272,135.465,89.848,136.077Z" transform="translate(-58.659 -110.88)" fill="#263238"/>
                        </g>
                      </g>
                      <g id="Grupo_46970" data-name="Grupo 46970" transform="translate(67.618 45.423)">
                        <path id="Trazado_97684" data-name="Trazado 97684" d="M192.522,181.191c-.286,2.634-3.226.789-3.226.789s3.593,3.675,2.248,6.277c-1.3,2.5-4.776.15-5.028-.015.188.2,3.4,3.66,1.781,6.135-1.687,2.571-4.768-.391-4.966-.583.12.241,1.649,3.454-.01,5.054-2.852,2.749-6.988-5.359-10.077-6.22,0,0-2.056,5.069-2.147,5.2,0,0-4.093-7.634-2.7-11.735a2.765,2.765,0,0,1,2.894-1.9s-1.591-2.316-.377-4.3c.626-1.019,2.813-.924,2.813-.924a3.466,3.466,0,0,1-.006-3.609c.946-1.362,2.993-1.055,2.993-1.055s-.3-2.364,1.118-3.441C180.688,168.681,193.129,175.551,192.522,181.191Z" transform="translate(-168.108 -170.445)" fill="#d08b73"/>
                        <g id="Grupo_46969" data-name="Grupo 46969" transform="translate(3.358 3.78)">
                          <path id="Trazado_97685" data-name="Trazado 97685" d="M182.561,176.636a.037.037,0,0,1,.023-.071,24.65,24.65,0,0,1,12.4,7.836c.1.124-.057.339-.193.224A50.483,50.483,0,0,0,182.561,176.636Z" transform="translate(-176.98 -176.563)" fill="#263238"/>
                          <path id="Trazado_97686" data-name="Trazado 97686" d="M177.113,184.078c-.051-.022-.014-.107.043-.091a23.09,23.09,0,0,1,12.991,9.388c.1.163.031.412-.1.234C187.818,190.6,181.309,185.946,177.113,184.078Z" transform="translate(-174.898 -179.4)" fill="#263238"/>
                          <path id="Trazado_97687" data-name="Trazado 97687" d="M185.5,202.661c-3.045-4.448-7.209-7.472-11.932-9.964-.061-.033-.009-.116.049-.1,2.643.589,5.488,2.492,7.577,4.158a14.213,14.213,0,0,1,4.461,5.8C185.7,202.646,185.567,202.756,185.5,202.661Z" transform="translate(-173.543 -182.69)" fill="#263238"/>
                        </g>
                        <path id="Trazado_97688" data-name="Trazado 97688" d="M192.563,189.107c.119.149-.229.16-.114.312.482.64,3.058,4.742,1.933,6.053-.9,1.048-2.94.561-3.649.067L188.95,194.3l1.242,1.787a8.867,8.867,0,0,1,1.262,2.588,3.177,3.177,0,0,1-.193,2.592,1.816,1.816,0,0,1-2.118.857,5.5,5.5,0,0,1-2.318-1.485l-1.813-1.827,1.111,2.309a8.32,8.32,0,0,1,.675,2.021,3.435,3.435,0,0,1-.117,1.982,1.636,1.636,0,0,1-1.4,1,3.617,3.617,0,0,1-1.89-.725,28.449,28.449,0,0,1-3.374-2.92c-.548-.517-1.1-1.037-1.673-1.53a5.375,5.375,0,0,0-1.92-1.19A5.805,5.805,0,0,1,178.2,201.1c.53.53,1.035,1.087,1.541,1.644a24.279,24.279,0,0,0,3.292,3.162,4.223,4.223,0,0,0,2.238.941,2.319,2.319,0,0,0,2.127-1.4A4.209,4.209,0,0,0,187.61,203a9.189,9.189,0,0,0-.718-2.262l-.7.482A6.307,6.307,0,0,0,188.91,203a2.631,2.631,0,0,0,1.779-.1A2.971,2.971,0,0,0,192,201.725a4.01,4.01,0,0,0,.245-3.282,9.645,9.645,0,0,0-1.432-2.825l-.54.544c.922.6,3.138,1.391,4.745-.059C196.83,193.9,193.267,189.809,192.563,189.107Z" transform="translate(-171.285 -177.578)" fill="#263238"/>
                        <path id="Trazado_97689" data-name="Trazado 97689" d="M202.4,187.1a5.329,5.329,0,0,0,1.589.344,1.229,1.229,0,0,0,1.125-.538,2.507,2.507,0,0,0,.234-1.4c-.038-.532-.106-1.09-.2-1.663a4.226,4.226,0,0,1,.77,1.574,2.478,2.478,0,0,1-.179,1.888,1.762,1.762,0,0,1-.821.661,1.834,1.834,0,0,1-1,.054A2.851,2.851,0,0,1,202.4,187.1Z" transform="translate(-181.215 -175.563)" fill="#263238"/>
                      </g>
                    </g>
                    <g id="Grupo_46972" data-name="Grupo 46972" transform="translate(75.15 51.683)">
                      <path id="Trazado_97690" data-name="Trazado 97690" d="M180.3,216.951l23.432-18.846s5.682,11.737,6.016,11.69,4.051-15.623,10.215-25.326,7.652.826,6.343,8.838-7.478,52.379-13.02,56.446-10.75-1.023-12.992-3.185C197.2,243.591,180.3,216.951,180.3,216.951Z" transform="translate(-180.299 -180.577)" fill="#00223d"/>
                      <path id="Trazado_97691" data-name="Trazado 97691" d="M187.587,233.555c.733-.753,8.1-6.494,9.726-7.707s3.258-2.424,4.889-3.632c1.685-1.249,3.342-2.6,5.123-3.714a.073.073,0,0,1,.091.115c-1.541,1.422-3.285,2.66-4.934,3.953q-2.441,1.915-4.887,3.823c-1.632,1.27-9.042,6.787-9.937,7.281C187.582,233.715,187.537,233.607,187.587,233.555Z" transform="translate(-183.076 -195.067)" fill="#fff"/>
                      <path id="Trazado_97692" data-name="Trazado 97692" d="M227.964,227.871c.649,1.383,1.213,2.8,1.754,4.228s1.035,2.87,1.5,4.323c.449,1.459.883,2.922,1.233,4.41a39.629,39.629,0,0,1,.849,4.5c-.228-.731-.415-1.467-.651-2.193-.2-.731-.432-1.457-.657-2.183l-1.363-4.351-1.358-4.356-.67-2.183C228.394,229.335,228.164,228.609,227.964,227.871Z" transform="translate(-198.516 -198.652)" fill="#fff"/>
                    </g>
                  </g>
                </g>
                <g id="Grupo_46975" data-name="Grupo 46975" transform="translate(104.597 47.848)">
                  <path id="Trazado_97693" data-name="Trazado 97693" d="M228.074,255.76c1.014,1.005,63.316-2.291,63.616-2.695.817-1.1-21.464-67.406-36.07-77.9-3.141-2.256-11.576.765-13.743,2.94-1.359,1.363-4.319,9.982-6.255,17.11C231.748,209.485,227.192,254.877,228.074,255.76Z" transform="translate(-227.963 -174.37)" fill="#fff"/>
                </g>
                <g id="Grupo_46989" data-name="Grupo 46989" transform="translate(105.195 6.902)">
                  <path id="Trazado_97694" data-name="Trazado 97694" d="M251.073,174.734c-2.468,1.832-4.366,11.311,1.284,12.595s10.889-7.64,11.659-10.522S256.415,170.768,251.073,174.734Z" transform="translate(-236.474 -132.85)" fill="#ffc727"/>
                  <g id="Grupo_46988" data-name="Grupo 46988">
                    <g id="Grupo_46977" data-name="Grupo 46977" transform="translate(10.228 29.196)">
                      <g id="Grupo_46976" data-name="Grupo 46976" transform="translate(0.004)">
                        <path id="Trazado_97695" data-name="Trazado 97695" d="M251.551,179.336c3.5.45,8.823-5.39,10.7-9.867.127-.308-.639-3.321-1.4-7.026-.451-2.25-.9-4.766-1.144-7.092l-14.214,5.074a37.267,37.267,0,0,1,2.346,8.781,5.3,5.3,0,0,1,0,.965c0,.044-.007.1,0,.16C247.729,172.176,248.164,178.9,251.551,179.336Z" transform="translate(-245.493 -155.351)" fill="#d08b73"/>
                      </g>
                      <path id="Trazado_97696" data-name="Trazado 97696" d="M259.032,155.742c-.15,2.951-1.269,13.587-9.7,14.664a10.176,10.176,0,0,1-1.5.078.59.59,0,0,1,.007-.164,5.443,5.443,0,0,0,0-.963,37.459,37.459,0,0,0-2.353-8.783Z" transform="translate(-245.487 -155.5)" fill="#263238"/>
                    </g>
                    <g id="Grupo_46987" data-name="Grupo 46987">
                      <g id="Grupo_46978" data-name="Grupo 46978" transform="translate(1.176 4.502)">
                        <path id="Trazado_97697" data-name="Trazado 97697" d="M254.343,122.647c2.073,5.026.764,20.241-2.6,23.926-4.878,5.342-13.573,6.636-18.291.612-4.574-5.84-2.516-25.639,1.308-29.061C240.392,113.084,251.281,115.222,254.343,122.647Z" transform="translate(-230.835 -115.381)" fill="#d08b73"/>
                      </g>
                      <path id="Trazado_97698" data-name="Trazado 97698" d="M265.254,165.573s0-.006,0-.006" transform="translate(-242.813 -130.06)" fill="none" stroke="#f4a69d" stroke-linecap="round" stroke-linejoin="round" stroke-width="0"/>
                      <g id="Grupo_46984" data-name="Grupo 46984" transform="translate(2.565 17.076)">
                        <g id="Grupo_46979" data-name="Grupo 46979" transform="translate(8.545 4.205)">
                          <path id="Trazado_97699" data-name="Trazado 97699" d="M247.056,144.147c.012-.038.077.055.072.1-.116,1.022-.076,2.213.824,2.629.028.013.02.064-.014.057C246.82,146.679,246.783,145.1,247.056,144.147Z" transform="translate(-246.915 -143.151)" fill="#263238"/>
                          <path id="Trazado_97700" data-name="Trazado 97700" d="M248.088,142.54c1.659.009,1.52,3.326-.017,3.318C246.558,145.85,246.7,142.533,248.088,142.54Z" transform="translate(-246.943 -142.54)" fill="#263238"/>
                        </g>
                        <g id="Grupo_46980" data-name="Grupo 46980" transform="translate(0.663 3.87)">
                          <path id="Trazado_97701" data-name="Trazado 97701" d="M237.062,143.806c-.006-.04-.082.045-.083.087-.011,1.029-.2,2.206-1.14,2.508-.029.009-.028.061.006.057C236.986,146.347,237.217,144.782,237.062,143.806Z" transform="translate(-234.791 -142.685)" fill="#263238"/>
                          <path id="Trazado_97702" data-name="Trazado 97702" d="M235.554,142.007c-1.648-.195-1.916,3.115-.39,3.3C236.666,145.48,236.935,142.17,235.554,142.007Z" transform="translate(-234.156 -141.999)" fill="#263238"/>
                        </g>
                        <path id="Trazado_97703" data-name="Trazado 97703" d="M249.417,138.686a13.024,13.024,0,0,1-1.266-.507,2.2,2.2,0,0,1-1.192-.763.7.7,0,0,1,.148-.845,1.743,1.743,0,0,1,1.761-.106,2.56,2.56,0,0,1,1.426,1.168A.749.749,0,0,1,249.417,138.686Z" transform="translate(-238.354 -135.943)" fill="#263238"/>
                        <path id="Trazado_97704" data-name="Trazado 97704" d="M233.931,137.888a12.857,12.857,0,0,0,1.333-.287,2.2,2.2,0,0,0,1.3-.552.7.7,0,0,0,0-.857,1.74,1.74,0,0,0-1.718-.4,2.559,2.559,0,0,0-1.6.911A.749.749,0,0,0,233.931,137.888Z" transform="translate(-233.083 -135.734)" fill="#263238"/>
                        <path id="Trazado_97705" data-name="Trazado 97705" d="M248.014,159.717c-.256.23-.515.552-.89.567a2.721,2.721,0,0,1-1.094-.3.036.036,0,0,0-.046.051,1.384,1.384,0,0,0,1.281.613,1.1,1.1,0,0,0,.846-.875C248.129,159.709,248.051,159.683,248.014,159.717Z" transform="translate(-238.011 -144.894)" fill="#263238"/>
                        <g id="Grupo_46982" data-name="Grupo 46982" transform="translate(3.132 0.361)">
                          <g id="Grupo_46981" data-name="Grupo 46981">
                            <path id="Trazado_97706" data-name="Trazado 97706" d="M244.072,147.657a3.5,3.5,0,0,1-2.4,1.459,4.4,4.4,0,0,1-1.262,0,1.272,1.272,0,0,1-.239-.038c-.075-.012-.142-.024-.224-.044a.255.255,0,0,1-.2-.238v-.007a.466.466,0,0,1,.014-.105v-.007l.006-.09c.012-.792.139-1.992.139-1.992-.3.133-1.8.734-1.756.322a52.711,52.711,0,0,1,1.8-10.534.1.1,0,0,1,.187.034c-.2,3.294-.987,6.53-1.245,9.835a6.152,6.152,0,0,1,1.672-.432c.111.037-.287,2.315-.264,2.671a.125.125,0,0,0,0,.038,4.854,4.854,0,0,0,3.669-.973C244.059,147.506,244.137,147.578,244.072,147.657Z" transform="translate(-238.153 -136.318)" fill="#263238"/>
                          </g>
                        </g>
                        <g id="Grupo_46983" data-name="Grupo 46983" transform="translate(5.978 11.596)">
                          <path id="Trazado_97707" data-name="Trazado 97707" d="M242.76,155.875a4.123,4.123,0,0,0,1.706,1.2,1.854,1.854,0,0,0,1.127.019c.8-.251.79-1,.611-1.63a4.444,4.444,0,0,0-.409-.961A5.336,5.336,0,0,1,242.76,155.875Z" transform="translate(-242.76 -154.504)" fill="#263238"/>
                          <path id="Trazado_97708" data-name="Trazado 97708" d="M245.521,157.671a1.854,1.854,0,0,0,1.127.019c.8-.251.79-1,.611-1.63A1.913,1.913,0,0,0,245.521,157.671Z" transform="translate(-243.815 -155.099)" fill="#f392b9"/>
                        </g>
                      </g>
                      <path id="Trazado_97709" data-name="Trazado 97709" d="M255.447,132.476c.372-1.329,3.8-15.649,3.424-17.21-.345-1.422-1.9-.84-1.923-.921s-.07-1.377-.873-1.861a2.175,2.175,0,0,0-1.737.032s-.244-1.366-1.1-1.736a1.735,1.735,0,0,0-1.679.362,2.285,2.285,0,0,0-1.373-1.629,1.485,1.485,0,0,0-1.658.631s-.364-1.3-1.261-1.554-1.67.711-1.67.711a1.967,1.967,0,0,0-1.581-1.2,1.717,1.717,0,0,0-1.511,1.174,2.341,2.341,0,0,0-1.667-1.178c-1.022-.03-1.376,1.244-1.376,1.244s-.418-1.137-1.38-1.062-1.189,1.421-1.189,1.421-.54-1.25-1.671-.883c-1.737.563-1.955,8.867-2.352,12.475,0,0,.486-1.726,1.223-1.789s1.289,1.11,2.663,1.414c1.958.433,5.219-1.865,7.918-1.288,2.624.561,4.569,3.317,5.515,7.438C251.253,131.709,254.564,135.63,255.447,132.476Z" transform="translate(-230.435 -108.094)" fill="#263238"/>
                      <g id="Grupo_46985" data-name="Grupo 46985" transform="translate(0 18.455)">
                        <path id="Trazado_97710" data-name="Trazado 97710" d="M246.021,147.179a4.24,4.24,0,0,1-3.414-4.92h0a4.234,4.234,0,1,1,3.414,4.92Zm-2.857-4.819a3.668,3.668,0,1,0,3.352-3.007A3.674,3.674,0,0,0,243.164,142.359Z" transform="translate(-234.132 -138.276)" fill="#ffc727"/>
                        <path id="Trazado_97711" data-name="Trazado 97711" d="M231.889,146.428c-1.735-.081-3.06-2.044-2.952-4.376a5.058,5.058,0,0,1,1.03-2.915,2.638,2.638,0,0,1,4.511.209,5.048,5.048,0,0,1,.757,3c-.1,2.207-1.451,3.966-3.067,4.081A2.456,2.456,0,0,1,231.889,146.428Zm-1.479-6.938a4.492,4.492,0,0,0-.908,2.589c-.093,2.02.99,3.718,2.414,3.783s2.66-1.523,2.754-3.544a4.5,4.5,0,0,0-.664-2.662,2.258,2.258,0,0,0-1.75-1.123,1.776,1.776,0,0,0-.215,0A2.332,2.332,0,0,0,230.41,139.49Z" transform="translate(-228.931 -137.966)" fill="#ffc727"/>
                        <path id="Trazado_97712" data-name="Trazado 97712" d="M241.131,144.449l.384-.416c-.617-.568-2.067-1.362-3.15-.3l.395.405C239.729,143.184,241.074,144.4,241.131,144.449Z" transform="translate(-232.536 -139.97)" fill="#ffc727"/>
                        <path id="Trazado_97713" data-name="Trazado 97713" d="M266.484,146.575l.515-.236c-.111-.24-1.113-2.351-2.367-2.615-1.171-.243-8.784.116-9.107.132l.027.565c2.182-.106,8.059-.334,8.963-.143C265.343,144.453,266.217,146,266.484,146.575Z" transform="translate(-239.095 -140.135)" fill="#ffc727"/>
                      </g>
                      <g id="Grupo_46986" data-name="Grupo 46986" transform="translate(21.092 19.662)">
                        <path id="Trazado_97714" data-name="Trazado 97714" d="M263.621,144.115s3.023-5.1,5.312-4.055.269,8.256-2.24,9.41a2.632,2.632,0,0,1-3.622-1.147Z" transform="translate(-263.071 -139.919)" fill="#d08b73"/>
                        <path id="Trazado_97715" data-name="Trazado 97715" d="M269.181,143.47c.041-.007.054.051.019.069-1.755.868-2.581,2.618-3.118,4.407a1.453,1.453,0,0,1,2.139-.558c.049.03.01.107-.042.1a1.619,1.619,0,0,0-1.735.7,7.837,7.837,0,0,0-.743,1.5c-.073.169-.371.1-.324-.087l.012-.043C265.171,147.251,266.721,143.888,269.181,143.47Z" transform="translate(-263.949 -141.276)" fill="#263238"/>
                      </g>
                    </g>
                  </g>
                </g>
                <g id="Grupo_46994" data-name="Grupo 46994" transform="translate(132.293 49.652)">
                  <g id="Grupo_46993" data-name="Grupo 46993">
                    <g id="Grupo_46992" data-name="Grupo 46992" transform="translate(2.216 1.351)">
                      <path id="Trazado_97716" data-name="Trazado 97716" d="M282.925,181.455c20.162,13.864,34.713,35.6,36.114,40.191,3.389,11.112,8.452,30.7,9.232,39.5.289,3.253-24.782,2.646-25.2-.821-1.307-10.857-5.977-34.481-6.1-34.888-.835-2.857-7.947-15.232-15.267-28.7S274.44,175.62,282.925,181.455Z" transform="translate(-276.379 -179.476)" fill="#ad6359"/>
                      <g id="Grupo_46991" data-name="Grupo 46991" transform="translate(22.517 80.832)">
                        <path id="Trazado_97717" data-name="Trazado 97717" d="M319,344.62a3.891,3.891,0,0,0,4.221-1.383,5.772,5.772,0,0,0,3.37,2.013c2.353.342,3.921-3.2,3.921-3.2a7.114,7.114,0,0,0,3.892,1.557c2.285.1,4.376-3.245,4.376-3.245a6.308,6.308,0,0,0,4.285-.787c2.167-1.4,3.237-8.31,3.2-12.2s-3.785-14.893-4.287-17.063l-24.975.02s-4.8,17.495-4.108,22.064C313.477,336.246,316.124,343.639,319,344.62Z" transform="translate(-312.825 -310.314)" fill="#d08b73"/>
                        <g id="Grupo_46990" data-name="Grupo 46990" transform="translate(7.454 18.853)">
                          <path id="Trazado_97718" data-name="Trazado 97718" d="M327.429,355.655c-1.6-3.943-1.951-8.146-2.538-12.321a.073.073,0,0,1,.145-.019c.536,4.159,1.889,8.158,2.589,12.286A.1.1,0,0,1,327.429,355.655Z" transform="translate(-324.891 -341.756)" fill="#263238"/>
                          <path id="Trazado_97719" data-name="Trazado 97719" d="M340.378,354.014a11.064,11.064,0,0,1-.458-2.865q-.139-1.536-.225-3.077c-.117-2.055-.187-4.114-.2-6.173,0-.091.139-.115.145-.019.12,2.049.271,4.095.477,6.137q.154,1.532.334,3.062a13.231,13.231,0,0,1,.2,2.9A.147.147,0,0,1,340.378,354.014Z" transform="translate(-330.474 -341.208)" fill="#263238"/>
                          <path id="Trazado_97720" data-name="Trazado 97720" d="M354.374,351.941a7.721,7.721,0,0,1-.274-2.6q-.051-1.406-.117-2.812c-.088-1.874-.177-3.748-.331-5.618-.007-.093.137-.113.145-.019.166,1.9.357,3.8.506,5.7q.11,1.4.2,2.8a7.243,7.243,0,0,1-.038,2.553A.052.052,0,0,1,354.374,351.941Z" transform="translate(-335.883 -340.83)" fill="#263238"/>
                        </g>
                      </g>
                    </g>
                    <path id="Trazado_97721" data-name="Trazado 97721" d="M300.508,259.766l27.4-2.21s-6.036-29.514-9.309-37.491-19.579-27.654-36.58-39.313c-11.565-7.931-10.855-1.148-5.511,9.359s17.923,34.539,18.516,36.439S300.508,259.766,300.508,259.766Z" transform="translate(-272.792 -177.29)" fill="#00223d"/>
                    <path id="Trazado_97722" data-name="Trazado 97722" d="M318.395,300.392c1.025-.238,10.324-1.094,12.348-1.237s4.051-.281,6.077-.418c2.093-.141,4.219-.387,6.317-.36a.073.073,0,0,1,.015.146c-2.065.365-4.2.466-6.287.664q-3.089.294-6.178.58c-2.06.188-11.276.832-12.3.764C318.3,300.524,318.325,300.408,318.395,300.392Z" transform="translate(-290.198 -223.568)" fill="#fff"/>
                  </g>
                </g>
              </g>
            </g>
          </g>
        </g>
      </g>
    </g>
  </g>
</svg>
