<svg xmlns="http://www.w3.org/2000/svg" xmlns:xlink="http://www.w3.org/1999/xlink" width="125.294" height="180.268" viewBox="0 0 125.294 180.268">
  <defs>
    <clipPath id="clip-path">
      <rect id="Rectángulo_52593" data-name="Rectángulo 52593" width="125.294" height="125.279" fill="#12263f"/>
    </clipPath>
    <clipPath id="clip-path-2">
      <rect id="Rectángulo_52595" data-name="Rectángulo 52595" width="68.313" height="69.417" fill="#12263f"/>
    </clipPath>
    <linearGradient id="linear-gradient" x1="0.5" x2="0.5" y2="1" gradientUnits="objectBoundingBox">
      <stop offset="0" stop-color="#2a9d8d"/>
      <stop offset="1" stop-color="#43a99b"/>
    </linearGradient>
    <linearGradient id="linear-gradient-2" x1="0.5" x2="0.5" y2="1" gradientUnits="objectBoundingBox">
      <stop offset="0" stop-color="#f5f5f5"/>
      <stop offset="0.25" stop-color="#f5f5f5"/>
      <stop offset="1" stop-color="#a7b3cf"/>
    </linearGradient>
  </defs>
  <g id="Grupo_179522" data-name="Grupo 179522" transform="translate(-709.391 -997.887)">
    <g id="Grupo_171283" data-name="Grupo 171283" transform="translate(709.391 997.887)">
      <g id="Grupo_171282" data-name="Grupo 171282" clip-path="url(#clip-path)">
        <path id="Trazado_212340" data-name="Trazado 212340" d="M125.294,124.043a2.64,2.64,0,0,1-2.581,1.237q-60.076-.032-120.151-.019c-2,0-2.551-.543-2.556-2.517,0-1.672-.014-3.344,0-5.015.014-1.32.746-2.143,1.845-2.13s1.791.834,1.808,2.169c.015,1.219,0,2.438,0,3.745H121.552V54.31c-1.165,0-2.3,0-3.426,0-1.653,0-2.534-.626-2.557-1.8s.876-1.853,2.5-1.858c1.135,0,2.271,0,3.482,0V34.8H3.763V50.649h104.66c.448,0,.9-.025,1.345.018a1.757,1.757,0,0,1,1.687,1.771,1.782,1.782,0,0,1-1.725,1.854c-.445.04-.9.016-1.345.016H3.667v1.531q0,26.3,0,52.6a9.267,9.267,0,0,1-.02,1.222,1.712,1.712,0,0,1-1.773,1.661,1.764,1.764,0,0,1-1.855-1.707c-.031-.324-.013-.652-.013-.978q0-37.432,0-74.864c0-2.224.482-2.7,2.742-2.7H26.208v-1.55c0-8.93.014-17.86-.017-26.79A2.922,2.922,0,0,1,27.409,0H40.134c.061.1.1.223.186.285a1.787,1.787,0,0,1,.686,2.264,1.852,1.852,0,0,1-1.981,1.125c-1.1-.035-2.2-.008-3.3-.008H29.986V19.477h91.571V3.666h-1.51q-36.217,0-72.435.008c-1.039,0-1.978-.091-2.416-1.214C44.747,1.3,45.47.636,46.252,0h79.042ZM121.579,23.312H30.014V31h91.565Z" transform="translate(0)" fill="#12263f"/>
        <path id="Trazado_212341" data-name="Trazado 212341" d="M138.59,0c-.781.636-1.505,1.3-1.055,2.459.438,1.123,1.377,1.215,2.416,1.214q36.218-.016,72.435-.008h1.51V19.477H122.325V3.666h5.735c1.1,0,2.2-.027,3.3.008a1.852,1.852,0,0,0,1.981-1.125,1.787,1.787,0,0,0-.686-2.264c-.086-.062-.125-.188-.186-.285Zm-1.428,11.471a5.517,5.517,0,0,0-5.511-5.5,5.63,5.63,0,0,0-5.507,5.559,5.627,5.627,0,0,0,5.563,5.5,5.515,5.515,0,0,0,5.456-5.557m14.683.012a5.516,5.516,0,0,0-5.5-5.515,5.629,5.629,0,0,0-5.52,5.547,5.626,5.626,0,0,0,5.551,5.514,5.515,5.515,0,0,0,5.468-5.545m14.683-.014a5.518,5.518,0,0,0-5.513-5.5,5.629,5.629,0,0,0-5.505,5.561,5.627,5.627,0,0,0,5.565,5.5,5.515,5.515,0,0,0,5.454-5.559" transform="translate(-92.339)" fill="#d2c1eb"/>
        <path id="Trazado_212342" data-name="Trazado 212342" d="M71.441,307.372q-10.4,0-20.8,0c-1.865,0-2.529-.627-2.53-2.465q-.014-17.493,0-34.985c0-1.771.685-2.422,2.455-2.423q20.983-.005,41.967,0c1.709,0,2.393.626,2.4,2.348q.027,17.615,0,35.23c0,1.693-.7,2.292-2.442,2.293q-10.522.007-21.045,0m8.535-11.026c3.637-3.155,7.189-6.212,10.694-9.322a2.045,2.045,0,0,0,.484-1.385c.036-4.443.023-8.885.018-13.328,0-.352-.047-.7-.073-1.058h-39.1v22.412c2.986-2.615,5.808-5.074,8.616-7.548,2.389-2.1,3.2-2.137,5.71-.215,4.527,3.468,9.059,6.93,13.654,10.445m-28.1,7.288H83.384l-19.82-15.165c-3.788,3.32-7.555,6.614-11.3,9.93a1.286,1.286,0,0,0-.368.844c-.037,1.422-.017,2.846-.017,4.39m31.117-4.978c2.038,1.559,3.94,3.084,5.927,4.491a7.925,7.925,0,0,0,2.148.716V291.636l-8.075,7.02" transform="translate(-36.311 -201.922)" fill="#12263f"/>
        <path id="Trazado_212343" data-name="Trazado 212343" d="M103.627,459.073q-22.937,0-45.873-.006a3.31,3.31,0,0,1-1.671-.175c-.575-.379-1.286-1.056-1.309-1.631s.644-1.279,1.172-1.739c.3-.264.931-.208,1.413-.208q46.363-.012,92.725,0a4.989,4.989,0,0,1,1.324.158,1.641,1.641,0,0,1,1.284,1.828,1.6,1.6,0,0,1-1.373,1.629,8.614,8.614,0,0,1-1.7.138q-23,.011-46,.006" transform="translate(-41.347 -343.696)" fill="#12263f"/>
        <path id="Trazado_212344" data-name="Trazado 212344" d="M297.952,328.626h18.715c.367,0,.736-.021,1.1.014,1.29.126,1.981.8,1.976,1.885s-.7,1.743-2,1.864c-.324.03-.652.012-.978.012q-18.9,0-37.8-.007a3.129,3.129,0,0,1-1.661-.205c-.561-.4-1.244-1.112-1.24-1.686s.7-1.257,1.262-1.673a2.838,2.838,0,0,1,1.541-.2q9.541-.017,19.082-.007" transform="translate(-208.393 -248.063)" fill="#12263f"/>
        <path id="Trazado_212345" data-name="Trazado 212345" d="M297.834,364.556h18.838c.367,0,.736-.021,1.1.015,1.289.127,1.979.8,1.971,1.889s-.708,1.74-2,1.86c-.324.03-.652.011-.978.011q-18.9,0-37.8-.007a3.119,3.119,0,0,1-1.661-.206c-.56-.4-1.241-1.115-1.236-1.689s.707-1.255,1.266-1.67a2.842,2.842,0,0,1,1.541-.2q9.48-.017,18.96-.007" transform="translate(-208.393 -275.186)" fill="#12263f"/>
        <path id="Trazado_212346" data-name="Trazado 212346" d="M297.545,400.494h18.96a8.469,8.469,0,0,1,1.1.028c1.209.16,1.853.833,1.84,1.885s-.668,1.691-1.891,1.839a8.169,8.169,0,0,1-.978.022H278.534c-.122,0-.245,0-.367,0-1.583-.035-2.514-.749-2.495-1.913s.943-1.855,2.546-1.858q9.663-.014,19.327,0" transform="translate(-208.094 -302.315)" fill="#12263f"/>
        <path id="Trazado_212347" data-name="Trazado 212347" d="M41.978,156.692a5.5,5.5,0,1,1-5.437-5.592,5.545,5.545,0,0,1,5.437,5.592m-3.692-.078a1.807,1.807,0,1,0-1.79,1.774,1.813,1.813,0,0,0,1.79-1.774" transform="translate(-23.387 -114.059)" fill="#12263f"/>
        <path id="Trazado_212348" data-name="Trazado 212348" d="M90.878,156.578a5.5,5.5,0,1,1,5.449,5.581,5.545,5.545,0,0,1-5.449-5.581m5.479,1.807a1.758,1.758,0,1,0-1.787-1.777,1.812,1.812,0,0,0,1.787,1.777" transform="translate(-68.6 -114.057)" fill="#12263f"/>
        <path id="Trazado_212349" data-name="Trazado 212349" d="M150.774,156.627a5.5,5.5,0,1,1,5.507,5.526,5.553,5.553,0,0,1-5.507-5.526m5.508-1.766a1.758,1.758,0,1,0,1.8,1.768,1.815,1.815,0,0,0-1.8-1.768" transform="translate(-113.814 -114.048)" fill="#12263f"/>
        <path id="Trazado_212350" data-name="Trazado 212350" d="M287.56,286.4c3.18,0,6.36-.006,9.54,0,1.481,0,2.257.628,2.278,1.786.023,1.216-.775,1.878-2.317,1.879q-9.54.009-19.08,0c-1.425,0-2.289-.686-2.319-1.794-.031-1.143.864-1.867,2.358-1.871,3.18-.009,6.36,0,9.54,0" transform="translate(-208.086 -216.192)" fill="#12263f"/>
        <path id="Trazado_212351" data-name="Trazado 212351" d="M148.92,29.848a5.515,5.515,0,0,1-5.456,5.557,5.53,5.53,0,1,1-.055-11.06,5.517,5.517,0,0,1,5.511,5.5m-3.7.058a1.743,1.743,0,0,0-1.749-1.783,1.755,1.755,0,1,0-.06,3.508,1.747,1.747,0,0,0,1.809-1.726" transform="translate(-104.097 -18.377)" fill="#12263f"/>
        <path id="Trazado_212352" data-name="Trazado 212352" d="M208.816,29.861a5.515,5.515,0,0,1-5.468,5.545,5.53,5.53,0,1,1-.031-11.06,5.516,5.516,0,0,1,5.5,5.515m-3.7.045a1.743,1.743,0,0,0-1.749-1.782,1.755,1.755,0,1,0-.059,3.509,1.747,1.747,0,0,0,1.808-1.726" transform="translate(-149.31 -18.378)" fill="#12263f"/>
        <path id="Trazado_212353" data-name="Trazado 212353" d="M268.712,29.844a5.515,5.515,0,0,1-5.454,5.558,5.53,5.53,0,1,1-.06-11.06,5.518,5.518,0,0,1,5.513,5.5m-5.337-1.719a1.755,1.755,0,1,0-.287,3.5,1.755,1.755,0,1,0,.287-3.5" transform="translate(-194.523 -18.375)" fill="#12263f"/>
        <path id="Trazado_212354" data-name="Trazado 212354" d="M91.959,307.915c-4.6-3.515-9.127-6.977-13.654-10.445-2.509-1.922-3.322-1.889-5.71.215-2.809,2.474-5.63,4.933-8.616,7.548V282.821h39.1c.025.354.073.706.073,1.058,0,4.443.018,8.886-.018,13.328a2.047,2.047,0,0,1-.484,1.386c-3.5,3.11-7.057,6.167-10.694,9.322M93.41,297.2a6.5,6.5,0,0,0,6.464-6.449,6.639,6.639,0,0,0-6.475-6.492,6.5,6.5,0,0,0-6.467,6.565A6.4,6.4,0,0,0,93.41,297.2" transform="translate(-48.295 -213.491)" fill="#ece5f7"/>
        <path id="Trazado_212355" data-name="Trazado 212355" d="M63.475,368.221c0-1.544-.02-2.968.017-4.391a1.284,1.284,0,0,1,.368-.844c3.748-3.316,7.515-6.61,11.3-9.93l19.82,15.165Z" transform="translate(-47.911 -266.509)" fill="#ece5f7"/>
        <path id="Trazado_212356" data-name="Trazado 212356" d="M190.43,372.993l8.075-7.02V378.2a7.924,7.924,0,0,1-2.148-.716c-1.987-1.407-3.889-2.932-5.927-4.491" transform="translate(-143.749 -276.259)" fill="#ece5f7"/>
        <path id="Trazado_212363" data-name="Trazado 212363" d="M164.089,301.607a6.4,6.4,0,0,1-6.479-6.377,6.5,6.5,0,0,1,6.467-6.565,6.638,6.638,0,0,1,6.475,6.492,6.5,6.5,0,0,1-6.464,6.449m2.674-6.453a2.659,2.659,0,0,0-2.691-2.7,2.745,2.745,0,0,0-2.77,2.662,2.833,2.833,0,0,0,2.787,2.8,2.745,2.745,0,0,0,2.673-2.76" transform="translate(-118.974 -217.903)" fill="#12263f"/>
        <path id="Trazado_212364" data-name="Trazado 212364" d="M178.132,306.821a2.745,2.745,0,0,1-2.673,2.76,2.833,2.833,0,0,1-2.787-2.8,2.745,2.745,0,0,1,2.77-2.662,2.659,2.659,0,0,1,2.691,2.7" transform="translate(-130.343 -229.57)" fill="#eeac3a"/>
      </g>
    </g>
    <g id="Grupo_171285" data-name="Grupo 171285" transform="translate(737.882 1108.738)">
      <g id="Grupo_171284" data-name="Grupo 171284" transform="translate(0 0)" clip-path="url(#clip-path-2)">
        <path id="Trazado_212365" data-name="Trazado 212365" d="M60.721,69.416l-5.2-7.84c-.429.549-.637,1.018-1,1.235-.788.473-1.948,1.354-2.418,1.095A4.1,4.1,0,0,1,50.558,61.4a51.049,51.049,0,0,1-.718-5.384c-3.524,0-6.929,0-10.334,0a8.823,8.823,0,0,1-2.424-.074A6.737,6.737,0,0,1,35.306,54.7c.619-.5,1.225-1.4,1.86-1.419,3.957-.132,7.921-.067,12.265-.067-.243-2.509-.537-4.787-.664-7.074-.144-2.6.983-3.263,3.31-2.022,1.327.708,2.606,1.5,4.189,2.425V12.454H2.883c-.052.861-.14,1.65-.14,2.44q-.014,17.211,0,34.423c0,3.384.519,3.876,3.95,3.882,5.6.01,11.2-.054,16.8.065.845.018,1.673.857,2.508,1.316-.814.477-1.62,1.352-2.443,1.368-5.96.117-11.924.118-17.885.038C1.834,55.933.023,54.066.017,50.278q-.034-22.226,0-44.452C.02,1.852,1.857.015,5.806.011q23.714-.024,47.428,0c4.17,0,5.915,1.716,5.924,5.931.028,13.191.067,26.382-.045,39.573-.018,2.114.573,3.363,2.478,4.2a19.177,19.177,0,0,1,3.715,2.208c.73.547,1.828,1.608,1.675,2.1-.253.81-1.363,1.375-2.157,1.983a8.181,8.181,0,0,1-1.457.67l4.946,6.776V65.62l-5.423,3.8ZM56.414,9.179c0-1.319-.039-2.312.008-3.3.1-2.151-.89-3.185-3.043-3.184q-23.837.011-47.673,0A2.607,2.607,0,0,0,2.754,5.472c-.051,1.22-.009,2.444-.009,3.708Zm8.678,55.065c-1.343-2.068-2.493-4-3.808-5.818-1.459-2.014-2.022-3.738,1.263-4.917L51.679,47.127l1.48,12.3c2.829-1.878,3.112-1.82,4.936.913,1.292,1.937,2.579,3.878,3.927,5.9l3.07-2" transform="translate(0 0)" fill="#12263f"/>
        <path id="Trazado_212366" data-name="Trazado 212366" d="M25.5,32.441c6.3.063,5.793-.768,5.8,5.781,0,6.781.6,6.126-6.045,6.123-6.49,0-5.926.65-5.917-5.958.009-6.808-.625-5.869,6.167-5.946m2.66,3H22.375v5.828h5.782Z" transform="translate(-8.757 -14.706)" fill="#12263f"/>
        <path id="Trazado_212367" data-name="Trazado 212367" d="M38.531,66.487c-5.413,0-10.827.068-16.237-.066-.894-.022-1.766-.93-2.647-1.429.851-.454,1.7-1.3,2.553-1.3q16.373-.134,32.746,0c.86.008,1.713.879,2.57,1.349-.825.483-1.641,1.364-2.477,1.383-5.5.125-11,.065-16.507.066" transform="translate(-8.908 -28.846)" fill="#12263f"/>
        <path id="Trazado_212368" data-name="Trazado 212368" d="M35.749,82.152c-4.6,0-9.2.057-13.792-.056-.777-.02-1.536-.777-2.3-1.193.789-.5,1.573-1.417,2.367-1.426q13.522-.153,27.045,0c.833.009,1.656.891,2.483,1.368-.849.437-1.687,1.227-2.548,1.252-4.414.128-8.833.06-13.251.059" transform="translate(-8.911 -36)" fill="#12263f"/>
        <path id="Trazado_212369" data-name="Trazado 212369" d="M61.636,50.863c-2.615,0-5.238.107-7.84-.069-.747-.05-1.439-.921-2.156-1.416.738-.482,1.467-1.365,2.215-1.382q7.977-.18,15.958,0c.745.017,1.469.935,2.2,1.436-.754.476-1.486,1.313-2.267,1.362-2.694.171-5.406.066-8.112.065" transform="translate(-23.413 -21.721)" fill="#12263f"/>
        <path id="Trazado_212370" data-name="Trazado 212370" d="M61.9,35.242c-2.612,0-5.233.115-7.832-.066-.837-.058-1.621-.9-2.429-1.38.746-.453,1.483-1.283,2.237-1.3q7.969-.17,15.941,0c.747.017,1.474.883,2.21,1.357-.764.461-1.5,1.268-2.295,1.319-2.6.169-5.221.063-7.833.064" transform="translate(-23.413 -14.696)" fill="#12263f"/>
        <path id="Trazado_212371" data-name="Trazado 212371" d="M58.678,11.414H5.009c0-1.263-.042-2.488.009-3.708A2.608,2.608,0,0,1,7.969,4.934q23.836,0,47.673,0c2.154,0,3.147,1.033,3.043,3.184-.048.989-.008,1.982-.008,3.3" transform="translate(-2.264 -2.235)" fill="url(#linear-gradient)"/>
        <path id="Trazado_212372" data-name="Trazado 212372" d="M107.96,103.336l-3.07,2c-1.347-2.026-2.635-3.967-3.927-5.9-1.824-2.733-2.107-2.791-4.936-.913l-1.48-12.3L105.415,92.6c-3.286,1.179-2.723,2.9-1.263,4.917,1.315,1.815,2.465,3.75,3.808,5.818" transform="translate(-42.867 -39.092)" fill="#b1daf6"/>
        <rect id="Rectángulo_52594" data-name="Rectángulo 52594" width="5.782" height="5.828" transform="translate(13.618 20.73)" fill="url(#linear-gradient-2)"/>
      </g>
    </g>
  </g>
</svg>
