<svg id="Grupo_169378" data-name="Grupo 169378" xmlns="http://www.w3.org/2000/svg" width="81.993" height="66.718" viewBox="0 0 81.993 66.718">
  <g id="Grupo_155861" data-name="Grupo 155861" transform="translate(0 38.888)">
    <rect id="Rectángulo_46503" data-name="Rectángulo 46503" width="14.106" height="26.687" transform="translate(0.572 0.571)" fill="#afafaf"/>
    <path id="Trazado_196270" data-name="Trazado 196270" d="M85.586,117.28H71.479a.572.572,0,0,1-.572-.571V90.021a.572.572,0,0,1,.572-.571H85.586a.571.571,0,0,1,.571.571v26.688A.571.571,0,0,1,85.586,117.28ZM72.05,116.137H85.013V90.593H72.05Z" transform="translate(-70.907 -89.45)"/>
  </g>
  <g id="Grupo_155862" data-name="Grupo 155862" transform="translate(22.327 7.447)">
    <rect id="Rectángulo_46504" data-name="Rectángulo 46504" width="14.106" height="58.128" transform="translate(0.572 0.571)" fill="#fff"/>
    <path id="Trazado_196271" data-name="Trazado 196271" d="M105.914,120.1H91.807a.572.572,0,0,1-.572-.571V61.4a.572.572,0,0,1,.572-.571h14.106a.571.571,0,0,1,.571.571v58.129A.571.571,0,0,1,105.914,120.1Zm-13.535-1.143h12.963V61.968H92.378Z" transform="translate(-91.235 -60.825)"/>
  </g>
  <g id="Grupo_155863" data-name="Grupo 155863" transform="translate(66.743 0)">
    <rect id="Rectángulo_46505" data-name="Rectángulo 46505" width="14.106" height="65.575" transform="translate(0.572 0.572)" fill="#fff"/>
    <path id="Trazado_196272" data-name="Trazado 196272" d="M146.35,120.763H132.245a.572.572,0,0,1-.572-.571V54.616a.572.572,0,0,1,.572-.571H146.35a.572.572,0,0,1,.572.571v65.576A.572.572,0,0,1,146.35,120.763Zm-13.534-1.143h12.963V55.188H132.816Z" transform="translate(-131.673 -54.045)"/>
  </g>
  <g id="Grupo_155878" data-name="Grupo 155878" transform="translate(44.25 30.118)">
    <g id="Grupo_155864" data-name="Grupo 155864">
      <rect id="Rectángulo_46506" data-name="Rectángulo 46506" width="14.106" height="35.456" transform="translate(0.571 0.572)" fill="#fff"/>
      <path id="Trazado_196273" data-name="Trazado 196273" d="M125.871,118.066H111.765a.571.571,0,0,1-.571-.571V82.038a.572.572,0,0,1,.571-.572h14.106a.572.572,0,0,1,.572.572v35.456A.572.572,0,0,1,125.871,118.066Zm-13.534-1.143H125.3V82.609H112.337Z" transform="translate(-111.194 -81.466)"/>
    </g>
    <g id="Grupo_155865" data-name="Grupo 155865" transform="translate(2.032 33.072)">
      <path id="Trazado_196274" data-name="Trazado 196274" d="M115.323,113.387a.194.194,0,0,1-.108-.033l-2.089-1.429a.192.192,0,0,1-.049-.266.189.189,0,0,1,.265-.049l2.089,1.429a.191.191,0,0,1,.049.265A.187.187,0,0,1,115.323,113.387Z" transform="translate(-113.044 -111.576)"/>
    </g>
    <g id="Grupo_155866" data-name="Grupo 155866" transform="translate(1.726 30.32)">
      <path id="Trazado_196275" data-name="Trazado 196275" d="M119.373,113.663a.192.192,0,0,1-.1-.027c-2.174-1.33-4.336-2.749-6.427-4.218a.19.19,0,1,1,.219-.312c2.085,1.464,4.241,2.878,6.407,4.2a.19.19,0,0,1,.063.262A.187.187,0,0,1,119.373,113.663Z" transform="translate(-112.766 -109.071)"/>
    </g>
    <g id="Grupo_155867" data-name="Grupo 155867" transform="translate(2.016 27.365)">
      <path id="Trazado_196276" data-name="Trazado 196276" d="M122.414,113.582a.19.19,0,0,1-.109-.034c-3.129-2.164-6.226-4.46-9.2-6.827a.191.191,0,0,1,.237-.3c2.972,2.363,6.062,4.654,9.185,6.813a.191.191,0,0,1-.109.347Z" transform="translate(-113.03 -106.381)"/>
    </g>
    <g id="Grupo_155868" data-name="Grupo 155868" transform="translate(1.788 24.335)">
      <path id="Trazado_196277" data-name="Trazado 196277" d="M124.4,112.441a.189.189,0,0,1-.113-.037L112.9,103.966a.191.191,0,0,1,.227-.306l11.391,8.439a.19.19,0,0,1-.114.343Z" transform="translate(-112.822 -103.622)"/>
    </g>
    <g id="Grupo_155869" data-name="Grupo 155869" transform="translate(2.023 21.19)">
      <path id="Trazado_196278" data-name="Trazado 196278" d="M124.25,109.706a.191.191,0,0,1-.111-.036c-3.759-2.716-7.471-5.6-11.035-8.575a.191.191,0,1,1,.245-.292c3.557,2.968,7.262,5.848,11.013,8.558a.191.191,0,0,1-.112.345Z" transform="translate(-113.036 -100.759)"/>
    </g>
    <g id="Grupo_155870" data-name="Grupo 155870" transform="translate(2.002 17.911)">
      <path id="Trazado_196279" data-name="Trazado 196279" d="M124.257,106.827a.184.184,0,0,1-.115-.04c-3.7-2.839-7.419-5.759-11.053-8.676a.19.19,0,1,1,.238-.3c3.631,2.915,7.348,5.832,11.046,8.671a.19.19,0,0,1-.116.342Z" transform="translate(-113.017 -97.773)"/>
    </g>
    <g id="Grupo_155871" data-name="Grupo 155871" transform="translate(2.072 14.186)">
      <path id="Trazado_196280" data-name="Trazado 196280" d="M123.883,103.286a.187.187,0,0,1-.116-.04c-3.592-2.747-7.164-5.617-10.619-8.529a.191.191,0,0,1,.246-.291c3.45,2.907,7.019,5.774,10.6,8.518a.19.19,0,0,1-.115.342Z" transform="translate(-113.081 -94.382)"/>
    </g>
    <g id="Grupo_155872" data-name="Grupo 155872" transform="translate(2.057 10.636)">
      <path id="Trazado_196281" data-name="Trazado 196281" d="M124.056,100.217a.191.191,0,0,1-.116-.04c-3.649-2.8-7.284-5.728-10.8-8.691a.191.191,0,1,1,.246-.292c3.516,2.96,7.146,5.882,10.79,8.681a.19.19,0,0,1,.035.267A.187.187,0,0,1,124.056,100.217Z" transform="translate(-113.067 -91.149)"/>
    </g>
    <g id="Grupo_155873" data-name="Grupo 155873" transform="translate(2.032 7.206)">
      <path id="Trazado_196282" data-name="Trazado 196282" d="M124,97.114a.194.194,0,0,1-.118-.04c-3.629-2.823-7.253-5.754-10.767-8.711a.191.191,0,1,1,.245-.292c3.511,2.955,7.131,5.882,10.756,8.7a.189.189,0,0,1,.034.267A.192.192,0,0,1,124,97.114Z" transform="translate(-113.044 -88.027)"/>
    </g>
    <g id="Grupo_155874" data-name="Grupo 155874" transform="translate(1.988 3.746)">
      <path id="Trazado_196283" data-name="Trazado 196283" d="M124.056,94.156a.188.188,0,0,1-.115-.04c-3.7-2.84-7.358-5.837-10.872-8.906a.191.191,0,0,1,.252-.288c3.507,3.063,7.158,6.055,10.852,8.891a.191.191,0,0,1-.116.342Z" transform="translate(-113.004 -84.877)"/>
    </g>
    <g id="Grupo_155875" data-name="Grupo 155875" transform="translate(3.629 2.012)">
      <path id="Trazado_196284" data-name="Trazado 196284" d="M124.019,91.268a.19.19,0,0,1-.12-.043l-9.331-7.59a.19.19,0,0,1-.027-.268.192.192,0,0,1,.268-.027l9.331,7.59a.191.191,0,0,1-.121.338Z" transform="translate(-114.498 -83.298)"/>
    </g>
    <g id="Grupo_155876" data-name="Grupo 155876" transform="translate(8.052 2.287)">
      <path id="Trazado_196285" data-name="Trazado 196285" d="M123.7,88.185a.187.187,0,0,1-.112-.036,42.94,42.94,0,0,1-5-4.276.19.19,0,1,1,.269-.269,42.694,42.694,0,0,0,4.958,4.237.19.19,0,0,1-.113.344Z" transform="translate(-118.525 -83.548)"/>
    </g>
    <g id="Grupo_155877" data-name="Grupo 155877" transform="translate(11.748 2.086)">
      <path id="Trazado_196286" data-name="Trazado 196286" d="M123.339,84.894a.191.191,0,0,1-.129-.049L121.951,83.7a.192.192,0,0,1-.012-.269.19.19,0,0,1,.269-.012l1.259,1.148a.19.19,0,0,1-.129.331Z" transform="translate(-121.89 -83.365)"/>
    </g>
  </g>
</svg>
