<svg id="Grupo_177184" data-name="Grupo 177184" xmlns="http://www.w3.org/2000/svg" xmlns:xlink="http://www.w3.org/1999/xlink" width="83.204" height="61.147" viewBox="0 0 83.204 61.147">
  <defs>
    <linearGradient id="linear-gradient" x1="0.5" x2="0.5" y2="1" gradientUnits="objectBoundingBox">
      <stop offset="0" stop-color="#278d7e"/>
      <stop offset="1" stop-color="#4fc1b1"/>
    </linearGradient>
    <clipPath id="clip-path">
      <rect id="Rectángulo_53201" data-name="Rectángulo 53201" width="83.204" height="61.147" fill="url(#linear-gradient)"/>
    </clipPath>
    <clipPath id="clip-path-2">
      <rect id="Rectángulo_53200" data-name="Rectángulo 53200" width="83.204" height="61.147" fill="none"/>
    </clipPath>
    <clipPath id="clip-path-3">
      <rect id="Rectángulo_53198" data-name="Rectángulo 53198" width="29.381" height="3.197" fill="none"/>
    </clipPath>
    <clipPath id="clip-path-4">
      <rect id="Rectángulo_53199" data-name="Rectángulo 53199" width="9.928" height="2.798" fill="none"/>
    </clipPath>
  </defs>
  <g id="Grupo_172839" data-name="Grupo 172839" transform="translate(0 0)" clip-path="url(#clip-path)">
    <g id="Grupo_172838" data-name="Grupo 172838">
      <g id="Grupo_172837" data-name="Grupo 172837" clip-path="url(#clip-path-2)">
        <path id="Trazado_213506" data-name="Trazado 213506" d="M82.928,64.531c0-19.41.228-36.312,0-54.534C55.733,10,28.4,10.787,1,10.5.738,29.071,1,46.539,1,64.6q41.076,0,81.927-.065" transform="translate(-0.352 -3.978)" fill="#fff"/>
        <path id="Trazado_213507" data-name="Trazado 213507" d="M.648,64.776a.529.529,0,0,1-.529-.529c0-6.02-.029-12.074-.06-17.929C0,34.621-.058,22.526.119,10.143a.528.528,0,0,1,.529-.521h0c15.825.166,31.875-.031,47.4-.221,11.327-.139,23.038-.282,34.524-.282a.529.529,0,0,1,.529.521c.149,12.022.1,23.4.052,35.437-.025,6.144-.052,12.5-.052,19.106a.529.529,0,0,1-.529.529c-13.606,0-27.461.016-40.86.033-13.451.016-27.358.033-41.067.033m.521-54.093c-.166,12.19-.108,24.1-.051,35.629.027,5.685.057,11.559.06,17.406,13.539,0,27.261-.016,40.538-.031,13.226-.016,26.9-.033,40.337-.033,0-6.421.026-12.6.052-18.583.05-11.86.1-23.076-.046-34.9-11.313,0-22.838.146-33.989.283-15.36.188-31.236.383-46.9.225Z" transform="translate(0 -3.629)"/>
        <path id="Trazado_213508" data-name="Trazado 213508" d="M1.249,1.24C1.158,3.5,1.18,5.653,1.076,8.248,28.5,8.308,55.668,8.271,83,8.184c0-2.343-.069-5.4-.069-7.305Z" transform="translate(-0.428 -0.35)" fill="url(#linear-gradient)"/>
        <path id="Trazado_213509" data-name="Trazado 213509" d="M28.445,8.456c-9.519,0-18.733-.01-27.72-.03A.529.529,0,0,1,.2,7.9v-.02C.25,6.542.271,5.324.29,4.147.308,3.027.325,1.97.37.869A.529.529,0,0,1,.9.361L82.58,0h0a.529.529,0,0,1,.527.529c0,.9.016,2.06.033,3.28.018,1.371.037,2.79.037,4.024a.529.529,0,0,1-.527.529c-19.295.064-37.234.095-54.209.095M1.274,7.372c24.708.053,51.167.031,80.851-.06,0-1.1-.021-2.308-.037-3.485-.014-1-.026-1.954-.031-2.762L1.408,1.42c-.031.912-.046,1.806-.06,2.75-.016,1.017-.034,2.069-.076,3.2Z" transform="translate(-0.078)"/>
        <path id="Trazado_213510" data-name="Trazado 213510" d="M96.131,7.329a.529.529,0,0,1-.009-1.057L99.894,6.2H99.9a.529.529,0,0,1,.009,1.057l-3.771.067Z" transform="translate(-38.044 -2.469)"/>
        <path id="Trazado_213511" data-name="Trazado 213511" d="M109.99,7.438a.528.528,0,1,1-.009-1.057l3.771-.067h.01a.529.529,0,0,1,.009,1.057L110,7.438Z" transform="translate(-43.56 -2.513)"/>
        <path id="Trazado_213512" data-name="Trazado 213512" d="M123.4,7.214a.528.528,0,1,1-.009-1.057l3.772-.067h.009a.529.529,0,0,1,.009,1.058l-3.771.066Z" transform="translate(-48.897 -2.424)"/>
        <path id="Trazado_213513" data-name="Trazado 213513" d="M17.21,32.706a.529.529,0,0,1-.018-1.057l9.16-.312a.535.535,0,0,1,.546.509.528.528,0,0,1-.509.546h0l-9.159.312Z" transform="translate(-6.641 -12.471)"/>
        <path id="Trazado_213514" data-name="Trazado 213514" d="M18.039,50.4a.529.529,0,1,1-.013-1.057l12.262-.312H30.3a.529.529,0,0,1,.013,1.057L18.053,50.4Z" transform="translate(-6.966 -19.514)"/>
        <path id="Trazado_213515" data-name="Trazado 213515" d="M17.732,68.1a.533.533,0,0,1-.007-1.058l21.858-.311h.007a.533.533,0,0,1,0,1.057L17.737,68.1Z" transform="translate(-6.87 -26.557)"/>
        <path id="Trazado_213516" data-name="Trazado 213516" d="M17.8,83.019a.529.529,0,1,1-.007-1.058l24.819-.311h.007a.528.528,0,0,1,.006,1.057L17.8,83.019Z" transform="translate(-6.87 -32.494)"/>
        <g id="Grupo_172833" data-name="Grupo 172833" transform="translate(0.768 7.56)" opacity="0.129">
          <g id="Grupo_172832" data-name="Grupo 172832">
            <g id="Grupo_172831" data-name="Grupo 172831" clip-path="url(#clip-path-3)">
              <path id="Trazado_213517" data-name="Trazado 213517" d="M29.989,12.876c-.594-.35-1.3-.092-1.949-.108-2.7-.033-5.411-.253-8.121-.2-3.07.037-6.136.314-9.206.2-1.753-.073-3.507-.013-5.26-.055-.674-.016-1.348-.019-2.022-.015a3.3,3.3,0,0,0-1.318.12,1.389,1.389,0,0,0,.536,2.663c4.445.02,8.885.361,13.33.263,4.428-.191,8.869.014,13.288-.306l.034,0a1.522,1.522,0,0,0,.967-.4,1.385,1.385,0,0,0-.277-2.15" transform="translate(-1.276 -12.558)"/>
            </g>
          </g>
        </g>
        <g id="Grupo_172836" data-name="Grupo 172836" transform="translate(72.94 7.382)" opacity="0.129">
          <g id="Grupo_172835" data-name="Grupo 172835">
            <g id="Grupo_172834" data-name="Grupo 172834" clip-path="url(#clip-path-4)">
              <path id="Trazado_213518" data-name="Trazado 213518" d="M130.478,12.435a1.365,1.365,0,0,0-1.1-.1c.027-.012.039-.017.012-.008-.287.047-.576.087-.86.149l-.072.008c-1.742.006-3.492-.161-5.241-.1-.583,0-1.249-.083-1.686.391a1.353,1.353,0,0,0,.949,2.293c1.5-.108,3-.12,4.507-.095,1.232-.1.975-.11,1.866-.157.277,0,.553-.033.83-.048h0a1.254,1.254,0,0,0,.91-.275,1.242,1.242,0,0,0-.123-2.05" transform="translate(-121.156 -12.261)"/>
            </g>
          </g>
        </g>
        <path id="Trazado_213519" data-name="Trazado 213519" d="M94.346,67.3a.731.731,0,1,0,.214.517.734.734,0,0,0-.214-.517" transform="translate(-37.049 -26.697)"/>
        <path id="Trazado_213520" data-name="Trazado 213520" d="M94.346,67.3a.731.731,0,1,0,.214.517A.734.734,0,0,0,94.346,67.3Z" transform="translate(-37.049 -26.697)" fill="none" stroke="#fff" stroke-miterlimit="10" stroke-width="0.75"/>
        <path id="Trazado_213521" data-name="Trazado 213521" d="M99.258,46.291a.732.732,0,0,0-.731.731v3.217H85.945V48.433a5.467,5.467,0,0,0-4.785-5.416,3.8,3.8,0,0,0,.852-2.4V35.469a.731.731,0,0,0-.731-.731H77.453a3.088,3.088,0,0,0-3.084,3.084v2.794a3.8,3.8,0,0,0,.852,2.4,5.466,5.466,0,0,0-4.784,5.416v1.806H67.95V32.665a.569.569,0,0,1,.571-.567H83.726a.732.732,0,0,0,0-1.464H68.52a2.034,2.034,0,0,0-2.034,2.031V54.354a2.034,2.034,0,0,0,2.034,2.03H79.652v3.379a3.667,3.667,0,0,0-3.29,3.644.732.732,0,0,0,.731.731H89.383a.732.732,0,0,0,.732-.731,3.668,3.668,0,0,0-3.291-3.644V56.384H97.956a2.034,2.034,0,0,0,2.034-2.03V47.022a.732.732,0,0,0-.731-.731M75.832,37.822A1.623,1.623,0,0,1,77.453,36.2h3.1v1.168A1.053,1.053,0,0,1,79.5,38.421H75.832Zm0,2.063H79.5a2.5,2.5,0,0,0,1.052-.232v.963a2.358,2.358,0,0,1-4.717,0Zm3.212,4.553-.854.854-.854-.854Zm-7.145,4a4,4,0,0,1,3.412-3.953l2.362,2.362a.732.732,0,0,0,1.035,0L81.07,44.48a4,4,0,0,1,3.412,3.953v1.806H71.9ZM88.526,62.675H77.95a2.2,2.2,0,0,1,2.074-1.468h6.428a2.2,2.2,0,0,1,2.074,1.468m-7.41-6.291h4.246v3.361H81.116Zm17.412-2.03a.57.57,0,0,1-.571.567H68.52a.57.57,0,0,1-.571-.567V51.7H98.527Z" transform="translate(-26.459 -12.191)"/>
        <path id="Trazado_213522" data-name="Trazado 213522" d="M99.258,46.291a.732.732,0,0,0-.731.731v3.217H85.945V48.433a5.467,5.467,0,0,0-4.785-5.416,3.8,3.8,0,0,0,.852-2.4V35.469a.731.731,0,0,0-.731-.731H77.453a3.088,3.088,0,0,0-3.084,3.084v2.794a3.8,3.8,0,0,0,.852,2.4,5.466,5.466,0,0,0-4.784,5.416v1.806H67.95V32.665a.569.569,0,0,1,.571-.567H83.726a.732.732,0,0,0,0-1.464H68.52a2.034,2.034,0,0,0-2.034,2.031V54.354a2.034,2.034,0,0,0,2.034,2.03H79.652v3.379a3.667,3.667,0,0,0-3.29,3.644.732.732,0,0,0,.731.731H89.383a.732.732,0,0,0,.732-.731,3.668,3.668,0,0,0-3.291-3.644V56.384H97.956a2.034,2.034,0,0,0,2.034-2.03V47.022A.732.732,0,0,0,99.258,46.291ZM75.832,37.822A1.623,1.623,0,0,1,77.453,36.2h3.1v1.168A1.053,1.053,0,0,1,79.5,38.421H75.832Zm0,2.063H79.5a2.5,2.5,0,0,0,1.052-.232v.963a2.358,2.358,0,0,1-4.717,0Zm3.212,4.553-.854.854-.854-.854Zm-7.145,4a4,4,0,0,1,3.412-3.953l2.362,2.362a.732.732,0,0,0,1.035,0L81.07,44.48a4,4,0,0,1,3.412,3.953v1.806H71.9ZM88.526,62.675H77.95a2.2,2.2,0,0,1,2.074-1.468h6.428A2.2,2.2,0,0,1,88.526,62.675Zm-7.41-6.291h4.246v3.361H81.116Zm17.412-2.03a.57.57,0,0,1-.571.567H68.52a.57.57,0,0,1-.571-.567V51.7H98.527Z" transform="translate(-26.459 -12.191)" fill="none" stroke="#fff" stroke-miterlimit="10" stroke-width="0.75"/>
        <path id="Trazado_213523" data-name="Trazado 213523" d="M120.956,52.276a.731.731,0,1,0,.214.517.736.736,0,0,0-.214-.517" transform="translate(-47.639 -20.719)"/>
        <path id="Trazado_213524" data-name="Trazado 213524" d="M120.956,52.276a.731.731,0,1,0,.214.517A.736.736,0,0,0,120.956,52.276Z" transform="translate(-47.639 -20.719)" fill="none" stroke="#fff" stroke-miterlimit="10" stroke-width="0.75"/>
        <path id="Trazado_213525" data-name="Trazado 213525" d="M116.812,29.786h-5.486a.731.731,0,1,0,0,1.463h5.486a.731.731,0,1,0,0-1.463" transform="translate(-44.012 -11.854)"/>
        <path id="Trazado_213526" data-name="Trazado 213526" d="M116.812,29.786h-5.486a.731.731,0,1,0,0,1.463h5.486a.731.731,0,1,0,0-1.463Z" transform="translate(-44.012 -11.854)" fill="none" stroke="#fff" stroke-miterlimit="10" stroke-width="0.75"/>
        <path id="Trazado_213527" data-name="Trazado 213527" d="M106.861,30a.731.731,0,1,0,.214.517.737.737,0,0,0-.214-.517" transform="translate(-42.03 -11.854)"/>
        <path id="Trazado_213528" data-name="Trazado 213528" d="M106.861,30a.731.731,0,1,0,.214.517A.737.737,0,0,0,106.861,30Z" transform="translate(-42.03 -11.854)" fill="none" stroke="#fff" stroke-miterlimit="10" stroke-width="0.75"/>
        <path id="Trazado_213529" data-name="Trazado 213529" d="M114.829,35.132h-8.486a.731.731,0,1,0,0,1.463h8.486a.731.731,0,0,0,0-1.463" transform="translate(-42.03 -13.981)"/>
        <path id="Trazado_213530" data-name="Trazado 213530" d="M114.829,35.132h-8.486a.731.731,0,1,0,0,1.463h8.486a.731.731,0,0,0,0-1.463Z" transform="translate(-42.03 -13.981)" fill="none" stroke="#fff" stroke-miterlimit="10" stroke-width="0.75"/>
        <path id="Trazado_213531" data-name="Trazado 213531" d="M114.829,40.479h-8.486a.731.731,0,0,0,0,1.463h8.486a.731.731,0,0,0,0-1.463" transform="translate(-42.03 -16.109)"/>
        <path id="Trazado_213532" data-name="Trazado 213532" d="M114.829,40.479h-8.486a.731.731,0,0,0,0,1.463h8.486a.731.731,0,0,0,0-1.463Z" transform="translate(-42.03 -16.109)" fill="none" stroke="#fff" stroke-miterlimit="10" stroke-width="0.75"/>
        <path id="Trazado_213533" data-name="Trazado 213533" d="M113.242,24.075H102.708a3.662,3.662,0,0,0-3.658,3.658V35.56a3.663,3.663,0,0,0,3.244,3.635v1.9a.731.731,0,0,0,1.248.517l2.395-2.395h7.305A3.661,3.661,0,0,0,116.9,35.56V27.733a3.662,3.662,0,0,0-3.657-3.658m2.2,11.485a2.2,2.2,0,0,1-2.2,2.194h-7.608a.731.731,0,0,0-.517.214l-1.36,1.361v-.843a.732.732,0,0,0-.732-.731h-.317a2.2,2.2,0,0,1-2.2-2.194V27.733a2.2,2.2,0,0,1,2.2-2.2h10.534a2.2,2.2,0,0,1,2.2,2.2Z" transform="translate(-39.418 -9.581)"/>
        <path id="Trazado_213534" data-name="Trazado 213534" d="M113.242,24.075H102.708a3.662,3.662,0,0,0-3.658,3.658V35.56a3.663,3.663,0,0,0,3.244,3.635v1.9a.731.731,0,0,0,1.248.517l2.395-2.395h7.305A3.661,3.661,0,0,0,116.9,35.56V27.733A3.662,3.662,0,0,0,113.242,24.075Zm2.2,11.485a2.2,2.2,0,0,1-2.2,2.194h-7.608a.731.731,0,0,0-.517.214l-1.36,1.361v-.843a.732.732,0,0,0-.732-.731h-.317a2.2,2.2,0,0,1-2.2-2.194V27.733a2.2,2.2,0,0,1,2.2-2.2h10.534a2.2,2.2,0,0,1,2.2,2.2Z" transform="translate(-39.418 -9.581)" fill="none" stroke="#fff" stroke-miterlimit="10" stroke-width="0.75"/>
      </g>
    </g>
  </g>
</svg>
