<svg id="Grupo_169381" data-name="Grupo 169381" xmlns="http://www.w3.org/2000/svg" width="77.849" height="58.672" viewBox="0 0 77.849 58.672">
  <g id="Grupo_156205" data-name="Grupo 156205" transform="translate(0 0)">
    <g id="Grupo_156176" data-name="Grupo 156176" transform="translate(0 10.722)">
      <path id="Trazado_196533" data-name="Trazado 196533" d="M809.6,184.183c0-16.722.2-31.284,0-46.983-23.429,0-46.978.681-70.583.433-.227,16,0,31.05,0,46.606Q774.41,184.239,809.6,184.183Z" transform="translate(-738.466 -136.745)" fill="#fff"/>
      <path id="Trazado_196534" data-name="Trazado 196534" d="M738.956,184.629a.456.456,0,0,1-.455-.456c0-5.186-.025-10.4-.05-15.447-.05-10.077-.1-20.5.05-31.166a.455.455,0,0,1,.455-.449h0c13.634.143,27.461-.026,40.835-.191,9.758-.12,19.848-.243,29.743-.243a.456.456,0,0,1,.456.449c.128,10.357.088,20.156.044,30.529-.022,5.293-.044,10.766-.044,16.46a.455.455,0,0,1-.456.455c-11.722,0-23.658.014-35.2.028C762.749,184.615,750.767,184.629,738.956,184.629Zm.449-46.6c-.143,10.5-.093,20.765-.044,30.7.024,4.9.049,9.957.05,15,11.664,0,23.487-.014,34.925-.027,11.395-.014,23.172-.028,34.749-.028,0-5.532.023-10.856.045-16.01.043-10.219.082-19.88-.039-30.064-9.747,0-19.676.126-29.283.244C766.578,137.995,752.9,138.164,739.4,138.027Z" transform="translate(-738.401 -136.679)"/>
    </g>
    <g id="Grupo_156177" data-name="Grupo 156177" transform="translate(0.1 5.993)">
      <path id="Trazado_196535" data-name="Trazado 196535" d="M739.185,132.1c-.078,1.951-.06,3.8-.149,6.038,23.625.051,47.032.02,70.583-.055,0-2.018-.06-4.654-.06-6.293Z" transform="translate(-738.58 -131.337)" fill="#7f4fc7"/>
      <path id="Trazado_196536" data-name="Trazado 196536" d="M762.852,138.555c-8.2,0-16.139-.009-23.882-.025a.456.456,0,0,1-.455-.473c.046-1.15.064-2.2.081-3.213.016-.965.03-1.876.069-2.825a.456.456,0,0,1,.453-.437l70.374-.31h0a.455.455,0,0,1,.455.456c0,.776.014,1.775.028,2.826.016,1.181.032,2.4.032,3.467a.455.455,0,0,1-.454.456C792.931,138.529,777.476,138.555,762.852,138.555Zm-23.409-.935c21.286.045,44.081.026,69.655-.054,0-.945-.018-1.988-.032-3-.012-.859-.023-1.683-.027-2.38l-69.481.306c-.026.786-.039,1.558-.053,2.369C739.492,135.738,739.477,136.644,739.443,137.62Z" transform="translate(-738.515 -131.271)"/>
    </g>
    <g id="Grupo_156178" data-name="Grupo 156178" transform="translate(49.585 9.21)">
      <path id="Trazado_196537" data-name="Trazado 196537" d="M795.569,135.919a.456.456,0,0,1-.008-.911l3.25-.058h.008a.456.456,0,0,1,.008.911l-3.249.058Z" transform="translate(-795.114 -134.95)"/>
    </g>
    <g id="Grupo_156179" data-name="Grupo 156179" transform="translate(56.773 9.268)">
      <path id="Trazado_196538" data-name="Trazado 196538" d="M803.791,135.984a.455.455,0,0,1-.008-.91l3.249-.058h.009a.456.456,0,0,1,.008.911l-3.25.057Z" transform="translate(-803.335 -135.016)"/>
    </g>
    <g id="Grupo_156180" data-name="Grupo 156180" transform="translate(63.73 9.151)">
      <path id="Trazado_196539" data-name="Trazado 196539" d="M811.747,135.851a.455.455,0,0,1-.008-.91l3.25-.058H815a.456.456,0,0,1,.008.911l-3.249.057Z" transform="translate(-811.292 -134.883)"/>
    </g>
    <g id="Grupo_156181" data-name="Grupo 156181" transform="translate(8.648 22.247)">
      <path id="Trazado_196540" data-name="Trazado 196540" d="M748.747,151.04a.455.455,0,0,1-.016-.91l7.892-.268a.461.461,0,0,1,.47.439.455.455,0,0,1-.44.47l-7.891.268Z" transform="translate(-748.292 -149.861)"/>
    </g>
    <g id="Grupo_156182" data-name="Grupo 156182" transform="translate(9.083 31.426)">
      <path id="Trazado_196541" data-name="Trazado 196541" d="M749.244,161.538a.456.456,0,0,1-.011-.911l10.564-.268h.011a.455.455,0,0,1,.011.91l-10.564.269Z" transform="translate(-748.789 -160.359)"/>
    </g>
    <g id="Grupo_156183" data-name="Grupo 156183" transform="translate(8.955 40.605)">
      <path id="Trazado_196542" data-name="Trazado 196542" d="M749.1,172.038a.456.456,0,0,1-.006-.911l21.382-.268h.006a.455.455,0,0,1,.005.91l-21.382.269Z" transform="translate(-748.643 -170.858)"/>
    </g>
    <g id="Grupo_156184" data-name="Grupo 156184" transform="translate(9.083 48.816)">
      <path id="Trazado_196543" data-name="Trazado 196543" d="M749.245,181.428a.455.455,0,0,1,0-.91l37.5-.268h0a.455.455,0,0,1,0,.91l-37.5.268Z" transform="translate(-748.789 -180.249)"/>
    </g>
    <g id="Grupo_156200" data-name="Grupo 156200" transform="translate(24.237)">
      <g id="Grupo_156185" data-name="Grupo 156185" transform="translate(32.225 30.054)">
        <path id="Trazado_196544" data-name="Trazado 196544" d="M803.5,163.834l9.535,9.381a62.751,62.751,0,0,0,5.191,4.74,5.645,5.645,0,0,0,3.285,1.5,2.486,2.486,0,0,0,2.466-2.369,4.084,4.084,0,0,0-1.422-2.63q-7.591-8.007-15.844-15.159C805.705,160.776,804.7,162.251,803.5,163.834Z" transform="translate(-803.045 -158.854)" fill="#fff"/>
        <path id="Trazado_196545" data-name="Trazado 196545" d="M821.446,179.849h0a6,6,0,0,1-3.565-1.6,63.173,63.173,0,0,1-5.229-4.774l-9.535-9.381a.454.454,0,0,1-.044-.6c1.187-1.568,2.2-3.057,3.186-4.5a.479.479,0,0,1,.323-.2.467.467,0,0,1,.364.1c5.483,4.752,10.824,9.862,15.875,15.19a4.477,4.477,0,0,1,1.547,2.941,2.69,2.69,0,0,1-.811,1.92A3.051,3.051,0,0,1,821.446,179.849Zm-17.409-16.123,9.251,9.1a62.693,62.693,0,0,0,5.152,4.706,5.251,5.251,0,0,0,3,1.407h0a2.127,2.127,0,0,0,1.464-.637,1.79,1.79,0,0,0,.546-1.272,3.687,3.687,0,0,0-1.3-2.32c-4.912-5.181-10.1-10.156-15.425-14.793C805.891,161.15,805.022,162.408,804.038,163.726Z" transform="translate(-802.979 -158.79)"/>
      </g>
      <g id="Grupo_156187" data-name="Grupo 156187">
        <g id="Grupo_156186" data-name="Grupo 156186">
          <path id="Trazado_196546" data-name="Trazado 196546" d="M786.465,124.937a19.822,19.822,0,1,0,19.822,19.822A19.822,19.822,0,0,0,786.465,124.937Zm0,34.876a15.055,15.055,0,1,1,15.054-15.055A15.055,15.055,0,0,1,786.465,159.814Zm0,0a15.055,15.055,0,1,1,15.054-15.055A15.055,15.055,0,0,1,786.465,159.814Z" transform="translate(-766.188 -124.482)" fill="#fff"/>
          <path id="Trazado_196547" data-name="Trazado 196547" d="M786.4,164.97a20.277,20.277,0,1,1,20.277-20.277A20.3,20.3,0,0,1,786.4,164.97Zm0-39.644a19.367,19.367,0,1,0,19.366,19.367A19.389,19.389,0,0,0,786.4,125.326Zm0,34.877a15.51,15.51,0,1,1,15.51-15.51A15.528,15.528,0,0,1,786.4,160.2Zm-14.6-15.51a14.6,14.6,0,1,0,14.6-14.6A14.616,14.616,0,0,0,771.8,144.693Z" transform="translate(-766.122 -124.416)"/>
        </g>
      </g>
      <g id="Grupo_156188" data-name="Grupo 156188" transform="translate(10.533 18.062)">
        <path id="Trazado_196548" data-name="Trazado 196548" d="M778.689,147.15a1.555,1.555,0,1,1,1.555,1.555A1.555,1.555,0,0,1,778.689,147.15Z" transform="translate(-778.234 -145.14)" fill="#fff"/>
        <path id="Trazado_196549" data-name="Trazado 196549" d="M780.179,149.1a2.01,2.01,0,1,1,2.011-2.01A2.012,2.012,0,0,1,780.179,149.1Zm0-3.111a1.1,1.1,0,1,0,1.1,1.1A1.1,1.1,0,0,0,780.179,145.984Z" transform="translate(-778.169 -145.074)"/>
      </g>
      <g id="Grupo_156189" data-name="Grupo 156189" transform="translate(18.064 18.062)">
        <ellipse id="Elipse_6032" data-name="Elipse 6032" cx="1.555" cy="1.555" rx="1.555" ry="1.555" transform="translate(0.455 0.455)" fill="#fff"/>
        <path id="Trazado_196550" data-name="Trazado 196550" d="M788.793,149.1a2.01,2.01,0,1,1,2.011-2.01A2.012,2.012,0,0,1,788.793,149.1Zm0-3.111a1.1,1.1,0,1,0,1.1,1.1A1.1,1.1,0,0,0,788.793,145.984Z" transform="translate(-786.783 -145.074)"/>
      </g>
      <g id="Grupo_156190" data-name="Grupo 156190" transform="translate(25.596 18.062)">
        <ellipse id="Elipse_6033" data-name="Elipse 6033" cx="1.555" cy="1.555" rx="1.555" ry="1.555" transform="translate(0.455 0.455)" fill="#fff"/>
        <path id="Trazado_196551" data-name="Trazado 196551" d="M797.408,149.1a2.01,2.01,0,1,1,2.01-2.01A2.013,2.013,0,0,1,797.408,149.1Zm0-3.111a1.1,1.1,0,1,0,1.1,1.1A1.1,1.1,0,0,0,797.408,145.984Z" transform="translate(-795.397 -145.074)"/>
      </g>
      <g id="Grupo_156191" data-name="Grupo 156191" transform="translate(35.084 34.078)">
        <path id="Trazado_196552" data-name="Trazado 196552" d="M806.4,164.917a.144.144,0,0,1-.042-.006.153.153,0,0,1-.1-.188l.35-1.22a.151.151,0,0,1,.291.083l-.349,1.221A.152.152,0,0,1,806.4,164.917Z" transform="translate(-806.25 -163.393)"/>
      </g>
      <g id="Grupo_156192" data-name="Grupo 156192" transform="translate(36.752 33.161)">
        <path id="Trazado_196553" data-name="Trazado 196553" d="M808.309,166.922h-.02a.153.153,0,0,1-.131-.17c.187-1.426.412-2.867.669-4.282a.152.152,0,1,1,.3.055c-.257,1.41-.481,2.846-.666,4.267A.152.152,0,0,1,808.309,166.922Z" transform="translate(-808.156 -162.343)"/>
      </g>
      <g id="Grupo_156193" data-name="Grupo 156193" transform="translate(38.918 35)">
        <path id="Trazado_196554" data-name="Trazado 196554" d="M810.785,169.261a.151.151,0,0,1-.151-.152c0-.713.109-1.909.206-2.963.059-.646.11-1.2.128-1.554a.151.151,0,1,1,.3.015c-.018.357-.069.917-.128,1.566-.1,1.049-.2,2.237-.2,2.936A.152.152,0,0,1,810.785,169.261Z" transform="translate(-810.634 -164.447)"/>
      </g>
      <g id="Grupo_156194" data-name="Grupo 156194" transform="translate(41.019 36.491)">
        <path id="Trazado_196555" data-name="Trazado 196555" d="M813.3,171.52a.152.152,0,0,1-.152-.149l-.115-5.062a.152.152,0,1,1,.3-.007l.114,5.062a.153.153,0,0,1-.148.156Z" transform="translate(-813.038 -166.153)"/>
      </g>
      <g id="Grupo_156195" data-name="Grupo 156195" transform="translate(43.045 38.492)">
        <path id="Trazado_196556" data-name="Trazado 196556" d="M815.706,174.045a.152.152,0,0,1-.152-.146l-.2-5.3a.153.153,0,0,1,.146-.157.159.159,0,0,1,.157.146l.2,5.3a.152.152,0,0,1-.147.157Z" transform="translate(-815.355 -168.441)"/>
      </g>
      <g id="Grupo_156196" data-name="Grupo 156196" transform="translate(45.122 40.728)">
        <path id="Trazado_196557" data-name="Trazado 196557" d="M818.151,176.254a.152.152,0,0,1-.151-.143l-.268-4.952a.153.153,0,0,1,.144-.16.147.147,0,0,1,.16.143l.268,4.952a.152.152,0,0,1-.143.16Z" transform="translate(-817.731 -170.999)"/>
      </g>
      <g id="Grupo_156197" data-name="Grupo 156197" transform="translate(47.145 42.603)">
        <path id="Trazado_196558" data-name="Trazado 196558" d="M820.568,178.269a.152.152,0,0,1-.151-.14l-.372-4.822a.151.151,0,0,1,.3-.024l.372,4.822a.151.151,0,0,1-.14.163Z" transform="translate(-820.044 -173.143)"/>
      </g>
      <g id="Grupo_156198" data-name="Grupo 156198" transform="translate(49.095 44.764)">
        <path id="Trazado_196559" data-name="Trazado 196559" d="M822.86,180.147a.151.151,0,0,1-.15-.136l-.435-4.229a.151.151,0,0,1,.135-.166.157.157,0,0,1,.166.136l.435,4.229a.151.151,0,0,1-.136.166Z" transform="translate(-822.274 -175.615)"/>
      </g>
      <g id="Grupo_156199" data-name="Grupo 156199" transform="translate(51.194 46.879)">
        <path id="Trazado_196560" data-name="Trazado 196560" d="M825.132,180.227a.153.153,0,0,1-.15-.128l-.305-1.889a.151.151,0,0,1,.125-.174.149.149,0,0,1,.174.125l.306,1.889a.152.152,0,0,1-.126.174Z" transform="translate(-824.676 -178.033)"/>
      </g>
    </g>
    <g id="Grupo_156201" data-name="Grupo 156201" transform="translate(0.654 12.506)" opacity="0.129">
      <path id="Trazado_196561" data-name="Trazado 196561" d="M763.891,138.994c-.511-.3-1.122-.08-1.68-.093-2.33-.028-4.662-.219-7-.175-2.645.031-5.286.27-7.932.169-1.51-.063-3.022-.011-4.532-.047-.581-.014-1.161-.017-1.742-.013a2.842,2.842,0,0,0-1.136.1,1.2,1.2,0,0,0,.462,2.294c3.83.017,7.655.31,11.484.226,3.815-.164,7.64.012,11.447-.264l.029,0a1.31,1.31,0,0,0,.833-.345A1.192,1.192,0,0,0,763.891,138.994Z" transform="translate(-739.149 -138.72)"/>
    </g>
    <g id="Grupo_156202" data-name="Grupo 156202" transform="translate(62.832 12.353)" opacity="0.129">
      <path id="Trazado_196562" data-name="Trazado 196562" d="M818.3,138.694a1.177,1.177,0,0,0-.944-.09c.023-.01.033-.015.01-.007-.247.04-.5.075-.741.129l-.062.007c-1.5.005-3.009-.139-4.516-.089-.5,0-1.076-.072-1.451.337a1.166,1.166,0,0,0,.817,1.975c1.294-.093,2.587-.1,3.883-.081,1.061-.082.84-.094,1.609-.136.239,0,.477-.028.715-.041.008,0,.008,0,0,0a1.082,1.082,0,0,0,.784-.237A1.07,1.07,0,0,0,818.3,138.694Z" transform="translate(-810.264 -138.545)"/>
    </g>
    <g id="Grupo_156203" data-name="Grupo 156203" transform="translate(29.481 18.527)" opacity="0.129">
      <path id="Trazado_196563" data-name="Trazado 196563" d="M791.757,161.452c.5-.169,1-.334,1.5-.516,1.07-.6,2.117-1.249,3.117-1.943A18.325,18.325,0,0,0,798.9,156.7a13.67,13.67,0,0,0,.914-1.034,1,1,0,0,0-.882.076,20.049,20.049,0,0,1-4.17,2.521,11.78,11.78,0,0,1-4.037,1.15,20.373,20.373,0,0,1-10.543-2.076,15.117,15.117,0,0,1-2.435-1.519q-.665-.538-1.273-1.14c-.172-.141-.656-.706-.839-.917a29.83,29.83,0,0,1-2.726-5.624,17.507,17.507,0,0,1-.523-1.691,5.182,5.182,0,0,0-.243-.84,16.856,16.856,0,0,0,.226,3.857,25.453,25.453,0,0,0,1.109,3.933c.134.23.269.458.4.682a22.654,22.654,0,0,0,3.641,4.709,17.953,17.953,0,0,0,3.187,1.6,23.324,23.324,0,0,0,6.816,1.6,14.483,14.483,0,0,0,2.561.012Q790.925,161.731,791.757,161.452Z" transform="translate(-772.12 -145.606)"/>
    </g>
    <g id="Grupo_156204" data-name="Grupo 156204" transform="translate(56.257 31.469)" opacity="0.129">
      <path id="Trazado_196564" data-name="Trazado 196564" d="M818.143,177.7a1.071,1.071,0,0,0-.413-.4l-.01-.01.012.005a.168.168,0,0,0-.021-.013c-.1-.1-.366-.338-.46-.437-1.525-1.537-3.251-2.848-4.857-4.293-1.169-1.086-2.152-2.355-3.371-3.389-1.27-1.091-2.3-2.42-3.546-3.535a1.188,1.188,0,0,0,.26-.115,8.771,8.771,0,0,0,2.061-1.872c.224-.262.47-.5.688-.772a1.477,1.477,0,0,0,.593-1,1.265,1.265,0,0,0-.919-1.407,1.363,1.363,0,0,0-1.617.928,17.575,17.575,0,0,1-1.924,1.879l-.136.094a1.253,1.253,0,0,0-.572.744,1.153,1.153,0,0,0-.047.335.792.792,0,0,0-.16-.017.971.971,0,0,0-.681,1.645,27.076,27.076,0,0,1,3.657,3.589c1.317,1.342,2.563,2.753,3.887,4.088,1.054,1.012,2.228,1.883,3.323,2.848.806.682,1.556,1.425,2.329,2.144a.9.9,0,0,0,.319.371A1.091,1.091,0,0,0,818.143,177.7Z" transform="translate(-802.745 -160.408)"/>
    </g>
  </g>
</svg>
