<svg xmlns="http://www.w3.org/2000/svg" xmlns:xlink="http://www.w3.org/1999/xlink" width="108.419" height="108.419" viewBox="0 0 108.419 108.419">
  <defs>
    <linearGradient id="linear-gradient" x1="0.5" x2="0.5" y2="1" gradientUnits="objectBoundingBox">
      <stop offset="0" stop-color="#fdbe41"/>
      <stop offset="1" stop-color="#d09f40"/>
    </linearGradient>
    <clipPath id="clip-path">
      <rect id="Rectángulo_57446" data-name="Rectángulo 57446" width="55.163" height="62.254" fill="none"/>
    </clipPath>
  </defs>
  <g id="Grupo_179502" data-name="Grupo 179502" transform="translate(-422.68 -6701.814)">
    <circle id="Elipse_6019" data-name="Elipse 6019" cx="54.209" cy="54.209" r="54.209" transform="translate(422.68 6701.814)" fill="url(#linear-gradient)"/>
    <g id="Grupo_179219" data-name="Grupo 179219" transform="translate(453.091 6724.374)">
      <g id="Grupo_179218" data-name="Grupo 179218" clip-path="url(#clip-path)">
        <path id="Trazado_227286" data-name="Trazado 227286" d="M.7,62.254A1.563,1.563,0,0,1,0,60.762Q.016,31.127.009,1.493C.009.294.311,0,1.532,0h46.8c1.173,0,1.484.306,1.484,1.464q0,6.717,0,13.434v.629H47.768V2.112H2.122V60.14H40.466v-.833c0-1.7,0-3.4,0-5.106,0-.913.381-1.289,1.3-1.292,1.963-.006,3.925,0,5.953,0V30.124h2.093v.686q0,11.337.01,22.674a2.016,2.016,0,0,1-.653,1.554c-2.207,2.177-4.388,4.379-6.586,6.566a10.09,10.09,0,0,1-.795.649Zm41.858-3.79,3.422-3.43H42.562Z" transform="translate(0 0)"/>
        <path id="Trazado_227287" data-name="Trazado 227287" d="M279.426,139.023a5.4,5.4,0,0,1-1.733,2.7q-8.545,8.508-17.05,17.055a1.974,1.974,0,0,1-1.606.669c-.808-.043-1.619,0-2.429-.014a1.078,1.078,0,0,1-1.212-1.2c-.019-.931-.044-1.866.016-2.793a1.7,1.7,0,0,1,.433-1.012q8.952-9,17.943-17.967a3.165,3.165,0,0,1,3.3-.846,3.041,3.041,0,0,1,2.238,2.47.915.915,0,0,0,.1.208Zm-21.909,18.263a2.381,2.381,0,0,0,2.51-.806c3.808-3.89,7.68-7.719,11.528-11.57.167-.167.326-.343.435-.458l-1.574-1.67c-.154.146-.3.281-.443.422-3.907,3.907-7.79,7.838-11.741,11.7a2.45,2.45,0,0,0-.716,2.381M276.174,140.3c.522-.625,1.4-1.03,1.035-1.987a1.421,1.421,0,0,0-.9-.739c-.889-.187-1.246.6-1.724,1.038l1.594,1.688m-3.084-.047-1.058.964,1.484,1.58,1.134-.992-1.559-1.553" transform="translate(-224.263 -118.961)"/>
        <path id="Trazado_227288" data-name="Trazado 227288" d="M203.787,172.589h-1.6v-2.062c1.438,0,2.85-.021,4.262.012a.82.82,0,0,1,.829.825c.034,1.411.012,2.824.012,4.274h-2.038v-1.355a25.139,25.139,0,0,0-5.893,9.744,30.761,30.761,0,0,0-1.334,11.316h-2.05a29.748,29.748,0,0,1,7.812-22.753" transform="translate(-172.037 -149.746)"/>
        <path id="Trazado_227289" data-name="Trazado 227289" d="M129.549,157.4v1.182H127.5c0-1.432-.027-2.845.015-4.256a.852.852,0,0,1,.881-.846c1.394-.026,2.789-.009,4.23-.009v2.042h-1.586c5.255,7.679,5.052,15.132-.627,22.55l-1.612-1.431a15.108,15.108,0,0,0,3.777-12.258,13.248,13.248,0,0,0-3.03-6.974" transform="translate(-111.96 -134.771)"/>
        <path id="Trazado_227290" data-name="Trazado 227290" d="M141.3,104.555l-1.473-1.493,1.268-1.074-.1-.192H128.143V99.711h12.829l.059-.137-1.325-1.056,1.592-1.534c1.042,1.019,2.131,2.041,3.166,3.115a.927.927,0,0,1-.075,1.37c-1,1.026-2.03,2.029-3.093,3.086" transform="translate(-112.532 -85.169)"/>
        <path id="Trazado_227291" data-name="Trazado 227291" d="M51.011,114.912a4.141,4.141,0,1,1-4.115-4.148,4.111,4.111,0,0,1,4.115,4.148m-2.073-.027a2.055,2.055,0,0,0-2.1-2.05,2.07,2.07,0,0,0,.044,4.139,2.043,2.043,0,0,0,2.055-2.089" transform="translate(-37.523 -97.27)"/>
        <path id="Trazado_227292" data-name="Trazado 227292" d="M72.553,349.263a4.141,4.141,0,1,1-4.168,4.092,4.151,4.151,0,0,1,4.168-4.092m-.031,6.21a2.07,2.07,0,1,0-.034-4.139,2.07,2.07,0,0,0,.034,4.139" transform="translate(-60.053 -306.713)"/>
        <path id="Trazado_227293" data-name="Trazado 227293" d="M289.448,106.312a4.141,4.141,0,1,1-4.142-4.132,4.151,4.151,0,0,1,4.142,4.132m-2.072.04a2.069,2.069,0,1,0-4.138-.008,2.069,2.069,0,0,0,4.138.008" transform="translate(-246.913 -89.732)"/>
        <path id="Trazado_227294" data-name="Trazado 227294" d="M178.731,396.016a4.142,4.142,0,1,1-4.1-4.165,4.147,4.147,0,0,1,4.1,4.165M176.658,396a2.035,2.035,0,0,0-2.07-2.069,2.059,2.059,0,0,0-2.068,2.024,2.1,2.1,0,0,0,2.052,2.118A2.079,2.079,0,0,0,176.658,396" transform="translate(-149.683 -344.112)"/>
        <path id="Trazado_227295" data-name="Trazado 227295" d="M294.922,347.015l-2.371-2.3,1.46-1.448,2.275,2.388,2.279-2.445,1.46,1.517-2.271,2.206L300.2,349.3l-1.671,1.456-2.134-2.371-2.42,2.494-1.468-1.488,2.416-2.38" transform="translate(-256.871 -301.393)"/>
        <path id="Trazado_227296" data-name="Trazado 227296" d="M176.984,33.005l-2.458,2.541-1.436-1.462,2.454-2.3-2.474-2.408,1.53-1.439,2.275,2.309,2.249-2.39,1.562,1.517-2.4,2.321,2.5,2.317-1.5,1.34-2.3-2.341" transform="translate(-151.984 -24.459)"/>
        <path id="Trazado_227297" data-name="Trazado 227297" d="M82.83,229.666l-2.388,2.427-1.423-1.566,2.309-2.172-2.437-2.368,1.619-1.48,2.234,2.383,2.294-2.4,1.479,1.546L84.255,228.2l2.419,2.269-1.6,1.615-2.247-2.414" transform="translate(-69.279 -197.141)"/>
      </g>
    </g>
  </g>
</svg>
