<svg xmlns="http://www.w3.org/2000/svg" xmlns:xlink="http://www.w3.org/1999/xlink" width="170.483" height="170.482" viewBox="0 0 170.483 170.482">
  <defs>
    <linearGradient id="linear-gradient" x1="0.5" x2="0.5" y2="1" gradientUnits="objectBoundingBox">
      <stop offset="0" stop-color="#0a518b"/>
      <stop offset="1" stop-color="#1894f6"/>
    </linearGradient>
    <filter id="Trazado_150709" x="0" y="0" width="170.483" height="170.482" filterUnits="userSpaceOnUse">
      <feOffset dx="5" dy="5" input="SourceAlpha"/>
      <feGaussianBlur stdDeviation="12.5" result="blur"/>
      <feFlood flood-opacity="0.161"/>
      <feComposite operator="in" in2="blur"/>
      <feComposite in="SourceGraphic"/>
    </filter>
    <clipPath id="clip-path">
      <rect id="Rectángulo_57553" data-name="Rectángulo 57553" width="67.132" height="60.298" fill="none"/>
    </clipPath>
  </defs>
  <g id="Grupo_179344" data-name="Grupo 179344" transform="translate(19.579 19.578)">
    <path id="Trazado_150708" data-name="Trazado 150708" d="M121.116,55.633A60.661,60.661,0,1,1,55.633.212a60.661,60.661,0,0,1,65.483,55.42" transform="translate(0 121.328) rotate(-90)" fill="url(#linear-gradient)"/>
    <g transform="matrix(1, 0, 0, 1, -19.58, -19.58)" filter="url(#Trazado_150709)">
      <path id="Trazado_150709-2" data-name="Trazado 150709" d="M95.315,43.782A47.739,47.739,0,1,1,43.782.167,47.739,47.739,0,0,1,95.315,43.782" transform="translate(32.5 127.98) rotate(-90)" fill="#fff"/>
    </g>
    <g id="Grupo_179357" data-name="Grupo 179357" transform="translate(25.197 30.586)">
      <g id="Grupo_179356" data-name="Grupo 179356" clip-path="url(#clip-path)">
        <path id="Trazado_228244" data-name="Trazado 228244" d="M147.117,0h42.377V28.629h-2.3V9.908H149.477V48.391h17.458v2.3H147.117Zm40.064,2.294h-.727q-9.59,0-19.18.006-8.634,0-17.267-.014c-.427,0-.586.089-.571.552.036,1.073.008,2.147.007,3.221,0,.465,0,.929,0,1.422h37.738V2.294Z" transform="translate(-132.296)"/>
        <path id="Trazado_228245" data-name="Trazado 228245" d="M391.344,305.5v4.773c-1.034.394-2.062.8-3.1,1.174a.787.787,0,0,0-.6.6,1.942,1.942,0,0,1-.25.655,1.682,1.682,0,0,0,0,1.907c.429.792.752,1.643,1.132,2.494-1.068,1.065-2.119,2.124-3.194,3.16a.593.593,0,0,1-.517.032c-.927-.39-1.835-.825-2.764-1.207a1.418,1.418,0,0,0-.7-.005c-.16.023-.3.162-.461.192a2.145,2.145,0,0,0-1.731,1.808,13.67,13.67,0,0,1-.712,1.879.581.581,0,0,1-.4.318c-1.476.023-2.953.014-4.477.014-.4-1.044-.815-2.082-1.193-3.133a.792.792,0,0,0-.6-.588,1.074,1.074,0,0,1-.377-.136,2.165,2.165,0,0,0-2.509.053c-.566.321-1.191.537-1.781.818a.449.449,0,0,1-.609-.091q-1.425-1.459-2.889-2.879a.421.421,0,0,1-.1-.566c.425-.911.852-1.823,1.23-2.754a1.354,1.354,0,0,0-.017-.788c-.083-.321-.3-.608-.372-.93a1.279,1.279,0,0,0-1-.98c-.935-.316-1.852-.689-2.817-1.054,0-1.5-.009-2.991.014-4.483a.58.58,0,0,1,.318-.406c.931-.382,1.882-.714,2.809-1.1a1.378,1.378,0,0,0,.525-.521c.128-.19.141-.458.271-.646a1.767,1.767,0,0,0-.038-2.047c-.355-.644-.6-1.347-.923-2.012a.478.478,0,0,1,.112-.65q1.443-1.4,2.846-2.851a.488.488,0,0,1,.656-.1c.9.417,1.8.836,2.71,1.212a1.438,1.438,0,0,0,.744-.005c.192-.034.362-.2.554-.23a1.916,1.916,0,0,0,1.538-1.615c.185-.659.493-1.283.717-1.932a.514.514,0,0,1,.573-.417c1.342.025,2.685.028,4.028.02a.423.423,0,0,1,.471.325c.333.913.694,1.816,1.023,2.73a.9.9,0,0,0,.664.667,2.365,2.365,0,0,1,.744.3,1.5,1.5,0,0,0,1.676-.006c.74-.39,1.528-.687,2.285-1.047a.413.413,0,0,1,.56.105c.951.971,1.923,1.922,2.865,2.9a.623.623,0,0,1,.085.548c-.39.945-.832,1.868-1.223,2.812a1.245,1.245,0,0,0,0,.652c.031.176.179.33.214.506a2.072,2.072,0,0,0,1.687,1.664c.786.22,1.536.572,2.309.868m-6.732,12.152a2.467,2.467,0,0,0,.221-.171c.206-.2.393-.417.613-.6a.481.481,0,0,0,.138-.686q-.569-1.177-1.065-2.388a.873.873,0,0,1,.012-.594q.6-1.514,1.252-3.005a.971.971,0,0,1,.439-.468c.58-.259,1.185-.465,1.779-.693,1.065-.41,1.053-.411,1.041-1.555a.5.5,0,0,0-.393-.54c-.8-.287-1.608-.583-2.394-.917a1.016,1.016,0,0,1-.47-.494q-.648-1.466-1.229-2.961a.978.978,0,0,1-.029-.641c.218-.58.49-1.139.744-1.7.483-1.076.491-1.084-.39-1.893a.626.626,0,0,0-.542-.1c-.806.331-1.585.727-2.393,1.051a1.07,1.07,0,0,1-.731-.033c-.494-.2-.951-.5-1.441-.711-.627-.276-1.432-.357-1.866-.806a5.765,5.765,0,0,1-.8-1.928c-.407-1.05-.408-1.039-1.558-1.023a.468.468,0,0,0-.514.357c-.3.836-.612,1.668-.952,2.488a.868.868,0,0,1-.429.4q-1.491.652-3.006,1.25a.971.971,0,0,1-.643.021c-.578-.221-1.136-.5-1.7-.753-1.053-.476-1.043-.465-1.864.343a.506.506,0,0,0-.107.692c.364.755.713,1.519,1.02,2.3a1.078,1.078,0,0,1-.034.731c-.209.51-.5.984-.727,1.489-.27.613-.349,1.4-.789,1.823a5.6,5.6,0,0,1-1.885.778c-1.092.419-1.081.42-1.056,1.583a.472.472,0,0,0,.368.507c.742.266,1.468.575,2.214.828a.985.985,0,0,1,.753.811,8.106,8.106,0,0,0,.469,1.377c.251.625.746,1.242.736,1.856a5.567,5.567,0,0,1-.785,1.882c-.468,1.046-.457,1.035.37,1.858a.487.487,0,0,0,.653.1c.759-.355,1.534-.677,2.291-1.036a.753.753,0,0,1,.793.031,13.172,13.172,0,0,0,1.436.724c.616.268,1.4.346,1.83.786a5.458,5.458,0,0,1,.777,1.885c.413,1.1.411,1.094,1.582,1.069a.472.472,0,0,0,.515-.358c.288-.8.582-1.609.919-2.393a1.092,1.092,0,0,1,.525-.505q1.442-.641,2.917-1.206a1.1,1.1,0,0,1,.733-.019c.794.314,1.567.683,2.348,1.032.091.041.184.08.3.133" transform="translate(-324.213 -262.99)"/>
        <rect id="Rectángulo_57538" data-name="Rectángulo 57538" width="12.442" height="2.24" transform="translate(0.003 16.105)"/>
        <rect id="Rectángulo_57554" data-name="Rectángulo 57554" width="12.442" height="2.24" transform="translate(20.706 12.058)"/>
        <rect id="Rectángulo_57565" data-name="Rectángulo 57565" width="12.442" height="2.24" transform="translate(39.296 12.058)"/>
        <rect id="Rectángulo_57539" data-name="Rectángulo 57539" width="12.433" height="2.248" transform="translate(0 32.247)"/>
        <rect id="Rectángulo_57558" data-name="Rectángulo 57558" width="12.433" height="2.248" transform="translate(20.703 28.2)"/>
        <rect id="Rectángulo_57540" data-name="Rectángulo 57540" width="12.416" height="2.282" transform="translate(0.007 48.425)"/>
        <rect id="Rectángulo_57541" data-name="Rectángulo 57541" width="12.414" height="2.257" transform="translate(15.088 56.507)"/>
        <rect id="Rectángulo_57542" data-name="Rectángulo 57542" width="6.389" height="2.291" transform="translate(6.037 40.315)"/>
        <rect id="Rectángulo_57560" data-name="Rectángulo 57560" width="6.389" height="2.291" transform="translate(26.74 36.268)"/>
        <rect id="Rectángulo_57543" data-name="Rectángulo 57543" width="6.399" height="2.282" transform="translate(6.032 36.285)"/>
        <rect id="Rectángulo_57559" data-name="Rectángulo 57559" width="6.399" height="2.282" transform="translate(26.735 32.238)"/>
        <rect id="Rectángulo_57544" data-name="Rectángulo 57544" width="6.368" height="2.274" transform="translate(6.053 20.119)"/>
        <rect id="Rectángulo_57555" data-name="Rectángulo 57555" width="6.368" height="2.274" transform="translate(26.756 16.071)"/>
        <rect id="Rectángulo_57564" data-name="Rectángulo 57564" width="6.368" height="2.274" transform="translate(45.346 16.071)"/>
        <rect id="Rectángulo_57545" data-name="Rectángulo 57545" width="6.401" height="2.236" transform="translate(6.045 24.18)"/>
        <rect id="Rectángulo_57556" data-name="Rectángulo 57556" width="6.401" height="2.236" transform="translate(26.748 20.133)"/>
        <rect id="Rectángulo_57563" data-name="Rectángulo 57563" width="6.401" height="2.236" transform="translate(45.338 20.133)"/>
        <rect id="Rectángulo_57546" data-name="Rectángulo 57546" width="6.401" height="2.239" transform="translate(6.044 52.478)"/>
        <rect id="Rectángulo_57547" data-name="Rectángulo 57547" width="6.409" height="2.258" transform="translate(15.072 52.466)"/>
        <rect id="Rectángulo_57548" data-name="Rectángulo 57548" width="6.366" height="2.256" transform="translate(6.048 56.518)"/>
        <rect id="Rectángulo_57549" data-name="Rectángulo 57549" width="5.962" height="2.286" transform="translate(0.002 44.367)"/>
        <rect id="Rectángulo_57561" data-name="Rectángulo 57561" width="5.962" height="2.286" transform="translate(20.705 40.32)"/>
        <rect id="Rectángulo_57550" data-name="Rectángulo 57550" width="5.965" height="2.241" transform="translate(0.005 28.219)"/>
        <rect id="Rectángulo_57557" data-name="Rectángulo 57557" width="5.965" height="2.241" transform="translate(20.708 24.171)"/>
        <rect id="Rectángulo_57562" data-name="Rectángulo 57562" width="5.965" height="2.241" transform="translate(39.298 24.171)"/>
        <path id="Trazado_228246" data-name="Trazado 228246" d="M207.872,22.7v5.187H170.134c0-.493,0-.958,0-1.422,0-1.074.029-2.149-.007-3.221-.015-.464.144-.553.571-.552q8.634.022,17.267.014,9.59,0,19.18-.005h.727m-25.887,3.759h2.248V24.183h-2.248Zm-7.149,0c0-.7.011-1.365-.012-2.031a.381.381,0,0,0-.264-.262c-.665-.023-1.332-.012-2.018-.012v2.305Zm4.67-2.265h-2.23v2.275h2.23Z" transform="translate(-152.987 -20.404)" fill="#eeac3a"/>
        <path id="Trazado_228247" data-name="Trazado 228247" d="M405.37,338.459l-.3-.133c-.781-.348-1.553-.718-2.348-1.032a1.1,1.1,0,0,0-.733.019q-1.474.565-2.917,1.206a1.091,1.091,0,0,0-.525.505c-.337.785-.631,1.589-.919,2.393a.472.472,0,0,1-.515.358c-1.17.025-1.168.033-1.581-1.069a5.463,5.463,0,0,0-.777-1.885c-.426-.44-1.215-.518-1.83-.786a13.157,13.157,0,0,1-1.436-.724.753.753,0,0,0-.794-.031c-.757.359-1.531.682-2.291,1.037a.487.487,0,0,1-.653-.1c-.826-.823-.838-.812-.37-1.858a5.569,5.569,0,0,0,.785-1.882c.011-.614-.485-1.231-.736-1.856a8.114,8.114,0,0,1-.469-1.377.985.985,0,0,0-.753-.811c-.746-.253-1.472-.562-2.214-.828a.472.472,0,0,1-.368-.507c-.025-1.163-.036-1.163,1.056-1.582a5.6,5.6,0,0,0,1.885-.778c.439-.424.519-1.21.788-1.823.222-.505.519-.979.727-1.489a1.077,1.077,0,0,0,.034-.73c-.306-.779-.656-1.543-1.02-2.3a.506.506,0,0,1,.107-.692c.821-.808.811-.818,1.864-.343.565.255,1.123.532,1.7.753a.971.971,0,0,0,.643-.021q1.515-.595,3.006-1.25a.868.868,0,0,0,.429-.4c.34-.82.651-1.652.952-2.488a.468.468,0,0,1,.514-.357c1.15-.016,1.151-.027,1.558,1.023a5.763,5.763,0,0,0,.8,1.928c.434.449,1.239.531,1.866.806.49.215.946.509,1.441.711a1.072,1.072,0,0,0,.731.033c.808-.324,1.587-.72,2.393-1.051a.626.626,0,0,1,.542.1c.881.809.872.818.39,1.893-.254.566-.527,1.125-.744,1.7a.978.978,0,0,0,.029.641q.585,1.492,1.229,2.961a1.017,1.017,0,0,0,.47.494c.786.334,1.589.63,2.394.917a.5.5,0,0,1,.393.54c.012,1.144.024,1.145-1.041,1.555-.594.229-1.2.434-1.779.693a.972.972,0,0,0-.44.468q-.656,1.49-1.252,3.005a.873.873,0,0,0-.012.594q.5,1.209,1.065,2.388a.482.482,0,0,1-.138.686c-.22.18-.407.4-.613.6a2.461,2.461,0,0,1-.221.171m-15.286-9.8a6.623,6.623,0,1,0,6.614-6.6,6.65,6.65,0,0,0-6.614,6.6" transform="translate(-344.97 -283.801)" fill="#d8dbf7"/>
        <rect id="Rectángulo_57551" data-name="Rectángulo 57551" width="2.248" height="2.275" transform="translate(28.998 3.778)"/>
        <path id="Trazado_228248" data-name="Trazado 228248" d="M196.405,39.532h-2.293V37.227c.686,0,1.352-.011,2.018.012a.381.381,0,0,1,.263.262c.023.666.012,1.334.012,2.031" transform="translate(-174.557 -33.474)"/>
        <rect id="Rectángulo_57552" data-name="Rectángulo 57552" width="2.23" height="2.275" transform="translate(24.288 3.793)"/>
        <path id="Trazado_228249" data-name="Trazado 228249" d="M447.824,386.419a6.623,6.623,0,1,1,6.656,6.652,6.667,6.667,0,0,1-6.656-6.652m10.9.039a4.279,4.279,0,1,0-4.3,4.266,4.281,4.281,0,0,0,4.3-4.266" transform="translate(-402.71 -341.559)"/>
        <path id="Trazado_228250" data-name="Trazado 228250" d="M479.611,407.316a4.279,4.279,0,1,1-8.557-.051,4.279,4.279,0,0,1,8.557.051" transform="translate(-423.6 -362.416)" fill="#b1daf6"/>
      </g>
    </g>
  </g>
</svg>
