<svg xmlns="http://www.w3.org/2000/svg" xmlns:xlink="http://www.w3.org/1999/xlink" width="170.483" height="170.482" viewBox="0 0 170.483 170.482">
  <defs>
    <linearGradient id="linear-gradient" x1="0.5" x2="0.5" y2="1" gradientUnits="objectBoundingBox">
      <stop offset="0" stop-color="#fdbe41"/>
      <stop offset="1" stop-color="#d09f40"/>
    </linearGradient>
    <filter id="Trazado_150709" x="0" y="0" width="170.483" height="170.482" filterUnits="userSpaceOnUse">
      <feOffset dx="5" dy="5" input="SourceAlpha"/>
      <feGaussianBlur stdDeviation="12.5" result="blur"/>
      <feFlood flood-opacity="0.161"/>
      <feComposite operator="in" in2="blur"/>
      <feComposite in="SourceGraphic"/>
    </filter>
    <clipPath id="clip-path">
      <rect id="Rectángulo_57532" data-name="Rectángulo 57532" width="59.132" height="61.168" fill="none"/>
    </clipPath>
    <linearGradient id="linear-gradient-2" x1="0.5" x2="0.5" y2="1" gradientUnits="objectBoundingBox">
      <stop offset="0" stop-color="#f5f5f5"/>
      <stop offset="0.25" stop-color="#f5f5f5"/>
      <stop offset="1" stop-color="#a7b3cf"/>
    </linearGradient>
  </defs>
  <g id="Grupo_169374" data-name="Grupo 169374" transform="translate(19.579 19.578)">
    <path id="Trazado_150708" data-name="Trazado 150708" d="M121.116,55.633A60.661,60.661,0,1,1,55.633.212a60.661,60.661,0,0,1,65.483,55.42" transform="translate(0 121.328) rotate(-90)" fill="url(#linear-gradient)"/>
    <g transform="matrix(1, 0, 0, 1, -19.58, -19.58)" filter="url(#Trazado_150709)">
      <path id="Trazado_150709-2" data-name="Trazado 150709" d="M95.315,43.782A47.739,47.739,0,1,1,43.782.167,47.739,47.739,0,0,1,95.315,43.782" transform="translate(32.5 127.98) rotate(-90)" fill="#fff"/>
    </g>
    <g id="Grupo_179353" data-name="Grupo 179353" transform="translate(31.097 27.407)">
      <g id="Grupo_179352" data-name="Grupo 179352" clip-path="url(#clip-path)">
        <path id="Trazado_228203" data-name="Trazado 228203" d="M327.063,361.035c-.882-.475-.683-1.337-.716-2.034-2.59,0-5.145,0-7.7,0a3.144,3.144,0,0,1-3.5-3.5q0-5.67,0-11.34c0-2.283,1.223-3.515,3.488-3.52q3.163-.006,6.326,0a3.108,3.108,0,0,1,3.434,3.438c0,1.209,0,2.418,0,3.7h.687c1.751,0,3.5-.007,5.252,0a2.012,2.012,0,0,1,2.211,2.123c.026,3.3.005,6.6.014,9.907a1.227,1.227,0,0,1-.772,1.223h-.6a1.576,1.576,0,0,1-.682-1.534c.023-.894.029-1.791-.009-2.684a1.268,1.268,0,0,0-.311-.774c-1.783-1.816-3.589-3.61-5.392-5.407a4.624,4.624,0,0,0-.4-.312c0,3.182-.012,6.263.01,9.345a1.359,1.359,0,0,1-.74,1.367Zm-7.347-18.31c1.373,1.381,2.674,2.688,3.972,4a3.3,3.3,0,0,1,.468.537,1,1,0,0,1-1.362,1.38,2.681,2.681,0,0,1-.5-.423q-2.259-2.255-4.512-4.516c-.142-.142-.294-.273-.551-.511v9.65h9.12c0-2.951,0-5.853,0-8.755,0-1.058-.333-1.4-1.382-1.4-1.551-.006-3.1,0-4.653,0-.169,0-.339.023-.6.043m-2.522,12.242a9.468,9.468,0,0,0,.006.975.994.994,0,0,0,1.045,1.011q3.52.034,7.039,0a1.014,1.014,0,0,0,1.068-1.109c.011-.29,0-.581,0-.878Zm13.957-5.122,3.318,3.308v-3.308Z" transform="translate(-277.423 -299.868)"/>
        <path id="Trazado_228204" data-name="Trazado 228204" d="M419.747,432.284a1.359,1.359,0,0,0,.74-1.367c-.022-3.081-.01-6.163-.01-9.344a4.627,4.627,0,0,1,.4.312c1.8,1.8,3.609,3.591,5.392,5.407a1.269,1.269,0,0,1,.311.774c.038.893.032,1.79.009,2.684a1.576,1.576,0,0,0,.682,1.534Z" transform="translate(-369.509 -371.116)" fill="#b1daf6"/>
        <path id="Trazado_228205" data-name="Trazado 228205" d="M25.539,222.877v2.042h1.036q3.792,0,7.584,0a3.716,3.716,0,0,1,.711.054.907.907,0,0,1,.791.97.867.867,0,0,1-.8.956c-.75.068-1.511.019-2.263.079a1.194,1.194,0,0,0-.737.352c-.429.488-.791,1.035-1.267,1.674.709,0,1.3,0,1.882,0,.736,0,1.474-.014,2.209.02a.958.958,0,0,1,.98.929.992.992,0,0,1-.914,1.059,2.83,2.83,0,0,1-.475.031c-1.792,0-3.583,0-5.375,0a1.2,1.2,0,0,1-1.259-.6,1.171,1.171,0,0,1,.3-1.31c.512-.676,1.019-1.358,1.591-2.122H25.546v6.072c.6,0,1.186-.008,1.776,0,.845.014,1.184.353,1.229,1.191.1,1.937-.439,3.568-2.3,4.463a4.549,4.549,0,0,1-1.893.436q-10.062.046-20.124.013c-2.762-.007-4.626-2.174-4.168-5.3a.932.932,0,0,1,1.029-.8c.632-.011,1.264,0,1.967,0v-.7q0-5.046,0-10.093a3.149,3.149,0,0,1,3.514-3.5q5.494,0,10.988,0h.787v-.676q0-5.046,0-10.093c0-2.26,1.21-3.482,3.451-3.482q12.869,0,25.738,0a3.084,3.084,0,0,1,3.424,3.433q0,4.628,0,9.257a1.02,1.02,0,0,1-.979,1.13,1.04,1.04,0,0,1-1.047-1.075c-.013-.158,0-.318,0-.478q0-4.33,0-8.659c0-.179.007-.359-.005-.537a.981.981,0,0,0-1.021-1.022c-3.184-.009-6.368,0-9.552.01-.013,0-.026.022-.077.068.141.153.278.311.425.459q3.651,3.654,7.3,7.307a4.281,4.281,0,0,1,.408.435A1,1,0,0,1,45.03,216.3a3.753,3.753,0,0,1-.439-.4q-4.457-4.453-8.906-8.914a1.262,1.262,0,0,0-.989-.407c-4.28.015-8.559.008-12.839.009-1.137,0-1.465.322-1.466,1.445q0,5.076,0,10.152v.618c.593,0,1.141.006,1.689,0a3.2,3.2,0,0,1,3.14,1.768.823.823,0,0,0,.628.261c3.105.017,6.21.01,9.316.014a3.571,3.571,0,0,1,.768.07.906.906,0,0,1,.751,1,.917.917,0,0,1-.842.931,5.152,5.152,0,0,1-.714.033q-4.448,0-8.9,0h-.69m-8.761-2.033c1.382,1.391,2.657,2.672,3.927,3.957a3.912,3.912,0,0,1,.546.627.914.914,0,0,1-.168,1.242.938.938,0,0,1-1.254.091,3.332,3.332,0,0,1-.487-.437c-1.7-1.7-3.394-3.415-5.115-5.1a1.392,1.392,0,0,0-.867-.373c-2.268-.031-4.536-.019-6.8-.016-1.117,0-1.453.343-1.454,1.47q0,5.073,0,10.147c0,.192.02.384.031.591h18.3c.013-.173.031-.308.031-.443q0-5.223,0-10.445c0-.843-.326-1.286-1.066-1.3-1.824-.036-3.649-.012-5.622-.012m-14.74,14.31a4.56,4.56,0,0,0,.206.79,2.053,2.053,0,0,0,2.019,1.217q10.032,0,20.064-.005a2.705,2.705,0,0,0,.82-.127,1.858,1.858,0,0,0,1.3-1.875Z" transform="translate(0 -180.064)"/>
        <path id="Trazado_228206" data-name="Trazado 228206" d="M182.691,2.206a12.3,12.3,0,0,1,1.482.818c.43.321.74.155,1.131-.038a.724.724,0,0,0,.412-.817,10.372,10.372,0,0,1,0-1.074A1.006,1.006,0,0,1,186.753.019q2-.038,4,0A1,1,0,0,1,191.81,1.07a4.615,4.615,0,0,1,0,.954.857.857,0,0,0,.668,1.068,1.291,1.291,0,0,0,.748-.018,6.477,6.477,0,0,0,.882-.495,1.085,1.085,0,0,1,1.7.469q.925,1.566,1.822,3.148a1.083,1.083,0,0,1-.43,1.667,4.409,4.409,0,0,1-.673.383.87.87,0,0,0-.616,1.106,1.117,1.117,0,0,0,.359.59c.329.251.723.416,1.071.645a.992.992,0,0,1,.395,1.44q-.964,1.749-2,3.459a.994.994,0,0,1-1.441.391,8.717,8.717,0,0,1-.981-.565.779.779,0,0,0-.915-.032.975.975,0,0,0-.59,1.023c.031,1.979-.069,2.061-2.029,2.061-.9,0-1.791.006-2.686,0-1.026-.008-1.369-.351-1.376-1.356a3.951,3.951,0,0,1,.005-.656.932.932,0,0,0-.646-1.1.657.657,0,0,0-.754.012,8.643,8.643,0,0,1-1.031.6.988.988,0,0,1-1.445-.369q-1.033-1.709-2-3.459a1,1,0,0,1,.382-1.445,4.645,4.645,0,0,1,.825-.476.823.823,0,0,0,.591-1.056,1.278,1.278,0,0,0-.369-.644,11.247,11.247,0,0,0-1.017-.618,1.016,1.016,0,0,1-.407-1.484c.634-1.148,1.281-2.291,1.975-3.4a3.551,3.551,0,0,1,.867-.7m12.753,9.7c-.4-.234-.721-.427-1.048-.614A1.194,1.194,0,0,1,193.764,10a10.365,10.365,0,0,0,.006-1.722,1.149,1.149,0,0,1,.6-1.194c.342-.191.687-.377,1.071-.588l-1.011-1.766c-.343.2-.64.354-.919.537a1.278,1.278,0,0,1-1.6-.057,11.275,11.275,0,0,0-1.444-.822,1.142,1.142,0,0,1-.693-1.087c0-.409,0-.818,0-1.232h-2.035c0,.359-.019.693,0,1.024a1.243,1.243,0,0,1-.809,1.317,9.319,9.319,0,0,0-1.388.8,1.208,1.208,0,0,1-1.49.045c-.3-.191-.61-.358-.963-.562l-1.018,1.767,1.105.64a1.178,1.178,0,0,1,.6,1.2,16.026,16.026,0,0,0-.007,1.719,1.253,1.253,0,0,1-.719,1.317c-.317.158-.623.338-.981.534l1.013,1.764c.347-.2.635-.34.895-.521a1.265,1.265,0,0,1,1.641.056,6.362,6.362,0,0,0,1.232.712,1.277,1.277,0,0,1,.886,1.386c-.026.33,0,.664,0,1.013h2.034c0-.359.015-.677,0-.993a1.264,1.264,0,0,1,.858-1.345,8.876,8.876,0,0,0,1.384-.808,1.185,1.185,0,0,1,1.391-.054c.333.2.669.391,1.023.6l1.011-1.765" transform="translate(-158.172 0)"/>
        <path id="Trazado_228207" data-name="Trazado 228207" d="M356.234,88.407q0,7.435,0,14.87a3.123,3.123,0,0,1-.052.71.936.936,0,0,1-1.036.788.956.956,0,0,1-.931-.912,6.17,6.17,0,0,1-.015-.656q0-14.811,0-29.621a3.089,3.089,0,0,0-2.213-3.289,5.016,5.016,0,0,0-1.3-.149c-2.747-.013-5.494-.006-8.241-.008a3.76,3.76,0,0,1-.655-.032.928.928,0,0,1-.831-.942.909.909,0,0,1,.708-.979,2.6,2.6,0,0,1,.706-.081c2.807-.005,5.613-.011,8.42,0a5.066,5.066,0,0,1,5.235,3.841,6.567,6.567,0,0,1,.195,1.71c.015,4.917.008,9.834.008,14.751" transform="translate(-300.152 -59.949)"/>
        <path id="Trazado_228208" data-name="Trazado 228208" d="M59.666,38.476a15.762,15.762,0,0,1,.009-1.669A2.951,2.951,0,0,1,62.62,34c2.366-.06,4.734-.03,7.1-.015a1.024,1.024,0,0,1,1.117,1.058,1.012,1.012,0,0,1-1.137.966c-2.188.01-4.377,0-6.565.005-1.121,0-1.458.339-1.462,1.462,0,.816.009,1.632,0,2.447-.012.73-.39,1.173-.983,1.19s-1.023-.451-1.048-1.2c-.016-.477,0-.955,0-1.432h.03" transform="translate(-52.493 -29.897)"/>
        <path id="Trazado_228209" data-name="Trazado 228209" d="M18.888,119.446a9.037,9.037,0,0,1,6.279,2.471c.564.524.66,1.106.267,1.565-.412.481-1.019.459-1.628-.059a7.074,7.074,0,0,0-9.788-.006,1.044,1.044,0,0,1-1.581.016,1.059,1.059,0,0,1,.225-1.526,9.06,9.06,0,0,1,6.225-2.461" transform="translate(-10.742 -105.15)"/>
        <path id="Trazado_228210" data-name="Trazado 228210" d="M344.406,124.275c0,.636.012,1.272,0,1.908a1.019,1.019,0,1,1-2.026-.015c-.014-1.153-.018-2.306,0-3.458a1.228,1.228,0,0,0-.785-1.271,6.632,6.632,0,0,1-.793-.409,1.005,1.005,0,0,1,.9-1.8c1.726.72,2.827,1.576,2.707,3.908-.019.377,0,.755,0,1.133" transform="translate(-299.544 -104.885)"/>
        <path id="Trazado_228211" data-name="Trazado 228211" d="M39.359,153.486a5.144,5.144,0,0,1,3.693,1.357,1.036,1.036,0,0,1,.2,1.478,1,1,0,0,1-1.486.084,3.139,3.139,0,0,0-3.76-.411c-.242.133-.448.329-.68.481a1.01,1.01,0,0,1-1.249-1.589,4.884,4.884,0,0,1,3.28-1.4" transform="translate(-31.423 -135.115)"/>
        <path id="Trazado_228212" data-name="Trazado 228212" d="M61.649,225.2c0,.794.011,1.588,0,2.382-.014.726-.4,1.154-1,1.157a1.029,1.029,0,0,1-1.025-1.147q-.029-2.411,0-4.823a1.03,1.03,0,0,1,1.044-1.129c.6.015.97.443.982,1.178.013.794,0,1.588,0,2.382" transform="translate(-52.47 -195.111)"/>
        <path id="Trazado_228213" data-name="Trazado 228213" d="M258.377,442.984c.478,0,.956-.015,1.433,0a1.009,1.009,0,1,1,.07,2.015c-1.013.041-2.03.04-3.044,0a.982.982,0,0,1-1.006-1.035.993.993,0,0,1,1.054-.984c.04,0,.08,0,.119,0h1.373Z" transform="translate(-225.21 -389.96)"/>
        <path id="Trazado_228214" data-name="Trazado 228214" d="M61.824,188.594a1.015,1.015,0,0,1-1.018,1.022,1.055,1.055,0,0,1-.988-1.006,1.017,1.017,0,0,1,.972-1.007.985.985,0,0,1,1.033.991" transform="translate(-52.659 -165.149)"/>
        <path id="Trazado_228215" data-name="Trazado 228215" d="M335.116,357.741c.264-.019.433-.042.6-.043,1.551,0,3.1-.006,4.653,0,1.05,0,1.382.346,1.382,1.4,0,2.9,0,5.8,0,8.755h-9.121v-9.65c.257.238.409.369.551.511q2.256,2.257,4.512,4.516a2.683,2.683,0,0,0,.5.423,1,1,0,0,0,1.362-1.38,3.307,3.307,0,0,0-.468-.537c-1.3-1.311-2.6-2.618-3.972-4" transform="translate(-292.822 -314.884)" fill="url(#linear-gradient-2)"/>
        <path id="Trazado_228216" data-name="Trazado 228216" d="M332.216,460.362h9.16c0,.3.01.588,0,.878a1.014,1.014,0,0,1-1.068,1.109q-3.519.033-7.039,0a.994.994,0,0,1-1.045-1.011,9.467,9.467,0,0,1-.006-.975" transform="translate(-292.445 -405.263)" fill="#fff"/>
        <path id="Trazado_228217" data-name="Trazado 228217" d="M448.909,417.565h3.318v3.308l-3.318-3.308" transform="translate(-395.181 -367.588)" fill="#b1daf6"/>
        <path id="Trazado_228218" data-name="Trazado 228218" d="M54.3,340.643c1.973,0,3.8-.024,5.622.012.74.015,1.065.458,1.066,1.3q.008,5.223,0,10.446c0,.135-.019.27-.031.443h-18.3c-.011-.207-.031-.4-.031-.591q0-5.073,0-10.147c0-1.126.337-1.468,1.454-1.47,2.268,0,4.536-.015,6.8.016a1.394,1.394,0,0,1,.867.373c1.72,1.684,3.412,3.4,5.115,5.1a3.316,3.316,0,0,0,.487.437.938.938,0,0,0,1.254-.091.914.914,0,0,0,.168-1.242,3.91,3.91,0,0,0-.546-.627c-1.27-1.285-2.545-2.566-3.927-3.957" transform="translate(-37.519 -299.862)" fill="#b8df8a"/>
        <path id="Trazado_228219" data-name="Trazado 228219" d="M17.029,460.289H41.435a1.858,1.858,0,0,1-1.3,1.875,2.7,2.7,0,0,1-.82.127q-10.032.01-20.064.005a2.053,2.053,0,0,1-2.019-1.217,4.562,4.562,0,0,1-.206-.79" transform="translate(-14.991 -405.199)" fill="#4c2f77"/>
        <path id="Trazado_228220" data-name="Trazado 228220" d="M213.134,27.139,212.122,28.9c-.354-.207-.69-.4-1.023-.6a1.185,1.185,0,0,0-1.391.054,8.87,8.87,0,0,1-1.384.808,1.264,1.264,0,0,0-.858,1.345c.018.316,0,.634,0,.993h-2.034c0-.349-.022-.683,0-1.013a1.277,1.277,0,0,0-.886-1.386,6.363,6.363,0,0,1-1.232-.712,1.265,1.265,0,0,0-1.641-.056c-.259.181-.548.321-.895.521L199.774,27.1c.358-.2.664-.376.981-.534a1.254,1.254,0,0,0,.719-1.317,16.058,16.058,0,0,1,.007-1.719,1.178,1.178,0,0,0-.6-1.2l-1.105-.64,1.018-1.767c.353.2.665.372.963.562a1.208,1.208,0,0,0,1.49-.045,9.328,9.328,0,0,1,1.389-.8,1.242,1.242,0,0,0,.809-1.317c-.023-.331,0-.665,0-1.024h2.035c0,.413,0,.822,0,1.232a1.142,1.142,0,0,0,.693,1.087,11.282,11.282,0,0,1,1.444.822,1.278,1.278,0,0,0,1.6.057c.279-.182.575-.337.919-.537l1.011,1.765c-.384.21-.729.4-1.071.588a1.149,1.149,0,0,0-.6,1.194,10.352,10.352,0,0,1-.006,1.722,1.194,1.194,0,0,0,.632,1.293c.327.186.65.38,1.048.614m-3.633-2.7a3.048,3.048,0,1,0-6.095-.029,3.047,3.047,0,0,0,6.095.029" transform="translate(-175.862 -15.231)" fill="#d2c1eb"/>
        <path id="Trazado_228221" data-name="Trazado 228221" d="M236.228,54.223a3.047,3.047,0,0,1-6.095-.029,3.048,3.048,0,1,1,6.095.029m-2.039-.03a1.008,1.008,0,1,0-2.017,0,1.009,1.009,0,0,0,2.017,0" transform="translate(-202.589 -45.012)"/>
        <path id="Trazado_228222" data-name="Trazado 228222" d="M249.187,69.3a1.009,1.009,0,0,1-2.017,0,1.008,1.008,0,1,1,2.017,0" transform="translate(-217.587 -60.116)" fill="#fff"/>
      </g>
    </g>
  </g>
</svg>
