<svg xmlns="http://www.w3.org/2000/svg" xmlns:xlink="http://www.w3.org/1999/xlink" width="181.139" height="181.139" viewBox="0 0 181.139 181.139">
  <defs>
    <linearGradient id="linear-gradient" x1="0.5" x2="0.5" y2="1" gradientUnits="objectBoundingBox">
      <stop offset="0" stop-color="#fdbe41"/>
      <stop offset="1" stop-color="#d09f40"/>
    </linearGradient>
    <filter id="Trazado_150700" x="0" y="0" width="181.139" height="181.139" filterUnits="userSpaceOnUse">
      <feOffset dx="5" dy="5" input="SourceAlpha"/>
      <feGaussianBlur stdDeviation="12.5" result="blur"/>
      <feFlood flood-opacity="0.161"/>
      <feComposite operator="in" in2="blur"/>
      <feComposite in="SourceGraphic"/>
    </filter>
    <clipPath id="clip-path">
      <rect id="Rect치ngulo_57567" data-name="Rect치ngulo 57567" width="67.829" height="62.291" fill="none"/>
    </clipPath>
    <linearGradient id="linear-gradient-2" x1="0.5" x2="0.5" y2="1" gradientUnits="objectBoundingBox">
      <stop offset="0" stop-color="#f5f5f5"/>
      <stop offset="0.25" stop-color="#f5f5f5"/>
      <stop offset="1" stop-color="#a7b3cf"/>
    </linearGradient>
    <linearGradient id="linear-gradient-3" x1="0.5" x2="0.5" y2="1" gradientUnits="objectBoundingBox">
      <stop offset="0" stop-color="#116eb9"/>
      <stop offset="1" stop-color="#1894f6"/>
    </linearGradient>
  </defs>
  <g id="Grupo_179342" data-name="Grupo 179342" transform="translate(18.133 18.133)">
    <path id="Trazado_150699" data-name="Trazado 150699" d="M110.384,15.447a67.434,67.434,0,1,1-94.937,9.041,67.434,67.434,0,0,1,94.937-9.041" transform="translate(0 134.873) rotate(-90)" fill="url(#linear-gradient)"/>
    <g transform="matrix(1, 0, 0, 1, -18.13, -18.13)" filter="url(#Trazado_150700)">
      <path id="Trazado_150700-2" data-name="Trazado 150700" d="M86.868,12.156a53.068,53.068,0,1,1-74.712,7.115,53.069,53.069,0,0,1,74.712-7.115" transform="translate(32.5 138.64) rotate(-90)" fill="#fff"/>
    </g>
    <g id="Grupo_179359" data-name="Grupo 179359" transform="translate(33.522 36.291)">
      <g id="Grupo_179358" data-name="Grupo 179358" clip-path="url(#clip-path)">
        <path id="Trazado_228251" data-name="Trazado 228251" d="M67.829,43.325a1.457,1.457,0,0,1-1.4.673c-3.443-.021-6.886-.01-10.329-.01h-.777v.85c0,4.281.008,8.562,0,12.843a4.338,4.338,0,0,1-3.416,4.506,4.836,4.836,0,0,1-1.051.1q-6.257.009-12.514,0a3.112,3.112,0,0,1-.4-.013.974.974,0,0,1-.162-1.9,2.976,2.976,0,0,1,.786-.067q6.025-.006,12.05,0a2.4,2.4,0,0,0,2.72-2.724c0-1.473,0-2.946,0-4.45H18.8q0,.545,0,1.091c0,1.214-.01,2.427,0,3.641A2.29,2.29,0,0,0,21.253,60.3c4.083.01,8.166,0,12.249,0a5.172,5.172,0,0,1,.6.012,1.014,1.014,0,0,1,.966.992.963.963,0,0,1-1.031.974c-4.414.006-8.828.036-13.242-.022A4.163,4.163,0,0,1,16.833,58.2c-.051-2.515-.02-5.031-.021-7.546,0-3.619-.007-7.238.009-10.857a.882.882,0,0,0-.482-.912,7.267,7.267,0,0,1-2.873-3.077c-2.992-5.3-6.068-10.548-9.1-15.824a.888.888,0,0,0-.963-.537A3.053,3.053,0,0,1,.446,17.8a3.073,3.073,0,0,1,.126-3.381.91.91,0,0,0,.112-.955,5.708,5.708,0,0,1,9.795-5.622.844.844,0,0,0,.823.372,3.056,3.056,0,0,1,3.044,1.6,3.191,3.191,0,0,1-.136,3.5.76.76,0,0,0-.107.617c.833,1.5,1.7,2.978,2.709,4.446v-.666c0-4.435-.01-8.871.006-13.306A4.264,4.264,0,0,1,20.211.1,5.461,5.461,0,0,1,21.393,0Q36.059,0,50.725,0a4.316,4.316,0,0,1,4.6,4.6c.015,4.987,0,9.974,0,14.961v.867h.764c3.443,0,6.886.01,10.329-.01a1.5,1.5,0,0,1,1.409.655v.662a1.376,1.376,0,0,1-1.379.688c-3.439-.021-6.878-.01-10.317-.01h-.765V42h.753c3.439,0,6.878.012,10.317-.011a1.429,1.429,0,0,1,1.391.673ZM53.3,20.433c.017-.2.035-.31.035-.418,0-5.186.013-10.372-.006-15.558A2.331,2.331,0,0,0,50.7,1.988q-14.634,0-29.267,0A2.346,2.346,0,0,0,18.8,4.648q0,8.441.011,16.882a2.234,2.234,0,0,0,.282,1.051c1.679,2.951,3.385,5.886,5.076,8.83a2.055,2.055,0,0,1,.316.787q.371,4.252.691,8.508a2.041,2.041,0,0,1-1.126,2.023,2.076,2.076,0,0,1-2.257-.088c-.539-.344-1.056-.721-1.585-1.081-.44-.3-.882-.593-1.354-.91v10.4h34.43V43.987c-2.331,0-4.6,0-6.875,0-.767,0-1.224-.386-1.222-1S45.641,42,46.412,42q2.98-.006,5.959,0H53.3V22.42h-.749c-2.1,0-4.194.006-6.29-.006a.989.989,0,1,1-.029-1.973c.727-.026,1.457-.008,2.185-.008H53.3M5.8,18.517l9.082,15.726,2.368-1.354c-.041-.076-.15-.288-.268-.494q-2.395-4.154-4.791-8.307a3.873,3.873,0,0,1-.3-.585A.978.978,0,0,1,13.5,22.487a2.683,2.683,0,0,1,.4.6q2.417,4.18,4.829,8.362c.113.2.242.382.259.409l2.379-1.333L12.276,14.781,9.9,16.151c.588,1.023,1.122,1.961,1.666,2.893a1,1,0,0,1-.1,1.329.983.983,0,0,1-1.605-.319c-.566-.942-1.1-1.9-1.685-2.909L5.8,18.517m7-6.831c-.015-1.257-1.043-1.825-1.97-1.3q-4.076,2.319-8.122,4.69a1.262,1.262,0,1,0,1.233,2.2c2.735-1.559,5.467-3.124,8.174-4.731.35-.208.544-.676.685-.86M22.893,37.029c-.106-1.341-.185-2.482-.295-3.62a.767.767,0,0,0-.261-.534,1.1,1.1,0,0,0-1.693.625,4.825,4.825,0,0,0-.209.9c-.167,1.121-.658,1.389-1.745,1a4.584,4.584,0,0,0-1.337-.282c-.585-.024-.7.5-.878.925-.164.4.075.59.371.789.913.613,1.8,1.26,2.726,1.857a.8.8,0,0,0,.678.057c.8-.415,1.576-.875,2.343-1.347a1.108,1.108,0,0,0,.3-.367M8.949,9.171a3.681,3.681,0,0,0-6.337,3.661L8.949,9.171M21.721,40.211l1.339.836.149-.134-.135-1.475-1.352.774" transform="translate(0 0.001)"/>
        <path id="Trazado_228252" data-name="Trazado 228252" d="M456.017,129.137a1.454,1.454,0,0,1-1.4.668c-1.916-.028-3.833-.007-5.749-.012-.815,0-1.291-.381-1.288-1s.469-.978,1.3-.979c1.939,0,3.877.017,5.815-.012a1.369,1.369,0,0,1,1.32.678Z" transform="translate(-388.188 -110.838)"/>
        <path id="Trazado_228253" data-name="Trazado 228253" d="M456.069,103.008a1.591,1.591,0,0,1-1.421.638c-1.871-.024-3.743-.008-5.615-.01a2.893,2.893,0,0,1-.526-.03.963.963,0,0,1-.866-1,.94.94,0,0,1,.986-.941c1.277-.021,2.554-.009,3.831-.01.771,0,1.543.027,2.312-.009a1.25,1.25,0,0,1,1.3.7Z" transform="translate(-388.24 -88.152)"/>
        <path id="Trazado_228254" data-name="Trazado 228254" d="M456.114,265.4a1.727,1.727,0,0,1-1.512.6c-1.809-.027-3.619-.009-5.429-.011a5.016,5.016,0,0,1-.595-.024.973.973,0,0,1,.011-1.938c.482-.043.97-.022,1.455-.022,1.545,0,3.09.016,4.634-.009a1.571,1.571,0,0,1,1.435.613Z" transform="translate(-388.285 -228.964)"/>
        <path id="Trazado_228255" data-name="Trazado 228255" d="M456.565,291.66a1.564,1.564,0,0,1-1.416.647c-1.893-.025-3.787,0-5.681-.018-.3,0-.708-.022-.861-.205a1.656,1.656,0,0,1-.391-1.071c.036-.491.469-.7.968-.7q2.081,0,4.162,0c.639,0,1.279.029,1.915-.008a1.251,1.251,0,0,1,1.3.695Z" transform="translate(-388.736 -251.777)"/>
        <path id="Trazado_228256" data-name="Trazado 228256" d="M253.5,411.838a2.787,2.787,0,1,1-.053-5.574,2.787,2.787,0,0,1,.053,5.574m.773-2.808a.756.756,0,0,0-.8-.769.745.745,0,0,0-.8.77.8.8,0,1,0,1.6,0" transform="translate(-217.417 -352.353)"/>
        <path id="Trazado_228257" data-name="Trazado 228257" d="M176.155,33.418h-4.888c-.728,0-1.457-.018-2.185.008a.989.989,0,1,0,.029,1.973c2.1.012,4.194.005,6.29.006h.749V54.986h-.927c-1.987,0-3.973,0-5.959,0-.772,0-1.227.375-1.229.985s.455,1,1.222,1c2.272.006,4.544,0,6.875,0v7.059H141.7v-10.4c.472.317.915.611,1.354.91.529.359,1.047.736,1.585,1.081a2.076,2.076,0,0,0,2.257.088,2.041,2.041,0,0,0,1.126-2.023q-.314-4.257-.691-8.509a2.055,2.055,0,0,0-.316-.787c-1.69-2.944-3.4-5.879-5.076-8.83a2.233,2.233,0,0,1-.282-1.051q-.026-8.441-.011-16.882a2.346,2.346,0,0,1,2.632-2.66q14.634,0,29.267,0a2.331,2.331,0,0,1,2.634,2.47c.02,5.186.007,10.372.006,15.558,0,.108-.017.215-.035.418m-24.72-.037a7.488,7.488,0,1,0,7.538-7.516,7.462,7.462,0,0,0-7.538,7.516M163.671,57.27h-3.448q-6.719,0-13.439,0c-.794,0-1.239.354-1.263.962a1,1,0,0,0,1.123,1.016q8.705.009,17.411,0a1.509,1.509,0,0,0,1.624-1.615c.025-.926.012-1.853.007-2.78-.007-1.368-.559-1.923-1.935-1.925q-4.833-.008-9.665,0A3.588,3.588,0,0,0,153.3,53a1.4,1.4,0,0,0-1.126,1.3,1.666,1.666,0,0,0,.492,1.047c.339.313.768.145,1.148-.121a1.54,1.54,0,0,1,.8-.3c2.8-.022,5.6-.014,8.407-.012.211,0,.421.024.648.038Zm-4.762-13.55c-1.677,0-3.353-.008-5.03,0a1.583,1.583,0,0,0-1.744,1.709q-.017,1.455,0,2.911a1.579,1.579,0,0,0,1.682,1.716q5.1.03,10.192,0a1.572,1.572,0,0,0,1.674-1.722c.017-.948.015-1.9,0-2.845a1.591,1.591,0,0,0-1.813-1.771c-1.654-.007-3.309,0-4.963,0m.017-26.362c-.527,0-1.055-.016-1.582,0a.984.984,0,1,0-.025,1.967c1.076.028,2.154.031,3.229,0a.981.981,0,1,0-.041-1.961c-.526-.021-1.054,0-1.582-.005" transform="translate(-122.852 -12.984)" fill="url(#linear-gradient-2)"/>
        <path id="Trazado_228258" data-name="Trazado 228258" d="M43.713,115.128l2.376-1.371c.582,1.008,1.119,1.967,1.685,2.909a.983.983,0,0,0,1.605.319,1,1,0,0,0,.1-1.329c-.544-.932-1.078-1.87-1.666-2.893l2.374-1.37,9.094,15.744L56.9,128.469c-.017-.027-.146-.214-.26-.409q-2.415-4.18-4.829-8.362a2.687,2.687,0,0,0-.4-.6.978.978,0,0,0-1.611,1.016,3.885,3.885,0,0,0,.3.585q2.394,4.154,4.791,8.307c.119.206.228.419.268.494l-2.368,1.354-9.082-15.726" transform="translate(-37.912 -96.61)" fill="#eeac3a"/>
        <path id="Trazado_228259" data-name="Trazado 228259" d="M25.883,78.3c-.141.184-.336.653-.685.86-2.707,1.608-5.439,3.173-8.174,4.731a1.262,1.262,0,1,1-1.233-2.2q4.05-2.365,8.122-4.69c.926-.527,1.955.041,1.97,1.3" transform="translate(-13.078 -66.616)" fill="#d8dbf7"/>
        <path id="Trazado_228260" data-name="Trazado 228260" d="M130.215,250.637a1.109,1.109,0,0,1-.3.367c-.767.472-1.544.932-2.343,1.347a.8.8,0,0,1-.678-.057c-.923-.6-1.813-1.244-2.726-1.857-.3-.2-.535-.387-.371-.789.174-.426.294-.95.878-.925a4.583,4.583,0,0,1,1.337.282c1.087.391,1.578.122,1.745-1a4.827,4.827,0,0,1,.209-.9,1.1,1.1,0,0,1,1.693-.625.768.768,0,0,1,.261.534c.109,1.138.189,2.279.295,3.62" transform="translate(-107.322 -213.607)" fill="#4c2f77"/>
        <path id="Trazado_228261" data-name="Trazado 228261" d="M23.8,59.246l-6.338,3.661A3.681,3.681,0,0,1,23.8,59.246" transform="translate(-14.851 -50.074)" fill="#7f4fc7"/>
        <path id="Trazado_228262" data-name="Trazado 228262" d="M163.684,297.968l1.352-.774.135,1.475-.149.134-1.339-.836" transform="translate(-141.963 -257.757)" fill="#fff"/>
        <path id="Trazado_228263" data-name="Trazado 228263" d="M267.3,422.079a.8.8,0,1,1-1.6,0,.745.745,0,0,1,.8-.77.756.756,0,0,1,.8.769" transform="translate(-230.445 -365.402)" fill="#fff"/>
        <path id="Trazado_228264" data-name="Trazado 228264" d="M215.4,104.582a7.488,7.488,0,1,1,7.384,7.451,7.5,7.5,0,0,1-7.384-7.451m11.218,3.955a5.478,5.478,0,1,0-7.887-7.583c-1.955,2.227-1.74,5.938.439,7.573a5.282,5.282,0,0,1,7.448.01m-5.624,1.143a4.483,4.483,0,0,0,3.723-.049,2.925,2.925,0,0,0-3.723.049" transform="translate(-186.813 -84.185)"/>
        <path id="Trazado_228265" data-name="Trazado 228265" d="M188.977,305.322V303c-.227-.014-.438-.038-.648-.038-2.8,0-5.605-.01-8.407.012a1.538,1.538,0,0,0-.8.3c-.381.266-.809.435-1.148.122a1.666,1.666,0,0,1-.492-1.047,1.4,1.4,0,0,1,1.126-1.3,3.6,3.6,0,0,1,.788-.072q4.833-.007,9.665,0c1.376,0,1.927.557,1.935,1.925,0,.927.017,1.854-.007,2.78a1.509,1.509,0,0,1-1.625,1.616q-8.705.019-17.411,0a1,1,0,0,1-1.124-1.016c.024-.608.468-.962,1.263-.962q6.72-.007,13.439,0h3.448" transform="translate(-148.158 -261.036)"/>
        <path id="Trazado_228266" data-name="Trazado 228266" d="M227.4,231.606c1.655,0,3.309-.006,4.964,0a1.591,1.591,0,0,1,1.813,1.771c.013.948.016,1.9,0,2.845a1.572,1.572,0,0,1-1.674,1.722q-5.1.03-10.192,0a1.579,1.579,0,0,1-1.682-1.716q-.017-1.455,0-2.911a1.583,1.583,0,0,1,1.744-1.709c1.677-.011,3.353,0,5.03,0m4.759,2.036h-9.506v2.3h9.506Z" transform="translate(-191.338 -200.869)"/>
        <path id="Trazado_228267" data-name="Trazado 228267" d="M254.769,32.928c.527,0,1.055-.016,1.582,0a.981.981,0,1,1,.041,1.961c-1.076.035-2.153.032-3.229,0a.976.976,0,0,1-1.007-1,.967.967,0,0,1,1.031-.965c.527-.02,1.054,0,1.582,0" transform="translate(-218.695 -28.553)"/>
        <path id="Trazado_228268" data-name="Trazado 228268" d="M239.626,121.554a5.283,5.283,0,0,0-7.448-.01c-2.179-1.635-2.393-5.345-.439-7.572a5.478,5.478,0,1,1,7.887,7.583m-3.732-1.936a3.117,3.117,0,1,0-3.123-3.09,3.1,3.1,0,0,0,3.123,3.09" transform="translate(-199.825 -97.203)" fill="url(#linear-gradient-3)"/>
        <path id="Trazado_228269" data-name="Trazado 228269" d="M257.553,187.59a2.925,2.925,0,0,1,3.723-.049,4.483,4.483,0,0,1-3.723.049" transform="translate(-223.376 -162.096)" fill="#fff"/>
        <rect id="Rect치ngulo_57566" data-name="Rect치ngulo 57566" width="9.506" height="2.298" transform="translate(31.31 32.772)" fill="#43a99b"/>
        <path id="Trazado_228270" data-name="Trazado 228270" d="M251.4,128.168a3.117,3.117,0,1,1,.018-6.235,3.117,3.117,0,0,1-.018,6.235m-.012-1.989a1.146,1.146,0,0,0,1.146-1.12,1.161,1.161,0,0,0-1.136-1.137,1.12,1.12,0,0,0-1.129,1.127,1.1,1.1,0,0,0,1.119,1.13" transform="translate(-215.328 -105.753)"/>
        <path id="Trazado_228271" data-name="Trazado 228271" d="M264.4,139.177a1.1,1.1,0,0,1-1.119-1.13,1.12,1.12,0,0,1,1.129-1.127,1.161,1.161,0,0,1,1.136,1.137,1.146,1.146,0,0,1-1.146,1.12" transform="translate(-228.346 -118.751)" fill="#fff"/>
      </g>
    </g>
  </g>
</svg>
