<svg xmlns="http://www.w3.org/2000/svg" xmlns:xlink="http://www.w3.org/1999/xlink" width="112" height="112" viewBox="0 0 112 112">
  <defs>
    <clipPath id="clip-path">
      <rect id="Rectángulo_57568" data-name="Rectángulo 57568" width="63.252" height="63.227" fill="#fff"/>
    </clipPath>
  </defs>
  <g id="Grupo_179507" data-name="Grupo 179507" transform="translate(1704.95 4747.146)">
    <circle id="Elipse_5466" data-name="Elipse 5466" cx="56" cy="56" r="56" transform="translate(-1704.95 -4747.146)" fill="#12263f"/>
    <g id="Grupo_179362" data-name="Grupo 179362" transform="translate(-1680.039 -4722.124)">
      <g id="Grupo_179361" data-name="Grupo 179361" clip-path="url(#clip-path)">
        <path id="Trazado_228272" data-name="Trazado 228272" d="M56.113,63.228H53.69a5.517,5.517,0,0,0-.568-.246c-4.114-1.271-8.23-2.531-12.34-3.814a2.3,2.3,0,0,1-.9-.543q-5.133-5.1-10.24-10.225c-.176-.176-.36-.342-.436-.414L27.52,49.578c.73.709,1.505,1.407,2.217,2.165a3.174,3.174,0,0,1-4.09,4.808c-.134-.088-.275-.165-.43-.258a3.247,3.247,0,0,1-2.457,1.8,3.377,3.377,0,0,1-2.9-1.076c-.278.3-.505.549-.742.791-.252.258-.5.522-.773.759-3.128,2.732-6.673,3.443-10.472,1.773A9.66,9.66,0,0,1,4.919,44.637c.426-.431.856-.859,1.291-1.294a3.287,3.287,0,0,1-1.059-2.9,3.386,3.386,0,0,1,1.813-2.459c-.112-.161-.187-.263-.257-.369a3.163,3.163,0,0,1,2-4.921,3.112,3.112,0,0,1,2.956.962c.7.7,1.4,1.4,2.015,2.027l1.631-1.592c-.132-.138-.288-.307-.451-.47Q8.393,27.146,1.926,20.675a5.932,5.932,0,0,1-.008-8.743C2.829,11.01,3.75,10.1,4.667,9.182c2.786-2.779,6.275-2.777,9.06.007q5.095,5.093,10.188,10.187c.157.157.326.3.582.541a7.142,7.142,0,0,1,0-.74,36.692,36.692,0,0,1,.583-4.472A19.217,19.217,0,0,1,46.8.254C54.833,1.569,60.055,6.341,62.493,14.1a35.489,35.489,0,0,1,.76,3.726v3.06c-.166.935-.291,1.88-.5,2.8a19.438,19.438,0,0,1-17.08,14.947c-.746.068-1.5.1-2.245.142l-.1.156a4.671,4.671,0,0,1,.559.415q3.813,3.8,7.607,7.619a2.429,2.429,0,0,1,.571.954c1.159,3.747,2.266,7.509,3.449,11.248a10.382,10.382,0,0,1,.6,4.051M47.955,20.385c.772,0,1.469-.017,2.164,0a4.075,4.075,0,1,1-4.01,5.3c-.094-.3-.153-.605-.247-.984L23.022,44.826,26.1,47.912c.123-.117.293-.272.456-.434,2.66-2.659,5.309-5.329,7.98-7.976a9.6,9.6,0,0,1,7.882-2.849A17.354,17.354,0,1,0,26.58,20.675a9.926,9.926,0,0,1-3.01,8.2q-3.936,3.907-7.844,7.842c-.159.159-.309.327-.408.431L18.4,40.23,38.383,17.4a14.188,14.188,0,0,1-1.775-.254,4.076,4.076,0,1,1,5.216-4.059c.024.714,0,1.43,0,2.213h6.127Zm-2.043-3.063c-1.542,0-2.986-.014-4.429.015a.969.969,0,0,0-.608.336q-7.4,8.425-14.786,16.868-3.146,3.593-6.275,7.17l1.669,1.707a1.04,1.04,0,0,0,.158-.1q12-10.569,24-21.146a.741.741,0,0,0,.257-.466c.02-1.439.011-2.879.011-4.388M7.62,44.881c-2.753,2.289-4.252,5.1-3.207,8.736a7.242,7.242,0,0,0,5.879,5.376c3.42.678,5.991-.855,8.062-3.373L7.62,44.881M6.584,22.39l8.731-8.725c-1.022-1.022-2.083-2.085-3.148-3.144a6.031,6.031,0,0,0-.613-.554,3.941,3.941,0,0,0-4.987.231c-1.2,1.136-2.378,2.3-3.509,3.512a3.783,3.783,0,0,0-.02,5.156c1.142,1.224,2.373,2.365,3.545,3.524M44.328,53.1,34.206,42.967l-3.412,3.41,10.13,10.129,3.4-3.407m5.135-5.234c.008.024.006-.026-.02-.052q-4.428-4.438-8.865-8.867a.583.583,0,0,0-.437-.16,7.4,7.4,0,0,0-4.365,2.382l10.2,10.2,3.489-3.506M9.27,34.475a5.053,5.053,0,0,0-.977.908c-.307.506-.046.971.346,1.363q8.925,8.923,17.849,17.847a1.152,1.152,0,1,0,1.617-1.6c-.789-.8-1.59-1.6-2.386-2.391q-7.662-7.662-15.33-15.318a9.193,9.193,0,0,0-1.119-.8M54,61.117,50.606,50.074l-7.643,7.647L54,61.117M22.4,56.246a4.775,4.775,0,0,0,.952-.871c.312-.5.058-.972-.335-1.364q-6.9-6.894-13.792-13.788a1.147,1.147,0,1,0-1.63,1.59Q14.5,48.738,21.431,55.645a5.631,5.631,0,0,0,.965.6M14.88,23.516l-3.506,3.505,5.465,5.463,3.492-3.5L14.88,23.516m7.1,4.027a7.724,7.724,0,0,0,2.4-4.026A.99.99,0,0,0,24.07,22.4c-.854-.794-1.668-1.632-2.482-2.468-.543-.558-1.056-1.144-1.5-1.632l-3.671,3.663,5.566,5.577M16.915,15.305,8.289,23.946l1.385,1.4,8.652-8.64-1.411-1.4m22.868-.033c0-.8.041-1.516-.01-2.229A2.026,2.026,0,0,0,37.707,11.2a2.055,2.055,0,0,0-1.99,1.931,2.027,2.027,0,0,0,1.84,2.129c.713.051,1.432.01,2.227.01m8.178,8.619c0,.255-.02.511,0,.764a2.032,2.032,0,0,0,3.857.695,2.012,2.012,0,0,0-.506-2.429,2.524,2.524,0,0,0-1.852-.5c-1.312.021-1.512.206-1.5,1.472" transform="translate(0 0)" fill="#fff"/>
        <path id="Trazado_228273" data-name="Trazado 228273" d="M343.705,34.1V32.185a15.217,15.217,0,0,1,14.608,10.862l-1.864.579c-2.2-5.925-6.433-9.086-12.744-9.522" transform="translate(-299.801 -28.064)" fill="#fff"/>
        <path id="Trazado_228274" data-name="Trazado 228274" d="M446.5,136.614c-.048-.617-.094-1.2-.144-1.837l2.01-.3.178,2.138Z" transform="translate(-389.337 -117.298)" fill="#fff"/>
      </g>
    </g>
  </g>
</svg>
