<svg xmlns="http://www.w3.org/2000/svg" xmlns:xlink="http://www.w3.org/1999/xlink" width="112" height="112" viewBox="0 0 112 112">
  <defs>
    <clipPath id="clip-path">
      <rect id="Rectángulo_57584" data-name="Rectángulo 57584" width="66.075" height="70.844" fill="#fff"/>
    </clipPath>
  </defs>
  <g id="Grupo_179508" data-name="Grupo 179508" transform="translate(1374.9 4747.146)">
    <circle id="Elipse_5466" data-name="Elipse 5466" cx="56" cy="56" r="56" transform="translate(-1374.9 -4747.146)" fill="#12263f"/>
    <g id="Grupo_179370" data-name="Grupo 179370" transform="translate(-1346.901 -4728.245)">
      <g id="Grupo_179369" data-name="Grupo 179369" clip-path="url(#clip-path)">
        <path id="Trazado_228289" data-name="Trazado 228289" d="M4.013,97.695H9.806q9.807,0,19.615,0c1.754,0,3.509,0,5.263-.018a1.581,1.581,0,0,1,1.374.609c.9,1.095,1.861,2.138,2.95,3.375H34.536l-25.93-.016c-1.737,0-3.475,0-5.213-.012A3.084,3.084,0,0,1,.016,98.1C.054,96.9,0,95.7,0,94.5Q.009,75.6.022,56.7c0-3.881-.017-7.761-.02-11.642A3.034,3.034,0,0,1,3.383,41.7q3.06,0,6.119.007a2.38,2.38,0,0,1,.295.043l.3,3.872H4.013Z" transform="translate(0 -34.707)" fill="#fff"/>
        <path id="Trazado_228290" data-name="Trazado 228290" d="M188.563,204.724c0-.643.041-1.289-.011-1.927s.184-.849.83-.906a48.8,48.8,0,0,0,11.457-2.357c1.478-.5,2.9-1.171,4.362-1.716a1.533,1.533,0,0,1,1.066-.018,48.5,48.5,0,0,0,15.816,4.1c.458.047.858.011.853.7a54.717,54.717,0,0,1-2.027,16.129c-2.428,7.745-7.5,13.129-14.745,16.579a1.1,1.1,0,0,1-.843,0,31.038,31.038,0,0,1-8.483-5.992c-4.844-4.9-6.874-10.981-7.753-17.58-.309-2.322-.417-4.671-.617-7.007l.094-.008m31.233.086c-.254-.054-.36-.085-.469-.1a48.763,48.763,0,0,1-13.147-3.478,1.568,1.568,0,0,0-1.087.084,49.915,49.915,0,0,1-12.574,3.376c-.677.094-.812.339-.786.947a50.566,50.566,0,0,0,1.333,10.277A23.425,23.425,0,0,0,204.992,231.6a1.182,1.182,0,0,0,1.307.125,25.337,25.337,0,0,0,6.99-5.537c5.223-6.177,6.2-13.638,6.507-21.381" transform="translate(-156.861 -164.553)" fill="#fff"/>
        <path id="Trazado_228291" data-name="Trazado 228291" d="M78.921,5.149c.691-3.371,2.548-5.2,5.185-5.148,2.253.048,4.783,1.415,5.2,5.107.282.013.579.038.876.039,1.592,0,3.185-.006,4.777.006a1.388,1.388,0,0,1,1.557,1.3A15.245,15.245,0,0,1,96.476,9.3a3.88,3.88,0,0,1-3.95,3.5q-8.381.05-16.762,0a3.931,3.931,0,0,1-4.027-4.043q-.022-1.005,0-2.011c.026-1.091.514-1.578,1.6-1.586,1.564-.012,3.129,0,4.694,0h.884m5.3-2.295a2.3,2.3,0,0,0-2.373,2.206,2.259,2.259,0,0,0,2.17,2.308,2.259,2.259,0,0,0,.2-4.514" transform="translate(-59.697 0)" fill="#fff"/>
        <path id="Trazado_228292" data-name="Trazado 228292" d="M237.248,45.669H231.08l.279-3.929c.218-.019.433-.053.647-.054,2.011,0,4.022-.01,6.033,0a2.939,2.939,0,0,1,3.125,3.008c.026,6.675.015,13.35,0,20.025,0,.243-.107.62-.279.706-1.139.575-2.309,1.088-3.639,1.7Z" transform="translate(-192.326 -34.691)" fill="#fff"/>
        <path id="Trazado_228293" data-name="Trazado 228293" d="M119.65,118.369h20.52a17.9,17.9,0,0,1-.038,2.213c-.023.182-.509.432-.785.436-2.259.036-4.518.022-6.778.022l-11.3-.005c-1.621,0-1.621,0-1.619-1.66,0-.3,0-.6,0-1" transform="translate(-99.583 -98.517)" fill="#fff"/>
        <path id="Trazado_228294" data-name="Trazado 228294" d="M139.667,180.439v2.614H119.292a.765.765,0,0,1-.087-.183c-.285-2.43-.285-2.431,2.131-2.431h18.331" transform="translate(-99.108 -150.177)" fill="#fff"/>
        <path id="Trazado_228295" data-name="Trazado 228295" d="M131.276,307.683H120.085v-2.566h10.542l.649,2.566" transform="translate(-99.946 -253.946)" fill="#fff"/>
        <path id="Trazado_228296" data-name="Trazado 228296" d="M52.576,283.71c1.307-1.339,2.431-2.5,3.568-3.648.453-.457,1.043-.713,1.564-.263a2.344,2.344,0,0,1,.562,1.262c.041.2-.2.507-.389.7q-2.083,2.117-4.2,4.2a1.3,1.3,0,0,1-2.05.021c-.707-.673-1.406-1.357-2.077-2.065a1.186,1.186,0,0,1-.089-1.787,1.2,1.2,0,0,1,1.784.069c.438.423.809.917,1.328,1.515" transform="translate(-40.864 -232.678)" fill="#fff"/>
        <path id="Trazado_228297" data-name="Trazado 228297" d="M52.921,97.442c1.2-1.239,2.218-2.3,3.242-3.356a5.707,5.707,0,0,1,.481-.464,1.209,1.209,0,0,1,1.668,1.75q-2.17,2.209-4.389,4.371a1.252,1.252,0,0,1-1.871,0c-.713-.666-1.41-1.353-2.068-2.073a1.339,1.339,0,0,1-.148-1.879c.538-.518,1.231-.451,1.91.239.388.395.714.851,1.174,1.41" transform="translate(-41.213 -77.642)" fill="#fff"/>
        <path id="Trazado_228298" data-name="Trazado 228298" d="M52.8,159.433c1.031-1.056,2.115-2.176,3.212-3.283.677-.683,1.457-.77,1.977-.249s.422,1.292-.263,1.983q-1.974,1.991-3.963,3.967a1.361,1.361,0,0,1-2.185.045c-.682-.659-1.353-1.331-2.006-2.019a1.183,1.183,0,0,1-.121-1.785,1.265,1.265,0,0,1,1.858.087c.428.4.843.808,1.266,1.21.017.016.054.012.224.043" transform="translate(-40.864 -129.475)" fill="#fff"/>
        <path id="Trazado_228299" data-name="Trazado 228299" d="M52.8,221.715c1.218-1.314,2.331-2.559,3.5-3.755a1.163,1.163,0,0,1,1.776.016,1.212,1.212,0,0,1-.185,1.772c-.287.263-.557.544-.83.821-1.093,1.108-2.188,2.213-3.274,3.328a1.37,1.37,0,0,1-2.127.043q-1.024-.99-2.01-2.018a1.217,1.217,0,0,1-.114-1.851,1.252,1.252,0,0,1,1.8.118c.441.416.843.873,1.468,1.525" transform="translate(-40.915 -181.07)" fill="#fff"/>
        <path id="Trazado_228300" data-name="Trazado 228300" d="M119.618,245.2c0-.721-.034-1.411.023-2.094a.7.7,0,0,1,.472-.484c2.889-.028,5.779-.018,8.669-.013a2.212,2.212,0,0,1,.337.068V245.2Z" transform="translate(-99.548 -201.919)" fill="#fff"/>
        <path id="Trazado_228301" data-name="Trazado 228301" d="M291.94,246.621V235.253l11.535,3.21c-.388,2.454-.8,5.087-1.239,7.714a.677.677,0,0,1-.491.425c-3.233.025-6.466.019-9.8.019" transform="translate(-242.979 -195.799)" fill="#fff"/>
        <path id="Trazado_228302" data-name="Trazado 228302" d="M240.678,303.841v13.611a20.659,20.659,0,0,1-10.147-13.611Z" transform="translate(-191.869 -252.884)" fill="#fff"/>
      </g>
    </g>
  </g>
</svg>
