<svg xmlns="http://www.w3.org/2000/svg" xmlns:xlink="http://www.w3.org/1999/xlink" width="108.419" height="108.419" viewBox="0 0 108.419 108.419">
  <defs>
    <linearGradient id="linear-gradient" x1="0.5" x2="0.5" y2="1" gradientUnits="objectBoundingBox">
      <stop offset="0" stop-color="#fdbe41"/>
      <stop offset="1" stop-color="#d09f40"/>
    </linearGradient>
    <clipPath id="clip-path">
      <rect id="Rectángulo_57661" data-name="Rectángulo 57661" width="52.826" height="59.616" fill="#12263f"/>
    </clipPath>
  </defs>
  <g id="Grupo_179508" data-name="Grupo 179508" transform="translate(-2143.996 10359.803)">
    <circle id="Elipse_6218" data-name="Elipse 6218" cx="54.209" cy="54.209" r="54.209" transform="translate(2143.996 -10359.803)" fill="url(#linear-gradient)"/>
    <g id="Grupo_179419" data-name="Grupo 179419" transform="translate(2175 -10337)">
      <g id="Grupo_179418" data-name="Grupo 179418" clip-path="url(#clip-path)">
        <path id="Trazado_228416" data-name="Trazado 228416" d="M.674,59.616A1.5,1.5,0,0,1,0,58.187Q.015,29.808.009,1.429C.009.281.3,0,1.467,0H46.28C47.4,0,47.7.293,47.7,1.4q0,6.433,0,12.865v.6H45.744V2.022H2.032V57.592H38.751v-.8c0-1.63,0-3.26,0-4.89,0-.875.365-1.235,1.245-1.237,1.879-.006,3.759,0,5.7,0V28.848h2V29.5q0,10.857.01,21.713a1.931,1.931,0,0,1-.625,1.488c-2.113,2.085-4.2,4.194-6.307,6.288a9.662,9.662,0,0,1-.761.621Zm40.084-3.629L44.036,52.7H40.759Z" transform="translate(0 0)" fill="#12263f"/>
        <path id="Trazado_228417" data-name="Trazado 228417" d="M278.407,138.872a5.172,5.172,0,0,1-1.659,2.583q-8.183,8.148-16.328,16.333a1.89,1.89,0,0,1-1.538.641c-.773-.041-1.551,0-2.326-.013a1.032,1.032,0,0,1-1.16-1.146c-.018-.892-.042-1.786.015-2.675a1.628,1.628,0,0,1,.415-.969Q264.4,145,273.007,136.419a3.031,3.031,0,0,1,3.157-.81,2.912,2.912,0,0,1,2.143,2.366.876.876,0,0,0,.1.2Zm-20.981,17.49a2.28,2.28,0,0,0,2.4-.772c3.647-3.725,7.354-7.392,11.04-11.079.16-.16.312-.328.417-.439l-1.507-1.6c-.148.14-.289.269-.424.4-3.742,3.741-7.46,7.506-11.243,11.2a2.346,2.346,0,0,0-.685,2.28M275.292,140.1c.5-.6,1.342-.986.991-1.9a1.361,1.361,0,0,0-.866-.708c-.852-.179-1.193.579-1.651.994l1.527,1.617m-2.953-.045-1.013.923,1.421,1.513,1.086-.95-1.493-1.487" transform="translate(-225.581 -119.66)" fill="#12263f"/>
        <path id="Trazado_228418" data-name="Trazado 228418" d="M203.452,172.5h-1.531v-1.975c1.377,0,2.73-.02,4.081.011a.786.786,0,0,1,.794.79c.033,1.351.012,2.7.012,4.093h-1.952v-1.3a24.074,24.074,0,0,0-5.643,9.331,29.457,29.457,0,0,0-1.278,10.836h-1.963a28.487,28.487,0,0,1,7.481-21.789" transform="translate(-173.048 -150.626)" fill="#12263f"/>
        <path id="Trazado_228419" data-name="Trazado 228419" d="M129.462,157.235v1.132H127.5c0-1.372-.026-2.725.014-4.076a.815.815,0,0,1,.844-.81c1.335-.025,2.67-.009,4.051-.009v1.955h-1.518c5.032,7.353,4.838,14.491-.6,21.595l-1.544-1.371a14.467,14.467,0,0,0,3.617-11.738,12.687,12.687,0,0,0-2.9-6.679" transform="translate(-112.618 -135.563)" fill="#12263f"/>
        <path id="Trazado_228420" data-name="Trazado 228420" d="M140.739,104.235l-1.411-1.43,1.214-1.028-.1-.184h-12.3v-2h12.286l.056-.131-1.269-1.011,1.524-1.469c1,.975,2.04,1.955,3.032,2.983a.887.887,0,0,1-.072,1.312c-.961.983-1.944,1.943-2.962,2.956" transform="translate(-113.193 -85.669)" fill="#12263f"/>
        <path id="Trazado_228421" data-name="Trazado 228421" d="M50.66,114.736a3.966,3.966,0,1,1-3.941-3.972,3.937,3.937,0,0,1,3.941,3.972m-1.985-.026a1.968,1.968,0,0,0-2.01-1.963,1.982,1.982,0,0,0,.042,3.963,1.956,1.956,0,0,0,1.968-2" transform="translate(-37.743 -97.841)" fill="#12263f"/>
        <path id="Trazado_228422" data-name="Trazado 228422" d="M72.376,349.263a3.966,3.966,0,1,1-3.992,3.918,3.975,3.975,0,0,1,3.992-3.918m-.03,5.947a1.982,1.982,0,1,0-.033-3.963,1.982,1.982,0,0,0,.033,3.963" transform="translate(-60.406 -308.516)" fill="#12263f"/>
        <path id="Trazado_228423" data-name="Trazado 228423" d="M289.1,106.136a3.965,3.965,0,1,1-3.967-3.956,3.975,3.975,0,0,1,3.967,3.956m-1.985.038a1.981,1.981,0,1,0-3.963-.007,1.981,1.981,0,0,0,3.963.007" transform="translate(-248.365 -90.259)" fill="#12263f"/>
        <path id="Trazado_228424" data-name="Trazado 228424" d="M178.38,395.839a3.966,3.966,0,1,1-3.922-3.989,3.971,3.971,0,0,1,3.922,3.989m-1.985-.016a1.949,1.949,0,0,0-1.983-1.982,1.972,1.972,0,0,0-1.98,1.938,2.014,2.014,0,0,0,1.965,2.028,1.991,1.991,0,0,0,2-1.984" transform="translate(-150.563 -346.135)" fill="#12263f"/>
        <path id="Trazado_228425" data-name="Trazado 228425" d="M294.82,346.853l-2.27-2.207,1.4-1.387,2.179,2.287,2.183-2.342,1.4,1.452-2.175,2.113,2.341,2.275-1.6,1.395-2.044-2.271-2.318,2.388-1.406-1.424,2.314-2.279" transform="translate(-258.381 -303.165)" fill="#12263f"/>
        <path id="Trazado_228426" data-name="Trazado 228426" d="M176.818,32.787l-2.354,2.433-1.375-1.4,2.35-2.205-2.369-2.306,1.465-1.378,2.178,2.211,2.153-2.289,1.5,1.452-2.3,2.222,2.4,2.219-1.437,1.283-2.207-2.241" transform="translate(-152.878 -24.603)" fill="#12263f"/>
        <path id="Trazado_228427" data-name="Trazado 228427" d="M82.663,229.447l-2.287,2.324-1.363-1.5,2.211-2.08-2.334-2.268,1.551-1.418,2.14,2.282,2.2-2.3,1.417,1.48-2.166,2.068,2.317,2.173-1.53,1.547-2.152-2.311" transform="translate(-69.686 -198.3)" fill="#12263f"/>
      </g>
    </g>
  </g>
</svg>
