<svg xmlns="http://www.w3.org/2000/svg" xmlns:xlink="http://www.w3.org/1999/xlink" width="93" height="94" viewBox="0 0 93 94">
  <defs>
    <clipPath id="clip-path">
      <rect id="Rectángulo_57639" data-name="Rectángulo 57639" width="54.412" height="54.404" fill="#fff"/>
    </clipPath>
  </defs>
  <g id="Grupo_179389" data-name="Grupo 179389" transform="translate(0.275 -0.334)">
    <ellipse id="Elipse_4870" data-name="Elipse 4870" cx="46.5" cy="47" rx="46.5" ry="47" transform="translate(-0.275 0.334)" fill="#7f4fc7"/>
    <g id="Grupo_179401" data-name="Grupo 179401" transform="translate(18.351 19.786)">
      <g id="Grupo_179401-2" data-name="Grupo 179401" clip-path="url(#clip-path)">
        <path id="Trazado_228349" data-name="Trazado 228349" d="M26.877,54.4h-1.1a3.993,3.993,0,0,1-2.39-1.6.579.579,0,0,0-.424-.146q-5.414-.012-10.828,0a.58.58,0,0,0-.425.146,3.977,3.977,0,0,1-2.389,1.6h-1.1a3.775,3.775,0,0,1-2.243-1.433.693.693,0,0,0-.674-.327c-1.019.013-2.041-.039-3.057.017A2.082,2.082,0,0,1,0,51.333V34.662A2.141,2.141,0,0,1,2.263,33.33c4.808.035,9.615.015,14.423.015H17.3l-.867-3.527h4.654V26.308h1.695V24.545H21.094V22.816c.611,0,1.193.01,1.774-.007a.586.586,0,0,0,.422-.149c.728-1.127,1.434-2.269,2.147-3.41-1.69-.881-2.048-1.789-1.455-3.572q.639-1.922,1.267-3.847a1.525,1.525,0,0,0,.095-.582c-.079-.891-.2-1.778-.276-2.668-.171-1.929-.352-3.858-.481-5.789A2.54,2.54,0,0,1,27.216,0c.384,0,.768,0,1.152,0a1.738,1.738,0,0,1,1.634,1,14.181,14.181,0,0,1,.82,1.669,1.189,1.189,0,0,0,1.393.855c1.528-.064,3.06-.019,4.646-.019,0-.631-.015-1.212,0-1.791A1.743,1.743,0,0,1,38.584.006c.4-.015.8.006,1.206-.005a1.869,1.869,0,0,1,1.64.824c.586.794,1.168,1.591,1.785,2.36a.933.933,0,0,0,.619.313c.986.034,1.974,0,2.961.022a7.924,7.924,0,0,1,7.611,7.548,2.661,2.661,0,0,1-2.869,2.974c-2.212,0-4.424.01-6.636-.009a.662.662,0,0,0-.7.44c-.757,1.56-1.634,3.069-2.29,4.669a2.776,2.776,0,0,1-3.232,1.937,1.83,1.83,0,0,1-1.815-1.861c-.009-.859,0-1.718,0-2.577v-2.6c-1.3,0-2.543-.005-3.782.009a.552.552,0,0,0-.356.195c-.909,1.074-1.815,2.151-2.7,3.248a.6.6,0,0,0-.034.551q1.367,2.247,2.791,4.458a.805.805,0,0,0,.554.3c.575.039,1.155.014,1.727.014v1.772H33.385v1.763h1.739V29.8H40.4V26.3h1.744V22.843h7.009v3.5H52.67v3.5h1.725a22.092,22.092,0,0,1-.88,7.142,24.513,24.513,0,0,1-3.039,6.437,6.85,6.85,0,0,1,3.9-1.274v1.519A15.466,15.466,0,0,0,52.1,44.6a6.016,6.016,0,0,1-6.811-.026,4.9,4.9,0,0,0-1.345-.585,4.588,4.588,0,0,0-3.631.789,5.634,5.634,0,0,1-6.078-.008c-.309-.179-.62-.354-.876-.5-.341,1.236.255,1.9,1.349,2.254a1.982,1.982,0,0,1,.378.219,4.082,4.082,0,0,0,4.456,0,8.341,8.341,0,0,1,1.817-.871,6.07,6.07,0,0,1,5.169.884,3.926,3.926,0,0,0,4.352.02c.379-.22.752-.455,1.147-.64a4.831,4.831,0,0,1,2.359-.478v1.53a14.982,14.982,0,0,0-2.271.917,6.015,6.015,0,0,1-6.81-.007,4.928,4.928,0,0,0-1.342-.591,4.645,4.645,0,0,0-3.681.8,5.617,5.617,0,0,1-5.984.012c-.295-.166-.588-.334-.947-.538,0,1.08.009,2.064,0,3.047a1.752,1.752,0,0,1-1.836,1.824c-.6.008-1.207-.007-1.81.008-.148,0-.362.039-.429.139A3.98,3.98,0,0,1,26.877,54.4M52.645,31.617H18.689l.424,1.694c1.4.154,1.948.768,1.95,2.124,0,.466,0,.932,0,1.42,2.421,0,4.759.015,7.1-.007a1.951,1.951,0,0,1,1.952,1.213q.886,1.852,1.841,3.67a1.119,1.119,0,0,0,.54.445c.767.321,1.555.591,2.325.906a12.531,12.531,0,0,0,1.487.669,4.091,4.091,0,0,0,3.346-.6,5.842,5.842,0,0,1,6.652-.039,5.837,5.837,0,0,0,1.178.567.67.67,0,0,0,.59-.157,19.985,19.985,0,0,0,4.575-11.908M44.951,5.267h-.49c-4.3,0-8.593-.013-12.89.009a1.992,1.992,0,0,1-2.032-1.267,14.446,14.446,0,0,1-.645-1.328,1.252,1.252,0,0,0-1.556-.939c-.749.085-1.051.347-.992,1.114.063.82.137,1.639.207,2.458L27,10.532c1.337,0,2.632.015,3.926,0a2.254,2.254,0,0,1,2.322,1.483.52.52,0,0,0,.381.264c1.1.021,2.191.012,3.287.012a2.443,2.443,0,0,1,2.671-1.761c.785.035,1.574.04,2.358,0a2.479,2.479,0,0,1,2.767,1.762h6.7c1.122,0,1.538-.659,1.083-1.755h-2.07c-.713,0-1.426.011-2.139,0a3.464,3.464,0,0,1-3.412-2.851,12.362,12.362,0,0,1,.08-2.409M8.774,47.34h1.781V36.894h5.273V47.352h3.441V35.145H1.787v12.2H3.54V36.888H8.774Zm3.593,3.52H22.794A3.58,3.58,0,0,1,26.036,47.4a3.443,3.443,0,0,1,2.282.614,3.633,3.633,0,0,1,1.548,2.859h1.7V45.612H22.844V40.371h6.44c-.248-.509-.479-.939-.668-1.386a.574.574,0,0,0-.631-.381c-2.175.013-4.351.006-6.526.009-.122,0-.243.022-.4.037v.626q0,3.948,0,7.9a1.775,1.775,0,0,1-1.967,1.969q-3.318,0-6.635,0h-.573l.481,1.72M38.616,19.306a6.857,6.857,0,0,0,.922-.012.607.607,0,0,0,.41-.255q1.491-2.928,2.945-5.874c.251-.509.021-.866-.552-.874-1.024-.014-2.048,0-3.072,0a.57.57,0,0,0-.653.631c0,2.1,0,4.2,0,6.388M29.18,12.287c-.621,0-1.244-.022-1.864.015a.613.613,0,0,0-.451.315c-.467,1.325-.907,2.659-1.339,3.995-.187.577.07.917.681.937a4.748,4.748,0,0,0,.985-.011,1.348,1.348,0,0,0,.751-.339c1.17-1.355,2.311-2.736,3.445-4.122.109-.133.205-.418.137-.521a.757.757,0,0,0-.536-.257c-.6-.031-1.206-.012-1.809-.012M33.325,28.12H22.863v1.688H33.325ZM5.3,47.341H6.993V38.636H5.3Zm8.706-8.691H12.33v8.724h1.679ZM51.956,8.761c.006-.067.023-.108.01-.134A6,6,0,0,0,47.72,5.406a.78.78,0,0,0-.58.19,1.687,1.687,0,0,0-.553,1.826,1.643,1.643,0,0,0,1.5,1.319c1.285.073,2.577.02,3.864.02M24.595,26.282h6.968V24.606H24.595Zm0,17.569h6.368c-.475-1.6-.637-1.73-2.208-1.73H24.6ZM10.529,50.9a1.753,1.753,0,1,0-1.743,1.75,1.768,1.768,0,0,0,1.743-1.75m15.782,1.75a1.754,1.754,0,1,0-1.736-1.757,1.769,1.769,0,0,0,1.736,1.757m-24.545-1.8H5.193l.461-1.667H1.766ZM45.614,28.123H42.153V29.8h3.461Zm5.26-.005H47.433v1.692h3.442Zm-6.969-1.83h3.442V24.6H43.905Zm-2.749-22.8c-.9-1.628-1.38-1.936-2.515-1.646V3.486ZM27.17,22.8V19.792L25.292,22.8Zm3.7-.012L28.989,19.78v3.008Z" transform="translate(0 0)" fill="#fff"/>
        <path id="Trazado_228350" data-name="Trazado 228350" d="M0,42.258c.15-.693.262-1.4.455-2.078A11.407,11.407,0,1,1,.1,44.872a3.673,3.673,0,0,0-.1-.42V42.258M11.417,33.7a9.651,9.651,0,1,0,9.645,9.673A9.666,9.666,0,0,0,11.417,33.7" transform="translate(0 -28.436)" fill="#fff"/>
        <path id="Trazado_228351" data-name="Trazado 228351" d="M401.935,308.7a2.631,2.631,0,1,1,2.629-2.606,2.643,2.643,0,0,1-2.629,2.606m-.022-1.758a.873.873,0,1,0-.854-.892.884.884,0,0,0,.854.892" transform="translate(-355.419 -270.095)" fill="#fff"/>
        <rect id="Rectángulo_57637" data-name="Rectángulo 57637" width="1.707" height="1.683" transform="translate(36.886 7.063)" fill="#fff"/>
        <rect id="Rectángulo_57638" data-name="Rectángulo 57638" width="1.687" height="1.685" transform="translate(33.393 7.062)" fill="#fff"/>
        <path id="Trazado_228352" data-name="Trazado 228352" d="M47.9,85.937c0-1.389,0-2.778,0-4.167A1.768,1.768,0,0,1,49.8,79.851q4.25-.007,8.5,0a1.751,1.751,0,0,1,1.878,1.89q.009,4.249,0,8.5a1.753,1.753,0,0,1-1.878,1.892q-4.277.009-8.555,0a1.748,1.748,0,0,1-1.85-1.863c-.008-1.444,0-2.888,0-4.331m10.492,4.417V81.631H56.67v3.447H51.382V81.635H49.688v8.7h1.736V88.659h1.762v1.692h1.742V88.665H56.69v1.689Zm-3.508-8.708H53.191v1.687h1.691Z" transform="translate(-42.633 -71.073)" fill="#fff"/>
      </g>
    </g>
  </g>
</svg>
