<svg xmlns="http://www.w3.org/2000/svg" xmlns:xlink="http://www.w3.org/1999/xlink" width="126" height="126" viewBox="0 0 126 126">
  <defs>
    <filter id="Elipse_6232" x="0" y="0" width="126" height="126" filterUnits="userSpaceOnUse">
      <feOffset dy="3" input="SourceAlpha"/>
      <feGaussianBlur stdDeviation="3" result="blur"/>
      <feFlood flood-opacity="0.161"/>
      <feComposite operator="in" in2="blur"/>
      <feComposite in="SourceGraphic"/>
    </filter>
    <clipPath id="clip-path">
      <rect id="Rectángulo_57636" data-name="Rectángulo 57636" width="73.262" height="73.248" fill="#1a76b7"/>
    </clipPath>
  </defs>
  <g id="Grupo_179514" data-name="Grupo 179514" transform="translate(-801.611 -4322.381)">
    <g transform="matrix(1, 0, 0, 1, 801.61, 4322.38)" filter="url(#Elipse_6232)">
      <circle id="Elipse_6232-2" data-name="Elipse 6232" cx="54" cy="54" r="54" transform="translate(9 6)" fill="#fff"/>
    </g>
    <g id="Grupo_179470" data-name="Grupo 179470" transform="translate(828.434 4349.117)">
      <g id="Grupo_179400" data-name="Grupo 179400" clip-path="url(#clip-path)">
        <path id="Trazado_228346" data-name="Trazado 228346" d="M182.679,30.032c-.237,1.429-.4,2.876-.722,4.285a28.045,28.045,0,0,1-22.595,21.426c-.7.123-1.407.183-2.192.282l-.235-2.361c1.119-.2,2.206-.412,3.3-.579a1.176,1.176,0,0,0,1.036-.817c.983-2.552,2-5.093,2.993-7.64.077-.2.114-.406.189-.682h-6.3V41.495h6.993a55.39,55.39,0,0,0,1.65-12.186h-8.481V26.864h8.5c-.064-1.176-.044-2.273-.2-3.345-.388-2.733-.858-5.455-1.284-8.183-.082-.527-.3-.736-.883-.728-2.622.036-5.245.015-7.868.017-.232,0-.464.023-.76.038V26.333h-2.436V14.668c-.284-.017-.51-.041-.735-.041-2.646,0-5.293.014-7.939-.015-.546-.006-.744.172-.829.7-.361,2.232-.759,4.458-1.144,6.686-.036.208-.078.416-.131.691l-2.469-.244,1.291-7.774c-.2-.014-.408-.04-.614-.04-2.479,0-4.959.012-7.438-.014a.876.876,0,0,0-.945.562c-.74,1.673-1.5,3.34-2.242,5.011-.076.17-.127.35-.209.583l-2.258-.664a4.7,4.7,0,0,1,.12-.552C131.419,9.316,138.456,2.788,149.062.6A27.846,27.846,0,0,1,182,22.02c.31,1.364.457,2.764.679,4.148ZM169.461,26.8h10.664a1.042,1.042,0,0,0,.056-.244,24.951,24.951,0,0,0-3.508-11.485,1.151,1.151,0,0,0-.847-.43c-2.142-.036-4.285-.019-6.428-.019h-1.505L169.461,26.8m0,2.533-1.568,12.144c-.11-.04-.066-.01-.021-.01,2.739.006,5.479.018,8.218,0a.821.821,0,0,0,.575-.392c.534-.981,1.076-1.964,1.518-2.988a24.49,24.49,0,0,0,2-8.751Zm-5.025-17.2a5.652,5.652,0,0,0-.159-.611c-.994-2.542-2-5.079-2.985-7.625a1.225,1.225,0,0,0-1.077-.869c-1.444-.2-2.883-.43-4.368-.655v9.76ZM153.33,2.355c-1.555.253-3.029.507-4.508.726a.958.958,0,0,0-.834.652c-.65,1.559-1.357,3.095-1.98,4.665-.479,1.208-.862,2.453-1.309,3.743h8.63Zm21.4,41.569h-.641c-2.143,0-4.286.02-6.428-.015-.515-.008-.677.195-.832.635-.787,2.241-1.613,4.468-2.423,6.7-.059.162-.1.331-.177.59a25.967,25.967,0,0,0,10.5-7.912M134.565,12.177c2.5,0,4.9.011,7.3-.025.164,0,.39-.34.474-.563.837-2.247,1.65-4.5,2.468-6.758.052-.143.089-.291.145-.476-3.249.981-8.616,5.006-10.385,7.822M164.3,4.324c-.024.12-.051.171-.038.206.879,2.411,1.776,4.816,2.63,7.237.143.405.374.415.7.414,1.643,0,3.287,0,4.93,0h2.2A25.571,25.571,0,0,0,164.3,4.324" transform="translate(-109.417 0)" fill="#1a76b7"/>
        <path id="Trazado_228347" data-name="Trazado 228347" d="M22.9,197.171c-2.944-1.661-5.98-3.179-8.813-5.01A29.53,29.53,0,0,1,.307,170.456a56.035,56.035,0,0,1-.284-6.706c-.044-2.932-.011-5.865-.011-8.8,0-1.387.346-1.755,1.721-1.735a27.608,27.608,0,0,0,16.1-4.566,46.556,46.556,0,0,0,4.233-3.387c.917-.78,1.4-.834,2.264.006a27.437,27.437,0,0,0,15.357,7.616,50.8,50.8,0,0,0,5.2.322c1.1.049,1.5.416,1.5,1.526,0,4.077.109,8.158-.026,12.231C45.985,178.417,40.8,187.1,31,192.994c-2.3,1.386-4.7,2.625-7.048,3.934a3.183,3.183,0,0,0-.33.243ZM2.45,155.671c0,3.725-.064,7.348.012,10.969.2,9.46,4.064,17.1,11.746,22.635a93.432,93.432,0,0,0,8.689,5.072,1.044,1.044,0,0,0,.832-.1c1.885-1.018,3.772-2.035,5.623-3.113,9.254-5.393,14.189-13.428,14.572-24.157.128-3.572.024-7.152.023-10.728,0-.182-.031-.365-.051-.584a30.656,30.656,0,0,1-20.687-8.075,30.744,30.744,0,0,1-20.76,8.083" transform="translate(0 -123.923)" fill="#1a76b7"/>
        <path id="Trazado_228348" data-name="Trazado 228348" d="M70.577,203.084a29.045,29.045,0,0,1-.98,9.183,25.339,25.339,0,0,1-11.744,15.07q-2.335,1.384-4.75,2.629a1.742,1.742,0,0,1-1.39.127,66.376,66.376,0,0,1-8.047-4.882,24.7,24.7,0,0,1-9.7-19.487c-.081-2.454-.016-4.912-.017-7.369,0-1.309.292-1.657,1.579-1.806a32.291,32.291,0,0,0,14.813-5.6q.324-.223.642-.454c1.22-.888,1.381-.876,2.625.026a32.19,32.19,0,0,0,15.318,6.018c1.372.164,1.648.468,1.648,1.878,0,1.335,0,2.671,0,4.669M36.4,199.044c0,2.249-.076,4.539.014,6.823a22.882,22.882,0,0,0,8.219,17.057,41.873,41.873,0,0,0,7.338,4.539.962.962,0,0,0,.771-.075c1.261-.672,2.507-1.371,3.746-2.082a23.46,23.46,0,0,0,9.088-9.457c2.88-5.337,2.675-11.1,2.513-16.9a4.928,4.928,0,0,0-.484-.122,34.391,34.391,0,0,1-14.792-5.892.812.812,0,0,0-1.115.035,32.785,32.785,0,0,1-9.661,4.685c-1.823.53-3.689.914-5.637,1.389" transform="translate(-29.065 -162.623)" fill="#1a76b7"/>
        <rect id="Rectángulo_57630" data-name="Rectángulo 57630" width="2.374" height="2.322" transform="translate(34.227 37.912)" fill="#1a76b7"/>
        <rect id="Rectángulo_57631" data-name="Rectángulo 57631" width="2.354" height="2.351" transform="translate(9.811 37.886)" fill="#1a76b7"/>
        <rect id="Rectángulo_57632" data-name="Rectángulo 57632" width="2.336" height="2.358" transform="translate(12.262 50.091)" fill="#1a76b7"/>
        <rect id="Rectángulo_57633" data-name="Rectángulo 57633" width="2.347" height="2.36" transform="translate(31.814 50.096)" fill="#1a76b7"/>
        <rect id="Rectángulo_57634" data-name="Rectángulo 57634" width="2.344" height="2.352" transform="translate(22.055 59.853)" fill="#1a76b7"/>
        <rect id="Rectángulo_57635" data-name="Rectángulo 57635" width="2.355" height="2.343" transform="translate(22.039 32.979)" fill="#1a76b7"/>
      </g>
    </g>
  </g>
</svg>
