<svg xmlns="http://www.w3.org/2000/svg" xmlns:xlink="http://www.w3.org/1999/xlink" width="93" height="94" viewBox="0 0 93 94">
  <defs>
    <clipPath id="clip-path">
      <rect id="Rectángulo_57640" data-name="Rectángulo 57640" width="55.813" height="49.928" fill="#fff"/>
    </clipPath>
  </defs>
  <g id="Grupo_179390" data-name="Grupo 179390" transform="translate(0.275 -0.334)">
    <ellipse id="Elipse_4870" data-name="Elipse 4870" cx="46.5" cy="47" rx="46.5" ry="47" transform="translate(-0.275 0.334)" fill="#43a99b"/>
    <g id="Grupo_179403" data-name="Grupo 179403" transform="translate(18.649 23.113)">
      <g id="Grupo_179402" data-name="Grupo 179402" clip-path="url(#clip-path)">
        <path id="Trazado_228353" data-name="Trazado 228353" d="M55.813,5.35A6.681,6.681,0,0,1,54.54,8.136a5.526,5.526,0,0,1-8.492.116l-.255-.293a5.61,5.61,0,0,1-8.938,0,5.6,5.6,0,0,1-4.466,2.219,5.545,5.545,0,0,1-4.47-2.221,5.61,5.61,0,0,1-8.939,0,5.594,5.594,0,0,1-4.47,2.219A5.509,5.509,0,0,1,10.1,8.027,15.967,15.967,0,0,1,8.41,9.381,5.548,5.548,0,0,1,.015,4.753C-.009,3.591,0,2.429.012,1.266A1.132,1.132,0,0,1,1.259.01c.091,0,.182,0,.272,0Q27.9.009,54.269,0a1.557,1.557,0,0,1,1.544.772ZM2.219,2.213c0,.962-.067,1.889.015,2.8A3.322,3.322,0,0,0,5.01,7.96,3.36,3.36,0,0,0,8.648,5.985c.526-1.214.218-2.494.305-3.772Zm8.937,0c0,.96-.067,1.887.015,2.8A3.323,3.323,0,0,0,13.945,7.96a3.361,3.361,0,0,0,3.64-1.974c.527-1.214.217-2.495.308-3.773ZM26.8,2.227H20.079c0,.905-.05,1.777.01,2.641a3.361,3.361,0,0,0,6.705,0c.06-.864.01-1.736.01-2.643M29.045,2.2a23.435,23.435,0,0,0,.022,2.912A3.123,3.123,0,0,0,31.6,7.9a3.193,3.193,0,0,0,3.433-1.21c1.086-1.366.627-2.959.721-4.491Zm15.634.029H37.954c0,.907-.05,1.779.01,2.643a3.361,3.361,0,0,0,6.705,0c.06-.864.01-1.735.01-2.639m8.928,0h-6.72c0,.894-.044,1.748.009,2.6a3.359,3.359,0,0,0,6.7.136c.078-.9.014-1.8.014-2.732" transform="translate(0 0)" fill="#fff"/>
        <path id="Trazado_228354" data-name="Trazado 228354" d="M19.041,142.543c-1.005-.471-1.436-1.195-1.083-1.989a2.328,2.328,0,0,1,.8-.912c1.457-.988,2.939-1.938,4.424-2.885a.724.724,0,0,0,.385-.7c-.019-1.013-.007-2.027-.007-3.1H3.8c-2.423,0-3.724-1.307-3.724-3.741q0-11.852,0-23.7c0-.995.368-1.522,1.07-1.538.719-.016,1.109.53,1.109,1.553q0,11.852,0,23.7c0,1.213.337,1.546,1.562,1.546q16.865,0,33.731,0a3.3,3.3,0,0,1,.756.058,1.062,1.062,0,0,1,0,2.059,2.7,2.7,0,0,1-.647.058c-1.544,0-3.088,0-4.632,0H32.4c0,1.148-.016,2.234.017,3.319,0,.163.206.365.367.472q2.155,1.43,4.333,2.826a1.681,1.681,0,0,1,.986,1.564,1.6,1.6,0,0,1-1.183,1.41Zm2.637-2.211h12.6c-1.193-.777-2.275-1.5-3.375-2.191a1.353,1.353,0,0,1-.694-1.261c.012-.817,0-1.634,0-2.451v-1.443H25.745c0,.975,0,1.917,0,2.858,0,2.083.1,1.756-1.516,2.824-.813.536-1.631,1.064-2.551,1.664" transform="translate(-0.068 -92.615)" fill="#fff"/>
        <path id="Trazado_228355" data-name="Trazado 228355" d="M427.419,130.274a3.325,3.325,0,0,1-1.506,2.169,4.864,4.864,0,0,1-1.9.531c-1.849.07-3.7.029-5.554.023-.814,0-1.291-.408-1.3-1.075-.007-.69.477-1.1,1.327-1.1,1.779,0,3.558,0,5.337,0,1.033,0,1.415-.383,1.415-1.417q0-11.871,0-23.742c0-.182-.009-.364.006-.544a1.07,1.07,0,0,1,.8-1.046,1.031,1.031,0,0,1,1.213.493c.049.072.106.139.16.208Z" transform="translate(-371.607 -92.662)" fill="#fff"/>
        <path id="Trazado_228356" data-name="Trazado 228356" d="M56.984,129.969c-.479,0-.915.011-1.349,0a1.09,1.09,0,1,1-.019-2.172c.689-.018,1.38-.012,2.07,0a1.13,1.13,0,0,1,1.231.931c.207.695.417,1.39.573,2.1.085.385.261.466.629.466q7.87-.019,15.74-.008c.163,0,.327-.005.49,0a1.08,1.08,0,0,1,1.081,1.4q-1.242,5.126-2.51,10.245c-.188.758-.528,1-1.329,1q-5.773,0-11.547,0c-.992,0-1.269-.213-1.534-1.177q-1.694-6.16-3.387-12.319c-.038-.139-.082-.277-.138-.463m3.239,3.507,2.263,8.231h10.5L75,133.476Z" transform="translate(-48.496 -113.829)" fill="#fff"/>
        <path id="Trazado_228357" data-name="Trazado 228357" d="M310.1,245.556c1.705,0,3.411-.025,5.116.005a3.253,3.253,0,0,1,2.839,4.954,3.056,3.056,0,0,1-2.7,1.563c-3.537.029-7.076.042-10.613,0a3.227,3.227,0,0,1-3.19-3.265,3.26,3.26,0,0,1,3.273-3.247c1.759-.033,3.519-.007,5.279-.008m-.077,4.358c1.707,0,3.414.008,5.121,0a1.116,1.116,0,0,0,1.214-1.063,1.131,1.131,0,0,0-1.224-1.111c-.091,0-.182,0-.272,0q-4.821,0-9.643,0a2.61,2.61,0,0,0-.751.084.983.983,0,0,0-.726.98.994.994,0,0,0,.736,1.028,2.379,2.379,0,0,0,.7.081c1.616.007,3.232,0,4.849,0" transform="translate(-268.62 -218.733)" fill="#fff"/>
        <path id="Trazado_228358" data-name="Trazado 228358" d="M310.137,205.7h6.92a3.755,3.755,0,0,1,.544.019,1.075,1.075,0,0,1,0,2.141,3.755,3.755,0,0,1-.544.019H303c-.884-.005-1.409-.412-1.409-1.09s.526-1.088,1.41-1.089q3.569,0,7.138,0" transform="translate(-268.657 -183.234)" fill="#fff"/>
        <path id="Trazado_228359" data-name="Trazado 228359" d="M351.349,167.92c-1.614,0-3.229.005-4.843,0a1.113,1.113,0,0,1-1.221-.857,1.08,1.08,0,0,1,1.142-1.314c.725-.023,1.451-.006,2.177-.006h7.292c.145,0,.291-.006.435,0a1.118,1.118,0,0,1,1.147,1.075,1.1,1.1,0,0,1-1.176,1.1c-1.65.015-3.3,0-4.952.005" transform="translate(-307.558 -147.637)" fill="#fff"/>
        <path id="Trazado_228360" data-name="Trazado 228360" d="M120.087,287.08a1.082,1.082,0,0,1-2.164.017,1.082,1.082,0,0,1,2.164-.017" transform="translate(-105.046 -254.781)" fill="#fff"/>
        <path id="Trazado_228361" data-name="Trazado 228361" d="M205.85,288.156a1.089,1.089,0,0,1-1.092-1.059,1.082,1.082,0,0,1,2.164-.018,1.09,1.09,0,0,1-1.073,1.077" transform="translate(-182.399 -254.781)" fill="#fff"/>
        <path id="Trazado_228362" data-name="Trazado 228362" d="M301.584,166.906a1.082,1.082,0,1,1,1.037,1.125,1.122,1.122,0,0,1-1.037-1.125" transform="translate(-268.651 -147.756)" fill="#fff"/>
        <path id="Trazado_228363" data-name="Trazado 228363" d="M381.608,350.6a1.081,1.081,0,1,1-1.071-1.091,1.125,1.125,0,0,1,1.071,1.091" transform="translate(-338.012 -311.346)" fill="#fff"/>
      </g>
    </g>
  </g>
</svg>
