<svg xmlns="http://www.w3.org/2000/svg" xmlns:xlink="http://www.w3.org/1999/xlink" width="93" height="94" viewBox="0 0 93 94">
  <defs>
    <clipPath id="clip-path">
      <rect id="Rectángulo_57642" data-name="Rectángulo 57642" width="57.211" height="60.548" fill="#fff"/>
    </clipPath>
  </defs>
  <g id="Grupo_179393" data-name="Grupo 179393" transform="translate(0.275 -0.334)">
    <ellipse id="Elipse_4870" data-name="Elipse 4870" cx="46.5" cy="47" rx="46.5" ry="47" transform="translate(-0.275 0.334)" fill="#7f4fc7"/>
    <g id="Grupo_179407" data-name="Grupo 179407" transform="translate(17.724 16.611)">
      <g id="Grupo_179406" data-name="Grupo 179406" clip-path="url(#clip-path)">
        <path id="Trazado_228375" data-name="Trazado 228375" d="M36.038,60.549H35.21c-.43-.332-.884-.637-1.283-1a23.421,23.421,0,0,1-1.666-1.672.848.848,0,0,0-.975-.261,24.041,24.041,0,0,1-11.907,0,.944.944,0,0,0-1.021.3c-.944.9-1.931,1.764-2.9,2.641h-.828a5.412,5.412,0,0,1-.925-.608Q7.123,53.389.569,46.811a1.724,1.724,0,0,1,.019-2.576c.425-.439.844-.887,1.3-1.291a.752.752,0,0,0,.225-.965,24.314,24.314,0,0,1-.841-13.731A24.677,24.677,0,0,1,31.7,9.871c.961.261,1.9.589,2.886.9,0-.257,0-.472,0-.687a19.1,19.1,0,0,1,1.1-6.787,1.443,1.443,0,0,1,1.794-1.051,3.514,3.514,0,0,0,2.2-.2c.876-.351,1.748-.721,2.593-1.14A7.623,7.623,0,0,1,49.425.883c.862.429,1.753.8,2.647,1.164a3.521,3.521,0,0,0,2.2.194,1.419,1.419,0,0,1,1.759,1.012,13.387,13.387,0,0,1,.58,1.981c.24,1.313.407,2.64.6,3.961v1.42c-.174,1.146-.272,2.31-.537,3.435a17.573,17.573,0,0,1-7.724,10.777.63.63,0,0,0-.3.894,23.5,23.5,0,0,1,1.328,7.234,24.044,24.044,0,0,1-1.47,9.1.644.644,0,0,0,.186.816q.762.7,1.462,1.464a1.676,1.676,0,0,1,.027,2.358c-1.748,1.792-3.525,3.555-5.305,5.316A.848.848,0,0,1,43.613,52a.9.9,0,0,1,.138-1.352q1.979-1.993,3.972-3.973c.372-.37.761-.724,1.118-1.062l-4.587-4.6-13.093,13.1L35.745,58.7c.286-.3.606-.647.938-.981q1.94-1.949,3.889-3.889a.9.9,0,0,1,1.352-.137c.4.381.361.9-.11,1.4-.1.1-.195.2-.292.293-1.408,1.408-2.8,2.827-4.23,4.217a12.11,12.11,0,0,1-1.253.95M31.893,50.492,41.178,41.2l-1.32-1.412c-.49.514-.961,1.044-1.471,1.533a.851.851,0,0,1-1.268-.013.868.868,0,0,1,.02-1.227c.1-.12.22-.226.332-.337q2.864-2.866,5.727-5.734a3.417,3.417,0,0,0,.566-.676,1.61,1.61,0,0,0-.037-1.789,1.5,1.5,0,0,0-1.642-.68,3.358,3.358,0,0,0-.977.508.855.855,0,0,1-1.179-.1.841.841,0,0,1-.067-1.135c.075-.115.177-.213.253-.327a1.631,1.631,0,0,0-1.232-2.579,2.926,2.926,0,0,0-1.332.494.921.921,0,0,1-1.234-.069.825.825,0,0,1-.034-1.177c.071-.094.15-.183.216-.281a1.657,1.657,0,0,0-2.3-2.316c-.147.1-.274.228-.427.316a.731.731,0,0,1-1.053-.168,1.875,1.875,0,0,1-.13-1.024c.01-.165.226-.311.332-.477a1.643,1.643,0,0,0-.262-2.106,1.526,1.526,0,0,0-2.055-.145c-1.042.982-1.992,2.059-3,3.115,1.067,1.052,2.379,2.051,2.186,3.892a3.447,3.447,0,0,1-2.967,3.179c.075,3.307-1.4,4.542-4.815,4.06a3.507,3.507,0,0,1-1.976,2.352,3.675,3.675,0,0,1-3.065-.1c-.92,2.269-2.556,3.031-4.789,2.279-.128-.043-.344-.059-.421.014-.787.76-1.553,1.541-2.271,2.263l9.1,9.107c.111-.1.256-.232.392-.367,1.311-1.31,2.646-2.6,3.926-3.937a8.227,8.227,0,0,1,6.965-2.676,7.391,7.391,0,0,0,4.354-.775.844.844,0,0,1,1.209.362.855.855,0,0,1-.411,1.2,9.459,9.459,0,0,1-1.177.544,9.978,9.978,0,0,1-4.374.428,5.871,5.871,0,0,0-2.5.326l4.915,4.939m6.744-25.124A3.624,3.624,0,0,1,42.249,29c.015.012.029.033.046.036a1.319,1.319,0,0,0,.175.023,3.237,3.237,0,0,1,3.078,2.188,3.409,3.409,0,0,1-.83,3.76c-.3.314-.611.615-.918.922l-2.5,2.491,1.392,1.491c1.261-1.1,1.979-1.077,3.181.134.342.345.663.71,1.024,1.1,1.732-3.7,1.665-12.292-.055-15-.83.373-1.108.411-1.683.107-5.3-2.8-9.024-6.859-10.243-12.9a.812.812,0,0,0-.529-.687,22.408,22.408,0,0,0-18.09.012A22.788,22.788,0,0,0,2.817,37.79c.193,1.1.523,2.183.79,3.273l.2.039c.317-.348.622-.709.953-1.043,1.248-1.259,1.926-1.27,3.25-.073a.441.441,0,0,0,.1.064l2.43-2.423c-.764-.732-1.6-1.456-2.346-2.262a3.429,3.429,0,0,1,1.336-5.544l.5-.187a3.446,3.446,0,0,1,.4-3.3,3.551,3.551,0,0,1,2.964-1.47,3.53,3.53,0,0,1,1.035-2.6,3.724,3.724,0,0,1,2.554-1.022,3.38,3.38,0,0,1,2.432-3.387,13.712,13.712,0,0,1,3.1-.514c1.473-.085,2.955-.019,4.433-.022a3.379,3.379,0,0,1,2.575,1.12c.077.082.164.154.246.231a3.413,3.413,0,0,1,3.522.023A3.527,3.527,0,0,1,35,21.779c2.378.328,3.1,1.053,3.636,3.59M37.323,4.049c-.05.134-.087.222-.117.312a17.122,17.122,0,0,0-.515,8.87c1.093,5.217,4.361,8.745,8.913,11.229a.717.717,0,0,0,.582-.025,18.72,18.72,0,0,0,4.892-3.677,15.7,15.7,0,0,0,4.05-13.93c-.149-.938-.428-1.856-.642-2.761a6.09,6.09,0,0,1-3.466-.526A10.554,10.554,0,0,1,49.564,2.9a7.016,7.016,0,0,0-7.5.034,7.051,7.051,0,0,1-4.741,1.119M6.446,41.059,1.956,45.527,15.028,58.613l4.495-4.473L6.446,41.059M20.312,56.018a22.727,22.727,0,0,0,10.061-.012c-.646-.635-1.392-1.224-1.082-2.1a10.64,10.64,0,0,1,1.254-2.033L25.2,46.523l-5.214,5.4c1.956,1.65,1.8,2.627.325,4.1M17.036,23.025a1.778,1.778,0,0,0-1.7,1.012,1.615,1.615,0,0,0,.37,1.9q3.252,3.268,6.522,6.519a1.644,1.644,0,0,0,2.385.025,1.661,1.661,0,0,0-.05-2.387q-3.243-3.277-6.526-6.514a3.761,3.761,0,0,0-1-.556m-3.747,3.534a1.922,1.922,0,0,0-1.566,1.092,1.586,1.586,0,0,0,.37,1.9q2.64,2.663,5.3,5.3A1.667,1.667,0,1,0,19.74,32.49c-1.744-1.764-3.491-3.524-5.269-5.253a5.411,5.411,0,0,0-1.182-.677M20.1,19.528a1.556,1.556,0,0,0-.967,2.529c2.026,2.148,4.142,4.214,6.259,6.274a1.559,1.559,0,0,0,1.882.091,1.53,1.53,0,0,0,.715-1.683,2.417,2.417,0,0,0-.48-.921,3.765,3.765,0,0,0-3.482-1.67,3.763,3.763,0,0,1-3.79-3.109,12.477,12.477,0,0,1-.137-1.51M10.764,31.279A1.919,1.919,0,0,0,9.21,32.385a1.578,1.578,0,0,0,.347,1.849q1.379,1.416,2.792,2.8a1.667,1.667,0,1,0,2.365-2.341c-.9-.931-1.811-1.863-2.762-2.744a5.729,5.729,0,0,0-1.187-.668m17.63-11.385a1.491,1.491,0,0,0-1.284-.785c-1.537-.017-3.075-.023-4.612.007a.7.7,0,0,0-.536.4,2.464,2.464,0,0,0,.488,2.114,3.953,3.953,0,0,0,3.423.761.51.51,0,0,0,.14-.106c.791-.792,1.58-1.585,2.381-2.389" transform="translate(0 -0.001)" fill="#fff"/>
        <path id="Trazado_228376" data-name="Trazado 228376" d="M327.832,49.408c.006-3.973,2.47-6.926,5.758-7.488A6.988,6.988,0,0,1,341.42,46.4a1.537,1.537,0,0,1,.026,1.008.843.843,0,0,1-1.49.043,4.58,4.58,0,0,1-.274-.652,5.246,5.246,0,1,0-.217,4.507c.1-.191.182-.394.291-.58a.875.875,0,0,1,1.169-.373.831.831,0,0,1,.42,1.1,6.386,6.386,0,0,1-2.075,2.824,6.729,6.729,0,0,1-7.383.892,6.636,6.636,0,0,1-4.055-5.768" transform="translate(-288.975 -36.858)" fill="#fff"/>
        <path id="Trazado_228377" data-name="Trazado 228377" d="M358.1,83.54c.932-.94,1.8-1.821,2.674-2.7.3-.3.685-.489,1.054-.219a1.337,1.337,0,0,1,.489.789,1.026,1.026,0,0,1-.331.709c-1.039,1.073-2.1,2.128-3.164,3.176a.905.905,0,0,1-1.442,0q-1.18-1.156-2.336-2.336a.9.9,0,0,1-.1-1.353.884.884,0,0,1,1.35.108c.589.578,1.159,1.174,1.8,1.827" transform="translate(-312.65 -70.953)" fill="#fff"/>
      </g>
    </g>
  </g>
</svg>
