<svg xmlns="http://www.w3.org/2000/svg" xmlns:xlink="http://www.w3.org/1999/xlink" width="93" height="94" viewBox="0 0 93 94">
  <defs>
    <clipPath id="clip-path">
      <rect id="Rectángulo_57643" data-name="Rectángulo 57643" width="62.27" height="62.209" transform="translate(0 0)" fill="#fff"/>
    </clipPath>
  </defs>
  <g id="Grupo_179394" data-name="Grupo 179394" transform="translate(0.275 -0.334)">
    <ellipse id="Elipse_4870" data-name="Elipse 4870" cx="46.5" cy="47" rx="46.5" ry="47" transform="translate(-0.275 0.334)" fill="#43a99b"/>
    <g id="Grupo_179409" data-name="Grupo 179409" transform="translate(16.35 13.892)">
      <g id="Grupo_179408" data-name="Grupo 179408" transform="translate(0 -0.003)" clip-path="url(#clip-path)">
        <path id="Trazado_228378" data-name="Trazado 228378" d="M16.572,234.728l4.084,32.682h-.364c-1.139,0-2.278-.007-3.416,0a3.714,3.714,0,0,1-1.953-.479,1.473,1.473,0,0,0-.146-.064v6.775h6.588c0-.608,0-1.2,0-1.792a1.945,1.945,0,0,1,2.087-2.074c1.214,0,2.429,0,3.725,0a3.784,3.784,0,0,1,.38-4.965,9.653,9.653,0,0,1-5.145-7.475,9.339,9.339,0,0,1,2.168-7.355,9.721,9.721,0,1,1,13.045,14.181l7.678,2.066c-.036-.78-.04-1.527-.112-2.267a8.21,8.21,0,0,1,.347-3.144,18.081,18.081,0,0,1,2.437-5.354c.4-.574.9-1.083,1.31-1.575A23.078,23.078,0,0,1,47.831,252a8.2,8.2,0,0,1-1.134-5.592,7.831,7.831,0,0,1,2.238-4.644,6.02,6.02,0,0,1,8.926.2,8.542,8.542,0,0,1-.112,11.4.24.24,0,0,0-.027.063c.334.127.68.229,1,.385a5.706,5.706,0,0,1,3.434,5.275c.043,1.358,0,2.718.013,4.077a1.681,1.681,0,0,0,.1.406,5.489,5.489,0,0,0-.1.747q-.008,9.374,0,18.748c0,.093-.009.186-.015.3H60.217V267.237l-.069-.025c-.052.081-.106.161-.156.243-1.41,2.31-2.814,4.623-4.233,6.927a6.492,6.492,0,0,1-1.533,1.733,4.051,4.051,0,0,1-3.768.69l-2.7-.747.362,7.266-1.935.1c-.02-.283-.044-.556-.057-.829-.114-2.265-.229-4.529-.332-6.795a.348.348,0,0,0-.31-.383c-1.384-.373-2.764-.764-4.145-1.148-.015,0-.035.006-.074.014a3.354,3.354,0,0,1,1.255,1.614,3.71,3.71,0,0,1,.2,1.033c.029.839.009,1.68.009,2.55h-.961v3.879h-1.95v-3.855H2.936v3.845H.994V279.5H0a16.208,16.208,0,0,1,.2-3.634,2.612,2.612,0,0,1,2.282-2.054,15.719,15.719,0,0,1,1.941-.142c.211-.009.319-.05.383-.272q1.245-4.326,2.508-8.647,1.708-5.864,3.419-11.728c.227-.78.458-1.56.672-2.344a1.281,1.281,0,0,0,.01-.481q-.6-4.84-1.207-9.68c-.076-.607-.164-1.214-.226-1.822a3.459,3.459,0,0,1,3.15-3.948c1.126-.106,2.271-.019,3.437-.019m20.443,36.316c.172.051.315.1.46.137l8.316,2.3c1.786.494,3.572.993,5.361,1.478a2.053,2.053,0,0,0,2.084-.566,5.173,5.173,0,0,0,.791-.941q3.083-5.007,6.137-10.032a.375.375,0,0,0,.062-.183c0-1.406,0-2.812-.019-4.218a3.849,3.849,0,0,0-2.529-3.537,10.392,10.392,0,0,0-3.612-.219c-.41,0-.82.041-1.23.035-.534-.007-1.069-.027-1.6-.07a1.057,1.057,0,0,0-.934.4c-.119.137-.248.266-.356.412a17.342,17.342,0,0,0-2.342,4.609A6.617,6.617,0,0,0,47.1,263c.028,1.176.115,2.35.165,3.526a.282.282,0,0,0,.257.306c.621.157,1.241.318,1.854.5a.3.3,0,0,0,.424-.18q2.2-3.963,4.409-7.918c.25-.449.5-.9.764-1.362l1.7.956c-.526.943-1.034,1.852-1.541,2.762q-2.2,3.945-4.4,7.892c-.07.126-.126.206-.307.157q-4.9-1.329-9.8-2.642c-.688-.185-1.377-.368-2.1-.562a3.767,3.767,0,0,1-1.516,4.612m-3.35-7.57.01.095a4.937,4.937,0,0,0,1.17-.161,7.748,7.748,0,1,0-5.879-.1,3.99,3.99,0,0,0,2.3.4c.79-.131,1.6-.159,2.4-.232m-15.226,1.963c-.072-.594-.14-1.162-.211-1.73q-.534-4.269-1.069-8.538-.39-3.116-.78-6.233-.375-2.988-.75-5.976-.38-3.046-.751-6.092c-.021-.176-.1-.219-.26-.215-.344.009-.689,0-1.033,0a1.6,1.6,0,0,0-1.661,1.9q.447,3.557.891,7.115.5,4,1,8,.326,2.6.654,5.208c.215,1.727.42,3.455.642,5.18a1.518,1.518,0,0,0,1.367,1.373c.636.046,1.278.01,1.96.01M48.56,247.574a6.3,6.3,0,0,0,1.632,4.37,4.086,4.086,0,0,0,6.09.134,6.579,6.579,0,0,0,.082-8.864,4.1,4.1,0,0,0-6.228.113,6.32,6.32,0,0,0-1.575,4.248M40.8,277.528a4.9,4.9,0,0,0-.076-.819,1.528,1.528,0,0,0-1.624-1.094q-4.895,0-9.789,0-11.914,0-23.828,0c-.775,0-1.551,0-2.325.029-.428.016-.88.1-1.024.581a10.6,10.6,0,0,0-.225,1.305ZM6.766,273.643h6.047v-.278q0-5.022,0-10.045c0-.134-.012-.268-.026-.4q-.3-3.011-.609-6.021c-.041-.406-.084-.812-.126-1.218h-.057L6.766,273.643m26.294-3.477a4.6,4.6,0,0,0,2.984-.856,1.717,1.717,0,0,0,.8-1.615,2.3,2.3,0,0,0-.978-1.591,3.406,3.406,0,0,0-2.22-.633c-1.247.076-2.492.215-3.73.386a2.816,2.816,0,0,0-1.087.465,1.791,1.791,0,0,0-.069,2.319,6.2,6.2,0,0,0,.584.458,7.655,7.655,0,0,0,3.716,1.068m.875,1.919c-.393,0-.881.028-1.365-.008s-.982-.144-1.475-.208a10.84,10.84,0,0,0-1.3-.134c-2.047-.014-4.095-.006-6.142-.006h-.313v1.912H38.8a.347.347,0,0,0-.187-.119c-1.445-.4-2.892-.8-4.336-1.208a1.64,1.64,0,0,1-.346-.229" transform="translate(0 -221.219)" fill="#fff"/>
        <path id="Trazado_228379" data-name="Trazado 228379" d="M365.8,21.36a10.682,10.682,0,1,1,10.7-10.549A10.708,10.708,0,0,1,365.8,21.36m5.06-17.771a8.719,8.719,0,0,0-11.693,12.762,8.714,8.714,0,0,0,11.668,1.468,8.575,8.575,0,0,0,3.488-5.191,7.735,7.735,0,0,0-.072-3.962c-.057.027-.075.074-.107.109q-3.1,3.4-6.209,6.8a2.005,2.005,0,0,1-3.21.1q-2.747-2.753-5.494-5.505c-.152-.152-.321-.287-.44-.393l4.148-4.156,3.3,3.313,4.625-5.349M366.3,14.5c.063-.084.093-.133.132-.175L370.844,9.5c.832-.91,1.666-1.818,2.493-2.733.065-.072.143-.227.11-.278-.343-.545-.707-1.077-1.087-1.644l-6.028,6.97-3.412-3.446-1.4,1.382L366.3,14.5" transform="translate(-334.729 0.003)" fill="#fff"/>
        <path id="Trazado_228380" data-name="Trazado 228380" d="M501.488,508.838v-.976h1.94v.944h2.41v1.947h-.327c-1.129,0-2.258,0-3.386,0a1.027,1.027,0,0,0-1.018.56.96.96,0,0,0,.822,1.374c.458.022.921-.011,1.375.038a2.91,2.91,0,0,1,.529,5.665c-.126.04-.254.075-.4.117v.97h-1.944v-.931h-2.4v-1.949c.094,0,.2-.013.3-.013,1.186,0,2.372,0,3.559,0a.966.966,0,1,0,.009-1.933c-.3-.009-.593-.011-.89,0a2.706,2.706,0,0,1-1.511-.372,2.92,2.92,0,0,1,.622-5.342c.09-.029.183-.051.314-.087" transform="translate(-470.414 -478.703)" fill="#fff"/>
      </g>
    </g>
  </g>
</svg>
