<svg id="Grupo_179440" data-name="Grupo 179440" xmlns="http://www.w3.org/2000/svg" xmlns:xlink="http://www.w3.org/1999/xlink" width="136.1" height="136.125" viewBox="0 0 136.1 136.125">
  <defs>
    <clipPath id="clip-path">
      <rect id="Rectángulo_57722" data-name="Rectángulo 57722" width="136.1" height="136.124" fill="none"/>
    </clipPath>
    <linearGradient id="linear-gradient" x1="0.5" x2="0.5" y2="1" gradientUnits="objectBoundingBox">
      <stop offset="0" stop-color="#f5f5f5"/>
      <stop offset="0.25" stop-color="#f5f5f5"/>
      <stop offset="1" stop-color="#a7b3cf"/>
    </linearGradient>
    <linearGradient id="linear-gradient-2" x1="0.5" x2="0.5" y2="1" gradientUnits="objectBoundingBox">
      <stop offset="0" stop-color="#fdbe41"/>
      <stop offset="1" stop-color="#d09f40"/>
    </linearGradient>
    <linearGradient id="linear-gradient-4" x1="0.5" x2="0.5" y2="1" gradientUnits="objectBoundingBox">
      <stop offset="0" stop-color="#2a9d8d"/>
      <stop offset="1" stop-color="#43a99b"/>
    </linearGradient>
  </defs>
  <g id="Grupo_179439" data-name="Grupo 179439" clip-path="url(#clip-path)">
    <path id="Trazado_228437" data-name="Trazado 228437" d="M136.1,126.482v9.642H9.644a4.32,4.32,0,0,0-.635-.259,11.269,11.269,0,0,1-9-11.218q-.024-56.563,0-113.127A11.258,11.258,0,0,1,11.5.015Q43.529-.024,75.563.008A11.024,11.024,0,0,1,83.61,3.293q11,10.95,21.951,21.951a11.18,11.18,0,0,1,3.32,8.179v5.021c1.968.752,2.464,1.223,2.221,3.2-.434,3.543-1.138,7.052-1.7,10.58-.276,1.738-.486,3.487-.716,5.164.462.156.594.211.73.246a29.837,29.837,0,0,1,22.189,29.9c-.215,10.155-.05,20.318-.019,30.478a2.651,2.651,0,0,0,.535,1.765,13.132,13.132,0,0,1,3.979,6.7M95.271,31.848c-2.239,0-4.4.006-6.559,0A11.354,11.354,0,0,1,77.046,20.238c-.013-4.489,0-8.979,0-13.468,0-2.141,0-2.145-2.195-2.145q-31.326,0-62.651,0c-4.827,0-7.573,2.734-7.573,7.543q0,55.928,0,111.856c0,4.712,2.773,7.478,7.5,7.479q20.34.007,40.681,0H54.36c0-.647.033-1.072-.005-1.491a11.492,11.492,0,0,1,3.972-10.274,2.582,2.582,0,0,0,.547-1.758c.032-10.586.013-21.171.026-31.756A29.428,29.428,0,0,1,77.76,58.647c1.606-.629,3.283-1.077,5.05-1.648-.2-.521-.384-.995-.573-1.467a37.3,37.3,0,0,1-2.923-13.888c0-2.415.71-3.152,3.084-3.153q10.135-.006,20.27,0h1.594c0-1.8.022-3.4-.005-5a7.275,7.275,0,0,0-2.168-5.219Q92.363,18.551,82.642,8.826a10.778,10.778,0,0,0-.931-.729c0,3.01.146,5.806-.027,8.582-.519,8.293,2.443,11.063,10.459,10.509,1.018-.07,2.045-.009,3.128-.009ZM59.21,131.378h72.222a33.64,33.64,0,0,0-.023-3.766,5.354,5.354,0,0,0-5.622-5H117.95v-4.8h8.913c.03-.487.062-.768.063-1.049q0-15.308-.013-30.616a24.018,24.018,0,0,0-.307-3.665,24.936,24.936,0,0,0-24.411-21.115c-4.629-.062-9.26-.073-13.888.011a23.733,23.733,0,0,0-10.77,2.586C68.553,68.7,63.847,76.232,63.661,86.334c-.2,10.816-.078,21.638-.012,32.457a4.714,4.714,0,0,1-1.744,4.216c-2.8,2.126-3.179,5.057-2.694,8.371M95.368,43.223q-4.672,0-9.344,0c-1.791,0-2.093.214-1.634,1.941.941,3.536,2.034,7.033,3.161,10.516a1.736,1.736,0,0,0,1.324.887c4.246.068,8.494.058,12.741.013a1.6,1.6,0,0,0,1.234-.6,37.389,37.389,0,0,0,3.383-11.458c.1-.974-.214-1.335-1.238-1.317-3.208.056-6.418.021-9.627.02" transform="translate(0 0)"/>
    <path id="Trazado_228438" data-name="Trazado 228438" d="M106.916,43.5V38.829c-1.083,0-2.11-.061-3.128.009-8.016.553-10.978-2.216-10.459-10.509.174-2.776.028-5.572.028-8.582a10.879,10.879,0,0,1,.931.729q9.728,9.719,19.446,19.446A7.274,7.274,0,0,1,115.9,45.14c.027,1.6.005,3.2.005,5h-1.594q-10.135,0-20.269,0c-2.374,0-3.086.738-3.084,3.153a37.3,37.3,0,0,0,2.923,13.888c.188.472.37.946.573,1.467-1.766.571-3.443,1.02-5.049,1.648a29.428,29.428,0,0,0-18.86,27.579c-.013,10.586.006,21.171-.026,31.756a2.581,2.581,0,0,1-.547,1.758A11.494,11.494,0,0,0,66,141.664c.039.419.005.844.005,1.491H64.446q-20.34,0-40.681,0c-4.724,0-7.5-2.767-7.5-7.479q0-55.928,0-111.856c0-4.809,2.746-7.543,7.573-7.543q31.326,0,62.651,0c2.194,0,2.195,0,2.195,2.145,0,4.489-.01,8.979,0,13.468A11.354,11.354,0,0,0,100.357,43.5c2.16.007,4.32,0,6.559,0M86.514,54.63H48.1v-8.9H86.5V41.065H84.891q-28.282,0-56.563,0c-2.42,0-3.15.715-3.15,3.09q0,38.991,0,77.983c0,2.288.752,3.029,3.068,3.03q18.217,0,36.433,0c.456,0,.911-.048,1.367-.074v-4.68H48.1v-8.9H66.078v-4.7H48.121V72.957H75.27V59.327H86.514ZM38.872,34.313h15.87V29.8H38.872Zm-11.334,97.5v4.583h9.05v-4.583h-9.05m13.591,4.7h9.048v-4.7H41.129ZM34.32,29.84H27.538v4.513H34.32Z" transform="translate(-11.645 -11.65)" fill="url(#linear-gradient)"/>
    <path id="Trazado_228439" data-name="Trazado 228439" d="M207.946,285.886c-.485-3.315-.107-6.245,2.694-8.371a4.712,4.712,0,0,0,1.744-4.215c-.066-10.819-.186-21.642.013-32.457.186-10.1,4.891-17.633,13.876-22.366a23.731,23.731,0,0,1,10.769-2.586c4.628-.084,9.259-.073,13.888-.011a24.936,24.936,0,0,1,24.411,21.115,24.02,24.02,0,0,1,.307,3.665q.037,15.308.013,30.616c0,.281-.032.563-.062,1.049h-8.913v4.8h7.838a5.354,5.354,0,0,1,5.622,5,33.639,33.639,0,0,1,.023,3.765Zm39.612-20.029c.385-.048.619-.07.85-.108a8.215,8.215,0,0,0,6.979-8.472,8.071,8.071,0,0,0-8.179-7.579c-1.322-.007-2.645.019-3.967-.007-2.245-.045-3.673-1.312-3.7-3.242-.025-2.007,1.412-3.318,3.727-3.352,1.794-.027,3.589-.006,5.383-.006,3.466,0,3.466,0,3.352-3.465a2.774,2.774,0,0,1,0-.283c.052-.725-.281-1.016-1.006-.995-1.118.033-2.238.009-3.4.009-.052-.495-.107-.814-.116-1.134-.1-3.618-.1-3.6-3.842-3.423-.783.036-1.115.286-1.094,1.075.03,1.117.008,2.235.008,3.346-.388.075-.568.116-.75.143a8.191,8.191,0,0,0-7.173,8.3,8.081,8.081,0,0,0,8.288,7.766c1.369.006,2.74-.034,4.108.014a3.436,3.436,0,0,1,3.362,2.347c.624,2.212-.93,4.175-3.446,4.232-2.6.059-5.194.015-7.792.015-3.586,0-3.554,0-3.424,3.563.035.948.388,1.213,1.279,1.188,1.78-.051,3.563-.015,5.545-.015,0,.848.051,1.546-.012,2.234-.1,1.117.343,1.586,1.463,1.444a9.518,9.518,0,0,1,1.133-.007c2.6-.014,2.327.222,2.348-2.376,0-.369.049-.738.083-1.214" transform="translate(-148.736 -154.508)" fill="url(#linear-gradient-2)"/>
    <path id="Trazado_228440" data-name="Trazado 228440" d="M307.516,152.076c3.209,0,6.419.036,9.627-.02,1.025-.018,1.342.344,1.238,1.317A37.389,37.389,0,0,1,315,164.831a1.6,1.6,0,0,1-1.234.6c-4.247.044-8.495.055-12.741-.013a1.736,1.736,0,0,1-1.324-.888c-1.127-3.482-2.22-6.979-3.161-10.516-.459-1.726-.157-1.94,1.634-1.941q4.672,0,9.344,0" transform="translate(-212.148 -108.853)" fill="url(#linear-gradient-2)"/>
    <path id="Trazado_228441" data-name="Trazado 228441" d="M108.961,117.095v4.7H97.717v13.63H70.568v33.856H88.525v4.7H70.55v8.9H88.493v4.68c-.455.026-.911.074-1.367.074q-18.217.006-36.433,0c-2.316,0-3.068-.742-3.068-3.03q0-38.991,0-77.983c0-2.375.73-3.09,3.15-3.09q28.282,0,56.563,0h1.606v4.664h-38.4v8.9ZM65.647,135.532H52.423V169.27H65.647Zm-13.235-4.893H65.683V108.3H52.411Zm18.125.027H92.873V121.93H70.536Zm-4.85,43.463H52.409v8.738H65.686Z" transform="translate(-34.093 -74.115)"/>
    <rect id="Rectángulo_57716" data-name="Rectángulo 57716" width="15.87" height="4.513" transform="translate(27.226 18.15)"/>
    <path id="Trazado_228442" data-name="Trazado 228442" d="M55.937,422.924h9.05v4.583h-9.05Z" transform="translate(-40.044 -302.762)"/>
    <path id="Trazado_228443" data-name="Trazado 228443" d="M103.771,427.626v-4.7h9.048v4.7h-9.048Z" transform="translate(-74.287 -302.762)"/>
    <rect id="Rectángulo_57717" data-name="Rectángulo 57717" width="6.782" height="4.513" transform="translate(15.893 18.19)"/>
    <path id="Trazado_228444" data-name="Trazado 228444" d="M315.2,310.987c-.034.476-.08.845-.083,1.214-.021,2.6.249,2.362-2.348,2.376a9.524,9.524,0,0,0-1.133.007c-1.12.142-1.564-.328-1.463-1.444.062-.688.012-1.386.012-2.234-1.982,0-3.765-.035-5.545.015-.89.025-1.244-.24-1.279-1.188-.13-3.564-.162-3.563,3.424-3.563,2.6,0,5.2.044,7.792-.015,2.516-.057,4.07-2.02,3.446-4.232a3.436,3.436,0,0,0-3.362-2.347c-1.368-.048-2.739-.008-4.108-.014a8.081,8.081,0,0,1-8.288-7.766,8.191,8.191,0,0,1,7.173-8.3c.182-.027.362-.068.75-.143,0-1.111.023-2.229-.008-3.346-.021-.789.311-1.039,1.094-1.075,3.74-.174,3.737-.2,3.842,3.423.009.32.064.639.116,1.134,1.166,0,2.286.024,3.4-.009.725-.022,1.058.27,1.006.995a2.779,2.779,0,0,0,0,.283c.114,3.464.114,3.464-3.352,3.465-1.794,0-3.589-.021-5.383.006-2.315.034-3.752,1.345-3.727,3.352.024,1.93,1.452,3.2,3.7,3.242,1.322.027,2.644,0,3.967.007a8.071,8.071,0,0,1,8.179,7.579,8.215,8.215,0,0,1-6.979,8.472c-.231.037-.465.059-.85.108" transform="translate(-216.376 -199.638)"/>
    <rect id="Rectángulo_57718" data-name="Rectángulo 57718" width="13.224" height="33.738" transform="translate(18.33 61.418)" fill="#b1daf6"/>
    <rect id="Rectángulo_57719" data-name="Rectángulo 57719" width="13.271" height="22.344" transform="translate(18.319 34.181)" fill="url(#linear-gradient-4)"/>
    <rect id="Rectángulo_57720" data-name="Rectángulo 57720" width="22.337" height="8.737" transform="translate(36.444 47.816)" fill="#b1daf6"/>
    <rect id="Rectángulo_57721" data-name="Rectángulo 57721" width="13.278" height="8.738" transform="translate(18.316 100.015)" fill="#653f9f"/>
  </g>
</svg>
