<svg xmlns="http://www.w3.org/2000/svg" xmlns:xlink="http://www.w3.org/1999/xlink" width="108.419" height="108.419" viewBox="0 0 108.419 108.419">
  <defs>
    <linearGradient id="linear-gradient" x1="0.5" x2="0.5" y2="1" gradientUnits="objectBoundingBox">
      <stop offset="0" stop-color="#fdbe41"/>
      <stop offset="1" stop-color="#d09f40"/>
    </linearGradient>
  </defs>
  <g id="Grupo_179504" data-name="Grupo 179504" transform="translate(-875.058 -1332.297)">
    <circle id="Elipse_6021" data-name="Elipse 6021" cx="54.209" cy="54.209" r="54.209" transform="translate(875.058 1332.297)" fill="url(#linear-gradient)"/>
    <g id="AAV9sV.tif" transform="translate(1956.185 1292.313)">
      <g id="Grupo_157255" data-name="Grupo 157255" transform="translate(-1052.185 59.776)">
        <path id="Trazado_197560" data-name="Trazado 197560" d="M-1022.622,128.631h-5.83a5.132,5.132,0,0,0-.675-.126,38.432,38.432,0,0,1-7.984-1.288,19.989,19.989,0,0,1-8.325-4.068,6.429,6.429,0,0,1-2.329-5.108c.062-6.408.032-12.816.015-19.224a5.6,5.6,0,0,1,1.257-3.584,13.305,13.305,0,0,1,5.631-3.907c1.261-.522,2.571-.924,3.919-1.4-1.859-1.856-3.684-3.69-5.531-5.5a1.065,1.065,0,0,0-.682-.209c-1.85-.016-3.7-.006-5.551-.01a3.294,3.294,0,0,1-3.475-3.481q0-8.745,0-17.49a3.288,3.288,0,0,1,3.43-3.455q13.219,0,26.438,0a3.287,3.287,0,0,1,3.437,3.449c0,1.1,0,2.2,0,3.306,7.885-2.571,14.84-1.2,20.209,5.163,5.291,6.268,5.5,13.28,1.781,20.512.114.112.242.245.376.37,3.526,3.274,7.04,6.56,10.587,9.811a7.485,7.485,0,0,1,2.583,3.752v1.8c-.114.3-.224.592-.342.885a4.974,4.974,0,0,1-8.38,1.446c-3.5-3.726-6.962-7.486-10.441-11.232-.21-.226-.423-.449-.634-.674l-.193.071v.795c0,6.315-.022,12.631.015,18.946a5.716,5.716,0,0,1-1.607,4.217,14.179,14.179,0,0,1-2.5,2.069,28.363,28.363,0,0,1-11.494,3.733C-1020.146,128.375-1021.386,128.489-1022.622,128.631Zm-18.44-59.953v8.811h2.233V64.271h6.648V77.5h2.234V66.479h6.649v2.686c.66-.441,1.252-.8,1.794-1.22a1.065,1.065,0,0,0,.393-.7c.039-1.271.023-2.544.017-3.817-.005-1.024-.409-1.435-1.43-1.435q-13.011,0-26.023,0c-1.015,0-1.419.414-1.42,1.444q0,8.537,0,17.074c0,1.072.4,1.472,1.459,1.475,2.059.005,4.117.015,6.176-.009a1.368,1.368,0,0,1,1.082.46q2.826,2.866,5.694,5.69a3.117,3.117,0,0,0,.846.425,3.514,3.514,0,0,0,.279-.924c.028-1.665.012-3.331.015-5,0-.2.024-.4.041-.656h4.418l.265-2.213h-18V68.678Zm28.829-1.131A15.615,15.615,0,0,0-1027.759,83.1a15.616,15.616,0,0,0,15.533,15.548,15.623,15.623,0,0,0,15.561-15.59A15.615,15.615,0,0,0-1012.233,67.547Zm-33.293,35.6c0,.512.032.93-.005,1.342a4.3,4.3,0,0,0,2.06,4.126,18.3,18.3,0,0,0,3.253,1.813,37.172,37.172,0,0,0,12.337,2.556,42.093,42.093,0,0,0,15.173-1.851,15.466,15.466,0,0,0,5.719-3c1.552-1.364,1.557-3.1,1.388-5a20.835,20.835,0,0,1-8.464,4.111,44.973,44.973,0,0,1-15.116,1.257C-1035.02,108.043-1040.652,106.926-1045.527,103.149Zm0,6.647c0,.612.024,1.12,0,1.624a3.852,3.852,0,0,0,1.473,3.358,14.424,14.424,0,0,0,2.636,1.763,33.463,33.463,0,0,0,11.6,2.963,43.341,43.341,0,0,0,15.251-1.155,20.705,20.705,0,0,0,6.834-2.923c1.992-1.382,2.506-3.281,2.107-5.6-.278.219-.524.421-.779.612a22.767,22.767,0,0,1-8.714,3.731,46.377,46.377,0,0,1-15.7.844C-1036.085,114.433-1041.148,113.261-1045.527,109.8Zm39.973,6.681c-.688.489-1.263.95-1.886,1.333-4.284,2.629-9.064,3.562-13.972,4a47.169,47.169,0,0,1-11.679-.406,28.88,28.88,0,0,1-9.823-3.16c-.888-.5-1.711-1.123-2.571-1.7-.279,3.222.406,4.693,3.212,6.193a26.112,26.112,0,0,0,4.845,1.989,41.5,41.5,0,0,0,14.518,1.576,39.961,39.961,0,0,0,10.972-2.1,13.775,13.775,0,0,0,4.98-2.786,3.939,3.939,0,0,0,1.4-2.7C-1005.524,118-1005.553,117.283-1005.553,116.477Zm-21.439-23.467a12.812,12.812,0,0,1-.787-1.421.874.874,0,0,0-1.077-.586c-1.237.153-2.483.243-3.715.422a28.216,28.216,0,0,0-8.595,2.512,9.691,9.691,0,0,0-3.561,2.695,3.047,3.047,0,0,0,.063,4.171,5.983,5.983,0,0,0,1.7,1.5,33.383,33.383,0,0,0,5.088,2.289,40.746,40.746,0,0,0,14.7,1.728,39.656,39.656,0,0,0,11.247-2.132,12.861,12.861,0,0,0,5.113-2.95,13.216,13.216,0,0,0,1.034-1.38,15.921,15.921,0,0,0-2.44.544,15.748,15.748,0,0,0-1.591.426c-1.626.64-3.189,1.486-4.859,1.959a41.641,41.641,0,0,1-18.463.761,22.368,22.368,0,0,1-7.775-2.567,13.061,13.061,0,0,1-2.281-1.96.764.764,0,0,1-.007-.751,11.508,11.508,0,0,1,2.1-1.862,22.876,22.876,0,0,1,8.433-2.744C-1030.8,93.38-1028.916,93.228-1026.993,93.01Zm-13.456,5.459c5.743,3.988,18.485,4.315,25.034,2.163a.438.438,0,0,0-.116-.067,18.1,18.1,0,0,1-9.374-5.044.939.939,0,0,0-.622-.2,35.71,35.71,0,0,0-11.392,1.664C-1038.123,97.4-1039.274,97.969-1040.449,98.469Zm39.355-1.207c.505.545,1.147,1.238,1.789,1.93q4.41,4.748,8.819,9.5a2.745,2.745,0,0,0,2.585,1.01,2.631,2.631,0,0,0,2.207-1.949,2.662,2.662,0,0,0-.876-2.873q-5.608-5.216-11.221-10.427c-.143-.133-.307-.243-.462-.363l.125.207Zm-35.5-30.795V77.49h2.141V66.467Zm-8.906,11.025h2.164V70.92h-2.164Zm16.352,11.272-.881-4.514h-2.2v4.826Zm1.417-14.431a12.665,12.665,0,0,1,1.424-1.988c1.166-1.094.657-2.408.768-3.649h-2.192Z" transform="translate(1052.185 -59.776)" fill="#12263f"/>
        <path id="Trazado_197561" data-name="Trazado 197561" d="M-847.163,131.655a13.305,13.305,0,0,1,13.257,13.423A13.313,13.313,0,0,1-847.293,158.3a13.311,13.311,0,0,1-13.258-13.424A13.308,13.308,0,0,1-847.163,131.655Zm-.072,2.217a11.166,11.166,0,0,0-11.1,11.078,11.17,11.17,0,0,0,11.111,11.137,11.172,11.172,0,0,0,11.1-11.08A11.166,11.166,0,0,0-847.235,133.872Z" transform="translate(887.201 -121.658)" fill="#12263f"/>
        <path id="Trazado_197562" data-name="Trazado 197562" d="M-764.551,166.162v-2.12c3.918-.411,8.953,3.409,8.816,8.745H-757.9a6.918,6.918,0,0,0-1.983-4.649A6.862,6.862,0,0,0-764.551,166.162Z" transform="translate(804.553 -149.515)" fill="#12263f"/>
      </g>
    </g>
  </g>
</svg>
