<svg xmlns="http://www.w3.org/2000/svg" xmlns:xlink="http://www.w3.org/1999/xlink" width="108.419" height="108.419" viewBox="0 0 108.419 108.419">
  <defs>
    <linearGradient id="linear-gradient" x1="0.5" x2="0.5" y2="1" gradientUnits="objectBoundingBox">
      <stop offset="0" stop-color="#fdbe41"/>
      <stop offset="1" stop-color="#d09f40"/>
    </linearGradient>
  </defs>
  <g id="Grupo_179506" data-name="Grupo 179506" transform="translate(-1554.836 10359.803)">
    <circle id="Elipse_6216" data-name="Elipse 6216" cx="54.209" cy="54.209" r="54.209" transform="translate(1554.836 -10359.803)" fill="url(#linear-gradient)"/>
    <g id="iMqvkw" transform="translate(1983.144 -10634.732)">
      <g id="Grupo_157253" data-name="Grupo 157253" transform="translate(-405.627 301.612)">
        <path id="Trazado_197542" data-name="Trazado 197542" d="M-346.58,345.715c.519.062.868.131,1.218.142,2.789.09,2.789.087,2.789,2.8,0,.981.007,1.962,0,2.943-.03,3.133-1.837,4.987-5,5-7.95.029-15.9.011-23.85.012-9.5,0-19-.1-28.5.049-3.705.057-6.011-2.29-5.672-5.651a23.331,23.331,0,0,0,.005-3.559c-.06-1.137.426-1.622,1.534-1.591.763.021,1.527,0,2.487,0v-1.99q0-16.881,0-33.762c0-2.77,0-2.77,2.7-2.771,1.394,0,2.788,0,4.181,0,2.358.007,4.705.166,6.961-.907a8.54,8.54,0,0,1,3.033-.46c.415-.028,1.159.147,1.224.377.4,1.45,1.427.9,2.462.958,0-1.4.038-2.681-.01-3.958-.051-1.363.566-1.819,1.887-1.733a12.025,12.025,0,0,1,8.948,4.546,2.933,2.933,0,0,0,2.6,1.2c6.3-.051,12.6-.027,18.894-.023,1.982,0,2.106.122,2.106,2.12q.006,17.191,0,34.381Zm-52.764-36.2a9.16,9.16,0,0,0-.126,1.027c-.007,10.013.016,20.027-.033,30.039-.007,1.359.708,1.313,1.653,1.313q23.768-.018,47.536.017c1.259,0,1.679-.308,1.672-1.623-.052-9.755-.027-19.51-.033-29.265,0-.489-.074-.979-.12-1.553-6.247,0-12.33,0-18.414,0a6.245,6.245,0,0,0-.73.085c.248,1.275.514,2.473.709,3.683.258,1.6-.157,2.089-1.766,2.1-3.355.014-6.71-.04-10.064.025-1.412.028-1.984-.525-1.933-1.909.049-1.314.011-2.631.011-3.886h-2.084v7.954h7.554c4.418,0,4.766.49,3.426,4.806a12.708,12.708,0,0,1-15.569,8.5,12.51,12.51,0,0,1-8.834-15.177c.561-2.157,1.85-4.124,2.789-6.14Zm12.26,38.446c-5.284,0-10.488-.006-15.693.018a.944.944,0,0,0-.711.416,4.206,4.206,0,0,0,3.827,6.123q25.624,0,51.247,0a12.166,12.166,0,0,0,1.391-.053,2.311,2.311,0,0,0,2.236-2c.2-1.452.175-2.935.248-4.432H-361.1c-.3,2.767-1.192,3.564-3.9,3.565q-9.057,0-18.115,0C-385.84,351.592-386.716,350.832-387.084,347.96Zm1.734-39.658c-4.994-.019-9.519,5.067-9.45,10.457a10.67,10.67,0,0,0,10.776,10.489c5.346-.131,10.282-4.768,10.073-9.558q-4.632,0-9.273,0c-1.944,0-2.12-.174-2.125-2.123C-385.355,314.476-385.35,311.388-385.35,308.3Zm-13.932,37.562h1.688c3.561,0,7.123-.006,10.684,0,1.856,0,2.114.191,2.056,2.012-.04,1.257.432,1.579,1.621,1.57q9.135-.071,18.27,0c1.3.013,1.806-.4,1.647-1.681-.189-1.531.619-1.95,2.031-1.927,3.612.059,7.225.023,10.838.016.548,0,1.1-.049,1.675-.077v-1.761c-.531-.034-.983-.087-1.435-.087q-23.844-.006-47.689-.025C-399.192,343.906-399.77,344.238-399.282,345.863ZM-378.8,313.1h9.312c-.095-4.415-4.788-9.344-9.312-9.074Z" transform="translate(405.627 -301.612)" fill="#12263f"/>
        <path id="Trazado_197543" data-name="Trazado 197543" d="M-293.045,390.944c2.425,0,4.85-.019,7.275.005,2.514.025,4.229,1.593,4.184,3.777-.044,2.115-1.722,3.6-4.184,3.613q-7.352.037-14.7,0c-2.607-.013-4.176-1.48-4.134-3.771.04-2.2,1.612-3.6,4.134-3.621C-298,390.927-295.521,390.944-293.045,390.944Zm-.129,5.247c2.424,0,4.848-.016,7.272.007,1.157.011,2.157-.251,2.12-1.617-.034-1.277-1.023-1.479-2.1-1.476q-7.271.022-14.543,0c-1.12,0-2.049.306-2.053,1.54s.906,1.573,2.035,1.559C-298.023,396.171-295.6,396.192-293.174,396.192Z" transform="translate(335.91 -363.26)" fill="#12263f"/>
        <path id="Trazado_197544" data-name="Trazado 197544" d="M-271.61,357.8c1.342,0,2.684-.024,4.025.006a3.626,3.626,0,0,1,3.639,3.62,3.619,3.619,0,0,1-3.688,3.568q-4.025.048-8.051,0a3.471,3.471,0,0,1-3.663-3.542,3.494,3.494,0,0,1,3.713-3.649C-274.294,357.778-272.952,357.795-271.61,357.8Zm-.2,5.087c1.338,0,2.677.016,4.015,0,.978-.015,1.705-.575,1.518-1.505a2.126,2.126,0,0,0-1.432-1.4c-2.616-.146-5.245-.094-7.869-.059a1.406,1.406,0,0,0-1.572,1.517c.028,1,.679,1.443,1.634,1.453C-274.276,362.894-273.041,362.884-271.806,362.882Z" transform="translate(318.476 -340.381)" fill="#12263f"/>
      </g>
    </g>
  </g>
</svg>
