<svg xmlns="http://www.w3.org/2000/svg" xmlns:xlink="http://www.w3.org/1999/xlink" width="137.136" height="195.239" viewBox="0 0 137.136 195.239">
  <defs>
    <clipPath id="clip-path">
      <rect id="Rectángulo_52648" data-name="Rectángulo 52648" width="137.136" height="137.141" fill="#12263f"/>
    </clipPath>
    <linearGradient id="linear-gradient" x1="0.5" x2="0.5" y2="1" gradientUnits="objectBoundingBox">
      <stop offset="0" stop-color="#f5f5f5"/>
      <stop offset="0.25" stop-color="#f5f5f5"/>
      <stop offset="1" stop-color="#a7b3cf"/>
    </linearGradient>
    <clipPath id="clip-path-2">
      <rect id="Rectángulo_52657" data-name="Rectángulo 52657" width="55.298" height="55.33" fill="none"/>
    </clipPath>
  </defs>
  <g id="Grupo_179466" data-name="Grupo 179466" transform="translate(-4806.547 10792.113)">
    <g id="Grupo_179521" data-name="Grupo 179521">
      <g id="Grupo_179464" data-name="Grupo 179464" transform="translate(4806.547 -10734.015)">
        <g id="Grupo_171292" data-name="Grupo 171292" clip-path="url(#clip-path)">
          <path id="Trazado_212408" data-name="Trazado 212408" d="M118.718,81.117c-3.813,0-7.426-.008-11.04,0-1.885.006-2.653.8-2.673,2.7-.006.571,0,1.143,0,1.714v7.04h-4.479v4.415h82.1v-4.5h-4.485V90.918q0-24,0-48c0-2.2-.721-2.941-2.865-2.944q-6.286-.009-12.571,0c-2.085,0-2.83.748-2.837,2.825s0,4.152,0,6.316H149.55c-2.861,0-3.4.543-3.4,3.4,0,2.647,0,5.294,0,8.025H135.831c-2.857,0-3.4.544-3.4,3.409,0,2.646,0,5.293,0,7.887a2.957,2.957,0,0,1-.464.116c-3.524.008-7.047,0-10.57.02-1.887.008-2.666.8-2.677,2.7-.012,2.087,0,4.174,0,6.443M93.645,67.227c.15.067.233.135.316.136,2.665.014,5.331.046,8,.013a1.471,1.471,0,0,1,1.546.9,6.841,6.841,0,0,0,12.851-4.118,1.553,1.553,0,0,1,.748-1.733q4.974-3.595,9.876-7.287a1.488,1.488,0,0,1,1.978-.13,6.83,6.83,0,0,0,10.109-7.524,1.455,1.455,0,0,1,.7-1.764q4.275-3.1,8.5-6.265a1.439,1.439,0,0,1,1.753-.184,6.679,6.679,0,0,0,9.022-2.962,1.582,1.582,0,0,1,1.675-.924c3.427.03,6.854.013,10.282.013h2.493V30.831h-1.468c-3.808,0-7.617.028-11.424-.035a1.935,1.935,0,0,1-1.407-.77c-1.883-3.158-5.112-4.524-8.372-3.44a6.839,6.839,0,0,0-4.589,7.635,1.345,1.345,0,0,1-.648,1.509c-3.041,2.207-6.046,4.467-9.11,6.641a2.152,2.152,0,0,1-1.638.265c-4.926-1.479-9.2,1.647-9.289,6.781a2.322,2.322,0,0,1-.8,1.6c-3.444,2.622-6.958,5.152-10.417,7.755a1.555,1.555,0,0,1-1.881.126,6.706,6.706,0,0,0-8.769,2.756,1.973,1.973,0,0,1-2.085,1.2c-2.644-.072-5.291-.024-7.944-.024ZM178.222,35.3H182.6V30.9h-4.382ZM88.883,62.9H84.518v4.434h4.365Zm-6.74-38.926a2.277,2.277,0,1,0,2.274,2.243,2.228,2.228,0,0,0-2.274-2.243m9.131,2.3a2.277,2.277,0,1,0-2.268,2.252,2.233,2.233,0,0,0,2.268-2.252m6.857.006a2.277,2.277,0,1,0-2.273,2.246,2.233,2.233,0,0,0,2.273-2.246" transform="translate(-56.999 -17.112)" fill="#12263f"/>
          <path id="Trazado_212409" data-name="Trazado 212409" d="M0,239.569A20.361,20.361,0,0,1,3.22,232.2a15.856,15.856,0,0,1,7.248-5.347c.786-.282,1.079-.667.967-1.44a.517.517,0,0,1,0-.143A13.919,13.919,0,0,0,8.686,215a21.255,21.255,0,0,1-3.954-8.147c-1.459-7.561,4.637-15.194,12.355-15.265,5.761-.053,11.523-.026,17.285-.007a6.83,6.83,0,0,1,3.276,12.8,1.782,1.782,0,0,0-1.1,1.858c.055,3.951-.019,7.9.036,11.856a7.215,7.215,0,0,1-4.357,7.207,1.712,1.712,0,0,0-.34.246c-.025.021-.016.082-.034.2,1.142.175,2.3.281,3.429.538a17.785,17.785,0,0,1,10.038,6.132q7.175,8.706,14.285,17.465a2.674,2.674,0,0,0,2.389,1.154c3.045-.083,6.1-.187,9.139.007A38.7,38.7,0,0,0,85.137,249a2.727,2.727,0,0,0,1.405-1.368c2.353-4.982,4.682-9.977,6.914-15.014a3.317,3.317,0,0,1,3.515-2.216c10.856.066,21.713.031,32.569.034,2.771,0,3.671,1.423,2.5,3.974-4.113,8.933-8.264,17.849-12.321,26.808a14.094,14.094,0,0,0-.845,3.808c-.18,1.261-.007,2.592-.311,3.813a6.562,6.562,0,0,1-6.49,5.006q-21.713.021-43.426,0a6.528,6.528,0,0,1-6.063-3.572,1.674,1.674,0,0,0-1.773-1.014c-2,.057-4-.019-6,.026a11.565,11.565,0,0,1-9.221-4.046c-1.4-1.545-2.786-3.1-4.4-4.892v13.412H36.576v-1.446c0-5.238-.022-10.476.02-15.713a3.207,3.207,0,0,0-.912-2.408c-2.58-2.787-5.093-5.635-7.688-8.523l3.423-3.078c2.931,3.251,5.795,6.422,8.653,9.6,2.93,3.256,5.881,6.493,8.772,9.783A7.715,7.715,0,0,0,55,264.725c5.229-.027,10.458-.008,15.773-.008v-9.153c-3.51,0-6.973-.062-10.433.029a3.85,3.85,0,0,1-3.384-1.649c-4.964-6.148-9.989-12.245-15-18.354a13.685,13.685,0,0,0-10.974-5.16c-4.761-.037-9.523-.017-14.285-.007-7.209.016-12.117,4.9-12.127,12.084q-.021,14.784,0,29.569v1.778H0Zm126.686-4.576c-9.637,0-19.013-.013-28.387.044a1.856,1.856,0,0,0-1.249.993c-1.861,3.9-3.653,7.834-5.46,11.76-.391.849-.764,1.706-1.18,2.637,2.143,1.287,4.14,2.569,6.213,3.71,2.374,1.307,4.294,2.854,3.939,6.008,4.727,0,9.29.024,13.851-.044.383-.006.911-.563,1.111-.987,2.026-4.294,4-8.614,5.987-12.926,1.687-3.655,3.379-7.309,5.175-11.194M20.576,216.629c0-2.146-.044-4.23.025-6.31a4.171,4.171,0,0,1,.547-1.994c1.332-2.137,2.777-4.2,4.157-6.312a2.686,2.686,0,0,1,2.509-1.308c2.045.046,4.092.037,6.138,0a2.387,2.387,0,0,0,2.6-2.269,2.357,2.357,0,0,0-2.576-2.293c-5.52-.023-11.042-.1-16.559.025a8.282,8.282,0,0,0-7.873,10.709,31.866,31.866,0,0,0,3.062,5.764c.774,1.356,1.358,3.216,2.552,3.832,1.324.682,3.245.205,4.906.23a4.57,4.57,0,0,0,.507-.078m75.633,43a5.723,5.723,0,0,0-.729-.762c-2.8-1.693-5.6-3.382-8.425-5.043a1.627,1.627,0,0,0-1.062-.22c-3.485.772-6.96,1.589-10.475,2.4v9.007a16.266,16.266,0,0,0,2.555-1.2q3.477-2.482,6.841-5.12a3.514,3.514,0,0,1,3.183-.677c2.565.57,5.154,1.032,8.113,1.614M32,205.28c-1.031,0-1.884-.045-2.728.023a1.4,1.4,0,0,0-.908.5c-2.01,2.715-3.683,5.411-3.349,9.164.206,2.319.715,4.052,2.518,5.45a2.636,2.636,0,0,0,2.734.675,2.446,2.446,0,0,0,1.715-2.387c.045-4.412.018-8.825.018-13.422M114.283,264.8H93.714c0,.761-.036,1.426.007,2.086a2.282,2.282,0,0,0,2.349,2.372q7.926.068,15.853,0a2.285,2.285,0,0,0,2.352-2.371c.045-.659.008-1.325.008-2.087M16.057,225.737H26.821c-1.387-1.23-2.815-2.508-4.261-3.766-.307-.267-.673-.642-1.024-.655-1.824-.066-3.652-.031-5.478-.031Zm62.265,43.439H89.292c-.082-1.553-.157-2.994-.234-4.47a14.148,14.148,0,0,1-1.853-.012,5.673,5.673,0,0,0-4.669,1.53c-1.352,1.135-2.9,2.042-4.213,2.952" transform="translate(0 -136.713)" fill="#12263f"/>
          <path id="Trazado_212410" data-name="Trazado 212410" d="M171.479,0c2.545.908,4.537,2.383,5.207,5.166A7.91,7.91,0,0,1,176.893,7q.015,37.563,0,75.126a6.75,6.75,0,0,1-7.018,7.01q-43.847.01-87.694,0H81V84.575h87.744c2.973,0,3.6-.626,3.6-3.587q0-36.421,0-72.841c0-2.958-.627-3.581-3.605-3.581H63.9c-2.952,0-3.57.626-3.57,3.614q0,20.138,0,40.277v1.749H55.772V48.558c0-13.378.088-26.757-.051-40.133C55.677,4.21,57.171,1.381,61.2,0Z" transform="translate(-39.767)" fill="#12263f"/>
          <path id="Trazado_212411" data-name="Trazado 212411" d="M170.218,120.988c0-2.268-.009-4.356,0-6.443.011-1.9.79-2.688,2.677-2.7,3.524-.015,7.047-.012,10.57-.02a2.967,2.967,0,0,0,.464-.116c0-2.594,0-5.24,0-7.887,0-2.865.542-3.408,3.4-3.409h10.315c0-2.731,0-5.378,0-8.025,0-2.86.543-3.4,3.4-3.4h10.31c0-2.164-.005-4.24,0-6.316s.752-2.822,2.837-2.825q6.286-.009,12.571,0c2.144,0,2.864.744,2.865,2.944q0,24,0,48v1.575h4.485v4.5h-82.1v-4.415H156.5v-7.04c0-.571,0-1.143,0-1.714.02-1.9.788-2.7,2.673-2.7,3.613-.012,7.227,0,11.04,0m45.8,11.312H225V84.47h-8.975Zm-13.714,0h8.975V93.613h-8.975Zm-13.714,0h8.974V105.041H188.6Zm-4.728-15.793h-8.975v15.834h8.975Zm-13.725,9.13h-8.976v6.717h8.976Z" transform="translate(-108.499 -56.983)" fill="#12263f"/>
          <path id="Trazado_212412" data-name="Trazado 212412" d="M128,72.816v-4.4c2.653,0,5.3-.048,7.944.024a1.974,1.974,0,0,0,2.085-1.2,6.705,6.705,0,0,1,8.769-2.755,1.556,1.556,0,0,0,1.881-.127c3.459-2.6,6.974-5.132,10.417-7.755a2.323,2.323,0,0,0,.8-1.6c.085-5.134,4.362-8.26,9.289-6.781a2.151,2.151,0,0,0,1.638-.265c3.064-2.174,6.069-4.434,9.11-6.641a1.345,1.345,0,0,0,.648-1.509,6.839,6.839,0,0,1,4.589-7.635c3.26-1.085,6.489.281,8.372,3.44a1.935,1.935,0,0,0,1.408.77c3.807.063,7.616.035,11.424.035h1.468v4.561h-2.493c-3.427,0-6.855.017-10.282-.013a1.581,1.581,0,0,0-1.675.924,6.679,6.679,0,0,1-9.022,2.962,1.439,1.439,0,0,0-1.754.184q-4.228,3.161-8.5,6.265a1.455,1.455,0,0,0-.7,1.764,6.83,6.83,0,0,1-10.11,7.524,1.488,1.488,0,0,0-1.978.13q-4.9,3.7-9.876,7.287a1.553,1.553,0,0,0-.748,1.733,6.841,6.841,0,0,1-12.851,4.118,1.471,1.471,0,0,0-1.546-.9c-2.665.033-5.33,0-8-.013-.083,0-.165-.069-.316-.136m59.348-31.84a2.275,2.275,0,1,0-2.269-2.279,2.385,2.385,0,0,0,2.269,2.279m-20.58,16a2.275,2.275,0,1,0-2.26-2.288,2.384,2.384,0,0,0,2.26,2.288m-22.8,16a2.275,2.275,0,1,0-2.321-2.228,2.386,2.386,0,0,0,2.321,2.228" transform="translate(-91.35 -22.702)" fill="#12263f"/>
          <rect id="Rectángulo_52641" data-name="Rectángulo 52641" width="4.382" height="4.407" transform="translate(121.223 13.784)" fill="#12263f"/>
          <rect id="Rectángulo_52642" data-name="Rectángulo 52642" width="4.365" height="4.434" transform="translate(27.518 45.792)" fill="#12263f"/>
          <path id="Trazado_212413" data-name="Trazado 212413" d="M82.143,23.98a2.277,2.277,0,1,1-2.278,2.237,2.233,2.233,0,0,1,2.278-2.237" transform="translate(-56.999 -17.114)" fill="#12263f"/>
          <path id="Trazado_212414" data-name="Trazado 212414" d="M108.363,26.28a2.277,2.277,0,1,1-2.215-2.3,2.236,2.236,0,0,1,2.215,2.3" transform="translate(-74.088 -17.113)" fill="#12263f"/>
          <path id="Trazado_212415" data-name="Trazado 212415" d="M132.313,26.286a2.277,2.277,0,1,1-2.209-2.308,2.237,2.237,0,0,1,2.209,2.308" transform="translate(-91.181 -17.112)" fill="#12263f"/>
          <path id="Trazado_212416" data-name="Trazado 212416" d="M352.054,343.265c-1.8,3.886-3.488,7.539-5.175,11.194-1.99,4.311-3.961,8.632-5.987,12.926-.2.424-.728.981-1.111.987-4.561.068-9.124.044-13.851.044.355-3.154-1.565-4.7-3.939-6.008-2.074-1.141-4.07-2.423-6.214-3.71.416-.931.789-1.788,1.18-2.637,1.808-3.926,3.6-7.859,5.46-11.76a1.856,1.856,0,0,1,1.249-.993c9.375-.057,18.75-.044,28.388-.044" transform="translate(-225.368 -244.985)" fill="url(#linear-gradient)"/>
          <path id="Trazado_212419" data-name="Trazado 212419" d="M347.856,447.4c0,.762.038,1.427-.008,2.087a2.285,2.285,0,0,1-2.352,2.371q-7.926.068-15.853,0a2.282,2.282,0,0,1-2.349-2.372c-.043-.66-.007-1.324-.007-2.086Z" transform="translate(-233.573 -319.304)" fill="#43a99b"/>
          <path id="Trazado_212420" data-name="Trazado 212420" d="M273.562,451.343c1.318-.91,2.861-1.817,4.213-2.952a5.673,5.673,0,0,1,4.669-1.53,14.148,14.148,0,0,0,1.853.012c.077,1.475.153,2.917.234,4.47Z" transform="translate(-195.24 -318.88)" fill="#43a99b"/>
          <rect id="Rectángulo_52643" data-name="Rectángulo 52643" width="8.975" height="47.829" transform="translate(107.524 27.487)" fill="url(#linear-gradient)"/>
          <rect id="Rectángulo_52644" data-name="Rectángulo 52644" width="8.975" height="38.687" transform="translate(93.81 36.63)" fill="#ece5f7"/>
          <rect id="Rectángulo_52645" data-name="Rectángulo 52645" width="8.974" height="27.259" transform="translate(80.096 48.058)" fill="#eeac3a"/>
          <rect id="Rectángulo_52646" data-name="Rectángulo 52646" width="8.975" height="15.834" transform="translate(66.392 59.523)" fill="#0b67d1"/>
          <rect id="Rectángulo_52647" data-name="Rectángulo 52647" width="8.976" height="6.717" transform="translate(52.666 68.653)" fill="#f8f5fd"/>
          <path id="Trazado_212421" data-name="Trazado 212421" d="M329.629,52.488a2.275,2.275,0,1,1,2.278-2.271,2.381,2.381,0,0,1-2.278,2.271" transform="translate(-233.635 -34.214)" fill="#7f4fc7"/>
          <path id="Trazado_212422" data-name="Trazado 212422" d="M257.77,108.371a2.275,2.275,0,1,1,2.288-2.262,2.378,2.378,0,0,1-2.288,2.262" transform="translate(-182.356 -74.097)" fill="#7f4fc7"/>
          <path id="Trazado_212423" data-name="Trazado 212423" d="M177.994,164.254a2.275,2.275,0,1,1,2.227-2.323,2.38,2.38,0,0,1-2.227,2.323" transform="translate(-125.376 -113.98)" fill="#7f4fc7"/>
        </g>
      </g>
      <g id="Grupo_179465" data-name="Grupo 179465" transform="translate(4867.34 -10792.113)">
        <g id="Grupo_171294" data-name="Grupo 171294" clip-path="url(#clip-path-2)">
          <path id="Trazado_212424" data-name="Trazado 212424" d="M14.373,55.33H12.86c-.387-.134-.787-.24-1.16-.407a4.666,4.666,0,0,1-1.339-7.645c3.294-3.324,6.614-6.622,9.924-9.931.072-.072.156-.133.249-.212l.756.711,2.173-2.139h-.574q-11.1,0-22.193,0c-.232,0-.464-.028-.7-.043V0H55.3V35.707h-.614c-1.585,0-3.17.009-4.754-.007a.774.774,0,0,0-.753.385,14.217,14.217,0,0,1-3.333,3.58,14.885,14.885,0,0,1-11.2,3.043,15.063,15.063,0,0,1-6.012-2.134l-2.354,2.342,1.043.867a3.845,3.845,0,0,0-.594.385c-2.947,2.936-5.9,5.865-8.823,8.826a7.218,7.218,0,0,1-3.531,2.337M53.492,8.984H1.839V33.87H22.65c-2.576-7.283-1.218-13.553,4.927-18.362a14.444,14.444,0,0,1,16.855-.781c7.112,4.666,8.777,11.263,6.128,19.153h2.932ZM53.5,1.846H1.842V7.095H53.5ZM49.95,27.669A13.364,13.364,0,1,0,36.557,41.053,13.386,13.386,0,0,0,49.95,27.669M17.834,42.394a.152.152,0,0,0-.07.029c-2.113,2.112-4.245,4.2-6.325,6.348a2.611,2.611,0,0,0-.554,2.813,2.871,2.871,0,0,0,4.785,1.073c2.056-2.015,4.077-4.066,6.112-6.1a.737.737,0,0,0,.087-.115l-4.035-4.045m5.338,2.558,1.28-1.23-3.968-3.988-1.235,1.281,3.924,3.937m1.8-3.468,1.953-1.946-2.208-2.182-1.929,1.938,2.183,2.19" fill="#1a1818"/>
          <path id="Trazado_212425" data-name="Trazado 212425" d="M68.67,22.3H17.015V17.049H68.67ZM18.759,20.579c.541,0,1.023.013,1.5-.011.1,0,.266-.147.27-.232.025-.512.013-1.026.013-1.526H18.759Zm3.586-.04h1.736v-1.75H22.345Zm3.577-.007h1.739V18.8H25.922Z" transform="translate(-15.173 -15.203)" fill="#43a99b"/>
          <path id="Trazado_212426" data-name="Trazado 212426" d="M241.2,145.249a13.364,13.364,0,1,1-13.383-13.392A13.387,13.387,0,0,1,241.2,145.249m-13.341,11.6a11.607,11.607,0,1,0-11.636-11.533,11.611,11.611,0,0,0,11.636,11.533" transform="translate(-191.254 -117.579)" fill="#fff"/>
          <path id="Trazado_212427" data-name="Trazado 212427" d="M105.969,391.527,110,395.572a.743.743,0,0,1-.087.115c-2.035,2.037-4.056,4.087-6.112,6.1a2.871,2.871,0,0,1-4.785-1.073,2.612,2.612,0,0,1,.554-2.813c2.08-2.143,4.212-4.236,6.325-6.348a.151.151,0,0,1,.07-.03M102.4,400a.887.887,0,1,0-1.773.02.882.882,0,0,0,.9.868A.867.867,0,0,0,102.4,400" transform="translate(-88.134 -349.133)" fill="#eeac3a"/>
          <path id="Trazado_212428" data-name="Trazado 212428" d="M181.687,372.182l-3.924-3.937,1.235-1.28,3.968,3.988-1.28,1.23" transform="translate(-158.515 -327.229)" fill="#deeffb"/>
          <path id="Trazado_212429" data-name="Trazado 212429" d="M212.648,349.13l-2.183-2.19L212.394,345l2.208,2.182-1.953,1.946" transform="translate(-187.676 -307.646)" fill="#eeac3a"/>
          <path id="Trazado_212430" data-name="Trazado 212430" d="M33.161,113.354V99.139h1.771v12.414h1.75v-5.276h1.831v5.291h1.762v-7.074h1.8v7.066H43.83V102.7h1.811v8.852h1.747V100.918h1.831V111.6h1.739v1.75Z" transform="translate(-29.57 -88.405)" fill="#1a1818"/>
          <path id="Trazado_212431" data-name="Trazado 212431" d="M33.126,35.077V33.308h1.787c0,.5.013,1.014-.013,1.526,0,.085-.172.227-.27.232-.481.024-.963.011-1.5.011" transform="translate(-29.539 -29.701)" fill="#1a1818"/>
          <rect id="Rectángulo_52649" data-name="Rectángulo 52649" width="1.736" height="1.75" transform="translate(7.173 3.586)" fill="#1a1818"/>
          <rect id="Rectángulo_52650" data-name="Rectángulo 52650" width="1.739" height="1.731" transform="translate(10.749 3.597)" fill="#1a1818"/>
          <path id="Trazado_212432" data-name="Trazado 212432" d="M242.281,171.514a11.607,11.607,0,1,1,11.584-11.683,11.64,11.64,0,0,1-11.584,11.683m9.771-11.587a9.8,9.8,0,1,0-9.786,9.8,9.816,9.816,0,0,0,9.786-9.8" transform="translate(-205.671 -132.241)" fill="#1a1818"/>
          <path id="Trazado_212433" data-name="Trazado 212433" d="M117.181,462.334a.867.867,0,0,1-.872.888.882.882,0,0,1-.9-.868.887.887,0,1,1,1.773-.02" transform="translate(-102.911 -411.463)" fill="#1a1818"/>
          <path id="Trazado_212434" data-name="Trazado 212434" d="M267.017,174.674a9.8,9.8,0,1,1-9.8-9.837,9.818,9.818,0,0,1,9.8,9.837m-16.01-2.722h12.442v-1.726H251.007Zm0,7.123h12.447v-1.71H251.007Zm12.449-5.274h-1.734v1.719h1.734Zm-10.722,0h-1.722v1.717h1.722Zm3.586,0h-1.738v1.7h1.738Zm3.556,0h-1.72v1.716h1.72Z" transform="translate(-220.636 -146.989)" fill="#deeffb"/>
          <rect id="Rectángulo_52651" data-name="Rectángulo 52651" width="12.442" height="1.726" transform="translate(30.371 23.237)" fill="#1a1818"/>
          <rect id="Rectángulo_52652" data-name="Rectángulo 52652" width="12.447" height="1.71" transform="translate(30.371 30.376)" fill="#1a1818"/>
          <rect id="Rectángulo_52653" data-name="Rectángulo 52653" width="1.734" height="1.719" transform="translate(41.085 26.812)" fill="#1a1818"/>
          <rect id="Rectángulo_52654" data-name="Rectángulo 52654" width="1.722" height="1.717" transform="translate(30.375 26.814)" fill="#1a1818"/>
          <rect id="Rectángulo_52655" data-name="Rectángulo 52655" width="1.738" height="1.705" transform="translate(33.945 26.813)" fill="#1a1818"/>
          <rect id="Rectángulo_52656" data-name="Rectángulo 52656" width="1.72" height="1.716" transform="translate(37.519 26.816)" fill="#1a1818"/>
        </g>
      </g>
    </g>
  </g>
</svg>
