<svg xmlns="http://www.w3.org/2000/svg" width="76.219" height="79.717" viewBox="0 0 76.219 79.717">
  <g id="report" transform="translate(-24.507 -18.2)">
    <path id="Trazado_228273" data-name="Trazado 228273" d="M120.38,177.773a12.7,12.7,0,0,0-2.711-.449,37.881,37.881,0,0,1-17.238-7.332c-.117-.1-.215-.214-.331-.312.41-.37.936-.253,1.4-.253H141.85c1.463,0,1.6-.156,1.619-1.6a16.83,16.83,0,0,1,.137-3.569,1.129,1.129,0,0,1,1.092-.429c1.053-.02,2.106,0,3.179-.02.9-.019,1.034-.156,1.053-1.034.02-1.053,0-2.106,0-3.179a1.979,1.979,0,0,1,.176-1.053,1.38,1.38,0,0,1,1.151-.332c.955-.02,1.911,0,2.886,0,.6,0,.917-.273.9-.9v-38.26a10.208,10.208,0,0,1,.02-1.092c.039-.234,0-.546.371-.565a38.121,38.121,0,0,1-24.3,59.749,28.345,28.345,0,0,1-3.393.449c-.117,0-.253,0-.312.156h-1.56a1.121,1.121,0,0,0-.936,0h-.936a1.507,1.507,0,0,0-1.092,0C121.414,177.773,120.907,177.773,120.38,177.773Z" transform="translate(-60.852 -79.856)" fill="#445e9f"/>
    <path id="Trazado_228274" data-name="Trazado 228274" d="M212.1,426.245a.907.907,0,0,1,1.092,0Z" transform="translate(-151.012 -328.328)" fill="#5f75ad"/>
    <path id="Trazado_228275" data-name="Trazado 228275" d="M222.5,426.245a.69.69,0,0,1,.936,0Z" transform="translate(-159.384 -328.328)" fill="#5f75ad"/>
    <path id="Trazado_228276" data-name="Trazado 228276" d="M179.322,37.705c-.215.273-.1.6-.1.9V77.33c0,1.443-.059,1.482-1.482,1.5a28.463,28.463,0,0,0-3.647.078,2.9,2.9,0,0,1-.995.117H132.657c-.215,0-.409,0-.624-.02a1.069,1.069,0,0,1-1.014-1.17c-.02-.312-.02-.624-.02-.936V20.331c0-.332,0-.683.02-1.014a.9.9,0,0,1,.682-.917h46.352c.956,0,1.112.176,1.112,1.151V36.672A2.723,2.723,0,0,0,179.322,37.705Z" transform="translate(-85.726 -0.161)" fill="#ebf1f7"/>
    <path id="Trazado_228277" data-name="Trazado 228277" d="M101.483,101.976c.312.02.624.039.936.039h40.093a2.436,2.436,0,0,1,.995.078v4.329c0,1.034-.156,1.17-1.17,1.19a35.653,35.653,0,0,0-4.329.1,2.476,2.476,0,0,1-.995.1H97.407c-1.17,0-2.321.253-3.491.156-.331-.039-.761.078-.917-.39a1.718,1.718,0,0,1,1.268-.254c.527.02.722-.137.722-.7-.039-13.065-.02-26.13-.02-39.215V48.741c0-.6-.136-1.307.7-1.541h1.853c.371.351.273.819.273,1.248v51.5c0,1.872.039,1.95,1.911,1.911A9.051,9.051,0,0,0,101.483,101.976Z" transform="translate(-55.136 -23.345)" fill="#fe9418"/>
    <path id="Trazado_228278" data-name="Trazado 228278" d="M79.113,129.952a6.134,6.134,0,0,0,2.594.1c.488-.039.975-.1,1.463-.1h39.956c.312,0,.683-.137.956.156,0,1.443,0,2.906.02,4.349a.918.918,0,0,1-1.014,1.073H81.472c-.332,0-.663.02-1.014.039a25.921,25.921,0,0,1-4.466-4.056,2.519,2.519,0,0,1-.254-1.5V76.716c0-.6-.156-1.287.546-1.658L78.45,75c.371.39.273.878.273,1.326V128.08A3.9,3.9,0,0,0,79.113,129.952Z" transform="translate(-41.23 -45.724)" fill="#feae10"/>
    <path id="Trazado_228279" data-name="Trazado 228279" d="M31.682,162.124a34.254,34.254,0,0,1-4.992-9.438,37.066,37.066,0,0,1-2.145-14.274,37.832,37.832,0,0,1,6.864-20.319c.078-.1.176-.195.254-.292a2.025,2.025,0,0,1,.254,1.424v41.653A1.676,1.676,0,0,1,31.682,162.124Z" transform="translate(0 -80.178)" fill="#445e9f"/>
    <path id="Trazado_228280" data-name="Trazado 228280" d="M120.235,78.631a12.247,12.247,0,0,1-3.159.078.783.783,0,0,1-.78-.9V23.836c0-1.482.02-2.945.02-4.427,0-.975.214-1.19,1.17-1.209h2.4a1.413,1.413,0,0,0-.468,1.326V77.559C119.4,78.2,119.514,78.631,120.235,78.631Z" transform="translate(-73.889)" fill="#c2dcf3"/>
    <path id="Trazado_228281" data-name="Trazado 228281" d="M61.3,127.67c.02-.253.039-.527.039-.78V84.126c0-.253-.02-.527-.039-.78.02-2.3.02-4.6.039-6.9,0-1.229.215-1.443,1.443-1.443.644,0,1.287.02,1.931.02a2.031,2.031,0,0,0-.312,1.17q0,27.642.02,55.283A17.737,17.737,0,0,1,61.3,127.67Z" transform="translate(-29.618 -45.724)" fill="#ee9514"/>
    <path id="Trazado_228282" data-name="Trazado 228282" d="M90.408,107.492a.71.71,0,0,1-.624-.839V53.613c0-.371-.019-.722-.019-1.092,0-1.443-.02-2.906,0-4.349,0-.9.195-1.073,1.112-1.073.722,0,1.443.02,2.165.02-.488.312-.468.819-.468,1.307v56.1c0,.644.02,1.307,0,1.95a1.848,1.848,0,0,0,.273,1.014Z" transform="translate(-52.525 -23.264)" fill="#ee8218"/>
    <path id="Trazado_228283" data-name="Trazado 228283" d="M143.94,189.574c.39,2.555,1.619,4.017,3.764,4.446a4.52,4.52,0,0,0,5.3-3.8c.059-.488.176-.663.7-.663,1.131.039,2.282.02,3.413,0,.39,0,.546.1.526.527a9.106,9.106,0,0,1-18.018,1.248,4.936,4.936,0,0,1-.117-1.775.991.991,0,0,1,.722-.214c.995-.02,2.009-.02,3,0A1.088,1.088,0,0,1,143.94,189.574Z" transform="translate(-92.544 -137.755)" fill="#feae10"/>
    <path id="Trazado_228284" data-name="Trazado 228284" d="M293.536,248.88h-4.427c-.995,0-1.209-.2-1.209-1.17V241.49c0-.917.253-1.17,1.131-1.19h6.3c.9,0,1.131.254,1.131,1.17v4.5c-.332.429-.8.273-1.209.293-1.307.039-1.345.078-1.384,1.345C293.867,248.061,294.062,248.568,293.536,248.88Z" transform="translate(-212.03 -178.79)" fill="#fd3745"/>
    <path id="Trazado_228285" data-name="Trazado 228285" d="M148.7,91.681c2.282.078,2.282.078,2.3-2.184a5.517,5.517,0,0,1,.078-1.7c.351.215.273.585.292.917.02.663.02,1.346,0,2.028,0,.488.2.722.7.7.566-.019,1.131-.019,1.716,0,.507,0,.7-.234.7-.7,0-.683-.02-1.346,0-2.028.02-.331-.059-.683.292-.917a22.37,22.37,0,0,1,.078,3.237c0,.488.117.7.644.663.565-.039,1.131-.02,1.7-.039a6.137,6.137,0,0,1,3.744.02,5.018,5.018,0,0,1,1.073.117,1.069,1.069,0,0,1,.8,1.248,1.012,1.012,0,0,1-1.014.975,3.756,3.756,0,0,1-.468.02H138.424a5.107,5.107,0,0,1-.546-.02,1.139,1.139,0,0,1-.234-2.165,3.749,3.749,0,0,1,1.229-.176,1.4,1.4,0,0,1,1.111-.234c.878.059,1.814-.234,2.652.234h2.321a1.138,1.138,0,0,1,.956-.234C146.829,91.505,147.8,91.213,148.7,91.681Z" transform="translate(-90.518 -56.028)" fill="#52baee"/>
    <path id="Trazado_228286" data-name="Trazado 228286" d="M204.447,141.529h-.234a5.459,5.459,0,0,1-1.7-.039c-.6-.195-.273-.936-.488-1.424a4.583,4.583,0,0,0-3.881-3.042c-.332-.039-.449-.156-.449-.468,0-1.19.02-2.379,0-3.588,0-.468.273-.468.6-.468a7.972,7.972,0,0,1,4.817,1.716,8.67,8.67,0,0,1,3.627,6.572c.039.585-.156.8-.741.741C205.481,141.49,204.974,141.529,204.447,141.529Z" transform="translate(-139.42 -92.011)" fill="#90dfe7"/>
    <path id="Trazado_228287" data-name="Trazado 228287" d="M143.966,152.834H139.52c-.292-3.861,2.75-7.82,6.786-8.834,2.243-.566,2.243-.566,2.243,1.677v.546a5.955,5.955,0,0,1-.039,1.775c-.234.663-1.034.332-1.541.546A4.813,4.813,0,0,0,143.966,152.834Z" transform="translate(-92.569 -101.015)" fill="#fd3745"/>
    <path id="Trazado_228288" data-name="Trazado 228288" d="M154.34,252.2h-8.853c-1.034,0-1.619-.78-1.248-1.619a1.34,1.34,0,0,1,1.346-.721c1.346-.02,2.691,0,4.037,0h13.124a3.448,3.448,0,0,1,.995.1,1.125,1.125,0,0,1-.273,2.223h-4.895C157.187,252.2,155.763,252.2,154.34,252.2Z" transform="translate(-96.294 -186.482)" fill="#52baee"/>
    <path id="Trazado_228289" data-name="Trazado 228289" d="M154.462,270.4h8.775c.936,0,1.5.41,1.521,1.072.039.741-.566,1.248-1.56,1.248H145.8a2.574,2.574,0,0,1-.761-.117,1.044,1.044,0,0,1-.8-1.248,1.012,1.012,0,0,1,1.034-.956c1.014-.039,2.028-.02,3.023-.02C150.367,270.4,152.414,270.4,154.462,270.4Z" transform="translate(-96.376 -203)" fill="#52baee"/>
    <path id="Trazado_228290" data-name="Trazado 228290" d="M154.419,292.94h-8.775a1.346,1.346,0,0,1-1.131-.37,1.13,1.13,0,0,1,.351-1.814,2.424,2.424,0,0,1,.995-.156h17.1a4.1,4.1,0,0,1,.839.1,1.059,1.059,0,0,1,.917,1.248,1.087,1.087,0,0,1-1.19.995h-9.107Z" transform="translate(-96.354 -219.281)" fill="#52baee"/>
    <path id="Trazado_228291" data-name="Trazado 228291" d="M265.416,143.5h7.7c.234,0,.468,0,.7.02a1.141,1.141,0,0,1,.136,2.262,4.046,4.046,0,0,1-.838.059H257.4c-.916-.039-1.423-.488-1.4-1.229.02-.683.527-1.112,1.4-1.112Z" transform="translate(-186.349 -100.866)" fill="#fd3745"/>
    <path id="Trazado_228292" data-name="Trazado 228292" d="M265.394,184.28h7.937a1.464,1.464,0,0,1,1.092.292,1.14,1.14,0,0,1-.332,1.911,2.462,2.462,0,0,1-.995.137H257.146c-.8-.078-1.268-.527-1.248-1.209a1.164,1.164,0,0,1,1.326-1.112C259.954,184.26,262.664,184.28,265.394,184.28Z" transform="translate(-186.268 -133.69)" fill="#fd3745"/>
    <path id="Trazado_228293" data-name="Trazado 228293" d="M265.367,165.96h-7.7a3.491,3.491,0,0,1-.78-.039,1.047,1.047,0,0,1-.917-1.014,1.084,1.084,0,0,1,.721-1.17,2.435,2.435,0,0,1,.917-.137h15.873c.9.039,1.423.507,1.385,1.229-.039.7-.507,1.092-1.4,1.112C270.749,165.96,268.058,165.96,265.367,165.96Z" transform="translate(-186.319 -117.047)" fill="#fd3745"/>
    <path id="Trazado_228294" data-name="Trazado 228294" d="M265.369,206.82h-7.625a5.21,5.21,0,0,1-.78-.02,1.075,1.075,0,0,1-.995-1.034,1.026,1.026,0,0,1,.8-1.17,3.571,3.571,0,0,1,.917-.1h15.873c.839.058,1.345.546,1.307,1.229s-.507,1.092-1.346,1.092C270.809,206.84,268.079,206.82,265.369,206.82Z" transform="translate(-186.321 -149.971)" fill="#fd3745"/>
    <path id="Trazado_228295" data-name="Trazado 228295" d="M150.464,62.847H146.7V53.058c0-.936.117-1.073,1.073-1.073.6,0,1.19.02,1.794,0,.663-.039.9.254.9.917C150.444,56.217,150.464,59.532,150.464,62.847Z" transform="translate(-98.365 -27.195)" fill="#feae10"/>
    <path id="Trazado_228296" data-name="Trazado 228296" d="M244.444,62.765c-1.248,0-2.5-.02-3.744-.02,0-3.315.019-6.63,0-9.926,0-.722.273-.975.956-.936.565.02,1.131,0,1.716,0,.878.02,1.092.215,1.092,1.112C244.464,56.252,244.444,59.509,244.444,62.765Z" transform="translate(-174.035 -27.113)" fill="#91dfe7"/>
    <path id="Trazado_228297" data-name="Trazado 228297" d="M316.8,272.306a7.219,7.219,0,0,0,.058-1.833c0-.7.292-1.053,1.014-1.034.624.02,1.229-.02,1.853-.039.643.02,1.287.039,1.95.039.682-.02,1.014.293,1.014.975v3.881a.839.839,0,0,1-.956.956c-1.287,0-2.594-.02-3.881,0-.7,0-.956-.351-.975-1.014A8.012,8.012,0,0,0,316.8,272.306Z" transform="translate(-235.295 -202.215)" fill="#37c37a"/>
    <path id="Trazado_228298" data-name="Trazado 228298" d="M292.252,46.919h5.129c.917,0,1.443.429,1.443,1.151,0,.7-.546,1.17-1.443,1.17-3.413,0-6.825.02-10.238,0-.9,0-1.443-.468-1.443-1.19,0-.7.546-1.151,1.463-1.151C288.84,46.9,290.536,46.919,292.252,46.919Z" transform="translate(-210.259 -23.103)" fill="#da722c"/>
    <path id="Trazado_228299" data-name="Trazado 228299" d="M181.664,75H177.9V68.158c0-.936.136-1.053,1.072-1.073.6,0,1.19.02,1.794,0,.663-.039.917.254.9.917C181.644,70.342,181.664,72.682,181.664,75Z" transform="translate(-123.481 -39.35)" fill="#fd3745"/>
    <path id="Trazado_228300" data-name="Trazado 228300" d="M292.01,87.7h5.051c.955,0,1.443.39,1.463,1.131.02.722-.507,1.19-1.424,1.209-3.452.019-6.9,0-10.355,0a1.249,1.249,0,0,1-1.268-.741,1.072,1.072,0,0,1,.175-1.17,1.253,1.253,0,0,1,1.112-.429Z" transform="translate(-209.998 -55.947)" fill="#da722c"/>
    <path id="Trazado_228301" data-name="Trazado 228301" d="M292.189,69.46H287.06c-.917,0-1.463-.429-1.463-1.131-.02-.7.546-1.19,1.443-1.19,3.432-.02,6.845-.02,10.277,0,.9,0,1.443.487,1.423,1.209-.02.741-.507,1.112-1.462,1.131C295.563,69.48,293.886,69.46,292.189,69.46Z" transform="translate(-210.177 -39.384)" fill="#da722c"/>
    <path id="Trazado_228302" data-name="Trazado 228302" d="M292.172,110.1h-5.129c-.9,0-1.443-.449-1.443-1.17,0-.7.565-1.17,1.463-1.17,3.393-.02,6.786,0,10.2,0a3.786,3.786,0,0,1,.468.039,1.105,1.105,0,0,1,.995,1.19,1.077,1.077,0,0,1-1.17,1.092c-1.794.039-3.588.02-5.382.02Z" transform="translate(-210.179 -72.092)" fill="#da722c"/>
    <path id="Trazado_228303" data-name="Trazado 228303" d="M213.005,85.988c-.02,1.092-.039,2.184-.02,3.257,0,.468-.137.663-.624.644-.8-.039-1.6-.039-2.418,0-.488.02-.624-.175-.624-.644.02-1.092-.02-2.184-.02-3.257a.573.573,0,0,1,.624-.449c.819-.02,1.638-.02,2.438,0C212.693,85.54,212.947,85.637,213.005,85.988Z" transform="translate(-148.758 -54.196)" fill="#37c37a"/>
  </g>
</svg>
